%TF.GenerationSoftware,KiCad,Pcbnew,(6.0.9)*%
%TF.CreationDate,2022-11-23T22:08:25-07:00*%
%TF.ProjectId,AQM,41514d2e-6b69-4636-9164-5f7063625858,rev?*%
%TF.SameCoordinates,Original*%
%TF.FileFunction,Copper,L2,Inr*%
%TF.FilePolarity,Positive*%
%FSLAX46Y46*%
G04 Gerber Fmt 4.6, Leading zero omitted, Abs format (unit mm)*
G04 Created by KiCad (PCBNEW (6.0.9)) date 2022-11-23 22:08:25*
%MOMM*%
%LPD*%
G01*
G04 APERTURE LIST*
%TA.AperFunction,ComponentPad*%
%ADD10C,5.600000*%
%TD*%
%TA.AperFunction,ComponentPad*%
%ADD11O,1.700000X1.700000*%
%TD*%
%TA.AperFunction,ComponentPad*%
%ADD12R,1.700000X1.700000*%
%TD*%
%TA.AperFunction,ComponentPad*%
%ADD13O,1.850000X3.048000*%
%TD*%
%TA.AperFunction,ViaPad*%
%ADD14C,0.800000*%
%TD*%
G04 APERTURE END LIST*
D10*
%TO.N,GND*%
%TO.C,H3*%
X168675000Y-132225000D03*
%TD*%
%TO.N,GND*%
%TO.C,H4*%
X118675000Y-132225000D03*
%TD*%
D11*
%TO.N,unconnected-(U1-Pad26)*%
%TO.C,U1*%
X152565000Y-89079400D03*
%TO.N,VBUS*%
X152565000Y-91619400D03*
D12*
%TO.N,GND*%
X152565000Y-94159400D03*
D11*
%TO.N,unconnected-(U1-Pad23)*%
X152565000Y-96699400D03*
%TO.N,+3V3*%
X152565000Y-99239400D03*
%TO.N,unconnected-(U1-Pad21)*%
X152565000Y-101779400D03*
%TO.N,unconnected-(U1-Pad20)*%
X152565000Y-104319400D03*
D12*
%TO.N,unconnected-(U1-Pad19)*%
X152565000Y-106859400D03*
D11*
%TO.N,unconnected-(U1-Pad18)*%
X152565000Y-109399400D03*
%TO.N,unconnected-(U1-Pad17)*%
X152565000Y-111939400D03*
%TO.N,unconnected-(U1-Pad16)*%
X152565000Y-114479400D03*
%TO.N,unconnected-(U1-Pad15)*%
X152565000Y-117019400D03*
D12*
%TO.N,Net-(C5-Pad1)*%
X152565000Y-119559400D03*
%TO.N,Net-(U1-Pad13)*%
X134785000Y-119559400D03*
D11*
%TO.N,unconnected-(U1-Pad12)*%
X134785000Y-117019400D03*
%TO.N,unconnected-(U1-Pad11)*%
X134785000Y-114479400D03*
%TO.N,unconnected-(U1-Pad10)*%
X134785000Y-111939400D03*
%TO.N,unconnected-(U1-Pad9)*%
X134785000Y-109399400D03*
D12*
%TO.N,Net-(R6-Pad2)*%
X134785000Y-106859400D03*
D11*
%TO.N,Net-(U1-Pad7)*%
X134785000Y-104319400D03*
%TO.N,Net-(R1-Pad1)*%
X134785000Y-101779400D03*
%TO.N,GND*%
X134785000Y-99239400D03*
X134785000Y-96699400D03*
D12*
%TO.N,unconnected-(U1-Pad3)*%
X134785000Y-94159400D03*
D11*
%TO.N,unconnected-(U1-Pad2)*%
X134785000Y-91619400D03*
%TO.N,unconnected-(U1-Pad1)*%
X134785000Y-89079400D03*
%TD*%
%TO.N,GND*%
%TO.C,J7*%
X128577400Y-96125400D03*
D12*
%TO.N,Net-(R1-Pad2)*%
X128577400Y-98665400D03*
%TD*%
D10*
%TO.N,GND*%
%TO.C,H1*%
X118675000Y-92225000D03*
%TD*%
%TO.N,GND*%
%TO.C,H2*%
X168675000Y-92225000D03*
%TD*%
D11*
%TO.N,GND*%
%TO.C,J8*%
X124585000Y-111850000D03*
D12*
%TO.N,Net-(J8-Pad1)*%
X127125000Y-111850000D03*
%TD*%
D11*
%TO.N,Net-(R8-Pad2)*%
%TO.C,J6*%
X116885000Y-102095000D03*
%TO.N,VBUS*%
X116885000Y-104635000D03*
D12*
%TO.N,Net-(U1-Pad7)*%
X116885000Y-107175000D03*
%TD*%
D13*
%TO.N,+3V3*%
%TO.C,SW1*%
X161500000Y-105260000D03*
X161500000Y-117760000D03*
%TO.N,Net-(R3-Pad2)*%
X166500000Y-117760000D03*
X166500000Y-105260000D03*
%TD*%
D14*
%TO.N,+3V3*%
X149425000Y-130050000D03*
X157925000Y-130075000D03*
X132475000Y-130050000D03*
X129948600Y-121596200D03*
X124025000Y-130125000D03*
X141050000Y-130050000D03*
%TO.N,VBUS*%
X139575000Y-130000000D03*
X131300000Y-130075000D03*
X156400000Y-130075000D03*
X148125000Y-130050000D03*
X125325800Y-121647000D03*
X164925000Y-130075000D03*
%TO.N,Net-(C7-Pad1)*%
X159971400Y-131502200D03*
%TO.N,Net-(C12-Pad1)*%
X134825400Y-131451400D03*
%TO.N,Net-(C10-Pad1)*%
X143055000Y-131654600D03*
%TO.N,Net-(C11-Pad1)*%
X126443400Y-131451400D03*
%TO.N,Net-(U1-Pad7)*%
X119375000Y-107125000D03*
%TO.N,Net-(C13-Pad1)*%
X151589400Y-131553000D03*
%TO.N,/I2C/I2C.SCL*%
X161901800Y-131603800D03*
X153621400Y-131603800D03*
X128526200Y-131603800D03*
X136959000Y-131603800D03*
X145087000Y-131603800D03*
%TD*%
%TA.AperFunction,Conductor*%
%TO.N,+3V3*%
G36*
X134125494Y-87678502D02*
G01*
X134171987Y-87732158D01*
X134182091Y-87802432D01*
X134152597Y-87867012D01*
X134115558Y-87896260D01*
X134058607Y-87925907D01*
X134054474Y-87929010D01*
X134054471Y-87929012D01*
X134030247Y-87947200D01*
X133879965Y-88060035D01*
X133725629Y-88221538D01*
X133722715Y-88225810D01*
X133722714Y-88225811D01*
X133637556Y-88350649D01*
X133599743Y-88406080D01*
X133505688Y-88608705D01*
X133445989Y-88823970D01*
X133422251Y-89046095D01*
X133422548Y-89051248D01*
X133422548Y-89051251D01*
X133427852Y-89143237D01*
X133435110Y-89269115D01*
X133436247Y-89274161D01*
X133436248Y-89274167D01*
X133443282Y-89305378D01*
X133484222Y-89487039D01*
X133534317Y-89610408D01*
X133565900Y-89688188D01*
X133568266Y-89694016D01*
X133684987Y-89884488D01*
X133831250Y-90053338D01*
X134003126Y-90196032D01*
X134051963Y-90224570D01*
X134076445Y-90238876D01*
X134125169Y-90290514D01*
X134138240Y-90360297D01*
X134111509Y-90426069D01*
X134071055Y-90459427D01*
X134058607Y-90465907D01*
X134054474Y-90469010D01*
X134054471Y-90469012D01*
X133884100Y-90596930D01*
X133879965Y-90600035D01*
X133725629Y-90761538D01*
X133599743Y-90946080D01*
X133505688Y-91148705D01*
X133445989Y-91363970D01*
X133422251Y-91586095D01*
X133422548Y-91591248D01*
X133422548Y-91591251D01*
X133428011Y-91685990D01*
X133435110Y-91809115D01*
X133436247Y-91814161D01*
X133436248Y-91814167D01*
X133456119Y-91902339D01*
X133484222Y-92027039D01*
X133522461Y-92121211D01*
X133565344Y-92226819D01*
X133568266Y-92234016D01*
X133684987Y-92424488D01*
X133831250Y-92593338D01*
X133835230Y-92596642D01*
X133839981Y-92600587D01*
X133879616Y-92659490D01*
X133881113Y-92730471D01*
X133843997Y-92790993D01*
X133803724Y-92815512D01*
X133688295Y-92858785D01*
X133571739Y-92946139D01*
X133484385Y-93062695D01*
X133433255Y-93199084D01*
X133426500Y-93261266D01*
X133426500Y-95057534D01*
X133433255Y-95119716D01*
X133484385Y-95256105D01*
X133571739Y-95372661D01*
X133688295Y-95460015D01*
X133696704Y-95463167D01*
X133696705Y-95463168D01*
X133805451Y-95503935D01*
X133862216Y-95546576D01*
X133886916Y-95613138D01*
X133871709Y-95682487D01*
X133852316Y-95708968D01*
X133725629Y-95841538D01*
X133722715Y-95845810D01*
X133722714Y-95845811D01*
X133680345Y-95907922D01*
X133599743Y-96026080D01*
X133505688Y-96228705D01*
X133445989Y-96443970D01*
X133422251Y-96666095D01*
X133422548Y-96671248D01*
X133422548Y-96671251D01*
X133431556Y-96827477D01*
X133435110Y-96889115D01*
X133436247Y-96894161D01*
X133436248Y-96894167D01*
X133444434Y-96930488D01*
X133484222Y-97107039D01*
X133539037Y-97242032D01*
X133565377Y-97306900D01*
X133568266Y-97314016D01*
X133570965Y-97318420D01*
X133652908Y-97452139D01*
X133684987Y-97504488D01*
X133831250Y-97673338D01*
X134003126Y-97816032D01*
X134073595Y-97857211D01*
X134076445Y-97858876D01*
X134125169Y-97910514D01*
X134138240Y-97980297D01*
X134111509Y-98046069D01*
X134071055Y-98079427D01*
X134058607Y-98085907D01*
X134054474Y-98089010D01*
X134054471Y-98089012D01*
X134030247Y-98107200D01*
X133879965Y-98220035D01*
X133725629Y-98381538D01*
X133722715Y-98385810D01*
X133722714Y-98385811D01*
X133710404Y-98403857D01*
X133599743Y-98566080D01*
X133505688Y-98768705D01*
X133445989Y-98983970D01*
X133422251Y-99206095D01*
X133422548Y-99211248D01*
X133422548Y-99211251D01*
X133428011Y-99305990D01*
X133435110Y-99429115D01*
X133436247Y-99434161D01*
X133436248Y-99434167D01*
X133449597Y-99493400D01*
X133484222Y-99647039D01*
X133568266Y-99854016D01*
X133586666Y-99884042D01*
X133672371Y-100023900D01*
X133684987Y-100044488D01*
X133831250Y-100213338D01*
X134003126Y-100356032D01*
X134073595Y-100397211D01*
X134076445Y-100398876D01*
X134125169Y-100450514D01*
X134138240Y-100520297D01*
X134111509Y-100586069D01*
X134071055Y-100619427D01*
X134058607Y-100625907D01*
X134054474Y-100629010D01*
X134054471Y-100629012D01*
X133909538Y-100737831D01*
X133879965Y-100760035D01*
X133725629Y-100921538D01*
X133722715Y-100925810D01*
X133722714Y-100925811D01*
X133699666Y-100959598D01*
X133599743Y-101106080D01*
X133505688Y-101308705D01*
X133445989Y-101523970D01*
X133422251Y-101746095D01*
X133422548Y-101751248D01*
X133422548Y-101751251D01*
X133427937Y-101844707D01*
X133435110Y-101969115D01*
X133436247Y-101974161D01*
X133436248Y-101974167D01*
X133454817Y-102056562D01*
X133484222Y-102187039D01*
X133522461Y-102281211D01*
X133565833Y-102388023D01*
X133568266Y-102394016D01*
X133684987Y-102584488D01*
X133831250Y-102753338D01*
X134003126Y-102896032D01*
X134016745Y-102903990D01*
X134076445Y-102938876D01*
X134125169Y-102990514D01*
X134138240Y-103060297D01*
X134111509Y-103126069D01*
X134071055Y-103159427D01*
X134058607Y-103165907D01*
X134054474Y-103169010D01*
X134054471Y-103169012D01*
X133892643Y-103290516D01*
X133879965Y-103300035D01*
X133847664Y-103333836D01*
X133739183Y-103447355D01*
X133725629Y-103461538D01*
X133722715Y-103465810D01*
X133722714Y-103465811D01*
X133699666Y-103499598D01*
X133599743Y-103646080D01*
X133584003Y-103679990D01*
X133533862Y-103788010D01*
X133505688Y-103848705D01*
X133445989Y-104063970D01*
X133422251Y-104286095D01*
X133422548Y-104291248D01*
X133422548Y-104291251D01*
X133428623Y-104396605D01*
X133435110Y-104509115D01*
X133436247Y-104514161D01*
X133436248Y-104514167D01*
X133451212Y-104580563D01*
X133484222Y-104727039D01*
X133522461Y-104821211D01*
X133565833Y-104928023D01*
X133568266Y-104934016D01*
X133684987Y-105124488D01*
X133831250Y-105293338D01*
X133835230Y-105296642D01*
X133839981Y-105300587D01*
X133879616Y-105359490D01*
X133881113Y-105430471D01*
X133843997Y-105490993D01*
X133803725Y-105515512D01*
X133759437Y-105532115D01*
X133688295Y-105558785D01*
X133571739Y-105646139D01*
X133484385Y-105762695D01*
X133433255Y-105899084D01*
X133426500Y-105961266D01*
X133426500Y-107757534D01*
X133433255Y-107819716D01*
X133484385Y-107956105D01*
X133571739Y-108072661D01*
X133688295Y-108160015D01*
X133696704Y-108163167D01*
X133696705Y-108163168D01*
X133805451Y-108203935D01*
X133862216Y-108246576D01*
X133886916Y-108313138D01*
X133871709Y-108382487D01*
X133852316Y-108408968D01*
X133739766Y-108526745D01*
X133725629Y-108541538D01*
X133599743Y-108726080D01*
X133505688Y-108928705D01*
X133445989Y-109143970D01*
X133422251Y-109366095D01*
X133422548Y-109371248D01*
X133422548Y-109371251D01*
X133428011Y-109465990D01*
X133435110Y-109589115D01*
X133436247Y-109594161D01*
X133436248Y-109594167D01*
X133456119Y-109682339D01*
X133484222Y-109807039D01*
X133568266Y-110014016D01*
X133684987Y-110204488D01*
X133831250Y-110373338D01*
X134003126Y-110516032D01*
X134030570Y-110532069D01*
X134076445Y-110558876D01*
X134125169Y-110610514D01*
X134138240Y-110680297D01*
X134111509Y-110746069D01*
X134071055Y-110779427D01*
X134058607Y-110785907D01*
X134054474Y-110789010D01*
X134054471Y-110789012D01*
X133884100Y-110916930D01*
X133879965Y-110920035D01*
X133725629Y-111081538D01*
X133722715Y-111085810D01*
X133722714Y-111085811D01*
X133657525Y-111181375D01*
X133599743Y-111266080D01*
X133505688Y-111468705D01*
X133445989Y-111683970D01*
X133422251Y-111906095D01*
X133422548Y-111911248D01*
X133422548Y-111911251D01*
X133428011Y-112005990D01*
X133435110Y-112129115D01*
X133436247Y-112134161D01*
X133436248Y-112134167D01*
X133456119Y-112222339D01*
X133484222Y-112347039D01*
X133568266Y-112554016D01*
X133684987Y-112744488D01*
X133831250Y-112913338D01*
X134003126Y-113056032D01*
X134043010Y-113079338D01*
X134076445Y-113098876D01*
X134125169Y-113150514D01*
X134138240Y-113220297D01*
X134111509Y-113286069D01*
X134071055Y-113319427D01*
X134058607Y-113325907D01*
X134054474Y-113329010D01*
X134054471Y-113329012D01*
X134030247Y-113347200D01*
X133879965Y-113460035D01*
X133725629Y-113621538D01*
X133599743Y-113806080D01*
X133505688Y-114008705D01*
X133445989Y-114223970D01*
X133422251Y-114446095D01*
X133422548Y-114451248D01*
X133422548Y-114451251D01*
X133428011Y-114545990D01*
X133435110Y-114669115D01*
X133436247Y-114674161D01*
X133436248Y-114674167D01*
X133456119Y-114762339D01*
X133484222Y-114887039D01*
X133568266Y-115094016D01*
X133684987Y-115284488D01*
X133831250Y-115453338D01*
X134003126Y-115596032D01*
X134073595Y-115637211D01*
X134076445Y-115638876D01*
X134125169Y-115690514D01*
X134138240Y-115760297D01*
X134111509Y-115826069D01*
X134071055Y-115859427D01*
X134058607Y-115865907D01*
X134054474Y-115869010D01*
X134054471Y-115869012D01*
X133924584Y-115966534D01*
X133879965Y-116000035D01*
X133725629Y-116161538D01*
X133722715Y-116165810D01*
X133722714Y-116165811D01*
X133658431Y-116260046D01*
X133599743Y-116346080D01*
X133584003Y-116379990D01*
X133538891Y-116477176D01*
X133505688Y-116548705D01*
X133445989Y-116763970D01*
X133422251Y-116986095D01*
X133422548Y-116991248D01*
X133422548Y-116991251D01*
X133429041Y-117103855D01*
X133435110Y-117209115D01*
X133436247Y-117214161D01*
X133436248Y-117214167D01*
X133456119Y-117302339D01*
X133484222Y-117427039D01*
X133568266Y-117634016D01*
X133684987Y-117824488D01*
X133831250Y-117993338D01*
X133835230Y-117996642D01*
X133839981Y-118000587D01*
X133879616Y-118059490D01*
X133881113Y-118130471D01*
X133843997Y-118190993D01*
X133803724Y-118215512D01*
X133688295Y-118258785D01*
X133571739Y-118346139D01*
X133484385Y-118462695D01*
X133433255Y-118599084D01*
X133426500Y-118661266D01*
X133426500Y-120457534D01*
X133433255Y-120519716D01*
X133484385Y-120656105D01*
X133571739Y-120772661D01*
X133688295Y-120860015D01*
X133824684Y-120911145D01*
X133886866Y-120917900D01*
X135683134Y-120917900D01*
X135745316Y-120911145D01*
X135881705Y-120860015D01*
X135998261Y-120772661D01*
X136085615Y-120656105D01*
X136136745Y-120519716D01*
X136143500Y-120457534D01*
X136143500Y-118661266D01*
X136136745Y-118599084D01*
X136085615Y-118462695D01*
X135998261Y-118346139D01*
X135881705Y-118258785D01*
X135869132Y-118254072D01*
X135763203Y-118214360D01*
X135706439Y-118171718D01*
X135681739Y-118105156D01*
X135696947Y-118035808D01*
X135718493Y-118007127D01*
X135819435Y-117906537D01*
X135823096Y-117902889D01*
X135882594Y-117820089D01*
X135950435Y-117725677D01*
X135953453Y-117721477D01*
X136052430Y-117521211D01*
X136117370Y-117307469D01*
X136146529Y-117085990D01*
X136148156Y-117019400D01*
X136145418Y-116986095D01*
X151202251Y-116986095D01*
X151202548Y-116991248D01*
X151202548Y-116991251D01*
X151209041Y-117103855D01*
X151215110Y-117209115D01*
X151216247Y-117214161D01*
X151216248Y-117214167D01*
X151236119Y-117302339D01*
X151264222Y-117427039D01*
X151348266Y-117634016D01*
X151464987Y-117824488D01*
X151611250Y-117993338D01*
X151615230Y-117996642D01*
X151619981Y-118000587D01*
X151659616Y-118059490D01*
X151661113Y-118130471D01*
X151623997Y-118190993D01*
X151583724Y-118215512D01*
X151468295Y-118258785D01*
X151351739Y-118346139D01*
X151264385Y-118462695D01*
X151213255Y-118599084D01*
X151206500Y-118661266D01*
X151206500Y-120457534D01*
X151213255Y-120519716D01*
X151264385Y-120656105D01*
X151351739Y-120772661D01*
X151468295Y-120860015D01*
X151604684Y-120911145D01*
X151666866Y-120917900D01*
X153463134Y-120917900D01*
X153525316Y-120911145D01*
X153661705Y-120860015D01*
X153778261Y-120772661D01*
X153865615Y-120656105D01*
X153916745Y-120519716D01*
X153923500Y-120457534D01*
X153923500Y-118661266D01*
X153916745Y-118599084D01*
X153865615Y-118462695D01*
X153830728Y-118416145D01*
X160067000Y-118416145D01*
X160067212Y-118421318D01*
X160080973Y-118588687D01*
X160082658Y-118598867D01*
X160137544Y-118817377D01*
X160140864Y-118827128D01*
X160230704Y-119033749D01*
X160235570Y-119042824D01*
X160357948Y-119231990D01*
X160364240Y-119240161D01*
X160515869Y-119406800D01*
X160523402Y-119413825D01*
X160700218Y-119553466D01*
X160708791Y-119559162D01*
X160906045Y-119668052D01*
X160915440Y-119672273D01*
X161127820Y-119747481D01*
X161137783Y-119750113D01*
X161228163Y-119766212D01*
X161241460Y-119764752D01*
X161245508Y-119751774D01*
X161754000Y-119751774D01*
X161757918Y-119765118D01*
X161772194Y-119767105D01*
X161828121Y-119758547D01*
X161838146Y-119756159D01*
X162052295Y-119686164D01*
X162061804Y-119682167D01*
X162261640Y-119578139D01*
X162270365Y-119572645D01*
X162450532Y-119437372D01*
X162458239Y-119430529D01*
X162613896Y-119267644D01*
X162620379Y-119259638D01*
X162747343Y-119073515D01*
X162752432Y-119064556D01*
X162847294Y-118860193D01*
X162850851Y-118850525D01*
X162911060Y-118633420D01*
X162912991Y-118623301D01*
X162932644Y-118439405D01*
X162933000Y-118432713D01*
X162933000Y-118418757D01*
X165066500Y-118418757D01*
X165066711Y-118421318D01*
X165066712Y-118421341D01*
X165080478Y-118588779D01*
X165080479Y-118588785D01*
X165080902Y-118593930D01*
X165138327Y-118822551D01*
X165232322Y-119038723D01*
X165360360Y-119236641D01*
X165363839Y-119240464D01*
X165363841Y-119240467D01*
X165388858Y-119267960D01*
X165519005Y-119410989D01*
X165523056Y-119414188D01*
X165523060Y-119414192D01*
X165699939Y-119553883D01*
X165699943Y-119553885D01*
X165703994Y-119557085D01*
X165910361Y-119671005D01*
X165915230Y-119672729D01*
X165915234Y-119672731D01*
X166127689Y-119747965D01*
X166127693Y-119747966D01*
X166132564Y-119749691D01*
X166137657Y-119750598D01*
X166137660Y-119750599D01*
X166359544Y-119790123D01*
X166359550Y-119790124D01*
X166364633Y-119791029D01*
X166455477Y-119792139D01*
X166595170Y-119793846D01*
X166595172Y-119793846D01*
X166600339Y-119793909D01*
X166833349Y-119758253D01*
X167057407Y-119685020D01*
X167266496Y-119576175D01*
X167270629Y-119573072D01*
X167270632Y-119573070D01*
X167450865Y-119437747D01*
X167450868Y-119437745D01*
X167455000Y-119434642D01*
X167617857Y-119264223D01*
X167750693Y-119069492D01*
X167752869Y-119064805D01*
X167847764Y-118860372D01*
X167847766Y-118860367D01*
X167849941Y-118855681D01*
X167912935Y-118628532D01*
X167917193Y-118588687D01*
X167933144Y-118439437D01*
X167933144Y-118439429D01*
X167933500Y-118436102D01*
X167933500Y-117101243D01*
X167931971Y-117082640D01*
X167919522Y-116931221D01*
X167919521Y-116931215D01*
X167919098Y-116926070D01*
X167861673Y-116697449D01*
X167767678Y-116481277D01*
X167639640Y-116283359D01*
X167618715Y-116260362D01*
X167484473Y-116112833D01*
X167484471Y-116112832D01*
X167480995Y-116109011D01*
X167476944Y-116105812D01*
X167476940Y-116105808D01*
X167300061Y-115966117D01*
X167300057Y-115966115D01*
X167296006Y-115962915D01*
X167089639Y-115848995D01*
X167084770Y-115847271D01*
X167084766Y-115847269D01*
X166872311Y-115772035D01*
X166872307Y-115772034D01*
X166867436Y-115770309D01*
X166862343Y-115769402D01*
X166862340Y-115769401D01*
X166640456Y-115729877D01*
X166640450Y-115729876D01*
X166635367Y-115728971D01*
X166544523Y-115727861D01*
X166404830Y-115726154D01*
X166404828Y-115726154D01*
X166399661Y-115726091D01*
X166166651Y-115761747D01*
X165942593Y-115834980D01*
X165733504Y-115943825D01*
X165729371Y-115946928D01*
X165729368Y-115946930D01*
X165549135Y-116082253D01*
X165545000Y-116085358D01*
X165382143Y-116255777D01*
X165249307Y-116450508D01*
X165247133Y-116455192D01*
X165247131Y-116455195D01*
X165205905Y-116544010D01*
X165150059Y-116664319D01*
X165087065Y-116891468D01*
X165066500Y-117083898D01*
X165066500Y-118418757D01*
X162933000Y-118418757D01*
X162933000Y-118032115D01*
X162928525Y-118016876D01*
X162927135Y-118015671D01*
X162919452Y-118014000D01*
X161772115Y-118014000D01*
X161756876Y-118018475D01*
X161755671Y-118019865D01*
X161754000Y-118027548D01*
X161754000Y-119751774D01*
X161245508Y-119751774D01*
X161246000Y-119750197D01*
X161246000Y-118032115D01*
X161241525Y-118016876D01*
X161240135Y-118015671D01*
X161232452Y-118014000D01*
X160085115Y-118014000D01*
X160069876Y-118018475D01*
X160068671Y-118019865D01*
X160067000Y-118027548D01*
X160067000Y-118416145D01*
X153830728Y-118416145D01*
X153778261Y-118346139D01*
X153661705Y-118258785D01*
X153649132Y-118254072D01*
X153543203Y-118214360D01*
X153486439Y-118171718D01*
X153461739Y-118105156D01*
X153476947Y-118035808D01*
X153498493Y-118007127D01*
X153599435Y-117906537D01*
X153603096Y-117902889D01*
X153662594Y-117820089D01*
X153730435Y-117725677D01*
X153733453Y-117721477D01*
X153832430Y-117521211D01*
X153842555Y-117487885D01*
X160067000Y-117487885D01*
X160071475Y-117503124D01*
X160072865Y-117504329D01*
X160080548Y-117506000D01*
X161227885Y-117506000D01*
X161243124Y-117501525D01*
X161244329Y-117500135D01*
X161246000Y-117492452D01*
X161246000Y-117487885D01*
X161754000Y-117487885D01*
X161758475Y-117503124D01*
X161759865Y-117504329D01*
X161767548Y-117506000D01*
X162914885Y-117506000D01*
X162930124Y-117501525D01*
X162931329Y-117500135D01*
X162933000Y-117492452D01*
X162933000Y-117103855D01*
X162932788Y-117098682D01*
X162919027Y-116931313D01*
X162917342Y-116921133D01*
X162862456Y-116702623D01*
X162859136Y-116692872D01*
X162769296Y-116486251D01*
X162764430Y-116477176D01*
X162642052Y-116288010D01*
X162635760Y-116279839D01*
X162484131Y-116113200D01*
X162476598Y-116106175D01*
X162299782Y-115966534D01*
X162291209Y-115960838D01*
X162093955Y-115851948D01*
X162084560Y-115847727D01*
X161872180Y-115772519D01*
X161862217Y-115769887D01*
X161771837Y-115753788D01*
X161758540Y-115755248D01*
X161754000Y-115769803D01*
X161754000Y-117487885D01*
X161246000Y-117487885D01*
X161246000Y-115768226D01*
X161242082Y-115754882D01*
X161227806Y-115752895D01*
X161171879Y-115761453D01*
X161161854Y-115763841D01*
X160947705Y-115833836D01*
X160938196Y-115837833D01*
X160738360Y-115941861D01*
X160729635Y-115947355D01*
X160549468Y-116082628D01*
X160541761Y-116089471D01*
X160386104Y-116252356D01*
X160379621Y-116260362D01*
X160252657Y-116446485D01*
X160247568Y-116455444D01*
X160152706Y-116659807D01*
X160149149Y-116669475D01*
X160088940Y-116886580D01*
X160087009Y-116896699D01*
X160067356Y-117080595D01*
X160067000Y-117087287D01*
X160067000Y-117487885D01*
X153842555Y-117487885D01*
X153897370Y-117307469D01*
X153926529Y-117085990D01*
X153928156Y-117019400D01*
X153909852Y-116796761D01*
X153855431Y-116580102D01*
X153766354Y-116375240D01*
X153709723Y-116287702D01*
X153647822Y-116192017D01*
X153647820Y-116192014D01*
X153645014Y-116187677D01*
X153494670Y-116022451D01*
X153490619Y-116019252D01*
X153490615Y-116019248D01*
X153323414Y-115887200D01*
X153323410Y-115887198D01*
X153319359Y-115883998D01*
X153278053Y-115861196D01*
X153228084Y-115810764D01*
X153213312Y-115741321D01*
X153238428Y-115674916D01*
X153265780Y-115648309D01*
X153309603Y-115617050D01*
X153444860Y-115520573D01*
X153603096Y-115362889D01*
X153662594Y-115280089D01*
X153730435Y-115185677D01*
X153733453Y-115181477D01*
X153832430Y-114981211D01*
X153897370Y-114767469D01*
X153926529Y-114545990D01*
X153928156Y-114479400D01*
X153909852Y-114256761D01*
X153855431Y-114040102D01*
X153766354Y-113835240D01*
X153645014Y-113647677D01*
X153494670Y-113482451D01*
X153490619Y-113479252D01*
X153490615Y-113479248D01*
X153323414Y-113347200D01*
X153323410Y-113347198D01*
X153319359Y-113343998D01*
X153278053Y-113321196D01*
X153228084Y-113270764D01*
X153213312Y-113201321D01*
X153238428Y-113134916D01*
X153265780Y-113108309D01*
X153328935Y-113063261D01*
X153444860Y-112980573D01*
X153462167Y-112963327D01*
X153599435Y-112826537D01*
X153603096Y-112822889D01*
X153662594Y-112740089D01*
X153730435Y-112645677D01*
X153733453Y-112641477D01*
X153823229Y-112459829D01*
X153830136Y-112445853D01*
X153830137Y-112445851D01*
X153832430Y-112441211D01*
X153897370Y-112227469D01*
X153926529Y-112005990D01*
X153928156Y-111939400D01*
X153909852Y-111716761D01*
X153855431Y-111500102D01*
X153766354Y-111295240D01*
X153726906Y-111234262D01*
X153647822Y-111112017D01*
X153647820Y-111112014D01*
X153645014Y-111107677D01*
X153494670Y-110942451D01*
X153490619Y-110939252D01*
X153490615Y-110939248D01*
X153323414Y-110807200D01*
X153323410Y-110807198D01*
X153319359Y-110803998D01*
X153278053Y-110781196D01*
X153228084Y-110730764D01*
X153213312Y-110661321D01*
X153238428Y-110594916D01*
X153265780Y-110568309D01*
X153329058Y-110523173D01*
X153444860Y-110440573D01*
X153603096Y-110282889D01*
X153662594Y-110200089D01*
X153730435Y-110105677D01*
X153733453Y-110101477D01*
X153832430Y-109901211D01*
X153897370Y-109687469D01*
X153926529Y-109465990D01*
X153928156Y-109399400D01*
X153909852Y-109176761D01*
X153855431Y-108960102D01*
X153766354Y-108755240D01*
X153645014Y-108567677D01*
X153641532Y-108563850D01*
X153497798Y-108405888D01*
X153466746Y-108342042D01*
X153475141Y-108271543D01*
X153520317Y-108216775D01*
X153546761Y-108203106D01*
X153653297Y-108163167D01*
X153661705Y-108160015D01*
X153778261Y-108072661D01*
X153865615Y-107956105D01*
X153916745Y-107819716D01*
X153923500Y-107757534D01*
X153923500Y-105961266D01*
X153918598Y-105916145D01*
X160067000Y-105916145D01*
X160067212Y-105921318D01*
X160080973Y-106088687D01*
X160082658Y-106098867D01*
X160137544Y-106317377D01*
X160140864Y-106327128D01*
X160230704Y-106533749D01*
X160235570Y-106542824D01*
X160357948Y-106731990D01*
X160364240Y-106740161D01*
X160515869Y-106906800D01*
X160523402Y-106913825D01*
X160700218Y-107053466D01*
X160708791Y-107059162D01*
X160906045Y-107168052D01*
X160915440Y-107172273D01*
X161127820Y-107247481D01*
X161137783Y-107250113D01*
X161228163Y-107266212D01*
X161241460Y-107264752D01*
X161245508Y-107251774D01*
X161754000Y-107251774D01*
X161757918Y-107265118D01*
X161772194Y-107267105D01*
X161828121Y-107258547D01*
X161838146Y-107256159D01*
X162052295Y-107186164D01*
X162061804Y-107182167D01*
X162261640Y-107078139D01*
X162270365Y-107072645D01*
X162450532Y-106937372D01*
X162458239Y-106930529D01*
X162613896Y-106767644D01*
X162620379Y-106759638D01*
X162747343Y-106573515D01*
X162752432Y-106564556D01*
X162847294Y-106360193D01*
X162850851Y-106350525D01*
X162911060Y-106133420D01*
X162912991Y-106123301D01*
X162932644Y-105939405D01*
X162933000Y-105932713D01*
X162933000Y-105918757D01*
X165066500Y-105918757D01*
X165066711Y-105921318D01*
X165066712Y-105921341D01*
X165080478Y-106088779D01*
X165080479Y-106088785D01*
X165080902Y-106093930D01*
X165138327Y-106322551D01*
X165232322Y-106538723D01*
X165360360Y-106736641D01*
X165363839Y-106740464D01*
X165363841Y-106740467D01*
X165515193Y-106906800D01*
X165519005Y-106910989D01*
X165523056Y-106914188D01*
X165523060Y-106914192D01*
X165699939Y-107053883D01*
X165699943Y-107053885D01*
X165703994Y-107057085D01*
X165910361Y-107171005D01*
X165915230Y-107172729D01*
X165915234Y-107172731D01*
X166127689Y-107247965D01*
X166127693Y-107247966D01*
X166132564Y-107249691D01*
X166137657Y-107250598D01*
X166137660Y-107250599D01*
X166359544Y-107290123D01*
X166359550Y-107290124D01*
X166364633Y-107291029D01*
X166455477Y-107292139D01*
X166595170Y-107293846D01*
X166595172Y-107293846D01*
X166600339Y-107293909D01*
X166833349Y-107258253D01*
X167057407Y-107185020D01*
X167266496Y-107076175D01*
X167270629Y-107073072D01*
X167270632Y-107073070D01*
X167450865Y-106937747D01*
X167450868Y-106937745D01*
X167455000Y-106934642D01*
X167617857Y-106764223D01*
X167750693Y-106569492D01*
X167752869Y-106564805D01*
X167847764Y-106360372D01*
X167847766Y-106360367D01*
X167849941Y-106355681D01*
X167912935Y-106128532D01*
X167930446Y-105964683D01*
X167933144Y-105939437D01*
X167933144Y-105939429D01*
X167933500Y-105936102D01*
X167933500Y-104601243D01*
X167933288Y-104598659D01*
X167919522Y-104431221D01*
X167919521Y-104431215D01*
X167919098Y-104426070D01*
X167861673Y-104197449D01*
X167767678Y-103981277D01*
X167639640Y-103783359D01*
X167633980Y-103777138D01*
X167484473Y-103612833D01*
X167484471Y-103612832D01*
X167480995Y-103609011D01*
X167476944Y-103605812D01*
X167476940Y-103605808D01*
X167300061Y-103466117D01*
X167300057Y-103466115D01*
X167296006Y-103462915D01*
X167089639Y-103348995D01*
X167084770Y-103347271D01*
X167084766Y-103347269D01*
X166872311Y-103272035D01*
X166872307Y-103272034D01*
X166867436Y-103270309D01*
X166862343Y-103269402D01*
X166862340Y-103269401D01*
X166640456Y-103229877D01*
X166640450Y-103229876D01*
X166635367Y-103228971D01*
X166544523Y-103227861D01*
X166404830Y-103226154D01*
X166404828Y-103226154D01*
X166399661Y-103226091D01*
X166166651Y-103261747D01*
X165942593Y-103334980D01*
X165733504Y-103443825D01*
X165729371Y-103446928D01*
X165729368Y-103446930D01*
X165549135Y-103582253D01*
X165545000Y-103585358D01*
X165382143Y-103755777D01*
X165249307Y-103950508D01*
X165247133Y-103955192D01*
X165247131Y-103955195D01*
X165152245Y-104159610D01*
X165150059Y-104164319D01*
X165087065Y-104391468D01*
X165066500Y-104583898D01*
X165066500Y-105918757D01*
X162933000Y-105918757D01*
X162933000Y-105532115D01*
X162928525Y-105516876D01*
X162927135Y-105515671D01*
X162919452Y-105514000D01*
X161772115Y-105514000D01*
X161756876Y-105518475D01*
X161755671Y-105519865D01*
X161754000Y-105527548D01*
X161754000Y-107251774D01*
X161245508Y-107251774D01*
X161246000Y-107250197D01*
X161246000Y-105532115D01*
X161241525Y-105516876D01*
X161240135Y-105515671D01*
X161232452Y-105514000D01*
X160085115Y-105514000D01*
X160069876Y-105518475D01*
X160068671Y-105519865D01*
X160067000Y-105527548D01*
X160067000Y-105916145D01*
X153918598Y-105916145D01*
X153916745Y-105899084D01*
X153865615Y-105762695D01*
X153778261Y-105646139D01*
X153661705Y-105558785D01*
X153649132Y-105554072D01*
X153543203Y-105514360D01*
X153486439Y-105471718D01*
X153461739Y-105405156D01*
X153476947Y-105335808D01*
X153498493Y-105307127D01*
X153599435Y-105206537D01*
X153603096Y-105202889D01*
X153662594Y-105120089D01*
X153730435Y-105025677D01*
X153733453Y-105021477D01*
X153750055Y-104987885D01*
X160067000Y-104987885D01*
X160071475Y-105003124D01*
X160072865Y-105004329D01*
X160080548Y-105006000D01*
X161227885Y-105006000D01*
X161243124Y-105001525D01*
X161244329Y-105000135D01*
X161246000Y-104992452D01*
X161246000Y-104987885D01*
X161754000Y-104987885D01*
X161758475Y-105003124D01*
X161759865Y-105004329D01*
X161767548Y-105006000D01*
X162914885Y-105006000D01*
X162930124Y-105001525D01*
X162931329Y-105000135D01*
X162933000Y-104992452D01*
X162933000Y-104603855D01*
X162932788Y-104598682D01*
X162919027Y-104431313D01*
X162917342Y-104421133D01*
X162862456Y-104202623D01*
X162859136Y-104192872D01*
X162769296Y-103986251D01*
X162764430Y-103977176D01*
X162642052Y-103788010D01*
X162635760Y-103779839D01*
X162484131Y-103613200D01*
X162476598Y-103606175D01*
X162299782Y-103466534D01*
X162291209Y-103460838D01*
X162093955Y-103351948D01*
X162084560Y-103347727D01*
X161872180Y-103272519D01*
X161862217Y-103269887D01*
X161771837Y-103253788D01*
X161758540Y-103255248D01*
X161754000Y-103269803D01*
X161754000Y-104987885D01*
X161246000Y-104987885D01*
X161246000Y-103268226D01*
X161242082Y-103254882D01*
X161227806Y-103252895D01*
X161171879Y-103261453D01*
X161161854Y-103263841D01*
X160947705Y-103333836D01*
X160938196Y-103337833D01*
X160738360Y-103441861D01*
X160729635Y-103447355D01*
X160549468Y-103582628D01*
X160541761Y-103589471D01*
X160386104Y-103752356D01*
X160379621Y-103760362D01*
X160252657Y-103946485D01*
X160247568Y-103955444D01*
X160152706Y-104159807D01*
X160149149Y-104169475D01*
X160088940Y-104386580D01*
X160087009Y-104396699D01*
X160067356Y-104580595D01*
X160067000Y-104587287D01*
X160067000Y-104987885D01*
X153750055Y-104987885D01*
X153784625Y-104917939D01*
X153830136Y-104825853D01*
X153830137Y-104825851D01*
X153832430Y-104821211D01*
X153887983Y-104638365D01*
X153895865Y-104612423D01*
X153895865Y-104612421D01*
X153897370Y-104607469D01*
X153926529Y-104385990D01*
X153928156Y-104319400D01*
X153909852Y-104096761D01*
X153855431Y-103880102D01*
X153766354Y-103675240D01*
X153645014Y-103487677D01*
X153494670Y-103322451D01*
X153490619Y-103319252D01*
X153490615Y-103319248D01*
X153323414Y-103187200D01*
X153323410Y-103187198D01*
X153319359Y-103183998D01*
X153278053Y-103161196D01*
X153228084Y-103110764D01*
X153213312Y-103041321D01*
X153238428Y-102974916D01*
X153265780Y-102948309D01*
X153333383Y-102900088D01*
X153444860Y-102820573D01*
X153473094Y-102792438D01*
X153599435Y-102666537D01*
X153603096Y-102662889D01*
X153662594Y-102580089D01*
X153730435Y-102485677D01*
X153733453Y-102481477D01*
X153784625Y-102377939D01*
X153830136Y-102285853D01*
X153830137Y-102285851D01*
X153832430Y-102281211D01*
X153887983Y-102098365D01*
X153895865Y-102072423D01*
X153895865Y-102072421D01*
X153897370Y-102067469D01*
X153926529Y-101845990D01*
X153928156Y-101779400D01*
X153909852Y-101556761D01*
X153855431Y-101340102D01*
X153766354Y-101135240D01*
X153645014Y-100947677D01*
X153494670Y-100782451D01*
X153490619Y-100779252D01*
X153490615Y-100779248D01*
X153323414Y-100647200D01*
X153323410Y-100647198D01*
X153319359Y-100643998D01*
X153277569Y-100620929D01*
X153227598Y-100570497D01*
X153212826Y-100501054D01*
X153237942Y-100434648D01*
X153265294Y-100408041D01*
X153440328Y-100283192D01*
X153448200Y-100276539D01*
X153599052Y-100126212D01*
X153605730Y-100118365D01*
X153730003Y-99945420D01*
X153735313Y-99936583D01*
X153829670Y-99745667D01*
X153833469Y-99736072D01*
X153895377Y-99532310D01*
X153897555Y-99522237D01*
X153898986Y-99511362D01*
X153896775Y-99497178D01*
X153883617Y-99493400D01*
X151248225Y-99493400D01*
X151234694Y-99497373D01*
X151233257Y-99507366D01*
X151263565Y-99641846D01*
X151266645Y-99651675D01*
X151346770Y-99849003D01*
X151351413Y-99858194D01*
X151462694Y-100039788D01*
X151468777Y-100048099D01*
X151608213Y-100209067D01*
X151615580Y-100216283D01*
X151779434Y-100352316D01*
X151787881Y-100358231D01*
X151856969Y-100398603D01*
X151905693Y-100450242D01*
X151918764Y-100520025D01*
X151892033Y-100585796D01*
X151851584Y-100619152D01*
X151838607Y-100625907D01*
X151834474Y-100629010D01*
X151834471Y-100629012D01*
X151689538Y-100737831D01*
X151659965Y-100760035D01*
X151505629Y-100921538D01*
X151502715Y-100925810D01*
X151502714Y-100925811D01*
X151479666Y-100959598D01*
X151379743Y-101106080D01*
X151285688Y-101308705D01*
X151225989Y-101523970D01*
X151202251Y-101746095D01*
X151202548Y-101751248D01*
X151202548Y-101751251D01*
X151207937Y-101844707D01*
X151215110Y-101969115D01*
X151216247Y-101974161D01*
X151216248Y-101974167D01*
X151234817Y-102056562D01*
X151264222Y-102187039D01*
X151302461Y-102281211D01*
X151345833Y-102388023D01*
X151348266Y-102394016D01*
X151464987Y-102584488D01*
X151611250Y-102753338D01*
X151783126Y-102896032D01*
X151796745Y-102903990D01*
X151856445Y-102938876D01*
X151905169Y-102990514D01*
X151918240Y-103060297D01*
X151891509Y-103126069D01*
X151851055Y-103159427D01*
X151838607Y-103165907D01*
X151834474Y-103169010D01*
X151834471Y-103169012D01*
X151672643Y-103290516D01*
X151659965Y-103300035D01*
X151627664Y-103333836D01*
X151519183Y-103447355D01*
X151505629Y-103461538D01*
X151502715Y-103465810D01*
X151502714Y-103465811D01*
X151479666Y-103499598D01*
X151379743Y-103646080D01*
X151364003Y-103679990D01*
X151313862Y-103788010D01*
X151285688Y-103848705D01*
X151225989Y-104063970D01*
X151202251Y-104286095D01*
X151202548Y-104291248D01*
X151202548Y-104291251D01*
X151208623Y-104396605D01*
X151215110Y-104509115D01*
X151216247Y-104514161D01*
X151216248Y-104514167D01*
X151231212Y-104580563D01*
X151264222Y-104727039D01*
X151302461Y-104821211D01*
X151345833Y-104928023D01*
X151348266Y-104934016D01*
X151464987Y-105124488D01*
X151611250Y-105293338D01*
X151615230Y-105296642D01*
X151619981Y-105300587D01*
X151659616Y-105359490D01*
X151661113Y-105430471D01*
X151623997Y-105490993D01*
X151583725Y-105515512D01*
X151539437Y-105532115D01*
X151468295Y-105558785D01*
X151351739Y-105646139D01*
X151264385Y-105762695D01*
X151213255Y-105899084D01*
X151206500Y-105961266D01*
X151206500Y-107757534D01*
X151213255Y-107819716D01*
X151264385Y-107956105D01*
X151351739Y-108072661D01*
X151468295Y-108160015D01*
X151476704Y-108163167D01*
X151476705Y-108163168D01*
X151585451Y-108203935D01*
X151642216Y-108246576D01*
X151666916Y-108313138D01*
X151651709Y-108382487D01*
X151632316Y-108408968D01*
X151519766Y-108526745D01*
X151505629Y-108541538D01*
X151379743Y-108726080D01*
X151285688Y-108928705D01*
X151225989Y-109143970D01*
X151202251Y-109366095D01*
X151202548Y-109371248D01*
X151202548Y-109371251D01*
X151208011Y-109465990D01*
X151215110Y-109589115D01*
X151216247Y-109594161D01*
X151216248Y-109594167D01*
X151236119Y-109682339D01*
X151264222Y-109807039D01*
X151348266Y-110014016D01*
X151464987Y-110204488D01*
X151611250Y-110373338D01*
X151783126Y-110516032D01*
X151810570Y-110532069D01*
X151856445Y-110558876D01*
X151905169Y-110610514D01*
X151918240Y-110680297D01*
X151891509Y-110746069D01*
X151851055Y-110779427D01*
X151838607Y-110785907D01*
X151834474Y-110789010D01*
X151834471Y-110789012D01*
X151664100Y-110916930D01*
X151659965Y-110920035D01*
X151505629Y-111081538D01*
X151502715Y-111085810D01*
X151502714Y-111085811D01*
X151437525Y-111181375D01*
X151379743Y-111266080D01*
X151285688Y-111468705D01*
X151225989Y-111683970D01*
X151202251Y-111906095D01*
X151202548Y-111911248D01*
X151202548Y-111911251D01*
X151208011Y-112005990D01*
X151215110Y-112129115D01*
X151216247Y-112134161D01*
X151216248Y-112134167D01*
X151236119Y-112222339D01*
X151264222Y-112347039D01*
X151348266Y-112554016D01*
X151464987Y-112744488D01*
X151611250Y-112913338D01*
X151783126Y-113056032D01*
X151823010Y-113079338D01*
X151856445Y-113098876D01*
X151905169Y-113150514D01*
X151918240Y-113220297D01*
X151891509Y-113286069D01*
X151851055Y-113319427D01*
X151838607Y-113325907D01*
X151834474Y-113329010D01*
X151834471Y-113329012D01*
X151810247Y-113347200D01*
X151659965Y-113460035D01*
X151505629Y-113621538D01*
X151379743Y-113806080D01*
X151285688Y-114008705D01*
X151225989Y-114223970D01*
X151202251Y-114446095D01*
X151202548Y-114451248D01*
X151202548Y-114451251D01*
X151208011Y-114545990D01*
X151215110Y-114669115D01*
X151216247Y-114674161D01*
X151216248Y-114674167D01*
X151236119Y-114762339D01*
X151264222Y-114887039D01*
X151348266Y-115094016D01*
X151464987Y-115284488D01*
X151611250Y-115453338D01*
X151783126Y-115596032D01*
X151853595Y-115637211D01*
X151856445Y-115638876D01*
X151905169Y-115690514D01*
X151918240Y-115760297D01*
X151891509Y-115826069D01*
X151851055Y-115859427D01*
X151838607Y-115865907D01*
X151834474Y-115869010D01*
X151834471Y-115869012D01*
X151704584Y-115966534D01*
X151659965Y-116000035D01*
X151505629Y-116161538D01*
X151502715Y-116165810D01*
X151502714Y-116165811D01*
X151438431Y-116260046D01*
X151379743Y-116346080D01*
X151364003Y-116379990D01*
X151318891Y-116477176D01*
X151285688Y-116548705D01*
X151225989Y-116763970D01*
X151202251Y-116986095D01*
X136145418Y-116986095D01*
X136129852Y-116796761D01*
X136075431Y-116580102D01*
X135986354Y-116375240D01*
X135929723Y-116287702D01*
X135867822Y-116192017D01*
X135867820Y-116192014D01*
X135865014Y-116187677D01*
X135714670Y-116022451D01*
X135710619Y-116019252D01*
X135710615Y-116019248D01*
X135543414Y-115887200D01*
X135543410Y-115887198D01*
X135539359Y-115883998D01*
X135498053Y-115861196D01*
X135448084Y-115810764D01*
X135433312Y-115741321D01*
X135458428Y-115674916D01*
X135485780Y-115648309D01*
X135529603Y-115617050D01*
X135664860Y-115520573D01*
X135823096Y-115362889D01*
X135882594Y-115280089D01*
X135950435Y-115185677D01*
X135953453Y-115181477D01*
X136052430Y-114981211D01*
X136117370Y-114767469D01*
X136146529Y-114545990D01*
X136148156Y-114479400D01*
X136129852Y-114256761D01*
X136075431Y-114040102D01*
X135986354Y-113835240D01*
X135865014Y-113647677D01*
X135714670Y-113482451D01*
X135710619Y-113479252D01*
X135710615Y-113479248D01*
X135543414Y-113347200D01*
X135543410Y-113347198D01*
X135539359Y-113343998D01*
X135498053Y-113321196D01*
X135448084Y-113270764D01*
X135433312Y-113201321D01*
X135458428Y-113134916D01*
X135485780Y-113108309D01*
X135548935Y-113063261D01*
X135664860Y-112980573D01*
X135682167Y-112963327D01*
X135819435Y-112826537D01*
X135823096Y-112822889D01*
X135882594Y-112740089D01*
X135950435Y-112645677D01*
X135953453Y-112641477D01*
X136043229Y-112459829D01*
X136050136Y-112445853D01*
X136050137Y-112445851D01*
X136052430Y-112441211D01*
X136117370Y-112227469D01*
X136146529Y-112005990D01*
X136148156Y-111939400D01*
X136129852Y-111716761D01*
X136075431Y-111500102D01*
X135986354Y-111295240D01*
X135946906Y-111234262D01*
X135867822Y-111112017D01*
X135867820Y-111112014D01*
X135865014Y-111107677D01*
X135714670Y-110942451D01*
X135710619Y-110939252D01*
X135710615Y-110939248D01*
X135543414Y-110807200D01*
X135543410Y-110807198D01*
X135539359Y-110803998D01*
X135498053Y-110781196D01*
X135448084Y-110730764D01*
X135433312Y-110661321D01*
X135458428Y-110594916D01*
X135485780Y-110568309D01*
X135549058Y-110523173D01*
X135664860Y-110440573D01*
X135823096Y-110282889D01*
X135882594Y-110200089D01*
X135950435Y-110105677D01*
X135953453Y-110101477D01*
X136052430Y-109901211D01*
X136117370Y-109687469D01*
X136146529Y-109465990D01*
X136148156Y-109399400D01*
X136129852Y-109176761D01*
X136075431Y-108960102D01*
X135986354Y-108755240D01*
X135865014Y-108567677D01*
X135861532Y-108563850D01*
X135717798Y-108405888D01*
X135686746Y-108342042D01*
X135695141Y-108271543D01*
X135740317Y-108216775D01*
X135766761Y-108203106D01*
X135873297Y-108163167D01*
X135881705Y-108160015D01*
X135998261Y-108072661D01*
X136085615Y-107956105D01*
X136136745Y-107819716D01*
X136143500Y-107757534D01*
X136143500Y-105961266D01*
X136136745Y-105899084D01*
X136085615Y-105762695D01*
X135998261Y-105646139D01*
X135881705Y-105558785D01*
X135869132Y-105554072D01*
X135763203Y-105514360D01*
X135706439Y-105471718D01*
X135681739Y-105405156D01*
X135696947Y-105335808D01*
X135718493Y-105307127D01*
X135819435Y-105206537D01*
X135823096Y-105202889D01*
X135882594Y-105120089D01*
X135950435Y-105025677D01*
X135953453Y-105021477D01*
X136004625Y-104917939D01*
X136050136Y-104825853D01*
X136050137Y-104825851D01*
X136052430Y-104821211D01*
X136107983Y-104638365D01*
X136115865Y-104612423D01*
X136115865Y-104612421D01*
X136117370Y-104607469D01*
X136146529Y-104385990D01*
X136148156Y-104319400D01*
X136129852Y-104096761D01*
X136075431Y-103880102D01*
X135986354Y-103675240D01*
X135865014Y-103487677D01*
X135714670Y-103322451D01*
X135710619Y-103319252D01*
X135710615Y-103319248D01*
X135543414Y-103187200D01*
X135543410Y-103187198D01*
X135539359Y-103183998D01*
X135498053Y-103161196D01*
X135448084Y-103110764D01*
X135433312Y-103041321D01*
X135458428Y-102974916D01*
X135485780Y-102948309D01*
X135553383Y-102900088D01*
X135664860Y-102820573D01*
X135693094Y-102792438D01*
X135819435Y-102666537D01*
X135823096Y-102662889D01*
X135882594Y-102580089D01*
X135950435Y-102485677D01*
X135953453Y-102481477D01*
X136004625Y-102377939D01*
X136050136Y-102285853D01*
X136050137Y-102285851D01*
X136052430Y-102281211D01*
X136107983Y-102098365D01*
X136115865Y-102072423D01*
X136115865Y-102072421D01*
X136117370Y-102067469D01*
X136146529Y-101845990D01*
X136148156Y-101779400D01*
X136129852Y-101556761D01*
X136075431Y-101340102D01*
X135986354Y-101135240D01*
X135865014Y-100947677D01*
X135714670Y-100782451D01*
X135710619Y-100779252D01*
X135710615Y-100779248D01*
X135543414Y-100647200D01*
X135543410Y-100647198D01*
X135539359Y-100643998D01*
X135498053Y-100621196D01*
X135448084Y-100570764D01*
X135433312Y-100501321D01*
X135458428Y-100434916D01*
X135485780Y-100408309D01*
X135529603Y-100377050D01*
X135664860Y-100280573D01*
X135823096Y-100122889D01*
X135882594Y-100040089D01*
X135950435Y-99945677D01*
X135953453Y-99941477D01*
X135984499Y-99878661D01*
X136050136Y-99745853D01*
X136050137Y-99745851D01*
X136052430Y-99741211D01*
X136089907Y-99617860D01*
X136115865Y-99532423D01*
X136115865Y-99532421D01*
X136117370Y-99527469D01*
X136146529Y-99305990D01*
X136148156Y-99239400D01*
X136129852Y-99016761D01*
X136075431Y-98800102D01*
X135986354Y-98595240D01*
X135865014Y-98407677D01*
X135714670Y-98242451D01*
X135710619Y-98239252D01*
X135710615Y-98239248D01*
X135543414Y-98107200D01*
X135543410Y-98107198D01*
X135539359Y-98103998D01*
X135498053Y-98081196D01*
X135448084Y-98030764D01*
X135433312Y-97961321D01*
X135458428Y-97894916D01*
X135485780Y-97868309D01*
X135529603Y-97837050D01*
X135664860Y-97740573D01*
X135823096Y-97582889D01*
X135833296Y-97568695D01*
X135950435Y-97405677D01*
X135953453Y-97401477D01*
X135968926Y-97370171D01*
X136050136Y-97205853D01*
X136050137Y-97205851D01*
X136052430Y-97201211D01*
X136117370Y-96987469D01*
X136146529Y-96765990D01*
X136148156Y-96699400D01*
X136129852Y-96476761D01*
X136075431Y-96260102D01*
X135986354Y-96055240D01*
X135865014Y-95867677D01*
X135861532Y-95863850D01*
X135717798Y-95705888D01*
X135686746Y-95642042D01*
X135695141Y-95571543D01*
X135740317Y-95516775D01*
X135766761Y-95503106D01*
X135873297Y-95463167D01*
X135881705Y-95460015D01*
X135998261Y-95372661D01*
X136085615Y-95256105D01*
X136136745Y-95119716D01*
X136143500Y-95057534D01*
X136143500Y-93261266D01*
X136136745Y-93199084D01*
X136085615Y-93062695D01*
X135998261Y-92946139D01*
X135881705Y-92858785D01*
X135869132Y-92854072D01*
X135763203Y-92814360D01*
X135706439Y-92771718D01*
X135681739Y-92705156D01*
X135696947Y-92635808D01*
X135718493Y-92607127D01*
X135719797Y-92605828D01*
X135823096Y-92502889D01*
X135882594Y-92420089D01*
X135950435Y-92325677D01*
X135953453Y-92321477D01*
X135980565Y-92266621D01*
X136050136Y-92125853D01*
X136050137Y-92125851D01*
X136052430Y-92121211D01*
X136117370Y-91907469D01*
X136146529Y-91685990D01*
X136148156Y-91619400D01*
X136129852Y-91396761D01*
X136075431Y-91180102D01*
X135986354Y-90975240D01*
X135891020Y-90827876D01*
X135867822Y-90792017D01*
X135867820Y-90792014D01*
X135865014Y-90787677D01*
X135714670Y-90622451D01*
X135710619Y-90619252D01*
X135710615Y-90619248D01*
X135543414Y-90487200D01*
X135543410Y-90487198D01*
X135539359Y-90483998D01*
X135498053Y-90461196D01*
X135448084Y-90410764D01*
X135433312Y-90341321D01*
X135458428Y-90274916D01*
X135485780Y-90248309D01*
X135539546Y-90209958D01*
X135664860Y-90120573D01*
X135823096Y-89962889D01*
X135833485Y-89948432D01*
X135950435Y-89785677D01*
X135953453Y-89781477D01*
X135991700Y-89704091D01*
X136050136Y-89585853D01*
X136050137Y-89585851D01*
X136052430Y-89581211D01*
X136117370Y-89367469D01*
X136146529Y-89145990D01*
X136148156Y-89079400D01*
X136129852Y-88856761D01*
X136075431Y-88640102D01*
X135986354Y-88435240D01*
X135881929Y-88273823D01*
X135867822Y-88252017D01*
X135867820Y-88252014D01*
X135865014Y-88247677D01*
X135714670Y-88082451D01*
X135710619Y-88079252D01*
X135710615Y-88079248D01*
X135543414Y-87947200D01*
X135543410Y-87947198D01*
X135539359Y-87943998D01*
X135450253Y-87894809D01*
X135400282Y-87844376D01*
X135385510Y-87774933D01*
X135410626Y-87708528D01*
X135467657Y-87666243D01*
X135511146Y-87658500D01*
X151837373Y-87658500D01*
X151905494Y-87678502D01*
X151951987Y-87732158D01*
X151962091Y-87802432D01*
X151932597Y-87867012D01*
X151895558Y-87896260D01*
X151838607Y-87925907D01*
X151834474Y-87929010D01*
X151834471Y-87929012D01*
X151810247Y-87947200D01*
X151659965Y-88060035D01*
X151505629Y-88221538D01*
X151502715Y-88225810D01*
X151502714Y-88225811D01*
X151417556Y-88350649D01*
X151379743Y-88406080D01*
X151285688Y-88608705D01*
X151225989Y-88823970D01*
X151202251Y-89046095D01*
X151202548Y-89051248D01*
X151202548Y-89051251D01*
X151207852Y-89143237D01*
X151215110Y-89269115D01*
X151216247Y-89274161D01*
X151216248Y-89274167D01*
X151223282Y-89305378D01*
X151264222Y-89487039D01*
X151314317Y-89610408D01*
X151345900Y-89688188D01*
X151348266Y-89694016D01*
X151464987Y-89884488D01*
X151611250Y-90053338D01*
X151783126Y-90196032D01*
X151831963Y-90224570D01*
X151856445Y-90238876D01*
X151905169Y-90290514D01*
X151918240Y-90360297D01*
X151891509Y-90426069D01*
X151851055Y-90459427D01*
X151838607Y-90465907D01*
X151834474Y-90469010D01*
X151834471Y-90469012D01*
X151664100Y-90596930D01*
X151659965Y-90600035D01*
X151505629Y-90761538D01*
X151379743Y-90946080D01*
X151285688Y-91148705D01*
X151225989Y-91363970D01*
X151202251Y-91586095D01*
X151202548Y-91591248D01*
X151202548Y-91591251D01*
X151208011Y-91685990D01*
X151215110Y-91809115D01*
X151216247Y-91814161D01*
X151216248Y-91814167D01*
X151236119Y-91902339D01*
X151264222Y-92027039D01*
X151302461Y-92121211D01*
X151345344Y-92226819D01*
X151348266Y-92234016D01*
X151464987Y-92424488D01*
X151611250Y-92593338D01*
X151615230Y-92596642D01*
X151619981Y-92600587D01*
X151659616Y-92659490D01*
X151661113Y-92730471D01*
X151623997Y-92790993D01*
X151583724Y-92815512D01*
X151468295Y-92858785D01*
X151351739Y-92946139D01*
X151264385Y-93062695D01*
X151213255Y-93199084D01*
X151206500Y-93261266D01*
X151206500Y-95057534D01*
X151213255Y-95119716D01*
X151264385Y-95256105D01*
X151351739Y-95372661D01*
X151468295Y-95460015D01*
X151476704Y-95463167D01*
X151476705Y-95463168D01*
X151585451Y-95503935D01*
X151642216Y-95546576D01*
X151666916Y-95613138D01*
X151651709Y-95682487D01*
X151632316Y-95708968D01*
X151505629Y-95841538D01*
X151502715Y-95845810D01*
X151502714Y-95845811D01*
X151460345Y-95907922D01*
X151379743Y-96026080D01*
X151285688Y-96228705D01*
X151225989Y-96443970D01*
X151202251Y-96666095D01*
X151202548Y-96671248D01*
X151202548Y-96671251D01*
X151211556Y-96827477D01*
X151215110Y-96889115D01*
X151216247Y-96894161D01*
X151216248Y-96894167D01*
X151224434Y-96930488D01*
X151264222Y-97107039D01*
X151319037Y-97242032D01*
X151345377Y-97306900D01*
X151348266Y-97314016D01*
X151350965Y-97318420D01*
X151432908Y-97452139D01*
X151464987Y-97504488D01*
X151611250Y-97673338D01*
X151783126Y-97816032D01*
X151856445Y-97858876D01*
X151856955Y-97859174D01*
X151905679Y-97910812D01*
X151918750Y-97980595D01*
X151892019Y-98046367D01*
X151851562Y-98079727D01*
X151843457Y-98083946D01*
X151834738Y-98089436D01*
X151664433Y-98217305D01*
X151656726Y-98224148D01*
X151509590Y-98378117D01*
X151503104Y-98386127D01*
X151383098Y-98562049D01*
X151378000Y-98571023D01*
X151288338Y-98764183D01*
X151284775Y-98773870D01*
X151229389Y-98973583D01*
X151230912Y-98982007D01*
X151243292Y-98985400D01*
X153883344Y-98985400D01*
X153896875Y-98981427D01*
X153898180Y-98972347D01*
X153856214Y-98805275D01*
X153852894Y-98795524D01*
X153767972Y-98600214D01*
X153763105Y-98591139D01*
X153647426Y-98412326D01*
X153641136Y-98404157D01*
X153497806Y-98246640D01*
X153490273Y-98239615D01*
X153323139Y-98107622D01*
X153314556Y-98101920D01*
X153277602Y-98081520D01*
X153227631Y-98031087D01*
X153212859Y-97961645D01*
X153237975Y-97895239D01*
X153265327Y-97868632D01*
X153288797Y-97851891D01*
X153444860Y-97740573D01*
X153603096Y-97582889D01*
X153613296Y-97568695D01*
X153730435Y-97405677D01*
X153733453Y-97401477D01*
X153748926Y-97370171D01*
X153830136Y-97205853D01*
X153830137Y-97205851D01*
X153832430Y-97201211D01*
X153897370Y-96987469D01*
X153926529Y-96765990D01*
X153928156Y-96699400D01*
X153909852Y-96476761D01*
X153855431Y-96260102D01*
X153766354Y-96055240D01*
X153645014Y-95867677D01*
X153641532Y-95863850D01*
X153497798Y-95705888D01*
X153466746Y-95642042D01*
X153475141Y-95571543D01*
X153520317Y-95516775D01*
X153546761Y-95503106D01*
X153653297Y-95463167D01*
X153661705Y-95460015D01*
X153778261Y-95372661D01*
X153865615Y-95256105D01*
X153916745Y-95119716D01*
X153923500Y-95057534D01*
X153923500Y-93261266D01*
X153916745Y-93199084D01*
X153865615Y-93062695D01*
X153778261Y-92946139D01*
X153661705Y-92858785D01*
X153649132Y-92854072D01*
X153543203Y-92814360D01*
X153486439Y-92771718D01*
X153461739Y-92705156D01*
X153476947Y-92635808D01*
X153498493Y-92607127D01*
X153499797Y-92605828D01*
X153603096Y-92502889D01*
X153662594Y-92420089D01*
X153730435Y-92325677D01*
X153733453Y-92321477D01*
X153760565Y-92266621D01*
X153786851Y-92213434D01*
X165361661Y-92213434D01*
X165379792Y-92571340D01*
X165380329Y-92574695D01*
X165380330Y-92574701D01*
X165401226Y-92705156D01*
X165436470Y-92925195D01*
X165531033Y-93270859D01*
X165662374Y-93604288D01*
X165828957Y-93921582D01*
X165830858Y-93924411D01*
X165830864Y-93924421D01*
X166014569Y-94197800D01*
X166028834Y-94219029D01*
X166259665Y-94493150D01*
X166518751Y-94740738D01*
X166803061Y-94958897D01*
X166835056Y-94978350D01*
X167106355Y-95143303D01*
X167106360Y-95143306D01*
X167109270Y-95145075D01*
X167112358Y-95146521D01*
X167112357Y-95146521D01*
X167430710Y-95295649D01*
X167430720Y-95295653D01*
X167433794Y-95297093D01*
X167437012Y-95298195D01*
X167437015Y-95298196D01*
X167769615Y-95412071D01*
X167769623Y-95412073D01*
X167772838Y-95413174D01*
X168122435Y-95491959D01*
X168174728Y-95497917D01*
X168475114Y-95532142D01*
X168475122Y-95532142D01*
X168478497Y-95532527D01*
X168481901Y-95532545D01*
X168481904Y-95532545D01*
X168676227Y-95533562D01*
X168836857Y-95534403D01*
X168840243Y-95534053D01*
X168840245Y-95534053D01*
X169189932Y-95497917D01*
X169189941Y-95497916D01*
X169193324Y-95497566D01*
X169196657Y-95496852D01*
X169196660Y-95496851D01*
X169405497Y-95452080D01*
X169543727Y-95422446D01*
X169883968Y-95309922D01*
X170210066Y-95161311D01*
X170498590Y-94989998D01*
X170515262Y-94980099D01*
X170515267Y-94980096D01*
X170518207Y-94978350D01*
X170526789Y-94971907D01*
X170666311Y-94867150D01*
X170804786Y-94763180D01*
X171066451Y-94518319D01*
X171300140Y-94246630D01*
X171406750Y-94091512D01*
X171501190Y-93954101D01*
X171501195Y-93954094D01*
X171503120Y-93951292D01*
X171504732Y-93948298D01*
X171504737Y-93948290D01*
X171671395Y-93638772D01*
X171673017Y-93635760D01*
X171807842Y-93303724D01*
X171818142Y-93267568D01*
X171878548Y-93055509D01*
X171906020Y-92959070D01*
X171945095Y-92730471D01*
X171965829Y-92609175D01*
X171965829Y-92609173D01*
X171966401Y-92605828D01*
X171968511Y-92571340D01*
X171988168Y-92249928D01*
X171988278Y-92248131D01*
X171988316Y-92237265D01*
X171988353Y-92226819D01*
X171988353Y-92226806D01*
X171988359Y-92225000D01*
X171968979Y-91867159D01*
X171911066Y-91513505D01*
X171815297Y-91168173D01*
X171812243Y-91160497D01*
X171684052Y-90838369D01*
X171682793Y-90835205D01*
X171594483Y-90668416D01*
X171516702Y-90521513D01*
X171516698Y-90521506D01*
X171515103Y-90518494D01*
X171314190Y-90221746D01*
X171294597Y-90198642D01*
X171091104Y-89958692D01*
X171082403Y-89948432D01*
X170822454Y-89701750D01*
X170546888Y-89491825D01*
X170540091Y-89486647D01*
X170540089Y-89486646D01*
X170537384Y-89484585D01*
X170534472Y-89482828D01*
X170534467Y-89482825D01*
X170233443Y-89301236D01*
X170233437Y-89301233D01*
X170230528Y-89299478D01*
X169905475Y-89148593D01*
X169691143Y-89076046D01*
X169569255Y-89034789D01*
X169569250Y-89034788D01*
X169566028Y-89033697D01*
X169367681Y-88989724D01*
X169219493Y-88956871D01*
X169219487Y-88956870D01*
X169216158Y-88956132D01*
X169212769Y-88955758D01*
X169212764Y-88955757D01*
X168863338Y-88917180D01*
X168863333Y-88917180D01*
X168859957Y-88916807D01*
X168856558Y-88916801D01*
X168856557Y-88916801D01*
X168687080Y-88916505D01*
X168501592Y-88916182D01*
X168388413Y-88928277D01*
X168148639Y-88953901D01*
X168148631Y-88953902D01*
X168145256Y-88954263D01*
X167795117Y-89030606D01*
X167455271Y-89144317D01*
X167452178Y-89145739D01*
X167452177Y-89145740D01*
X167445974Y-89148593D01*
X167129694Y-89294066D01*
X167126760Y-89295822D01*
X167126758Y-89295823D01*
X166998769Y-89372423D01*
X166822193Y-89478101D01*
X166819467Y-89480163D01*
X166819465Y-89480164D01*
X166544409Y-89688188D01*
X166536367Y-89694270D01*
X166275559Y-89940043D01*
X166273347Y-89942633D01*
X166273345Y-89942635D01*
X166252931Y-89966537D01*
X166042819Y-90212546D01*
X166040900Y-90215358D01*
X166040897Y-90215363D01*
X165989633Y-90290514D01*
X165840871Y-90508591D01*
X165672077Y-90824714D01*
X165538411Y-91157218D01*
X165537491Y-91160492D01*
X165537489Y-91160497D01*
X165459630Y-91437490D01*
X165441437Y-91502213D01*
X165382290Y-91855663D01*
X165361661Y-92213434D01*
X153786851Y-92213434D01*
X153830136Y-92125853D01*
X153830137Y-92125851D01*
X153832430Y-92121211D01*
X153897370Y-91907469D01*
X153926529Y-91685990D01*
X153928156Y-91619400D01*
X153909852Y-91396761D01*
X153855431Y-91180102D01*
X153766354Y-90975240D01*
X153671020Y-90827876D01*
X153647822Y-90792017D01*
X153647820Y-90792014D01*
X153645014Y-90787677D01*
X153494670Y-90622451D01*
X153490619Y-90619252D01*
X153490615Y-90619248D01*
X153323414Y-90487200D01*
X153323410Y-90487198D01*
X153319359Y-90483998D01*
X153278053Y-90461196D01*
X153228084Y-90410764D01*
X153213312Y-90341321D01*
X153238428Y-90274916D01*
X153265780Y-90248309D01*
X153319546Y-90209958D01*
X153444860Y-90120573D01*
X153603096Y-89962889D01*
X153613485Y-89948432D01*
X153730435Y-89785677D01*
X153733453Y-89781477D01*
X153771700Y-89704091D01*
X153830136Y-89585853D01*
X153830137Y-89585851D01*
X153832430Y-89581211D01*
X153897370Y-89367469D01*
X153926529Y-89145990D01*
X153928156Y-89079400D01*
X153909852Y-88856761D01*
X153855431Y-88640102D01*
X153766354Y-88435240D01*
X153661929Y-88273823D01*
X153647822Y-88252017D01*
X153647820Y-88252014D01*
X153645014Y-88247677D01*
X153494670Y-88082451D01*
X153490619Y-88079252D01*
X153490615Y-88079248D01*
X153323414Y-87947200D01*
X153323410Y-87947198D01*
X153319359Y-87943998D01*
X153230253Y-87894809D01*
X153180282Y-87844376D01*
X153165510Y-87774933D01*
X153190626Y-87708528D01*
X153247657Y-87666243D01*
X153291146Y-87658500D01*
X168625633Y-87658500D01*
X168645018Y-87660000D01*
X168659851Y-87662310D01*
X168659855Y-87662310D01*
X168668724Y-87663691D01*
X168689183Y-87661016D01*
X168711008Y-87660072D01*
X169067502Y-87675637D01*
X169078451Y-87676595D01*
X169462510Y-87727157D01*
X169473336Y-87729066D01*
X169851528Y-87812910D01*
X169862145Y-87815755D01*
X169884353Y-87822757D01*
X170231592Y-87932241D01*
X170241906Y-87935994D01*
X170599819Y-88084246D01*
X170609754Y-88088879D01*
X170953378Y-88267759D01*
X170962887Y-88273249D01*
X171289592Y-88481383D01*
X171298596Y-88487687D01*
X171605931Y-88723513D01*
X171614348Y-88730577D01*
X171858459Y-88954263D01*
X171899947Y-88992280D01*
X171907716Y-89000049D01*
X172169421Y-89285649D01*
X172176484Y-89294066D01*
X172228872Y-89362339D01*
X172412313Y-89601404D01*
X172418617Y-89610408D01*
X172626751Y-89937113D01*
X172632241Y-89946622D01*
X172811121Y-90290246D01*
X172815754Y-90300181D01*
X172947915Y-90619248D01*
X172964003Y-90658087D01*
X172967759Y-90668408D01*
X173006733Y-90792017D01*
X173084245Y-91037855D01*
X173087090Y-91048472D01*
X173170934Y-91426664D01*
X173172843Y-91437490D01*
X173223405Y-91821549D01*
X173224363Y-91832498D01*
X173227853Y-91912423D01*
X173239603Y-92181552D01*
X173238223Y-92206429D01*
X173236309Y-92218724D01*
X173237473Y-92227626D01*
X173237473Y-92227628D01*
X173239398Y-92242344D01*
X173240390Y-92249928D01*
X173240436Y-92250283D01*
X173241500Y-92266621D01*
X173241500Y-132175633D01*
X173240000Y-132195018D01*
X173237690Y-132209851D01*
X173237690Y-132209855D01*
X173236309Y-132218724D01*
X173238984Y-132239183D01*
X173239928Y-132261008D01*
X173224363Y-132617501D01*
X173223405Y-132628451D01*
X173172843Y-133012510D01*
X173170934Y-133023336D01*
X173087090Y-133401528D01*
X173084245Y-133412145D01*
X172967762Y-133781584D01*
X172964006Y-133791906D01*
X172896823Y-133954101D01*
X172815758Y-134149810D01*
X172811121Y-134159754D01*
X172632241Y-134503378D01*
X172626752Y-134512885D01*
X172558938Y-134619333D01*
X172418617Y-134839592D01*
X172412313Y-134848596D01*
X172183708Y-135146521D01*
X172176487Y-135155931D01*
X172169423Y-135164348D01*
X171932268Y-135423158D01*
X171907720Y-135449947D01*
X171899951Y-135457716D01*
X171818290Y-135532545D01*
X171614351Y-135719421D01*
X171605931Y-135726487D01*
X171298596Y-135962313D01*
X171289592Y-135968617D01*
X170962887Y-136176751D01*
X170953378Y-136182241D01*
X170609754Y-136361121D01*
X170599819Y-136365754D01*
X170241906Y-136514006D01*
X170231592Y-136517759D01*
X170032119Y-136580653D01*
X169862145Y-136634245D01*
X169851528Y-136637090D01*
X169473336Y-136720934D01*
X169462510Y-136722843D01*
X169078451Y-136773405D01*
X169067502Y-136774363D01*
X168718446Y-136789603D01*
X168693571Y-136788223D01*
X168681276Y-136786309D01*
X168672374Y-136787473D01*
X168672372Y-136787473D01*
X168657323Y-136789441D01*
X168649714Y-136790436D01*
X168633379Y-136791500D01*
X118724367Y-136791500D01*
X118704982Y-136790000D01*
X118690149Y-136787690D01*
X118690145Y-136787690D01*
X118681276Y-136786309D01*
X118660817Y-136788984D01*
X118638992Y-136789928D01*
X118282498Y-136774363D01*
X118271549Y-136773405D01*
X117887490Y-136722843D01*
X117876664Y-136720934D01*
X117498472Y-136637090D01*
X117487855Y-136634245D01*
X117317881Y-136580653D01*
X117118408Y-136517759D01*
X117108094Y-136514006D01*
X116750181Y-136365754D01*
X116740246Y-136361121D01*
X116396622Y-136182241D01*
X116387113Y-136176751D01*
X116060408Y-135968617D01*
X116051404Y-135962313D01*
X115744069Y-135726487D01*
X115735649Y-135719421D01*
X115531710Y-135532545D01*
X115450049Y-135457716D01*
X115442280Y-135449947D01*
X115417733Y-135423158D01*
X115180577Y-135164348D01*
X115173513Y-135155931D01*
X115166293Y-135146521D01*
X114937687Y-134848596D01*
X114931383Y-134839592D01*
X114791062Y-134619333D01*
X114723248Y-134512885D01*
X114717759Y-134503378D01*
X114538879Y-134159754D01*
X114534242Y-134149810D01*
X114453178Y-133954101D01*
X114385994Y-133791906D01*
X114382238Y-133781584D01*
X114265755Y-133412145D01*
X114262910Y-133401528D01*
X114179066Y-133023336D01*
X114177157Y-133012510D01*
X114126595Y-132628451D01*
X114125637Y-132617501D01*
X114110561Y-132272206D01*
X114112188Y-132245805D01*
X114112769Y-132242352D01*
X114112770Y-132242345D01*
X114113576Y-132237552D01*
X114113729Y-132225000D01*
X114112073Y-132213434D01*
X115361661Y-132213434D01*
X115379792Y-132571340D01*
X115380329Y-132574695D01*
X115380330Y-132574701D01*
X115394540Y-132663414D01*
X115436470Y-132925195D01*
X115531033Y-133270859D01*
X115662374Y-133604288D01*
X115828957Y-133921582D01*
X115830858Y-133924411D01*
X115830864Y-133924421D01*
X115985731Y-134154886D01*
X116028834Y-134219029D01*
X116259665Y-134493150D01*
X116518751Y-134740738D01*
X116803061Y-134958897D01*
X116835056Y-134978350D01*
X117106355Y-135143303D01*
X117106360Y-135143306D01*
X117109270Y-135145075D01*
X117112358Y-135146521D01*
X117112357Y-135146521D01*
X117430710Y-135295649D01*
X117430720Y-135295653D01*
X117433794Y-135297093D01*
X117437012Y-135298195D01*
X117437015Y-135298196D01*
X117769615Y-135412071D01*
X117769623Y-135412073D01*
X117772838Y-135413174D01*
X118122435Y-135491959D01*
X118174728Y-135497917D01*
X118475114Y-135532142D01*
X118475122Y-135532142D01*
X118478497Y-135532527D01*
X118481901Y-135532545D01*
X118481904Y-135532545D01*
X118676227Y-135533562D01*
X118836857Y-135534403D01*
X118840243Y-135534053D01*
X118840245Y-135534053D01*
X119189932Y-135497917D01*
X119189941Y-135497916D01*
X119193324Y-135497566D01*
X119196657Y-135496852D01*
X119196660Y-135496851D01*
X119415446Y-135449947D01*
X119543727Y-135422446D01*
X119883968Y-135309922D01*
X120210066Y-135161311D01*
X120304052Y-135105506D01*
X120515262Y-134980099D01*
X120515267Y-134980096D01*
X120518207Y-134978350D01*
X120804786Y-134763180D01*
X121066451Y-134518319D01*
X121300140Y-134246630D01*
X121406750Y-134091512D01*
X121501190Y-133954101D01*
X121501195Y-133954094D01*
X121503120Y-133951292D01*
X121504732Y-133948298D01*
X121504737Y-133948290D01*
X121671395Y-133638772D01*
X121673017Y-133635760D01*
X121807842Y-133303724D01*
X121818142Y-133267568D01*
X121838527Y-133196006D01*
X121906020Y-132959070D01*
X121966401Y-132605828D01*
X121968511Y-132571340D01*
X121988168Y-132249928D01*
X121988278Y-132248131D01*
X121988350Y-132227627D01*
X121988353Y-132226819D01*
X121988353Y-132226806D01*
X121988359Y-132225000D01*
X121968979Y-131867159D01*
X121911066Y-131513505D01*
X121893843Y-131451400D01*
X125529896Y-131451400D01*
X125530586Y-131457965D01*
X125539056Y-131538548D01*
X125549858Y-131641328D01*
X125608873Y-131822956D01*
X125612176Y-131828678D01*
X125612177Y-131828679D01*
X125624952Y-131850806D01*
X125704360Y-131988344D01*
X125708778Y-131993251D01*
X125708779Y-131993252D01*
X125790692Y-132084226D01*
X125832147Y-132130266D01*
X125912281Y-132188487D01*
X125962537Y-132225000D01*
X125986648Y-132242518D01*
X125992676Y-132245202D01*
X125992678Y-132245203D01*
X126155081Y-132317509D01*
X126161112Y-132320194D01*
X126254513Y-132340047D01*
X126341456Y-132358528D01*
X126341461Y-132358528D01*
X126347913Y-132359900D01*
X126538887Y-132359900D01*
X126545339Y-132358528D01*
X126545344Y-132358528D01*
X126632287Y-132340047D01*
X126725688Y-132320194D01*
X126731719Y-132317509D01*
X126894122Y-132245203D01*
X126894124Y-132245202D01*
X126900152Y-132242518D01*
X126924264Y-132225000D01*
X126974519Y-132188487D01*
X127054653Y-132130266D01*
X127096108Y-132084226D01*
X127178021Y-131993252D01*
X127178022Y-131993251D01*
X127182440Y-131988344D01*
X127261848Y-131850806D01*
X127274623Y-131828679D01*
X127274624Y-131828678D01*
X127277927Y-131822956D01*
X127336942Y-131641328D01*
X127340886Y-131603800D01*
X127612696Y-131603800D01*
X127613386Y-131610365D01*
X127629164Y-131760481D01*
X127632658Y-131793728D01*
X127691673Y-131975356D01*
X127694976Y-131981078D01*
X127694977Y-131981079D01*
X127702005Y-131993252D01*
X127787160Y-132140744D01*
X127791578Y-132145651D01*
X127791579Y-132145652D01*
X127910525Y-132277755D01*
X127914947Y-132282666D01*
X127994186Y-132340237D01*
X128036520Y-132370994D01*
X128069448Y-132394918D01*
X128075476Y-132397602D01*
X128075478Y-132397603D01*
X128218994Y-132461500D01*
X128243912Y-132472594D01*
X128337313Y-132492447D01*
X128424256Y-132510928D01*
X128424261Y-132510928D01*
X128430713Y-132512300D01*
X128621687Y-132512300D01*
X128628139Y-132510928D01*
X128628144Y-132510928D01*
X128715087Y-132492447D01*
X128808488Y-132472594D01*
X128833406Y-132461500D01*
X128976922Y-132397603D01*
X128976924Y-132397602D01*
X128982952Y-132394918D01*
X129015881Y-132370994D01*
X129058214Y-132340237D01*
X129137453Y-132282666D01*
X129141875Y-132277755D01*
X129260821Y-132145652D01*
X129260822Y-132145651D01*
X129265240Y-132140744D01*
X129350395Y-131993252D01*
X129357423Y-131981079D01*
X129357424Y-131981078D01*
X129360727Y-131975356D01*
X129419742Y-131793728D01*
X129423237Y-131760481D01*
X129439014Y-131610365D01*
X129439704Y-131603800D01*
X129428108Y-131493469D01*
X129423686Y-131451400D01*
X133911896Y-131451400D01*
X133912586Y-131457965D01*
X133921056Y-131538548D01*
X133931858Y-131641328D01*
X133990873Y-131822956D01*
X133994176Y-131828678D01*
X133994177Y-131828679D01*
X134006952Y-131850806D01*
X134086360Y-131988344D01*
X134090778Y-131993251D01*
X134090779Y-131993252D01*
X134172692Y-132084226D01*
X134214147Y-132130266D01*
X134294281Y-132188487D01*
X134344537Y-132225000D01*
X134368648Y-132242518D01*
X134374676Y-132245202D01*
X134374678Y-132245203D01*
X134537081Y-132317509D01*
X134543112Y-132320194D01*
X134636513Y-132340047D01*
X134723456Y-132358528D01*
X134723461Y-132358528D01*
X134729913Y-132359900D01*
X134920887Y-132359900D01*
X134927339Y-132358528D01*
X134927344Y-132358528D01*
X135014287Y-132340047D01*
X135107688Y-132320194D01*
X135113719Y-132317509D01*
X135276122Y-132245203D01*
X135276124Y-132245202D01*
X135282152Y-132242518D01*
X135306264Y-132225000D01*
X135356519Y-132188487D01*
X135436653Y-132130266D01*
X135478108Y-132084226D01*
X135560021Y-131993252D01*
X135560022Y-131993251D01*
X135564440Y-131988344D01*
X135643848Y-131850806D01*
X135656623Y-131828679D01*
X135656624Y-131828678D01*
X135659927Y-131822956D01*
X135718942Y-131641328D01*
X135722886Y-131603800D01*
X136045496Y-131603800D01*
X136046186Y-131610365D01*
X136061964Y-131760481D01*
X136065458Y-131793728D01*
X136124473Y-131975356D01*
X136127776Y-131981078D01*
X136127777Y-131981079D01*
X136134805Y-131993252D01*
X136219960Y-132140744D01*
X136224378Y-132145651D01*
X136224379Y-132145652D01*
X136343325Y-132277755D01*
X136347747Y-132282666D01*
X136426986Y-132340237D01*
X136469320Y-132370994D01*
X136502248Y-132394918D01*
X136508276Y-132397602D01*
X136508278Y-132397603D01*
X136651794Y-132461500D01*
X136676712Y-132472594D01*
X136770113Y-132492447D01*
X136857056Y-132510928D01*
X136857061Y-132510928D01*
X136863513Y-132512300D01*
X137054487Y-132512300D01*
X137060939Y-132510928D01*
X137060944Y-132510928D01*
X137147887Y-132492447D01*
X137241288Y-132472594D01*
X137266206Y-132461500D01*
X137409722Y-132397603D01*
X137409724Y-132397602D01*
X137415752Y-132394918D01*
X137448681Y-132370994D01*
X137491014Y-132340237D01*
X137570253Y-132282666D01*
X137574675Y-132277755D01*
X137693621Y-132145652D01*
X137693622Y-132145651D01*
X137698040Y-132140744D01*
X137783195Y-131993252D01*
X137790223Y-131981079D01*
X137790224Y-131981078D01*
X137793527Y-131975356D01*
X137852542Y-131793728D01*
X137856037Y-131760481D01*
X137867165Y-131654600D01*
X142141496Y-131654600D01*
X142142186Y-131661165D01*
X142159097Y-131822061D01*
X142161458Y-131844528D01*
X142220473Y-132026156D01*
X142223776Y-132031878D01*
X142223777Y-132031879D01*
X142230805Y-132044052D01*
X142315960Y-132191544D01*
X142320378Y-132196451D01*
X142320379Y-132196452D01*
X142410015Y-132296003D01*
X142443747Y-132333466D01*
X142462104Y-132346803D01*
X142565320Y-132421794D01*
X142598248Y-132445718D01*
X142604276Y-132448402D01*
X142604278Y-132448403D01*
X142747794Y-132512300D01*
X142772712Y-132523394D01*
X142866113Y-132543247D01*
X142953056Y-132561728D01*
X142953061Y-132561728D01*
X142959513Y-132563100D01*
X143150487Y-132563100D01*
X143156939Y-132561728D01*
X143156944Y-132561728D01*
X143243887Y-132543247D01*
X143337288Y-132523394D01*
X143362206Y-132512300D01*
X143505722Y-132448403D01*
X143505724Y-132448402D01*
X143511752Y-132445718D01*
X143544681Y-132421794D01*
X143647896Y-132346803D01*
X143666253Y-132333466D01*
X143699985Y-132296003D01*
X143789621Y-132196452D01*
X143789622Y-132196451D01*
X143794040Y-132191544D01*
X143879195Y-132044052D01*
X143886223Y-132031879D01*
X143886224Y-132031878D01*
X143889527Y-132026156D01*
X143948542Y-131844528D01*
X143950475Y-131826137D01*
X143977490Y-131760481D01*
X144035712Y-131719852D01*
X144106657Y-131717151D01*
X144167801Y-131753234D01*
X144195617Y-131800372D01*
X144252473Y-131975356D01*
X144255776Y-131981078D01*
X144255777Y-131981079D01*
X144262805Y-131993252D01*
X144347960Y-132140744D01*
X144352378Y-132145651D01*
X144352379Y-132145652D01*
X144471325Y-132277755D01*
X144475747Y-132282666D01*
X144554986Y-132340237D01*
X144597320Y-132370994D01*
X144630248Y-132394918D01*
X144636276Y-132397602D01*
X144636278Y-132397603D01*
X144779794Y-132461500D01*
X144804712Y-132472594D01*
X144898113Y-132492447D01*
X144985056Y-132510928D01*
X144985061Y-132510928D01*
X144991513Y-132512300D01*
X145182487Y-132512300D01*
X145188939Y-132510928D01*
X145188944Y-132510928D01*
X145275887Y-132492447D01*
X145369288Y-132472594D01*
X145394206Y-132461500D01*
X145537722Y-132397603D01*
X145537724Y-132397602D01*
X145543752Y-132394918D01*
X145576681Y-132370994D01*
X145619014Y-132340237D01*
X145698253Y-132282666D01*
X145702675Y-132277755D01*
X145821621Y-132145652D01*
X145821622Y-132145651D01*
X145826040Y-132140744D01*
X145911195Y-131993252D01*
X145918223Y-131981079D01*
X145918224Y-131981078D01*
X145921527Y-131975356D01*
X145980542Y-131793728D01*
X145984037Y-131760481D01*
X145999814Y-131610365D01*
X146000504Y-131603800D01*
X145995165Y-131553000D01*
X150675896Y-131553000D01*
X150676586Y-131559565D01*
X150693433Y-131719852D01*
X150695858Y-131742928D01*
X150754873Y-131924556D01*
X150850360Y-132089944D01*
X150854778Y-132094851D01*
X150854779Y-132094852D01*
X150970339Y-132223194D01*
X150978147Y-132231866D01*
X151057386Y-132289437D01*
X151099720Y-132320194D01*
X151132648Y-132344118D01*
X151138676Y-132346802D01*
X151138678Y-132346803D01*
X151282194Y-132410700D01*
X151307112Y-132421794D01*
X151400512Y-132441647D01*
X151487456Y-132460128D01*
X151487461Y-132460128D01*
X151493913Y-132461500D01*
X151684887Y-132461500D01*
X151691339Y-132460128D01*
X151691344Y-132460128D01*
X151778288Y-132441647D01*
X151871688Y-132421794D01*
X151896606Y-132410700D01*
X152040122Y-132346803D01*
X152040124Y-132346802D01*
X152046152Y-132344118D01*
X152079081Y-132320194D01*
X152121414Y-132289437D01*
X152200653Y-132231866D01*
X152208461Y-132223194D01*
X152324021Y-132094852D01*
X152324022Y-132094851D01*
X152328440Y-132089944D01*
X152423927Y-131924556D01*
X152480783Y-131749572D01*
X152520855Y-131690968D01*
X152586252Y-131663331D01*
X152656209Y-131675438D01*
X152708515Y-131723444D01*
X152725925Y-131775337D01*
X152727858Y-131793728D01*
X152786873Y-131975356D01*
X152790176Y-131981078D01*
X152790177Y-131981079D01*
X152797205Y-131993252D01*
X152882360Y-132140744D01*
X152886778Y-132145651D01*
X152886779Y-132145652D01*
X153005725Y-132277755D01*
X153010147Y-132282666D01*
X153089386Y-132340237D01*
X153131720Y-132370994D01*
X153164648Y-132394918D01*
X153170676Y-132397602D01*
X153170678Y-132397603D01*
X153314194Y-132461500D01*
X153339112Y-132472594D01*
X153432513Y-132492447D01*
X153519456Y-132510928D01*
X153519461Y-132510928D01*
X153525913Y-132512300D01*
X153716887Y-132512300D01*
X153723339Y-132510928D01*
X153723344Y-132510928D01*
X153810287Y-132492447D01*
X153903688Y-132472594D01*
X153928606Y-132461500D01*
X154072122Y-132397603D01*
X154072124Y-132397602D01*
X154078152Y-132394918D01*
X154111081Y-132370994D01*
X154153414Y-132340237D01*
X154232653Y-132282666D01*
X154237075Y-132277755D01*
X154356021Y-132145652D01*
X154356022Y-132145651D01*
X154360440Y-132140744D01*
X154445595Y-131993252D01*
X154452623Y-131981079D01*
X154452624Y-131981078D01*
X154455927Y-131975356D01*
X154514942Y-131793728D01*
X154518437Y-131760481D01*
X154534214Y-131610365D01*
X154534904Y-131603800D01*
X154524226Y-131502200D01*
X159057896Y-131502200D01*
X159058586Y-131508765D01*
X159073179Y-131647606D01*
X159077858Y-131692128D01*
X159136873Y-131873756D01*
X159232360Y-132039144D01*
X159236778Y-132044051D01*
X159236779Y-132044052D01*
X159317903Y-132134149D01*
X159360147Y-132181066D01*
X159514648Y-132293318D01*
X159520676Y-132296002D01*
X159520678Y-132296003D01*
X159664194Y-132359900D01*
X159689112Y-132370994D01*
X159782512Y-132390847D01*
X159869456Y-132409328D01*
X159869461Y-132409328D01*
X159875913Y-132410700D01*
X160066887Y-132410700D01*
X160073339Y-132409328D01*
X160073344Y-132409328D01*
X160160288Y-132390847D01*
X160253688Y-132370994D01*
X160278606Y-132359900D01*
X160422122Y-132296003D01*
X160422124Y-132296002D01*
X160428152Y-132293318D01*
X160582653Y-132181066D01*
X160624897Y-132134149D01*
X160706021Y-132044052D01*
X160706022Y-132044051D01*
X160710440Y-132039144D01*
X160805927Y-131873756D01*
X160806072Y-131873840D01*
X160850083Y-131822061D01*
X160918011Y-131801412D01*
X160986319Y-131820765D01*
X161033320Y-131873976D01*
X161039041Y-131888467D01*
X161067273Y-131975356D01*
X161070576Y-131981078D01*
X161070577Y-131981079D01*
X161077605Y-131993252D01*
X161162760Y-132140744D01*
X161167178Y-132145651D01*
X161167179Y-132145652D01*
X161286125Y-132277755D01*
X161290547Y-132282666D01*
X161369786Y-132340237D01*
X161412120Y-132370994D01*
X161445048Y-132394918D01*
X161451076Y-132397602D01*
X161451078Y-132397603D01*
X161594594Y-132461500D01*
X161619512Y-132472594D01*
X161712913Y-132492447D01*
X161799856Y-132510928D01*
X161799861Y-132510928D01*
X161806313Y-132512300D01*
X161997287Y-132512300D01*
X162003739Y-132510928D01*
X162003744Y-132510928D01*
X162090687Y-132492447D01*
X162184088Y-132472594D01*
X162209006Y-132461500D01*
X162352522Y-132397603D01*
X162352524Y-132397602D01*
X162358552Y-132394918D01*
X162391481Y-132370994D01*
X162433814Y-132340237D01*
X162513053Y-132282666D01*
X162517475Y-132277755D01*
X162636421Y-132145652D01*
X162636422Y-132145651D01*
X162640840Y-132140744D01*
X162725995Y-131993252D01*
X162733023Y-131981079D01*
X162733024Y-131981078D01*
X162736327Y-131975356D01*
X162795342Y-131793728D01*
X162798837Y-131760481D01*
X162814614Y-131610365D01*
X162815304Y-131603800D01*
X162803708Y-131493469D01*
X162796032Y-131420435D01*
X162796032Y-131420433D01*
X162795342Y-131413872D01*
X162736327Y-131232244D01*
X162640840Y-131066856D01*
X162590681Y-131011148D01*
X162517475Y-130929845D01*
X162517474Y-130929844D01*
X162513053Y-130924934D01*
X162373213Y-130823334D01*
X162363894Y-130816563D01*
X162363893Y-130816562D01*
X162358552Y-130812682D01*
X162352524Y-130809998D01*
X162352522Y-130809997D01*
X162190119Y-130737691D01*
X162190118Y-130737691D01*
X162184088Y-130735006D01*
X162089794Y-130714963D01*
X162003744Y-130696672D01*
X162003739Y-130696672D01*
X161997287Y-130695300D01*
X161806313Y-130695300D01*
X161799861Y-130696672D01*
X161799856Y-130696672D01*
X161713806Y-130714963D01*
X161619512Y-130735006D01*
X161613482Y-130737691D01*
X161613481Y-130737691D01*
X161451078Y-130809997D01*
X161451076Y-130809998D01*
X161445048Y-130812682D01*
X161439707Y-130816562D01*
X161439706Y-130816563D01*
X161430387Y-130823334D01*
X161290547Y-130924934D01*
X161286126Y-130929844D01*
X161286125Y-130929845D01*
X161212920Y-131011148D01*
X161162760Y-131066856D01*
X161067273Y-131232244D01*
X161067128Y-131232160D01*
X161023117Y-131283939D01*
X160955189Y-131304588D01*
X160886881Y-131285235D01*
X160839880Y-131232024D01*
X160834158Y-131217530D01*
X160820574Y-131175721D01*
X160805927Y-131130644D01*
X160798429Y-131117656D01*
X160716489Y-130975734D01*
X160710440Y-130965256D01*
X160701559Y-130955392D01*
X160587075Y-130828245D01*
X160587074Y-130828244D01*
X160582653Y-130823334D01*
X160464776Y-130737691D01*
X160433494Y-130714963D01*
X160433493Y-130714962D01*
X160428152Y-130711082D01*
X160422124Y-130708398D01*
X160422122Y-130708397D01*
X160259719Y-130636091D01*
X160259718Y-130636091D01*
X160253688Y-130633406D01*
X160152718Y-130611944D01*
X160073344Y-130595072D01*
X160073339Y-130595072D01*
X160066887Y-130593700D01*
X159875913Y-130593700D01*
X159869461Y-130595072D01*
X159869456Y-130595072D01*
X159790082Y-130611944D01*
X159689112Y-130633406D01*
X159683082Y-130636091D01*
X159683081Y-130636091D01*
X159520678Y-130708397D01*
X159520676Y-130708398D01*
X159514648Y-130711082D01*
X159509307Y-130714962D01*
X159509306Y-130714963D01*
X159478024Y-130737691D01*
X159360147Y-130823334D01*
X159355726Y-130828244D01*
X159355725Y-130828245D01*
X159241242Y-130955392D01*
X159232360Y-130965256D01*
X159226311Y-130975734D01*
X159144372Y-131117656D01*
X159136873Y-131130644D01*
X159077858Y-131312272D01*
X159077168Y-131318833D01*
X159077168Y-131318835D01*
X159060086Y-131481362D01*
X159057896Y-131502200D01*
X154524226Y-131502200D01*
X154523308Y-131493469D01*
X154515632Y-131420435D01*
X154515632Y-131420433D01*
X154514942Y-131413872D01*
X154455927Y-131232244D01*
X154360440Y-131066856D01*
X154310281Y-131011148D01*
X154237075Y-130929845D01*
X154237074Y-130929844D01*
X154232653Y-130924934D01*
X154092813Y-130823334D01*
X154083494Y-130816563D01*
X154083493Y-130816562D01*
X154078152Y-130812682D01*
X154072124Y-130809998D01*
X154072122Y-130809997D01*
X153909719Y-130737691D01*
X153909718Y-130737691D01*
X153903688Y-130735006D01*
X153809394Y-130714963D01*
X153723344Y-130696672D01*
X153723339Y-130696672D01*
X153716887Y-130695300D01*
X153525913Y-130695300D01*
X153519461Y-130696672D01*
X153519456Y-130696672D01*
X153433406Y-130714963D01*
X153339112Y-130735006D01*
X153333082Y-130737691D01*
X153333081Y-130737691D01*
X153170678Y-130809997D01*
X153170676Y-130809998D01*
X153164648Y-130812682D01*
X153159307Y-130816562D01*
X153159306Y-130816563D01*
X153149987Y-130823334D01*
X153010147Y-130924934D01*
X153005726Y-130929844D01*
X153005725Y-130929845D01*
X152932520Y-131011148D01*
X152882360Y-131066856D01*
X152786873Y-131232244D01*
X152730017Y-131407228D01*
X152689945Y-131465832D01*
X152624548Y-131493469D01*
X152554591Y-131481362D01*
X152502285Y-131433356D01*
X152484875Y-131381463D01*
X152484789Y-131380645D01*
X152482942Y-131363072D01*
X152423927Y-131181444D01*
X152328440Y-131016056D01*
X152299127Y-130983500D01*
X152205075Y-130879045D01*
X152205074Y-130879044D01*
X152200653Y-130874134D01*
X152081050Y-130787237D01*
X152051494Y-130765763D01*
X152051493Y-130765762D01*
X152046152Y-130761882D01*
X152040124Y-130759198D01*
X152040122Y-130759197D01*
X151877719Y-130686891D01*
X151877718Y-130686891D01*
X151871688Y-130684206D01*
X151777394Y-130664163D01*
X151691344Y-130645872D01*
X151691339Y-130645872D01*
X151684887Y-130644500D01*
X151493913Y-130644500D01*
X151487461Y-130645872D01*
X151487456Y-130645872D01*
X151401406Y-130664163D01*
X151307112Y-130684206D01*
X151301082Y-130686891D01*
X151301081Y-130686891D01*
X151138678Y-130759197D01*
X151138676Y-130759198D01*
X151132648Y-130761882D01*
X151127307Y-130765762D01*
X151127306Y-130765763D01*
X151097750Y-130787237D01*
X150978147Y-130874134D01*
X150973726Y-130879044D01*
X150973725Y-130879045D01*
X150879674Y-130983500D01*
X150850360Y-131016056D01*
X150754873Y-131181444D01*
X150695858Y-131363072D01*
X150695168Y-131369633D01*
X150695168Y-131369635D01*
X150677415Y-131538548D01*
X150675896Y-131553000D01*
X145995165Y-131553000D01*
X145988908Y-131493469D01*
X145981232Y-131420435D01*
X145981232Y-131420433D01*
X145980542Y-131413872D01*
X145921527Y-131232244D01*
X145826040Y-131066856D01*
X145775881Y-131011148D01*
X145702675Y-130929845D01*
X145702674Y-130929844D01*
X145698253Y-130924934D01*
X145558413Y-130823334D01*
X145549094Y-130816563D01*
X145549093Y-130816562D01*
X145543752Y-130812682D01*
X145537724Y-130809998D01*
X145537722Y-130809997D01*
X145375319Y-130737691D01*
X145375318Y-130737691D01*
X145369288Y-130735006D01*
X145274994Y-130714963D01*
X145188944Y-130696672D01*
X145188939Y-130696672D01*
X145182487Y-130695300D01*
X144991513Y-130695300D01*
X144985061Y-130696672D01*
X144985056Y-130696672D01*
X144899006Y-130714963D01*
X144804712Y-130735006D01*
X144798682Y-130737691D01*
X144798681Y-130737691D01*
X144636278Y-130809997D01*
X144636276Y-130809998D01*
X144630248Y-130812682D01*
X144624907Y-130816562D01*
X144624906Y-130816563D01*
X144615587Y-130823334D01*
X144475747Y-130924934D01*
X144471326Y-130929844D01*
X144471325Y-130929845D01*
X144398120Y-131011148D01*
X144347960Y-131066856D01*
X144252473Y-131232244D01*
X144193458Y-131413872D01*
X144191611Y-131431445D01*
X144191525Y-131432263D01*
X144164510Y-131497919D01*
X144106288Y-131538548D01*
X144035343Y-131541249D01*
X143974199Y-131505166D01*
X143946383Y-131458028D01*
X143889527Y-131283044D01*
X143877073Y-131261472D01*
X143805167Y-131136929D01*
X143794040Y-131117656D01*
X143743881Y-131061948D01*
X143670675Y-130980645D01*
X143670674Y-130980644D01*
X143666253Y-130975734D01*
X143519076Y-130868803D01*
X143517094Y-130867363D01*
X143517093Y-130867362D01*
X143511752Y-130863482D01*
X143505724Y-130860798D01*
X143505722Y-130860797D01*
X143343319Y-130788491D01*
X143343318Y-130788491D01*
X143337288Y-130785806D01*
X143242994Y-130765763D01*
X143156944Y-130747472D01*
X143156939Y-130747472D01*
X143150487Y-130746100D01*
X142959513Y-130746100D01*
X142953061Y-130747472D01*
X142953056Y-130747472D01*
X142867006Y-130765763D01*
X142772712Y-130785806D01*
X142766682Y-130788491D01*
X142766681Y-130788491D01*
X142604278Y-130860797D01*
X142604276Y-130860798D01*
X142598248Y-130863482D01*
X142592907Y-130867362D01*
X142592906Y-130867363D01*
X142590924Y-130868803D01*
X142443747Y-130975734D01*
X142439326Y-130980644D01*
X142439325Y-130980645D01*
X142366120Y-131061948D01*
X142315960Y-131117656D01*
X142304833Y-131136929D01*
X142232928Y-131261472D01*
X142220473Y-131283044D01*
X142161458Y-131464672D01*
X142160768Y-131471233D01*
X142160768Y-131471235D01*
X142152864Y-131546435D01*
X142141496Y-131654600D01*
X137867165Y-131654600D01*
X137871814Y-131610365D01*
X137872504Y-131603800D01*
X137860908Y-131493469D01*
X137853232Y-131420435D01*
X137853232Y-131420433D01*
X137852542Y-131413872D01*
X137793527Y-131232244D01*
X137698040Y-131066856D01*
X137647881Y-131011148D01*
X137574675Y-130929845D01*
X137574674Y-130929844D01*
X137570253Y-130924934D01*
X137430413Y-130823334D01*
X137421094Y-130816563D01*
X137421093Y-130816562D01*
X137415752Y-130812682D01*
X137409724Y-130809998D01*
X137409722Y-130809997D01*
X137247319Y-130737691D01*
X137247318Y-130737691D01*
X137241288Y-130735006D01*
X137146994Y-130714963D01*
X137060944Y-130696672D01*
X137060939Y-130696672D01*
X137054487Y-130695300D01*
X136863513Y-130695300D01*
X136857061Y-130696672D01*
X136857056Y-130696672D01*
X136771006Y-130714963D01*
X136676712Y-130735006D01*
X136670682Y-130737691D01*
X136670681Y-130737691D01*
X136508278Y-130809997D01*
X136508276Y-130809998D01*
X136502248Y-130812682D01*
X136496907Y-130816562D01*
X136496906Y-130816563D01*
X136487587Y-130823334D01*
X136347747Y-130924934D01*
X136343326Y-130929844D01*
X136343325Y-130929845D01*
X136270120Y-131011148D01*
X136219960Y-131066856D01*
X136124473Y-131232244D01*
X136065458Y-131413872D01*
X136064768Y-131420433D01*
X136064768Y-131420435D01*
X136057092Y-131493469D01*
X136045496Y-131603800D01*
X135722886Y-131603800D01*
X135729745Y-131538548D01*
X135738214Y-131457965D01*
X135738904Y-131451400D01*
X135736893Y-131432263D01*
X135719632Y-131268035D01*
X135719632Y-131268033D01*
X135718942Y-131261472D01*
X135659927Y-131079844D01*
X135652429Y-131066856D01*
X135604303Y-130983500D01*
X135564440Y-130914456D01*
X135482394Y-130823334D01*
X135441075Y-130777445D01*
X135441074Y-130777444D01*
X135436653Y-130772534D01*
X135318776Y-130686891D01*
X135287494Y-130664163D01*
X135287493Y-130664162D01*
X135282152Y-130660282D01*
X135276124Y-130657598D01*
X135276122Y-130657597D01*
X135113719Y-130585291D01*
X135113718Y-130585291D01*
X135107688Y-130582606D01*
X135014287Y-130562753D01*
X134927344Y-130544272D01*
X134927339Y-130544272D01*
X134920887Y-130542900D01*
X134729913Y-130542900D01*
X134723461Y-130544272D01*
X134723456Y-130544272D01*
X134636513Y-130562753D01*
X134543112Y-130582606D01*
X134537082Y-130585291D01*
X134537081Y-130585291D01*
X134374678Y-130657597D01*
X134374676Y-130657598D01*
X134368648Y-130660282D01*
X134363307Y-130664162D01*
X134363306Y-130664163D01*
X134332024Y-130686891D01*
X134214147Y-130772534D01*
X134209726Y-130777444D01*
X134209725Y-130777445D01*
X134168407Y-130823334D01*
X134086360Y-130914456D01*
X134046497Y-130983500D01*
X133998372Y-131066856D01*
X133990873Y-131079844D01*
X133931858Y-131261472D01*
X133931168Y-131268033D01*
X133931168Y-131268035D01*
X133913907Y-131432263D01*
X133911896Y-131451400D01*
X129423686Y-131451400D01*
X129420432Y-131420435D01*
X129420432Y-131420433D01*
X129419742Y-131413872D01*
X129360727Y-131232244D01*
X129265240Y-131066856D01*
X129215081Y-131011148D01*
X129141875Y-130929845D01*
X129141874Y-130929844D01*
X129137453Y-130924934D01*
X128997613Y-130823334D01*
X128988294Y-130816563D01*
X128988293Y-130816562D01*
X128982952Y-130812682D01*
X128976924Y-130809998D01*
X128976922Y-130809997D01*
X128814519Y-130737691D01*
X128814518Y-130737691D01*
X128808488Y-130735006D01*
X128714194Y-130714963D01*
X128628144Y-130696672D01*
X128628139Y-130696672D01*
X128621687Y-130695300D01*
X128430713Y-130695300D01*
X128424261Y-130696672D01*
X128424256Y-130696672D01*
X128338206Y-130714963D01*
X128243912Y-130735006D01*
X128237882Y-130737691D01*
X128237881Y-130737691D01*
X128075478Y-130809997D01*
X128075476Y-130809998D01*
X128069448Y-130812682D01*
X128064107Y-130816562D01*
X128064106Y-130816563D01*
X128054787Y-130823334D01*
X127914947Y-130924934D01*
X127910526Y-130929844D01*
X127910525Y-130929845D01*
X127837320Y-131011148D01*
X127787160Y-131066856D01*
X127691673Y-131232244D01*
X127632658Y-131413872D01*
X127631968Y-131420433D01*
X127631968Y-131420435D01*
X127624292Y-131493469D01*
X127612696Y-131603800D01*
X127340886Y-131603800D01*
X127347745Y-131538548D01*
X127356214Y-131457965D01*
X127356904Y-131451400D01*
X127354893Y-131432263D01*
X127337632Y-131268035D01*
X127337632Y-131268033D01*
X127336942Y-131261472D01*
X127277927Y-131079844D01*
X127270429Y-131066856D01*
X127222303Y-130983500D01*
X127182440Y-130914456D01*
X127100394Y-130823334D01*
X127059075Y-130777445D01*
X127059074Y-130777444D01*
X127054653Y-130772534D01*
X126936776Y-130686891D01*
X126905494Y-130664163D01*
X126905493Y-130664162D01*
X126900152Y-130660282D01*
X126894124Y-130657598D01*
X126894122Y-130657597D01*
X126731719Y-130585291D01*
X126731718Y-130585291D01*
X126725688Y-130582606D01*
X126632287Y-130562753D01*
X126545344Y-130544272D01*
X126545339Y-130544272D01*
X126538887Y-130542900D01*
X126347913Y-130542900D01*
X126341461Y-130544272D01*
X126341456Y-130544272D01*
X126254513Y-130562753D01*
X126161112Y-130582606D01*
X126155082Y-130585291D01*
X126155081Y-130585291D01*
X125992678Y-130657597D01*
X125992676Y-130657598D01*
X125986648Y-130660282D01*
X125981307Y-130664162D01*
X125981306Y-130664163D01*
X125950024Y-130686891D01*
X125832147Y-130772534D01*
X125827726Y-130777444D01*
X125827725Y-130777445D01*
X125786407Y-130823334D01*
X125704360Y-130914456D01*
X125664497Y-130983500D01*
X125616372Y-131066856D01*
X125608873Y-131079844D01*
X125549858Y-131261472D01*
X125549168Y-131268033D01*
X125549168Y-131268035D01*
X125531907Y-131432263D01*
X125529896Y-131451400D01*
X121893843Y-131451400D01*
X121815297Y-131168173D01*
X121812243Y-131160497D01*
X121694046Y-130863482D01*
X121682793Y-130835205D01*
X121615652Y-130708397D01*
X121516702Y-130521513D01*
X121516698Y-130521506D01*
X121515103Y-130518494D01*
X121314190Y-130221746D01*
X121293575Y-130197437D01*
X121189740Y-130075000D01*
X130386496Y-130075000D01*
X130387186Y-130081562D01*
X130387186Y-130081565D01*
X130403301Y-130234887D01*
X130406458Y-130264928D01*
X130465473Y-130446556D01*
X130560960Y-130611944D01*
X130565378Y-130616851D01*
X130565379Y-130616852D01*
X130661815Y-130723955D01*
X130688747Y-130753866D01*
X130769700Y-130812682D01*
X130810982Y-130842675D01*
X130843248Y-130866118D01*
X130849276Y-130868802D01*
X130849278Y-130868803D01*
X131011681Y-130941109D01*
X131017712Y-130943794D01*
X131095592Y-130960348D01*
X131198056Y-130982128D01*
X131198061Y-130982128D01*
X131204513Y-130983500D01*
X131395487Y-130983500D01*
X131401939Y-130982128D01*
X131401944Y-130982128D01*
X131504408Y-130960348D01*
X131582288Y-130943794D01*
X131588319Y-130941109D01*
X131750722Y-130868803D01*
X131750724Y-130868802D01*
X131756752Y-130866118D01*
X131789019Y-130842675D01*
X131830300Y-130812682D01*
X131911253Y-130753866D01*
X131938185Y-130723955D01*
X132034621Y-130616852D01*
X132034622Y-130616851D01*
X132039040Y-130611944D01*
X132134527Y-130446556D01*
X132193542Y-130264928D01*
X132196700Y-130234887D01*
X132212814Y-130081565D01*
X132212814Y-130081562D01*
X132213504Y-130075000D01*
X132205621Y-130000000D01*
X138661496Y-130000000D01*
X138681458Y-130189928D01*
X138740473Y-130371556D01*
X138835960Y-130536944D01*
X138840378Y-130541851D01*
X138840379Y-130541852D01*
X138898342Y-130606226D01*
X138963747Y-130678866D01*
X139041017Y-130735006D01*
X139110937Y-130785806D01*
X139118248Y-130791118D01*
X139124276Y-130793802D01*
X139124278Y-130793803D01*
X139277991Y-130862240D01*
X139292712Y-130868794D01*
X139372766Y-130885810D01*
X139473056Y-130907128D01*
X139473061Y-130907128D01*
X139479513Y-130908500D01*
X139670487Y-130908500D01*
X139676939Y-130907128D01*
X139676944Y-130907128D01*
X139777234Y-130885810D01*
X139857288Y-130868794D01*
X139872009Y-130862240D01*
X140025722Y-130793803D01*
X140025724Y-130793802D01*
X140031752Y-130791118D01*
X140039064Y-130785806D01*
X140108983Y-130735006D01*
X140186253Y-130678866D01*
X140251658Y-130606226D01*
X140309621Y-130541852D01*
X140309622Y-130541851D01*
X140314040Y-130536944D01*
X140409527Y-130371556D01*
X140468542Y-130189928D01*
X140483249Y-130050000D01*
X147211496Y-130050000D01*
X147231458Y-130239928D01*
X147290473Y-130421556D01*
X147385960Y-130586944D01*
X147390378Y-130591851D01*
X147390379Y-130591852D01*
X147483524Y-130695300D01*
X147513747Y-130728866D01*
X147599429Y-130791118D01*
X147659686Y-130834897D01*
X147668248Y-130841118D01*
X147674276Y-130843802D01*
X147674278Y-130843803D01*
X147836681Y-130916109D01*
X147842712Y-130918794D01*
X147936112Y-130938647D01*
X148023056Y-130957128D01*
X148023061Y-130957128D01*
X148029513Y-130958500D01*
X148220487Y-130958500D01*
X148226939Y-130957128D01*
X148226944Y-130957128D01*
X148313888Y-130938647D01*
X148407288Y-130918794D01*
X148413319Y-130916109D01*
X148575722Y-130843803D01*
X148575724Y-130843802D01*
X148581752Y-130841118D01*
X148590315Y-130834897D01*
X148650571Y-130791118D01*
X148736253Y-130728866D01*
X148766476Y-130695300D01*
X148859621Y-130591852D01*
X148859622Y-130591851D01*
X148864040Y-130586944D01*
X148959527Y-130421556D01*
X149018542Y-130239928D01*
X149035876Y-130075000D01*
X155486496Y-130075000D01*
X155487186Y-130081562D01*
X155487186Y-130081565D01*
X155503301Y-130234887D01*
X155506458Y-130264928D01*
X155565473Y-130446556D01*
X155660960Y-130611944D01*
X155665378Y-130616851D01*
X155665379Y-130616852D01*
X155761815Y-130723955D01*
X155788747Y-130753866D01*
X155869700Y-130812682D01*
X155910982Y-130842675D01*
X155943248Y-130866118D01*
X155949276Y-130868802D01*
X155949278Y-130868803D01*
X156111681Y-130941109D01*
X156117712Y-130943794D01*
X156195592Y-130960348D01*
X156298056Y-130982128D01*
X156298061Y-130982128D01*
X156304513Y-130983500D01*
X156495487Y-130983500D01*
X156501939Y-130982128D01*
X156501944Y-130982128D01*
X156604408Y-130960348D01*
X156682288Y-130943794D01*
X156688319Y-130941109D01*
X156850722Y-130868803D01*
X156850724Y-130868802D01*
X156856752Y-130866118D01*
X156889019Y-130842675D01*
X156930300Y-130812682D01*
X157011253Y-130753866D01*
X157038185Y-130723955D01*
X157134621Y-130616852D01*
X157134622Y-130616851D01*
X157139040Y-130611944D01*
X157234527Y-130446556D01*
X157293542Y-130264928D01*
X157296700Y-130234887D01*
X157312814Y-130081565D01*
X157312814Y-130081562D01*
X157313504Y-130075000D01*
X164011496Y-130075000D01*
X164012186Y-130081562D01*
X164012186Y-130081565D01*
X164028301Y-130234887D01*
X164031458Y-130264928D01*
X164090473Y-130446556D01*
X164185960Y-130611944D01*
X164190378Y-130616851D01*
X164190379Y-130616852D01*
X164286815Y-130723955D01*
X164313747Y-130753866D01*
X164394700Y-130812682D01*
X164435982Y-130842675D01*
X164468248Y-130866118D01*
X164474276Y-130868802D01*
X164474278Y-130868803D01*
X164636681Y-130941109D01*
X164642712Y-130943794D01*
X164720592Y-130960348D01*
X164823056Y-130982128D01*
X164823061Y-130982128D01*
X164829513Y-130983500D01*
X165020487Y-130983500D01*
X165026939Y-130982128D01*
X165026944Y-130982128D01*
X165129408Y-130960348D01*
X165207288Y-130943794D01*
X165213319Y-130941109D01*
X165375722Y-130868803D01*
X165375724Y-130868802D01*
X165381752Y-130866118D01*
X165414020Y-130842674D01*
X165480885Y-130818817D01*
X165550037Y-130834897D01*
X165599517Y-130885810D01*
X165613617Y-130955392D01*
X165604986Y-130991607D01*
X165538411Y-131157218D01*
X165537491Y-131160492D01*
X165537489Y-131160497D01*
X165443895Y-131493469D01*
X165441437Y-131502213D01*
X165440875Y-131505570D01*
X165440875Y-131505571D01*
X165386806Y-131828679D01*
X165382290Y-131855663D01*
X165361661Y-132213434D01*
X165379792Y-132571340D01*
X165380329Y-132574695D01*
X165380330Y-132574701D01*
X165394540Y-132663414D01*
X165436470Y-132925195D01*
X165531033Y-133270859D01*
X165662374Y-133604288D01*
X165828957Y-133921582D01*
X165830858Y-133924411D01*
X165830864Y-133924421D01*
X165985731Y-134154886D01*
X166028834Y-134219029D01*
X166259665Y-134493150D01*
X166518751Y-134740738D01*
X166803061Y-134958897D01*
X166835056Y-134978350D01*
X167106355Y-135143303D01*
X167106360Y-135143306D01*
X167109270Y-135145075D01*
X167112358Y-135146521D01*
X167112357Y-135146521D01*
X167430710Y-135295649D01*
X167430720Y-135295653D01*
X167433794Y-135297093D01*
X167437012Y-135298195D01*
X167437015Y-135298196D01*
X167769615Y-135412071D01*
X167769623Y-135412073D01*
X167772838Y-135413174D01*
X168122435Y-135491959D01*
X168174728Y-135497917D01*
X168475114Y-135532142D01*
X168475122Y-135532142D01*
X168478497Y-135532527D01*
X168481901Y-135532545D01*
X168481904Y-135532545D01*
X168676227Y-135533562D01*
X168836857Y-135534403D01*
X168840243Y-135534053D01*
X168840245Y-135534053D01*
X169189932Y-135497917D01*
X169189941Y-135497916D01*
X169193324Y-135497566D01*
X169196657Y-135496852D01*
X169196660Y-135496851D01*
X169415446Y-135449947D01*
X169543727Y-135422446D01*
X169883968Y-135309922D01*
X170210066Y-135161311D01*
X170304052Y-135105506D01*
X170515262Y-134980099D01*
X170515267Y-134980096D01*
X170518207Y-134978350D01*
X170804786Y-134763180D01*
X171066451Y-134518319D01*
X171300140Y-134246630D01*
X171406750Y-134091512D01*
X171501190Y-133954101D01*
X171501195Y-133954094D01*
X171503120Y-133951292D01*
X171504732Y-133948298D01*
X171504737Y-133948290D01*
X171671395Y-133638772D01*
X171673017Y-133635760D01*
X171807842Y-133303724D01*
X171818142Y-133267568D01*
X171838527Y-133196006D01*
X171906020Y-132959070D01*
X171966401Y-132605828D01*
X171968511Y-132571340D01*
X171988168Y-132249928D01*
X171988278Y-132248131D01*
X171988350Y-132227627D01*
X171988353Y-132226819D01*
X171988353Y-132226806D01*
X171988359Y-132225000D01*
X171968979Y-131867159D01*
X171911066Y-131513505D01*
X171815297Y-131168173D01*
X171812243Y-131160497D01*
X171694046Y-130863482D01*
X171682793Y-130835205D01*
X171615652Y-130708397D01*
X171516702Y-130521513D01*
X171516698Y-130521506D01*
X171515103Y-130518494D01*
X171314190Y-130221746D01*
X171293575Y-130197437D01*
X171131703Y-130006565D01*
X171082403Y-129948432D01*
X170822454Y-129701750D01*
X170537384Y-129484585D01*
X170534472Y-129482828D01*
X170534467Y-129482825D01*
X170233443Y-129301236D01*
X170233437Y-129301233D01*
X170230528Y-129299478D01*
X169981518Y-129183891D01*
X169908571Y-129150030D01*
X169908569Y-129150029D01*
X169905475Y-129148593D01*
X169735752Y-129091145D01*
X169569255Y-129034789D01*
X169569250Y-129034788D01*
X169566028Y-129033697D01*
X169367681Y-128989724D01*
X169219493Y-128956871D01*
X169219487Y-128956870D01*
X169216158Y-128956132D01*
X169212769Y-128955758D01*
X169212764Y-128955757D01*
X168863338Y-128917180D01*
X168863333Y-128917180D01*
X168859957Y-128916807D01*
X168856558Y-128916801D01*
X168856557Y-128916801D01*
X168687080Y-128916505D01*
X168501592Y-128916182D01*
X168388413Y-128928277D01*
X168148639Y-128953901D01*
X168148631Y-128953902D01*
X168145256Y-128954263D01*
X167795117Y-129030606D01*
X167455271Y-129144317D01*
X167452178Y-129145739D01*
X167452177Y-129145740D01*
X167320715Y-129206206D01*
X167129694Y-129294066D01*
X167126760Y-129295822D01*
X167126758Y-129295823D01*
X166950945Y-129401045D01*
X166822193Y-129478101D01*
X166819467Y-129480163D01*
X166819465Y-129480164D01*
X166557293Y-129678444D01*
X166536367Y-129694270D01*
X166533882Y-129696612D01*
X166533877Y-129696616D01*
X166525945Y-129704091D01*
X166275559Y-129940043D01*
X166273347Y-129942633D01*
X166273345Y-129942635D01*
X166056884Y-130196078D01*
X165997433Y-130234887D01*
X165926439Y-130235393D01*
X165866440Y-130197437D01*
X165836487Y-130133069D01*
X165835763Y-130101075D01*
X165837814Y-130081562D01*
X165838504Y-130075000D01*
X165818542Y-129885072D01*
X165759527Y-129703444D01*
X165754231Y-129694270D01*
X165667341Y-129543774D01*
X165664040Y-129538056D01*
X165646679Y-129518774D01*
X165540675Y-129401045D01*
X165540674Y-129401044D01*
X165536253Y-129396134D01*
X165401243Y-129298043D01*
X165387094Y-129287763D01*
X165387093Y-129287762D01*
X165381752Y-129283882D01*
X165375724Y-129281198D01*
X165375722Y-129281197D01*
X165213319Y-129208891D01*
X165213318Y-129208891D01*
X165207288Y-129206206D01*
X165102305Y-129183891D01*
X165026944Y-129167872D01*
X165026939Y-129167872D01*
X165020487Y-129166500D01*
X164829513Y-129166500D01*
X164823061Y-129167872D01*
X164823056Y-129167872D01*
X164747695Y-129183891D01*
X164642712Y-129206206D01*
X164636682Y-129208891D01*
X164636681Y-129208891D01*
X164474278Y-129281197D01*
X164474276Y-129281198D01*
X164468248Y-129283882D01*
X164462907Y-129287762D01*
X164462906Y-129287763D01*
X164448757Y-129298043D01*
X164313747Y-129396134D01*
X164309326Y-129401044D01*
X164309325Y-129401045D01*
X164203322Y-129518774D01*
X164185960Y-129538056D01*
X164182659Y-129543774D01*
X164095770Y-129694270D01*
X164090473Y-129703444D01*
X164031458Y-129885072D01*
X164011496Y-130075000D01*
X157313504Y-130075000D01*
X157293542Y-129885072D01*
X157234527Y-129703444D01*
X157229231Y-129694270D01*
X157142341Y-129543774D01*
X157139040Y-129538056D01*
X157121679Y-129518774D01*
X157015675Y-129401045D01*
X157015674Y-129401044D01*
X157011253Y-129396134D01*
X156876243Y-129298043D01*
X156862094Y-129287763D01*
X156862093Y-129287762D01*
X156856752Y-129283882D01*
X156850724Y-129281198D01*
X156850722Y-129281197D01*
X156688319Y-129208891D01*
X156688318Y-129208891D01*
X156682288Y-129206206D01*
X156577305Y-129183891D01*
X156501944Y-129167872D01*
X156501939Y-129167872D01*
X156495487Y-129166500D01*
X156304513Y-129166500D01*
X156298061Y-129167872D01*
X156298056Y-129167872D01*
X156222695Y-129183891D01*
X156117712Y-129206206D01*
X156111682Y-129208891D01*
X156111681Y-129208891D01*
X155949278Y-129281197D01*
X155949276Y-129281198D01*
X155943248Y-129283882D01*
X155937907Y-129287762D01*
X155937906Y-129287763D01*
X155923757Y-129298043D01*
X155788747Y-129396134D01*
X155784326Y-129401044D01*
X155784325Y-129401045D01*
X155678322Y-129518774D01*
X155660960Y-129538056D01*
X155657659Y-129543774D01*
X155570770Y-129694270D01*
X155565473Y-129703444D01*
X155506458Y-129885072D01*
X155486496Y-130075000D01*
X149035876Y-130075000D01*
X149038504Y-130050000D01*
X149032559Y-129993435D01*
X149019232Y-129866635D01*
X149019232Y-129866633D01*
X149018542Y-129860072D01*
X148959527Y-129678444D01*
X148864040Y-129513056D01*
X148832567Y-129478101D01*
X148740675Y-129376045D01*
X148740674Y-129376044D01*
X148736253Y-129371134D01*
X148621503Y-129287763D01*
X148587094Y-129262763D01*
X148587093Y-129262762D01*
X148581752Y-129258882D01*
X148575724Y-129256198D01*
X148575722Y-129256197D01*
X148413319Y-129183891D01*
X148413318Y-129183891D01*
X148407288Y-129181206D01*
X148313887Y-129161353D01*
X148226944Y-129142872D01*
X148226939Y-129142872D01*
X148220487Y-129141500D01*
X148029513Y-129141500D01*
X148023061Y-129142872D01*
X148023056Y-129142872D01*
X147936113Y-129161353D01*
X147842712Y-129181206D01*
X147836682Y-129183891D01*
X147836681Y-129183891D01*
X147674278Y-129256197D01*
X147674276Y-129256198D01*
X147668248Y-129258882D01*
X147662907Y-129262762D01*
X147662906Y-129262763D01*
X147628497Y-129287763D01*
X147513747Y-129371134D01*
X147509326Y-129376044D01*
X147509325Y-129376045D01*
X147417434Y-129478101D01*
X147385960Y-129513056D01*
X147290473Y-129678444D01*
X147231458Y-129860072D01*
X147230768Y-129866633D01*
X147230768Y-129866635D01*
X147217441Y-129993435D01*
X147211496Y-130050000D01*
X140483249Y-130050000D01*
X140488504Y-130000000D01*
X140468542Y-129810072D01*
X140409527Y-129628444D01*
X140314040Y-129463056D01*
X140186253Y-129321134D01*
X140031752Y-129208882D01*
X140025724Y-129206198D01*
X140025722Y-129206197D01*
X139863319Y-129133891D01*
X139863318Y-129133891D01*
X139857288Y-129131206D01*
X139763888Y-129111353D01*
X139676944Y-129092872D01*
X139676939Y-129092872D01*
X139670487Y-129091500D01*
X139479513Y-129091500D01*
X139473061Y-129092872D01*
X139473056Y-129092872D01*
X139386112Y-129111353D01*
X139292712Y-129131206D01*
X139286682Y-129133891D01*
X139286681Y-129133891D01*
X139124278Y-129206197D01*
X139124276Y-129206198D01*
X139118248Y-129208882D01*
X138963747Y-129321134D01*
X138835960Y-129463056D01*
X138740473Y-129628444D01*
X138681458Y-129810072D01*
X138661496Y-130000000D01*
X132205621Y-130000000D01*
X132193542Y-129885072D01*
X132134527Y-129703444D01*
X132129231Y-129694270D01*
X132042341Y-129543774D01*
X132039040Y-129538056D01*
X132021679Y-129518774D01*
X131915675Y-129401045D01*
X131915674Y-129401044D01*
X131911253Y-129396134D01*
X131776243Y-129298043D01*
X131762094Y-129287763D01*
X131762093Y-129287762D01*
X131756752Y-129283882D01*
X131750724Y-129281198D01*
X131750722Y-129281197D01*
X131588319Y-129208891D01*
X131588318Y-129208891D01*
X131582288Y-129206206D01*
X131477305Y-129183891D01*
X131401944Y-129167872D01*
X131401939Y-129167872D01*
X131395487Y-129166500D01*
X131204513Y-129166500D01*
X131198061Y-129167872D01*
X131198056Y-129167872D01*
X131122695Y-129183891D01*
X131017712Y-129206206D01*
X131011682Y-129208891D01*
X131011681Y-129208891D01*
X130849278Y-129281197D01*
X130849276Y-129281198D01*
X130843248Y-129283882D01*
X130837907Y-129287762D01*
X130837906Y-129287763D01*
X130823757Y-129298043D01*
X130688747Y-129396134D01*
X130684326Y-129401044D01*
X130684325Y-129401045D01*
X130578322Y-129518774D01*
X130560960Y-129538056D01*
X130557659Y-129543774D01*
X130470770Y-129694270D01*
X130465473Y-129703444D01*
X130406458Y-129885072D01*
X130386496Y-130075000D01*
X121189740Y-130075000D01*
X121131703Y-130006565D01*
X121082403Y-129948432D01*
X120822454Y-129701750D01*
X120537384Y-129484585D01*
X120534472Y-129482828D01*
X120534467Y-129482825D01*
X120233443Y-129301236D01*
X120233437Y-129301233D01*
X120230528Y-129299478D01*
X119981518Y-129183891D01*
X119908571Y-129150030D01*
X119908569Y-129150029D01*
X119905475Y-129148593D01*
X119735752Y-129091145D01*
X119569255Y-129034789D01*
X119569250Y-129034788D01*
X119566028Y-129033697D01*
X119367681Y-128989724D01*
X119219493Y-128956871D01*
X119219487Y-128956870D01*
X119216158Y-128956132D01*
X119212769Y-128955758D01*
X119212764Y-128955757D01*
X118863338Y-128917180D01*
X118863333Y-128917180D01*
X118859957Y-128916807D01*
X118856558Y-128916801D01*
X118856557Y-128916801D01*
X118687080Y-128916505D01*
X118501592Y-128916182D01*
X118388413Y-128928277D01*
X118148639Y-128953901D01*
X118148631Y-128953902D01*
X118145256Y-128954263D01*
X117795117Y-129030606D01*
X117455271Y-129144317D01*
X117452178Y-129145739D01*
X117452177Y-129145740D01*
X117320715Y-129206206D01*
X117129694Y-129294066D01*
X117126760Y-129295822D01*
X117126758Y-129295823D01*
X116950945Y-129401045D01*
X116822193Y-129478101D01*
X116819467Y-129480163D01*
X116819465Y-129480164D01*
X116557293Y-129678444D01*
X116536367Y-129694270D01*
X116533882Y-129696612D01*
X116533877Y-129696616D01*
X116525945Y-129704091D01*
X116275559Y-129940043D01*
X116042819Y-130212546D01*
X116040900Y-130215358D01*
X116040897Y-130215363D01*
X116011563Y-130258365D01*
X115840871Y-130508591D01*
X115672077Y-130824714D01*
X115538411Y-131157218D01*
X115537491Y-131160492D01*
X115537489Y-131160497D01*
X115443895Y-131493469D01*
X115441437Y-131502213D01*
X115440875Y-131505570D01*
X115440875Y-131505571D01*
X115386806Y-131828679D01*
X115382290Y-131855663D01*
X115361661Y-132213434D01*
X114112073Y-132213434D01*
X114109773Y-132197376D01*
X114108500Y-132179514D01*
X114108500Y-121647000D01*
X124412296Y-121647000D01*
X124432258Y-121836928D01*
X124491273Y-122018556D01*
X124586760Y-122183944D01*
X124714547Y-122325866D01*
X124869048Y-122438118D01*
X124875076Y-122440802D01*
X124875078Y-122440803D01*
X125037481Y-122513109D01*
X125043512Y-122515794D01*
X125136913Y-122535647D01*
X125223856Y-122554128D01*
X125223861Y-122554128D01*
X125230313Y-122555500D01*
X125421287Y-122555500D01*
X125427739Y-122554128D01*
X125427744Y-122554128D01*
X125514687Y-122535647D01*
X125608088Y-122515794D01*
X125614119Y-122513109D01*
X125776522Y-122440803D01*
X125776524Y-122440802D01*
X125782552Y-122438118D01*
X125937053Y-122325866D01*
X126064840Y-122183944D01*
X126160327Y-122018556D01*
X126219342Y-121836928D01*
X126239304Y-121647000D01*
X126219342Y-121457072D01*
X126160327Y-121275444D01*
X126064840Y-121110056D01*
X125937053Y-120968134D01*
X125782552Y-120855882D01*
X125776524Y-120853198D01*
X125776522Y-120853197D01*
X125614119Y-120780891D01*
X125614118Y-120780891D01*
X125608088Y-120778206D01*
X125514688Y-120758353D01*
X125427744Y-120739872D01*
X125427739Y-120739872D01*
X125421287Y-120738500D01*
X125230313Y-120738500D01*
X125223861Y-120739872D01*
X125223856Y-120739872D01*
X125136912Y-120758353D01*
X125043512Y-120778206D01*
X125037482Y-120780891D01*
X125037481Y-120780891D01*
X124875078Y-120853197D01*
X124875076Y-120853198D01*
X124869048Y-120855882D01*
X124714547Y-120968134D01*
X124586760Y-121110056D01*
X124491273Y-121275444D01*
X124432258Y-121457072D01*
X124412296Y-121647000D01*
X114108500Y-121647000D01*
X114108500Y-111816695D01*
X123222251Y-111816695D01*
X123222548Y-111821848D01*
X123222548Y-111821851D01*
X123229326Y-111939400D01*
X123235110Y-112039715D01*
X123236247Y-112044761D01*
X123236248Y-112044767D01*
X123254093Y-112123947D01*
X123284222Y-112257639D01*
X123368266Y-112464616D01*
X123484987Y-112655088D01*
X123631250Y-112823938D01*
X123803126Y-112966632D01*
X123996000Y-113079338D01*
X124204692Y-113159030D01*
X124209760Y-113160061D01*
X124209763Y-113160062D01*
X124317017Y-113181883D01*
X124423597Y-113203567D01*
X124428772Y-113203757D01*
X124428774Y-113203757D01*
X124641673Y-113211564D01*
X124641677Y-113211564D01*
X124646837Y-113211753D01*
X124651957Y-113211097D01*
X124651959Y-113211097D01*
X124863288Y-113184025D01*
X124863289Y-113184025D01*
X124868416Y-113183368D01*
X124917180Y-113168738D01*
X125077429Y-113120661D01*
X125077434Y-113120659D01*
X125082384Y-113119174D01*
X125282994Y-113020896D01*
X125464860Y-112891173D01*
X125573091Y-112783319D01*
X125635462Y-112749404D01*
X125706268Y-112754592D01*
X125763030Y-112797238D01*
X125780012Y-112828341D01*
X125824385Y-112946705D01*
X125911739Y-113063261D01*
X126028295Y-113150615D01*
X126164684Y-113201745D01*
X126226866Y-113208500D01*
X128023134Y-113208500D01*
X128085316Y-113201745D01*
X128221705Y-113150615D01*
X128338261Y-113063261D01*
X128425615Y-112946705D01*
X128476745Y-112810316D01*
X128483500Y-112748134D01*
X128483500Y-110951866D01*
X128476745Y-110889684D01*
X128425615Y-110753295D01*
X128338261Y-110636739D01*
X128221705Y-110549385D01*
X128085316Y-110498255D01*
X128023134Y-110491500D01*
X126226866Y-110491500D01*
X126164684Y-110498255D01*
X126028295Y-110549385D01*
X125911739Y-110636739D01*
X125824385Y-110753295D01*
X125821233Y-110761703D01*
X125779919Y-110871907D01*
X125737277Y-110928671D01*
X125670716Y-110953371D01*
X125601367Y-110938163D01*
X125568743Y-110912476D01*
X125518151Y-110856875D01*
X125518142Y-110856866D01*
X125514670Y-110853051D01*
X125510619Y-110849852D01*
X125510615Y-110849848D01*
X125343414Y-110717800D01*
X125343410Y-110717798D01*
X125339359Y-110714598D01*
X125305738Y-110696038D01*
X125242847Y-110661321D01*
X125143789Y-110606638D01*
X125138920Y-110604914D01*
X125138916Y-110604912D01*
X124938087Y-110533795D01*
X124938083Y-110533794D01*
X124933212Y-110532069D01*
X124928119Y-110531162D01*
X124928116Y-110531161D01*
X124718373Y-110493800D01*
X124718367Y-110493799D01*
X124713284Y-110492894D01*
X124639452Y-110491992D01*
X124495081Y-110490228D01*
X124495079Y-110490228D01*
X124489911Y-110490165D01*
X124269091Y-110523955D01*
X124056756Y-110593357D01*
X124026443Y-110609137D01*
X123926199Y-110661321D01*
X123858607Y-110696507D01*
X123854474Y-110699610D01*
X123854471Y-110699612D01*
X123684100Y-110827530D01*
X123679965Y-110830635D01*
X123640525Y-110871907D01*
X123569462Y-110946270D01*
X123525629Y-110992138D01*
X123399743Y-111176680D01*
X123397564Y-111181375D01*
X123344710Y-111295240D01*
X123305688Y-111379305D01*
X123245989Y-111594570D01*
X123222251Y-111816695D01*
X114108500Y-111816695D01*
X114108500Y-104601695D01*
X115522251Y-104601695D01*
X115522548Y-104606848D01*
X115522548Y-104606851D01*
X115528011Y-104701590D01*
X115535110Y-104824715D01*
X115536247Y-104829761D01*
X115536248Y-104829767D01*
X115556119Y-104917939D01*
X115584222Y-105042639D01*
X115668266Y-105249616D01*
X115699501Y-105300587D01*
X115779094Y-105430471D01*
X115784987Y-105440088D01*
X115931250Y-105608938D01*
X115935230Y-105612242D01*
X115939981Y-105616187D01*
X115979616Y-105675090D01*
X115981113Y-105746071D01*
X115943997Y-105806593D01*
X115903724Y-105831112D01*
X115788295Y-105874385D01*
X115671739Y-105961739D01*
X115584385Y-106078295D01*
X115533255Y-106214684D01*
X115526500Y-106276866D01*
X115526500Y-108073134D01*
X115533255Y-108135316D01*
X115584385Y-108271705D01*
X115671739Y-108388261D01*
X115788295Y-108475615D01*
X115924684Y-108526745D01*
X115986866Y-108533500D01*
X117783134Y-108533500D01*
X117845316Y-108526745D01*
X117981705Y-108475615D01*
X118098261Y-108388261D01*
X118185615Y-108271705D01*
X118236745Y-108135316D01*
X118243500Y-108073134D01*
X118243500Y-107378101D01*
X118263502Y-107309980D01*
X118317158Y-107263487D01*
X118387432Y-107253383D01*
X118452012Y-107282877D01*
X118489333Y-107339163D01*
X118540473Y-107496556D01*
X118635960Y-107661944D01*
X118640378Y-107666851D01*
X118640379Y-107666852D01*
X118725088Y-107760931D01*
X118763747Y-107803866D01*
X118918248Y-107916118D01*
X118924276Y-107918802D01*
X118924278Y-107918803D01*
X119086681Y-107991109D01*
X119092712Y-107993794D01*
X119186112Y-108013647D01*
X119273056Y-108032128D01*
X119273061Y-108032128D01*
X119279513Y-108033500D01*
X119470487Y-108033500D01*
X119476939Y-108032128D01*
X119476944Y-108032128D01*
X119563888Y-108013647D01*
X119657288Y-107993794D01*
X119663319Y-107991109D01*
X119825722Y-107918803D01*
X119825724Y-107918802D01*
X119831752Y-107916118D01*
X119986253Y-107803866D01*
X120024912Y-107760931D01*
X120109621Y-107666852D01*
X120109622Y-107666851D01*
X120114040Y-107661944D01*
X120209527Y-107496556D01*
X120268542Y-107314928D01*
X120270834Y-107293126D01*
X120287814Y-107131565D01*
X120288504Y-107125000D01*
X120268542Y-106935072D01*
X120209527Y-106753444D01*
X120114040Y-106588056D01*
X120073536Y-106543071D01*
X119990675Y-106451045D01*
X119990674Y-106451044D01*
X119986253Y-106446134D01*
X119831752Y-106333882D01*
X119825724Y-106331198D01*
X119825722Y-106331197D01*
X119663319Y-106258891D01*
X119663318Y-106258891D01*
X119657288Y-106256206D01*
X119563888Y-106236353D01*
X119476944Y-106217872D01*
X119476939Y-106217872D01*
X119470487Y-106216500D01*
X119279513Y-106216500D01*
X119273061Y-106217872D01*
X119273056Y-106217872D01*
X119186113Y-106236353D01*
X119092712Y-106256206D01*
X119086682Y-106258891D01*
X119086681Y-106258891D01*
X118924278Y-106331197D01*
X118924276Y-106331198D01*
X118918248Y-106333882D01*
X118763747Y-106446134D01*
X118759326Y-106451044D01*
X118759325Y-106451045D01*
X118676465Y-106543071D01*
X118635960Y-106588056D01*
X118540473Y-106753444D01*
X118535757Y-106767960D01*
X118489333Y-106910836D01*
X118449259Y-106969441D01*
X118383863Y-106997078D01*
X118313906Y-106984971D01*
X118261600Y-106936965D01*
X118243500Y-106871899D01*
X118243500Y-106276866D01*
X118236745Y-106214684D01*
X118185615Y-106078295D01*
X118098261Y-105961739D01*
X117981705Y-105874385D01*
X117969132Y-105869672D01*
X117863203Y-105829960D01*
X117806439Y-105787318D01*
X117781739Y-105720756D01*
X117796947Y-105651408D01*
X117818493Y-105622727D01*
X117919435Y-105522137D01*
X117923096Y-105518489D01*
X117982594Y-105435689D01*
X118050435Y-105341277D01*
X118053453Y-105337077D01*
X118071488Y-105300587D01*
X118150136Y-105141453D01*
X118150137Y-105141451D01*
X118152430Y-105136811D01*
X118193533Y-105001525D01*
X118215865Y-104928023D01*
X118215865Y-104928021D01*
X118217370Y-104923069D01*
X118246529Y-104701590D01*
X118248156Y-104635000D01*
X118229852Y-104412361D01*
X118175431Y-104195702D01*
X118086354Y-103990840D01*
X117994403Y-103848705D01*
X117967822Y-103807617D01*
X117967820Y-103807614D01*
X117965014Y-103803277D01*
X117814670Y-103638051D01*
X117810619Y-103634852D01*
X117810615Y-103634848D01*
X117643414Y-103502800D01*
X117643410Y-103502798D01*
X117639359Y-103499598D01*
X117598053Y-103476796D01*
X117548084Y-103426364D01*
X117533312Y-103356921D01*
X117558428Y-103290516D01*
X117585780Y-103263909D01*
X117637701Y-103226874D01*
X117764860Y-103136173D01*
X117775000Y-103126069D01*
X117919435Y-102982137D01*
X117923096Y-102978489D01*
X117944783Y-102948309D01*
X118050435Y-102801277D01*
X118053453Y-102797077D01*
X118117970Y-102666537D01*
X118150136Y-102601453D01*
X118150137Y-102601451D01*
X118152430Y-102596811D01*
X118214044Y-102394016D01*
X118215865Y-102388023D01*
X118215865Y-102388021D01*
X118217370Y-102383069D01*
X118246529Y-102161590D01*
X118248156Y-102095000D01*
X118229852Y-101872361D01*
X118175431Y-101655702D01*
X118086354Y-101450840D01*
X117994403Y-101308705D01*
X117967822Y-101267617D01*
X117967820Y-101267614D01*
X117965014Y-101263277D01*
X117814670Y-101098051D01*
X117810619Y-101094852D01*
X117810615Y-101094848D01*
X117643414Y-100962800D01*
X117643410Y-100962798D01*
X117639359Y-100959598D01*
X117443789Y-100851638D01*
X117438920Y-100849914D01*
X117438916Y-100849912D01*
X117238087Y-100778795D01*
X117238083Y-100778794D01*
X117233212Y-100777069D01*
X117228119Y-100776162D01*
X117228116Y-100776161D01*
X117018373Y-100738800D01*
X117018367Y-100738799D01*
X117013284Y-100737894D01*
X116939452Y-100736992D01*
X116795081Y-100735228D01*
X116795079Y-100735228D01*
X116789911Y-100735165D01*
X116569091Y-100768955D01*
X116356756Y-100838357D01*
X116158607Y-100941507D01*
X116154474Y-100944610D01*
X116154471Y-100944612D01*
X116130247Y-100962800D01*
X115979965Y-101075635D01*
X115825629Y-101237138D01*
X115699743Y-101421680D01*
X115605688Y-101624305D01*
X115545989Y-101839570D01*
X115522251Y-102061695D01*
X115522548Y-102066848D01*
X115522548Y-102066851D01*
X115528011Y-102161590D01*
X115535110Y-102284715D01*
X115536247Y-102289761D01*
X115536248Y-102289767D01*
X115556119Y-102377939D01*
X115584222Y-102502639D01*
X115668266Y-102709616D01*
X115784987Y-102900088D01*
X115931250Y-103068938D01*
X116103126Y-103211632D01*
X116134349Y-103229877D01*
X116176445Y-103254476D01*
X116225169Y-103306114D01*
X116238240Y-103375897D01*
X116211509Y-103441669D01*
X116171055Y-103475027D01*
X116158607Y-103481507D01*
X116154474Y-103484610D01*
X116154471Y-103484612D01*
X115988787Y-103609011D01*
X115979965Y-103615635D01*
X115976393Y-103619373D01*
X115841661Y-103760362D01*
X115825629Y-103777138D01*
X115822715Y-103781410D01*
X115822714Y-103781411D01*
X115810404Y-103799457D01*
X115699743Y-103961680D01*
X115605688Y-104164305D01*
X115545989Y-104379570D01*
X115522251Y-104601695D01*
X114108500Y-104601695D01*
X114108500Y-96092095D01*
X127214651Y-96092095D01*
X127214948Y-96097248D01*
X127214948Y-96097251D01*
X127224064Y-96255354D01*
X127227510Y-96315115D01*
X127228647Y-96320161D01*
X127228648Y-96320167D01*
X127248519Y-96408339D01*
X127276622Y-96533039D01*
X127360666Y-96740016D01*
X127363365Y-96744420D01*
X127455130Y-96894167D01*
X127477387Y-96930488D01*
X127623650Y-97099338D01*
X127627630Y-97102642D01*
X127632381Y-97106587D01*
X127672016Y-97165490D01*
X127673513Y-97236471D01*
X127636397Y-97296993D01*
X127596124Y-97321512D01*
X127480695Y-97364785D01*
X127364139Y-97452139D01*
X127276785Y-97568695D01*
X127225655Y-97705084D01*
X127218900Y-97767266D01*
X127218900Y-99563534D01*
X127225655Y-99625716D01*
X127276785Y-99762105D01*
X127364139Y-99878661D01*
X127480695Y-99966015D01*
X127617084Y-100017145D01*
X127679266Y-100023900D01*
X129475534Y-100023900D01*
X129537716Y-100017145D01*
X129674105Y-99966015D01*
X129790661Y-99878661D01*
X129878015Y-99762105D01*
X129929145Y-99625716D01*
X129935900Y-99563534D01*
X129935900Y-97767266D01*
X129929145Y-97705084D01*
X129878015Y-97568695D01*
X129790661Y-97452139D01*
X129674105Y-97364785D01*
X129661532Y-97360072D01*
X129555603Y-97320360D01*
X129498839Y-97277718D01*
X129474139Y-97211156D01*
X129489347Y-97141808D01*
X129510893Y-97113127D01*
X129611835Y-97012537D01*
X129615496Y-97008889D01*
X129674994Y-96926089D01*
X129742835Y-96831677D01*
X129745853Y-96827477D01*
X129825613Y-96666095D01*
X129842536Y-96631853D01*
X129842537Y-96631851D01*
X129844830Y-96627211D01*
X129909770Y-96413469D01*
X129938929Y-96191990D01*
X129940556Y-96125400D01*
X129922252Y-95902761D01*
X129867831Y-95686102D01*
X129778754Y-95481240D01*
X129668616Y-95310992D01*
X129660222Y-95298017D01*
X129660220Y-95298014D01*
X129657414Y-95293677D01*
X129507070Y-95128451D01*
X129503019Y-95125252D01*
X129503015Y-95125248D01*
X129335814Y-94993200D01*
X129335810Y-94993198D01*
X129331759Y-94989998D01*
X129136189Y-94882038D01*
X129131320Y-94880314D01*
X129131316Y-94880312D01*
X128930487Y-94809195D01*
X128930483Y-94809194D01*
X128925612Y-94807469D01*
X128920519Y-94806562D01*
X128920516Y-94806561D01*
X128710773Y-94769200D01*
X128710767Y-94769199D01*
X128705684Y-94768294D01*
X128631852Y-94767392D01*
X128487481Y-94765628D01*
X128487479Y-94765628D01*
X128482311Y-94765565D01*
X128261491Y-94799355D01*
X128049156Y-94868757D01*
X127851007Y-94971907D01*
X127846874Y-94975010D01*
X127846871Y-94975012D01*
X127676500Y-95102930D01*
X127672365Y-95106035D01*
X127633676Y-95146521D01*
X127522088Y-95263291D01*
X127518029Y-95267538D01*
X127515115Y-95271810D01*
X127515114Y-95271811D01*
X127488387Y-95310992D01*
X127392143Y-95452080D01*
X127353930Y-95534403D01*
X127317383Y-95613138D01*
X127298088Y-95654705D01*
X127238389Y-95869970D01*
X127214651Y-96092095D01*
X114108500Y-96092095D01*
X114108500Y-92278250D01*
X114110246Y-92257345D01*
X114112770Y-92242344D01*
X114112770Y-92242341D01*
X114113576Y-92237552D01*
X114113729Y-92225000D01*
X114113039Y-92220184D01*
X114113039Y-92220178D01*
X114112073Y-92213434D01*
X115361661Y-92213434D01*
X115379792Y-92571340D01*
X115380329Y-92574695D01*
X115380330Y-92574701D01*
X115401226Y-92705156D01*
X115436470Y-92925195D01*
X115531033Y-93270859D01*
X115662374Y-93604288D01*
X115828957Y-93921582D01*
X115830858Y-93924411D01*
X115830864Y-93924421D01*
X116014569Y-94197800D01*
X116028834Y-94219029D01*
X116259665Y-94493150D01*
X116518751Y-94740738D01*
X116803061Y-94958897D01*
X116835056Y-94978350D01*
X117106355Y-95143303D01*
X117106360Y-95143306D01*
X117109270Y-95145075D01*
X117112358Y-95146521D01*
X117112357Y-95146521D01*
X117430710Y-95295649D01*
X117430720Y-95295653D01*
X117433794Y-95297093D01*
X117437012Y-95298195D01*
X117437015Y-95298196D01*
X117769615Y-95412071D01*
X117769623Y-95412073D01*
X117772838Y-95413174D01*
X118122435Y-95491959D01*
X118174728Y-95497917D01*
X118475114Y-95532142D01*
X118475122Y-95532142D01*
X118478497Y-95532527D01*
X118481901Y-95532545D01*
X118481904Y-95532545D01*
X118676227Y-95533562D01*
X118836857Y-95534403D01*
X118840243Y-95534053D01*
X118840245Y-95534053D01*
X119189932Y-95497917D01*
X119189941Y-95497916D01*
X119193324Y-95497566D01*
X119196657Y-95496852D01*
X119196660Y-95496851D01*
X119405497Y-95452080D01*
X119543727Y-95422446D01*
X119883968Y-95309922D01*
X120210066Y-95161311D01*
X120498590Y-94989998D01*
X120515262Y-94980099D01*
X120515267Y-94980096D01*
X120518207Y-94978350D01*
X120526789Y-94971907D01*
X120666311Y-94867150D01*
X120804786Y-94763180D01*
X121066451Y-94518319D01*
X121300140Y-94246630D01*
X121406750Y-94091512D01*
X121501190Y-93954101D01*
X121501195Y-93954094D01*
X121503120Y-93951292D01*
X121504732Y-93948298D01*
X121504737Y-93948290D01*
X121671395Y-93638772D01*
X121673017Y-93635760D01*
X121807842Y-93303724D01*
X121818142Y-93267568D01*
X121878548Y-93055509D01*
X121906020Y-92959070D01*
X121945095Y-92730471D01*
X121965829Y-92609175D01*
X121965829Y-92609173D01*
X121966401Y-92605828D01*
X121968511Y-92571340D01*
X121988168Y-92249928D01*
X121988278Y-92248131D01*
X121988316Y-92237265D01*
X121988353Y-92226819D01*
X121988353Y-92226806D01*
X121988359Y-92225000D01*
X121968979Y-91867159D01*
X121911066Y-91513505D01*
X121815297Y-91168173D01*
X121812243Y-91160497D01*
X121684052Y-90838369D01*
X121682793Y-90835205D01*
X121594483Y-90668416D01*
X121516702Y-90521513D01*
X121516698Y-90521506D01*
X121515103Y-90518494D01*
X121314190Y-90221746D01*
X121294597Y-90198642D01*
X121091104Y-89958692D01*
X121082403Y-89948432D01*
X120822454Y-89701750D01*
X120546888Y-89491825D01*
X120540091Y-89486647D01*
X120540089Y-89486646D01*
X120537384Y-89484585D01*
X120534472Y-89482828D01*
X120534467Y-89482825D01*
X120233443Y-89301236D01*
X120233437Y-89301233D01*
X120230528Y-89299478D01*
X119905475Y-89148593D01*
X119691143Y-89076046D01*
X119569255Y-89034789D01*
X119569250Y-89034788D01*
X119566028Y-89033697D01*
X119367681Y-88989724D01*
X119219493Y-88956871D01*
X119219487Y-88956870D01*
X119216158Y-88956132D01*
X119212769Y-88955758D01*
X119212764Y-88955757D01*
X118863338Y-88917180D01*
X118863333Y-88917180D01*
X118859957Y-88916807D01*
X118856558Y-88916801D01*
X118856557Y-88916801D01*
X118687080Y-88916505D01*
X118501592Y-88916182D01*
X118388413Y-88928277D01*
X118148639Y-88953901D01*
X118148631Y-88953902D01*
X118145256Y-88954263D01*
X117795117Y-89030606D01*
X117455271Y-89144317D01*
X117452178Y-89145739D01*
X117452177Y-89145740D01*
X117445974Y-89148593D01*
X117129694Y-89294066D01*
X117126760Y-89295822D01*
X117126758Y-89295823D01*
X116998769Y-89372423D01*
X116822193Y-89478101D01*
X116819467Y-89480163D01*
X116819465Y-89480164D01*
X116544409Y-89688188D01*
X116536367Y-89694270D01*
X116275559Y-89940043D01*
X116273347Y-89942633D01*
X116273345Y-89942635D01*
X116252931Y-89966537D01*
X116042819Y-90212546D01*
X116040900Y-90215358D01*
X116040897Y-90215363D01*
X115989633Y-90290514D01*
X115840871Y-90508591D01*
X115672077Y-90824714D01*
X115538411Y-91157218D01*
X115537491Y-91160492D01*
X115537489Y-91160497D01*
X115459630Y-91437490D01*
X115441437Y-91502213D01*
X115382290Y-91855663D01*
X115361661Y-92213434D01*
X114112073Y-92213434D01*
X114111387Y-92208644D01*
X114110234Y-92185284D01*
X114117364Y-92021996D01*
X114125637Y-91832498D01*
X114126595Y-91821549D01*
X114177157Y-91437490D01*
X114179066Y-91426664D01*
X114262910Y-91048472D01*
X114265755Y-91037855D01*
X114343267Y-90792017D01*
X114382241Y-90668408D01*
X114385997Y-90658087D01*
X114402085Y-90619248D01*
X114534246Y-90300181D01*
X114538879Y-90290246D01*
X114717759Y-89946622D01*
X114723249Y-89937113D01*
X114931383Y-89610408D01*
X114937687Y-89601404D01*
X115121128Y-89362339D01*
X115173516Y-89294066D01*
X115180579Y-89285649D01*
X115442284Y-89000049D01*
X115450053Y-88992280D01*
X115491542Y-88954263D01*
X115735652Y-88730577D01*
X115744069Y-88723513D01*
X116051404Y-88487687D01*
X116060408Y-88481383D01*
X116387113Y-88273249D01*
X116396622Y-88267759D01*
X116740246Y-88088879D01*
X116750181Y-88084246D01*
X117108094Y-87935994D01*
X117118408Y-87932241D01*
X117465647Y-87822757D01*
X117487855Y-87815755D01*
X117498472Y-87812910D01*
X117876664Y-87729066D01*
X117887490Y-87727157D01*
X118271549Y-87676595D01*
X118282498Y-87675637D01*
X118631554Y-87660397D01*
X118656429Y-87661777D01*
X118668724Y-87663691D01*
X118677626Y-87662527D01*
X118677628Y-87662527D01*
X118696399Y-87660072D01*
X118700286Y-87659564D01*
X118716621Y-87658500D01*
X134057373Y-87658500D01*
X134125494Y-87678502D01*
G37*
%TD.AperFunction*%
%TD*%
M02*
