M48
; DRILL file {KiCad (6.0.9)} date Wed 23 Nov 2022 10:08:17 PM MST
; FORMAT={-:-/ absolute / inch / decimal}
; #@! TF.CreationDate,2022-11-23T22:08:17-07:00
; #@! TF.GenerationSoftware,Kicad,Pcbnew,(6.0.9)
; #@! TF.FileFunction,Plated,1,4,PTH
FMAT,2
INCH
; #@! TA.AperFunction,Plated,PTH,ViaDrill
T1C0.0157
; #@! TA.AperFunction,Plated,PTH,ComponentDrill
T2C0.0394
; #@! TA.AperFunction,Plated,PTH,ComponentDrill
T3C0.0402
; #@! TA.AperFunction,Plated,PTH,ComponentDrill
T4C0.0512
; #@! TA.AperFunction,Plated,PTH,ComponentDrill
T5C0.1260
%
G90
G05
T1
X4.6998Y-4.2175
X4.8829Y-5.123
X4.9341Y-4.7893
X4.9781Y-5.1753
X5.0601Y-5.1813
X5.1161Y-4.7873
X5.1693Y-5.1211
X5.2156Y-5.1201
X5.3081Y-5.1753
X5.3921Y-5.1813
X5.4951Y-5.1181
X5.5531Y-5.1201
X5.6321Y-5.1833
X5.7121Y-5.1813
X5.8317Y-5.1201
X5.8829Y-5.1201
X5.9681Y-5.1793
X6.0481Y-5.1813
X6.1575Y-5.1211
X6.2175Y-5.1211
X6.2981Y-5.1773
X6.3741Y-5.1813
X6.4931Y-5.1211
T2
X4.6018Y-4.0195
X4.6018Y-4.1195
X4.6018Y-4.2195
X4.9049Y-4.4035
X5.0049Y-4.4035
X5.0621Y-3.7845
X5.0621Y-3.8845
T3
X5.3065Y-3.5071
X5.3065Y-3.6071
X5.3065Y-3.7071
X5.3065Y-3.8071
X5.3065Y-3.9071
X5.3065Y-4.0071
X5.3065Y-4.1071
X5.3065Y-4.2071
X5.3065Y-4.3071
X5.3065Y-4.4071
X5.3065Y-4.5071
X5.3065Y-4.6071
X5.3065Y-4.7071
X6.0065Y-3.5071
X6.0065Y-3.6071
X6.0065Y-3.7071
X6.0065Y-3.8071
X6.0065Y-3.9071
X6.0065Y-4.0071
X6.0065Y-4.1071
X6.0065Y-4.2071
X6.0065Y-4.3071
X6.0065Y-4.4071
X6.0065Y-4.5071
X6.0065Y-4.6071
X6.0065Y-4.7071
T4
X6.3583Y-4.1441
X6.3583Y-4.6362
X6.5551Y-4.1441
X6.5551Y-4.6362
T5
X4.6722Y-3.6309
X4.6722Y-5.2057
X6.6407Y-3.6309
X6.6407Y-5.2057
T0
M30
