%TF.GenerationSoftware,KiCad,Pcbnew,(6.0.9)*%
%TF.CreationDate,2022-11-19T08:59:57-07:00*%
%TF.ProjectId,AQM,41514d2e-6b69-4636-9164-5f7063625858,rev?*%
%TF.SameCoordinates,Original*%
%TF.FileFunction,Drillmap*%
%TF.FilePolarity,Positive*%
%FSLAX45Y45*%
G04 Gerber Fmt 4.5, Leading zero omitted, Abs format (unit mm)*
G04 Created by KiCad (PCBNEW (6.0.9)) date 2022-11-19 08:59:57*
%MOMM*%
%LPD*%
G01*
G04 APERTURE LIST*
%ADD10C,0.100000*%
%ADD11C,0.200000*%
%ADD12C,0.040000*%
%ADD13C,0.090000*%
%ADD14C,0.102000*%
%ADD15C,0.130000*%
%ADD16C,0.320000*%
G04 APERTURE END LIST*
D10*
X14500000Y-9007500D02*
X9500000Y-9007500D01*
X14500000Y-9007500D02*
G75*
G03*
X15007500Y-8500000I0J507500D01*
G01*
X8992500Y-8500000D02*
G75*
G03*
X9500000Y-9007500I507500J0D01*
G01*
X8992500Y-8500000D02*
X8992500Y-4500000D01*
X15007500Y-4500000D02*
X15007500Y-8500000D01*
X9500000Y-3992500D02*
G75*
G03*
X8992500Y-4500000I0J-507500D01*
G01*
X9500000Y-3992500D02*
X14500000Y-3992500D01*
X15007500Y-4500000D02*
G75*
G03*
X14500000Y-3992500I-507500J0D01*
G01*
D11*
D12*
X9725000Y-5437000D02*
X9765000Y-5477000D01*
X9765000Y-5437000D02*
X9725000Y-5477000D01*
X10015000Y-8270000D02*
X10055000Y-8310000D01*
X10055000Y-8270000D02*
X10015000Y-8310000D01*
X10145080Y-7422200D02*
X10185080Y-7462200D01*
X10185080Y-7422200D02*
X10145080Y-7462200D01*
X10256840Y-8402640D02*
X10296840Y-8442640D01*
X10296840Y-8402640D02*
X10256840Y-8442640D01*
X10465120Y-8417880D02*
X10505120Y-8457880D01*
X10505120Y-8417880D02*
X10465120Y-8457880D01*
X10607360Y-7417120D02*
X10647360Y-7457120D01*
X10647360Y-7417120D02*
X10607360Y-7457120D01*
X10742500Y-8265000D02*
X10782500Y-8305000D01*
X10782500Y-8265000D02*
X10742500Y-8305000D01*
X10860000Y-8262500D02*
X10900000Y-8302500D01*
X10900000Y-8262500D02*
X10860000Y-8302500D01*
X11095040Y-8402640D02*
X11135040Y-8442640D01*
X11135040Y-8402640D02*
X11095040Y-8442640D01*
X11308400Y-8417880D02*
X11348400Y-8457880D01*
X11348400Y-8417880D02*
X11308400Y-8457880D01*
X11570000Y-8257500D02*
X11610000Y-8297500D01*
X11610000Y-8257500D02*
X11570000Y-8297500D01*
X11717500Y-8262500D02*
X11757500Y-8302500D01*
X11757500Y-8262500D02*
X11717500Y-8302500D01*
X11918000Y-8422960D02*
X11958000Y-8462960D01*
X11958000Y-8422960D02*
X11918000Y-8462960D01*
X12121200Y-8417880D02*
X12161200Y-8457880D01*
X12161200Y-8417880D02*
X12121200Y-8457880D01*
X12425000Y-8262500D02*
X12465000Y-8302500D01*
X12465000Y-8262500D02*
X12425000Y-8302500D01*
X12555000Y-8262500D02*
X12595000Y-8302500D01*
X12595000Y-8262500D02*
X12555000Y-8302500D01*
X12771440Y-8412800D02*
X12811440Y-8452800D01*
X12811440Y-8412800D02*
X12771440Y-8452800D01*
X12974640Y-8417880D02*
X13014640Y-8457880D01*
X13014640Y-8417880D02*
X12974640Y-8457880D01*
X13252500Y-8265000D02*
X13292500Y-8305000D01*
X13292500Y-8265000D02*
X13252500Y-8305000D01*
X13405000Y-8265000D02*
X13445000Y-8305000D01*
X13445000Y-8265000D02*
X13405000Y-8305000D01*
X13609640Y-8407720D02*
X13649640Y-8447720D01*
X13649640Y-8407720D02*
X13609640Y-8447720D01*
X13802680Y-8417880D02*
X13842680Y-8457880D01*
X13842680Y-8417880D02*
X13802680Y-8457880D01*
X14105000Y-8265000D02*
X14145000Y-8305000D01*
X14145000Y-8265000D02*
X14105000Y-8305000D01*
D13*
X10527500Y-4900000D02*
G75*
G03*
X10527500Y-4900000I-45000J0D01*
G01*
X10527500Y-5154000D02*
G75*
G03*
X10527500Y-5154000I-45000J0D01*
G01*
D10*
X9321000Y-5437000D02*
X9321000Y-5537000D01*
X9271000Y-5487000D02*
X9371000Y-5487000D01*
X9321000Y-5691000D02*
X9321000Y-5791000D01*
X9271000Y-5741000D02*
X9371000Y-5741000D01*
X9321000Y-5945000D02*
X9321000Y-6045000D01*
X9271000Y-5995000D02*
X9371000Y-5995000D01*
D14*
X11147063Y-4221503D02*
X11147063Y-4149377D01*
X11074937Y-4149377D01*
X11074937Y-4221503D01*
X11147063Y-4221503D01*
X11147063Y-4475503D02*
X11147063Y-4403377D01*
X11074937Y-4403377D01*
X11074937Y-4475503D01*
X11147063Y-4475503D01*
X11147063Y-4729503D02*
X11147063Y-4657377D01*
X11074937Y-4657377D01*
X11074937Y-4729503D01*
X11147063Y-4729503D01*
X11147063Y-4983503D02*
X11147063Y-4911377D01*
X11074937Y-4911377D01*
X11074937Y-4983503D01*
X11147063Y-4983503D01*
X11147063Y-5237503D02*
X11147063Y-5165377D01*
X11074937Y-5165377D01*
X11074937Y-5237503D01*
X11147063Y-5237503D01*
X11147063Y-5491503D02*
X11147063Y-5419377D01*
X11074937Y-5419377D01*
X11074937Y-5491503D01*
X11147063Y-5491503D01*
X11147063Y-5745503D02*
X11147063Y-5673377D01*
X11074937Y-5673377D01*
X11074937Y-5745503D01*
X11147063Y-5745503D01*
X11147063Y-5999503D02*
X11147063Y-5927377D01*
X11074937Y-5927377D01*
X11074937Y-5999503D01*
X11147063Y-5999503D01*
X11147063Y-6253503D02*
X11147063Y-6181377D01*
X11074937Y-6181377D01*
X11074937Y-6253503D01*
X11147063Y-6253503D01*
X11147063Y-6507503D02*
X11147063Y-6435377D01*
X11074937Y-6435377D01*
X11074937Y-6507503D01*
X11147063Y-6507503D01*
X11147063Y-6761503D02*
X11147063Y-6689377D01*
X11074937Y-6689377D01*
X11074937Y-6761503D01*
X11147063Y-6761503D01*
X11147063Y-7015503D02*
X11147063Y-6943377D01*
X11074937Y-6943377D01*
X11074937Y-7015503D01*
X11147063Y-7015503D01*
X11147063Y-7269503D02*
X11147063Y-7197377D01*
X11074937Y-7197377D01*
X11074937Y-7269503D01*
X11147063Y-7269503D01*
X12925063Y-4221503D02*
X12925063Y-4149377D01*
X12852937Y-4149377D01*
X12852937Y-4221503D01*
X12925063Y-4221503D01*
X12925063Y-4475503D02*
X12925063Y-4403377D01*
X12852937Y-4403377D01*
X12852937Y-4475503D01*
X12925063Y-4475503D01*
X12925063Y-4729503D02*
X12925063Y-4657377D01*
X12852937Y-4657377D01*
X12852937Y-4729503D01*
X12925063Y-4729503D01*
X12925063Y-4983503D02*
X12925063Y-4911377D01*
X12852937Y-4911377D01*
X12852937Y-4983503D01*
X12925063Y-4983503D01*
X12925063Y-5237503D02*
X12925063Y-5165377D01*
X12852937Y-5165377D01*
X12852937Y-5237503D01*
X12925063Y-5237503D01*
X12925063Y-5491503D02*
X12925063Y-5419377D01*
X12852937Y-5419377D01*
X12852937Y-5491503D01*
X12925063Y-5491503D01*
X12925063Y-5745503D02*
X12925063Y-5673377D01*
X12852937Y-5673377D01*
X12852937Y-5745503D01*
X12925063Y-5745503D01*
X12925063Y-5999503D02*
X12925063Y-5927377D01*
X12852937Y-5927377D01*
X12852937Y-5999503D01*
X12925063Y-5999503D01*
X12925063Y-6253503D02*
X12925063Y-6181377D01*
X12852937Y-6181377D01*
X12852937Y-6253503D01*
X12925063Y-6253503D01*
X12925063Y-6507503D02*
X12925063Y-6435377D01*
X12852937Y-6435377D01*
X12852937Y-6507503D01*
X12925063Y-6507503D01*
X12925063Y-6761503D02*
X12925063Y-6689377D01*
X12852937Y-6689377D01*
X12852937Y-6761503D01*
X12925063Y-6761503D01*
X12925063Y-7015503D02*
X12925063Y-6943377D01*
X12852937Y-6943377D01*
X12852937Y-7015503D01*
X12925063Y-7015503D01*
X12925063Y-7269503D02*
X12925063Y-7197377D01*
X12852937Y-7197377D01*
X12852937Y-7269503D01*
X12925063Y-7269503D01*
D15*
X13782500Y-5868500D02*
X13847500Y-5803500D01*
X13782500Y-5738500D01*
X13717500Y-5803500D01*
X13782500Y-5868500D01*
X13782500Y-7118500D02*
X13847500Y-7053500D01*
X13782500Y-6988500D01*
X13717500Y-7053500D01*
X13782500Y-7118500D01*
X14282500Y-5868500D02*
X14347500Y-5803500D01*
X14282500Y-5738500D01*
X14217500Y-5803500D01*
X14282500Y-5868500D01*
X14282500Y-7118500D02*
X14347500Y-7053500D01*
X14282500Y-6988500D01*
X14217500Y-7053500D01*
X14282500Y-7118500D01*
D16*
X9340000Y-4340000D02*
X9660000Y-4660000D01*
X9660000Y-4340000D02*
X9340000Y-4660000D01*
X9660000Y-4500000D02*
G75*
G03*
X9660000Y-4500000I-160000J0D01*
G01*
X9340000Y-8340000D02*
X9660000Y-8660000D01*
X9660000Y-8340000D02*
X9340000Y-8660000D01*
X9660000Y-8500000D02*
G75*
G03*
X9660000Y-8500000I-160000J0D01*
G01*
X14340000Y-4340000D02*
X14660000Y-4660000D01*
X14660000Y-4340000D02*
X14340000Y-4660000D01*
X14660000Y-4500000D02*
G75*
G03*
X14660000Y-4500000I-160000J0D01*
G01*
X14340000Y-8340000D02*
X14660000Y-8660000D01*
X14660000Y-8340000D02*
X14340000Y-8660000D01*
X14660000Y-8500000D02*
G75*
G03*
X14660000Y-8500000I-160000J0D01*
G01*
D11*
X9245119Y-9322976D02*
X9245119Y-9122976D01*
X9292738Y-9122976D01*
X9321310Y-9132500D01*
X9340357Y-9151548D01*
X9349881Y-9170595D01*
X9359405Y-9208690D01*
X9359405Y-9237262D01*
X9349881Y-9275357D01*
X9340357Y-9294405D01*
X9321310Y-9313452D01*
X9292738Y-9322976D01*
X9245119Y-9322976D01*
X9445119Y-9322976D02*
X9445119Y-9189643D01*
X9445119Y-9227738D02*
X9454643Y-9208690D01*
X9464167Y-9199167D01*
X9483214Y-9189643D01*
X9502262Y-9189643D01*
X9568929Y-9322976D02*
X9568929Y-9189643D01*
X9568929Y-9122976D02*
X9559405Y-9132500D01*
X9568929Y-9142024D01*
X9578452Y-9132500D01*
X9568929Y-9122976D01*
X9568929Y-9142024D01*
X9692738Y-9322976D02*
X9673690Y-9313452D01*
X9664167Y-9294405D01*
X9664167Y-9122976D01*
X9797500Y-9322976D02*
X9778452Y-9313452D01*
X9768929Y-9294405D01*
X9768929Y-9122976D01*
X10026071Y-9322976D02*
X10026071Y-9122976D01*
X10092738Y-9265833D01*
X10159405Y-9122976D01*
X10159405Y-9322976D01*
X10340357Y-9322976D02*
X10340357Y-9218214D01*
X10330833Y-9199167D01*
X10311786Y-9189643D01*
X10273690Y-9189643D01*
X10254643Y-9199167D01*
X10340357Y-9313452D02*
X10321310Y-9322976D01*
X10273690Y-9322976D01*
X10254643Y-9313452D01*
X10245119Y-9294405D01*
X10245119Y-9275357D01*
X10254643Y-9256310D01*
X10273690Y-9246786D01*
X10321310Y-9246786D01*
X10340357Y-9237262D01*
X10435595Y-9189643D02*
X10435595Y-9389643D01*
X10435595Y-9199167D02*
X10454643Y-9189643D01*
X10492738Y-9189643D01*
X10511786Y-9199167D01*
X10521310Y-9208690D01*
X10530833Y-9227738D01*
X10530833Y-9284881D01*
X10521310Y-9303929D01*
X10511786Y-9313452D01*
X10492738Y-9322976D01*
X10454643Y-9322976D01*
X10435595Y-9313452D01*
X10616548Y-9303929D02*
X10626071Y-9313452D01*
X10616548Y-9322976D01*
X10607024Y-9313452D01*
X10616548Y-9303929D01*
X10616548Y-9322976D01*
X10616548Y-9199167D02*
X10626071Y-9208690D01*
X10616548Y-9218214D01*
X10607024Y-9208690D01*
X10616548Y-9199167D01*
X10616548Y-9218214D01*
D12*
X8947500Y-9632500D02*
X8987500Y-9672500D01*
X8987500Y-9632500D02*
X8947500Y-9672500D01*
D11*
X9283214Y-9542976D02*
X9302262Y-9542976D01*
X9321310Y-9552500D01*
X9330833Y-9562024D01*
X9340357Y-9581071D01*
X9349881Y-9619167D01*
X9349881Y-9666786D01*
X9340357Y-9704881D01*
X9330833Y-9723929D01*
X9321310Y-9733452D01*
X9302262Y-9742976D01*
X9283214Y-9742976D01*
X9264167Y-9733452D01*
X9254643Y-9723929D01*
X9245119Y-9704881D01*
X9235595Y-9666786D01*
X9235595Y-9619167D01*
X9245119Y-9581071D01*
X9254643Y-9562024D01*
X9264167Y-9552500D01*
X9283214Y-9542976D01*
X9435595Y-9723929D02*
X9445119Y-9733452D01*
X9435595Y-9742976D01*
X9426071Y-9733452D01*
X9435595Y-9723929D01*
X9435595Y-9742976D01*
X9616548Y-9609643D02*
X9616548Y-9742976D01*
X9568929Y-9533452D02*
X9521310Y-9676310D01*
X9645119Y-9676310D01*
X9759405Y-9542976D02*
X9778452Y-9542976D01*
X9797500Y-9552500D01*
X9807024Y-9562024D01*
X9816548Y-9581071D01*
X9826071Y-9619167D01*
X9826071Y-9666786D01*
X9816548Y-9704881D01*
X9807024Y-9723929D01*
X9797500Y-9733452D01*
X9778452Y-9742976D01*
X9759405Y-9742976D01*
X9740357Y-9733452D01*
X9730833Y-9723929D01*
X9721310Y-9704881D01*
X9711786Y-9666786D01*
X9711786Y-9619167D01*
X9721310Y-9581071D01*
X9730833Y-9562024D01*
X9740357Y-9552500D01*
X9759405Y-9542976D01*
X9949881Y-9542976D02*
X9968929Y-9542976D01*
X9987976Y-9552500D01*
X9997500Y-9562024D01*
X10007024Y-9581071D01*
X10016548Y-9619167D01*
X10016548Y-9666786D01*
X10007024Y-9704881D01*
X9997500Y-9723929D01*
X9987976Y-9733452D01*
X9968929Y-9742976D01*
X9949881Y-9742976D01*
X9930833Y-9733452D01*
X9921310Y-9723929D01*
X9911786Y-9704881D01*
X9902262Y-9666786D01*
X9902262Y-9619167D01*
X9911786Y-9581071D01*
X9921310Y-9562024D01*
X9930833Y-9552500D01*
X9949881Y-9542976D01*
X10102262Y-9742976D02*
X10102262Y-9609643D01*
X10102262Y-9628690D02*
X10111786Y-9619167D01*
X10130833Y-9609643D01*
X10159405Y-9609643D01*
X10178452Y-9619167D01*
X10187976Y-9638214D01*
X10187976Y-9742976D01*
X10187976Y-9638214D02*
X10197500Y-9619167D01*
X10216548Y-9609643D01*
X10245119Y-9609643D01*
X10264167Y-9619167D01*
X10273690Y-9638214D01*
X10273690Y-9742976D01*
X10368929Y-9742976D02*
X10368929Y-9609643D01*
X10368929Y-9628690D02*
X10378452Y-9619167D01*
X10397500Y-9609643D01*
X10426071Y-9609643D01*
X10445119Y-9619167D01*
X10454643Y-9638214D01*
X10454643Y-9742976D01*
X10454643Y-9638214D02*
X10464167Y-9619167D01*
X10483214Y-9609643D01*
X10511786Y-9609643D01*
X10530833Y-9619167D01*
X10540357Y-9638214D01*
X10540357Y-9742976D01*
X10930833Y-9533452D02*
X10759405Y-9790595D01*
X11187976Y-9542976D02*
X11207024Y-9542976D01*
X11226071Y-9552500D01*
X11235595Y-9562024D01*
X11245119Y-9581071D01*
X11254643Y-9619167D01*
X11254643Y-9666786D01*
X11245119Y-9704881D01*
X11235595Y-9723929D01*
X11226071Y-9733452D01*
X11207024Y-9742976D01*
X11187976Y-9742976D01*
X11168929Y-9733452D01*
X11159405Y-9723929D01*
X11149881Y-9704881D01*
X11140357Y-9666786D01*
X11140357Y-9619167D01*
X11149881Y-9581071D01*
X11159405Y-9562024D01*
X11168929Y-9552500D01*
X11187976Y-9542976D01*
X11340357Y-9723929D02*
X11349881Y-9733452D01*
X11340357Y-9742976D01*
X11330833Y-9733452D01*
X11340357Y-9723929D01*
X11340357Y-9742976D01*
X11473690Y-9542976D02*
X11492738Y-9542976D01*
X11511786Y-9552500D01*
X11521309Y-9562024D01*
X11530833Y-9581071D01*
X11540357Y-9619167D01*
X11540357Y-9666786D01*
X11530833Y-9704881D01*
X11521309Y-9723929D01*
X11511786Y-9733452D01*
X11492738Y-9742976D01*
X11473690Y-9742976D01*
X11454643Y-9733452D01*
X11445119Y-9723929D01*
X11435595Y-9704881D01*
X11426071Y-9666786D01*
X11426071Y-9619167D01*
X11435595Y-9581071D01*
X11445119Y-9562024D01*
X11454643Y-9552500D01*
X11473690Y-9542976D01*
X11730833Y-9742976D02*
X11616548Y-9742976D01*
X11673690Y-9742976D02*
X11673690Y-9542976D01*
X11654643Y-9571548D01*
X11635595Y-9590595D01*
X11616548Y-9600119D01*
X11911786Y-9542976D02*
X11816548Y-9542976D01*
X11807024Y-9638214D01*
X11816548Y-9628690D01*
X11835595Y-9619167D01*
X11883214Y-9619167D01*
X11902262Y-9628690D01*
X11911786Y-9638214D01*
X11921309Y-9657262D01*
X11921309Y-9704881D01*
X11911786Y-9723929D01*
X11902262Y-9733452D01*
X11883214Y-9742976D01*
X11835595Y-9742976D01*
X11816548Y-9733452D01*
X11807024Y-9723929D01*
X11987976Y-9542976D02*
X12121309Y-9542976D01*
X12035595Y-9742976D01*
X12187976Y-9542976D02*
X12187976Y-9581071D01*
X12264167Y-9542976D02*
X12264167Y-9581071D01*
X12559405Y-9819167D02*
X12549881Y-9809643D01*
X12530833Y-9781071D01*
X12521309Y-9762024D01*
X12511786Y-9733452D01*
X12502262Y-9685833D01*
X12502262Y-9647738D01*
X12511786Y-9600119D01*
X12521309Y-9571548D01*
X12530833Y-9552500D01*
X12549881Y-9523929D01*
X12559405Y-9514405D01*
X12626071Y-9562024D02*
X12635595Y-9552500D01*
X12654643Y-9542976D01*
X12702262Y-9542976D01*
X12721309Y-9552500D01*
X12730833Y-9562024D01*
X12740357Y-9581071D01*
X12740357Y-9600119D01*
X12730833Y-9628690D01*
X12616548Y-9742976D01*
X12740357Y-9742976D01*
X12807024Y-9542976D02*
X12930833Y-9542976D01*
X12864167Y-9619167D01*
X12892738Y-9619167D01*
X12911786Y-9628690D01*
X12921309Y-9638214D01*
X12930833Y-9657262D01*
X12930833Y-9704881D01*
X12921309Y-9723929D01*
X12911786Y-9733452D01*
X12892738Y-9742976D01*
X12835595Y-9742976D01*
X12816548Y-9733452D01*
X12807024Y-9723929D01*
X13168928Y-9742976D02*
X13168928Y-9542976D01*
X13254643Y-9742976D02*
X13254643Y-9638214D01*
X13245119Y-9619167D01*
X13226071Y-9609643D01*
X13197500Y-9609643D01*
X13178452Y-9619167D01*
X13168928Y-9628690D01*
X13378452Y-9742976D02*
X13359405Y-9733452D01*
X13349881Y-9723929D01*
X13340357Y-9704881D01*
X13340357Y-9647738D01*
X13349881Y-9628690D01*
X13359405Y-9619167D01*
X13378452Y-9609643D01*
X13407024Y-9609643D01*
X13426071Y-9619167D01*
X13435595Y-9628690D01*
X13445119Y-9647738D01*
X13445119Y-9704881D01*
X13435595Y-9723929D01*
X13426071Y-9733452D01*
X13407024Y-9742976D01*
X13378452Y-9742976D01*
X13559405Y-9742976D02*
X13540357Y-9733452D01*
X13530833Y-9714405D01*
X13530833Y-9542976D01*
X13711786Y-9733452D02*
X13692738Y-9742976D01*
X13654643Y-9742976D01*
X13635595Y-9733452D01*
X13626071Y-9714405D01*
X13626071Y-9638214D01*
X13635595Y-9619167D01*
X13654643Y-9609643D01*
X13692738Y-9609643D01*
X13711786Y-9619167D01*
X13721309Y-9638214D01*
X13721309Y-9657262D01*
X13626071Y-9676310D01*
X13797500Y-9733452D02*
X13816548Y-9742976D01*
X13854643Y-9742976D01*
X13873690Y-9733452D01*
X13883214Y-9714405D01*
X13883214Y-9704881D01*
X13873690Y-9685833D01*
X13854643Y-9676310D01*
X13826071Y-9676310D01*
X13807024Y-9666786D01*
X13797500Y-9647738D01*
X13797500Y-9638214D01*
X13807024Y-9619167D01*
X13826071Y-9609643D01*
X13854643Y-9609643D01*
X13873690Y-9619167D01*
X13949881Y-9819167D02*
X13959405Y-9809643D01*
X13978452Y-9781071D01*
X13987976Y-9762024D01*
X13997500Y-9733452D01*
X14007024Y-9685833D01*
X14007024Y-9647738D01*
X13997500Y-9600119D01*
X13987976Y-9571548D01*
X13978452Y-9552500D01*
X13959405Y-9523929D01*
X13949881Y-9514405D01*
D13*
X8987500Y-9916500D02*
G75*
G03*
X8987500Y-9916500I-45000J0D01*
G01*
D11*
X9283214Y-9806976D02*
X9302262Y-9806976D01*
X9321310Y-9816500D01*
X9330833Y-9826024D01*
X9340357Y-9845071D01*
X9349881Y-9883167D01*
X9349881Y-9930786D01*
X9340357Y-9968881D01*
X9330833Y-9987929D01*
X9321310Y-9997452D01*
X9302262Y-10006976D01*
X9283214Y-10006976D01*
X9264167Y-9997452D01*
X9254643Y-9987929D01*
X9245119Y-9968881D01*
X9235595Y-9930786D01*
X9235595Y-9883167D01*
X9245119Y-9845071D01*
X9254643Y-9826024D01*
X9264167Y-9816500D01*
X9283214Y-9806976D01*
X9435595Y-9987929D02*
X9445119Y-9997452D01*
X9435595Y-10006976D01*
X9426071Y-9997452D01*
X9435595Y-9987929D01*
X9435595Y-10006976D01*
X9540357Y-10006976D02*
X9578452Y-10006976D01*
X9597500Y-9997452D01*
X9607024Y-9987929D01*
X9626071Y-9959357D01*
X9635595Y-9921262D01*
X9635595Y-9845071D01*
X9626071Y-9826024D01*
X9616548Y-9816500D01*
X9597500Y-9806976D01*
X9559405Y-9806976D01*
X9540357Y-9816500D01*
X9530833Y-9826024D01*
X9521310Y-9845071D01*
X9521310Y-9892690D01*
X9530833Y-9911738D01*
X9540357Y-9921262D01*
X9559405Y-9930786D01*
X9597500Y-9930786D01*
X9616548Y-9921262D01*
X9626071Y-9911738D01*
X9635595Y-9892690D01*
X9759405Y-9806976D02*
X9778452Y-9806976D01*
X9797500Y-9816500D01*
X9807024Y-9826024D01*
X9816548Y-9845071D01*
X9826071Y-9883167D01*
X9826071Y-9930786D01*
X9816548Y-9968881D01*
X9807024Y-9987929D01*
X9797500Y-9997452D01*
X9778452Y-10006976D01*
X9759405Y-10006976D01*
X9740357Y-9997452D01*
X9730833Y-9987929D01*
X9721310Y-9968881D01*
X9711786Y-9930786D01*
X9711786Y-9883167D01*
X9721310Y-9845071D01*
X9730833Y-9826024D01*
X9740357Y-9816500D01*
X9759405Y-9806976D01*
X9949881Y-9806976D02*
X9968929Y-9806976D01*
X9987976Y-9816500D01*
X9997500Y-9826024D01*
X10007024Y-9845071D01*
X10016548Y-9883167D01*
X10016548Y-9930786D01*
X10007024Y-9968881D01*
X9997500Y-9987929D01*
X9987976Y-9997452D01*
X9968929Y-10006976D01*
X9949881Y-10006976D01*
X9930833Y-9997452D01*
X9921310Y-9987929D01*
X9911786Y-9968881D01*
X9902262Y-9930786D01*
X9902262Y-9883167D01*
X9911786Y-9845071D01*
X9921310Y-9826024D01*
X9930833Y-9816500D01*
X9949881Y-9806976D01*
X10102262Y-10006976D02*
X10102262Y-9873643D01*
X10102262Y-9892690D02*
X10111786Y-9883167D01*
X10130833Y-9873643D01*
X10159405Y-9873643D01*
X10178452Y-9883167D01*
X10187976Y-9902214D01*
X10187976Y-10006976D01*
X10187976Y-9902214D02*
X10197500Y-9883167D01*
X10216548Y-9873643D01*
X10245119Y-9873643D01*
X10264167Y-9883167D01*
X10273690Y-9902214D01*
X10273690Y-10006976D01*
X10368929Y-10006976D02*
X10368929Y-9873643D01*
X10368929Y-9892690D02*
X10378452Y-9883167D01*
X10397500Y-9873643D01*
X10426071Y-9873643D01*
X10445119Y-9883167D01*
X10454643Y-9902214D01*
X10454643Y-10006976D01*
X10454643Y-9902214D02*
X10464167Y-9883167D01*
X10483214Y-9873643D01*
X10511786Y-9873643D01*
X10530833Y-9883167D01*
X10540357Y-9902214D01*
X10540357Y-10006976D01*
X10930833Y-9797452D02*
X10759405Y-10054595D01*
X11187976Y-9806976D02*
X11207024Y-9806976D01*
X11226071Y-9816500D01*
X11235595Y-9826024D01*
X11245119Y-9845071D01*
X11254643Y-9883167D01*
X11254643Y-9930786D01*
X11245119Y-9968881D01*
X11235595Y-9987929D01*
X11226071Y-9997452D01*
X11207024Y-10006976D01*
X11187976Y-10006976D01*
X11168929Y-9997452D01*
X11159405Y-9987929D01*
X11149881Y-9968881D01*
X11140357Y-9930786D01*
X11140357Y-9883167D01*
X11149881Y-9845071D01*
X11159405Y-9826024D01*
X11168929Y-9816500D01*
X11187976Y-9806976D01*
X11340357Y-9987929D02*
X11349881Y-9997452D01*
X11340357Y-10006976D01*
X11330833Y-9997452D01*
X11340357Y-9987929D01*
X11340357Y-10006976D01*
X11473690Y-9806976D02*
X11492738Y-9806976D01*
X11511786Y-9816500D01*
X11521309Y-9826024D01*
X11530833Y-9845071D01*
X11540357Y-9883167D01*
X11540357Y-9930786D01*
X11530833Y-9968881D01*
X11521309Y-9987929D01*
X11511786Y-9997452D01*
X11492738Y-10006976D01*
X11473690Y-10006976D01*
X11454643Y-9997452D01*
X11445119Y-9987929D01*
X11435595Y-9968881D01*
X11426071Y-9930786D01*
X11426071Y-9883167D01*
X11435595Y-9845071D01*
X11445119Y-9826024D01*
X11454643Y-9816500D01*
X11473690Y-9806976D01*
X11607024Y-9806976D02*
X11730833Y-9806976D01*
X11664167Y-9883167D01*
X11692738Y-9883167D01*
X11711786Y-9892690D01*
X11721309Y-9902214D01*
X11730833Y-9921262D01*
X11730833Y-9968881D01*
X11721309Y-9987929D01*
X11711786Y-9997452D01*
X11692738Y-10006976D01*
X11635595Y-10006976D01*
X11616548Y-9997452D01*
X11607024Y-9987929D01*
X11911786Y-9806976D02*
X11816548Y-9806976D01*
X11807024Y-9902214D01*
X11816548Y-9892690D01*
X11835595Y-9883167D01*
X11883214Y-9883167D01*
X11902262Y-9892690D01*
X11911786Y-9902214D01*
X11921309Y-9921262D01*
X11921309Y-9968881D01*
X11911786Y-9987929D01*
X11902262Y-9997452D01*
X11883214Y-10006976D01*
X11835595Y-10006976D01*
X11816548Y-9997452D01*
X11807024Y-9987929D01*
X12092738Y-9873643D02*
X12092738Y-10006976D01*
X12045119Y-9797452D02*
X11997500Y-9940310D01*
X12121309Y-9940310D01*
X12187976Y-9806976D02*
X12187976Y-9845071D01*
X12264167Y-9806976D02*
X12264167Y-9845071D01*
X12559405Y-10083167D02*
X12549881Y-10073643D01*
X12530833Y-10045071D01*
X12521309Y-10026024D01*
X12511786Y-9997452D01*
X12502262Y-9949833D01*
X12502262Y-9911738D01*
X12511786Y-9864119D01*
X12521309Y-9835548D01*
X12530833Y-9816500D01*
X12549881Y-9787929D01*
X12559405Y-9778405D01*
X12626071Y-9826024D02*
X12635595Y-9816500D01*
X12654643Y-9806976D01*
X12702262Y-9806976D01*
X12721309Y-9816500D01*
X12730833Y-9826024D01*
X12740357Y-9845071D01*
X12740357Y-9864119D01*
X12730833Y-9892690D01*
X12616548Y-10006976D01*
X12740357Y-10006976D01*
X12978452Y-10006976D02*
X12978452Y-9806976D01*
X13064167Y-10006976D02*
X13064167Y-9902214D01*
X13054643Y-9883167D01*
X13035595Y-9873643D01*
X13007024Y-9873643D01*
X12987976Y-9883167D01*
X12978452Y-9892690D01*
X13187976Y-10006976D02*
X13168928Y-9997452D01*
X13159405Y-9987929D01*
X13149881Y-9968881D01*
X13149881Y-9911738D01*
X13159405Y-9892690D01*
X13168928Y-9883167D01*
X13187976Y-9873643D01*
X13216548Y-9873643D01*
X13235595Y-9883167D01*
X13245119Y-9892690D01*
X13254643Y-9911738D01*
X13254643Y-9968881D01*
X13245119Y-9987929D01*
X13235595Y-9997452D01*
X13216548Y-10006976D01*
X13187976Y-10006976D01*
X13368928Y-10006976D02*
X13349881Y-9997452D01*
X13340357Y-9978405D01*
X13340357Y-9806976D01*
X13521309Y-9997452D02*
X13502262Y-10006976D01*
X13464167Y-10006976D01*
X13445119Y-9997452D01*
X13435595Y-9978405D01*
X13435595Y-9902214D01*
X13445119Y-9883167D01*
X13464167Y-9873643D01*
X13502262Y-9873643D01*
X13521309Y-9883167D01*
X13530833Y-9902214D01*
X13530833Y-9921262D01*
X13435595Y-9940310D01*
X13607024Y-9997452D02*
X13626071Y-10006976D01*
X13664167Y-10006976D01*
X13683214Y-9997452D01*
X13692738Y-9978405D01*
X13692738Y-9968881D01*
X13683214Y-9949833D01*
X13664167Y-9940310D01*
X13635595Y-9940310D01*
X13616548Y-9930786D01*
X13607024Y-9911738D01*
X13607024Y-9902214D01*
X13616548Y-9883167D01*
X13635595Y-9873643D01*
X13664167Y-9873643D01*
X13683214Y-9883167D01*
X13759405Y-10083167D02*
X13768928Y-10073643D01*
X13787976Y-10045071D01*
X13797500Y-10026024D01*
X13807024Y-9997452D01*
X13816548Y-9949833D01*
X13816548Y-9911738D01*
X13807024Y-9864119D01*
X13797500Y-9835548D01*
X13787976Y-9816500D01*
X13768928Y-9787929D01*
X13759405Y-9778405D01*
D10*
X8937500Y-10130500D02*
X8937500Y-10230500D01*
X8887500Y-10180500D02*
X8987500Y-10180500D01*
D11*
X9349881Y-10270976D02*
X9235595Y-10270976D01*
X9292738Y-10270976D02*
X9292738Y-10070976D01*
X9273690Y-10099548D01*
X9254643Y-10118595D01*
X9235595Y-10128119D01*
X9435595Y-10251929D02*
X9445119Y-10261452D01*
X9435595Y-10270976D01*
X9426071Y-10261452D01*
X9435595Y-10251929D01*
X9435595Y-10270976D01*
X9568929Y-10070976D02*
X9587976Y-10070976D01*
X9607024Y-10080500D01*
X9616548Y-10090024D01*
X9626071Y-10109071D01*
X9635595Y-10147167D01*
X9635595Y-10194786D01*
X9626071Y-10232881D01*
X9616548Y-10251929D01*
X9607024Y-10261452D01*
X9587976Y-10270976D01*
X9568929Y-10270976D01*
X9549881Y-10261452D01*
X9540357Y-10251929D01*
X9530833Y-10232881D01*
X9521310Y-10194786D01*
X9521310Y-10147167D01*
X9530833Y-10109071D01*
X9540357Y-10090024D01*
X9549881Y-10080500D01*
X9568929Y-10070976D01*
X9759405Y-10070976D02*
X9778452Y-10070976D01*
X9797500Y-10080500D01*
X9807024Y-10090024D01*
X9816548Y-10109071D01*
X9826071Y-10147167D01*
X9826071Y-10194786D01*
X9816548Y-10232881D01*
X9807024Y-10251929D01*
X9797500Y-10261452D01*
X9778452Y-10270976D01*
X9759405Y-10270976D01*
X9740357Y-10261452D01*
X9730833Y-10251929D01*
X9721310Y-10232881D01*
X9711786Y-10194786D01*
X9711786Y-10147167D01*
X9721310Y-10109071D01*
X9730833Y-10090024D01*
X9740357Y-10080500D01*
X9759405Y-10070976D01*
X9949881Y-10070976D02*
X9968929Y-10070976D01*
X9987976Y-10080500D01*
X9997500Y-10090024D01*
X10007024Y-10109071D01*
X10016548Y-10147167D01*
X10016548Y-10194786D01*
X10007024Y-10232881D01*
X9997500Y-10251929D01*
X9987976Y-10261452D01*
X9968929Y-10270976D01*
X9949881Y-10270976D01*
X9930833Y-10261452D01*
X9921310Y-10251929D01*
X9911786Y-10232881D01*
X9902262Y-10194786D01*
X9902262Y-10147167D01*
X9911786Y-10109071D01*
X9921310Y-10090024D01*
X9930833Y-10080500D01*
X9949881Y-10070976D01*
X10102262Y-10270976D02*
X10102262Y-10137643D01*
X10102262Y-10156690D02*
X10111786Y-10147167D01*
X10130833Y-10137643D01*
X10159405Y-10137643D01*
X10178452Y-10147167D01*
X10187976Y-10166214D01*
X10187976Y-10270976D01*
X10187976Y-10166214D02*
X10197500Y-10147167D01*
X10216548Y-10137643D01*
X10245119Y-10137643D01*
X10264167Y-10147167D01*
X10273690Y-10166214D01*
X10273690Y-10270976D01*
X10368929Y-10270976D02*
X10368929Y-10137643D01*
X10368929Y-10156690D02*
X10378452Y-10147167D01*
X10397500Y-10137643D01*
X10426071Y-10137643D01*
X10445119Y-10147167D01*
X10454643Y-10166214D01*
X10454643Y-10270976D01*
X10454643Y-10166214D02*
X10464167Y-10147167D01*
X10483214Y-10137643D01*
X10511786Y-10137643D01*
X10530833Y-10147167D01*
X10540357Y-10166214D01*
X10540357Y-10270976D01*
X10930833Y-10061452D02*
X10759405Y-10318595D01*
X11187976Y-10070976D02*
X11207024Y-10070976D01*
X11226071Y-10080500D01*
X11235595Y-10090024D01*
X11245119Y-10109071D01*
X11254643Y-10147167D01*
X11254643Y-10194786D01*
X11245119Y-10232881D01*
X11235595Y-10251929D01*
X11226071Y-10261452D01*
X11207024Y-10270976D01*
X11187976Y-10270976D01*
X11168929Y-10261452D01*
X11159405Y-10251929D01*
X11149881Y-10232881D01*
X11140357Y-10194786D01*
X11140357Y-10147167D01*
X11149881Y-10109071D01*
X11159405Y-10090024D01*
X11168929Y-10080500D01*
X11187976Y-10070976D01*
X11340357Y-10251929D02*
X11349881Y-10261452D01*
X11340357Y-10270976D01*
X11330833Y-10261452D01*
X11340357Y-10251929D01*
X11340357Y-10270976D01*
X11473690Y-10070976D02*
X11492738Y-10070976D01*
X11511786Y-10080500D01*
X11521309Y-10090024D01*
X11530833Y-10109071D01*
X11540357Y-10147167D01*
X11540357Y-10194786D01*
X11530833Y-10232881D01*
X11521309Y-10251929D01*
X11511786Y-10261452D01*
X11492738Y-10270976D01*
X11473690Y-10270976D01*
X11454643Y-10261452D01*
X11445119Y-10251929D01*
X11435595Y-10232881D01*
X11426071Y-10194786D01*
X11426071Y-10147167D01*
X11435595Y-10109071D01*
X11445119Y-10090024D01*
X11454643Y-10080500D01*
X11473690Y-10070976D01*
X11607024Y-10070976D02*
X11730833Y-10070976D01*
X11664167Y-10147167D01*
X11692738Y-10147167D01*
X11711786Y-10156690D01*
X11721309Y-10166214D01*
X11730833Y-10185262D01*
X11730833Y-10232881D01*
X11721309Y-10251929D01*
X11711786Y-10261452D01*
X11692738Y-10270976D01*
X11635595Y-10270976D01*
X11616548Y-10261452D01*
X11607024Y-10251929D01*
X11826071Y-10270976D02*
X11864167Y-10270976D01*
X11883214Y-10261452D01*
X11892738Y-10251929D01*
X11911786Y-10223357D01*
X11921309Y-10185262D01*
X11921309Y-10109071D01*
X11911786Y-10090024D01*
X11902262Y-10080500D01*
X11883214Y-10070976D01*
X11845119Y-10070976D01*
X11826071Y-10080500D01*
X11816548Y-10090024D01*
X11807024Y-10109071D01*
X11807024Y-10156690D01*
X11816548Y-10175738D01*
X11826071Y-10185262D01*
X11845119Y-10194786D01*
X11883214Y-10194786D01*
X11902262Y-10185262D01*
X11911786Y-10175738D01*
X11921309Y-10156690D01*
X12092738Y-10137643D02*
X12092738Y-10270976D01*
X12045119Y-10061452D02*
X11997500Y-10204310D01*
X12121309Y-10204310D01*
X12187976Y-10070976D02*
X12187976Y-10109071D01*
X12264167Y-10070976D02*
X12264167Y-10109071D01*
X12559405Y-10347167D02*
X12549881Y-10337643D01*
X12530833Y-10309071D01*
X12521309Y-10290024D01*
X12511786Y-10261452D01*
X12502262Y-10213833D01*
X12502262Y-10175738D01*
X12511786Y-10128119D01*
X12521309Y-10099548D01*
X12530833Y-10080500D01*
X12549881Y-10051929D01*
X12559405Y-10042405D01*
X12616548Y-10070976D02*
X12740357Y-10070976D01*
X12673690Y-10147167D01*
X12702262Y-10147167D01*
X12721309Y-10156690D01*
X12730833Y-10166214D01*
X12740357Y-10185262D01*
X12740357Y-10232881D01*
X12730833Y-10251929D01*
X12721309Y-10261452D01*
X12702262Y-10270976D01*
X12645119Y-10270976D01*
X12626071Y-10261452D01*
X12616548Y-10251929D01*
X12978452Y-10270976D02*
X12978452Y-10070976D01*
X13064167Y-10270976D02*
X13064167Y-10166214D01*
X13054643Y-10147167D01*
X13035595Y-10137643D01*
X13007024Y-10137643D01*
X12987976Y-10147167D01*
X12978452Y-10156690D01*
X13187976Y-10270976D02*
X13168928Y-10261452D01*
X13159405Y-10251929D01*
X13149881Y-10232881D01*
X13149881Y-10175738D01*
X13159405Y-10156690D01*
X13168928Y-10147167D01*
X13187976Y-10137643D01*
X13216548Y-10137643D01*
X13235595Y-10147167D01*
X13245119Y-10156690D01*
X13254643Y-10175738D01*
X13254643Y-10232881D01*
X13245119Y-10251929D01*
X13235595Y-10261452D01*
X13216548Y-10270976D01*
X13187976Y-10270976D01*
X13368928Y-10270976D02*
X13349881Y-10261452D01*
X13340357Y-10242405D01*
X13340357Y-10070976D01*
X13521309Y-10261452D02*
X13502262Y-10270976D01*
X13464167Y-10270976D01*
X13445119Y-10261452D01*
X13435595Y-10242405D01*
X13435595Y-10166214D01*
X13445119Y-10147167D01*
X13464167Y-10137643D01*
X13502262Y-10137643D01*
X13521309Y-10147167D01*
X13530833Y-10166214D01*
X13530833Y-10185262D01*
X13435595Y-10204310D01*
X13607024Y-10261452D02*
X13626071Y-10270976D01*
X13664167Y-10270976D01*
X13683214Y-10261452D01*
X13692738Y-10242405D01*
X13692738Y-10232881D01*
X13683214Y-10213833D01*
X13664167Y-10204310D01*
X13635595Y-10204310D01*
X13616548Y-10194786D01*
X13607024Y-10175738D01*
X13607024Y-10166214D01*
X13616548Y-10147167D01*
X13635595Y-10137643D01*
X13664167Y-10137643D01*
X13683214Y-10147167D01*
X13759405Y-10347167D02*
X13768928Y-10337643D01*
X13787976Y-10309071D01*
X13797500Y-10290024D01*
X13807024Y-10261452D01*
X13816548Y-10213833D01*
X13816548Y-10175738D01*
X13807024Y-10128119D01*
X13797500Y-10099548D01*
X13787976Y-10080500D01*
X13768928Y-10051929D01*
X13759405Y-10042405D01*
D14*
X8972563Y-10480563D02*
X8972563Y-10408437D01*
X8900437Y-10408437D01*
X8900437Y-10480563D01*
X8972563Y-10480563D01*
D11*
X9349881Y-10534976D02*
X9235595Y-10534976D01*
X9292738Y-10534976D02*
X9292738Y-10334976D01*
X9273690Y-10363548D01*
X9254643Y-10382595D01*
X9235595Y-10392119D01*
X9435595Y-10515929D02*
X9445119Y-10525452D01*
X9435595Y-10534976D01*
X9426071Y-10525452D01*
X9435595Y-10515929D01*
X9435595Y-10534976D01*
X9568929Y-10334976D02*
X9587976Y-10334976D01*
X9607024Y-10344500D01*
X9616548Y-10354024D01*
X9626071Y-10373071D01*
X9635595Y-10411167D01*
X9635595Y-10458786D01*
X9626071Y-10496881D01*
X9616548Y-10515929D01*
X9607024Y-10525452D01*
X9587976Y-10534976D01*
X9568929Y-10534976D01*
X9549881Y-10525452D01*
X9540357Y-10515929D01*
X9530833Y-10496881D01*
X9521310Y-10458786D01*
X9521310Y-10411167D01*
X9530833Y-10373071D01*
X9540357Y-10354024D01*
X9549881Y-10344500D01*
X9568929Y-10334976D01*
X9711786Y-10354024D02*
X9721310Y-10344500D01*
X9740357Y-10334976D01*
X9787976Y-10334976D01*
X9807024Y-10344500D01*
X9816548Y-10354024D01*
X9826071Y-10373071D01*
X9826071Y-10392119D01*
X9816548Y-10420690D01*
X9702262Y-10534976D01*
X9826071Y-10534976D01*
X9949881Y-10334976D02*
X9968929Y-10334976D01*
X9987976Y-10344500D01*
X9997500Y-10354024D01*
X10007024Y-10373071D01*
X10016548Y-10411167D01*
X10016548Y-10458786D01*
X10007024Y-10496881D01*
X9997500Y-10515929D01*
X9987976Y-10525452D01*
X9968929Y-10534976D01*
X9949881Y-10534976D01*
X9930833Y-10525452D01*
X9921310Y-10515929D01*
X9911786Y-10496881D01*
X9902262Y-10458786D01*
X9902262Y-10411167D01*
X9911786Y-10373071D01*
X9921310Y-10354024D01*
X9930833Y-10344500D01*
X9949881Y-10334976D01*
X10102262Y-10534976D02*
X10102262Y-10401643D01*
X10102262Y-10420690D02*
X10111786Y-10411167D01*
X10130833Y-10401643D01*
X10159405Y-10401643D01*
X10178452Y-10411167D01*
X10187976Y-10430214D01*
X10187976Y-10534976D01*
X10187976Y-10430214D02*
X10197500Y-10411167D01*
X10216548Y-10401643D01*
X10245119Y-10401643D01*
X10264167Y-10411167D01*
X10273690Y-10430214D01*
X10273690Y-10534976D01*
X10368929Y-10534976D02*
X10368929Y-10401643D01*
X10368929Y-10420690D02*
X10378452Y-10411167D01*
X10397500Y-10401643D01*
X10426071Y-10401643D01*
X10445119Y-10411167D01*
X10454643Y-10430214D01*
X10454643Y-10534976D01*
X10454643Y-10430214D02*
X10464167Y-10411167D01*
X10483214Y-10401643D01*
X10511786Y-10401643D01*
X10530833Y-10411167D01*
X10540357Y-10430214D01*
X10540357Y-10534976D01*
X10930833Y-10325452D02*
X10759405Y-10582595D01*
X11187976Y-10334976D02*
X11207024Y-10334976D01*
X11226071Y-10344500D01*
X11235595Y-10354024D01*
X11245119Y-10373071D01*
X11254643Y-10411167D01*
X11254643Y-10458786D01*
X11245119Y-10496881D01*
X11235595Y-10515929D01*
X11226071Y-10525452D01*
X11207024Y-10534976D01*
X11187976Y-10534976D01*
X11168929Y-10525452D01*
X11159405Y-10515929D01*
X11149881Y-10496881D01*
X11140357Y-10458786D01*
X11140357Y-10411167D01*
X11149881Y-10373071D01*
X11159405Y-10354024D01*
X11168929Y-10344500D01*
X11187976Y-10334976D01*
X11340357Y-10515929D02*
X11349881Y-10525452D01*
X11340357Y-10534976D01*
X11330833Y-10525452D01*
X11340357Y-10515929D01*
X11340357Y-10534976D01*
X11473690Y-10334976D02*
X11492738Y-10334976D01*
X11511786Y-10344500D01*
X11521309Y-10354024D01*
X11530833Y-10373071D01*
X11540357Y-10411167D01*
X11540357Y-10458786D01*
X11530833Y-10496881D01*
X11521309Y-10515929D01*
X11511786Y-10525452D01*
X11492738Y-10534976D01*
X11473690Y-10534976D01*
X11454643Y-10525452D01*
X11445119Y-10515929D01*
X11435595Y-10496881D01*
X11426071Y-10458786D01*
X11426071Y-10411167D01*
X11435595Y-10373071D01*
X11445119Y-10354024D01*
X11454643Y-10344500D01*
X11473690Y-10334976D01*
X11711786Y-10401643D02*
X11711786Y-10534976D01*
X11664167Y-10325452D02*
X11616548Y-10468310D01*
X11740357Y-10468310D01*
X11854643Y-10334976D02*
X11873690Y-10334976D01*
X11892738Y-10344500D01*
X11902262Y-10354024D01*
X11911786Y-10373071D01*
X11921309Y-10411167D01*
X11921309Y-10458786D01*
X11911786Y-10496881D01*
X11902262Y-10515929D01*
X11892738Y-10525452D01*
X11873690Y-10534976D01*
X11854643Y-10534976D01*
X11835595Y-10525452D01*
X11826071Y-10515929D01*
X11816548Y-10496881D01*
X11807024Y-10458786D01*
X11807024Y-10411167D01*
X11816548Y-10373071D01*
X11826071Y-10354024D01*
X11835595Y-10344500D01*
X11854643Y-10334976D01*
X11997500Y-10354024D02*
X12007024Y-10344500D01*
X12026071Y-10334976D01*
X12073690Y-10334976D01*
X12092738Y-10344500D01*
X12102262Y-10354024D01*
X12111786Y-10373071D01*
X12111786Y-10392119D01*
X12102262Y-10420690D01*
X11987976Y-10534976D01*
X12111786Y-10534976D01*
X12187976Y-10334976D02*
X12187976Y-10373071D01*
X12264167Y-10334976D02*
X12264167Y-10373071D01*
X12559405Y-10611167D02*
X12549881Y-10601643D01*
X12530833Y-10573071D01*
X12521309Y-10554024D01*
X12511786Y-10525452D01*
X12502262Y-10477833D01*
X12502262Y-10439738D01*
X12511786Y-10392119D01*
X12521309Y-10363548D01*
X12530833Y-10344500D01*
X12549881Y-10315929D01*
X12559405Y-10306405D01*
X12626071Y-10354024D02*
X12635595Y-10344500D01*
X12654643Y-10334976D01*
X12702262Y-10334976D01*
X12721309Y-10344500D01*
X12730833Y-10354024D01*
X12740357Y-10373071D01*
X12740357Y-10392119D01*
X12730833Y-10420690D01*
X12616548Y-10534976D01*
X12740357Y-10534976D01*
X12911786Y-10334976D02*
X12873690Y-10334976D01*
X12854643Y-10344500D01*
X12845119Y-10354024D01*
X12826071Y-10382595D01*
X12816548Y-10420690D01*
X12816548Y-10496881D01*
X12826071Y-10515929D01*
X12835595Y-10525452D01*
X12854643Y-10534976D01*
X12892738Y-10534976D01*
X12911786Y-10525452D01*
X12921309Y-10515929D01*
X12930833Y-10496881D01*
X12930833Y-10449262D01*
X12921309Y-10430214D01*
X12911786Y-10420690D01*
X12892738Y-10411167D01*
X12854643Y-10411167D01*
X12835595Y-10420690D01*
X12826071Y-10430214D01*
X12816548Y-10449262D01*
X13168928Y-10534976D02*
X13168928Y-10334976D01*
X13254643Y-10534976D02*
X13254643Y-10430214D01*
X13245119Y-10411167D01*
X13226071Y-10401643D01*
X13197500Y-10401643D01*
X13178452Y-10411167D01*
X13168928Y-10420690D01*
X13378452Y-10534976D02*
X13359405Y-10525452D01*
X13349881Y-10515929D01*
X13340357Y-10496881D01*
X13340357Y-10439738D01*
X13349881Y-10420690D01*
X13359405Y-10411167D01*
X13378452Y-10401643D01*
X13407024Y-10401643D01*
X13426071Y-10411167D01*
X13435595Y-10420690D01*
X13445119Y-10439738D01*
X13445119Y-10496881D01*
X13435595Y-10515929D01*
X13426071Y-10525452D01*
X13407024Y-10534976D01*
X13378452Y-10534976D01*
X13559405Y-10534976D02*
X13540357Y-10525452D01*
X13530833Y-10506405D01*
X13530833Y-10334976D01*
X13711786Y-10525452D02*
X13692738Y-10534976D01*
X13654643Y-10534976D01*
X13635595Y-10525452D01*
X13626071Y-10506405D01*
X13626071Y-10430214D01*
X13635595Y-10411167D01*
X13654643Y-10401643D01*
X13692738Y-10401643D01*
X13711786Y-10411167D01*
X13721309Y-10430214D01*
X13721309Y-10449262D01*
X13626071Y-10468310D01*
X13797500Y-10525452D02*
X13816548Y-10534976D01*
X13854643Y-10534976D01*
X13873690Y-10525452D01*
X13883214Y-10506405D01*
X13883214Y-10496881D01*
X13873690Y-10477833D01*
X13854643Y-10468310D01*
X13826071Y-10468310D01*
X13807024Y-10458786D01*
X13797500Y-10439738D01*
X13797500Y-10430214D01*
X13807024Y-10411167D01*
X13826071Y-10401643D01*
X13854643Y-10401643D01*
X13873690Y-10411167D01*
X13949881Y-10611167D02*
X13959405Y-10601643D01*
X13978452Y-10573071D01*
X13987976Y-10554024D01*
X13997500Y-10525452D01*
X14007024Y-10477833D01*
X14007024Y-10439738D01*
X13997500Y-10392119D01*
X13987976Y-10363548D01*
X13978452Y-10344500D01*
X13959405Y-10315929D01*
X13949881Y-10306405D01*
D15*
X8922500Y-10773500D02*
X8987500Y-10708500D01*
X8922500Y-10643500D01*
X8857500Y-10708500D01*
X8922500Y-10773500D01*
D11*
X9349881Y-10798976D02*
X9235595Y-10798976D01*
X9292738Y-10798976D02*
X9292738Y-10598976D01*
X9273690Y-10627548D01*
X9254643Y-10646595D01*
X9235595Y-10656119D01*
X9435595Y-10779929D02*
X9445119Y-10789452D01*
X9435595Y-10798976D01*
X9426071Y-10789452D01*
X9435595Y-10779929D01*
X9435595Y-10798976D01*
X9511786Y-10598976D02*
X9635595Y-10598976D01*
X9568929Y-10675167D01*
X9597500Y-10675167D01*
X9616548Y-10684690D01*
X9626071Y-10694214D01*
X9635595Y-10713262D01*
X9635595Y-10760881D01*
X9626071Y-10779929D01*
X9616548Y-10789452D01*
X9597500Y-10798976D01*
X9540357Y-10798976D01*
X9521310Y-10789452D01*
X9511786Y-10779929D01*
X9759405Y-10598976D02*
X9778452Y-10598976D01*
X9797500Y-10608500D01*
X9807024Y-10618024D01*
X9816548Y-10637071D01*
X9826071Y-10675167D01*
X9826071Y-10722786D01*
X9816548Y-10760881D01*
X9807024Y-10779929D01*
X9797500Y-10789452D01*
X9778452Y-10798976D01*
X9759405Y-10798976D01*
X9740357Y-10789452D01*
X9730833Y-10779929D01*
X9721310Y-10760881D01*
X9711786Y-10722786D01*
X9711786Y-10675167D01*
X9721310Y-10637071D01*
X9730833Y-10618024D01*
X9740357Y-10608500D01*
X9759405Y-10598976D01*
X9949881Y-10598976D02*
X9968929Y-10598976D01*
X9987976Y-10608500D01*
X9997500Y-10618024D01*
X10007024Y-10637071D01*
X10016548Y-10675167D01*
X10016548Y-10722786D01*
X10007024Y-10760881D01*
X9997500Y-10779929D01*
X9987976Y-10789452D01*
X9968929Y-10798976D01*
X9949881Y-10798976D01*
X9930833Y-10789452D01*
X9921310Y-10779929D01*
X9911786Y-10760881D01*
X9902262Y-10722786D01*
X9902262Y-10675167D01*
X9911786Y-10637071D01*
X9921310Y-10618024D01*
X9930833Y-10608500D01*
X9949881Y-10598976D01*
X10102262Y-10798976D02*
X10102262Y-10665643D01*
X10102262Y-10684690D02*
X10111786Y-10675167D01*
X10130833Y-10665643D01*
X10159405Y-10665643D01*
X10178452Y-10675167D01*
X10187976Y-10694214D01*
X10187976Y-10798976D01*
X10187976Y-10694214D02*
X10197500Y-10675167D01*
X10216548Y-10665643D01*
X10245119Y-10665643D01*
X10264167Y-10675167D01*
X10273690Y-10694214D01*
X10273690Y-10798976D01*
X10368929Y-10798976D02*
X10368929Y-10665643D01*
X10368929Y-10684690D02*
X10378452Y-10675167D01*
X10397500Y-10665643D01*
X10426071Y-10665643D01*
X10445119Y-10675167D01*
X10454643Y-10694214D01*
X10454643Y-10798976D01*
X10454643Y-10694214D02*
X10464167Y-10675167D01*
X10483214Y-10665643D01*
X10511786Y-10665643D01*
X10530833Y-10675167D01*
X10540357Y-10694214D01*
X10540357Y-10798976D01*
X10930833Y-10589452D02*
X10759405Y-10846595D01*
X11187976Y-10598976D02*
X11207024Y-10598976D01*
X11226071Y-10608500D01*
X11235595Y-10618024D01*
X11245119Y-10637071D01*
X11254643Y-10675167D01*
X11254643Y-10722786D01*
X11245119Y-10760881D01*
X11235595Y-10779929D01*
X11226071Y-10789452D01*
X11207024Y-10798976D01*
X11187976Y-10798976D01*
X11168929Y-10789452D01*
X11159405Y-10779929D01*
X11149881Y-10760881D01*
X11140357Y-10722786D01*
X11140357Y-10675167D01*
X11149881Y-10637071D01*
X11159405Y-10618024D01*
X11168929Y-10608500D01*
X11187976Y-10598976D01*
X11340357Y-10779929D02*
X11349881Y-10789452D01*
X11340357Y-10798976D01*
X11330833Y-10789452D01*
X11340357Y-10779929D01*
X11340357Y-10798976D01*
X11473690Y-10598976D02*
X11492738Y-10598976D01*
X11511786Y-10608500D01*
X11521309Y-10618024D01*
X11530833Y-10637071D01*
X11540357Y-10675167D01*
X11540357Y-10722786D01*
X11530833Y-10760881D01*
X11521309Y-10779929D01*
X11511786Y-10789452D01*
X11492738Y-10798976D01*
X11473690Y-10798976D01*
X11454643Y-10789452D01*
X11445119Y-10779929D01*
X11435595Y-10760881D01*
X11426071Y-10722786D01*
X11426071Y-10675167D01*
X11435595Y-10637071D01*
X11445119Y-10618024D01*
X11454643Y-10608500D01*
X11473690Y-10598976D01*
X11721309Y-10598976D02*
X11626071Y-10598976D01*
X11616548Y-10694214D01*
X11626071Y-10684690D01*
X11645119Y-10675167D01*
X11692738Y-10675167D01*
X11711786Y-10684690D01*
X11721309Y-10694214D01*
X11730833Y-10713262D01*
X11730833Y-10760881D01*
X11721309Y-10779929D01*
X11711786Y-10789452D01*
X11692738Y-10798976D01*
X11645119Y-10798976D01*
X11626071Y-10789452D01*
X11616548Y-10779929D01*
X11921309Y-10798976D02*
X11807024Y-10798976D01*
X11864167Y-10798976D02*
X11864167Y-10598976D01*
X11845119Y-10627548D01*
X11826071Y-10646595D01*
X11807024Y-10656119D01*
X11997500Y-10618024D02*
X12007024Y-10608500D01*
X12026071Y-10598976D01*
X12073690Y-10598976D01*
X12092738Y-10608500D01*
X12102262Y-10618024D01*
X12111786Y-10637071D01*
X12111786Y-10656119D01*
X12102262Y-10684690D01*
X11987976Y-10798976D01*
X12111786Y-10798976D01*
X12187976Y-10598976D02*
X12187976Y-10637071D01*
X12264167Y-10598976D02*
X12264167Y-10637071D01*
X12559405Y-10875167D02*
X12549881Y-10865643D01*
X12530833Y-10837071D01*
X12521309Y-10818024D01*
X12511786Y-10789452D01*
X12502262Y-10741833D01*
X12502262Y-10703738D01*
X12511786Y-10656119D01*
X12521309Y-10627548D01*
X12530833Y-10608500D01*
X12549881Y-10579929D01*
X12559405Y-10570405D01*
X12721309Y-10665643D02*
X12721309Y-10798976D01*
X12673690Y-10589452D02*
X12626071Y-10732310D01*
X12749881Y-10732310D01*
X12978452Y-10798976D02*
X12978452Y-10598976D01*
X13064167Y-10798976D02*
X13064167Y-10694214D01*
X13054643Y-10675167D01*
X13035595Y-10665643D01*
X13007024Y-10665643D01*
X12987976Y-10675167D01*
X12978452Y-10684690D01*
X13187976Y-10798976D02*
X13168928Y-10789452D01*
X13159405Y-10779929D01*
X13149881Y-10760881D01*
X13149881Y-10703738D01*
X13159405Y-10684690D01*
X13168928Y-10675167D01*
X13187976Y-10665643D01*
X13216548Y-10665643D01*
X13235595Y-10675167D01*
X13245119Y-10684690D01*
X13254643Y-10703738D01*
X13254643Y-10760881D01*
X13245119Y-10779929D01*
X13235595Y-10789452D01*
X13216548Y-10798976D01*
X13187976Y-10798976D01*
X13368928Y-10798976D02*
X13349881Y-10789452D01*
X13340357Y-10770405D01*
X13340357Y-10598976D01*
X13521309Y-10789452D02*
X13502262Y-10798976D01*
X13464167Y-10798976D01*
X13445119Y-10789452D01*
X13435595Y-10770405D01*
X13435595Y-10694214D01*
X13445119Y-10675167D01*
X13464167Y-10665643D01*
X13502262Y-10665643D01*
X13521309Y-10675167D01*
X13530833Y-10694214D01*
X13530833Y-10713262D01*
X13435595Y-10732310D01*
X13607024Y-10789452D02*
X13626071Y-10798976D01*
X13664167Y-10798976D01*
X13683214Y-10789452D01*
X13692738Y-10770405D01*
X13692738Y-10760881D01*
X13683214Y-10741833D01*
X13664167Y-10732310D01*
X13635595Y-10732310D01*
X13616548Y-10722786D01*
X13607024Y-10703738D01*
X13607024Y-10694214D01*
X13616548Y-10675167D01*
X13635595Y-10665643D01*
X13664167Y-10665643D01*
X13683214Y-10675167D01*
X13759405Y-10875167D02*
X13768928Y-10865643D01*
X13787976Y-10837071D01*
X13797500Y-10818024D01*
X13807024Y-10789452D01*
X13816548Y-10741833D01*
X13816548Y-10703738D01*
X13807024Y-10656119D01*
X13797500Y-10627548D01*
X13787976Y-10608500D01*
X13768928Y-10579929D01*
X13759405Y-10570405D01*
X8787500Y-10872500D02*
X8987500Y-11072500D01*
X8987500Y-10872500D02*
X8787500Y-11072500D01*
X8987500Y-10972500D02*
G75*
G03*
X8987500Y-10972500I-100000J0D01*
G01*
X9226071Y-10862976D02*
X9349881Y-10862976D01*
X9283214Y-10939167D01*
X9311786Y-10939167D01*
X9330833Y-10948690D01*
X9340357Y-10958214D01*
X9349881Y-10977262D01*
X9349881Y-11024881D01*
X9340357Y-11043929D01*
X9330833Y-11053452D01*
X9311786Y-11062976D01*
X9254643Y-11062976D01*
X9235595Y-11053452D01*
X9226071Y-11043929D01*
X9435595Y-11043929D02*
X9445119Y-11053452D01*
X9435595Y-11062976D01*
X9426071Y-11053452D01*
X9435595Y-11043929D01*
X9435595Y-11062976D01*
X9521310Y-10882024D02*
X9530833Y-10872500D01*
X9549881Y-10862976D01*
X9597500Y-10862976D01*
X9616548Y-10872500D01*
X9626071Y-10882024D01*
X9635595Y-10901071D01*
X9635595Y-10920119D01*
X9626071Y-10948690D01*
X9511786Y-11062976D01*
X9635595Y-11062976D01*
X9759405Y-10862976D02*
X9778452Y-10862976D01*
X9797500Y-10872500D01*
X9807024Y-10882024D01*
X9816548Y-10901071D01*
X9826071Y-10939167D01*
X9826071Y-10986786D01*
X9816548Y-11024881D01*
X9807024Y-11043929D01*
X9797500Y-11053452D01*
X9778452Y-11062976D01*
X9759405Y-11062976D01*
X9740357Y-11053452D01*
X9730833Y-11043929D01*
X9721310Y-11024881D01*
X9711786Y-10986786D01*
X9711786Y-10939167D01*
X9721310Y-10901071D01*
X9730833Y-10882024D01*
X9740357Y-10872500D01*
X9759405Y-10862976D01*
X9949881Y-10862976D02*
X9968929Y-10862976D01*
X9987976Y-10872500D01*
X9997500Y-10882024D01*
X10007024Y-10901071D01*
X10016548Y-10939167D01*
X10016548Y-10986786D01*
X10007024Y-11024881D01*
X9997500Y-11043929D01*
X9987976Y-11053452D01*
X9968929Y-11062976D01*
X9949881Y-11062976D01*
X9930833Y-11053452D01*
X9921310Y-11043929D01*
X9911786Y-11024881D01*
X9902262Y-10986786D01*
X9902262Y-10939167D01*
X9911786Y-10901071D01*
X9921310Y-10882024D01*
X9930833Y-10872500D01*
X9949881Y-10862976D01*
X10102262Y-11062976D02*
X10102262Y-10929643D01*
X10102262Y-10948690D02*
X10111786Y-10939167D01*
X10130833Y-10929643D01*
X10159405Y-10929643D01*
X10178452Y-10939167D01*
X10187976Y-10958214D01*
X10187976Y-11062976D01*
X10187976Y-10958214D02*
X10197500Y-10939167D01*
X10216548Y-10929643D01*
X10245119Y-10929643D01*
X10264167Y-10939167D01*
X10273690Y-10958214D01*
X10273690Y-11062976D01*
X10368929Y-11062976D02*
X10368929Y-10929643D01*
X10368929Y-10948690D02*
X10378452Y-10939167D01*
X10397500Y-10929643D01*
X10426071Y-10929643D01*
X10445119Y-10939167D01*
X10454643Y-10958214D01*
X10454643Y-11062976D01*
X10454643Y-10958214D02*
X10464167Y-10939167D01*
X10483214Y-10929643D01*
X10511786Y-10929643D01*
X10530833Y-10939167D01*
X10540357Y-10958214D01*
X10540357Y-11062976D01*
X10930833Y-10853452D02*
X10759405Y-11110595D01*
X11187976Y-10862976D02*
X11207024Y-10862976D01*
X11226071Y-10872500D01*
X11235595Y-10882024D01*
X11245119Y-10901071D01*
X11254643Y-10939167D01*
X11254643Y-10986786D01*
X11245119Y-11024881D01*
X11235595Y-11043929D01*
X11226071Y-11053452D01*
X11207024Y-11062976D01*
X11187976Y-11062976D01*
X11168929Y-11053452D01*
X11159405Y-11043929D01*
X11149881Y-11024881D01*
X11140357Y-10986786D01*
X11140357Y-10939167D01*
X11149881Y-10901071D01*
X11159405Y-10882024D01*
X11168929Y-10872500D01*
X11187976Y-10862976D01*
X11340357Y-11043929D02*
X11349881Y-11053452D01*
X11340357Y-11062976D01*
X11330833Y-11053452D01*
X11340357Y-11043929D01*
X11340357Y-11062976D01*
X11540357Y-11062976D02*
X11426071Y-11062976D01*
X11483214Y-11062976D02*
X11483214Y-10862976D01*
X11464167Y-10891548D01*
X11445119Y-10910595D01*
X11426071Y-10920119D01*
X11616548Y-10882024D02*
X11626071Y-10872500D01*
X11645119Y-10862976D01*
X11692738Y-10862976D01*
X11711786Y-10872500D01*
X11721309Y-10882024D01*
X11730833Y-10901071D01*
X11730833Y-10920119D01*
X11721309Y-10948690D01*
X11607024Y-11062976D01*
X11730833Y-11062976D01*
X11902262Y-10862976D02*
X11864167Y-10862976D01*
X11845119Y-10872500D01*
X11835595Y-10882024D01*
X11816548Y-10910595D01*
X11807024Y-10948690D01*
X11807024Y-11024881D01*
X11816548Y-11043929D01*
X11826071Y-11053452D01*
X11845119Y-11062976D01*
X11883214Y-11062976D01*
X11902262Y-11053452D01*
X11911786Y-11043929D01*
X11921309Y-11024881D01*
X11921309Y-10977262D01*
X11911786Y-10958214D01*
X11902262Y-10948690D01*
X11883214Y-10939167D01*
X11845119Y-10939167D01*
X11826071Y-10948690D01*
X11816548Y-10958214D01*
X11807024Y-10977262D01*
X12045119Y-10862976D02*
X12064167Y-10862976D01*
X12083214Y-10872500D01*
X12092738Y-10882024D01*
X12102262Y-10901071D01*
X12111786Y-10939167D01*
X12111786Y-10986786D01*
X12102262Y-11024881D01*
X12092738Y-11043929D01*
X12083214Y-11053452D01*
X12064167Y-11062976D01*
X12045119Y-11062976D01*
X12026071Y-11053452D01*
X12016548Y-11043929D01*
X12007024Y-11024881D01*
X11997500Y-10986786D01*
X11997500Y-10939167D01*
X12007024Y-10901071D01*
X12016548Y-10882024D01*
X12026071Y-10872500D01*
X12045119Y-10862976D01*
X12187976Y-10862976D02*
X12187976Y-10901071D01*
X12264167Y-10862976D02*
X12264167Y-10901071D01*
X12559405Y-11139167D02*
X12549881Y-11129643D01*
X12530833Y-11101071D01*
X12521309Y-11082024D01*
X12511786Y-11053452D01*
X12502262Y-11005833D01*
X12502262Y-10967738D01*
X12511786Y-10920119D01*
X12521309Y-10891548D01*
X12530833Y-10872500D01*
X12549881Y-10843929D01*
X12559405Y-10834405D01*
X12721309Y-10929643D02*
X12721309Y-11062976D01*
X12673690Y-10853452D02*
X12626071Y-10996310D01*
X12749881Y-10996310D01*
X12978452Y-11062976D02*
X12978452Y-10862976D01*
X13064167Y-11062976D02*
X13064167Y-10958214D01*
X13054643Y-10939167D01*
X13035595Y-10929643D01*
X13007024Y-10929643D01*
X12987976Y-10939167D01*
X12978452Y-10948690D01*
X13187976Y-11062976D02*
X13168928Y-11053452D01*
X13159405Y-11043929D01*
X13149881Y-11024881D01*
X13149881Y-10967738D01*
X13159405Y-10948690D01*
X13168928Y-10939167D01*
X13187976Y-10929643D01*
X13216548Y-10929643D01*
X13235595Y-10939167D01*
X13245119Y-10948690D01*
X13254643Y-10967738D01*
X13254643Y-11024881D01*
X13245119Y-11043929D01*
X13235595Y-11053452D01*
X13216548Y-11062976D01*
X13187976Y-11062976D01*
X13368928Y-11062976D02*
X13349881Y-11053452D01*
X13340357Y-11034405D01*
X13340357Y-10862976D01*
X13521309Y-11053452D02*
X13502262Y-11062976D01*
X13464167Y-11062976D01*
X13445119Y-11053452D01*
X13435595Y-11034405D01*
X13435595Y-10958214D01*
X13445119Y-10939167D01*
X13464167Y-10929643D01*
X13502262Y-10929643D01*
X13521309Y-10939167D01*
X13530833Y-10958214D01*
X13530833Y-10977262D01*
X13435595Y-10996310D01*
X13607024Y-11053452D02*
X13626071Y-11062976D01*
X13664167Y-11062976D01*
X13683214Y-11053452D01*
X13692738Y-11034405D01*
X13692738Y-11024881D01*
X13683214Y-11005833D01*
X13664167Y-10996310D01*
X13635595Y-10996310D01*
X13616548Y-10986786D01*
X13607024Y-10967738D01*
X13607024Y-10958214D01*
X13616548Y-10939167D01*
X13635595Y-10929643D01*
X13664167Y-10929643D01*
X13683214Y-10939167D01*
X13759405Y-11139167D02*
X13768928Y-11129643D01*
X13787976Y-11101071D01*
X13797500Y-11082024D01*
X13807024Y-11053452D01*
X13816548Y-11005833D01*
X13816548Y-10967738D01*
X13807024Y-10920119D01*
X13797500Y-10891548D01*
X13787976Y-10872500D01*
X13768928Y-10843929D01*
X13759405Y-10834405D01*
M02*
