%TF.GenerationSoftware,KiCad,Pcbnew,(6.0.9)*%
%TF.CreationDate,2022-11-23T22:08:25-07:00*%
%TF.ProjectId,AQM,41514d2e-6b69-4636-9164-5f7063625858,rev?*%
%TF.SameCoordinates,Original*%
%TF.FileFunction,Legend,Top*%
%TF.FilePolarity,Positive*%
%FSLAX46Y46*%
G04 Gerber Fmt 4.6, Leading zero omitted, Abs format (unit mm)*
G04 Created by KiCad (PCBNEW (6.0.9)) date 2022-11-23 22:08:25*
%MOMM*%
%LPD*%
G01*
G04 APERTURE LIST*
%ADD10C,0.150000*%
%ADD11C,0.120000*%
G04 APERTURE END LIST*
D10*
%TO.C,C17*%
X123832142Y-117582142D02*
X123784523Y-117629761D01*
X123641666Y-117677380D01*
X123546428Y-117677380D01*
X123403571Y-117629761D01*
X123308333Y-117534523D01*
X123260714Y-117439285D01*
X123213095Y-117248809D01*
X123213095Y-117105952D01*
X123260714Y-116915476D01*
X123308333Y-116820238D01*
X123403571Y-116725000D01*
X123546428Y-116677380D01*
X123641666Y-116677380D01*
X123784523Y-116725000D01*
X123832142Y-116772619D01*
X124784523Y-117677380D02*
X124213095Y-117677380D01*
X124498809Y-117677380D02*
X124498809Y-116677380D01*
X124403571Y-116820238D01*
X124308333Y-116915476D01*
X124213095Y-116963095D01*
X125117857Y-116677380D02*
X125784523Y-116677380D01*
X125355952Y-117677380D01*
%TO.C,C7*%
X161446933Y-126219742D02*
X161399314Y-126267361D01*
X161256457Y-126314980D01*
X161161219Y-126314980D01*
X161018361Y-126267361D01*
X160923123Y-126172123D01*
X160875504Y-126076885D01*
X160827885Y-125886409D01*
X160827885Y-125743552D01*
X160875504Y-125553076D01*
X160923123Y-125457838D01*
X161018361Y-125362600D01*
X161161219Y-125314980D01*
X161256457Y-125314980D01*
X161399314Y-125362600D01*
X161446933Y-125410219D01*
X161780266Y-125314980D02*
X162446933Y-125314980D01*
X162018361Y-126314980D01*
%TO.C,H3*%
X167913095Y-128877380D02*
X167913095Y-127877380D01*
X167913095Y-128353571D02*
X168484523Y-128353571D01*
X168484523Y-128877380D02*
X168484523Y-127877380D01*
X168865476Y-127877380D02*
X169484523Y-127877380D01*
X169151190Y-128258333D01*
X169294047Y-128258333D01*
X169389285Y-128305952D01*
X169436904Y-128353571D01*
X169484523Y-128448809D01*
X169484523Y-128686904D01*
X169436904Y-128782142D01*
X169389285Y-128829761D01*
X169294047Y-128877380D01*
X169008333Y-128877380D01*
X168913095Y-128829761D01*
X168865476Y-128782142D01*
%TO.C,C1*%
X156358333Y-100457142D02*
X156310714Y-100504761D01*
X156167857Y-100552380D01*
X156072619Y-100552380D01*
X155929761Y-100504761D01*
X155834523Y-100409523D01*
X155786904Y-100314285D01*
X155739285Y-100123809D01*
X155739285Y-99980952D01*
X155786904Y-99790476D01*
X155834523Y-99695238D01*
X155929761Y-99600000D01*
X156072619Y-99552380D01*
X156167857Y-99552380D01*
X156310714Y-99600000D01*
X156358333Y-99647619D01*
X157310714Y-100552380D02*
X156739285Y-100552380D01*
X157025000Y-100552380D02*
X157025000Y-99552380D01*
X156929761Y-99695238D01*
X156834523Y-99790476D01*
X156739285Y-99838095D01*
%TO.C,J1*%
X160141666Y-134177380D02*
X160141666Y-134891666D01*
X160094047Y-135034523D01*
X159998809Y-135129761D01*
X159855952Y-135177380D01*
X159760714Y-135177380D01*
X161141666Y-135177380D02*
X160570238Y-135177380D01*
X160855952Y-135177380D02*
X160855952Y-134177380D01*
X160760714Y-134320238D01*
X160665476Y-134415476D01*
X160570238Y-134463095D01*
%TO.C,J5*%
X151741666Y-134177380D02*
X151741666Y-134891666D01*
X151694047Y-135034523D01*
X151598809Y-135129761D01*
X151455952Y-135177380D01*
X151360714Y-135177380D01*
X152694047Y-134177380D02*
X152217857Y-134177380D01*
X152170238Y-134653571D01*
X152217857Y-134605952D01*
X152313095Y-134558333D01*
X152551190Y-134558333D01*
X152646428Y-134605952D01*
X152694047Y-134653571D01*
X152741666Y-134748809D01*
X152741666Y-134986904D01*
X152694047Y-135082142D01*
X152646428Y-135129761D01*
X152551190Y-135177380D01*
X152313095Y-135177380D01*
X152217857Y-135129761D01*
X152170238Y-135082142D01*
%TO.C,C10*%
X144595342Y-128050942D02*
X144547723Y-128098561D01*
X144404866Y-128146180D01*
X144309628Y-128146180D01*
X144166771Y-128098561D01*
X144071533Y-128003323D01*
X144023914Y-127908085D01*
X143976295Y-127717609D01*
X143976295Y-127574752D01*
X144023914Y-127384276D01*
X144071533Y-127289038D01*
X144166771Y-127193800D01*
X144309628Y-127146180D01*
X144404866Y-127146180D01*
X144547723Y-127193800D01*
X144595342Y-127241419D01*
X145547723Y-128146180D02*
X144976295Y-128146180D01*
X145262009Y-128146180D02*
X145262009Y-127146180D01*
X145166771Y-127289038D01*
X145071533Y-127384276D01*
X144976295Y-127431895D01*
X146166771Y-127146180D02*
X146262009Y-127146180D01*
X146357247Y-127193800D01*
X146404866Y-127241419D01*
X146452485Y-127336657D01*
X146500104Y-127527133D01*
X146500104Y-127765228D01*
X146452485Y-127955704D01*
X146404866Y-128050942D01*
X146357247Y-128098561D01*
X146262009Y-128146180D01*
X146166771Y-128146180D01*
X146071533Y-128098561D01*
X146023914Y-128050942D01*
X145976295Y-127955704D01*
X145928676Y-127765228D01*
X145928676Y-127527133D01*
X145976295Y-127336657D01*
X146023914Y-127241419D01*
X146071533Y-127193800D01*
X146166771Y-127146180D01*
%TO.C,R4*%
X128308733Y-123877380D02*
X127975400Y-123401190D01*
X127737304Y-123877380D02*
X127737304Y-122877380D01*
X128118257Y-122877380D01*
X128213495Y-122925000D01*
X128261114Y-122972619D01*
X128308733Y-123067857D01*
X128308733Y-123210714D01*
X128261114Y-123305952D01*
X128213495Y-123353571D01*
X128118257Y-123401190D01*
X127737304Y-123401190D01*
X129165876Y-123210714D02*
X129165876Y-123877380D01*
X128927780Y-122829761D02*
X128689685Y-123544047D01*
X129308733Y-123544047D01*
%TO.C,H4*%
X117913095Y-128877380D02*
X117913095Y-127877380D01*
X117913095Y-128353571D02*
X118484523Y-128353571D01*
X118484523Y-128877380D02*
X118484523Y-127877380D01*
X119389285Y-128210714D02*
X119389285Y-128877380D01*
X119151190Y-127829761D02*
X118913095Y-128544047D01*
X119532142Y-128544047D01*
%TO.C,J2*%
X143341666Y-134177380D02*
X143341666Y-134891666D01*
X143294047Y-135034523D01*
X143198809Y-135129761D01*
X143055952Y-135177380D01*
X142960714Y-135177380D01*
X143770238Y-134272619D02*
X143817857Y-134225000D01*
X143913095Y-134177380D01*
X144151190Y-134177380D01*
X144246428Y-134225000D01*
X144294047Y-134272619D01*
X144341666Y-134367857D01*
X144341666Y-134463095D01*
X144294047Y-134605952D01*
X143722619Y-135177380D01*
X144341666Y-135177380D01*
%TO.C,C6*%
X162408333Y-124432142D02*
X162360714Y-124479761D01*
X162217857Y-124527380D01*
X162122619Y-124527380D01*
X161979761Y-124479761D01*
X161884523Y-124384523D01*
X161836904Y-124289285D01*
X161789285Y-124098809D01*
X161789285Y-123955952D01*
X161836904Y-123765476D01*
X161884523Y-123670238D01*
X161979761Y-123575000D01*
X162122619Y-123527380D01*
X162217857Y-123527380D01*
X162360714Y-123575000D01*
X162408333Y-123622619D01*
X163265476Y-123527380D02*
X163075000Y-123527380D01*
X162979761Y-123575000D01*
X162932142Y-123622619D01*
X162836904Y-123765476D01*
X162789285Y-123955952D01*
X162789285Y-124336904D01*
X162836904Y-124432142D01*
X162884523Y-124479761D01*
X162979761Y-124527380D01*
X163170238Y-124527380D01*
X163265476Y-124479761D01*
X163313095Y-124432142D01*
X163360714Y-124336904D01*
X163360714Y-124098809D01*
X163313095Y-124003571D01*
X163265476Y-123955952D01*
X163170238Y-123908333D01*
X162979761Y-123908333D01*
X162884523Y-123955952D01*
X162836904Y-124003571D01*
X162789285Y-124098809D01*
%TO.C,C11*%
X127807942Y-128075942D02*
X127760323Y-128123561D01*
X127617466Y-128171180D01*
X127522228Y-128171180D01*
X127379371Y-128123561D01*
X127284133Y-128028323D01*
X127236514Y-127933085D01*
X127188895Y-127742609D01*
X127188895Y-127599752D01*
X127236514Y-127409276D01*
X127284133Y-127314038D01*
X127379371Y-127218800D01*
X127522228Y-127171180D01*
X127617466Y-127171180D01*
X127760323Y-127218800D01*
X127807942Y-127266419D01*
X128760323Y-128171180D02*
X128188895Y-128171180D01*
X128474609Y-128171180D02*
X128474609Y-127171180D01*
X128379371Y-127314038D01*
X128284133Y-127409276D01*
X128188895Y-127456895D01*
X129712704Y-128171180D02*
X129141276Y-128171180D01*
X129426990Y-128171180D02*
X129426990Y-127171180D01*
X129331752Y-127314038D01*
X129236514Y-127409276D01*
X129141276Y-127456895D01*
%TO.C,C18*%
X124032142Y-115382142D02*
X123984523Y-115429761D01*
X123841666Y-115477380D01*
X123746428Y-115477380D01*
X123603571Y-115429761D01*
X123508333Y-115334523D01*
X123460714Y-115239285D01*
X123413095Y-115048809D01*
X123413095Y-114905952D01*
X123460714Y-114715476D01*
X123508333Y-114620238D01*
X123603571Y-114525000D01*
X123746428Y-114477380D01*
X123841666Y-114477380D01*
X123984523Y-114525000D01*
X124032142Y-114572619D01*
X124984523Y-115477380D02*
X124413095Y-115477380D01*
X124698809Y-115477380D02*
X124698809Y-114477380D01*
X124603571Y-114620238D01*
X124508333Y-114715476D01*
X124413095Y-114763095D01*
X125555952Y-114905952D02*
X125460714Y-114858333D01*
X125413095Y-114810714D01*
X125365476Y-114715476D01*
X125365476Y-114667857D01*
X125413095Y-114572619D01*
X125460714Y-114525000D01*
X125555952Y-114477380D01*
X125746428Y-114477380D01*
X125841666Y-114525000D01*
X125889285Y-114572619D01*
X125936904Y-114667857D01*
X125936904Y-114715476D01*
X125889285Y-114810714D01*
X125841666Y-114858333D01*
X125746428Y-114905952D01*
X125555952Y-114905952D01*
X125460714Y-114953571D01*
X125413095Y-115001190D01*
X125365476Y-115096428D01*
X125365476Y-115286904D01*
X125413095Y-115382142D01*
X125460714Y-115429761D01*
X125555952Y-115477380D01*
X125746428Y-115477380D01*
X125841666Y-115429761D01*
X125889285Y-115382142D01*
X125936904Y-115286904D01*
X125936904Y-115096428D01*
X125889285Y-115001190D01*
X125841666Y-114953571D01*
X125746428Y-114905952D01*
%TO.C,J3*%
X126616666Y-134177380D02*
X126616666Y-134891666D01*
X126569047Y-135034523D01*
X126473809Y-135129761D01*
X126330952Y-135177380D01*
X126235714Y-135177380D01*
X126997619Y-134177380D02*
X127616666Y-134177380D01*
X127283333Y-134558333D01*
X127426190Y-134558333D01*
X127521428Y-134605952D01*
X127569047Y-134653571D01*
X127616666Y-134748809D01*
X127616666Y-134986904D01*
X127569047Y-135082142D01*
X127521428Y-135129761D01*
X127426190Y-135177380D01*
X127140476Y-135177380D01*
X127045238Y-135129761D01*
X126997619Y-135082142D01*
%TO.C,U1*%
X142913095Y-112661780D02*
X142913095Y-113471304D01*
X142960714Y-113566542D01*
X143008333Y-113614161D01*
X143103571Y-113661780D01*
X143294047Y-113661780D01*
X143389285Y-113614161D01*
X143436904Y-113566542D01*
X143484523Y-113471304D01*
X143484523Y-112661780D01*
X144484523Y-113661780D02*
X143913095Y-113661780D01*
X144198809Y-113661780D02*
X144198809Y-112661780D01*
X144103571Y-112804638D01*
X144008333Y-112899876D01*
X143913095Y-112947495D01*
%TO.C,R6*%
X130188333Y-106067380D02*
X129855000Y-105591190D01*
X129616904Y-106067380D02*
X129616904Y-105067380D01*
X129997857Y-105067380D01*
X130093095Y-105115000D01*
X130140714Y-105162619D01*
X130188333Y-105257857D01*
X130188333Y-105400714D01*
X130140714Y-105495952D01*
X130093095Y-105543571D01*
X129997857Y-105591190D01*
X129616904Y-105591190D01*
X131045476Y-105067380D02*
X130855000Y-105067380D01*
X130759761Y-105115000D01*
X130712142Y-105162619D01*
X130616904Y-105305476D01*
X130569285Y-105495952D01*
X130569285Y-105876904D01*
X130616904Y-105972142D01*
X130664523Y-106019761D01*
X130759761Y-106067380D01*
X130950238Y-106067380D01*
X131045476Y-106019761D01*
X131093095Y-105972142D01*
X131140714Y-105876904D01*
X131140714Y-105638809D01*
X131093095Y-105543571D01*
X131045476Y-105495952D01*
X130950238Y-105448333D01*
X130759761Y-105448333D01*
X130664523Y-105495952D01*
X130616904Y-105543571D01*
X130569285Y-105638809D01*
%TO.C,R2*%
X159358333Y-122752380D02*
X159025000Y-122276190D01*
X158786904Y-122752380D02*
X158786904Y-121752380D01*
X159167857Y-121752380D01*
X159263095Y-121800000D01*
X159310714Y-121847619D01*
X159358333Y-121942857D01*
X159358333Y-122085714D01*
X159310714Y-122180952D01*
X159263095Y-122228571D01*
X159167857Y-122276190D01*
X158786904Y-122276190D01*
X159739285Y-121847619D02*
X159786904Y-121800000D01*
X159882142Y-121752380D01*
X160120238Y-121752380D01*
X160215476Y-121800000D01*
X160263095Y-121847619D01*
X160310714Y-121942857D01*
X160310714Y-122038095D01*
X160263095Y-122180952D01*
X159691666Y-122752380D01*
X160310714Y-122752380D01*
%TO.C,C14*%
X127757942Y-126144742D02*
X127710323Y-126192361D01*
X127567466Y-126239980D01*
X127472228Y-126239980D01*
X127329371Y-126192361D01*
X127234133Y-126097123D01*
X127186514Y-126001885D01*
X127138895Y-125811409D01*
X127138895Y-125668552D01*
X127186514Y-125478076D01*
X127234133Y-125382838D01*
X127329371Y-125287600D01*
X127472228Y-125239980D01*
X127567466Y-125239980D01*
X127710323Y-125287600D01*
X127757942Y-125335219D01*
X128710323Y-126239980D02*
X128138895Y-126239980D01*
X128424609Y-126239980D02*
X128424609Y-125239980D01*
X128329371Y-125382838D01*
X128234133Y-125478076D01*
X128138895Y-125525695D01*
X129567466Y-125573314D02*
X129567466Y-126239980D01*
X129329371Y-125192361D02*
X129091276Y-125906647D01*
X129710323Y-125906647D01*
%TO.C,C2*%
X158358333Y-100382142D02*
X158310714Y-100429761D01*
X158167857Y-100477380D01*
X158072619Y-100477380D01*
X157929761Y-100429761D01*
X157834523Y-100334523D01*
X157786904Y-100239285D01*
X157739285Y-100048809D01*
X157739285Y-99905952D01*
X157786904Y-99715476D01*
X157834523Y-99620238D01*
X157929761Y-99525000D01*
X158072619Y-99477380D01*
X158167857Y-99477380D01*
X158310714Y-99525000D01*
X158358333Y-99572619D01*
X158739285Y-99572619D02*
X158786904Y-99525000D01*
X158882142Y-99477380D01*
X159120238Y-99477380D01*
X159215476Y-99525000D01*
X159263095Y-99572619D01*
X159310714Y-99667857D01*
X159310714Y-99763095D01*
X159263095Y-99905952D01*
X158691666Y-100477380D01*
X159310714Y-100477380D01*
%TO.C,J7*%
X128116666Y-93108580D02*
X128116666Y-93822866D01*
X128069047Y-93965723D01*
X127973809Y-94060961D01*
X127830952Y-94108580D01*
X127735714Y-94108580D01*
X128497619Y-93108580D02*
X129164285Y-93108580D01*
X128735714Y-94108580D01*
%TO.C,H1*%
X117913095Y-88877380D02*
X117913095Y-87877380D01*
X117913095Y-88353571D02*
X118484523Y-88353571D01*
X118484523Y-88877380D02*
X118484523Y-87877380D01*
X119484523Y-88877380D02*
X118913095Y-88877380D01*
X119198809Y-88877380D02*
X119198809Y-87877380D01*
X119103571Y-88020238D01*
X119008333Y-88115476D01*
X118913095Y-88163095D01*
%TO.C,C12*%
X136390742Y-128200942D02*
X136343123Y-128248561D01*
X136200266Y-128296180D01*
X136105028Y-128296180D01*
X135962171Y-128248561D01*
X135866933Y-128153323D01*
X135819314Y-128058085D01*
X135771695Y-127867609D01*
X135771695Y-127724752D01*
X135819314Y-127534276D01*
X135866933Y-127439038D01*
X135962171Y-127343800D01*
X136105028Y-127296180D01*
X136200266Y-127296180D01*
X136343123Y-127343800D01*
X136390742Y-127391419D01*
X137343123Y-128296180D02*
X136771695Y-128296180D01*
X137057409Y-128296180D02*
X137057409Y-127296180D01*
X136962171Y-127439038D01*
X136866933Y-127534276D01*
X136771695Y-127581895D01*
X137724076Y-127391419D02*
X137771695Y-127343800D01*
X137866933Y-127296180D01*
X138105028Y-127296180D01*
X138200266Y-127343800D01*
X138247885Y-127391419D01*
X138295504Y-127486657D01*
X138295504Y-127581895D01*
X138247885Y-127724752D01*
X137676457Y-128296180D01*
X138295504Y-128296180D01*
%TO.C,J4*%
X134941666Y-134177380D02*
X134941666Y-134891666D01*
X134894047Y-135034523D01*
X134798809Y-135129761D01*
X134655952Y-135177380D01*
X134560714Y-135177380D01*
X135846428Y-134510714D02*
X135846428Y-135177380D01*
X135608333Y-134129761D02*
X135370238Y-134844047D01*
X135989285Y-134844047D01*
%TO.C,R10*%
X129732142Y-111277380D02*
X129398809Y-110801190D01*
X129160714Y-111277380D02*
X129160714Y-110277380D01*
X129541666Y-110277380D01*
X129636904Y-110325000D01*
X129684523Y-110372619D01*
X129732142Y-110467857D01*
X129732142Y-110610714D01*
X129684523Y-110705952D01*
X129636904Y-110753571D01*
X129541666Y-110801190D01*
X129160714Y-110801190D01*
X130684523Y-111277380D02*
X130113095Y-111277380D01*
X130398809Y-111277380D02*
X130398809Y-110277380D01*
X130303571Y-110420238D01*
X130208333Y-110515476D01*
X130113095Y-110563095D01*
X131303571Y-110277380D02*
X131398809Y-110277380D01*
X131494047Y-110325000D01*
X131541666Y-110372619D01*
X131589285Y-110467857D01*
X131636904Y-110658333D01*
X131636904Y-110896428D01*
X131589285Y-111086904D01*
X131541666Y-111182142D01*
X131494047Y-111229761D01*
X131398809Y-111277380D01*
X131303571Y-111277380D01*
X131208333Y-111229761D01*
X131160714Y-111182142D01*
X131113095Y-111086904D01*
X131065476Y-110896428D01*
X131065476Y-110658333D01*
X131113095Y-110467857D01*
X131160714Y-110372619D01*
X131208333Y-110325000D01*
X131303571Y-110277380D01*
%TO.C,C5*%
X156883333Y-124307142D02*
X156835714Y-124354761D01*
X156692857Y-124402380D01*
X156597619Y-124402380D01*
X156454761Y-124354761D01*
X156359523Y-124259523D01*
X156311904Y-124164285D01*
X156264285Y-123973809D01*
X156264285Y-123830952D01*
X156311904Y-123640476D01*
X156359523Y-123545238D01*
X156454761Y-123450000D01*
X156597619Y-123402380D01*
X156692857Y-123402380D01*
X156835714Y-123450000D01*
X156883333Y-123497619D01*
X157788095Y-123402380D02*
X157311904Y-123402380D01*
X157264285Y-123878571D01*
X157311904Y-123830952D01*
X157407142Y-123783333D01*
X157645238Y-123783333D01*
X157740476Y-123830952D01*
X157788095Y-123878571D01*
X157835714Y-123973809D01*
X157835714Y-124211904D01*
X157788095Y-124307142D01*
X157740476Y-124354761D01*
X157645238Y-124402380D01*
X157407142Y-124402380D01*
X157311904Y-124354761D01*
X157264285Y-124307142D01*
%TO.C,H2*%
X167913095Y-88877380D02*
X167913095Y-87877380D01*
X167913095Y-88353571D02*
X168484523Y-88353571D01*
X168484523Y-88877380D02*
X168484523Y-87877380D01*
X168913095Y-87972619D02*
X168960714Y-87925000D01*
X169055952Y-87877380D01*
X169294047Y-87877380D01*
X169389285Y-87925000D01*
X169436904Y-87972619D01*
X169484523Y-88067857D01*
X169484523Y-88163095D01*
X169436904Y-88305952D01*
X168865476Y-88877380D01*
X169484523Y-88877380D01*
%TO.C,R9*%
X131727380Y-119391666D02*
X131251190Y-119725000D01*
X131727380Y-119963095D02*
X130727380Y-119963095D01*
X130727380Y-119582142D01*
X130775000Y-119486904D01*
X130822619Y-119439285D01*
X130917857Y-119391666D01*
X131060714Y-119391666D01*
X131155952Y-119439285D01*
X131203571Y-119486904D01*
X131251190Y-119582142D01*
X131251190Y-119963095D01*
X131727380Y-118915476D02*
X131727380Y-118725000D01*
X131679761Y-118629761D01*
X131632142Y-118582142D01*
X131489285Y-118486904D01*
X131298809Y-118439285D01*
X130917857Y-118439285D01*
X130822619Y-118486904D01*
X130775000Y-118534523D01*
X130727380Y-118629761D01*
X130727380Y-118820238D01*
X130775000Y-118915476D01*
X130822619Y-118963095D01*
X130917857Y-119010714D01*
X131155952Y-119010714D01*
X131251190Y-118963095D01*
X131298809Y-118915476D01*
X131346428Y-118820238D01*
X131346428Y-118629761D01*
X131298809Y-118534523D01*
X131251190Y-118486904D01*
X131155952Y-118439285D01*
%TO.C,C8*%
X144471533Y-126219742D02*
X144423914Y-126267361D01*
X144281057Y-126314980D01*
X144185819Y-126314980D01*
X144042961Y-126267361D01*
X143947723Y-126172123D01*
X143900104Y-126076885D01*
X143852485Y-125886409D01*
X143852485Y-125743552D01*
X143900104Y-125553076D01*
X143947723Y-125457838D01*
X144042961Y-125362600D01*
X144185819Y-125314980D01*
X144281057Y-125314980D01*
X144423914Y-125362600D01*
X144471533Y-125410219D01*
X145042961Y-125743552D02*
X144947723Y-125695933D01*
X144900104Y-125648314D01*
X144852485Y-125553076D01*
X144852485Y-125505457D01*
X144900104Y-125410219D01*
X144947723Y-125362600D01*
X145042961Y-125314980D01*
X145233438Y-125314980D01*
X145328676Y-125362600D01*
X145376295Y-125410219D01*
X145423914Y-125505457D01*
X145423914Y-125553076D01*
X145376295Y-125648314D01*
X145328676Y-125695933D01*
X145233438Y-125743552D01*
X145042961Y-125743552D01*
X144947723Y-125791171D01*
X144900104Y-125838790D01*
X144852485Y-125934028D01*
X144852485Y-126124504D01*
X144900104Y-126219742D01*
X144947723Y-126267361D01*
X145042961Y-126314980D01*
X145233438Y-126314980D01*
X145328676Y-126267361D01*
X145376295Y-126219742D01*
X145423914Y-126124504D01*
X145423914Y-125934028D01*
X145376295Y-125838790D01*
X145328676Y-125791171D01*
X145233438Y-125743552D01*
%TO.C,C9*%
X161537133Y-128125942D02*
X161489514Y-128173561D01*
X161346657Y-128221180D01*
X161251419Y-128221180D01*
X161108561Y-128173561D01*
X161013323Y-128078323D01*
X160965704Y-127983085D01*
X160918085Y-127792609D01*
X160918085Y-127649752D01*
X160965704Y-127459276D01*
X161013323Y-127364038D01*
X161108561Y-127268800D01*
X161251419Y-127221180D01*
X161346657Y-127221180D01*
X161489514Y-127268800D01*
X161537133Y-127316419D01*
X162013323Y-128221180D02*
X162203800Y-128221180D01*
X162299038Y-128173561D01*
X162346657Y-128125942D01*
X162441895Y-127983085D01*
X162489514Y-127792609D01*
X162489514Y-127411657D01*
X162441895Y-127316419D01*
X162394276Y-127268800D01*
X162299038Y-127221180D01*
X162108561Y-127221180D01*
X162013323Y-127268800D01*
X161965704Y-127316419D01*
X161918085Y-127411657D01*
X161918085Y-127649752D01*
X161965704Y-127744990D01*
X162013323Y-127792609D01*
X162108561Y-127840228D01*
X162299038Y-127840228D01*
X162394276Y-127792609D01*
X162441895Y-127744990D01*
X162489514Y-127649752D01*
%TO.C,R7*%
X127608333Y-109227380D02*
X127275000Y-108751190D01*
X127036904Y-109227380D02*
X127036904Y-108227380D01*
X127417857Y-108227380D01*
X127513095Y-108275000D01*
X127560714Y-108322619D01*
X127608333Y-108417857D01*
X127608333Y-108560714D01*
X127560714Y-108655952D01*
X127513095Y-108703571D01*
X127417857Y-108751190D01*
X127036904Y-108751190D01*
X127941666Y-108227380D02*
X128608333Y-108227380D01*
X128179761Y-109227380D01*
%TO.C,J8*%
X122027380Y-114658333D02*
X122741666Y-114658333D01*
X122884523Y-114705952D01*
X122979761Y-114801190D01*
X123027380Y-114944047D01*
X123027380Y-115039285D01*
X122455952Y-114039285D02*
X122408333Y-114134523D01*
X122360714Y-114182142D01*
X122265476Y-114229761D01*
X122217857Y-114229761D01*
X122122619Y-114182142D01*
X122075000Y-114134523D01*
X122027380Y-114039285D01*
X122027380Y-113848809D01*
X122075000Y-113753571D01*
X122122619Y-113705952D01*
X122217857Y-113658333D01*
X122265476Y-113658333D01*
X122360714Y-113705952D01*
X122408333Y-113753571D01*
X122455952Y-113848809D01*
X122455952Y-114039285D01*
X122503571Y-114134523D01*
X122551190Y-114182142D01*
X122646428Y-114229761D01*
X122836904Y-114229761D01*
X122932142Y-114182142D01*
X122979761Y-114134523D01*
X123027380Y-114039285D01*
X123027380Y-113848809D01*
X122979761Y-113753571D01*
X122932142Y-113705952D01*
X122836904Y-113658333D01*
X122646428Y-113658333D01*
X122551190Y-113705952D01*
X122503571Y-113753571D01*
X122455952Y-113848809D01*
%TO.C,J6*%
X119901666Y-109237380D02*
X119901666Y-109951666D01*
X119854047Y-110094523D01*
X119758809Y-110189761D01*
X119615952Y-110237380D01*
X119520714Y-110237380D01*
X120806428Y-109237380D02*
X120615952Y-109237380D01*
X120520714Y-109285000D01*
X120473095Y-109332619D01*
X120377857Y-109475476D01*
X120330238Y-109665952D01*
X120330238Y-110046904D01*
X120377857Y-110142142D01*
X120425476Y-110189761D01*
X120520714Y-110237380D01*
X120711190Y-110237380D01*
X120806428Y-110189761D01*
X120854047Y-110142142D01*
X120901666Y-110046904D01*
X120901666Y-109808809D01*
X120854047Y-109713571D01*
X120806428Y-109665952D01*
X120711190Y-109618333D01*
X120520714Y-109618333D01*
X120425476Y-109665952D01*
X120377857Y-109713571D01*
X120330238Y-109808809D01*
%TO.C,SW1*%
X171564761Y-112673333D02*
X171612380Y-112530476D01*
X171612380Y-112292380D01*
X171564761Y-112197142D01*
X171517142Y-112149523D01*
X171421904Y-112101904D01*
X171326666Y-112101904D01*
X171231428Y-112149523D01*
X171183809Y-112197142D01*
X171136190Y-112292380D01*
X171088571Y-112482857D01*
X171040952Y-112578095D01*
X170993333Y-112625714D01*
X170898095Y-112673333D01*
X170802857Y-112673333D01*
X170707619Y-112625714D01*
X170660000Y-112578095D01*
X170612380Y-112482857D01*
X170612380Y-112244761D01*
X170660000Y-112101904D01*
X170612380Y-111768571D02*
X171612380Y-111530476D01*
X170898095Y-111340000D01*
X171612380Y-111149523D01*
X170612380Y-110911428D01*
X171612380Y-110006666D02*
X171612380Y-110578095D01*
X171612380Y-110292380D02*
X170612380Y-110292380D01*
X170755238Y-110387619D01*
X170850476Y-110482857D01*
X170898095Y-110578095D01*
%TO.C,C13*%
X153028942Y-128150942D02*
X152981323Y-128198561D01*
X152838466Y-128246180D01*
X152743228Y-128246180D01*
X152600371Y-128198561D01*
X152505133Y-128103323D01*
X152457514Y-128008085D01*
X152409895Y-127817609D01*
X152409895Y-127674752D01*
X152457514Y-127484276D01*
X152505133Y-127389038D01*
X152600371Y-127293800D01*
X152743228Y-127246180D01*
X152838466Y-127246180D01*
X152981323Y-127293800D01*
X153028942Y-127341419D01*
X153981323Y-128246180D02*
X153409895Y-128246180D01*
X153695609Y-128246180D02*
X153695609Y-127246180D01*
X153600371Y-127389038D01*
X153505133Y-127484276D01*
X153409895Y-127531895D01*
X154314657Y-127246180D02*
X154933704Y-127246180D01*
X154600371Y-127627133D01*
X154743228Y-127627133D01*
X154838466Y-127674752D01*
X154886085Y-127722371D01*
X154933704Y-127817609D01*
X154933704Y-128055704D01*
X154886085Y-128150942D01*
X154838466Y-128198561D01*
X154743228Y-128246180D01*
X154457514Y-128246180D01*
X154362276Y-128198561D01*
X154314657Y-128150942D01*
%TO.C,R8*%
X120208333Y-101077380D02*
X119875000Y-100601190D01*
X119636904Y-101077380D02*
X119636904Y-100077380D01*
X120017857Y-100077380D01*
X120113095Y-100125000D01*
X120160714Y-100172619D01*
X120208333Y-100267857D01*
X120208333Y-100410714D01*
X120160714Y-100505952D01*
X120113095Y-100553571D01*
X120017857Y-100601190D01*
X119636904Y-100601190D01*
X120779761Y-100505952D02*
X120684523Y-100458333D01*
X120636904Y-100410714D01*
X120589285Y-100315476D01*
X120589285Y-100267857D01*
X120636904Y-100172619D01*
X120684523Y-100125000D01*
X120779761Y-100077380D01*
X120970238Y-100077380D01*
X121065476Y-100125000D01*
X121113095Y-100172619D01*
X121160714Y-100267857D01*
X121160714Y-100315476D01*
X121113095Y-100410714D01*
X121065476Y-100458333D01*
X120970238Y-100505952D01*
X120779761Y-100505952D01*
X120684523Y-100553571D01*
X120636904Y-100601190D01*
X120589285Y-100696428D01*
X120589285Y-100886904D01*
X120636904Y-100982142D01*
X120684523Y-101029761D01*
X120779761Y-101077380D01*
X120970238Y-101077380D01*
X121065476Y-101029761D01*
X121113095Y-100982142D01*
X121160714Y-100886904D01*
X121160714Y-100696428D01*
X121113095Y-100601190D01*
X121065476Y-100553571D01*
X120970238Y-100505952D01*
%TO.C,C15*%
X136415742Y-126194742D02*
X136368123Y-126242361D01*
X136225266Y-126289980D01*
X136130028Y-126289980D01*
X135987171Y-126242361D01*
X135891933Y-126147123D01*
X135844314Y-126051885D01*
X135796695Y-125861409D01*
X135796695Y-125718552D01*
X135844314Y-125528076D01*
X135891933Y-125432838D01*
X135987171Y-125337600D01*
X136130028Y-125289980D01*
X136225266Y-125289980D01*
X136368123Y-125337600D01*
X136415742Y-125385219D01*
X137368123Y-126289980D02*
X136796695Y-126289980D01*
X137082409Y-126289980D02*
X137082409Y-125289980D01*
X136987171Y-125432838D01*
X136891933Y-125528076D01*
X136796695Y-125575695D01*
X138272885Y-125289980D02*
X137796695Y-125289980D01*
X137749076Y-125766171D01*
X137796695Y-125718552D01*
X137891933Y-125670933D01*
X138130028Y-125670933D01*
X138225266Y-125718552D01*
X138272885Y-125766171D01*
X138320504Y-125861409D01*
X138320504Y-126099504D01*
X138272885Y-126194742D01*
X138225266Y-126242361D01*
X138130028Y-126289980D01*
X137891933Y-126289980D01*
X137796695Y-126242361D01*
X137749076Y-126194742D01*
%TO.C,Q1*%
X123979761Y-109272619D02*
X123884523Y-109225000D01*
X123789285Y-109129761D01*
X123646428Y-108986904D01*
X123551190Y-108939285D01*
X123455952Y-108939285D01*
X123503571Y-109177380D02*
X123408333Y-109129761D01*
X123313095Y-109034523D01*
X123265476Y-108844047D01*
X123265476Y-108510714D01*
X123313095Y-108320238D01*
X123408333Y-108225000D01*
X123503571Y-108177380D01*
X123694047Y-108177380D01*
X123789285Y-108225000D01*
X123884523Y-108320238D01*
X123932142Y-108510714D01*
X123932142Y-108844047D01*
X123884523Y-109034523D01*
X123789285Y-109129761D01*
X123694047Y-109177380D01*
X123503571Y-109177380D01*
X124884523Y-109177380D02*
X124313095Y-109177380D01*
X124598809Y-109177380D02*
X124598809Y-108177380D01*
X124503571Y-108320238D01*
X124408333Y-108415476D01*
X124313095Y-108463095D01*
%TO.C,R5*%
X125508333Y-120277380D02*
X125175000Y-119801190D01*
X124936904Y-120277380D02*
X124936904Y-119277380D01*
X125317857Y-119277380D01*
X125413095Y-119325000D01*
X125460714Y-119372619D01*
X125508333Y-119467857D01*
X125508333Y-119610714D01*
X125460714Y-119705952D01*
X125413095Y-119753571D01*
X125317857Y-119801190D01*
X124936904Y-119801190D01*
X126413095Y-119277380D02*
X125936904Y-119277380D01*
X125889285Y-119753571D01*
X125936904Y-119705952D01*
X126032142Y-119658333D01*
X126270238Y-119658333D01*
X126365476Y-119705952D01*
X126413095Y-119753571D01*
X126460714Y-119848809D01*
X126460714Y-120086904D01*
X126413095Y-120182142D01*
X126365476Y-120229761D01*
X126270238Y-120277380D01*
X126032142Y-120277380D01*
X125936904Y-120229761D01*
X125889285Y-120182142D01*
%TO.C,R1*%
X127228333Y-102357380D02*
X126895000Y-101881190D01*
X126656904Y-102357380D02*
X126656904Y-101357380D01*
X127037857Y-101357380D01*
X127133095Y-101405000D01*
X127180714Y-101452619D01*
X127228333Y-101547857D01*
X127228333Y-101690714D01*
X127180714Y-101785952D01*
X127133095Y-101833571D01*
X127037857Y-101881190D01*
X126656904Y-101881190D01*
X128180714Y-102357380D02*
X127609285Y-102357380D01*
X127895000Y-102357380D02*
X127895000Y-101357380D01*
X127799761Y-101500238D01*
X127704523Y-101595476D01*
X127609285Y-101643095D01*
%TO.C,C16*%
X152953942Y-126125942D02*
X152906323Y-126173561D01*
X152763466Y-126221180D01*
X152668228Y-126221180D01*
X152525371Y-126173561D01*
X152430133Y-126078323D01*
X152382514Y-125983085D01*
X152334895Y-125792609D01*
X152334895Y-125649752D01*
X152382514Y-125459276D01*
X152430133Y-125364038D01*
X152525371Y-125268800D01*
X152668228Y-125221180D01*
X152763466Y-125221180D01*
X152906323Y-125268800D01*
X152953942Y-125316419D01*
X153906323Y-126221180D02*
X153334895Y-126221180D01*
X153620609Y-126221180D02*
X153620609Y-125221180D01*
X153525371Y-125364038D01*
X153430133Y-125459276D01*
X153334895Y-125506895D01*
X154763466Y-125221180D02*
X154572990Y-125221180D01*
X154477752Y-125268800D01*
X154430133Y-125316419D01*
X154334895Y-125459276D01*
X154287276Y-125649752D01*
X154287276Y-126030704D01*
X154334895Y-126125942D01*
X154382514Y-126173561D01*
X154477752Y-126221180D01*
X154668228Y-126221180D01*
X154763466Y-126173561D01*
X154811085Y-126125942D01*
X154858704Y-126030704D01*
X154858704Y-125792609D01*
X154811085Y-125697371D01*
X154763466Y-125649752D01*
X154668228Y-125602133D01*
X154477752Y-125602133D01*
X154382514Y-125649752D01*
X154334895Y-125697371D01*
X154287276Y-125792609D01*
%TO.C,C3*%
X156857142Y-90316666D02*
X156904761Y-90364285D01*
X156952380Y-90507142D01*
X156952380Y-90602380D01*
X156904761Y-90745238D01*
X156809523Y-90840476D01*
X156714285Y-90888095D01*
X156523809Y-90935714D01*
X156380952Y-90935714D01*
X156190476Y-90888095D01*
X156095238Y-90840476D01*
X156000000Y-90745238D01*
X155952380Y-90602380D01*
X155952380Y-90507142D01*
X156000000Y-90364285D01*
X156047619Y-90316666D01*
X155952380Y-89983333D02*
X155952380Y-89364285D01*
X156333333Y-89697619D01*
X156333333Y-89554761D01*
X156380952Y-89459523D01*
X156428571Y-89411904D01*
X156523809Y-89364285D01*
X156761904Y-89364285D01*
X156857142Y-89411904D01*
X156904761Y-89459523D01*
X156952380Y-89554761D01*
X156952380Y-89840476D01*
X156904761Y-89935714D01*
X156857142Y-89983333D01*
%TO.C,R3*%
X165208333Y-122727380D02*
X164875000Y-122251190D01*
X164636904Y-122727380D02*
X164636904Y-121727380D01*
X165017857Y-121727380D01*
X165113095Y-121775000D01*
X165160714Y-121822619D01*
X165208333Y-121917857D01*
X165208333Y-122060714D01*
X165160714Y-122155952D01*
X165113095Y-122203571D01*
X165017857Y-122251190D01*
X164636904Y-122251190D01*
X165541666Y-121727380D02*
X166160714Y-121727380D01*
X165827380Y-122108333D01*
X165970238Y-122108333D01*
X166065476Y-122155952D01*
X166113095Y-122203571D01*
X166160714Y-122298809D01*
X166160714Y-122536904D01*
X166113095Y-122632142D01*
X166065476Y-122679761D01*
X165970238Y-122727380D01*
X165684523Y-122727380D01*
X165589285Y-122679761D01*
X165541666Y-122632142D01*
%TO.C,C4*%
X158857142Y-90116666D02*
X158904761Y-90164285D01*
X158952380Y-90307142D01*
X158952380Y-90402380D01*
X158904761Y-90545238D01*
X158809523Y-90640476D01*
X158714285Y-90688095D01*
X158523809Y-90735714D01*
X158380952Y-90735714D01*
X158190476Y-90688095D01*
X158095238Y-90640476D01*
X158000000Y-90545238D01*
X157952380Y-90402380D01*
X157952380Y-90307142D01*
X158000000Y-90164285D01*
X158047619Y-90116666D01*
X158285714Y-89259523D02*
X158952380Y-89259523D01*
X157904761Y-89497619D02*
X158619047Y-89735714D01*
X158619047Y-89116666D01*
D11*
%TO.C,C17*%
X128152452Y-116517800D02*
X127629948Y-116517800D01*
X128152452Y-117987800D02*
X127629948Y-117987800D01*
%TO.C,C7*%
X159099852Y-126547600D02*
X158577348Y-126547600D01*
X159099852Y-125077600D02*
X158577348Y-125077600D01*
%TO.C,C1*%
X157160000Y-97836252D02*
X157160000Y-97313748D01*
X155690000Y-97836252D02*
X155690000Y-97313748D01*
%TO.C,J1*%
X163585000Y-130315000D02*
X162535000Y-130315000D01*
X162535000Y-130315000D02*
X162535000Y-129325000D01*
X162415000Y-133435000D02*
X158535000Y-133435000D01*
X157365000Y-130315000D02*
X158415000Y-130315000D01*
X163585000Y-131465000D02*
X163585000Y-130315000D01*
X157365000Y-131465000D02*
X157365000Y-130315000D01*
%TO.C,J5*%
X148965000Y-130315000D02*
X150015000Y-130315000D01*
X148965000Y-131465000D02*
X148965000Y-130315000D01*
X155185000Y-131465000D02*
X155185000Y-130315000D01*
X155185000Y-130315000D02*
X154135000Y-130315000D01*
X154015000Y-133435000D02*
X150135000Y-133435000D01*
X154135000Y-130315000D02*
X154135000Y-129325000D01*
%TO.C,C10*%
X142249452Y-127058800D02*
X141726948Y-127058800D01*
X142249452Y-128528800D02*
X141726948Y-128528800D01*
%TO.C,kibuzzard-637AF59B*%
G36*
X119870174Y-111946816D02*
G01*
X119937642Y-111986106D01*
X119976933Y-112053972D01*
X119990030Y-112152794D01*
X119977925Y-112250227D01*
X119941611Y-112317100D01*
X119880691Y-112355795D01*
X119794767Y-112368694D01*
X119705867Y-112355994D01*
X119705867Y-111933719D01*
X119772542Y-111933719D01*
X119870174Y-111946816D01*
G37*
G36*
X115209538Y-110983865D02*
G01*
X122046372Y-110983865D01*
X122740462Y-112025000D01*
X122046372Y-113066135D01*
X115209538Y-113066135D01*
X115209538Y-112735406D01*
X118707330Y-112735406D01*
X119358205Y-112735406D01*
X119358205Y-112621106D01*
X118707330Y-112621106D01*
X118707330Y-112735406D01*
X115209538Y-112735406D01*
X115209538Y-112187719D01*
X115540267Y-112187719D01*
X115548469Y-112291083D01*
X115573076Y-112372574D01*
X115614086Y-112432194D01*
X115673970Y-112472763D01*
X115755197Y-112497105D01*
X115857767Y-112505219D01*
X115960337Y-112497105D01*
X116041565Y-112472763D01*
X116101449Y-112432194D01*
X116142459Y-112372574D01*
X116167065Y-112291083D01*
X116175267Y-112187719D01*
X116175267Y-111616219D01*
X116349892Y-111616219D01*
X116366363Y-111728931D01*
X116415774Y-111822594D01*
X116470366Y-111877627D01*
X116546301Y-111930544D01*
X116643580Y-111981344D01*
X116711644Y-112022222D01*
X116757086Y-112068656D01*
X116782685Y-112125013D01*
X116791217Y-112195656D01*
X116780105Y-112269673D01*
X116746767Y-112323450D01*
X116693586Y-112356192D01*
X116622942Y-112367106D01*
X116529985Y-112355641D01*
X116441615Y-112321245D01*
X116357830Y-112263919D01*
X116357830Y-112429019D01*
X116439322Y-112471352D01*
X116529280Y-112496752D01*
X116627705Y-112505219D01*
X116750577Y-112492519D01*
X116758541Y-112489344D01*
X117170630Y-112489344D01*
X117726255Y-112489344D01*
X117932630Y-112489344D01*
X118110430Y-112489344D01*
X118110430Y-112008331D01*
X118172342Y-112008331D01*
X118268386Y-112039288D01*
X118298747Y-112083936D01*
X118324742Y-112155969D01*
X118416817Y-112489344D01*
X118599380Y-112489344D01*
X118594555Y-112473469D01*
X119528067Y-112473469D01*
X119615556Y-112491108D01*
X119704456Y-112501691D01*
X119794767Y-112505219D01*
X119907303Y-112495517D01*
X119999378Y-112466413D01*
X120070992Y-112417906D01*
X120122145Y-112349997D01*
X120152837Y-112262684D01*
X120163067Y-112155969D01*
X120147788Y-112049606D01*
X120101949Y-111959119D01*
X120033091Y-111892841D01*
X119948755Y-111859106D01*
X119948755Y-111857519D01*
X120023169Y-111824975D01*
X120081311Y-111768619D01*
X120118816Y-111693213D01*
X120131317Y-111603519D01*
X120117474Y-111499506D01*
X120101599Y-111468581D01*
X120294830Y-111468581D01*
X120531367Y-111468581D01*
X120531367Y-112489344D01*
X120709167Y-112489344D01*
X121112392Y-112489344D01*
X121287017Y-112489344D01*
X121287017Y-111647969D01*
X121290192Y-111647969D01*
X121537842Y-112489344D01*
X121715642Y-112489344D01*
X121715642Y-111330469D01*
X121548955Y-111330469D01*
X121548955Y-112171844D01*
X121544192Y-112171844D01*
X121296542Y-111330469D01*
X121112392Y-111330469D01*
X121112392Y-112489344D01*
X120709167Y-112489344D01*
X120709167Y-111468581D01*
X120945705Y-111468581D01*
X120945705Y-111330469D01*
X120294830Y-111330469D01*
X120294830Y-111468581D01*
X120101599Y-111468581D01*
X120075945Y-111418607D01*
X120006730Y-111360822D01*
X119909829Y-111326151D01*
X119785242Y-111314594D01*
X119654274Y-111322531D01*
X119528067Y-111346344D01*
X119528067Y-112473469D01*
X118594555Y-112473469D01*
X118500955Y-112165494D01*
X118450155Y-112040875D01*
X118389830Y-111962294D01*
X118389830Y-111959119D01*
X118467617Y-111913677D01*
X118523180Y-111848788D01*
X118556517Y-111764452D01*
X118567630Y-111660669D01*
X118557840Y-111551749D01*
X118528472Y-111464172D01*
X118479524Y-111397938D01*
X118409585Y-111351635D01*
X118317246Y-111323854D01*
X118202505Y-111314594D01*
X118111135Y-111318122D01*
X118021177Y-111328705D01*
X117932630Y-111346344D01*
X117932630Y-112489344D01*
X117726255Y-112489344D01*
X117726255Y-112351231D01*
X117348430Y-112351231D01*
X117348430Y-111933719D01*
X117710380Y-111933719D01*
X117710380Y-111798781D01*
X117348430Y-111798781D01*
X117348430Y-111468581D01*
X117726255Y-111468581D01*
X117726255Y-111330469D01*
X117170630Y-111330469D01*
X117170630Y-112489344D01*
X116758541Y-112489344D01*
X116846145Y-112454419D01*
X116914407Y-112390919D01*
X116955365Y-112302019D01*
X116969017Y-112187719D01*
X116951952Y-112065084D01*
X116900755Y-111967056D01*
X116842723Y-111910435D01*
X116759644Y-111854873D01*
X116651517Y-111800369D01*
X116580962Y-111752920D01*
X116538628Y-111688891D01*
X116524517Y-111608281D01*
X116535630Y-111543194D01*
X116568967Y-111493981D01*
X116621752Y-111463025D01*
X116691205Y-111452706D01*
X116814633Y-111469772D01*
X116937267Y-111520969D01*
X116937267Y-111362219D01*
X116851895Y-111335760D01*
X116762995Y-111319885D01*
X116670567Y-111314594D01*
X116575758Y-111323413D01*
X116496648Y-111349872D01*
X116433236Y-111393969D01*
X116370728Y-111489219D01*
X116349892Y-111616219D01*
X116175267Y-111616219D01*
X116175267Y-111330469D01*
X116002230Y-111330469D01*
X116002230Y-112155969D01*
X115994292Y-112259752D01*
X115970480Y-112323450D01*
X115860942Y-112367106D01*
X115794664Y-112355994D01*
X115751405Y-112322656D01*
X115727592Y-112258759D01*
X115719655Y-112155969D01*
X115719655Y-111330469D01*
X115540267Y-111330469D01*
X115540267Y-112187719D01*
X115209538Y-112187719D01*
X115209538Y-110983865D01*
G37*
G36*
X118287039Y-111465208D02*
G01*
X118346967Y-111502713D01*
X118382686Y-111567205D01*
X118394592Y-111660669D01*
X118381892Y-111758300D01*
X118343792Y-111822594D01*
X118275530Y-111858313D01*
X118172342Y-111870219D01*
X118110430Y-111870219D01*
X118110430Y-111465406D01*
X118202505Y-111452706D01*
X118287039Y-111465208D01*
G37*
G36*
X119883138Y-111469287D02*
G01*
X119941876Y-111523791D01*
X119961455Y-111614631D01*
X119948755Y-111698173D01*
X119910655Y-111755125D01*
X119845567Y-111787867D01*
X119751905Y-111798781D01*
X119705867Y-111798781D01*
X119705867Y-111463819D01*
X119785242Y-111451119D01*
X119883138Y-111469287D01*
G37*
%TO.C,R4*%
X127537136Y-121064400D02*
X127991264Y-121064400D01*
X127537136Y-122534400D02*
X127991264Y-122534400D01*
%TO.C,J2*%
X140565000Y-130315000D02*
X141615000Y-130315000D01*
X140565000Y-131465000D02*
X140565000Y-130315000D01*
X146785000Y-131465000D02*
X146785000Y-130315000D01*
X145615000Y-133435000D02*
X141735000Y-133435000D01*
X145735000Y-130315000D02*
X145735000Y-129325000D01*
X146785000Y-130315000D02*
X145735000Y-130315000D01*
%TO.C,C6*%
X161765000Y-121388748D02*
X161765000Y-121911252D01*
X163235000Y-121388748D02*
X163235000Y-121911252D01*
%TO.C,C11*%
X125587052Y-127058800D02*
X125064548Y-127058800D01*
X125587052Y-128528800D02*
X125064548Y-128528800D01*
%TO.C,C18*%
X128136252Y-114290000D02*
X127613748Y-114290000D01*
X128136252Y-115760000D02*
X127613748Y-115760000D01*
%TO.C,kibuzzard-637AF633*%
G36*
X120910999Y-107590422D02*
G01*
X120970728Y-107634475D01*
X121005852Y-107711469D01*
X121017560Y-107824975D01*
X121005852Y-107947014D01*
X120970728Y-108027381D01*
X120910999Y-108072030D01*
X120825472Y-108086913D01*
X120733397Y-108075800D01*
X120733397Y-107588438D01*
X120825472Y-107575737D01*
X120910999Y-107590422D01*
G37*
G36*
X120108319Y-107588239D02*
G01*
X120168247Y-107625744D01*
X120203966Y-107690236D01*
X120215872Y-107783700D01*
X120203172Y-107881331D01*
X120165072Y-107945625D01*
X120096810Y-107981344D01*
X119993622Y-107993250D01*
X119931710Y-107993250D01*
X119931710Y-107588438D01*
X120023785Y-107575737D01*
X120108319Y-107588239D01*
G37*
G36*
X118769522Y-108025000D02*
G01*
X119381591Y-107106896D01*
X122380478Y-107106896D01*
X122380478Y-108943104D01*
X119381591Y-108943104D01*
X119161105Y-108612375D01*
X119753910Y-108612375D01*
X119931710Y-108612375D01*
X119931710Y-108131363D01*
X119993622Y-108131363D01*
X120089666Y-108162319D01*
X120120027Y-108206967D01*
X120146022Y-108279000D01*
X120238097Y-108612375D01*
X120420660Y-108612375D01*
X120555597Y-108612375D01*
X120733397Y-108612375D01*
X121285847Y-108612375D01*
X121441422Y-108612375D01*
X121468410Y-107628125D01*
X121473172Y-107628125D01*
X121563660Y-108342500D01*
X121714472Y-108342500D01*
X121812897Y-107628125D01*
X121814485Y-107628125D01*
X121838297Y-108612375D01*
X122008160Y-108612375D01*
X121949422Y-107453500D01*
X121749397Y-107453500D01*
X121654147Y-108191688D01*
X121650972Y-108191688D01*
X121554135Y-107453500D01*
X121346172Y-107453500D01*
X121285847Y-108612375D01*
X120733397Y-108612375D01*
X120733397Y-108215500D01*
X120825472Y-108223438D01*
X120938626Y-108212854D01*
X121030436Y-108181104D01*
X121100903Y-108128188D01*
X121150733Y-108052164D01*
X121180631Y-107951093D01*
X121190597Y-107824975D01*
X121180896Y-107701062D01*
X121151792Y-107602372D01*
X121103285Y-107528906D01*
X121033611Y-107478194D01*
X120941007Y-107447767D01*
X120825472Y-107437625D01*
X120734103Y-107441153D01*
X120644144Y-107451736D01*
X120555597Y-107469375D01*
X120555597Y-108612375D01*
X120420660Y-108612375D01*
X120322235Y-108288525D01*
X120271435Y-108163906D01*
X120211110Y-108085325D01*
X120211110Y-108082150D01*
X120288897Y-108036708D01*
X120344460Y-107971819D01*
X120377797Y-107887483D01*
X120388910Y-107783700D01*
X120379120Y-107674780D01*
X120349751Y-107587203D01*
X120300803Y-107520969D01*
X120230865Y-107474667D01*
X120138526Y-107446885D01*
X120023785Y-107437625D01*
X119932415Y-107441153D01*
X119842457Y-107451736D01*
X119753910Y-107469375D01*
X119753910Y-108612375D01*
X119161105Y-108612375D01*
X118769522Y-108025000D01*
G37*
%TO.C,J3*%
X130060000Y-130315000D02*
X129010000Y-130315000D01*
X128890000Y-133435000D02*
X125010000Y-133435000D01*
X123840000Y-130315000D02*
X124890000Y-130315000D01*
X130060000Y-131465000D02*
X130060000Y-130315000D01*
X129010000Y-130315000D02*
X129010000Y-129325000D01*
X123840000Y-131465000D02*
X123840000Y-130315000D01*
%TO.C,U1*%
X133175000Y-97809400D02*
X133175000Y-98209400D01*
X154175000Y-92709400D02*
X154175000Y-93109400D01*
X133175000Y-95209400D02*
X133175000Y-95609400D01*
X154175000Y-97809400D02*
X154175000Y-98209400D01*
X133175000Y-113009400D02*
X133175000Y-113409400D01*
X133175000Y-115509400D02*
X133175000Y-115909400D01*
X136182000Y-90376400D02*
X136182000Y-87709400D01*
X133175000Y-92709400D02*
X133175000Y-93109400D01*
X133175000Y-87709400D02*
X133175000Y-88009400D01*
X133175000Y-90376400D02*
X136182000Y-90376400D01*
X154175000Y-107909400D02*
X154175000Y-108309400D01*
X133175000Y-100309400D02*
X133175000Y-100709400D01*
X154175000Y-105409400D02*
X154175000Y-105809400D01*
X133175000Y-87709400D02*
X154175000Y-87709400D01*
X154175000Y-120609400D02*
X154175000Y-121009400D01*
X133175000Y-107909400D02*
X133175000Y-108309400D01*
X154175000Y-115509400D02*
X154175000Y-115909400D01*
X133175000Y-120609400D02*
X133175000Y-121009400D01*
X154175000Y-87709400D02*
X154175000Y-88009400D01*
X154175000Y-100309400D02*
X154175000Y-100709400D01*
X133175000Y-110509400D02*
X133175000Y-110909400D01*
X133175000Y-90109400D02*
X133175000Y-90509400D01*
X154175000Y-90109400D02*
X154175000Y-90509400D01*
X154175000Y-102809400D02*
X154175000Y-103209400D01*
X133175000Y-105409400D02*
X133175000Y-105809400D01*
X154175000Y-95209400D02*
X154175000Y-95609400D01*
X133175000Y-118109400D02*
X133175000Y-118509400D01*
X154175000Y-110509400D02*
X154175000Y-110909400D01*
X154175000Y-113009400D02*
X154175000Y-113409400D01*
X133175000Y-102809400D02*
X133175000Y-103209400D01*
X154175000Y-118109400D02*
X154175000Y-118509400D01*
%TO.C,R6*%
X129720000Y-108072064D02*
X129720000Y-107617936D01*
X131190000Y-108072064D02*
X131190000Y-107617936D01*
%TO.C,R2*%
X159522936Y-121310000D02*
X159977064Y-121310000D01*
X159522936Y-119840000D02*
X159977064Y-119840000D01*
%TO.C,C14*%
X125587052Y-126547600D02*
X125064548Y-126547600D01*
X125587052Y-125077600D02*
X125064548Y-125077600D01*
%TO.C,C2*%
X157665000Y-97836252D02*
X157665000Y-97313748D01*
X159135000Y-97836252D02*
X159135000Y-97313748D01*
%TO.C,J7*%
X129907400Y-97395400D02*
X129907400Y-94795400D01*
X129907400Y-97395400D02*
X127247400Y-97395400D01*
X127247400Y-97395400D02*
X127247400Y-94795400D01*
X129907400Y-94795400D02*
X127247400Y-94795400D01*
X127247400Y-99995400D02*
X127247400Y-98665400D01*
X128577400Y-99995400D02*
X127247400Y-99995400D01*
%TO.C,C12*%
X134019852Y-127058800D02*
X133497348Y-127058800D01*
X134019852Y-128528800D02*
X133497348Y-128528800D01*
%TO.C,J4*%
X138385000Y-131465000D02*
X138385000Y-130315000D01*
X137335000Y-130315000D02*
X137335000Y-129325000D01*
X132165000Y-131465000D02*
X132165000Y-130315000D01*
X132165000Y-130315000D02*
X133215000Y-130315000D01*
X138385000Y-130315000D02*
X137335000Y-130315000D01*
X137215000Y-133435000D02*
X133335000Y-133435000D01*
%TO.C,kibuzzard-6378F2ED*%
G36*
X117841042Y-96576876D02*
G01*
X117841042Y-99575763D01*
X116915000Y-100193124D01*
X115988958Y-99575763D01*
X115988958Y-98799426D01*
X116319687Y-98799426D01*
X116333380Y-98931188D01*
X116374456Y-99034376D01*
X116449267Y-99112759D01*
X116564162Y-99170107D01*
X116664881Y-99196124D01*
X116787118Y-99211735D01*
X116930875Y-99216938D01*
X117079257Y-99210836D01*
X117203727Y-99192530D01*
X117304285Y-99162021D01*
X117380931Y-99119307D01*
X117452810Y-99040373D01*
X117495937Y-98933746D01*
X117510313Y-98799426D01*
X117502375Y-98674410D01*
X117478563Y-98550188D01*
X116351437Y-98550188D01*
X116327625Y-98669648D01*
X116319687Y-98799426D01*
X115988958Y-98799426D01*
X115988958Y-97943763D01*
X116335562Y-97943763D01*
X117176937Y-97943763D01*
X117176937Y-97946938D01*
X116335562Y-98194588D01*
X116335562Y-98372388D01*
X117494437Y-98372388D01*
X117494437Y-98205701D01*
X116653062Y-98205701D01*
X116653062Y-98200938D01*
X117494437Y-97953288D01*
X117494437Y-97769138D01*
X116335562Y-97769138D01*
X116335562Y-97943763D01*
X115988958Y-97943763D01*
X115988958Y-97332576D01*
X116319687Y-97332576D01*
X116325861Y-97427473D01*
X116344382Y-97517431D01*
X116375250Y-97602451D01*
X117026125Y-97602451D01*
X117026125Y-97232563D01*
X116891187Y-97232563D01*
X116891187Y-97432588D01*
X116475262Y-97432588D01*
X116456212Y-97337338D01*
X116483200Y-97240501D01*
X116564162Y-97169063D01*
X116652004Y-97136431D01*
X116771596Y-97116852D01*
X116922937Y-97110326D01*
X117070840Y-97117205D01*
X117186462Y-97137842D01*
X117269806Y-97172238D01*
X117345411Y-97251216D01*
X117370612Y-97364326D01*
X117361087Y-97461560D01*
X117332512Y-97562763D01*
X117475387Y-97562763D01*
X117501581Y-97465529D01*
X117510313Y-97364326D01*
X117494614Y-97233357D01*
X117447518Y-97126201D01*
X117369025Y-97042857D01*
X117288162Y-96995976D01*
X117186859Y-96962490D01*
X117065118Y-96942398D01*
X116922937Y-96935701D01*
X116781551Y-96941902D01*
X116659016Y-96960505D01*
X116555332Y-96991511D01*
X116470500Y-97034919D01*
X116404520Y-97090730D01*
X116357391Y-97158943D01*
X116329113Y-97239558D01*
X116319687Y-97332576D01*
X115988958Y-97332576D01*
X115988958Y-96576876D01*
X117841042Y-96576876D01*
G37*
G36*
X117372200Y-98799426D02*
G01*
X117347594Y-98909360D01*
X117273775Y-98985163D01*
X117191931Y-99017795D01*
X117077631Y-99037374D01*
X116930875Y-99043901D01*
X116768774Y-99037463D01*
X116644419Y-99018148D01*
X116557812Y-98985957D01*
X116481612Y-98910352D01*
X116456212Y-98799426D01*
X116470500Y-98727988D01*
X117357912Y-98727988D01*
X117372200Y-98799426D01*
G37*
%TO.C,R10*%
X131410000Y-113252064D02*
X131410000Y-112797936D01*
X129940000Y-113252064D02*
X129940000Y-112797936D01*
%TO.C,C5*%
X156365000Y-121288748D02*
X156365000Y-121811252D01*
X157835000Y-121288748D02*
X157835000Y-121811252D01*
%TO.C,R9*%
X131369400Y-116717864D02*
X131369400Y-116263736D01*
X129899400Y-116717864D02*
X129899400Y-116263736D01*
%TO.C,C8*%
X142249452Y-126547600D02*
X141726948Y-126547600D01*
X142249452Y-125077600D02*
X141726948Y-125077600D01*
%TO.C,kibuzzard-6378F316*%
G36*
X118693861Y-104605000D02*
G01*
X119305931Y-103686896D01*
X121396139Y-103686896D01*
X121396139Y-105523104D01*
X119305931Y-105523104D01*
X119053695Y-105144750D01*
X119636660Y-105144750D01*
X119745800Y-105180469D01*
X119863672Y-105192375D01*
X119972504Y-105182497D01*
X120059817Y-105152864D01*
X120125610Y-105103475D01*
X120171471Y-105031156D01*
X120198987Y-104932731D01*
X120208160Y-104808200D01*
X120198000Y-104673897D01*
X120167520Y-104569440D01*
X120116720Y-104494828D01*
X120045600Y-104450060D01*
X119954160Y-104435138D01*
X119878753Y-104445059D01*
X119814460Y-104474825D01*
X119811285Y-104474825D01*
X119822397Y-104154150D01*
X120176410Y-104154150D01*
X120176410Y-104017625D01*
X120343097Y-104017625D01*
X120600272Y-105176500D01*
X120806647Y-105176500D01*
X121065410Y-104017625D01*
X120889197Y-104017625D01*
X120708222Y-105017750D01*
X120706635Y-105017750D01*
X120525660Y-104017625D01*
X120343097Y-104017625D01*
X120176410Y-104017625D01*
X119660472Y-104017625D01*
X119644597Y-104633575D01*
X119790647Y-104633575D01*
X119845813Y-104585950D01*
X119906535Y-104570075D01*
X120000197Y-104624844D01*
X120022819Y-104698067D01*
X120030360Y-104808200D01*
X120019644Y-104924286D01*
X119987497Y-104999494D01*
X119931935Y-105040570D01*
X119850972Y-105054263D01*
X119745007Y-105039181D01*
X119636660Y-104993937D01*
X119636660Y-105144750D01*
X119053695Y-105144750D01*
X118693861Y-104605000D01*
G37*
%TO.C,C9*%
X159115052Y-127058800D02*
X158592548Y-127058800D01*
X159115052Y-128528800D02*
X158592548Y-128528800D01*
%TO.C,R7*%
X128002064Y-106390000D02*
X127547936Y-106390000D01*
X128002064Y-107860000D02*
X127547936Y-107860000D01*
%TO.C,J8*%
X125855000Y-110520000D02*
X123255000Y-110520000D01*
X128455000Y-111850000D02*
X128455000Y-113180000D01*
X125855000Y-113180000D02*
X123255000Y-113180000D01*
X128455000Y-113180000D02*
X127125000Y-113180000D01*
X123255000Y-110520000D02*
X123255000Y-113180000D01*
X125855000Y-110520000D02*
X125855000Y-113180000D01*
%TO.C,J6*%
X118215000Y-100765000D02*
X115555000Y-100765000D01*
X115555000Y-105905000D02*
X115555000Y-100765000D01*
X118215000Y-107175000D02*
X118215000Y-108505000D01*
X118215000Y-108505000D02*
X116885000Y-108505000D01*
X118215000Y-105905000D02*
X115555000Y-105905000D01*
X118215000Y-105905000D02*
X118215000Y-100765000D01*
%TO.C,SW1*%
X168539050Y-111610000D02*
G75*
G03*
X168539050Y-111610000I-4579050J0D01*
G01*
X170150000Y-105360000D02*
X170150000Y-117660000D01*
X167430000Y-105360000D02*
X170150000Y-105360000D01*
X162430000Y-105360000D02*
X165570000Y-105360000D01*
X157850000Y-117660000D02*
X157850000Y-105360000D01*
X170150000Y-117660000D02*
X167430000Y-117660000D01*
X157850000Y-105360000D02*
X160570000Y-105360000D01*
X165570000Y-117660000D02*
X162430000Y-117660000D01*
X160570000Y-117660000D02*
X157850000Y-117660000D01*
%TO.C,C13*%
X150733052Y-127058800D02*
X150210548Y-127058800D01*
X150733052Y-128528800D02*
X150210548Y-128528800D01*
%TO.C,R8*%
X120802064Y-101390000D02*
X120347936Y-101390000D01*
X120802064Y-102860000D02*
X120347936Y-102860000D01*
%TO.C,C15*%
X134019852Y-125077600D02*
X133497348Y-125077600D01*
X134019852Y-126547600D02*
X133497348Y-126547600D01*
%TO.C,Q1*%
X124075000Y-104765000D02*
X123425000Y-104765000D01*
X124075000Y-107885000D02*
X123425000Y-107885000D01*
X124075000Y-107885000D02*
X125750000Y-107885000D01*
X124075000Y-104765000D02*
X124725000Y-104765000D01*
%TO.C,R5*%
X128603936Y-119083200D02*
X129058064Y-119083200D01*
X128603936Y-120553200D02*
X129058064Y-120553200D01*
%TO.C,R1*%
X130364564Y-102560000D02*
X129910436Y-102560000D01*
X130364564Y-101090000D02*
X129910436Y-101090000D01*
%TO.C,C16*%
X150733052Y-125058800D02*
X150210548Y-125058800D01*
X150733052Y-126528800D02*
X150210548Y-126528800D01*
%TO.C,C3*%
X157260000Y-92688748D02*
X157260000Y-93211252D01*
X155790000Y-92688748D02*
X155790000Y-93211252D01*
%TO.C,R3*%
X165022936Y-121335000D02*
X165477064Y-121335000D01*
X165022936Y-119865000D02*
X165477064Y-119865000D01*
%TO.C,C4*%
X159260000Y-92693748D02*
X159260000Y-93216252D01*
X157790000Y-92693748D02*
X157790000Y-93216252D01*
%TO.C,kibuzzard-637AF646*%
G36*
X124848958Y-99024443D02*
G01*
X124848958Y-98617994D01*
X125195563Y-98617994D01*
X126354438Y-98617994D01*
X126354438Y-98070306D01*
X126216325Y-98070306D01*
X126216325Y-98440194D01*
X125195563Y-98440194D01*
X125195563Y-98617994D01*
X124848958Y-98617994D01*
X124848958Y-97852819D01*
X125195563Y-97852819D01*
X126354438Y-97852819D01*
X126354438Y-97297194D01*
X126216325Y-97297194D01*
X126216325Y-97675019D01*
X125798813Y-97675019D01*
X125798813Y-97313069D01*
X125663875Y-97313069D01*
X125663875Y-97675019D01*
X125333675Y-97675019D01*
X125333675Y-97297194D01*
X125195563Y-97297194D01*
X125195563Y-97852819D01*
X124848958Y-97852819D01*
X124848958Y-96849519D01*
X125179687Y-96849519D01*
X125187625Y-96974534D01*
X125211437Y-97098756D01*
X126338563Y-97098756D01*
X126362375Y-96979297D01*
X126370313Y-96849519D01*
X126356620Y-96717756D01*
X126315544Y-96614569D01*
X126240733Y-96536186D01*
X126125838Y-96478837D01*
X126025119Y-96452820D01*
X125902882Y-96437210D01*
X125759125Y-96432006D01*
X125610743Y-96438108D01*
X125486273Y-96456414D01*
X125385715Y-96486924D01*
X125309069Y-96529637D01*
X125237190Y-96608572D01*
X125194063Y-96715199D01*
X125179687Y-96849519D01*
X124848958Y-96849519D01*
X124848958Y-96025557D01*
X126701042Y-96025557D01*
X126701042Y-99024443D01*
X124848958Y-99024443D01*
G37*
G36*
X125921226Y-96611482D02*
G01*
X126045581Y-96630797D01*
X126132188Y-96662988D01*
X126208388Y-96738592D01*
X126233788Y-96849519D01*
X126219500Y-96920956D01*
X125332088Y-96920956D01*
X125317800Y-96849519D01*
X125342406Y-96739584D01*
X125416225Y-96663781D01*
X125498069Y-96631149D01*
X125612369Y-96611570D01*
X125759125Y-96605044D01*
X125921226Y-96611482D01*
G37*
%TD*%
M02*
