%TF.GenerationSoftware,KiCad,Pcbnew,(6.0.9)*%
%TF.CreationDate,2022-11-23T22:08:25-07:00*%
%TF.ProjectId,AQM,41514d2e-6b69-4636-9164-5f7063625858,rev?*%
%TF.SameCoordinates,Original*%
%TF.FileFunction,Soldermask,Bot*%
%TF.FilePolarity,Negative*%
%FSLAX46Y46*%
G04 Gerber Fmt 4.6, Leading zero omitted, Abs format (unit mm)*
G04 Created by KiCad (PCBNEW (6.0.9)) date 2022-11-23 22:08:25*
%MOMM*%
%LPD*%
G01*
G04 APERTURE LIST*
G04 Aperture macros list*
%AMFreePoly0*
4,1,6,1.000000,0.000000,0.500000,-0.750000,-0.500000,-0.750000,-0.500000,0.750000,0.500000,0.750000,1.000000,0.000000,1.000000,0.000000,$1*%
G04 Aperture macros list end*
%ADD10C,0.066000*%
%ADD11C,5.600000*%
%ADD12O,1.700000X1.700000*%
%ADD13R,1.700000X1.700000*%
%ADD14O,1.850000X3.048000*%
%ADD15FreePoly0,0.000000*%
%ADD16FreePoly0,180.000000*%
%ADD17R,1.500000X1.500000*%
G04 APERTURE END LIST*
D10*
G36*
X145042290Y-108359762D02*
G01*
X145041100Y-108459005D01*
X145041716Y-108510794D01*
X145042940Y-108536672D01*
X145045009Y-108562327D01*
X145048097Y-108587600D01*
X145052380Y-108612331D01*
X145058033Y-108636361D01*
X145065231Y-108659531D01*
X145069465Y-108670744D01*
X145074150Y-108681682D01*
X145079310Y-108692325D01*
X145084965Y-108702653D01*
X145091138Y-108712647D01*
X145097851Y-108722286D01*
X145105126Y-108731551D01*
X145112984Y-108740422D01*
X145124448Y-108751074D01*
X145136382Y-108760644D01*
X145148746Y-108769194D01*
X145161501Y-108776788D01*
X145174606Y-108783490D01*
X145188021Y-108789363D01*
X145201708Y-108794472D01*
X145215626Y-108798879D01*
X145229734Y-108802650D01*
X145243994Y-108805847D01*
X145258366Y-108808534D01*
X145272809Y-108810775D01*
X145287285Y-108812634D01*
X145301752Y-108814174D01*
X145330503Y-108816553D01*
X145347081Y-108818247D01*
X145362186Y-108819400D01*
X145388197Y-108820971D01*
X145399215Y-108821837D01*
X145408982Y-108823053D01*
X145413415Y-108823862D01*
X145417555Y-108824842D01*
X145421411Y-108826022D01*
X145424988Y-108827429D01*
X145428295Y-108829090D01*
X145431339Y-108831034D01*
X145434125Y-108833289D01*
X145436661Y-108835883D01*
X145438954Y-108838843D01*
X145441012Y-108842197D01*
X145442840Y-108845974D01*
X145444446Y-108850200D01*
X145445838Y-108854905D01*
X145447021Y-108860115D01*
X145448003Y-108865859D01*
X145448790Y-108872164D01*
X145449391Y-108879060D01*
X145449811Y-108886572D01*
X145450139Y-108903560D01*
X143971004Y-108903560D01*
X143971004Y-108821990D01*
X144036260Y-108821990D01*
X144101516Y-108816552D01*
X144133904Y-108811582D01*
X144149169Y-108808427D01*
X144163830Y-108804827D01*
X144177897Y-108800780D01*
X144191382Y-108796287D01*
X144204296Y-108791348D01*
X144216649Y-108785964D01*
X144228452Y-108780133D01*
X144239716Y-108773856D01*
X144250453Y-108767132D01*
X144260673Y-108759963D01*
X144270387Y-108752348D01*
X144279606Y-108744286D01*
X144288342Y-108735779D01*
X144296604Y-108726825D01*
X144304404Y-108717426D01*
X144311754Y-108707580D01*
X144318663Y-108697288D01*
X144325143Y-108686550D01*
X144331205Y-108675366D01*
X144336859Y-108663736D01*
X144346990Y-108639138D01*
X144355624Y-108612755D01*
X144362848Y-108584588D01*
X144368749Y-108554636D01*
X144373416Y-108522900D01*
X144383017Y-108399844D01*
X144388030Y-108275642D01*
X144389475Y-108150674D01*
X144388370Y-108025324D01*
X144382592Y-107775007D01*
X144379958Y-107650804D01*
X144378853Y-107527747D01*
X144361772Y-107528313D01*
X144345187Y-107529979D01*
X144329084Y-107532699D01*
X144313449Y-107536425D01*
X144298268Y-107541111D01*
X144283527Y-107546710D01*
X144269212Y-107553175D01*
X144255309Y-107560460D01*
X144241805Y-107568518D01*
X144228685Y-107577301D01*
X144215935Y-107586764D01*
X144203542Y-107596859D01*
X144179769Y-107618758D01*
X144157255Y-107642625D01*
X144135889Y-107668085D01*
X144115557Y-107694764D01*
X144096150Y-107722287D01*
X144077555Y-107750280D01*
X144009070Y-107859465D01*
X143334758Y-108903560D01*
X142421174Y-108903560D01*
X142421174Y-108821990D01*
X142438302Y-108821471D01*
X142455022Y-108819942D01*
X142471342Y-108817442D01*
X142487269Y-108814014D01*
X142502809Y-108809697D01*
X142517971Y-108804533D01*
X142532759Y-108798563D01*
X142547183Y-108791827D01*
X142561247Y-108784365D01*
X142574961Y-108776220D01*
X142588329Y-108767432D01*
X142601361Y-108758041D01*
X142626438Y-108737615D01*
X142650249Y-108715270D01*
X142672850Y-108691332D01*
X142694295Y-108666126D01*
X142714641Y-108639981D01*
X142733943Y-108613223D01*
X142752258Y-108586178D01*
X142769641Y-108559172D01*
X142801834Y-108506587D01*
X142973810Y-108229929D01*
X143061073Y-108092874D01*
X143149866Y-107957349D01*
X143210194Y-107862609D01*
X143318444Y-107697005D01*
X143375564Y-107612642D01*
X143426694Y-107540578D01*
X143448140Y-107512285D01*
X143465843Y-107490818D01*
X143479053Y-107477429D01*
X143483739Y-107474154D01*
X143487021Y-107473368D01*
X143451472Y-107461273D01*
X143416242Y-107447474D01*
X143381394Y-107432049D01*
X143346993Y-107415079D01*
X143313101Y-107396644D01*
X143279783Y-107376822D01*
X143247101Y-107355694D01*
X143215121Y-107333339D01*
X143183906Y-107309837D01*
X143153519Y-107285268D01*
X143124024Y-107259711D01*
X143095486Y-107233246D01*
X143067966Y-107205953D01*
X143041530Y-107177910D01*
X143016242Y-107149199D01*
X142992164Y-107119898D01*
X142973011Y-107094080D01*
X142955311Y-107067637D01*
X142939048Y-107040612D01*
X142924210Y-107013050D01*
X142910781Y-106984994D01*
X142898748Y-106956487D01*
X142888098Y-106927575D01*
X142878815Y-106898300D01*
X142870887Y-106868706D01*
X142864299Y-106838837D01*
X142859037Y-106808738D01*
X142855088Y-106778451D01*
X142851070Y-106717491D01*
X142852064Y-106660388D01*
X143544121Y-106660388D01*
X143545119Y-106716024D01*
X143550068Y-106771549D01*
X143558841Y-106826595D01*
X143571311Y-106880797D01*
X143587349Y-106933789D01*
X143606828Y-106985203D01*
X143629621Y-107034673D01*
X143655600Y-107081833D01*
X143670747Y-107106073D01*
X143686604Y-107128859D01*
X143703148Y-107150238D01*
X143720357Y-107170254D01*
X143738206Y-107188951D01*
X143756674Y-107206375D01*
X143775737Y-107222570D01*
X143795373Y-107237581D01*
X143815559Y-107251453D01*
X143836271Y-107264230D01*
X143879184Y-107286682D01*
X143923930Y-107305294D01*
X143970324Y-107320425D01*
X144018184Y-107332434D01*
X144067326Y-107341678D01*
X144117568Y-107348517D01*
X144168726Y-107353308D01*
X144220616Y-107356411D01*
X144273057Y-107358183D01*
X144378853Y-107359171D01*
X144378853Y-106054052D01*
X144155895Y-106054052D01*
X144123222Y-106054877D01*
X144090533Y-106057344D01*
X144057940Y-106061436D01*
X144025553Y-106067137D01*
X143993486Y-106074431D01*
X143961848Y-106083302D01*
X143930752Y-106093735D01*
X143900309Y-106105713D01*
X143870631Y-106119220D01*
X143841830Y-106134241D01*
X143814016Y-106150759D01*
X143787301Y-106168759D01*
X143761797Y-106188225D01*
X143737616Y-106209141D01*
X143714868Y-106231490D01*
X143693665Y-106255257D01*
X143675437Y-106276550D01*
X143658467Y-106298594D01*
X143642740Y-106321343D01*
X143628239Y-106344751D01*
X143614950Y-106368772D01*
X143602855Y-106393361D01*
X143591939Y-106418471D01*
X143582186Y-106444058D01*
X143566106Y-106496476D01*
X143554487Y-106550248D01*
X143547201Y-106605007D01*
X143544121Y-106660388D01*
X142852064Y-106660388D01*
X142852135Y-106656309D01*
X142858170Y-106595253D01*
X142869065Y-106534676D01*
X142884707Y-106474927D01*
X142904985Y-106416357D01*
X142929788Y-106359316D01*
X142959004Y-106304156D01*
X142992522Y-106251226D01*
X143030229Y-106200876D01*
X143067997Y-106157249D01*
X143107795Y-106117979D01*
X143149490Y-106082835D01*
X143192944Y-106051587D01*
X143238024Y-106024002D01*
X143284594Y-105999851D01*
X143332518Y-105978902D01*
X143381660Y-105960925D01*
X143431886Y-105945688D01*
X143483060Y-105932960D01*
X143535046Y-105922510D01*
X143587709Y-105914107D01*
X143640914Y-105907521D01*
X143694525Y-105902520D01*
X143802425Y-105896349D01*
X143916623Y-105892993D01*
X144030821Y-105890911D01*
X144259217Y-105889551D01*
X144716009Y-105890911D01*
X145450139Y-105890911D01*
X145450139Y-105967043D01*
X145449654Y-105966596D01*
X145448241Y-105966270D01*
X145442863Y-105965960D01*
X145423543Y-105966533D01*
X145395939Y-105968381D01*
X145363811Y-105971122D01*
X145330917Y-105974372D01*
X145301019Y-105977749D01*
X145277875Y-105980872D01*
X145270012Y-105982218D01*
X145265247Y-105983357D01*
X145252956Y-105985592D01*
X145240585Y-105988232D01*
X145228182Y-105991303D01*
X145215795Y-105994828D01*
X145203472Y-105998831D01*
X145191260Y-106003335D01*
X145179208Y-106008366D01*
X145167363Y-106013946D01*
X145155773Y-106020099D01*
X145144485Y-106026850D01*
X145133548Y-106034223D01*
X145123009Y-106042240D01*
X145112916Y-106050927D01*
X145103318Y-106060307D01*
X145094260Y-106070404D01*
X145089950Y-106075728D01*
X145085793Y-106081241D01*
X145078013Y-106094778D01*
X145070966Y-106108855D01*
X145064620Y-106123440D01*
X145058943Y-106138500D01*
X145049469Y-106169913D01*
X145042289Y-106202832D01*
X145037149Y-106236993D01*
X145033792Y-106272134D01*
X145031966Y-106307992D01*
X145031413Y-106344304D01*
X145042289Y-106619603D01*
X145042289Y-108359762D01*
X145042290Y-108359762D01*
G37*
X145042290Y-108359762D02*
X145041100Y-108459005D01*
X145041716Y-108510794D01*
X145042940Y-108536672D01*
X145045009Y-108562327D01*
X145048097Y-108587600D01*
X145052380Y-108612331D01*
X145058033Y-108636361D01*
X145065231Y-108659531D01*
X145069465Y-108670744D01*
X145074150Y-108681682D01*
X145079310Y-108692325D01*
X145084965Y-108702653D01*
X145091138Y-108712647D01*
X145097851Y-108722286D01*
X145105126Y-108731551D01*
X145112984Y-108740422D01*
X145124448Y-108751074D01*
X145136382Y-108760644D01*
X145148746Y-108769194D01*
X145161501Y-108776788D01*
X145174606Y-108783490D01*
X145188021Y-108789363D01*
X145201708Y-108794472D01*
X145215626Y-108798879D01*
X145229734Y-108802650D01*
X145243994Y-108805847D01*
X145258366Y-108808534D01*
X145272809Y-108810775D01*
X145287285Y-108812634D01*
X145301752Y-108814174D01*
X145330503Y-108816553D01*
X145347081Y-108818247D01*
X145362186Y-108819400D01*
X145388197Y-108820971D01*
X145399215Y-108821837D01*
X145408982Y-108823053D01*
X145413415Y-108823862D01*
X145417555Y-108824842D01*
X145421411Y-108826022D01*
X145424988Y-108827429D01*
X145428295Y-108829090D01*
X145431339Y-108831034D01*
X145434125Y-108833289D01*
X145436661Y-108835883D01*
X145438954Y-108838843D01*
X145441012Y-108842197D01*
X145442840Y-108845974D01*
X145444446Y-108850200D01*
X145445838Y-108854905D01*
X145447021Y-108860115D01*
X145448003Y-108865859D01*
X145448790Y-108872164D01*
X145449391Y-108879060D01*
X145449811Y-108886572D01*
X145450139Y-108903560D01*
X143971004Y-108903560D01*
X143971004Y-108821990D01*
X144036260Y-108821990D01*
X144101516Y-108816552D01*
X144133904Y-108811582D01*
X144149169Y-108808427D01*
X144163830Y-108804827D01*
X144177897Y-108800780D01*
X144191382Y-108796287D01*
X144204296Y-108791348D01*
X144216649Y-108785964D01*
X144228452Y-108780133D01*
X144239716Y-108773856D01*
X144250453Y-108767132D01*
X144260673Y-108759963D01*
X144270387Y-108752348D01*
X144279606Y-108744286D01*
X144288342Y-108735779D01*
X144296604Y-108726825D01*
X144304404Y-108717426D01*
X144311754Y-108707580D01*
X144318663Y-108697288D01*
X144325143Y-108686550D01*
X144331205Y-108675366D01*
X144336859Y-108663736D01*
X144346990Y-108639138D01*
X144355624Y-108612755D01*
X144362848Y-108584588D01*
X144368749Y-108554636D01*
X144373416Y-108522900D01*
X144383017Y-108399844D01*
X144388030Y-108275642D01*
X144389475Y-108150674D01*
X144388370Y-108025324D01*
X144382592Y-107775007D01*
X144379958Y-107650804D01*
X144378853Y-107527747D01*
X144361772Y-107528313D01*
X144345187Y-107529979D01*
X144329084Y-107532699D01*
X144313449Y-107536425D01*
X144298268Y-107541111D01*
X144283527Y-107546710D01*
X144269212Y-107553175D01*
X144255309Y-107560460D01*
X144241805Y-107568518D01*
X144228685Y-107577301D01*
X144215935Y-107586764D01*
X144203542Y-107596859D01*
X144179769Y-107618758D01*
X144157255Y-107642625D01*
X144135889Y-107668085D01*
X144115557Y-107694764D01*
X144096150Y-107722287D01*
X144077555Y-107750280D01*
X144009070Y-107859465D01*
X143334758Y-108903560D01*
X142421174Y-108903560D01*
X142421174Y-108821990D01*
X142438302Y-108821471D01*
X142455022Y-108819942D01*
X142471342Y-108817442D01*
X142487269Y-108814014D01*
X142502809Y-108809697D01*
X142517971Y-108804533D01*
X142532759Y-108798563D01*
X142547183Y-108791827D01*
X142561247Y-108784365D01*
X142574961Y-108776220D01*
X142588329Y-108767432D01*
X142601361Y-108758041D01*
X142626438Y-108737615D01*
X142650249Y-108715270D01*
X142672850Y-108691332D01*
X142694295Y-108666126D01*
X142714641Y-108639981D01*
X142733943Y-108613223D01*
X142752258Y-108586178D01*
X142769641Y-108559172D01*
X142801834Y-108506587D01*
X142973810Y-108229929D01*
X143061073Y-108092874D01*
X143149866Y-107957349D01*
X143210194Y-107862609D01*
X143318444Y-107697005D01*
X143375564Y-107612642D01*
X143426694Y-107540578D01*
X143448140Y-107512285D01*
X143465843Y-107490818D01*
X143479053Y-107477429D01*
X143483739Y-107474154D01*
X143487021Y-107473368D01*
X143451472Y-107461273D01*
X143416242Y-107447474D01*
X143381394Y-107432049D01*
X143346993Y-107415079D01*
X143313101Y-107396644D01*
X143279783Y-107376822D01*
X143247101Y-107355694D01*
X143215121Y-107333339D01*
X143183906Y-107309837D01*
X143153519Y-107285268D01*
X143124024Y-107259711D01*
X143095486Y-107233246D01*
X143067966Y-107205953D01*
X143041530Y-107177910D01*
X143016242Y-107149199D01*
X142992164Y-107119898D01*
X142973011Y-107094080D01*
X142955311Y-107067637D01*
X142939048Y-107040612D01*
X142924210Y-107013050D01*
X142910781Y-106984994D01*
X142898748Y-106956487D01*
X142888098Y-106927575D01*
X142878815Y-106898300D01*
X142870887Y-106868706D01*
X142864299Y-106838837D01*
X142859037Y-106808738D01*
X142855088Y-106778451D01*
X142851070Y-106717491D01*
X142852064Y-106660388D01*
X143544121Y-106660388D01*
X143545119Y-106716024D01*
X143550068Y-106771549D01*
X143558841Y-106826595D01*
X143571311Y-106880797D01*
X143587349Y-106933789D01*
X143606828Y-106985203D01*
X143629621Y-107034673D01*
X143655600Y-107081833D01*
X143670747Y-107106073D01*
X143686604Y-107128859D01*
X143703148Y-107150238D01*
X143720357Y-107170254D01*
X143738206Y-107188951D01*
X143756674Y-107206375D01*
X143775737Y-107222570D01*
X143795373Y-107237581D01*
X143815559Y-107251453D01*
X143836271Y-107264230D01*
X143879184Y-107286682D01*
X143923930Y-107305294D01*
X143970324Y-107320425D01*
X144018184Y-107332434D01*
X144067326Y-107341678D01*
X144117568Y-107348517D01*
X144168726Y-107353308D01*
X144220616Y-107356411D01*
X144273057Y-107358183D01*
X144378853Y-107359171D01*
X144378853Y-106054052D01*
X144155895Y-106054052D01*
X144123222Y-106054877D01*
X144090533Y-106057344D01*
X144057940Y-106061436D01*
X144025553Y-106067137D01*
X143993486Y-106074431D01*
X143961848Y-106083302D01*
X143930752Y-106093735D01*
X143900309Y-106105713D01*
X143870631Y-106119220D01*
X143841830Y-106134241D01*
X143814016Y-106150759D01*
X143787301Y-106168759D01*
X143761797Y-106188225D01*
X143737616Y-106209141D01*
X143714868Y-106231490D01*
X143693665Y-106255257D01*
X143675437Y-106276550D01*
X143658467Y-106298594D01*
X143642740Y-106321343D01*
X143628239Y-106344751D01*
X143614950Y-106368772D01*
X143602855Y-106393361D01*
X143591939Y-106418471D01*
X143582186Y-106444058D01*
X143566106Y-106496476D01*
X143554487Y-106550248D01*
X143547201Y-106605007D01*
X143544121Y-106660388D01*
X142852064Y-106660388D01*
X142852135Y-106656309D01*
X142858170Y-106595253D01*
X142869065Y-106534676D01*
X142884707Y-106474927D01*
X142904985Y-106416357D01*
X142929788Y-106359316D01*
X142959004Y-106304156D01*
X142992522Y-106251226D01*
X143030229Y-106200876D01*
X143067997Y-106157249D01*
X143107795Y-106117979D01*
X143149490Y-106082835D01*
X143192944Y-106051587D01*
X143238024Y-106024002D01*
X143284594Y-105999851D01*
X143332518Y-105978902D01*
X143381660Y-105960925D01*
X143431886Y-105945688D01*
X143483060Y-105932960D01*
X143535046Y-105922510D01*
X143587709Y-105914107D01*
X143640914Y-105907521D01*
X143694525Y-105902520D01*
X143802425Y-105896349D01*
X143916623Y-105892993D01*
X144030821Y-105890911D01*
X144259217Y-105889551D01*
X144716009Y-105890911D01*
X145450139Y-105890911D01*
X145450139Y-105967043D01*
X145449654Y-105966596D01*
X145448241Y-105966270D01*
X145442863Y-105965960D01*
X145423543Y-105966533D01*
X145395939Y-105968381D01*
X145363811Y-105971122D01*
X145330917Y-105974372D01*
X145301019Y-105977749D01*
X145277875Y-105980872D01*
X145270012Y-105982218D01*
X145265247Y-105983357D01*
X145252956Y-105985592D01*
X145240585Y-105988232D01*
X145228182Y-105991303D01*
X145215795Y-105994828D01*
X145203472Y-105998831D01*
X145191260Y-106003335D01*
X145179208Y-106008366D01*
X145167363Y-106013946D01*
X145155773Y-106020099D01*
X145144485Y-106026850D01*
X145133548Y-106034223D01*
X145123009Y-106042240D01*
X145112916Y-106050927D01*
X145103318Y-106060307D01*
X145094260Y-106070404D01*
X145089950Y-106075728D01*
X145085793Y-106081241D01*
X145078013Y-106094778D01*
X145070966Y-106108855D01*
X145064620Y-106123440D01*
X145058943Y-106138500D01*
X145049469Y-106169913D01*
X145042289Y-106202832D01*
X145037149Y-106236993D01*
X145033792Y-106272134D01*
X145031966Y-106307992D01*
X145031413Y-106344304D01*
X145042289Y-106619603D01*
X145042289Y-108359762D01*
X145042290Y-108359762D01*
G36*
X147288182Y-102541104D02*
G01*
X147287761Y-102540642D01*
X147286532Y-102540269D01*
X147281863Y-102539777D01*
X147265156Y-102539660D01*
X147241439Y-102540435D01*
X147214090Y-102541784D01*
X147135919Y-102546542D01*
X147109734Y-102550601D01*
X147085186Y-102555623D01*
X147062220Y-102561586D01*
X147040786Y-102568464D01*
X147020828Y-102576235D01*
X147002296Y-102584874D01*
X146985136Y-102594357D01*
X146969295Y-102604661D01*
X146954721Y-102615761D01*
X146941360Y-102627634D01*
X146929161Y-102640256D01*
X146918069Y-102653603D01*
X146908034Y-102667651D01*
X146899001Y-102682375D01*
X146890917Y-102697753D01*
X146883731Y-102713761D01*
X146877390Y-102730373D01*
X146871840Y-102747568D01*
X146862904Y-102783605D01*
X146856500Y-102821682D01*
X146852208Y-102861606D01*
X146849605Y-102903188D01*
X146848268Y-102946235D01*
X146847705Y-103035962D01*
X146850849Y-103204115D01*
X146852463Y-103373798D01*
X146853143Y-103715712D01*
X146851581Y-103760575D01*
X146850849Y-103805439D01*
X146851103Y-103895166D01*
X146852378Y-103984893D01*
X146853143Y-104074620D01*
X146853812Y-104088300D01*
X146855437Y-104107588D01*
X146857444Y-104130444D01*
X146859260Y-104154830D01*
X146860312Y-104178706D01*
X146860372Y-104189816D01*
X146860025Y-104200033D01*
X146859201Y-104209104D01*
X146857827Y-104216772D01*
X146856911Y-104220001D01*
X146855831Y-104222784D01*
X146854626Y-104225000D01*
X146853143Y-104226883D01*
X146854578Y-104225088D01*
X146854626Y-104225000D01*
X148245270Y-102459534D01*
X149316556Y-102459534D01*
X149316556Y-102541104D01*
X149276781Y-102542022D01*
X149237206Y-102544875D01*
X149198156Y-102549815D01*
X149159958Y-102556993D01*
X149141281Y-102561469D01*
X149122940Y-102566562D01*
X149104975Y-102572289D01*
X149087427Y-102578671D01*
X149070337Y-102585726D01*
X149053746Y-102593473D01*
X149037695Y-102601931D01*
X149022224Y-102611118D01*
X149007375Y-102621055D01*
X148993187Y-102631759D01*
X148979703Y-102643250D01*
X148966963Y-102655546D01*
X148955007Y-102668667D01*
X148943876Y-102682631D01*
X148933612Y-102697458D01*
X148924255Y-102713166D01*
X148915846Y-102729774D01*
X148908426Y-102747301D01*
X148902035Y-102765765D01*
X148896715Y-102785187D01*
X148892506Y-102805585D01*
X148889449Y-102826977D01*
X148887584Y-102849383D01*
X148886954Y-102872822D01*
X148886954Y-104950137D01*
X148886943Y-105000163D01*
X148887889Y-105051590D01*
X148889178Y-105077471D01*
X148891256Y-105103272D01*
X148894305Y-105128850D01*
X148898510Y-105154062D01*
X148904053Y-105178764D01*
X148911117Y-105202813D01*
X148915277Y-105214548D01*
X148919886Y-105226065D01*
X148924967Y-105237348D01*
X148930543Y-105248377D01*
X148936637Y-105259136D01*
X148943271Y-105269606D01*
X148950469Y-105279770D01*
X148958253Y-105289609D01*
X148966647Y-105299105D01*
X148975673Y-105308241D01*
X148985355Y-105316998D01*
X148995714Y-105325359D01*
X149004694Y-105330399D01*
X149018868Y-105337128D01*
X149059611Y-105354249D01*
X149111569Y-105373919D01*
X149168371Y-105393334D01*
X149196596Y-105402070D01*
X149223643Y-105409691D01*
X149248714Y-105415845D01*
X149271013Y-105420184D01*
X149289743Y-105422356D01*
X149297521Y-105422520D01*
X149304108Y-105422011D01*
X149309405Y-105420785D01*
X149313311Y-105418798D01*
X149315728Y-105416007D01*
X149316556Y-105412367D01*
X149316556Y-105493937D01*
X148267022Y-105493937D01*
X148267022Y-105412367D01*
X148293534Y-105411813D01*
X148319038Y-105410163D01*
X148343544Y-105407438D01*
X148367062Y-105403658D01*
X148389606Y-105398842D01*
X148411184Y-105393010D01*
X148431808Y-105386183D01*
X148451490Y-105378379D01*
X148470239Y-105369620D01*
X148488067Y-105359925D01*
X148504985Y-105349314D01*
X148521005Y-105337807D01*
X148536135Y-105325423D01*
X148550389Y-105312184D01*
X148563777Y-105298107D01*
X148576309Y-105283215D01*
X148587996Y-105267525D01*
X148598851Y-105251059D01*
X148608882Y-105233836D01*
X148618103Y-105215877D01*
X148626522Y-105197200D01*
X148634152Y-105177827D01*
X148641004Y-105157776D01*
X148647088Y-105137068D01*
X148656996Y-105093761D01*
X148663964Y-105048064D01*
X148668081Y-105000136D01*
X148669434Y-104950137D01*
X148669434Y-103074028D01*
X146700879Y-105537442D01*
X146635622Y-105537442D01*
X146635622Y-103851662D01*
X146636557Y-103640430D01*
X146639021Y-103430217D01*
X146646499Y-103008772D01*
X146645670Y-102945449D01*
X146644276Y-102912633D01*
X146641910Y-102879450D01*
X146638334Y-102846203D01*
X146633307Y-102813195D01*
X146626592Y-102780729D01*
X146617949Y-102749108D01*
X146612830Y-102733708D01*
X146607140Y-102718633D01*
X146600848Y-102703920D01*
X146593924Y-102689608D01*
X146586340Y-102675734D01*
X146578064Y-102662336D01*
X146569068Y-102649452D01*
X146559321Y-102637119D01*
X146548793Y-102625376D01*
X146537455Y-102614260D01*
X146525276Y-102603809D01*
X146512227Y-102594061D01*
X146498278Y-102585054D01*
X146483399Y-102576825D01*
X146467560Y-102569414D01*
X146450731Y-102562856D01*
X146432176Y-102559691D01*
X146400174Y-102554869D01*
X146359634Y-102549282D01*
X146315460Y-102543823D01*
X146272562Y-102539384D01*
X146235845Y-102536856D01*
X146221338Y-102536588D01*
X146210216Y-102537132D01*
X146206117Y-102537744D01*
X146203093Y-102538601D01*
X146201223Y-102539716D01*
X146200583Y-102541104D01*
X146200583Y-102459534D01*
X147288182Y-102459534D01*
X147288182Y-102541104D01*
G37*
X147288182Y-102541104D02*
X147287761Y-102540642D01*
X147286532Y-102540269D01*
X147281863Y-102539777D01*
X147265156Y-102539660D01*
X147241439Y-102540435D01*
X147214090Y-102541784D01*
X147135919Y-102546542D01*
X147109734Y-102550601D01*
X147085186Y-102555623D01*
X147062220Y-102561586D01*
X147040786Y-102568464D01*
X147020828Y-102576235D01*
X147002296Y-102584874D01*
X146985136Y-102594357D01*
X146969295Y-102604661D01*
X146954721Y-102615761D01*
X146941360Y-102627634D01*
X146929161Y-102640256D01*
X146918069Y-102653603D01*
X146908034Y-102667651D01*
X146899001Y-102682375D01*
X146890917Y-102697753D01*
X146883731Y-102713761D01*
X146877390Y-102730373D01*
X146871840Y-102747568D01*
X146862904Y-102783605D01*
X146856500Y-102821682D01*
X146852208Y-102861606D01*
X146849605Y-102903188D01*
X146848268Y-102946235D01*
X146847705Y-103035962D01*
X146850849Y-103204115D01*
X146852463Y-103373798D01*
X146853143Y-103715712D01*
X146851581Y-103760575D01*
X146850849Y-103805439D01*
X146851103Y-103895166D01*
X146852378Y-103984893D01*
X146853143Y-104074620D01*
X146853812Y-104088300D01*
X146855437Y-104107588D01*
X146857444Y-104130444D01*
X146859260Y-104154830D01*
X146860312Y-104178706D01*
X146860372Y-104189816D01*
X146860025Y-104200033D01*
X146859201Y-104209104D01*
X146857827Y-104216772D01*
X146856911Y-104220001D01*
X146855831Y-104222784D01*
X146854626Y-104225000D01*
X146853143Y-104226883D01*
X146854578Y-104225088D01*
X146854626Y-104225000D01*
X148245270Y-102459534D01*
X149316556Y-102459534D01*
X149316556Y-102541104D01*
X149276781Y-102542022D01*
X149237206Y-102544875D01*
X149198156Y-102549815D01*
X149159958Y-102556993D01*
X149141281Y-102561469D01*
X149122940Y-102566562D01*
X149104975Y-102572289D01*
X149087427Y-102578671D01*
X149070337Y-102585726D01*
X149053746Y-102593473D01*
X149037695Y-102601931D01*
X149022224Y-102611118D01*
X149007375Y-102621055D01*
X148993187Y-102631759D01*
X148979703Y-102643250D01*
X148966963Y-102655546D01*
X148955007Y-102668667D01*
X148943876Y-102682631D01*
X148933612Y-102697458D01*
X148924255Y-102713166D01*
X148915846Y-102729774D01*
X148908426Y-102747301D01*
X148902035Y-102765765D01*
X148896715Y-102785187D01*
X148892506Y-102805585D01*
X148889449Y-102826977D01*
X148887584Y-102849383D01*
X148886954Y-102872822D01*
X148886954Y-104950137D01*
X148886943Y-105000163D01*
X148887889Y-105051590D01*
X148889178Y-105077471D01*
X148891256Y-105103272D01*
X148894305Y-105128850D01*
X148898510Y-105154062D01*
X148904053Y-105178764D01*
X148911117Y-105202813D01*
X148915277Y-105214548D01*
X148919886Y-105226065D01*
X148924967Y-105237348D01*
X148930543Y-105248377D01*
X148936637Y-105259136D01*
X148943271Y-105269606D01*
X148950469Y-105279770D01*
X148958253Y-105289609D01*
X148966647Y-105299105D01*
X148975673Y-105308241D01*
X148985355Y-105316998D01*
X148995714Y-105325359D01*
X149004694Y-105330399D01*
X149018868Y-105337128D01*
X149059611Y-105354249D01*
X149111569Y-105373919D01*
X149168371Y-105393334D01*
X149196596Y-105402070D01*
X149223643Y-105409691D01*
X149248714Y-105415845D01*
X149271013Y-105420184D01*
X149289743Y-105422356D01*
X149297521Y-105422520D01*
X149304108Y-105422011D01*
X149309405Y-105420785D01*
X149313311Y-105418798D01*
X149315728Y-105416007D01*
X149316556Y-105412367D01*
X149316556Y-105493937D01*
X148267022Y-105493937D01*
X148267022Y-105412367D01*
X148293534Y-105411813D01*
X148319038Y-105410163D01*
X148343544Y-105407438D01*
X148367062Y-105403658D01*
X148389606Y-105398842D01*
X148411184Y-105393010D01*
X148431808Y-105386183D01*
X148451490Y-105378379D01*
X148470239Y-105369620D01*
X148488067Y-105359925D01*
X148504985Y-105349314D01*
X148521005Y-105337807D01*
X148536135Y-105325423D01*
X148550389Y-105312184D01*
X148563777Y-105298107D01*
X148576309Y-105283215D01*
X148587996Y-105267525D01*
X148598851Y-105251059D01*
X148608882Y-105233836D01*
X148618103Y-105215877D01*
X148626522Y-105197200D01*
X148634152Y-105177827D01*
X148641004Y-105157776D01*
X148647088Y-105137068D01*
X148656996Y-105093761D01*
X148663964Y-105048064D01*
X148668081Y-105000136D01*
X148669434Y-104950137D01*
X148669434Y-103074028D01*
X146700879Y-105537442D01*
X146635622Y-105537442D01*
X146635622Y-103851662D01*
X146636557Y-103640430D01*
X146639021Y-103430217D01*
X146646499Y-103008772D01*
X146645670Y-102945449D01*
X146644276Y-102912633D01*
X146641910Y-102879450D01*
X146638334Y-102846203D01*
X146633307Y-102813195D01*
X146626592Y-102780729D01*
X146617949Y-102749108D01*
X146612830Y-102733708D01*
X146607140Y-102718633D01*
X146600848Y-102703920D01*
X146593924Y-102689608D01*
X146586340Y-102675734D01*
X146578064Y-102662336D01*
X146569068Y-102649452D01*
X146559321Y-102637119D01*
X146548793Y-102625376D01*
X146537455Y-102614260D01*
X146525276Y-102603809D01*
X146512227Y-102594061D01*
X146498278Y-102585054D01*
X146483399Y-102576825D01*
X146467560Y-102569414D01*
X146450731Y-102562856D01*
X146432176Y-102559691D01*
X146400174Y-102554869D01*
X146359634Y-102549282D01*
X146315460Y-102543823D01*
X146272562Y-102539384D01*
X146235845Y-102536856D01*
X146221338Y-102536588D01*
X146210216Y-102537132D01*
X146206117Y-102537744D01*
X146203093Y-102538601D01*
X146201223Y-102539716D01*
X146200583Y-102541104D01*
X146200583Y-102459534D01*
X147288182Y-102459534D01*
X147288182Y-102541104D01*
G36*
X142120895Y-106913085D02*
G01*
X141982056Y-107269443D01*
X141845256Y-107625802D01*
X141775391Y-107803026D01*
X141703358Y-107979102D01*
X141602330Y-108227890D01*
X141502832Y-108476678D01*
X141306384Y-108974255D01*
X141208500Y-108974255D01*
X140632071Y-107593004D01*
X138571071Y-109838896D01*
X138571071Y-109800831D01*
X138569764Y-109762319D01*
X138569796Y-109724189D01*
X138570975Y-109686314D01*
X138573110Y-109648567D01*
X138576009Y-109610819D01*
X138579483Y-109572945D01*
X138587385Y-109496303D01*
X138588812Y-109464695D01*
X138589116Y-109433086D01*
X138588448Y-109401478D01*
X138586960Y-109369869D01*
X138582127Y-109306653D01*
X138575829Y-109243436D01*
X138569275Y-109180219D01*
X138563678Y-109117002D01*
X138561616Y-109085394D01*
X138560247Y-109053786D01*
X138559723Y-109022177D01*
X138560194Y-108990569D01*
X138562078Y-108959452D01*
X138565580Y-108929243D01*
X138570530Y-108899831D01*
X138576764Y-108871103D01*
X138584112Y-108842949D01*
X138592409Y-108815258D01*
X138601486Y-108787916D01*
X138611176Y-108760814D01*
X138652725Y-108652564D01*
X138672831Y-108596973D01*
X138682131Y-108568421D01*
X138690706Y-108539216D01*
X138693327Y-108522964D01*
X138695103Y-108506832D01*
X138696083Y-108490811D01*
X138696314Y-108474894D01*
X138695844Y-108459073D01*
X138694721Y-108443339D01*
X138692993Y-108427685D01*
X138690706Y-108412103D01*
X138687910Y-108396584D01*
X138684652Y-108381121D01*
X138680980Y-108365706D01*
X138676941Y-108350330D01*
X138667956Y-108319667D01*
X138658078Y-108289068D01*
X138648876Y-108260700D01*
X138641562Y-108232659D01*
X138635984Y-108204889D01*
X138631992Y-108177334D01*
X138629434Y-108149938D01*
X138628158Y-108122646D01*
X138628013Y-108095401D01*
X138628849Y-108068149D01*
X138630512Y-108040833D01*
X138632853Y-108013397D01*
X138638960Y-107957945D01*
X138652640Y-107843152D01*
X138654165Y-107828570D01*
X138654704Y-107814374D01*
X138654326Y-107800537D01*
X138653097Y-107787030D01*
X138651082Y-107773826D01*
X138648350Y-107760897D01*
X138644967Y-107748215D01*
X138640999Y-107735752D01*
X138631577Y-107711371D01*
X138620617Y-107687532D01*
X138596220Y-107640587D01*
X138583851Y-107617034D01*
X138572079Y-107593132D01*
X138561438Y-107568655D01*
X138556708Y-107556132D01*
X138552461Y-107543382D01*
X138548765Y-107530378D01*
X138545684Y-107517090D01*
X138543286Y-107503492D01*
X138541639Y-107489555D01*
X138540808Y-107475251D01*
X138540860Y-107460554D01*
X138541862Y-107445434D01*
X138542470Y-107440740D01*
X140773461Y-107440740D01*
X140878297Y-107696826D01*
X140985543Y-107951911D01*
X140984774Y-107949050D01*
X140984486Y-107945592D01*
X140984653Y-107941576D01*
X140985246Y-107937042D01*
X140987598Y-107926580D01*
X140991321Y-107914525D01*
X140996191Y-107901196D01*
X141001985Y-107886911D01*
X141015452Y-107856747D01*
X141061675Y-107761582D01*
X141144180Y-107546356D01*
X141228214Y-107332660D01*
X141398831Y-106907816D01*
X141502153Y-106646792D01*
X140773461Y-107440740D01*
X138542470Y-107440740D01*
X138543880Y-107429864D01*
X138546282Y-107414936D01*
X138549328Y-107400677D01*
X138552901Y-107386992D01*
X138556880Y-107373785D01*
X138565578Y-107348421D01*
X138574468Y-107323823D01*
X138578686Y-107311572D01*
X138582593Y-107299225D01*
X138586070Y-107286687D01*
X138588997Y-107273862D01*
X138591256Y-107260654D01*
X138592725Y-107246969D01*
X138593286Y-107232710D01*
X138593189Y-107225336D01*
X138592820Y-107217782D01*
X138588317Y-107162298D01*
X138586416Y-107135288D01*
X138585344Y-107108343D01*
X138585257Y-107094794D01*
X138585545Y-107081142D01*
X138586264Y-107067346D01*
X138587468Y-107053368D01*
X138589214Y-107039166D01*
X138591557Y-107024701D01*
X138594554Y-107009934D01*
X138598260Y-106994824D01*
X138602577Y-106980549D01*
X138607309Y-106966275D01*
X138617632Y-106937725D01*
X138639044Y-106880626D01*
X138643999Y-106866352D01*
X138648603Y-106852077D01*
X138652761Y-106837802D01*
X138656377Y-106823527D01*
X138659356Y-106809253D01*
X138661603Y-106794978D01*
X138663021Y-106780703D01*
X138663515Y-106766428D01*
X138664053Y-106748258D01*
X138663738Y-106730423D01*
X138662738Y-106712874D01*
X138661221Y-106695564D01*
X138653319Y-106627759D01*
X138651722Y-106610928D01*
X138650610Y-106594048D01*
X138650152Y-106577073D01*
X138650515Y-106559954D01*
X138651865Y-106542645D01*
X138654370Y-106525096D01*
X138658197Y-106507261D01*
X138663515Y-106489091D01*
X138676738Y-106448369D01*
X138687731Y-106411089D01*
X138692331Y-106393381D01*
X138696302Y-106376103D01*
X138699620Y-106359112D01*
X138702261Y-106342264D01*
X138704200Y-106325417D01*
X138705415Y-106308426D01*
X138705881Y-106291148D01*
X138705575Y-106273440D01*
X138704471Y-106255158D01*
X138702548Y-106236160D01*
X138699780Y-106216301D01*
X138696143Y-106195438D01*
X138685756Y-106140134D01*
X138676261Y-106081325D01*
X138672446Y-106051104D01*
X138669570Y-106020605D01*
X138667873Y-105990025D01*
X138667595Y-105959565D01*
X138668973Y-105929424D01*
X138672247Y-105899800D01*
X138677656Y-105870894D01*
X138685438Y-105842903D01*
X138690294Y-105829314D01*
X138695834Y-105816028D01*
X138702086Y-105803071D01*
X138709081Y-105790467D01*
X138716848Y-105778242D01*
X138725418Y-105766420D01*
X138734821Y-105755026D01*
X138745086Y-105744085D01*
X138756108Y-105731555D01*
X138766732Y-105720315D01*
X138776941Y-105710127D01*
X138786720Y-105700751D01*
X138804924Y-105683481D01*
X138813318Y-105675109D01*
X138821217Y-105666593D01*
X138828607Y-105657696D01*
X138832105Y-105653029D01*
X138835470Y-105648176D01*
X138838700Y-105643109D01*
X138841793Y-105637797D01*
X138844746Y-105632210D01*
X138847557Y-105626318D01*
X138850225Y-105620092D01*
X138852748Y-105613501D01*
X138855124Y-105606516D01*
X138857350Y-105599107D01*
X138859425Y-105591244D01*
X138861346Y-105582896D01*
X138863112Y-105574035D01*
X138864721Y-105564631D01*
X138868322Y-105536081D01*
X138871094Y-105507532D01*
X138873229Y-105478982D01*
X138874918Y-105450433D01*
X138877722Y-105393334D01*
X138879219Y-105364785D01*
X138881035Y-105336235D01*
X138883362Y-105307696D01*
X138886389Y-105279221D01*
X138890308Y-105250873D01*
X138895311Y-105222717D01*
X138898278Y-105208730D01*
X138901588Y-105194815D01*
X138905264Y-105180980D01*
X138909330Y-105167232D01*
X138913811Y-105153580D01*
X138918730Y-105140032D01*
X138924111Y-105126595D01*
X138929978Y-105113277D01*
X139055053Y-104939261D01*
X139059791Y-104927488D01*
X139063840Y-104915625D01*
X139067242Y-104903676D01*
X139070039Y-104891647D01*
X139073991Y-104867365D01*
X139076040Y-104842821D01*
X139076527Y-104818054D01*
X139075795Y-104793104D01*
X139072046Y-104742813D01*
X139067532Y-104692268D01*
X139065844Y-104666999D01*
X139064993Y-104641786D01*
X139065321Y-104616668D01*
X139067171Y-104591686D01*
X139070884Y-104566879D01*
X139073547Y-104554554D01*
X139076804Y-104542287D01*
X139163810Y-104357396D01*
X139171521Y-104332691D01*
X139178594Y-104307604D01*
X139192360Y-104256792D01*
X139199816Y-104231323D01*
X139203855Y-104218628D01*
X139208164Y-104205981D01*
X139212793Y-104193397D01*
X139217787Y-104180894D01*
X139223196Y-104168486D01*
X139229067Y-104156189D01*
X139234288Y-104146736D01*
X139239735Y-104137724D01*
X139245379Y-104129119D01*
X139251191Y-104120885D01*
X139263205Y-104105383D01*
X139275545Y-104090933D01*
X139300281Y-104064041D01*
X139312215Y-104051025D01*
X139323552Y-104037913D01*
X139334060Y-104024419D01*
X139338931Y-104017439D01*
X139343509Y-104010256D01*
X139347764Y-104002833D01*
X139351667Y-103995137D01*
X139355190Y-103987129D01*
X139358304Y-103978775D01*
X139360980Y-103970038D01*
X139363188Y-103960883D01*
X139364901Y-103951275D01*
X139366089Y-103941176D01*
X139366724Y-103930552D01*
X139366775Y-103919366D01*
X139366216Y-103907582D01*
X139365016Y-103895165D01*
X139361673Y-103877180D01*
X139357900Y-103859871D01*
X139349892Y-103826935D01*
X139342648Y-103795656D01*
X139339831Y-103780419D01*
X139337826Y-103765333D01*
X139336841Y-103750311D01*
X139336796Y-103742796D01*
X139337083Y-103735265D01*
X139337728Y-103727705D01*
X139338758Y-103720107D01*
X139340199Y-103712459D01*
X139342075Y-103704750D01*
X139344413Y-103696970D01*
X139347240Y-103689107D01*
X139350580Y-103681150D01*
X139354459Y-103673089D01*
X139358905Y-103664912D01*
X139363941Y-103656609D01*
X139369595Y-103648168D01*
X139375893Y-103639579D01*
X139388305Y-103624891D01*
X139401011Y-103611295D01*
X139413925Y-103598607D01*
X139426959Y-103586644D01*
X139478535Y-103542375D01*
X139490851Y-103531288D01*
X139502761Y-103519826D01*
X139514178Y-103507807D01*
X139525013Y-103495047D01*
X139530185Y-103488332D01*
X139534810Y-103481878D01*
X144406044Y-103481878D01*
X144416125Y-103504839D01*
X144426980Y-103526832D01*
X144438589Y-103547877D01*
X144450928Y-103567994D01*
X144463977Y-103587203D01*
X144477712Y-103605523D01*
X144492113Y-103622976D01*
X144507156Y-103639580D01*
X144522821Y-103655355D01*
X144539086Y-103670323D01*
X144555928Y-103684501D01*
X144573326Y-103697911D01*
X144591257Y-103710572D01*
X144609700Y-103722504D01*
X144628633Y-103733727D01*
X144648035Y-103744261D01*
X144667882Y-103754126D01*
X144688153Y-103763342D01*
X144708827Y-103771929D01*
X144729881Y-103779906D01*
X144773042Y-103794111D01*
X144817462Y-103806119D01*
X144862966Y-103816087D01*
X144909377Y-103824175D01*
X144956521Y-103830542D01*
X145004223Y-103835348D01*
X145004223Y-103128408D01*
X145006942Y-102988379D01*
X145006348Y-102950505D01*
X145005508Y-102931575D01*
X145004223Y-102912757D01*
X145002428Y-102894130D01*
X145000060Y-102875774D01*
X144997054Y-102857769D01*
X144993348Y-102840194D01*
X144406044Y-103481878D01*
X139534810Y-103481878D01*
X139535179Y-103481363D01*
X139539983Y-103474118D01*
X139544588Y-103466572D01*
X139548981Y-103458704D01*
X139553152Y-103450491D01*
X139557090Y-103441909D01*
X139560785Y-103432935D01*
X139586020Y-103362071D01*
X139591991Y-103346227D01*
X139598160Y-103331036D01*
X139604696Y-103316451D01*
X139611765Y-103302423D01*
X139619536Y-103288905D01*
X139628175Y-103275849D01*
X139637849Y-103263207D01*
X139648727Y-103250932D01*
X139660974Y-103238975D01*
X139674759Y-103227290D01*
X139690249Y-103215827D01*
X139707610Y-103204539D01*
X139734620Y-103183998D01*
X139762585Y-103163584D01*
X139776906Y-103153624D01*
X139791443Y-103143935D01*
X139806186Y-103134597D01*
X139821129Y-103125688D01*
X139836263Y-103117290D01*
X139851579Y-103109480D01*
X139867072Y-103102340D01*
X139882731Y-103095949D01*
X139898550Y-103090386D01*
X139914520Y-103085731D01*
X139930633Y-103082065D01*
X139946882Y-103079465D01*
X139966185Y-103077954D01*
X139985320Y-103077320D01*
X140022929Y-103077596D01*
X140059391Y-103078127D01*
X140077093Y-103077811D01*
X140094388Y-103076746D01*
X140111237Y-103074662D01*
X140127600Y-103071287D01*
X140135587Y-103069031D01*
X140143438Y-103066351D01*
X140151147Y-103063213D01*
X140158709Y-103059583D01*
X140166121Y-103055427D01*
X140173376Y-103050711D01*
X140180470Y-103045403D01*
X140187397Y-103039466D01*
X140194153Y-103032869D01*
X140200733Y-103025577D01*
X140207132Y-103017555D01*
X140213344Y-103008771D01*
X140221923Y-102994385D01*
X140229467Y-102979839D01*
X140236214Y-102965230D01*
X140242403Y-102950653D01*
X140254065Y-102921976D01*
X140260016Y-102908067D01*
X140266364Y-102894573D01*
X140273351Y-102881589D01*
X140281213Y-102869210D01*
X140285547Y-102863278D01*
X140290190Y-102857532D01*
X140295172Y-102851986D01*
X140300522Y-102846651D01*
X140306270Y-102841539D01*
X140312447Y-102836662D01*
X140319081Y-102832032D01*
X140326204Y-102827661D01*
X140333844Y-102823560D01*
X140342032Y-102819743D01*
X140350797Y-102816220D01*
X140360170Y-102813004D01*
X140376724Y-102809647D01*
X140393701Y-102807566D01*
X140411012Y-102806504D01*
X140428570Y-102806206D01*
X140499518Y-102807566D01*
X140516997Y-102807268D01*
X140534196Y-102806206D01*
X140551029Y-102804124D01*
X140567408Y-102800768D01*
X140575400Y-102798532D01*
X140583246Y-102795882D01*
X140590934Y-102792786D01*
X140598454Y-102789212D01*
X140605795Y-102785128D01*
X140612945Y-102780503D01*
X140619895Y-102775304D01*
X140626632Y-102769499D01*
X140637480Y-102759058D01*
X140647651Y-102748162D01*
X140657233Y-102736868D01*
X140666312Y-102725231D01*
X140674978Y-102713307D01*
X140683317Y-102701153D01*
X140699365Y-102676374D01*
X140715159Y-102651340D01*
X140731398Y-102626497D01*
X140739904Y-102614287D01*
X140748785Y-102602292D01*
X140758127Y-102590567D01*
X140768019Y-102579169D01*
X140773643Y-102572927D01*
X140780127Y-102566445D01*
X140794530Y-102552829D01*
X140801874Y-102545726D01*
X140808932Y-102538448D01*
X140815416Y-102531011D01*
X140818353Y-102527237D01*
X140821040Y-102523430D01*
X140823440Y-102519591D01*
X140825517Y-102515722D01*
X140827235Y-102511825D01*
X140828560Y-102507902D01*
X140829454Y-102503955D01*
X140829882Y-102499987D01*
X140829808Y-102495998D01*
X140829197Y-102491992D01*
X140828012Y-102487969D01*
X140826218Y-102483933D01*
X140823778Y-102479885D01*
X140820658Y-102475826D01*
X140816820Y-102471760D01*
X140812230Y-102467688D01*
X140806851Y-102463612D01*
X140800648Y-102459534D01*
X140793339Y-102455988D01*
X140785700Y-102453469D01*
X140777753Y-102451922D01*
X140769518Y-102451292D01*
X140761016Y-102451521D01*
X140752268Y-102452556D01*
X140743295Y-102454339D01*
X140734117Y-102456815D01*
X140724757Y-102459928D01*
X140715235Y-102463623D01*
X140695786Y-102472534D01*
X140675939Y-102483102D01*
X140655861Y-102494881D01*
X140576586Y-102545182D01*
X140557862Y-102556324D01*
X140539911Y-102565999D01*
X140522900Y-102573763D01*
X140514799Y-102576789D01*
X140506996Y-102579169D01*
X140466838Y-102588867D01*
X140424322Y-102597608D01*
X140380148Y-102605457D01*
X140335019Y-102612477D01*
X140289635Y-102618733D01*
X140244698Y-102624288D01*
X140158964Y-102633550D01*
X140137198Y-102634502D01*
X140115732Y-102634346D01*
X140094547Y-102633155D01*
X140073624Y-102631001D01*
X140052943Y-102627954D01*
X140032487Y-102624086D01*
X139992171Y-102614177D01*
X139952523Y-102601846D01*
X139913394Y-102587667D01*
X139836083Y-102556058D01*
X139759027Y-102523940D01*
X139720216Y-102509124D01*
X139681015Y-102495900D01*
X139641272Y-102484844D01*
X139600836Y-102476528D01*
X139580311Y-102473576D01*
X139559555Y-102471525D01*
X139538551Y-102470446D01*
X139517279Y-102470410D01*
X139496827Y-102471785D01*
X139476271Y-102473766D01*
X139434945Y-102478907D01*
X139393491Y-102484557D01*
X139352100Y-102489443D01*
X139331489Y-102491200D01*
X139310965Y-102492289D01*
X139290552Y-102492549D01*
X139270275Y-102491822D01*
X139250158Y-102489947D01*
X139230223Y-102486766D01*
X139210495Y-102482119D01*
X139190999Y-102475848D01*
X139181994Y-102471505D01*
X139173315Y-102466658D01*
X139164939Y-102461345D01*
X139156842Y-102455604D01*
X139148999Y-102449472D01*
X139141388Y-102442989D01*
X139126763Y-102429115D01*
X139112775Y-102414285D01*
X139099233Y-102398802D01*
X139072723Y-102367088D01*
X139059372Y-102351461D01*
X139045703Y-102336393D01*
X139031524Y-102322184D01*
X139024184Y-102315497D01*
X139016644Y-102309139D01*
X139008881Y-102303147D01*
X139000872Y-102297559D01*
X138992591Y-102292414D01*
X138984016Y-102287748D01*
X138975122Y-102283600D01*
X138965886Y-102280008D01*
X138956283Y-102277009D01*
X138946290Y-102274641D01*
X138935168Y-102273405D01*
X138924230Y-102272718D01*
X138913466Y-102272522D01*
X138902870Y-102272762D01*
X138882149Y-102274319D01*
X138862000Y-102276936D01*
X138823169Y-102283531D01*
X138804359Y-102286602D01*
X138785868Y-102288916D01*
X138767631Y-102290020D01*
X138758589Y-102289975D01*
X138749586Y-102289458D01*
X138740615Y-102288411D01*
X138731668Y-102286777D01*
X138722737Y-102284501D01*
X138713814Y-102281524D01*
X138704891Y-102277791D01*
X138695960Y-102273244D01*
X138687013Y-102267826D01*
X138678042Y-102261482D01*
X138669040Y-102254154D01*
X138659997Y-102245786D01*
X138650907Y-102236320D01*
X138641761Y-102225700D01*
X138629172Y-102209145D01*
X138617778Y-102192169D01*
X138607372Y-102174858D01*
X138597747Y-102157300D01*
X138580010Y-102121794D01*
X138562910Y-102086351D01*
X138554082Y-102068873D01*
X138544791Y-102051673D01*
X138534831Y-102034840D01*
X138523995Y-102018461D01*
X138512076Y-102002624D01*
X138498866Y-101987416D01*
X138491712Y-101980075D01*
X138484158Y-101972924D01*
X138476178Y-101965975D01*
X138467746Y-101959238D01*
X138457503Y-101951872D01*
X138447169Y-101945049D01*
X138426249Y-101932908D01*
X138405027Y-101922567D01*
X138383542Y-101913779D01*
X138361834Y-101906298D01*
X138339942Y-101899876D01*
X138317907Y-101894267D01*
X138295769Y-101889224D01*
X138251341Y-101879845D01*
X138206977Y-101869766D01*
X138184918Y-101863846D01*
X138162995Y-101857010D01*
X138141247Y-101849011D01*
X138119714Y-101839602D01*
X138111173Y-101834794D01*
X138102876Y-101829562D01*
X138094811Y-101823928D01*
X138086969Y-101817914D01*
X138079338Y-101811541D01*
X138071907Y-101804831D01*
X138057602Y-101790490D01*
X138043965Y-101775065D01*
X138030910Y-101758733D01*
X138018350Y-101741667D01*
X138006195Y-101724044D01*
X137982754Y-101687827D01*
X137959887Y-101651481D01*
X137948449Y-101633699D01*
X137936892Y-101616410D01*
X137925128Y-101599791D01*
X137913069Y-101584016D01*
X137923078Y-101569679D01*
X137932728Y-101555222D01*
X137942044Y-101540654D01*
X137951050Y-101525982D01*
X137968224Y-101496360D01*
X137984442Y-101466419D01*
X137999896Y-101436224D01*
X138014776Y-101405837D01*
X138043580Y-101344744D01*
X138043584Y-101344744D01*
X138043584Y-101344745D01*
X138043585Y-101344745D01*
X138047451Y-101332063D01*
X138051062Y-101318744D01*
X138054674Y-101305171D01*
X138058540Y-101291724D01*
X138060648Y-101285168D01*
X138062915Y-101278788D01*
X138065374Y-101272630D01*
X138068056Y-101266743D01*
X138070993Y-101261175D01*
X138074216Y-101255974D01*
X138077758Y-101251186D01*
X138081651Y-101246861D01*
X138093402Y-101235463D01*
X138104284Y-101223738D01*
X138114450Y-101211743D01*
X138124050Y-101199533D01*
X138133236Y-101187163D01*
X138142159Y-101174690D01*
X138159822Y-101149656D01*
X138168865Y-101137207D01*
X138178250Y-101124877D01*
X138188129Y-101112723D01*
X138198653Y-101100799D01*
X138209973Y-101089163D01*
X138222242Y-101077869D01*
X138235610Y-101066973D01*
X138242753Y-101061691D01*
X138250228Y-101056531D01*
X138260541Y-101050649D01*
X138271046Y-101045166D01*
X138292373Y-101034949D01*
X138313700Y-101024986D01*
X138324205Y-101019822D01*
X138334518Y-101014386D01*
X138344576Y-101008569D01*
X138354316Y-101002257D01*
X138363673Y-100995340D01*
X138372584Y-100987706D01*
X138376853Y-100983585D01*
X138380986Y-100979244D01*
X138384975Y-100974667D01*
X138388813Y-100969841D01*
X138392492Y-100964753D01*
X138396004Y-100959388D01*
X138399340Y-100953732D01*
X138402493Y-100947771D01*
X138408255Y-100936109D01*
X138413345Y-100924573D01*
X138417826Y-100913163D01*
X138421760Y-100901877D01*
X138428231Y-100879675D01*
X138433252Y-100857959D01*
X138440920Y-100815953D01*
X138444555Y-100795646D01*
X138448716Y-100775794D01*
X138453896Y-100756388D01*
X138460590Y-100737420D01*
X138464659Y-100728098D01*
X138469291Y-100718883D01*
X138474549Y-100709772D01*
X138480494Y-100700767D01*
X138487187Y-100691865D01*
X138494692Y-100683066D01*
X138503068Y-100674368D01*
X138512378Y-100665770D01*
X138522684Y-100657273D01*
X138534048Y-100648874D01*
X138546531Y-100640572D01*
X138560194Y-100632367D01*
X138569550Y-100627508D01*
X138579217Y-100623063D01*
X138589122Y-100618937D01*
X138599195Y-100615034D01*
X138619556Y-100607514D01*
X138639725Y-100599739D01*
X138649559Y-100595517D01*
X138659130Y-100590945D01*
X138668366Y-100585926D01*
X138677196Y-100580366D01*
X138685548Y-100574169D01*
X138689523Y-100570801D01*
X138693351Y-100567239D01*
X138697024Y-100563469D01*
X138700532Y-100559480D01*
X138703867Y-100555260D01*
X138707020Y-100550797D01*
X138755963Y-100382219D01*
X138768873Y-100365256D01*
X138783025Y-100348986D01*
X138798261Y-100333337D01*
X138814421Y-100318238D01*
X138831346Y-100303616D01*
X138848876Y-100289401D01*
X138866852Y-100275521D01*
X138885115Y-100261903D01*
X138957848Y-100208628D01*
X138975155Y-100195249D01*
X138991793Y-100181703D01*
X139007602Y-100167919D01*
X139022424Y-100153823D01*
X139028354Y-100148090D01*
X139033925Y-100142119D01*
X139039160Y-100135924D01*
X139044080Y-100129522D01*
X139053073Y-100116161D01*
X139061085Y-100102162D01*
X139068301Y-100087654D01*
X139074903Y-100072763D01*
X139087001Y-100042344D01*
X139098843Y-100011925D01*
X139105127Y-99997035D01*
X139111897Y-99982526D01*
X139119335Y-99968528D01*
X139127626Y-99955166D01*
X139132149Y-99948764D01*
X139136953Y-99942570D01*
X139142062Y-99936598D01*
X139147498Y-99930865D01*
X139154870Y-99924073D01*
X139162694Y-99917951D01*
X139170945Y-99912469D01*
X139179595Y-99907594D01*
X139188620Y-99903298D01*
X139197993Y-99899548D01*
X139207690Y-99896313D01*
X139217682Y-99893564D01*
X139238454Y-99889397D01*
X139260103Y-99886798D01*
X139282420Y-99885523D01*
X139305200Y-99885322D01*
X139328235Y-99885950D01*
X139351317Y-99887159D01*
X139396796Y-99890335D01*
X139439982Y-99892874D01*
X139460196Y-99893287D01*
X139479216Y-99892799D01*
X139481184Y-99881820D01*
X139484003Y-99871307D01*
X139487631Y-99861249D01*
X139492025Y-99851632D01*
X139497144Y-99842445D01*
X139502946Y-99833677D01*
X139509389Y-99825315D01*
X139516432Y-99817347D01*
X139524033Y-99809762D01*
X139532149Y-99802547D01*
X139540739Y-99795690D01*
X139549761Y-99789180D01*
X139559174Y-99783004D01*
X139568935Y-99777152D01*
X139579003Y-99771609D01*
X139589336Y-99766366D01*
X139610628Y-99756727D01*
X139632479Y-99748140D01*
X139654552Y-99740509D01*
X139676514Y-99733738D01*
X139698029Y-99727732D01*
X139718764Y-99722394D01*
X139756554Y-99713345D01*
X139766069Y-99711087D01*
X139775253Y-99708404D01*
X139784126Y-99705319D01*
X139792708Y-99701853D01*
X139801020Y-99698029D01*
X139809081Y-99693869D01*
X139816910Y-99689394D01*
X139824529Y-99684626D01*
X139831957Y-99679587D01*
X139839213Y-99674300D01*
X139853291Y-99663065D01*
X139866923Y-99651098D01*
X139880268Y-99638573D01*
X139906736Y-99612551D01*
X139920177Y-99599405D01*
X139933969Y-99586402D01*
X139948270Y-99573718D01*
X139963240Y-99561528D01*
X139979039Y-99550006D01*
X139987299Y-99544551D01*
X139995826Y-99539330D01*
X140014242Y-99530002D01*
X140032777Y-99522315D01*
X140051424Y-99516125D01*
X140070174Y-99511290D01*
X140089020Y-99507665D01*
X140107953Y-99505108D01*
X140126966Y-99503475D01*
X140146051Y-99502623D01*
X140165200Y-99502408D01*
X140184404Y-99502687D01*
X140222948Y-99504153D01*
X140261619Y-99505873D01*
X140300354Y-99506702D01*
X140336795Y-99505199D01*
X140374447Y-99502581D01*
X140412863Y-99498624D01*
X140451598Y-99493107D01*
X140490206Y-99485805D01*
X140528240Y-99476495D01*
X140565254Y-99464955D01*
X140600803Y-99450962D01*
X140634440Y-99434292D01*
X140650402Y-99424884D01*
X140665719Y-99414723D01*
X140680335Y-99403781D01*
X140694194Y-99392031D01*
X140707241Y-99379444D01*
X140719419Y-99365993D01*
X140730674Y-99351650D01*
X140740948Y-99336387D01*
X140750187Y-99320176D01*
X140758335Y-99302989D01*
X140765336Y-99284798D01*
X140771134Y-99265576D01*
X140775673Y-99245295D01*
X140778898Y-99223926D01*
X140772921Y-99221314D01*
X140767216Y-99218578D01*
X140761768Y-99215723D01*
X140756561Y-99212752D01*
X140751582Y-99209670D01*
X140746815Y-99206481D01*
X140742245Y-99203187D01*
X140737858Y-99199795D01*
X140733637Y-99196306D01*
X140729569Y-99192726D01*
X140721830Y-99185307D01*
X140714522Y-99177570D01*
X140707524Y-99169546D01*
X140700717Y-99161267D01*
X140693982Y-99152764D01*
X140680249Y-99135218D01*
X140673012Y-99126238D01*
X140665369Y-99117163D01*
X140657200Y-99108023D01*
X140648385Y-99098852D01*
X140640357Y-99091117D01*
X140632592Y-99084131D01*
X140625098Y-99077750D01*
X140617882Y-99071832D01*
X140604319Y-99060807D01*
X140597987Y-99055414D01*
X140591967Y-99049910D01*
X140586264Y-99044151D01*
X140580889Y-99037993D01*
X140578326Y-99034720D01*
X140575848Y-99031294D01*
X140573455Y-99027696D01*
X140571149Y-99023909D01*
X140568931Y-99019916D01*
X140566801Y-99015697D01*
X140564761Y-99011235D01*
X140562812Y-99006512D01*
X140560954Y-99001510D01*
X140559188Y-98996212D01*
X140557517Y-98990599D01*
X140555940Y-98984654D01*
X140553248Y-98974396D01*
X140551234Y-98964028D01*
X140549810Y-98953563D01*
X140548887Y-98943019D01*
X140548379Y-98932411D01*
X140548197Y-98921756D01*
X140548462Y-98900365D01*
X140548983Y-98878974D01*
X140549057Y-98857711D01*
X140548708Y-98847166D01*
X140547984Y-98836702D01*
X140546799Y-98826333D01*
X140545064Y-98816076D01*
X140542835Y-98804971D01*
X140540231Y-98794088D01*
X140537261Y-98783423D01*
X140533933Y-98772975D01*
X140526233Y-98752724D01*
X140517194Y-98733316D01*
X140506881Y-98714737D01*
X140495358Y-98696971D01*
X140482687Y-98680001D01*
X140468932Y-98663812D01*
X140454158Y-98648387D01*
X140438428Y-98633712D01*
X140421806Y-98619769D01*
X140404356Y-98606543D01*
X140386140Y-98594018D01*
X140367224Y-98582178D01*
X140347671Y-98571007D01*
X140327544Y-98560490D01*
X140336681Y-98543013D01*
X140346726Y-98527227D01*
X140357631Y-98513039D01*
X140369349Y-98500353D01*
X140381831Y-98489078D01*
X140395031Y-98479119D01*
X140408899Y-98470383D01*
X140423389Y-98462776D01*
X140438453Y-98456204D01*
X140454042Y-98450575D01*
X140470109Y-98445794D01*
X140486606Y-98441767D01*
X140520700Y-98435604D01*
X140555941Y-98431337D01*
X140628334Y-98425496D01*
X140664722Y-98422424D01*
X140700727Y-98418252D01*
X140735968Y-98412233D01*
X140753182Y-98408296D01*
X140770062Y-98403616D01*
X140786559Y-98398100D01*
X140802626Y-98391654D01*
X140818215Y-98384185D01*
X140833279Y-98375598D01*
X140857325Y-98359613D01*
X140880861Y-98344584D01*
X140892597Y-98337568D01*
X140904397Y-98330957D01*
X140916325Y-98324809D01*
X140928444Y-98319179D01*
X140940817Y-98314122D01*
X140953509Y-98309694D01*
X140966584Y-98305951D01*
X140980104Y-98302950D01*
X140994135Y-98300744D01*
X141008739Y-98299392D01*
X141023980Y-98298947D01*
X141031859Y-98299082D01*
X141039922Y-98299466D01*
X141055993Y-98301744D01*
X141071626Y-98304437D01*
X141101864Y-98310682D01*
X141160238Y-98323937D01*
X141174811Y-98326852D01*
X141189520Y-98329417D01*
X141204436Y-98331536D01*
X141219631Y-98333114D01*
X141235177Y-98334053D01*
X141251144Y-98334261D01*
X141267606Y-98333639D01*
X141284632Y-98332094D01*
X141293127Y-98331459D01*
X141301292Y-98330582D01*
X141309145Y-98329476D01*
X141316708Y-98328153D01*
X141331041Y-98324913D01*
X141344450Y-98320963D01*
X141357095Y-98316408D01*
X141369134Y-98311351D01*
X141380727Y-98305896D01*
X141392033Y-98300146D01*
X141414422Y-98288176D01*
X141425824Y-98282163D01*
X141437576Y-98276269D01*
X141449838Y-98270599D01*
X141462770Y-98265255D01*
X141476529Y-98260342D01*
X141491277Y-98255962D01*
X141505914Y-98253405D01*
X141521196Y-98251820D01*
X141537004Y-98251159D01*
X141553219Y-98251374D01*
X141569720Y-98252417D01*
X141586388Y-98254241D01*
X141603105Y-98256798D01*
X141619749Y-98260040D01*
X141636203Y-98263920D01*
X141652345Y-98268389D01*
X141668058Y-98273399D01*
X141683221Y-98278903D01*
X141697715Y-98284854D01*
X141711420Y-98291203D01*
X141724217Y-98297902D01*
X141735986Y-98304904D01*
X141736465Y-98304919D01*
X141736882Y-98304965D01*
X141737242Y-98305038D01*
X141737547Y-98305138D01*
X141737801Y-98305261D01*
X141737909Y-98305331D01*
X141738005Y-98305406D01*
X141738090Y-98305486D01*
X141738164Y-98305571D01*
X141738227Y-98305660D01*
X141738280Y-98305754D01*
X141738356Y-98305952D01*
X141738396Y-98306165D01*
X141738401Y-98306390D01*
X141738376Y-98306625D01*
X141738323Y-98306867D01*
X141738244Y-98307116D01*
X141738144Y-98307368D01*
X141738025Y-98307623D01*
X141737890Y-98307877D01*
X141737743Y-98308130D01*
X141737420Y-98308621D01*
X141737082Y-98309081D01*
X141736751Y-98309492D01*
X141736209Y-98310108D01*
X141735986Y-98310342D01*
X141747093Y-98320112D01*
X141757992Y-98329043D01*
X141768697Y-98337158D01*
X141779225Y-98344478D01*
X141789589Y-98351026D01*
X141799804Y-98356822D01*
X141809887Y-98361890D01*
X141819850Y-98366251D01*
X141829711Y-98369927D01*
X141839482Y-98372940D01*
X141849180Y-98375311D01*
X141858819Y-98377064D01*
X141868414Y-98378218D01*
X141877981Y-98378797D01*
X141887533Y-98378823D01*
X141897087Y-98378317D01*
X141906656Y-98377301D01*
X141916257Y-98375797D01*
X141925903Y-98373827D01*
X141935610Y-98371413D01*
X141955265Y-98365341D01*
X141975343Y-98357754D01*
X141995963Y-98348830D01*
X142017243Y-98338743D01*
X142062266Y-98315780D01*
X142081761Y-98305265D01*
X142101479Y-98296152D01*
X142121389Y-98288441D01*
X142141457Y-98282132D01*
X142161653Y-98277225D01*
X142181945Y-98273720D01*
X142202300Y-98271617D01*
X142222687Y-98270916D01*
X142243074Y-98271617D01*
X142263430Y-98273720D01*
X142283721Y-98277225D01*
X142303917Y-98282132D01*
X142323986Y-98288441D01*
X142343895Y-98296152D01*
X142363613Y-98305265D01*
X142383108Y-98315780D01*
X142417584Y-98337564D01*
X142434750Y-98347814D01*
X142451932Y-98357500D01*
X142469178Y-98366516D01*
X142486536Y-98374759D01*
X142504053Y-98382126D01*
X142521777Y-98388513D01*
X142539756Y-98393817D01*
X142558037Y-98397934D01*
X142576669Y-98400761D01*
X142586132Y-98401658D01*
X142595700Y-98402193D01*
X142605379Y-98402354D01*
X142615176Y-98402128D01*
X142625097Y-98401502D01*
X142635147Y-98400462D01*
X142645332Y-98398996D01*
X142655659Y-98397091D01*
X142666133Y-98394734D01*
X142676760Y-98391912D01*
X142759774Y-98367271D01*
X142779871Y-98361788D01*
X142799784Y-98356926D01*
X142819554Y-98352861D01*
X142839220Y-98349767D01*
X142858823Y-98347821D01*
X142878401Y-98347197D01*
X142897996Y-98348071D01*
X142907812Y-98349124D01*
X142917646Y-98350617D01*
X142927505Y-98352572D01*
X142937392Y-98355012D01*
X142947313Y-98357957D01*
X142957274Y-98361429D01*
X142967277Y-98365452D01*
X142977330Y-98370046D01*
X142987437Y-98375233D01*
X142997602Y-98381036D01*
X143006534Y-98386315D01*
X143015020Y-98391912D01*
X143023124Y-98397764D01*
X143030910Y-98403808D01*
X143038440Y-98409978D01*
X143045779Y-98416213D01*
X143060139Y-98428618D01*
X143067287Y-98434662D01*
X143074499Y-98440514D01*
X143081838Y-98446111D01*
X143089368Y-98451390D01*
X143097154Y-98456286D01*
X143105257Y-98460737D01*
X143109449Y-98462774D01*
X143113744Y-98464677D01*
X143118150Y-98466436D01*
X143122676Y-98468044D01*
X143142416Y-98472588D01*
X143162834Y-98476105D01*
X143183841Y-98478714D01*
X143205350Y-98480534D01*
X143227273Y-98481685D01*
X143249523Y-98482287D01*
X143294652Y-98482319D01*
X143384974Y-98481044D01*
X143428765Y-98481649D01*
X143450011Y-98482681D01*
X143470708Y-98484358D01*
X143517589Y-98490762D01*
X143564343Y-98497868D01*
X143610842Y-98505866D01*
X143656959Y-98514947D01*
X143702566Y-98525302D01*
X143747536Y-98537123D01*
X143791741Y-98550602D01*
X143813516Y-98558022D01*
X143835053Y-98565928D01*
X143883297Y-98584986D01*
X143930155Y-98605470D01*
X143975642Y-98627404D01*
X144019776Y-98650812D01*
X144062571Y-98675717D01*
X144104043Y-98702143D01*
X144144210Y-98730115D01*
X144183086Y-98759656D01*
X144220687Y-98790791D01*
X144257030Y-98823542D01*
X144292130Y-98857935D01*
X144326003Y-98893992D01*
X144358665Y-98931738D01*
X144390133Y-98971197D01*
X144420422Y-99012392D01*
X144449547Y-99055348D01*
X144477614Y-99102688D01*
X144502779Y-99150874D01*
X144525202Y-99199856D01*
X144545042Y-99249586D01*
X144562456Y-99300018D01*
X144577602Y-99351102D01*
X144601726Y-99455040D01*
X144618682Y-99561018D01*
X144629734Y-99668652D01*
X144636151Y-99777560D01*
X144639198Y-99887361D01*
X144643021Y-100327839D01*
X144648219Y-100436365D01*
X144657646Y-100543490D01*
X144672570Y-100648830D01*
X144694257Y-100752003D01*
X144713687Y-100823410D01*
X144737283Y-100894506D01*
X144765006Y-100964726D01*
X144796814Y-101033504D01*
X144832670Y-101100275D01*
X144872532Y-101164473D01*
X144916361Y-101225532D01*
X144964118Y-101282888D01*
X145015762Y-101335973D01*
X145043029Y-101360738D01*
X145071253Y-101384223D01*
X145100429Y-101406359D01*
X145130552Y-101427073D01*
X145161616Y-101446296D01*
X145193618Y-101463956D01*
X145226552Y-101479983D01*
X145260413Y-101494307D01*
X145295196Y-101506856D01*
X145330896Y-101517560D01*
X145367508Y-101526349D01*
X145405027Y-101533151D01*
X145443449Y-101537896D01*
X145482767Y-101540513D01*
X145510122Y-101540933D01*
X145537126Y-101540175D01*
X145563779Y-101538275D01*
X145590083Y-101535266D01*
X145616035Y-101531181D01*
X145641637Y-101526055D01*
X145691790Y-101512813D01*
X145740541Y-101495811D01*
X145787890Y-101475320D01*
X145833837Y-101451611D01*
X145878382Y-101424955D01*
X145921524Y-101395622D01*
X145963265Y-101363884D01*
X146003604Y-101330011D01*
X146042541Y-101294273D01*
X146080076Y-101256943D01*
X146116209Y-101218290D01*
X146150940Y-101178586D01*
X146184269Y-101138101D01*
X146260752Y-101043541D01*
X146335258Y-100947516D01*
X146407854Y-100850089D01*
X146478601Y-100751323D01*
X146547563Y-100651283D01*
X146614806Y-100550032D01*
X146680391Y-100447634D01*
X146744383Y-100344153D01*
X146791604Y-100261351D01*
X146838698Y-100176255D01*
X146884517Y-100089119D01*
X146927915Y-100000200D01*
X146948348Y-99955150D01*
X146967744Y-99909751D01*
X146985962Y-99864032D01*
X147002858Y-99818027D01*
X147018287Y-99771767D01*
X147032108Y-99725283D01*
X147044176Y-99678609D01*
X147054349Y-99631775D01*
X147070663Y-99555643D01*
X147560082Y-100050501D01*
X145346818Y-102459534D01*
X146140765Y-102459534D01*
X146140765Y-102541104D01*
X146140250Y-102540657D01*
X146138746Y-102540330D01*
X146133022Y-102540011D01*
X146112471Y-102540510D01*
X146083125Y-102542156D01*
X146048999Y-102544503D01*
X145982468Y-102549516D01*
X145944997Y-102551980D01*
X145918306Y-102558427D01*
X145904909Y-102561981D01*
X145891552Y-102565830D01*
X145878290Y-102570030D01*
X145865180Y-102574635D01*
X145852276Y-102579703D01*
X145839636Y-102585288D01*
X145827314Y-102591447D01*
X145815367Y-102598235D01*
X145803850Y-102605709D01*
X145792818Y-102613923D01*
X145782329Y-102622933D01*
X145772436Y-102632796D01*
X145763197Y-102643567D01*
X145758840Y-102649311D01*
X145754668Y-102655302D01*
X145741931Y-102674785D01*
X145730207Y-102694482D01*
X145719455Y-102714384D01*
X145709634Y-102734483D01*
X145692630Y-102775232D01*
X145678875Y-102816658D01*
X145668053Y-102858690D01*
X145659842Y-102901255D01*
X145653927Y-102944282D01*
X145649986Y-102987700D01*
X145649951Y-102988379D01*
X145647703Y-103031437D01*
X145646757Y-103075420D01*
X145647607Y-103163840D01*
X145649986Y-103252388D01*
X145651346Y-103340490D01*
X145666980Y-104247277D01*
X145684229Y-104787338D01*
X145696326Y-105011230D01*
X145711164Y-105178534D01*
X145714279Y-105196922D01*
X145718496Y-105214377D01*
X145723771Y-105230920D01*
X145730059Y-105246572D01*
X145737314Y-105261357D01*
X145745492Y-105275295D01*
X145754549Y-105288408D01*
X145764439Y-105300719D01*
X145775118Y-105312249D01*
X145786540Y-105323020D01*
X145798662Y-105333055D01*
X145811437Y-105342375D01*
X145824822Y-105351001D01*
X145838772Y-105358957D01*
X145853241Y-105366263D01*
X145868186Y-105372942D01*
X145883560Y-105379016D01*
X145899320Y-105384506D01*
X145915421Y-105389434D01*
X145931817Y-105393823D01*
X145948464Y-105397694D01*
X145965317Y-105401070D01*
X145999462Y-105406420D01*
X146033895Y-105410050D01*
X146068255Y-105412134D01*
X146102186Y-105412848D01*
X146135327Y-105412368D01*
X146135561Y-105418995D01*
X146136177Y-105429701D01*
X146138046Y-105457231D01*
X146140765Y-105493938D01*
X143671914Y-105493938D01*
X143530526Y-104504222D01*
X143612096Y-104504222D01*
X143613381Y-104504971D01*
X143615173Y-104507159D01*
X143620147Y-104515480D01*
X143634697Y-104545347D01*
X143653582Y-104587959D01*
X143674633Y-104637453D01*
X143714568Y-104733638D01*
X143737170Y-104786998D01*
X143748832Y-104814147D01*
X143761386Y-104840539D01*
X143774832Y-104866182D01*
X143789170Y-104891085D01*
X143804401Y-104915254D01*
X143820524Y-104938699D01*
X143837539Y-104961427D01*
X143855446Y-104983446D01*
X143874245Y-105004764D01*
X143893937Y-105025388D01*
X143914521Y-105045328D01*
X143935996Y-105064591D01*
X143958364Y-105083184D01*
X143981625Y-105101117D01*
X144005777Y-105118396D01*
X144030822Y-105135030D01*
X144086561Y-105167659D01*
X144150712Y-105197748D01*
X144221619Y-105224538D01*
X144297623Y-105247274D01*
X144377069Y-105265198D01*
X144458299Y-105277554D01*
X144539657Y-105283586D01*
X144619485Y-105282536D01*
X144658308Y-105279119D01*
X144696127Y-105273647D01*
X144732735Y-105266027D01*
X144767925Y-105256164D01*
X144801491Y-105243962D01*
X144833224Y-105229328D01*
X144862918Y-105212167D01*
X144890365Y-105192384D01*
X144915359Y-105169884D01*
X144937693Y-105144574D01*
X144957159Y-105116358D01*
X144973550Y-105085143D01*
X144986659Y-105050832D01*
X144996279Y-105013332D01*
X145002203Y-104972548D01*
X145004223Y-104928386D01*
X145004223Y-104014802D01*
X144969800Y-104017117D01*
X144935824Y-104020070D01*
X144902229Y-104023787D01*
X144868953Y-104028397D01*
X144835932Y-104034026D01*
X144803102Y-104040802D01*
X144770400Y-104048853D01*
X144737761Y-104058306D01*
X144711805Y-104068002D01*
X144686942Y-104078717D01*
X144663150Y-104090415D01*
X144640408Y-104103063D01*
X144618694Y-104116627D01*
X144597985Y-104131073D01*
X144578260Y-104146368D01*
X144559497Y-104162477D01*
X144541674Y-104179367D01*
X144524769Y-104197003D01*
X144508760Y-104215353D01*
X144493625Y-104234382D01*
X144479343Y-104254056D01*
X144465891Y-104274341D01*
X144453247Y-104295204D01*
X144441390Y-104316610D01*
X144430298Y-104338527D01*
X144419949Y-104360919D01*
X144410321Y-104383753D01*
X144401391Y-104406996D01*
X144385542Y-104454570D01*
X144372226Y-104503372D01*
X144361268Y-104553129D01*
X144352492Y-104603571D01*
X144345724Y-104654428D01*
X144340788Y-104705428D01*
X144259218Y-104705428D01*
X144259218Y-103645018D01*
X142198216Y-105890911D01*
X142709388Y-105890911D01*
X142709303Y-105911303D01*
X142709101Y-105921500D01*
X142708708Y-105931696D01*
X142708060Y-105941892D01*
X142707094Y-105952088D01*
X142705745Y-105962285D01*
X142704907Y-105967383D01*
X142703950Y-105972481D01*
X142676650Y-105973101D01*
X142650791Y-105975910D01*
X142626319Y-105980805D01*
X142603177Y-105987680D01*
X142581310Y-105996431D01*
X142560661Y-106006953D01*
X142541175Y-106019142D01*
X142522797Y-106032894D01*
X142505470Y-106048103D01*
X142489138Y-106064665D01*
X142473747Y-106082477D01*
X142459240Y-106101432D01*
X142445561Y-106121426D01*
X142432655Y-106142356D01*
X142420466Y-106164116D01*
X142408938Y-106186602D01*
X142387643Y-106233334D01*
X142368323Y-106281714D01*
X142350533Y-106330907D01*
X142333826Y-106380076D01*
X142301878Y-106474997D01*
X142285745Y-106519076D01*
X142268910Y-106559785D01*
X142231553Y-106646792D01*
X142193309Y-106735861D01*
X142120895Y-106913085D01*
G37*
X142120895Y-106913085D02*
X141982056Y-107269443D01*
X141845256Y-107625802D01*
X141775391Y-107803026D01*
X141703358Y-107979102D01*
X141602330Y-108227890D01*
X141502832Y-108476678D01*
X141306384Y-108974255D01*
X141208500Y-108974255D01*
X140632071Y-107593004D01*
X138571071Y-109838896D01*
X138571071Y-109800831D01*
X138569764Y-109762319D01*
X138569796Y-109724189D01*
X138570975Y-109686314D01*
X138573110Y-109648567D01*
X138576009Y-109610819D01*
X138579483Y-109572945D01*
X138587385Y-109496303D01*
X138588812Y-109464695D01*
X138589116Y-109433086D01*
X138588448Y-109401478D01*
X138586960Y-109369869D01*
X138582127Y-109306653D01*
X138575829Y-109243436D01*
X138569275Y-109180219D01*
X138563678Y-109117002D01*
X138561616Y-109085394D01*
X138560247Y-109053786D01*
X138559723Y-109022177D01*
X138560194Y-108990569D01*
X138562078Y-108959452D01*
X138565580Y-108929243D01*
X138570530Y-108899831D01*
X138576764Y-108871103D01*
X138584112Y-108842949D01*
X138592409Y-108815258D01*
X138601486Y-108787916D01*
X138611176Y-108760814D01*
X138652725Y-108652564D01*
X138672831Y-108596973D01*
X138682131Y-108568421D01*
X138690706Y-108539216D01*
X138693327Y-108522964D01*
X138695103Y-108506832D01*
X138696083Y-108490811D01*
X138696314Y-108474894D01*
X138695844Y-108459073D01*
X138694721Y-108443339D01*
X138692993Y-108427685D01*
X138690706Y-108412103D01*
X138687910Y-108396584D01*
X138684652Y-108381121D01*
X138680980Y-108365706D01*
X138676941Y-108350330D01*
X138667956Y-108319667D01*
X138658078Y-108289068D01*
X138648876Y-108260700D01*
X138641562Y-108232659D01*
X138635984Y-108204889D01*
X138631992Y-108177334D01*
X138629434Y-108149938D01*
X138628158Y-108122646D01*
X138628013Y-108095401D01*
X138628849Y-108068149D01*
X138630512Y-108040833D01*
X138632853Y-108013397D01*
X138638960Y-107957945D01*
X138652640Y-107843152D01*
X138654165Y-107828570D01*
X138654704Y-107814374D01*
X138654326Y-107800537D01*
X138653097Y-107787030D01*
X138651082Y-107773826D01*
X138648350Y-107760897D01*
X138644967Y-107748215D01*
X138640999Y-107735752D01*
X138631577Y-107711371D01*
X138620617Y-107687532D01*
X138596220Y-107640587D01*
X138583851Y-107617034D01*
X138572079Y-107593132D01*
X138561438Y-107568655D01*
X138556708Y-107556132D01*
X138552461Y-107543382D01*
X138548765Y-107530378D01*
X138545684Y-107517090D01*
X138543286Y-107503492D01*
X138541639Y-107489555D01*
X138540808Y-107475251D01*
X138540860Y-107460554D01*
X138541862Y-107445434D01*
X138542470Y-107440740D01*
X140773461Y-107440740D01*
X140878297Y-107696826D01*
X140985543Y-107951911D01*
X140984774Y-107949050D01*
X140984486Y-107945592D01*
X140984653Y-107941576D01*
X140985246Y-107937042D01*
X140987598Y-107926580D01*
X140991321Y-107914525D01*
X140996191Y-107901196D01*
X141001985Y-107886911D01*
X141015452Y-107856747D01*
X141061675Y-107761582D01*
X141144180Y-107546356D01*
X141228214Y-107332660D01*
X141398831Y-106907816D01*
X141502153Y-106646792D01*
X140773461Y-107440740D01*
X138542470Y-107440740D01*
X138543880Y-107429864D01*
X138546282Y-107414936D01*
X138549328Y-107400677D01*
X138552901Y-107386992D01*
X138556880Y-107373785D01*
X138565578Y-107348421D01*
X138574468Y-107323823D01*
X138578686Y-107311572D01*
X138582593Y-107299225D01*
X138586070Y-107286687D01*
X138588997Y-107273862D01*
X138591256Y-107260654D01*
X138592725Y-107246969D01*
X138593286Y-107232710D01*
X138593189Y-107225336D01*
X138592820Y-107217782D01*
X138588317Y-107162298D01*
X138586416Y-107135288D01*
X138585344Y-107108343D01*
X138585257Y-107094794D01*
X138585545Y-107081142D01*
X138586264Y-107067346D01*
X138587468Y-107053368D01*
X138589214Y-107039166D01*
X138591557Y-107024701D01*
X138594554Y-107009934D01*
X138598260Y-106994824D01*
X138602577Y-106980549D01*
X138607309Y-106966275D01*
X138617632Y-106937725D01*
X138639044Y-106880626D01*
X138643999Y-106866352D01*
X138648603Y-106852077D01*
X138652761Y-106837802D01*
X138656377Y-106823527D01*
X138659356Y-106809253D01*
X138661603Y-106794978D01*
X138663021Y-106780703D01*
X138663515Y-106766428D01*
X138664053Y-106748258D01*
X138663738Y-106730423D01*
X138662738Y-106712874D01*
X138661221Y-106695564D01*
X138653319Y-106627759D01*
X138651722Y-106610928D01*
X138650610Y-106594048D01*
X138650152Y-106577073D01*
X138650515Y-106559954D01*
X138651865Y-106542645D01*
X138654370Y-106525096D01*
X138658197Y-106507261D01*
X138663515Y-106489091D01*
X138676738Y-106448369D01*
X138687731Y-106411089D01*
X138692331Y-106393381D01*
X138696302Y-106376103D01*
X138699620Y-106359112D01*
X138702261Y-106342264D01*
X138704200Y-106325417D01*
X138705415Y-106308426D01*
X138705881Y-106291148D01*
X138705575Y-106273440D01*
X138704471Y-106255158D01*
X138702548Y-106236160D01*
X138699780Y-106216301D01*
X138696143Y-106195438D01*
X138685756Y-106140134D01*
X138676261Y-106081325D01*
X138672446Y-106051104D01*
X138669570Y-106020605D01*
X138667873Y-105990025D01*
X138667595Y-105959565D01*
X138668973Y-105929424D01*
X138672247Y-105899800D01*
X138677656Y-105870894D01*
X138685438Y-105842903D01*
X138690294Y-105829314D01*
X138695834Y-105816028D01*
X138702086Y-105803071D01*
X138709081Y-105790467D01*
X138716848Y-105778242D01*
X138725418Y-105766420D01*
X138734821Y-105755026D01*
X138745086Y-105744085D01*
X138756108Y-105731555D01*
X138766732Y-105720315D01*
X138776941Y-105710127D01*
X138786720Y-105700751D01*
X138804924Y-105683481D01*
X138813318Y-105675109D01*
X138821217Y-105666593D01*
X138828607Y-105657696D01*
X138832105Y-105653029D01*
X138835470Y-105648176D01*
X138838700Y-105643109D01*
X138841793Y-105637797D01*
X138844746Y-105632210D01*
X138847557Y-105626318D01*
X138850225Y-105620092D01*
X138852748Y-105613501D01*
X138855124Y-105606516D01*
X138857350Y-105599107D01*
X138859425Y-105591244D01*
X138861346Y-105582896D01*
X138863112Y-105574035D01*
X138864721Y-105564631D01*
X138868322Y-105536081D01*
X138871094Y-105507532D01*
X138873229Y-105478982D01*
X138874918Y-105450433D01*
X138877722Y-105393334D01*
X138879219Y-105364785D01*
X138881035Y-105336235D01*
X138883362Y-105307696D01*
X138886389Y-105279221D01*
X138890308Y-105250873D01*
X138895311Y-105222717D01*
X138898278Y-105208730D01*
X138901588Y-105194815D01*
X138905264Y-105180980D01*
X138909330Y-105167232D01*
X138913811Y-105153580D01*
X138918730Y-105140032D01*
X138924111Y-105126595D01*
X138929978Y-105113277D01*
X139055053Y-104939261D01*
X139059791Y-104927488D01*
X139063840Y-104915625D01*
X139067242Y-104903676D01*
X139070039Y-104891647D01*
X139073991Y-104867365D01*
X139076040Y-104842821D01*
X139076527Y-104818054D01*
X139075795Y-104793104D01*
X139072046Y-104742813D01*
X139067532Y-104692268D01*
X139065844Y-104666999D01*
X139064993Y-104641786D01*
X139065321Y-104616668D01*
X139067171Y-104591686D01*
X139070884Y-104566879D01*
X139073547Y-104554554D01*
X139076804Y-104542287D01*
X139163810Y-104357396D01*
X139171521Y-104332691D01*
X139178594Y-104307604D01*
X139192360Y-104256792D01*
X139199816Y-104231323D01*
X139203855Y-104218628D01*
X139208164Y-104205981D01*
X139212793Y-104193397D01*
X139217787Y-104180894D01*
X139223196Y-104168486D01*
X139229067Y-104156189D01*
X139234288Y-104146736D01*
X139239735Y-104137724D01*
X139245379Y-104129119D01*
X139251191Y-104120885D01*
X139263205Y-104105383D01*
X139275545Y-104090933D01*
X139300281Y-104064041D01*
X139312215Y-104051025D01*
X139323552Y-104037913D01*
X139334060Y-104024419D01*
X139338931Y-104017439D01*
X139343509Y-104010256D01*
X139347764Y-104002833D01*
X139351667Y-103995137D01*
X139355190Y-103987129D01*
X139358304Y-103978775D01*
X139360980Y-103970038D01*
X139363188Y-103960883D01*
X139364901Y-103951275D01*
X139366089Y-103941176D01*
X139366724Y-103930552D01*
X139366775Y-103919366D01*
X139366216Y-103907582D01*
X139365016Y-103895165D01*
X139361673Y-103877180D01*
X139357900Y-103859871D01*
X139349892Y-103826935D01*
X139342648Y-103795656D01*
X139339831Y-103780419D01*
X139337826Y-103765333D01*
X139336841Y-103750311D01*
X139336796Y-103742796D01*
X139337083Y-103735265D01*
X139337728Y-103727705D01*
X139338758Y-103720107D01*
X139340199Y-103712459D01*
X139342075Y-103704750D01*
X139344413Y-103696970D01*
X139347240Y-103689107D01*
X139350580Y-103681150D01*
X139354459Y-103673089D01*
X139358905Y-103664912D01*
X139363941Y-103656609D01*
X139369595Y-103648168D01*
X139375893Y-103639579D01*
X139388305Y-103624891D01*
X139401011Y-103611295D01*
X139413925Y-103598607D01*
X139426959Y-103586644D01*
X139478535Y-103542375D01*
X139490851Y-103531288D01*
X139502761Y-103519826D01*
X139514178Y-103507807D01*
X139525013Y-103495047D01*
X139530185Y-103488332D01*
X139534810Y-103481878D01*
X144406044Y-103481878D01*
X144416125Y-103504839D01*
X144426980Y-103526832D01*
X144438589Y-103547877D01*
X144450928Y-103567994D01*
X144463977Y-103587203D01*
X144477712Y-103605523D01*
X144492113Y-103622976D01*
X144507156Y-103639580D01*
X144522821Y-103655355D01*
X144539086Y-103670323D01*
X144555928Y-103684501D01*
X144573326Y-103697911D01*
X144591257Y-103710572D01*
X144609700Y-103722504D01*
X144628633Y-103733727D01*
X144648035Y-103744261D01*
X144667882Y-103754126D01*
X144688153Y-103763342D01*
X144708827Y-103771929D01*
X144729881Y-103779906D01*
X144773042Y-103794111D01*
X144817462Y-103806119D01*
X144862966Y-103816087D01*
X144909377Y-103824175D01*
X144956521Y-103830542D01*
X145004223Y-103835348D01*
X145004223Y-103128408D01*
X145006942Y-102988379D01*
X145006348Y-102950505D01*
X145005508Y-102931575D01*
X145004223Y-102912757D01*
X145002428Y-102894130D01*
X145000060Y-102875774D01*
X144997054Y-102857769D01*
X144993348Y-102840194D01*
X144406044Y-103481878D01*
X139534810Y-103481878D01*
X139535179Y-103481363D01*
X139539983Y-103474118D01*
X139544588Y-103466572D01*
X139548981Y-103458704D01*
X139553152Y-103450491D01*
X139557090Y-103441909D01*
X139560785Y-103432935D01*
X139586020Y-103362071D01*
X139591991Y-103346227D01*
X139598160Y-103331036D01*
X139604696Y-103316451D01*
X139611765Y-103302423D01*
X139619536Y-103288905D01*
X139628175Y-103275849D01*
X139637849Y-103263207D01*
X139648727Y-103250932D01*
X139660974Y-103238975D01*
X139674759Y-103227290D01*
X139690249Y-103215827D01*
X139707610Y-103204539D01*
X139734620Y-103183998D01*
X139762585Y-103163584D01*
X139776906Y-103153624D01*
X139791443Y-103143935D01*
X139806186Y-103134597D01*
X139821129Y-103125688D01*
X139836263Y-103117290D01*
X139851579Y-103109480D01*
X139867072Y-103102340D01*
X139882731Y-103095949D01*
X139898550Y-103090386D01*
X139914520Y-103085731D01*
X139930633Y-103082065D01*
X139946882Y-103079465D01*
X139966185Y-103077954D01*
X139985320Y-103077320D01*
X140022929Y-103077596D01*
X140059391Y-103078127D01*
X140077093Y-103077811D01*
X140094388Y-103076746D01*
X140111237Y-103074662D01*
X140127600Y-103071287D01*
X140135587Y-103069031D01*
X140143438Y-103066351D01*
X140151147Y-103063213D01*
X140158709Y-103059583D01*
X140166121Y-103055427D01*
X140173376Y-103050711D01*
X140180470Y-103045403D01*
X140187397Y-103039466D01*
X140194153Y-103032869D01*
X140200733Y-103025577D01*
X140207132Y-103017555D01*
X140213344Y-103008771D01*
X140221923Y-102994385D01*
X140229467Y-102979839D01*
X140236214Y-102965230D01*
X140242403Y-102950653D01*
X140254065Y-102921976D01*
X140260016Y-102908067D01*
X140266364Y-102894573D01*
X140273351Y-102881589D01*
X140281213Y-102869210D01*
X140285547Y-102863278D01*
X140290190Y-102857532D01*
X140295172Y-102851986D01*
X140300522Y-102846651D01*
X140306270Y-102841539D01*
X140312447Y-102836662D01*
X140319081Y-102832032D01*
X140326204Y-102827661D01*
X140333844Y-102823560D01*
X140342032Y-102819743D01*
X140350797Y-102816220D01*
X140360170Y-102813004D01*
X140376724Y-102809647D01*
X140393701Y-102807566D01*
X140411012Y-102806504D01*
X140428570Y-102806206D01*
X140499518Y-102807566D01*
X140516997Y-102807268D01*
X140534196Y-102806206D01*
X140551029Y-102804124D01*
X140567408Y-102800768D01*
X140575400Y-102798532D01*
X140583246Y-102795882D01*
X140590934Y-102792786D01*
X140598454Y-102789212D01*
X140605795Y-102785128D01*
X140612945Y-102780503D01*
X140619895Y-102775304D01*
X140626632Y-102769499D01*
X140637480Y-102759058D01*
X140647651Y-102748162D01*
X140657233Y-102736868D01*
X140666312Y-102725231D01*
X140674978Y-102713307D01*
X140683317Y-102701153D01*
X140699365Y-102676374D01*
X140715159Y-102651340D01*
X140731398Y-102626497D01*
X140739904Y-102614287D01*
X140748785Y-102602292D01*
X140758127Y-102590567D01*
X140768019Y-102579169D01*
X140773643Y-102572927D01*
X140780127Y-102566445D01*
X140794530Y-102552829D01*
X140801874Y-102545726D01*
X140808932Y-102538448D01*
X140815416Y-102531011D01*
X140818353Y-102527237D01*
X140821040Y-102523430D01*
X140823440Y-102519591D01*
X140825517Y-102515722D01*
X140827235Y-102511825D01*
X140828560Y-102507902D01*
X140829454Y-102503955D01*
X140829882Y-102499987D01*
X140829808Y-102495998D01*
X140829197Y-102491992D01*
X140828012Y-102487969D01*
X140826218Y-102483933D01*
X140823778Y-102479885D01*
X140820658Y-102475826D01*
X140816820Y-102471760D01*
X140812230Y-102467688D01*
X140806851Y-102463612D01*
X140800648Y-102459534D01*
X140793339Y-102455988D01*
X140785700Y-102453469D01*
X140777753Y-102451922D01*
X140769518Y-102451292D01*
X140761016Y-102451521D01*
X140752268Y-102452556D01*
X140743295Y-102454339D01*
X140734117Y-102456815D01*
X140724757Y-102459928D01*
X140715235Y-102463623D01*
X140695786Y-102472534D01*
X140675939Y-102483102D01*
X140655861Y-102494881D01*
X140576586Y-102545182D01*
X140557862Y-102556324D01*
X140539911Y-102565999D01*
X140522900Y-102573763D01*
X140514799Y-102576789D01*
X140506996Y-102579169D01*
X140466838Y-102588867D01*
X140424322Y-102597608D01*
X140380148Y-102605457D01*
X140335019Y-102612477D01*
X140289635Y-102618733D01*
X140244698Y-102624288D01*
X140158964Y-102633550D01*
X140137198Y-102634502D01*
X140115732Y-102634346D01*
X140094547Y-102633155D01*
X140073624Y-102631001D01*
X140052943Y-102627954D01*
X140032487Y-102624086D01*
X139992171Y-102614177D01*
X139952523Y-102601846D01*
X139913394Y-102587667D01*
X139836083Y-102556058D01*
X139759027Y-102523940D01*
X139720216Y-102509124D01*
X139681015Y-102495900D01*
X139641272Y-102484844D01*
X139600836Y-102476528D01*
X139580311Y-102473576D01*
X139559555Y-102471525D01*
X139538551Y-102470446D01*
X139517279Y-102470410D01*
X139496827Y-102471785D01*
X139476271Y-102473766D01*
X139434945Y-102478907D01*
X139393491Y-102484557D01*
X139352100Y-102489443D01*
X139331489Y-102491200D01*
X139310965Y-102492289D01*
X139290552Y-102492549D01*
X139270275Y-102491822D01*
X139250158Y-102489947D01*
X139230223Y-102486766D01*
X139210495Y-102482119D01*
X139190999Y-102475848D01*
X139181994Y-102471505D01*
X139173315Y-102466658D01*
X139164939Y-102461345D01*
X139156842Y-102455604D01*
X139148999Y-102449472D01*
X139141388Y-102442989D01*
X139126763Y-102429115D01*
X139112775Y-102414285D01*
X139099233Y-102398802D01*
X139072723Y-102367088D01*
X139059372Y-102351461D01*
X139045703Y-102336393D01*
X139031524Y-102322184D01*
X139024184Y-102315497D01*
X139016644Y-102309139D01*
X139008881Y-102303147D01*
X139000872Y-102297559D01*
X138992591Y-102292414D01*
X138984016Y-102287748D01*
X138975122Y-102283600D01*
X138965886Y-102280008D01*
X138956283Y-102277009D01*
X138946290Y-102274641D01*
X138935168Y-102273405D01*
X138924230Y-102272718D01*
X138913466Y-102272522D01*
X138902870Y-102272762D01*
X138882149Y-102274319D01*
X138862000Y-102276936D01*
X138823169Y-102283531D01*
X138804359Y-102286602D01*
X138785868Y-102288916D01*
X138767631Y-102290020D01*
X138758589Y-102289975D01*
X138749586Y-102289458D01*
X138740615Y-102288411D01*
X138731668Y-102286777D01*
X138722737Y-102284501D01*
X138713814Y-102281524D01*
X138704891Y-102277791D01*
X138695960Y-102273244D01*
X138687013Y-102267826D01*
X138678042Y-102261482D01*
X138669040Y-102254154D01*
X138659997Y-102245786D01*
X138650907Y-102236320D01*
X138641761Y-102225700D01*
X138629172Y-102209145D01*
X138617778Y-102192169D01*
X138607372Y-102174858D01*
X138597747Y-102157300D01*
X138580010Y-102121794D01*
X138562910Y-102086351D01*
X138554082Y-102068873D01*
X138544791Y-102051673D01*
X138534831Y-102034840D01*
X138523995Y-102018461D01*
X138512076Y-102002624D01*
X138498866Y-101987416D01*
X138491712Y-101980075D01*
X138484158Y-101972924D01*
X138476178Y-101965975D01*
X138467746Y-101959238D01*
X138457503Y-101951872D01*
X138447169Y-101945049D01*
X138426249Y-101932908D01*
X138405027Y-101922567D01*
X138383542Y-101913779D01*
X138361834Y-101906298D01*
X138339942Y-101899876D01*
X138317907Y-101894267D01*
X138295769Y-101889224D01*
X138251341Y-101879845D01*
X138206977Y-101869766D01*
X138184918Y-101863846D01*
X138162995Y-101857010D01*
X138141247Y-101849011D01*
X138119714Y-101839602D01*
X138111173Y-101834794D01*
X138102876Y-101829562D01*
X138094811Y-101823928D01*
X138086969Y-101817914D01*
X138079338Y-101811541D01*
X138071907Y-101804831D01*
X138057602Y-101790490D01*
X138043965Y-101775065D01*
X138030910Y-101758733D01*
X138018350Y-101741667D01*
X138006195Y-101724044D01*
X137982754Y-101687827D01*
X137959887Y-101651481D01*
X137948449Y-101633699D01*
X137936892Y-101616410D01*
X137925128Y-101599791D01*
X137913069Y-101584016D01*
X137923078Y-101569679D01*
X137932728Y-101555222D01*
X137942044Y-101540654D01*
X137951050Y-101525982D01*
X137968224Y-101496360D01*
X137984442Y-101466419D01*
X137999896Y-101436224D01*
X138014776Y-101405837D01*
X138043580Y-101344744D01*
X138043584Y-101344744D01*
X138043584Y-101344745D01*
X138043585Y-101344745D01*
X138047451Y-101332063D01*
X138051062Y-101318744D01*
X138054674Y-101305171D01*
X138058540Y-101291724D01*
X138060648Y-101285168D01*
X138062915Y-101278788D01*
X138065374Y-101272630D01*
X138068056Y-101266743D01*
X138070993Y-101261175D01*
X138074216Y-101255974D01*
X138077758Y-101251186D01*
X138081651Y-101246861D01*
X138093402Y-101235463D01*
X138104284Y-101223738D01*
X138114450Y-101211743D01*
X138124050Y-101199533D01*
X138133236Y-101187163D01*
X138142159Y-101174690D01*
X138159822Y-101149656D01*
X138168865Y-101137207D01*
X138178250Y-101124877D01*
X138188129Y-101112723D01*
X138198653Y-101100799D01*
X138209973Y-101089163D01*
X138222242Y-101077869D01*
X138235610Y-101066973D01*
X138242753Y-101061691D01*
X138250228Y-101056531D01*
X138260541Y-101050649D01*
X138271046Y-101045166D01*
X138292373Y-101034949D01*
X138313700Y-101024986D01*
X138324205Y-101019822D01*
X138334518Y-101014386D01*
X138344576Y-101008569D01*
X138354316Y-101002257D01*
X138363673Y-100995340D01*
X138372584Y-100987706D01*
X138376853Y-100983585D01*
X138380986Y-100979244D01*
X138384975Y-100974667D01*
X138388813Y-100969841D01*
X138392492Y-100964753D01*
X138396004Y-100959388D01*
X138399340Y-100953732D01*
X138402493Y-100947771D01*
X138408255Y-100936109D01*
X138413345Y-100924573D01*
X138417826Y-100913163D01*
X138421760Y-100901877D01*
X138428231Y-100879675D01*
X138433252Y-100857959D01*
X138440920Y-100815953D01*
X138444555Y-100795646D01*
X138448716Y-100775794D01*
X138453896Y-100756388D01*
X138460590Y-100737420D01*
X138464659Y-100728098D01*
X138469291Y-100718883D01*
X138474549Y-100709772D01*
X138480494Y-100700767D01*
X138487187Y-100691865D01*
X138494692Y-100683066D01*
X138503068Y-100674368D01*
X138512378Y-100665770D01*
X138522684Y-100657273D01*
X138534048Y-100648874D01*
X138546531Y-100640572D01*
X138560194Y-100632367D01*
X138569550Y-100627508D01*
X138579217Y-100623063D01*
X138589122Y-100618937D01*
X138599195Y-100615034D01*
X138619556Y-100607514D01*
X138639725Y-100599739D01*
X138649559Y-100595517D01*
X138659130Y-100590945D01*
X138668366Y-100585926D01*
X138677196Y-100580366D01*
X138685548Y-100574169D01*
X138689523Y-100570801D01*
X138693351Y-100567239D01*
X138697024Y-100563469D01*
X138700532Y-100559480D01*
X138703867Y-100555260D01*
X138707020Y-100550797D01*
X138755963Y-100382219D01*
X138768873Y-100365256D01*
X138783025Y-100348986D01*
X138798261Y-100333337D01*
X138814421Y-100318238D01*
X138831346Y-100303616D01*
X138848876Y-100289401D01*
X138866852Y-100275521D01*
X138885115Y-100261903D01*
X138957848Y-100208628D01*
X138975155Y-100195249D01*
X138991793Y-100181703D01*
X139007602Y-100167919D01*
X139022424Y-100153823D01*
X139028354Y-100148090D01*
X139033925Y-100142119D01*
X139039160Y-100135924D01*
X139044080Y-100129522D01*
X139053073Y-100116161D01*
X139061085Y-100102162D01*
X139068301Y-100087654D01*
X139074903Y-100072763D01*
X139087001Y-100042344D01*
X139098843Y-100011925D01*
X139105127Y-99997035D01*
X139111897Y-99982526D01*
X139119335Y-99968528D01*
X139127626Y-99955166D01*
X139132149Y-99948764D01*
X139136953Y-99942570D01*
X139142062Y-99936598D01*
X139147498Y-99930865D01*
X139154870Y-99924073D01*
X139162694Y-99917951D01*
X139170945Y-99912469D01*
X139179595Y-99907594D01*
X139188620Y-99903298D01*
X139197993Y-99899548D01*
X139207690Y-99896313D01*
X139217682Y-99893564D01*
X139238454Y-99889397D01*
X139260103Y-99886798D01*
X139282420Y-99885523D01*
X139305200Y-99885322D01*
X139328235Y-99885950D01*
X139351317Y-99887159D01*
X139396796Y-99890335D01*
X139439982Y-99892874D01*
X139460196Y-99893287D01*
X139479216Y-99892799D01*
X139481184Y-99881820D01*
X139484003Y-99871307D01*
X139487631Y-99861249D01*
X139492025Y-99851632D01*
X139497144Y-99842445D01*
X139502946Y-99833677D01*
X139509389Y-99825315D01*
X139516432Y-99817347D01*
X139524033Y-99809762D01*
X139532149Y-99802547D01*
X139540739Y-99795690D01*
X139549761Y-99789180D01*
X139559174Y-99783004D01*
X139568935Y-99777152D01*
X139579003Y-99771609D01*
X139589336Y-99766366D01*
X139610628Y-99756727D01*
X139632479Y-99748140D01*
X139654552Y-99740509D01*
X139676514Y-99733738D01*
X139698029Y-99727732D01*
X139718764Y-99722394D01*
X139756554Y-99713345D01*
X139766069Y-99711087D01*
X139775253Y-99708404D01*
X139784126Y-99705319D01*
X139792708Y-99701853D01*
X139801020Y-99698029D01*
X139809081Y-99693869D01*
X139816910Y-99689394D01*
X139824529Y-99684626D01*
X139831957Y-99679587D01*
X139839213Y-99674300D01*
X139853291Y-99663065D01*
X139866923Y-99651098D01*
X139880268Y-99638573D01*
X139906736Y-99612551D01*
X139920177Y-99599405D01*
X139933969Y-99586402D01*
X139948270Y-99573718D01*
X139963240Y-99561528D01*
X139979039Y-99550006D01*
X139987299Y-99544551D01*
X139995826Y-99539330D01*
X140014242Y-99530002D01*
X140032777Y-99522315D01*
X140051424Y-99516125D01*
X140070174Y-99511290D01*
X140089020Y-99507665D01*
X140107953Y-99505108D01*
X140126966Y-99503475D01*
X140146051Y-99502623D01*
X140165200Y-99502408D01*
X140184404Y-99502687D01*
X140222948Y-99504153D01*
X140261619Y-99505873D01*
X140300354Y-99506702D01*
X140336795Y-99505199D01*
X140374447Y-99502581D01*
X140412863Y-99498624D01*
X140451598Y-99493107D01*
X140490206Y-99485805D01*
X140528240Y-99476495D01*
X140565254Y-99464955D01*
X140600803Y-99450962D01*
X140634440Y-99434292D01*
X140650402Y-99424884D01*
X140665719Y-99414723D01*
X140680335Y-99403781D01*
X140694194Y-99392031D01*
X140707241Y-99379444D01*
X140719419Y-99365993D01*
X140730674Y-99351650D01*
X140740948Y-99336387D01*
X140750187Y-99320176D01*
X140758335Y-99302989D01*
X140765336Y-99284798D01*
X140771134Y-99265576D01*
X140775673Y-99245295D01*
X140778898Y-99223926D01*
X140772921Y-99221314D01*
X140767216Y-99218578D01*
X140761768Y-99215723D01*
X140756561Y-99212752D01*
X140751582Y-99209670D01*
X140746815Y-99206481D01*
X140742245Y-99203187D01*
X140737858Y-99199795D01*
X140733637Y-99196306D01*
X140729569Y-99192726D01*
X140721830Y-99185307D01*
X140714522Y-99177570D01*
X140707524Y-99169546D01*
X140700717Y-99161267D01*
X140693982Y-99152764D01*
X140680249Y-99135218D01*
X140673012Y-99126238D01*
X140665369Y-99117163D01*
X140657200Y-99108023D01*
X140648385Y-99098852D01*
X140640357Y-99091117D01*
X140632592Y-99084131D01*
X140625098Y-99077750D01*
X140617882Y-99071832D01*
X140604319Y-99060807D01*
X140597987Y-99055414D01*
X140591967Y-99049910D01*
X140586264Y-99044151D01*
X140580889Y-99037993D01*
X140578326Y-99034720D01*
X140575848Y-99031294D01*
X140573455Y-99027696D01*
X140571149Y-99023909D01*
X140568931Y-99019916D01*
X140566801Y-99015697D01*
X140564761Y-99011235D01*
X140562812Y-99006512D01*
X140560954Y-99001510D01*
X140559188Y-98996212D01*
X140557517Y-98990599D01*
X140555940Y-98984654D01*
X140553248Y-98974396D01*
X140551234Y-98964028D01*
X140549810Y-98953563D01*
X140548887Y-98943019D01*
X140548379Y-98932411D01*
X140548197Y-98921756D01*
X140548462Y-98900365D01*
X140548983Y-98878974D01*
X140549057Y-98857711D01*
X140548708Y-98847166D01*
X140547984Y-98836702D01*
X140546799Y-98826333D01*
X140545064Y-98816076D01*
X140542835Y-98804971D01*
X140540231Y-98794088D01*
X140537261Y-98783423D01*
X140533933Y-98772975D01*
X140526233Y-98752724D01*
X140517194Y-98733316D01*
X140506881Y-98714737D01*
X140495358Y-98696971D01*
X140482687Y-98680001D01*
X140468932Y-98663812D01*
X140454158Y-98648387D01*
X140438428Y-98633712D01*
X140421806Y-98619769D01*
X140404356Y-98606543D01*
X140386140Y-98594018D01*
X140367224Y-98582178D01*
X140347671Y-98571007D01*
X140327544Y-98560490D01*
X140336681Y-98543013D01*
X140346726Y-98527227D01*
X140357631Y-98513039D01*
X140369349Y-98500353D01*
X140381831Y-98489078D01*
X140395031Y-98479119D01*
X140408899Y-98470383D01*
X140423389Y-98462776D01*
X140438453Y-98456204D01*
X140454042Y-98450575D01*
X140470109Y-98445794D01*
X140486606Y-98441767D01*
X140520700Y-98435604D01*
X140555941Y-98431337D01*
X140628334Y-98425496D01*
X140664722Y-98422424D01*
X140700727Y-98418252D01*
X140735968Y-98412233D01*
X140753182Y-98408296D01*
X140770062Y-98403616D01*
X140786559Y-98398100D01*
X140802626Y-98391654D01*
X140818215Y-98384185D01*
X140833279Y-98375598D01*
X140857325Y-98359613D01*
X140880861Y-98344584D01*
X140892597Y-98337568D01*
X140904397Y-98330957D01*
X140916325Y-98324809D01*
X140928444Y-98319179D01*
X140940817Y-98314122D01*
X140953509Y-98309694D01*
X140966584Y-98305951D01*
X140980104Y-98302950D01*
X140994135Y-98300744D01*
X141008739Y-98299392D01*
X141023980Y-98298947D01*
X141031859Y-98299082D01*
X141039922Y-98299466D01*
X141055993Y-98301744D01*
X141071626Y-98304437D01*
X141101864Y-98310682D01*
X141160238Y-98323937D01*
X141174811Y-98326852D01*
X141189520Y-98329417D01*
X141204436Y-98331536D01*
X141219631Y-98333114D01*
X141235177Y-98334053D01*
X141251144Y-98334261D01*
X141267606Y-98333639D01*
X141284632Y-98332094D01*
X141293127Y-98331459D01*
X141301292Y-98330582D01*
X141309145Y-98329476D01*
X141316708Y-98328153D01*
X141331041Y-98324913D01*
X141344450Y-98320963D01*
X141357095Y-98316408D01*
X141369134Y-98311351D01*
X141380727Y-98305896D01*
X141392033Y-98300146D01*
X141414422Y-98288176D01*
X141425824Y-98282163D01*
X141437576Y-98276269D01*
X141449838Y-98270599D01*
X141462770Y-98265255D01*
X141476529Y-98260342D01*
X141491277Y-98255962D01*
X141505914Y-98253405D01*
X141521196Y-98251820D01*
X141537004Y-98251159D01*
X141553219Y-98251374D01*
X141569720Y-98252417D01*
X141586388Y-98254241D01*
X141603105Y-98256798D01*
X141619749Y-98260040D01*
X141636203Y-98263920D01*
X141652345Y-98268389D01*
X141668058Y-98273399D01*
X141683221Y-98278903D01*
X141697715Y-98284854D01*
X141711420Y-98291203D01*
X141724217Y-98297902D01*
X141735986Y-98304904D01*
X141736465Y-98304919D01*
X141736882Y-98304965D01*
X141737242Y-98305038D01*
X141737547Y-98305138D01*
X141737801Y-98305261D01*
X141737909Y-98305331D01*
X141738005Y-98305406D01*
X141738090Y-98305486D01*
X141738164Y-98305571D01*
X141738227Y-98305660D01*
X141738280Y-98305754D01*
X141738356Y-98305952D01*
X141738396Y-98306165D01*
X141738401Y-98306390D01*
X141738376Y-98306625D01*
X141738323Y-98306867D01*
X141738244Y-98307116D01*
X141738144Y-98307368D01*
X141738025Y-98307623D01*
X141737890Y-98307877D01*
X141737743Y-98308130D01*
X141737420Y-98308621D01*
X141737082Y-98309081D01*
X141736751Y-98309492D01*
X141736209Y-98310108D01*
X141735986Y-98310342D01*
X141747093Y-98320112D01*
X141757992Y-98329043D01*
X141768697Y-98337158D01*
X141779225Y-98344478D01*
X141789589Y-98351026D01*
X141799804Y-98356822D01*
X141809887Y-98361890D01*
X141819850Y-98366251D01*
X141829711Y-98369927D01*
X141839482Y-98372940D01*
X141849180Y-98375311D01*
X141858819Y-98377064D01*
X141868414Y-98378218D01*
X141877981Y-98378797D01*
X141887533Y-98378823D01*
X141897087Y-98378317D01*
X141906656Y-98377301D01*
X141916257Y-98375797D01*
X141925903Y-98373827D01*
X141935610Y-98371413D01*
X141955265Y-98365341D01*
X141975343Y-98357754D01*
X141995963Y-98348830D01*
X142017243Y-98338743D01*
X142062266Y-98315780D01*
X142081761Y-98305265D01*
X142101479Y-98296152D01*
X142121389Y-98288441D01*
X142141457Y-98282132D01*
X142161653Y-98277225D01*
X142181945Y-98273720D01*
X142202300Y-98271617D01*
X142222687Y-98270916D01*
X142243074Y-98271617D01*
X142263430Y-98273720D01*
X142283721Y-98277225D01*
X142303917Y-98282132D01*
X142323986Y-98288441D01*
X142343895Y-98296152D01*
X142363613Y-98305265D01*
X142383108Y-98315780D01*
X142417584Y-98337564D01*
X142434750Y-98347814D01*
X142451932Y-98357500D01*
X142469178Y-98366516D01*
X142486536Y-98374759D01*
X142504053Y-98382126D01*
X142521777Y-98388513D01*
X142539756Y-98393817D01*
X142558037Y-98397934D01*
X142576669Y-98400761D01*
X142586132Y-98401658D01*
X142595700Y-98402193D01*
X142605379Y-98402354D01*
X142615176Y-98402128D01*
X142625097Y-98401502D01*
X142635147Y-98400462D01*
X142645332Y-98398996D01*
X142655659Y-98397091D01*
X142666133Y-98394734D01*
X142676760Y-98391912D01*
X142759774Y-98367271D01*
X142779871Y-98361788D01*
X142799784Y-98356926D01*
X142819554Y-98352861D01*
X142839220Y-98349767D01*
X142858823Y-98347821D01*
X142878401Y-98347197D01*
X142897996Y-98348071D01*
X142907812Y-98349124D01*
X142917646Y-98350617D01*
X142927505Y-98352572D01*
X142937392Y-98355012D01*
X142947313Y-98357957D01*
X142957274Y-98361429D01*
X142967277Y-98365452D01*
X142977330Y-98370046D01*
X142987437Y-98375233D01*
X142997602Y-98381036D01*
X143006534Y-98386315D01*
X143015020Y-98391912D01*
X143023124Y-98397764D01*
X143030910Y-98403808D01*
X143038440Y-98409978D01*
X143045779Y-98416213D01*
X143060139Y-98428618D01*
X143067287Y-98434662D01*
X143074499Y-98440514D01*
X143081838Y-98446111D01*
X143089368Y-98451390D01*
X143097154Y-98456286D01*
X143105257Y-98460737D01*
X143109449Y-98462774D01*
X143113744Y-98464677D01*
X143118150Y-98466436D01*
X143122676Y-98468044D01*
X143142416Y-98472588D01*
X143162834Y-98476105D01*
X143183841Y-98478714D01*
X143205350Y-98480534D01*
X143227273Y-98481685D01*
X143249523Y-98482287D01*
X143294652Y-98482319D01*
X143384974Y-98481044D01*
X143428765Y-98481649D01*
X143450011Y-98482681D01*
X143470708Y-98484358D01*
X143517589Y-98490762D01*
X143564343Y-98497868D01*
X143610842Y-98505866D01*
X143656959Y-98514947D01*
X143702566Y-98525302D01*
X143747536Y-98537123D01*
X143791741Y-98550602D01*
X143813516Y-98558022D01*
X143835053Y-98565928D01*
X143883297Y-98584986D01*
X143930155Y-98605470D01*
X143975642Y-98627404D01*
X144019776Y-98650812D01*
X144062571Y-98675717D01*
X144104043Y-98702143D01*
X144144210Y-98730115D01*
X144183086Y-98759656D01*
X144220687Y-98790791D01*
X144257030Y-98823542D01*
X144292130Y-98857935D01*
X144326003Y-98893992D01*
X144358665Y-98931738D01*
X144390133Y-98971197D01*
X144420422Y-99012392D01*
X144449547Y-99055348D01*
X144477614Y-99102688D01*
X144502779Y-99150874D01*
X144525202Y-99199856D01*
X144545042Y-99249586D01*
X144562456Y-99300018D01*
X144577602Y-99351102D01*
X144601726Y-99455040D01*
X144618682Y-99561018D01*
X144629734Y-99668652D01*
X144636151Y-99777560D01*
X144639198Y-99887361D01*
X144643021Y-100327839D01*
X144648219Y-100436365D01*
X144657646Y-100543490D01*
X144672570Y-100648830D01*
X144694257Y-100752003D01*
X144713687Y-100823410D01*
X144737283Y-100894506D01*
X144765006Y-100964726D01*
X144796814Y-101033504D01*
X144832670Y-101100275D01*
X144872532Y-101164473D01*
X144916361Y-101225532D01*
X144964118Y-101282888D01*
X145015762Y-101335973D01*
X145043029Y-101360738D01*
X145071253Y-101384223D01*
X145100429Y-101406359D01*
X145130552Y-101427073D01*
X145161616Y-101446296D01*
X145193618Y-101463956D01*
X145226552Y-101479983D01*
X145260413Y-101494307D01*
X145295196Y-101506856D01*
X145330896Y-101517560D01*
X145367508Y-101526349D01*
X145405027Y-101533151D01*
X145443449Y-101537896D01*
X145482767Y-101540513D01*
X145510122Y-101540933D01*
X145537126Y-101540175D01*
X145563779Y-101538275D01*
X145590083Y-101535266D01*
X145616035Y-101531181D01*
X145641637Y-101526055D01*
X145691790Y-101512813D01*
X145740541Y-101495811D01*
X145787890Y-101475320D01*
X145833837Y-101451611D01*
X145878382Y-101424955D01*
X145921524Y-101395622D01*
X145963265Y-101363884D01*
X146003604Y-101330011D01*
X146042541Y-101294273D01*
X146080076Y-101256943D01*
X146116209Y-101218290D01*
X146150940Y-101178586D01*
X146184269Y-101138101D01*
X146260752Y-101043541D01*
X146335258Y-100947516D01*
X146407854Y-100850089D01*
X146478601Y-100751323D01*
X146547563Y-100651283D01*
X146614806Y-100550032D01*
X146680391Y-100447634D01*
X146744383Y-100344153D01*
X146791604Y-100261351D01*
X146838698Y-100176255D01*
X146884517Y-100089119D01*
X146927915Y-100000200D01*
X146948348Y-99955150D01*
X146967744Y-99909751D01*
X146985962Y-99864032D01*
X147002858Y-99818027D01*
X147018287Y-99771767D01*
X147032108Y-99725283D01*
X147044176Y-99678609D01*
X147054349Y-99631775D01*
X147070663Y-99555643D01*
X147560082Y-100050501D01*
X145346818Y-102459534D01*
X146140765Y-102459534D01*
X146140765Y-102541104D01*
X146140250Y-102540657D01*
X146138746Y-102540330D01*
X146133022Y-102540011D01*
X146112471Y-102540510D01*
X146083125Y-102542156D01*
X146048999Y-102544503D01*
X145982468Y-102549516D01*
X145944997Y-102551980D01*
X145918306Y-102558427D01*
X145904909Y-102561981D01*
X145891552Y-102565830D01*
X145878290Y-102570030D01*
X145865180Y-102574635D01*
X145852276Y-102579703D01*
X145839636Y-102585288D01*
X145827314Y-102591447D01*
X145815367Y-102598235D01*
X145803850Y-102605709D01*
X145792818Y-102613923D01*
X145782329Y-102622933D01*
X145772436Y-102632796D01*
X145763197Y-102643567D01*
X145758840Y-102649311D01*
X145754668Y-102655302D01*
X145741931Y-102674785D01*
X145730207Y-102694482D01*
X145719455Y-102714384D01*
X145709634Y-102734483D01*
X145692630Y-102775232D01*
X145678875Y-102816658D01*
X145668053Y-102858690D01*
X145659842Y-102901255D01*
X145653927Y-102944282D01*
X145649986Y-102987700D01*
X145649951Y-102988379D01*
X145647703Y-103031437D01*
X145646757Y-103075420D01*
X145647607Y-103163840D01*
X145649986Y-103252388D01*
X145651346Y-103340490D01*
X145666980Y-104247277D01*
X145684229Y-104787338D01*
X145696326Y-105011230D01*
X145711164Y-105178534D01*
X145714279Y-105196922D01*
X145718496Y-105214377D01*
X145723771Y-105230920D01*
X145730059Y-105246572D01*
X145737314Y-105261357D01*
X145745492Y-105275295D01*
X145754549Y-105288408D01*
X145764439Y-105300719D01*
X145775118Y-105312249D01*
X145786540Y-105323020D01*
X145798662Y-105333055D01*
X145811437Y-105342375D01*
X145824822Y-105351001D01*
X145838772Y-105358957D01*
X145853241Y-105366263D01*
X145868186Y-105372942D01*
X145883560Y-105379016D01*
X145899320Y-105384506D01*
X145915421Y-105389434D01*
X145931817Y-105393823D01*
X145948464Y-105397694D01*
X145965317Y-105401070D01*
X145999462Y-105406420D01*
X146033895Y-105410050D01*
X146068255Y-105412134D01*
X146102186Y-105412848D01*
X146135327Y-105412368D01*
X146135561Y-105418995D01*
X146136177Y-105429701D01*
X146138046Y-105457231D01*
X146140765Y-105493938D01*
X143671914Y-105493938D01*
X143530526Y-104504222D01*
X143612096Y-104504222D01*
X143613381Y-104504971D01*
X143615173Y-104507159D01*
X143620147Y-104515480D01*
X143634697Y-104545347D01*
X143653582Y-104587959D01*
X143674633Y-104637453D01*
X143714568Y-104733638D01*
X143737170Y-104786998D01*
X143748832Y-104814147D01*
X143761386Y-104840539D01*
X143774832Y-104866182D01*
X143789170Y-104891085D01*
X143804401Y-104915254D01*
X143820524Y-104938699D01*
X143837539Y-104961427D01*
X143855446Y-104983446D01*
X143874245Y-105004764D01*
X143893937Y-105025388D01*
X143914521Y-105045328D01*
X143935996Y-105064591D01*
X143958364Y-105083184D01*
X143981625Y-105101117D01*
X144005777Y-105118396D01*
X144030822Y-105135030D01*
X144086561Y-105167659D01*
X144150712Y-105197748D01*
X144221619Y-105224538D01*
X144297623Y-105247274D01*
X144377069Y-105265198D01*
X144458299Y-105277554D01*
X144539657Y-105283586D01*
X144619485Y-105282536D01*
X144658308Y-105279119D01*
X144696127Y-105273647D01*
X144732735Y-105266027D01*
X144767925Y-105256164D01*
X144801491Y-105243962D01*
X144833224Y-105229328D01*
X144862918Y-105212167D01*
X144890365Y-105192384D01*
X144915359Y-105169884D01*
X144937693Y-105144574D01*
X144957159Y-105116358D01*
X144973550Y-105085143D01*
X144986659Y-105050832D01*
X144996279Y-105013332D01*
X145002203Y-104972548D01*
X145004223Y-104928386D01*
X145004223Y-104014802D01*
X144969800Y-104017117D01*
X144935824Y-104020070D01*
X144902229Y-104023787D01*
X144868953Y-104028397D01*
X144835932Y-104034026D01*
X144803102Y-104040802D01*
X144770400Y-104048853D01*
X144737761Y-104058306D01*
X144711805Y-104068002D01*
X144686942Y-104078717D01*
X144663150Y-104090415D01*
X144640408Y-104103063D01*
X144618694Y-104116627D01*
X144597985Y-104131073D01*
X144578260Y-104146368D01*
X144559497Y-104162477D01*
X144541674Y-104179367D01*
X144524769Y-104197003D01*
X144508760Y-104215353D01*
X144493625Y-104234382D01*
X144479343Y-104254056D01*
X144465891Y-104274341D01*
X144453247Y-104295204D01*
X144441390Y-104316610D01*
X144430298Y-104338527D01*
X144419949Y-104360919D01*
X144410321Y-104383753D01*
X144401391Y-104406996D01*
X144385542Y-104454570D01*
X144372226Y-104503372D01*
X144361268Y-104553129D01*
X144352492Y-104603571D01*
X144345724Y-104654428D01*
X144340788Y-104705428D01*
X144259218Y-104705428D01*
X144259218Y-103645018D01*
X142198216Y-105890911D01*
X142709388Y-105890911D01*
X142709303Y-105911303D01*
X142709101Y-105921500D01*
X142708708Y-105931696D01*
X142708060Y-105941892D01*
X142707094Y-105952088D01*
X142705745Y-105962285D01*
X142704907Y-105967383D01*
X142703950Y-105972481D01*
X142676650Y-105973101D01*
X142650791Y-105975910D01*
X142626319Y-105980805D01*
X142603177Y-105987680D01*
X142581310Y-105996431D01*
X142560661Y-106006953D01*
X142541175Y-106019142D01*
X142522797Y-106032894D01*
X142505470Y-106048103D01*
X142489138Y-106064665D01*
X142473747Y-106082477D01*
X142459240Y-106101432D01*
X142445561Y-106121426D01*
X142432655Y-106142356D01*
X142420466Y-106164116D01*
X142408938Y-106186602D01*
X142387643Y-106233334D01*
X142368323Y-106281714D01*
X142350533Y-106330907D01*
X142333826Y-106380076D01*
X142301878Y-106474997D01*
X142285745Y-106519076D01*
X142268910Y-106559785D01*
X142231553Y-106646792D01*
X142193309Y-106735861D01*
X142120895Y-106913085D01*
D11*
%TO.C,H3*%
X168675000Y-132225000D03*
%TD*%
%TO.C,H4*%
X118675000Y-132225000D03*
%TD*%
D12*
%TO.C,U1*%
X152565000Y-89079400D03*
X152565000Y-91619400D03*
D13*
X152565000Y-94159400D03*
D12*
X152565000Y-96699400D03*
X152565000Y-99239400D03*
X152565000Y-101779400D03*
X152565000Y-104319400D03*
D13*
X152565000Y-106859400D03*
D12*
X152565000Y-109399400D03*
X152565000Y-111939400D03*
X152565000Y-114479400D03*
X152565000Y-117019400D03*
D13*
X152565000Y-119559400D03*
X134785000Y-119559400D03*
D12*
X134785000Y-117019400D03*
X134785000Y-114479400D03*
X134785000Y-111939400D03*
X134785000Y-109399400D03*
D13*
X134785000Y-106859400D03*
D12*
X134785000Y-104319400D03*
X134785000Y-101779400D03*
X134785000Y-99239400D03*
X134785000Y-96699400D03*
D13*
X134785000Y-94159400D03*
D12*
X134785000Y-91619400D03*
X134785000Y-89079400D03*
%TD*%
%TO.C,J7*%
X128577400Y-96125400D03*
D13*
X128577400Y-98665400D03*
%TD*%
D11*
%TO.C,H1*%
X118675000Y-92225000D03*
%TD*%
%TO.C,H2*%
X168675000Y-92225000D03*
%TD*%
D12*
%TO.C,J8*%
X124585000Y-111850000D03*
D13*
X127125000Y-111850000D03*
%TD*%
D12*
%TO.C,J6*%
X116885000Y-102095000D03*
X116885000Y-104635000D03*
D13*
X116885000Y-107175000D03*
%TD*%
D14*
%TO.C,SW1*%
X161500000Y-105260000D03*
X161500000Y-117760000D03*
X166500000Y-117760000D03*
X166500000Y-105260000D03*
%TD*%
D15*
%TO.C,JP3*%
X125388600Y-120504000D03*
D16*
X129388600Y-120504000D03*
D17*
X128588600Y-120504000D03*
X126188600Y-120504000D03*
%TD*%
D16*
%TO.C,JP6*%
X154975000Y-130075000D03*
D15*
X150975000Y-130075000D03*
D17*
X151775000Y-130075000D03*
X154175000Y-130075000D03*
%TD*%
D16*
%TO.C,JP5*%
X138175000Y-130050000D03*
D15*
X134175000Y-130050000D03*
D17*
X137375000Y-130050000D03*
X134975000Y-130050000D03*
%TD*%
D16*
%TO.C,JP4*%
X129825000Y-130100000D03*
D15*
X125825000Y-130100000D03*
D17*
X129025000Y-130100000D03*
X126625000Y-130100000D03*
%TD*%
D16*
%TO.C,JP1*%
X163375000Y-130075000D03*
D15*
X159375000Y-130075000D03*
D17*
X162575000Y-130075000D03*
X160175000Y-130075000D03*
%TD*%
D16*
%TO.C,JP2*%
X146625000Y-130075000D03*
D15*
X142625000Y-130075000D03*
D17*
X145825000Y-130075000D03*
X143425000Y-130075000D03*
%TD*%
M02*
