%TF.GenerationSoftware,KiCad,Pcbnew,(6.0.9)*%
%TF.CreationDate,2022-11-23T22:08:25-07:00*%
%TF.ProjectId,AQM,41514d2e-6b69-4636-9164-5f7063625858,rev?*%
%TF.SameCoordinates,Original*%
%TF.FileFunction,Copper,L4,Bot*%
%TF.FilePolarity,Positive*%
%FSLAX46Y46*%
G04 Gerber Fmt 4.6, Leading zero omitted, Abs format (unit mm)*
G04 Created by KiCad (PCBNEW (6.0.9)) date 2022-11-23 22:08:25*
%MOMM*%
%LPD*%
G01*
G04 APERTURE LIST*
G04 Aperture macros list*
%AMFreePoly0*
4,1,6,1.000000,0.000000,0.500000,-0.750000,-0.500000,-0.750000,-0.500000,0.750000,0.500000,0.750000,1.000000,0.000000,1.000000,0.000000,$1*%
%AMFreePoly1*
4,1,7,0.700000,0.000000,1.200000,-0.750000,-1.200000,-0.750000,-0.700000,0.000000,-1.200000,0.750000,1.200000,0.750000,0.700000,0.000000,0.700000,0.000000,$1*%
G04 Aperture macros list end*
%TA.AperFunction,ComponentPad*%
%ADD10C,5.600000*%
%TD*%
%TA.AperFunction,ComponentPad*%
%ADD11O,1.700000X1.700000*%
%TD*%
%TA.AperFunction,ComponentPad*%
%ADD12R,1.700000X1.700000*%
%TD*%
%TA.AperFunction,ComponentPad*%
%ADD13O,1.850000X3.048000*%
%TD*%
%TA.AperFunction,SMDPad,CuDef*%
%ADD14FreePoly0,0.000000*%
%TD*%
%TA.AperFunction,SMDPad,CuDef*%
%ADD15FreePoly1,180.000000*%
%TD*%
%TA.AperFunction,SMDPad,CuDef*%
%ADD16FreePoly0,180.000000*%
%TD*%
%TA.AperFunction,SMDPad,CuDef*%
%ADD17FreePoly1,0.000000*%
%TD*%
%TA.AperFunction,ViaPad*%
%ADD18C,0.800000*%
%TD*%
%TA.AperFunction,Conductor*%
%ADD19C,0.500000*%
%TD*%
G04 APERTURE END LIST*
D10*
%TO.P,H3,1,1*%
%TO.N,GND*%
X168675000Y-132225000D03*
%TD*%
%TO.P,H4,1,1*%
%TO.N,GND*%
X118675000Y-132225000D03*
%TD*%
D11*
%TO.P,U1,26,D-*%
%TO.N,unconnected-(U1-Pad26)*%
X152565000Y-89079400D03*
%TO.P,U1,25,VBUS*%
%TO.N,VBUS*%
X152565000Y-91619400D03*
D12*
%TO.P,U1,24,GND*%
%TO.N,GND*%
X152565000Y-94159400D03*
D11*
%TO.P,U1,23,RST*%
%TO.N,unconnected-(U1-Pad23)*%
X152565000Y-96699400D03*
%TO.P,U1,22,3V3*%
%TO.N,+3V3*%
X152565000Y-99239400D03*
%TO.P,U1,21,A3*%
%TO.N,unconnected-(U1-Pad21)*%
X152565000Y-101779400D03*
%TO.P,U1,20,A2*%
%TO.N,unconnected-(U1-Pad20)*%
X152565000Y-104319400D03*
D12*
%TO.P,U1,19,A1*%
%TO.N,unconnected-(U1-Pad19)*%
X152565000Y-106859400D03*
D11*
%TO.P,U1,18,A0*%
%TO.N,unconnected-(U1-Pad18)*%
X152565000Y-109399400D03*
%TO.P,U1,17,SCLK*%
%TO.N,unconnected-(U1-Pad17)*%
X152565000Y-111939400D03*
%TO.P,U1,16,MISO*%
%TO.N,unconnected-(U1-Pad16)*%
X152565000Y-114479400D03*
%TO.P,U1,15,MOSI*%
%TO.N,unconnected-(U1-Pad15)*%
X152565000Y-117019400D03*
D12*
%TO.P,U1,14,D10*%
%TO.N,Net-(C5-Pad1)*%
X152565000Y-119559400D03*
%TO.P,U1,13,D9*%
%TO.N,Net-(U1-Pad13)*%
X134785000Y-119559400D03*
D11*
%TO.P,U1,12,D8*%
%TO.N,unconnected-(U1-Pad12)*%
X134785000Y-117019400D03*
%TO.P,U1,11,D7*%
%TO.N,unconnected-(U1-Pad11)*%
X134785000Y-114479400D03*
%TO.P,U1,10,D6*%
%TO.N,unconnected-(U1-Pad10)*%
X134785000Y-111939400D03*
%TO.P,U1,9,D5*%
%TO.N,unconnected-(U1-Pad9)*%
X134785000Y-109399400D03*
D12*
%TO.P,U1,8,D4*%
%TO.N,Net-(R6-Pad2)*%
X134785000Y-106859400D03*
D11*
%TO.P,U1,7,D3*%
%TO.N,Net-(U1-Pad7)*%
X134785000Y-104319400D03*
%TO.P,U1,6,D2*%
%TO.N,Net-(R1-Pad1)*%
X134785000Y-101779400D03*
%TO.P,U1,5,GND*%
%TO.N,GND*%
X134785000Y-99239400D03*
%TO.P,U1,4,GND*%
X134785000Y-96699400D03*
D12*
%TO.P,U1,3,RX*%
%TO.N,unconnected-(U1-Pad3)*%
X134785000Y-94159400D03*
D11*
%TO.P,U1,2,TX*%
%TO.N,unconnected-(U1-Pad2)*%
X134785000Y-91619400D03*
%TO.P,U1,1,D+*%
%TO.N,unconnected-(U1-Pad1)*%
X134785000Y-89079400D03*
%TD*%
%TO.P,J7,2,Pin_2*%
%TO.N,GND*%
X128577400Y-96125400D03*
D12*
%TO.P,J7,1,Pin_1*%
%TO.N,Net-(R1-Pad2)*%
X128577400Y-98665400D03*
%TD*%
D10*
%TO.P,H1,1,1*%
%TO.N,GND*%
X118675000Y-92225000D03*
%TD*%
%TO.P,H2,1,1*%
%TO.N,GND*%
X168675000Y-92225000D03*
%TD*%
D11*
%TO.P,J8,2,Pin_2*%
%TO.N,GND*%
X124585000Y-111850000D03*
D12*
%TO.P,J8,1,Pin_1*%
%TO.N,Net-(J8-Pad1)*%
X127125000Y-111850000D03*
%TD*%
D11*
%TO.P,J6,3,Pin_3*%
%TO.N,Net-(R8-Pad2)*%
X116885000Y-102095000D03*
%TO.P,J6,2,Pin_2*%
%TO.N,VBUS*%
X116885000Y-104635000D03*
D12*
%TO.P,J6,1,Pin_1*%
%TO.N,Net-(U1-Pad7)*%
X116885000Y-107175000D03*
%TD*%
D13*
%TO.P,SW1,2,2*%
%TO.N,+3V3*%
X161500000Y-105260000D03*
X161500000Y-117760000D03*
%TO.P,SW1,1,1*%
%TO.N,Net-(R3-Pad2)*%
X166500000Y-117760000D03*
X166500000Y-105260000D03*
%TD*%
D14*
%TO.P,JP3,3,B*%
%TO.N,VBUS*%
X125388600Y-120504000D03*
D15*
%TO.P,JP3,2,C*%
%TO.N,Net-(JP3-Pad2)*%
X127388600Y-120504000D03*
D16*
%TO.P,JP3,1,A*%
%TO.N,+3V3*%
X129388600Y-120504000D03*
%TD*%
%TO.P,JP6,3,B*%
%TO.N,VBUS*%
X154975000Y-130075000D03*
D17*
%TO.P,JP6,2,C*%
%TO.N,Net-(C13-Pad1)*%
X152975000Y-130075000D03*
D14*
%TO.P,JP6,1,A*%
%TO.N,+3V3*%
X150975000Y-130075000D03*
%TD*%
D16*
%TO.P,JP5,3,B*%
%TO.N,VBUS*%
X138175000Y-130050000D03*
D17*
%TO.P,JP5,2,C*%
%TO.N,Net-(C12-Pad1)*%
X136175000Y-130050000D03*
D14*
%TO.P,JP5,1,A*%
%TO.N,+3V3*%
X134175000Y-130050000D03*
%TD*%
D16*
%TO.P,JP4,3,B*%
%TO.N,VBUS*%
X129825000Y-130100000D03*
D17*
%TO.P,JP4,2,C*%
%TO.N,Net-(C11-Pad1)*%
X127825000Y-130100000D03*
D14*
%TO.P,JP4,1,A*%
%TO.N,+3V3*%
X125825000Y-130100000D03*
%TD*%
D16*
%TO.P,JP1,3,B*%
%TO.N,VBUS*%
X163375000Y-130075000D03*
D17*
%TO.P,JP1,2,C*%
%TO.N,Net-(C7-Pad1)*%
X161375000Y-130075000D03*
D14*
%TO.P,JP1,1,A*%
%TO.N,+3V3*%
X159375000Y-130075000D03*
%TD*%
D16*
%TO.P,JP2,3,B*%
%TO.N,VBUS*%
X146625000Y-130075000D03*
D17*
%TO.P,JP2,2,C*%
%TO.N,Net-(C10-Pad1)*%
X144625000Y-130075000D03*
D14*
%TO.P,JP2,1,A*%
%TO.N,+3V3*%
X142625000Y-130075000D03*
%TD*%
D18*
%TO.N,+3V3*%
X149425000Y-130050000D03*
X157925000Y-130075000D03*
X132475000Y-130050000D03*
X129948600Y-121596200D03*
X124025000Y-130125000D03*
X141050000Y-130050000D03*
%TO.N,VBUS*%
X139575000Y-130000000D03*
X131300000Y-130075000D03*
X156400000Y-130075000D03*
X148125000Y-130050000D03*
X125325800Y-121647000D03*
X164925000Y-130075000D03*
%TO.N,Net-(C7-Pad1)*%
X159971400Y-131502200D03*
%TO.N,Net-(C12-Pad1)*%
X134825400Y-131451400D03*
%TO.N,Net-(C10-Pad1)*%
X143055000Y-131654600D03*
%TO.N,Net-(C11-Pad1)*%
X126443400Y-131451400D03*
%TO.N,Net-(U1-Pad7)*%
X119375000Y-107125000D03*
%TO.N,Net-(C13-Pad1)*%
X151589400Y-131553000D03*
%TO.N,/I2C/I2C.SCL*%
X161901800Y-131603800D03*
X153621400Y-131603800D03*
X128526200Y-131603800D03*
X136959000Y-131603800D03*
X145087000Y-131603800D03*
%TD*%
D19*
%TO.N,+3V3*%
X150975000Y-130075000D02*
X149450000Y-130075000D01*
X142625000Y-130075000D02*
X141075000Y-130075000D01*
X134175000Y-130050000D02*
X132475000Y-130050000D01*
X129388600Y-121036200D02*
X129948600Y-121596200D01*
X159375000Y-130075000D02*
X157925000Y-130075000D01*
X125825000Y-130100000D02*
X124050000Y-130100000D01*
X129388600Y-120504000D02*
X129388600Y-121036200D01*
X149425000Y-130050000D02*
G75*
G03*
X149450000Y-130075000I25000J0D01*
G01*
X124025000Y-130125000D02*
G75*
G02*
X124050000Y-130100000I25000J0D01*
G01*
X141050000Y-130050000D02*
G75*
G03*
X141075000Y-130075000I25000J0D01*
G01*
%TO.N,VBUS*%
X129825000Y-130100000D02*
X131275000Y-130100000D01*
X146650000Y-130050000D02*
X148125000Y-130050000D01*
X163375000Y-130075000D02*
X164925000Y-130075000D01*
X125388600Y-120504000D02*
X125388600Y-121584200D01*
X125388600Y-121584200D02*
X125325800Y-121647000D01*
X138175000Y-130050000D02*
X139525000Y-130050000D01*
X154975000Y-130075000D02*
X156400000Y-130075000D01*
X131300000Y-130075000D02*
G75*
G02*
X131275000Y-130100000I-25000J0D01*
G01*
X139575000Y-130000000D02*
G75*
G02*
X139525000Y-130050000I-50000J0D01*
G01*
X146650000Y-130050000D02*
G75*
G03*
X146625000Y-130075000I0J-25000D01*
G01*
%TO.N,Net-(C7-Pad1)*%
X159971400Y-131502200D02*
X160225400Y-131502200D01*
X160885800Y-130841800D02*
G75*
G02*
X160225400Y-131502200I-660400J0D01*
G01*
%TO.N,Net-(C12-Pad1)*%
X136175000Y-130101800D02*
X136175000Y-130050000D01*
X136175000Y-130101800D02*
G75*
G02*
X134825400Y-131451400I-1349600J0D01*
G01*
%TO.N,Net-(C10-Pad1)*%
X144625000Y-130075000D02*
X144625000Y-130084600D01*
X143055000Y-131654600D02*
G75*
G03*
X144625000Y-130084600I0J1570000D01*
G01*
%TO.N,Net-(C11-Pad1)*%
X126443400Y-131451400D02*
X126473600Y-131451400D01*
X127825000Y-130100000D02*
G75*
G02*
X126473600Y-131451400I-1351400J0D01*
G01*
%TO.N,Net-(U1-Pad7)*%
X132480600Y-104319400D02*
X134785000Y-104319400D01*
X119375000Y-107125000D02*
X129675000Y-107125000D01*
X130475000Y-106325000D02*
G75*
G02*
X129675000Y-107125000I-800000J0D01*
G01*
X132480600Y-104319400D02*
G75*
G03*
X130475000Y-106325000I0J-2005600D01*
G01*
%TO.N,Net-(C13-Pad1)*%
X151589400Y-131553000D02*
X152097400Y-131553000D01*
X152808600Y-130841800D02*
G75*
G02*
X152097400Y-131553000I-711200J0D01*
G01*
%TO.N,/I2C/I2C.SCL*%
X129999400Y-133077000D02*
X138432200Y-133077000D01*
X160428600Y-133077000D02*
X155094600Y-133077000D01*
X146560200Y-133077000D02*
X138432200Y-133077000D01*
X155094600Y-133077000D02*
X146560200Y-133077000D01*
X136959000Y-131603800D02*
G75*
G03*
X138432200Y-133077000I1473200J0D01*
G01*
X145087000Y-131603800D02*
G75*
G03*
X146560200Y-133077000I1473200J0D01*
G01*
X129999400Y-133077000D02*
G75*
G02*
X128526200Y-131603800I0J1473200D01*
G01*
X160428600Y-133077000D02*
G75*
G03*
X161901800Y-131603800I0J1473200D01*
G01*
X153621400Y-131603800D02*
G75*
G03*
X155094600Y-133077000I1473200J0D01*
G01*
%TD*%
%TA.AperFunction,Conductor*%
%TO.N,GND*%
G36*
X134125494Y-87678502D02*
G01*
X134171987Y-87732158D01*
X134182091Y-87802432D01*
X134152597Y-87867012D01*
X134115558Y-87896260D01*
X134058607Y-87925907D01*
X134054474Y-87929010D01*
X134054471Y-87929012D01*
X134030247Y-87947200D01*
X133879965Y-88060035D01*
X133725629Y-88221538D01*
X133722715Y-88225810D01*
X133722714Y-88225811D01*
X133637556Y-88350649D01*
X133599743Y-88406080D01*
X133505688Y-88608705D01*
X133445989Y-88823970D01*
X133422251Y-89046095D01*
X133422548Y-89051248D01*
X133422548Y-89051251D01*
X133427879Y-89143702D01*
X133435110Y-89269115D01*
X133436247Y-89274161D01*
X133436248Y-89274167D01*
X133442449Y-89301681D01*
X133484222Y-89487039D01*
X133534317Y-89610408D01*
X133565900Y-89688188D01*
X133568266Y-89694016D01*
X133684987Y-89884488D01*
X133831250Y-90053338D01*
X134003126Y-90196032D01*
X134052463Y-90224862D01*
X134076445Y-90238876D01*
X134125169Y-90290514D01*
X134138240Y-90360297D01*
X134111509Y-90426069D01*
X134071055Y-90459427D01*
X134058607Y-90465907D01*
X134054474Y-90469010D01*
X134054471Y-90469012D01*
X133884100Y-90596930D01*
X133879965Y-90600035D01*
X133725629Y-90761538D01*
X133599743Y-90946080D01*
X133505688Y-91148705D01*
X133445989Y-91363970D01*
X133422251Y-91586095D01*
X133422548Y-91591248D01*
X133422548Y-91591251D01*
X133428011Y-91685990D01*
X133435110Y-91809115D01*
X133436247Y-91814161D01*
X133436248Y-91814167D01*
X133446681Y-91860461D01*
X133484222Y-92027039D01*
X133522461Y-92121211D01*
X133565344Y-92226819D01*
X133568266Y-92234016D01*
X133684987Y-92424488D01*
X133831250Y-92593338D01*
X133835230Y-92596642D01*
X133839981Y-92600587D01*
X133879616Y-92659490D01*
X133881113Y-92730471D01*
X133843997Y-92790993D01*
X133803725Y-92815512D01*
X133715095Y-92848738D01*
X133688295Y-92858785D01*
X133571739Y-92946139D01*
X133484385Y-93062695D01*
X133433255Y-93199084D01*
X133426500Y-93261266D01*
X133426500Y-95057534D01*
X133433255Y-95119716D01*
X133484385Y-95256105D01*
X133571739Y-95372661D01*
X133688295Y-95460015D01*
X133696704Y-95463167D01*
X133696705Y-95463168D01*
X133805960Y-95504126D01*
X133862725Y-95546767D01*
X133887425Y-95613329D01*
X133872218Y-95682678D01*
X133852825Y-95709159D01*
X133729590Y-95838117D01*
X133723104Y-95846127D01*
X133603098Y-96022049D01*
X133598000Y-96031023D01*
X133508338Y-96224183D01*
X133504775Y-96233870D01*
X133449389Y-96433583D01*
X133450912Y-96442007D01*
X133463292Y-96445400D01*
X136103344Y-96445400D01*
X136116875Y-96441427D01*
X136118180Y-96432347D01*
X136076214Y-96265275D01*
X136072894Y-96255524D01*
X135987972Y-96060214D01*
X135983105Y-96051139D01*
X135867426Y-95872326D01*
X135861136Y-95864157D01*
X135717293Y-95706077D01*
X135686241Y-95642231D01*
X135694635Y-95571733D01*
X135739812Y-95516964D01*
X135766256Y-95503295D01*
X135873297Y-95463167D01*
X135881705Y-95460015D01*
X135998261Y-95372661D01*
X136085615Y-95256105D01*
X136136745Y-95119716D01*
X136143500Y-95057534D01*
X136143500Y-93261266D01*
X136136745Y-93199084D01*
X136085615Y-93062695D01*
X135998261Y-92946139D01*
X135881705Y-92858785D01*
X135854905Y-92848738D01*
X135763203Y-92814360D01*
X135706439Y-92771718D01*
X135681739Y-92705156D01*
X135696947Y-92635808D01*
X135718493Y-92607127D01*
X135819435Y-92506537D01*
X135823096Y-92502889D01*
X135882594Y-92420089D01*
X135950435Y-92325677D01*
X135953453Y-92321477D01*
X135980565Y-92266621D01*
X136050136Y-92125853D01*
X136050137Y-92125851D01*
X136052430Y-92121211D01*
X136117370Y-91907469D01*
X136146529Y-91685990D01*
X136148156Y-91619400D01*
X136129852Y-91396761D01*
X136075431Y-91180102D01*
X135986354Y-90975240D01*
X135946906Y-90914262D01*
X135867822Y-90792017D01*
X135867820Y-90792014D01*
X135865014Y-90787677D01*
X135714670Y-90622451D01*
X135710619Y-90619252D01*
X135710615Y-90619248D01*
X135543414Y-90487200D01*
X135543410Y-90487198D01*
X135539359Y-90483998D01*
X135498053Y-90461196D01*
X135448084Y-90410764D01*
X135433312Y-90341321D01*
X135458428Y-90274916D01*
X135485780Y-90248309D01*
X135539127Y-90210257D01*
X135664860Y-90120573D01*
X135699375Y-90086179D01*
X135819435Y-89966537D01*
X135823096Y-89962889D01*
X135882594Y-89880089D01*
X135950435Y-89785677D01*
X135953453Y-89781477D01*
X135982359Y-89722991D01*
X136050136Y-89585853D01*
X136050137Y-89585851D01*
X136052430Y-89581211D01*
X136117370Y-89367469D01*
X136146529Y-89145990D01*
X136148156Y-89079400D01*
X136129852Y-88856761D01*
X136075431Y-88640102D01*
X135986354Y-88435240D01*
X135881929Y-88273823D01*
X135867822Y-88252017D01*
X135867820Y-88252014D01*
X135865014Y-88247677D01*
X135714670Y-88082451D01*
X135710619Y-88079252D01*
X135710615Y-88079248D01*
X135543414Y-87947200D01*
X135543410Y-87947198D01*
X135539359Y-87943998D01*
X135450253Y-87894809D01*
X135400282Y-87844376D01*
X135385510Y-87774933D01*
X135410626Y-87708528D01*
X135467657Y-87666243D01*
X135511146Y-87658500D01*
X151837373Y-87658500D01*
X151905494Y-87678502D01*
X151951987Y-87732158D01*
X151962091Y-87802432D01*
X151932597Y-87867012D01*
X151895558Y-87896260D01*
X151838607Y-87925907D01*
X151834474Y-87929010D01*
X151834471Y-87929012D01*
X151810247Y-87947200D01*
X151659965Y-88060035D01*
X151505629Y-88221538D01*
X151502715Y-88225810D01*
X151502714Y-88225811D01*
X151417556Y-88350649D01*
X151379743Y-88406080D01*
X151285688Y-88608705D01*
X151225989Y-88823970D01*
X151202251Y-89046095D01*
X151202548Y-89051248D01*
X151202548Y-89051251D01*
X151207879Y-89143702D01*
X151215110Y-89269115D01*
X151216247Y-89274161D01*
X151216248Y-89274167D01*
X151222449Y-89301681D01*
X151264222Y-89487039D01*
X151314317Y-89610408D01*
X151345900Y-89688188D01*
X151348266Y-89694016D01*
X151464987Y-89884488D01*
X151611250Y-90053338D01*
X151783126Y-90196032D01*
X151832463Y-90224862D01*
X151856445Y-90238876D01*
X151905169Y-90290514D01*
X151918240Y-90360297D01*
X151891509Y-90426069D01*
X151851055Y-90459427D01*
X151838607Y-90465907D01*
X151834474Y-90469010D01*
X151834471Y-90469012D01*
X151664100Y-90596930D01*
X151659965Y-90600035D01*
X151505629Y-90761538D01*
X151379743Y-90946080D01*
X151285688Y-91148705D01*
X151225989Y-91363970D01*
X151202251Y-91586095D01*
X151202548Y-91591248D01*
X151202548Y-91591251D01*
X151208011Y-91685990D01*
X151215110Y-91809115D01*
X151216247Y-91814161D01*
X151216248Y-91814167D01*
X151226681Y-91860461D01*
X151264222Y-92027039D01*
X151302461Y-92121211D01*
X151345344Y-92226819D01*
X151348266Y-92234016D01*
X151464987Y-92424488D01*
X151611250Y-92593338D01*
X151615225Y-92596638D01*
X151615231Y-92596644D01*
X151620425Y-92600956D01*
X151660059Y-92659860D01*
X151661555Y-92730841D01*
X151624439Y-92791362D01*
X151584168Y-92815880D01*
X151476946Y-92856076D01*
X151461351Y-92864614D01*
X151359276Y-92941115D01*
X151346715Y-92953676D01*
X151270214Y-93055751D01*
X151261676Y-93071346D01*
X151216522Y-93191794D01*
X151212895Y-93207049D01*
X151207369Y-93257914D01*
X151207000Y-93264728D01*
X151207000Y-93887285D01*
X151211475Y-93902524D01*
X151212865Y-93903729D01*
X151220548Y-93905400D01*
X153904884Y-93905400D01*
X153920123Y-93900925D01*
X153921328Y-93899535D01*
X153922999Y-93891852D01*
X153922999Y-93264731D01*
X153922629Y-93257910D01*
X153917105Y-93207048D01*
X153913479Y-93191796D01*
X153868324Y-93071346D01*
X153859786Y-93055751D01*
X153783285Y-92953676D01*
X153770724Y-92941115D01*
X153668649Y-92864614D01*
X153653054Y-92856076D01*
X153542813Y-92814748D01*
X153486049Y-92772106D01*
X153461349Y-92705545D01*
X153476557Y-92636196D01*
X153498104Y-92607515D01*
X153599430Y-92506544D01*
X153599440Y-92506532D01*
X153603096Y-92502889D01*
X153662594Y-92420089D01*
X153730435Y-92325677D01*
X153733453Y-92321477D01*
X153760565Y-92266621D01*
X153785172Y-92216832D01*
X165362333Y-92216832D01*
X165380117Y-92567893D01*
X165380827Y-92574649D01*
X165436420Y-92921723D01*
X165437859Y-92928378D01*
X165530608Y-93267410D01*
X165532757Y-93273871D01*
X165661581Y-93600912D01*
X165664412Y-93607095D01*
X165827803Y-93918310D01*
X165831286Y-93924152D01*
X166027330Y-94215896D01*
X166031433Y-94221340D01*
X166151425Y-94363836D01*
X166164164Y-94372279D01*
X166174608Y-94366181D01*
X168302980Y-92237810D01*
X168309357Y-92226131D01*
X169039408Y-92226131D01*
X169039539Y-92227966D01*
X169043790Y-92234580D01*
X171174009Y-94364798D01*
X171187605Y-94372223D01*
X171197218Y-94365522D01*
X171297518Y-94248912D01*
X171301676Y-94243514D01*
X171500762Y-93953840D01*
X171504310Y-93948029D01*
X171670942Y-93638559D01*
X171673849Y-93632381D01*
X171806090Y-93306713D01*
X171808304Y-93300283D01*
X171904598Y-92962237D01*
X171906105Y-92955607D01*
X171965332Y-92609118D01*
X171966112Y-92602378D01*
X171987668Y-92249925D01*
X171987784Y-92246323D01*
X171987853Y-92226819D01*
X171987761Y-92223194D01*
X171968666Y-91870615D01*
X171967931Y-91863849D01*
X171911130Y-91516985D01*
X171909663Y-91510313D01*
X171815736Y-91171627D01*
X171813562Y-91165163D01*
X171683598Y-90838578D01*
X171680742Y-90832398D01*
X171516269Y-90521763D01*
X171512769Y-90515937D01*
X171315697Y-90224862D01*
X171311590Y-90219453D01*
X171198565Y-90086179D01*
X171185740Y-90077743D01*
X171175416Y-90083795D01*
X169047020Y-92212190D01*
X169039408Y-92226131D01*
X168309357Y-92226131D01*
X168310592Y-92223869D01*
X168310461Y-92222034D01*
X168306210Y-92215420D01*
X166175992Y-90085203D01*
X166162455Y-90077811D01*
X166152753Y-90084599D01*
X166045430Y-90210257D01*
X166041296Y-90215664D01*
X165843215Y-90506041D01*
X165839697Y-90511851D01*
X165674134Y-90821922D01*
X165671259Y-90828087D01*
X165540155Y-91154218D01*
X165537962Y-91160658D01*
X165442846Y-91499044D01*
X165441363Y-91505679D01*
X165383350Y-91852354D01*
X165382591Y-91859126D01*
X165362357Y-92210037D01*
X165362333Y-92216832D01*
X153785172Y-92216832D01*
X153830136Y-92125853D01*
X153830137Y-92125851D01*
X153832430Y-92121211D01*
X153897370Y-91907469D01*
X153926529Y-91685990D01*
X153928156Y-91619400D01*
X153909852Y-91396761D01*
X153855431Y-91180102D01*
X153766354Y-90975240D01*
X153726906Y-90914262D01*
X153647822Y-90792017D01*
X153647820Y-90792014D01*
X153645014Y-90787677D01*
X153494670Y-90622451D01*
X153490619Y-90619252D01*
X153490615Y-90619248D01*
X153323414Y-90487200D01*
X153323410Y-90487198D01*
X153319359Y-90483998D01*
X153278053Y-90461196D01*
X153228084Y-90410764D01*
X153213312Y-90341321D01*
X153238428Y-90274916D01*
X153265780Y-90248309D01*
X153319127Y-90210257D01*
X153444860Y-90120573D01*
X153479375Y-90086179D01*
X153599435Y-89966537D01*
X153603096Y-89962889D01*
X153662594Y-89880089D01*
X153730435Y-89785677D01*
X153733453Y-89781477D01*
X153762359Y-89722991D01*
X153767859Y-89711862D01*
X166524950Y-89711862D01*
X166524986Y-89712704D01*
X166530037Y-89720826D01*
X168662190Y-91852980D01*
X168676131Y-91860592D01*
X168677966Y-91860461D01*
X168684580Y-91856210D01*
X170817798Y-89722991D01*
X170825412Y-89709047D01*
X170825344Y-89708089D01*
X170820836Y-89701272D01*
X170819418Y-89700065D01*
X170539813Y-89487064D01*
X170534187Y-89483240D01*
X170233214Y-89301681D01*
X170227202Y-89298484D01*
X169908370Y-89150487D01*
X169902070Y-89147967D01*
X169569129Y-89035273D01*
X169562551Y-89033437D01*
X169219417Y-88957367D01*
X169212678Y-88956251D01*
X168863310Y-88917680D01*
X168856529Y-88917301D01*
X168505015Y-88916687D01*
X168498242Y-88917042D01*
X168148720Y-88954395D01*
X168142010Y-88955482D01*
X167798586Y-89030361D01*
X167792011Y-89032172D01*
X167458683Y-89143702D01*
X167452361Y-89146205D01*
X167133034Y-89293079D01*
X167126991Y-89296265D01*
X166825401Y-89476763D01*
X166819755Y-89480571D01*
X166539408Y-89692596D01*
X166534211Y-89696987D01*
X166532972Y-89698155D01*
X166524950Y-89711862D01*
X153767859Y-89711862D01*
X153830136Y-89585853D01*
X153830137Y-89585851D01*
X153832430Y-89581211D01*
X153897370Y-89367469D01*
X153926529Y-89145990D01*
X153928156Y-89079400D01*
X153909852Y-88856761D01*
X153855431Y-88640102D01*
X153766354Y-88435240D01*
X153661929Y-88273823D01*
X153647822Y-88252017D01*
X153647820Y-88252014D01*
X153645014Y-88247677D01*
X153494670Y-88082451D01*
X153490619Y-88079252D01*
X153490615Y-88079248D01*
X153323414Y-87947200D01*
X153323410Y-87947198D01*
X153319359Y-87943998D01*
X153230253Y-87894809D01*
X153180282Y-87844376D01*
X153165510Y-87774933D01*
X153190626Y-87708528D01*
X153247657Y-87666243D01*
X153291146Y-87658500D01*
X168625633Y-87658500D01*
X168645018Y-87660000D01*
X168659851Y-87662310D01*
X168659855Y-87662310D01*
X168668724Y-87663691D01*
X168689183Y-87661016D01*
X168711008Y-87660072D01*
X169067502Y-87675637D01*
X169078451Y-87676595D01*
X169462510Y-87727157D01*
X169473336Y-87729066D01*
X169851528Y-87812910D01*
X169862145Y-87815755D01*
X169884353Y-87822757D01*
X170231592Y-87932241D01*
X170241906Y-87935994D01*
X170599819Y-88084246D01*
X170609754Y-88088879D01*
X170953378Y-88267759D01*
X170962887Y-88273249D01*
X171289592Y-88481383D01*
X171298596Y-88487687D01*
X171605931Y-88723513D01*
X171614348Y-88730577D01*
X171858603Y-88954395D01*
X171899947Y-88992280D01*
X171907716Y-89000049D01*
X172169421Y-89285649D01*
X172176484Y-89294066D01*
X172228872Y-89362339D01*
X172412313Y-89601404D01*
X172418617Y-89610408D01*
X172626751Y-89937113D01*
X172632241Y-89946622D01*
X172811121Y-90290246D01*
X172815754Y-90300181D01*
X172947915Y-90619248D01*
X172964003Y-90658087D01*
X172967759Y-90668408D01*
X173006733Y-90792017D01*
X173084245Y-91037855D01*
X173087090Y-91048472D01*
X173170934Y-91426664D01*
X173172843Y-91437490D01*
X173223405Y-91821549D01*
X173224363Y-91832498D01*
X173227853Y-91912423D01*
X173239603Y-92181552D01*
X173238223Y-92206429D01*
X173236309Y-92218724D01*
X173237473Y-92227626D01*
X173237473Y-92227628D01*
X173240436Y-92250283D01*
X173241500Y-92266621D01*
X173241500Y-132175633D01*
X173240000Y-132195018D01*
X173237690Y-132209851D01*
X173237690Y-132209855D01*
X173236309Y-132218724D01*
X173238984Y-132239183D01*
X173239928Y-132261008D01*
X173237551Y-132315442D01*
X173224363Y-132617501D01*
X173223405Y-132628451D01*
X173172843Y-133012510D01*
X173170934Y-133023336D01*
X173087090Y-133401528D01*
X173084245Y-133412145D01*
X173074261Y-133443810D01*
X172969961Y-133774611D01*
X172967762Y-133781584D01*
X172964006Y-133791906D01*
X172897806Y-133951728D01*
X172815758Y-134149810D01*
X172811121Y-134159754D01*
X172632241Y-134503378D01*
X172626751Y-134512887D01*
X172418617Y-134839592D01*
X172412313Y-134848596D01*
X172185165Y-135144622D01*
X172176487Y-135155931D01*
X172169423Y-135164348D01*
X171942871Y-135411587D01*
X171907720Y-135449947D01*
X171899951Y-135457716D01*
X171614351Y-135719421D01*
X171605931Y-135726487D01*
X171298596Y-135962313D01*
X171289592Y-135968617D01*
X170962887Y-136176751D01*
X170953378Y-136182241D01*
X170609754Y-136361121D01*
X170599819Y-136365754D01*
X170241906Y-136514006D01*
X170231592Y-136517759D01*
X170032119Y-136580653D01*
X169862145Y-136634245D01*
X169851528Y-136637090D01*
X169473336Y-136720934D01*
X169462510Y-136722843D01*
X169078451Y-136773405D01*
X169067502Y-136774363D01*
X168718446Y-136789603D01*
X168693571Y-136788223D01*
X168681276Y-136786309D01*
X168672374Y-136787473D01*
X168672372Y-136787473D01*
X168657323Y-136789441D01*
X168649714Y-136790436D01*
X168633379Y-136791500D01*
X118724367Y-136791500D01*
X118704982Y-136790000D01*
X118690149Y-136787690D01*
X118690145Y-136787690D01*
X118681276Y-136786309D01*
X118660817Y-136788984D01*
X118638992Y-136789928D01*
X118282498Y-136774363D01*
X118271549Y-136773405D01*
X117887490Y-136722843D01*
X117876664Y-136720934D01*
X117498472Y-136637090D01*
X117487855Y-136634245D01*
X117317881Y-136580653D01*
X117118408Y-136517759D01*
X117108094Y-136514006D01*
X116750181Y-136365754D01*
X116740246Y-136361121D01*
X116396622Y-136182241D01*
X116387113Y-136176751D01*
X116060408Y-135968617D01*
X116051404Y-135962313D01*
X115744069Y-135726487D01*
X115735649Y-135719421D01*
X115450049Y-135457716D01*
X115442280Y-135449947D01*
X115407130Y-135411587D01*
X115180577Y-135164348D01*
X115173513Y-135155931D01*
X115164836Y-135144622D01*
X114937687Y-134848596D01*
X114931383Y-134839592D01*
X114868816Y-134741381D01*
X116524160Y-134741381D01*
X116524237Y-134742470D01*
X116526698Y-134746206D01*
X116800632Y-134956404D01*
X116806262Y-134960259D01*
X117106591Y-135142862D01*
X117112593Y-135146080D01*
X117430897Y-135295184D01*
X117437202Y-135297732D01*
X117769743Y-135411587D01*
X117776313Y-135413446D01*
X118119183Y-135490714D01*
X118125912Y-135491853D01*
X118475143Y-135531643D01*
X118481933Y-135532046D01*
X118833419Y-135533886D01*
X118840220Y-135533554D01*
X119189853Y-135497423D01*
X119196581Y-135496357D01*
X119540274Y-135422676D01*
X119546822Y-135420897D01*
X119880549Y-135310527D01*
X119886891Y-135308041D01*
X120206718Y-135162288D01*
X120212777Y-135159121D01*
X120514995Y-134979676D01*
X120520659Y-134975884D01*
X120801732Y-134764849D01*
X120806958Y-134760464D01*
X120816613Y-134751428D01*
X120822540Y-134741381D01*
X166524160Y-134741381D01*
X166524237Y-134742470D01*
X166526698Y-134746206D01*
X166800632Y-134956404D01*
X166806262Y-134960259D01*
X167106591Y-135142862D01*
X167112593Y-135146080D01*
X167430897Y-135295184D01*
X167437202Y-135297732D01*
X167769743Y-135411587D01*
X167776313Y-135413446D01*
X168119183Y-135490714D01*
X168125912Y-135491853D01*
X168475143Y-135531643D01*
X168481933Y-135532046D01*
X168833419Y-135533886D01*
X168840220Y-135533554D01*
X169189853Y-135497423D01*
X169196581Y-135496357D01*
X169540274Y-135422676D01*
X169546822Y-135420897D01*
X169880549Y-135310527D01*
X169886891Y-135308041D01*
X170206718Y-135162288D01*
X170212777Y-135159121D01*
X170514995Y-134979676D01*
X170520659Y-134975884D01*
X170801732Y-134764849D01*
X170806958Y-134760464D01*
X170816613Y-134751428D01*
X170824682Y-134737750D01*
X170824654Y-134737024D01*
X170819512Y-134728723D01*
X168687810Y-132597020D01*
X168673869Y-132589408D01*
X168672034Y-132589539D01*
X168665420Y-132593790D01*
X166531774Y-134727437D01*
X166524160Y-134741381D01*
X120822540Y-134741381D01*
X120824682Y-134737750D01*
X120824654Y-134737024D01*
X120819512Y-134728723D01*
X118687810Y-132597020D01*
X118673869Y-132589408D01*
X118672034Y-132589539D01*
X118665420Y-132593790D01*
X116531774Y-134727437D01*
X116524160Y-134741381D01*
X114868816Y-134741381D01*
X114723249Y-134512887D01*
X114717759Y-134503378D01*
X114538879Y-134159754D01*
X114534242Y-134149810D01*
X114452195Y-133951728D01*
X114385994Y-133791906D01*
X114382238Y-133781584D01*
X114380040Y-133774611D01*
X114275739Y-133443810D01*
X114265755Y-133412145D01*
X114262910Y-133401528D01*
X114179066Y-133023336D01*
X114177157Y-133012510D01*
X114126595Y-132628451D01*
X114125637Y-132617501D01*
X114112449Y-132315442D01*
X114110561Y-132272206D01*
X114112188Y-132245805D01*
X114112769Y-132242352D01*
X114112770Y-132242345D01*
X114113576Y-132237552D01*
X114113729Y-132225000D01*
X114112559Y-132216832D01*
X115362333Y-132216832D01*
X115380117Y-132567893D01*
X115380827Y-132574649D01*
X115436420Y-132921723D01*
X115437859Y-132928378D01*
X115530608Y-133267410D01*
X115532757Y-133273871D01*
X115661581Y-133600912D01*
X115664412Y-133607095D01*
X115827803Y-133918310D01*
X115831286Y-133924152D01*
X116027330Y-134215896D01*
X116031433Y-134221340D01*
X116151425Y-134363836D01*
X116164164Y-134372279D01*
X116174608Y-134366181D01*
X118302980Y-132237810D01*
X118309357Y-132226131D01*
X119039408Y-132226131D01*
X119039539Y-132227966D01*
X119043790Y-132234580D01*
X121174009Y-134364798D01*
X121187605Y-134372223D01*
X121197218Y-134365522D01*
X121297518Y-134248912D01*
X121301676Y-134243514D01*
X121500762Y-133953840D01*
X121504310Y-133948029D01*
X121670942Y-133638559D01*
X121673849Y-133632381D01*
X121806090Y-133306713D01*
X121808304Y-133300283D01*
X121904598Y-132962237D01*
X121906105Y-132955607D01*
X121965332Y-132609118D01*
X121966112Y-132602378D01*
X121987668Y-132249925D01*
X121987784Y-132246323D01*
X121987853Y-132226819D01*
X121987761Y-132223194D01*
X121968666Y-131870615D01*
X121967931Y-131863849D01*
X121911130Y-131516985D01*
X121909663Y-131510313D01*
X121815736Y-131171627D01*
X121813562Y-131165163D01*
X121683598Y-130838578D01*
X121680742Y-130832398D01*
X121516269Y-130521763D01*
X121512769Y-130515937D01*
X121315697Y-130224862D01*
X121311590Y-130219453D01*
X121231488Y-130125000D01*
X123111496Y-130125000D01*
X123112186Y-130131565D01*
X123123138Y-130235763D01*
X123131458Y-130314928D01*
X123190473Y-130496556D01*
X123193776Y-130502278D01*
X123193777Y-130502279D01*
X123201663Y-130515937D01*
X123285960Y-130661944D01*
X123290378Y-130666851D01*
X123290379Y-130666852D01*
X123349713Y-130732749D01*
X123413747Y-130803866D01*
X123495237Y-130863072D01*
X123544689Y-130899001D01*
X123568248Y-130916118D01*
X123574276Y-130918802D01*
X123574278Y-130918803D01*
X123719591Y-130983500D01*
X123742712Y-130993794D01*
X123835002Y-131013411D01*
X123923056Y-131032128D01*
X123923061Y-131032128D01*
X123929513Y-131033500D01*
X124120487Y-131033500D01*
X124126939Y-131032128D01*
X124126944Y-131032128D01*
X124214998Y-131013411D01*
X124307288Y-130993794D01*
X124330409Y-130983500D01*
X124475722Y-130918803D01*
X124475724Y-130918802D01*
X124481752Y-130916118D01*
X124505312Y-130899001D01*
X124527935Y-130882564D01*
X124594803Y-130858706D01*
X124601996Y-130858500D01*
X124703206Y-130858500D01*
X124771327Y-130878502D01*
X124817820Y-130932158D01*
X124824102Y-130949001D01*
X124857696Y-131063411D01*
X124877705Y-131094545D01*
X124931878Y-131178841D01*
X124931880Y-131178844D01*
X124936750Y-131186421D01*
X124943560Y-131192322D01*
X125040445Y-131276274D01*
X125040448Y-131276276D01*
X125047257Y-131282176D01*
X125180266Y-131342919D01*
X125325000Y-131363729D01*
X125407230Y-131363729D01*
X125475351Y-131383731D01*
X125521844Y-131437387D01*
X125532540Y-131476558D01*
X125546604Y-131610365D01*
X125549858Y-131641328D01*
X125608873Y-131822956D01*
X125612176Y-131828678D01*
X125612177Y-131828679D01*
X125641507Y-131879479D01*
X125704360Y-131988344D01*
X125708775Y-131993247D01*
X125708779Y-131993252D01*
X125819553Y-132116279D01*
X125832147Y-132130266D01*
X125921270Y-132195018D01*
X125981030Y-132238436D01*
X125986648Y-132242518D01*
X125992676Y-132245202D01*
X125992678Y-132245203D01*
X126155081Y-132317509D01*
X126161112Y-132320194D01*
X126254513Y-132340047D01*
X126341456Y-132358528D01*
X126341461Y-132358528D01*
X126347913Y-132359900D01*
X126538887Y-132359900D01*
X126545339Y-132358528D01*
X126545344Y-132358528D01*
X126632287Y-132340047D01*
X126725688Y-132320194D01*
X126731719Y-132317509D01*
X126894122Y-132245203D01*
X126894124Y-132245202D01*
X126900152Y-132242518D01*
X126905494Y-132238637D01*
X127037536Y-132142703D01*
X127071095Y-132125326D01*
X127278856Y-132054800D01*
X127278858Y-132054799D01*
X127282756Y-132053476D01*
X127530316Y-131931393D01*
X127600257Y-131919203D01*
X127665686Y-131946762D01*
X127695162Y-131981399D01*
X127787160Y-132140744D01*
X127791578Y-132145651D01*
X127791579Y-132145652D01*
X127832960Y-132191610D01*
X127859619Y-132238436D01*
X127908910Y-132396618D01*
X128019716Y-132642818D01*
X128021685Y-132646075D01*
X128021687Y-132646079D01*
X128063871Y-132715859D01*
X128159390Y-132873867D01*
X128161742Y-132876869D01*
X128161744Y-132876872D01*
X128202096Y-132928378D01*
X128325895Y-133086396D01*
X128516804Y-133277305D01*
X128729333Y-133443810D01*
X128870996Y-133529448D01*
X128957121Y-133581513D01*
X128957125Y-133581515D01*
X128960382Y-133583484D01*
X129069026Y-133632381D01*
X129203106Y-133692726D01*
X129203112Y-133692728D01*
X129206582Y-133694290D01*
X129464343Y-133774611D01*
X129729907Y-133823278D01*
X129733701Y-133823507D01*
X129733705Y-133823508D01*
X129849490Y-133830512D01*
X129894580Y-133833239D01*
X129901670Y-133833991D01*
X129905010Y-133834808D01*
X129910609Y-133835155D01*
X129910613Y-133835156D01*
X129914225Y-133835380D01*
X129914235Y-133835380D01*
X129916164Y-133835500D01*
X129928156Y-133835500D01*
X129935762Y-133835730D01*
X129942252Y-133836122D01*
X129951730Y-133836696D01*
X129961650Y-133837692D01*
X129974135Y-133839446D01*
X129978087Y-133840001D01*
X129986652Y-133840121D01*
X129995439Y-133840244D01*
X129995445Y-133840244D01*
X129999400Y-133840299D01*
X130035187Y-133836285D01*
X130049231Y-133835500D01*
X138360956Y-133835500D01*
X138368562Y-133835730D01*
X138375052Y-133836122D01*
X138384530Y-133836696D01*
X138394450Y-133837692D01*
X138406935Y-133839446D01*
X138410887Y-133840001D01*
X138419452Y-133840121D01*
X138428239Y-133840244D01*
X138428245Y-133840244D01*
X138432200Y-133840299D01*
X138467987Y-133836285D01*
X138482031Y-133835500D01*
X146488956Y-133835500D01*
X146496562Y-133835730D01*
X146503052Y-133836122D01*
X146512530Y-133836696D01*
X146522450Y-133837692D01*
X146534935Y-133839446D01*
X146538887Y-133840001D01*
X146547452Y-133840121D01*
X146556239Y-133840244D01*
X146556245Y-133840244D01*
X146560200Y-133840299D01*
X146595987Y-133836285D01*
X146610031Y-133835500D01*
X155023356Y-133835500D01*
X155030962Y-133835730D01*
X155037452Y-133836122D01*
X155046930Y-133836696D01*
X155056850Y-133837692D01*
X155069335Y-133839446D01*
X155073287Y-133840001D01*
X155081852Y-133840121D01*
X155090639Y-133840244D01*
X155090645Y-133840244D01*
X155094600Y-133840299D01*
X155130387Y-133836285D01*
X155144431Y-133835500D01*
X160366449Y-133835500D01*
X160383982Y-133836726D01*
X160392976Y-133837990D01*
X160403379Y-133839452D01*
X160403382Y-133839452D01*
X160407287Y-133840001D01*
X160415636Y-133840118D01*
X160424639Y-133840244D01*
X160424645Y-133840244D01*
X160428600Y-133840299D01*
X160432533Y-133839858D01*
X160432549Y-133839857D01*
X160439331Y-133839096D01*
X160445769Y-133838540D01*
X160498016Y-133835380D01*
X160694296Y-133823508D01*
X160694301Y-133823507D01*
X160698093Y-133823278D01*
X160963657Y-133774611D01*
X161221418Y-133694290D01*
X161224888Y-133692728D01*
X161224894Y-133692726D01*
X161358974Y-133632381D01*
X161467618Y-133583484D01*
X161470875Y-133581515D01*
X161470879Y-133581513D01*
X161557004Y-133529448D01*
X161698667Y-133443810D01*
X161911196Y-133277305D01*
X162102105Y-133086396D01*
X162225904Y-132928378D01*
X162266256Y-132876872D01*
X162266258Y-132876869D01*
X162268610Y-132873867D01*
X162364129Y-132715859D01*
X162406313Y-132646079D01*
X162406315Y-132646075D01*
X162408284Y-132642818D01*
X162519090Y-132396618D01*
X162568381Y-132238436D01*
X162595040Y-132191610D01*
X162636421Y-132145652D01*
X162636422Y-132145651D01*
X162640840Y-132140744D01*
X162691224Y-132053476D01*
X162733023Y-131981079D01*
X162733024Y-131981078D01*
X162736327Y-131975356D01*
X162795342Y-131793728D01*
X162800022Y-131749206D01*
X162814614Y-131610365D01*
X162815304Y-131603800D01*
X162802071Y-131477898D01*
X162814843Y-131408061D01*
X162863345Y-131356215D01*
X162927381Y-131338729D01*
X163875000Y-131338729D01*
X163906986Y-131336441D01*
X163941373Y-131333982D01*
X163941374Y-131333982D01*
X163948111Y-131333500D01*
X164039737Y-131306596D01*
X164079765Y-131294843D01*
X164079767Y-131294842D01*
X164088411Y-131292304D01*
X164152255Y-131251274D01*
X164203841Y-131218122D01*
X164203844Y-131218120D01*
X164211421Y-131213250D01*
X164233084Y-131188250D01*
X164301274Y-131109555D01*
X164301276Y-131109552D01*
X164307176Y-131102743D01*
X164367919Y-130969734D01*
X164368646Y-130970066D01*
X164403048Y-130916530D01*
X164467628Y-130887035D01*
X164536813Y-130896645D01*
X164636255Y-130940919D01*
X164642712Y-130943794D01*
X164736113Y-130963647D01*
X164823056Y-130982128D01*
X164823061Y-130982128D01*
X164829513Y-130983500D01*
X165020487Y-130983500D01*
X165026939Y-130982128D01*
X165026944Y-130982128D01*
X165113887Y-130963647D01*
X165207288Y-130943794D01*
X165213321Y-130941108D01*
X165375722Y-130868803D01*
X165375724Y-130868802D01*
X165381752Y-130866118D01*
X165392238Y-130858500D01*
X165414777Y-130842124D01*
X165481645Y-130818265D01*
X165550796Y-130834346D01*
X165600277Y-130885260D01*
X165614376Y-130954843D01*
X165605745Y-130991056D01*
X165540157Y-131154211D01*
X165537962Y-131160658D01*
X165442846Y-131499044D01*
X165441363Y-131505679D01*
X165383350Y-131852354D01*
X165382591Y-131859126D01*
X165362357Y-132210037D01*
X165362333Y-132216832D01*
X165380117Y-132567893D01*
X165380827Y-132574649D01*
X165436420Y-132921723D01*
X165437859Y-132928378D01*
X165530608Y-133267410D01*
X165532757Y-133273871D01*
X165661581Y-133600912D01*
X165664412Y-133607095D01*
X165827803Y-133918310D01*
X165831286Y-133924152D01*
X166027330Y-134215896D01*
X166031433Y-134221340D01*
X166151425Y-134363836D01*
X166164164Y-134372279D01*
X166174608Y-134366181D01*
X168302980Y-132237810D01*
X168309357Y-132226131D01*
X169039408Y-132226131D01*
X169039539Y-132227966D01*
X169043790Y-132234580D01*
X171174009Y-134364798D01*
X171187605Y-134372223D01*
X171197218Y-134365522D01*
X171297518Y-134248912D01*
X171301676Y-134243514D01*
X171500762Y-133953840D01*
X171504310Y-133948029D01*
X171670942Y-133638559D01*
X171673849Y-133632381D01*
X171806090Y-133306713D01*
X171808304Y-133300283D01*
X171904598Y-132962237D01*
X171906105Y-132955607D01*
X171965332Y-132609118D01*
X171966112Y-132602378D01*
X171987668Y-132249925D01*
X171987784Y-132246323D01*
X171987853Y-132226819D01*
X171987761Y-132223194D01*
X171968666Y-131870615D01*
X171967931Y-131863849D01*
X171911130Y-131516985D01*
X171909663Y-131510313D01*
X171815736Y-131171627D01*
X171813562Y-131165163D01*
X171683598Y-130838578D01*
X171680742Y-130832398D01*
X171516269Y-130521763D01*
X171512769Y-130515937D01*
X171315697Y-130224862D01*
X171311590Y-130219453D01*
X171198565Y-130086179D01*
X171185740Y-130077743D01*
X171175416Y-130083795D01*
X169047020Y-132212190D01*
X169039408Y-132226131D01*
X168309357Y-132226131D01*
X168310592Y-132223869D01*
X168310461Y-132222034D01*
X168306210Y-132215420D01*
X166175992Y-130085203D01*
X166162455Y-130077811D01*
X166152753Y-130084599D01*
X166056792Y-130196954D01*
X165997341Y-130235763D01*
X165926346Y-130236269D01*
X165866348Y-130198313D01*
X165836395Y-130133944D01*
X165835671Y-130101952D01*
X165837580Y-130083795D01*
X165838504Y-130075000D01*
X165818542Y-129885072D01*
X165762262Y-129711862D01*
X166524950Y-129711862D01*
X166524986Y-129712704D01*
X166530037Y-129720826D01*
X168662190Y-131852980D01*
X168676131Y-131860592D01*
X168677966Y-131860461D01*
X168684580Y-131856210D01*
X170817798Y-129722991D01*
X170825412Y-129709047D01*
X170825344Y-129708089D01*
X170820836Y-129701272D01*
X170819418Y-129700065D01*
X170539813Y-129487064D01*
X170534187Y-129483240D01*
X170233214Y-129301681D01*
X170227202Y-129298484D01*
X169908370Y-129150487D01*
X169902070Y-129147967D01*
X169569129Y-129035273D01*
X169562551Y-129033437D01*
X169219417Y-128957367D01*
X169212678Y-128956251D01*
X168863310Y-128917680D01*
X168856529Y-128917301D01*
X168505015Y-128916687D01*
X168498242Y-128917042D01*
X168148720Y-128954395D01*
X168142010Y-128955482D01*
X167798586Y-129030361D01*
X167792011Y-129032172D01*
X167458683Y-129143702D01*
X167452361Y-129146205D01*
X167133034Y-129293079D01*
X167126991Y-129296265D01*
X166825401Y-129476763D01*
X166819755Y-129480571D01*
X166539408Y-129692596D01*
X166534211Y-129696987D01*
X166532972Y-129698155D01*
X166524950Y-129711862D01*
X165762262Y-129711862D01*
X165759527Y-129703444D01*
X165664040Y-129538056D01*
X165627396Y-129497358D01*
X165540675Y-129401045D01*
X165540674Y-129401044D01*
X165536253Y-129396134D01*
X165381752Y-129283882D01*
X165375724Y-129281198D01*
X165375722Y-129281197D01*
X165213319Y-129208891D01*
X165213318Y-129208891D01*
X165207288Y-129206206D01*
X165108797Y-129185271D01*
X165026944Y-129167872D01*
X165026939Y-129167872D01*
X165020487Y-129166500D01*
X164829513Y-129166500D01*
X164823061Y-129167872D01*
X164823056Y-129167872D01*
X164741203Y-129185271D01*
X164642712Y-129206206D01*
X164636682Y-129208891D01*
X164636681Y-129208891D01*
X164627055Y-129213177D01*
X164533174Y-129254975D01*
X164462809Y-129264409D01*
X164398512Y-129234303D01*
X164361031Y-129175367D01*
X164354138Y-129151893D01*
X164342304Y-129111589D01*
X164300960Y-129047257D01*
X164268122Y-128996159D01*
X164268120Y-128996156D01*
X164263250Y-128988579D01*
X164232288Y-128961750D01*
X164159555Y-128898726D01*
X164159552Y-128898724D01*
X164152743Y-128892824D01*
X164098001Y-128867824D01*
X164075823Y-128857696D01*
X164019734Y-128832081D01*
X164010561Y-128830762D01*
X163990829Y-128827925D01*
X163875000Y-128811271D01*
X162875000Y-128811271D01*
X162873036Y-128811395D01*
X162873032Y-128811395D01*
X162816920Y-128814934D01*
X162816916Y-128814935D01*
X162810443Y-128815343D01*
X162804189Y-128817066D01*
X162804188Y-128817066D01*
X162801524Y-128817800D01*
X162764768Y-128827925D01*
X162713376Y-128831167D01*
X162575000Y-128811271D01*
X160175000Y-128811271D01*
X160172487Y-128811472D01*
X160172486Y-128811472D01*
X160100353Y-128817240D01*
X160100350Y-128817241D01*
X160093355Y-128817800D01*
X160086657Y-128819890D01*
X160086655Y-128819890D01*
X160066019Y-128826328D01*
X160010562Y-128830762D01*
X159934945Y-128819890D01*
X159875000Y-128811271D01*
X158875000Y-128811271D01*
X158861424Y-128812242D01*
X158808627Y-128816018D01*
X158808626Y-128816018D01*
X158801889Y-128816500D01*
X158734133Y-128836395D01*
X158670235Y-128855157D01*
X158670233Y-128855158D01*
X158661589Y-128857696D01*
X158645830Y-128867824D01*
X158546159Y-128931878D01*
X158546156Y-128931880D01*
X158538579Y-128936750D01*
X158532678Y-128943560D01*
X158448726Y-129040445D01*
X158448724Y-129040448D01*
X158442824Y-129047257D01*
X158439080Y-129055454D01*
X158439080Y-129055455D01*
X158394548Y-129152967D01*
X158348055Y-129206623D01*
X158279934Y-129226625D01*
X158228688Y-129215733D01*
X158213323Y-129208892D01*
X158213315Y-129208889D01*
X158207288Y-129206206D01*
X158108797Y-129185271D01*
X158026944Y-129167872D01*
X158026939Y-129167872D01*
X158020487Y-129166500D01*
X157829513Y-129166500D01*
X157823061Y-129167872D01*
X157823056Y-129167872D01*
X157741203Y-129185271D01*
X157642712Y-129206206D01*
X157636682Y-129208891D01*
X157636681Y-129208891D01*
X157474278Y-129281197D01*
X157474276Y-129281198D01*
X157468248Y-129283882D01*
X157313747Y-129396134D01*
X157256134Y-129460120D01*
X157195691Y-129497358D01*
X157124707Y-129496007D01*
X157068866Y-129460120D01*
X157011253Y-129396134D01*
X156856752Y-129283882D01*
X156850724Y-129281198D01*
X156850722Y-129281197D01*
X156688319Y-129208891D01*
X156688318Y-129208891D01*
X156682288Y-129206206D01*
X156583797Y-129185271D01*
X156501944Y-129167872D01*
X156501939Y-129167872D01*
X156495487Y-129166500D01*
X156304513Y-129166500D01*
X156298061Y-129167872D01*
X156298056Y-129167872D01*
X156182174Y-129192504D01*
X156117712Y-129206206D01*
X156111676Y-129208893D01*
X156106445Y-129210593D01*
X156035477Y-129212621D01*
X155974679Y-129175959D01*
X155946612Y-129126260D01*
X155942304Y-129111589D01*
X155900960Y-129047257D01*
X155868122Y-128996159D01*
X155868120Y-128996156D01*
X155863250Y-128988579D01*
X155832288Y-128961750D01*
X155759555Y-128898726D01*
X155759552Y-128898724D01*
X155752743Y-128892824D01*
X155698001Y-128867824D01*
X155675823Y-128857696D01*
X155619734Y-128832081D01*
X155610561Y-128830762D01*
X155590829Y-128827925D01*
X155475000Y-128811271D01*
X154475000Y-128811271D01*
X154473036Y-128811395D01*
X154473032Y-128811395D01*
X154416920Y-128814934D01*
X154416916Y-128814935D01*
X154410443Y-128815343D01*
X154404189Y-128817066D01*
X154404188Y-128817066D01*
X154401524Y-128817800D01*
X154364768Y-128827925D01*
X154313376Y-128831167D01*
X154175000Y-128811271D01*
X151775000Y-128811271D01*
X151772487Y-128811472D01*
X151772486Y-128811472D01*
X151700353Y-128817240D01*
X151700350Y-128817241D01*
X151693355Y-128817800D01*
X151686657Y-128819890D01*
X151686655Y-128819890D01*
X151666019Y-128826328D01*
X151610562Y-128830762D01*
X151534945Y-128819890D01*
X151475000Y-128811271D01*
X150475000Y-128811271D01*
X150461424Y-128812242D01*
X150408627Y-128816018D01*
X150408626Y-128816018D01*
X150401889Y-128816500D01*
X150334133Y-128836395D01*
X150270235Y-128855157D01*
X150270233Y-128855158D01*
X150261589Y-128857696D01*
X150245830Y-128867824D01*
X150146159Y-128931878D01*
X150146156Y-128931880D01*
X150138579Y-128936750D01*
X150132678Y-128943560D01*
X150048726Y-129040445D01*
X150048724Y-129040448D01*
X150042824Y-129047257D01*
X149994381Y-129153334D01*
X149987139Y-129169191D01*
X149940646Y-129222847D01*
X149872525Y-129242849D01*
X149821277Y-129231956D01*
X149713323Y-129183892D01*
X149713315Y-129183889D01*
X149707288Y-129181206D01*
X149585251Y-129155266D01*
X149526944Y-129142872D01*
X149526939Y-129142872D01*
X149520487Y-129141500D01*
X149329513Y-129141500D01*
X149323061Y-129142872D01*
X149323056Y-129142872D01*
X149264749Y-129155266D01*
X149142712Y-129181206D01*
X149136682Y-129183891D01*
X149136681Y-129183891D01*
X148974278Y-129256197D01*
X148974276Y-129256198D01*
X148968248Y-129258882D01*
X148962907Y-129262762D01*
X148962906Y-129262763D01*
X148930377Y-129286397D01*
X148861519Y-129336426D01*
X148849061Y-129345477D01*
X148782194Y-129369335D01*
X148713042Y-129353255D01*
X148700939Y-129345477D01*
X148688482Y-129336426D01*
X148619623Y-129286397D01*
X148587094Y-129262763D01*
X148587093Y-129262762D01*
X148581752Y-129258882D01*
X148575724Y-129256198D01*
X148575722Y-129256197D01*
X148413319Y-129183891D01*
X148413318Y-129183891D01*
X148407288Y-129181206D01*
X148285251Y-129155266D01*
X148226944Y-129142872D01*
X148226939Y-129142872D01*
X148220487Y-129141500D01*
X148029513Y-129141500D01*
X148023061Y-129142872D01*
X148023056Y-129142872D01*
X147964749Y-129155266D01*
X147842712Y-129181206D01*
X147836685Y-129183889D01*
X147836677Y-129183892D01*
X147770902Y-129213177D01*
X147700535Y-129222611D01*
X147636238Y-129192504D01*
X147598758Y-129133570D01*
X147594842Y-129120233D01*
X147594841Y-129120230D01*
X147592304Y-129111589D01*
X147550960Y-129047257D01*
X147518122Y-128996159D01*
X147518120Y-128996156D01*
X147513250Y-128988579D01*
X147482288Y-128961750D01*
X147409555Y-128898726D01*
X147409552Y-128898724D01*
X147402743Y-128892824D01*
X147348001Y-128867824D01*
X147325823Y-128857696D01*
X147269734Y-128832081D01*
X147260561Y-128830762D01*
X147240829Y-128827925D01*
X147125000Y-128811271D01*
X146125000Y-128811271D01*
X146123036Y-128811395D01*
X146123032Y-128811395D01*
X146066920Y-128814934D01*
X146066916Y-128814935D01*
X146060443Y-128815343D01*
X146054189Y-128817066D01*
X146054188Y-128817066D01*
X146051524Y-128817800D01*
X146014768Y-128827925D01*
X145963376Y-128831167D01*
X145825000Y-128811271D01*
X143425000Y-128811271D01*
X143422487Y-128811472D01*
X143422486Y-128811472D01*
X143350353Y-128817240D01*
X143350350Y-128817241D01*
X143343355Y-128817800D01*
X143336657Y-128819890D01*
X143336655Y-128819890D01*
X143316019Y-128826328D01*
X143260562Y-128830762D01*
X143184945Y-128819890D01*
X143125000Y-128811271D01*
X142125000Y-128811271D01*
X142111424Y-128812242D01*
X142058627Y-128816018D01*
X142058626Y-128816018D01*
X142051889Y-128816500D01*
X141984133Y-128836395D01*
X141920235Y-128855157D01*
X141920233Y-128855158D01*
X141911589Y-128857696D01*
X141895830Y-128867824D01*
X141796159Y-128931878D01*
X141796156Y-128931880D01*
X141788579Y-128936750D01*
X141782678Y-128943560D01*
X141698726Y-129040445D01*
X141698724Y-129040448D01*
X141692824Y-129047257D01*
X141689080Y-129055454D01*
X141689080Y-129055455D01*
X141632914Y-129178441D01*
X141586421Y-129232097D01*
X141518300Y-129252099D01*
X141467051Y-129241206D01*
X141338319Y-129183891D01*
X141338318Y-129183891D01*
X141332288Y-129181206D01*
X141210251Y-129155266D01*
X141151944Y-129142872D01*
X141151939Y-129142872D01*
X141145487Y-129141500D01*
X140954513Y-129141500D01*
X140948061Y-129142872D01*
X140948056Y-129142872D01*
X140889749Y-129155266D01*
X140767712Y-129181206D01*
X140761682Y-129183891D01*
X140761681Y-129183891D01*
X140599278Y-129256197D01*
X140599276Y-129256198D01*
X140593248Y-129258882D01*
X140587907Y-129262762D01*
X140587906Y-129262763D01*
X140555377Y-129286397D01*
X140438747Y-129371134D01*
X140428644Y-129382355D01*
X140368199Y-129419592D01*
X140297215Y-129418240D01*
X140241376Y-129382354D01*
X140186253Y-129321134D01*
X140066741Y-129234303D01*
X140037094Y-129212763D01*
X140037093Y-129212762D01*
X140031752Y-129208882D01*
X140025724Y-129206198D01*
X140025722Y-129206197D01*
X139863319Y-129133891D01*
X139863318Y-129133891D01*
X139857288Y-129131206D01*
X139763888Y-129111353D01*
X139676944Y-129092872D01*
X139676939Y-129092872D01*
X139670487Y-129091500D01*
X139479513Y-129091500D01*
X139473061Y-129092872D01*
X139473056Y-129092872D01*
X139386112Y-129111353D01*
X139292712Y-129131206D01*
X139286681Y-129133891D01*
X139284798Y-129134503D01*
X139213830Y-129136531D01*
X139153032Y-129099868D01*
X139139863Y-129082791D01*
X139133093Y-129072257D01*
X139063250Y-128963579D01*
X139026665Y-128931878D01*
X138959555Y-128873726D01*
X138959552Y-128873724D01*
X138952743Y-128867824D01*
X138819734Y-128807081D01*
X138810561Y-128805762D01*
X138790829Y-128802925D01*
X138675000Y-128786271D01*
X137675000Y-128786271D01*
X137673036Y-128786395D01*
X137673032Y-128786395D01*
X137616920Y-128789934D01*
X137616916Y-128789935D01*
X137610443Y-128790343D01*
X137604189Y-128792066D01*
X137604188Y-128792066D01*
X137601524Y-128792800D01*
X137564768Y-128802925D01*
X137513376Y-128806167D01*
X137375000Y-128786271D01*
X134975000Y-128786271D01*
X134972487Y-128786472D01*
X134972486Y-128786472D01*
X134900353Y-128792240D01*
X134900350Y-128792241D01*
X134893355Y-128792800D01*
X134886657Y-128794890D01*
X134886655Y-128794890D01*
X134866019Y-128801328D01*
X134810562Y-128805762D01*
X134734945Y-128794890D01*
X134675000Y-128786271D01*
X133675000Y-128786271D01*
X133666024Y-128786913D01*
X133608627Y-128791018D01*
X133608626Y-128791018D01*
X133601889Y-128791500D01*
X133534133Y-128811395D01*
X133470235Y-128830157D01*
X133470233Y-128830158D01*
X133461589Y-128832696D01*
X133445867Y-128842800D01*
X133346159Y-128906878D01*
X133346156Y-128906880D01*
X133338579Y-128911750D01*
X133332678Y-128918560D01*
X133248726Y-129015445D01*
X133248724Y-129015448D01*
X133242824Y-129022257D01*
X133182081Y-129155266D01*
X133180798Y-129164189D01*
X133178031Y-129183433D01*
X133148537Y-129248014D01*
X133088811Y-129286397D01*
X133053314Y-129291500D01*
X133017587Y-129291500D01*
X132943528Y-129267437D01*
X132937098Y-129262765D01*
X132937091Y-129262761D01*
X132931752Y-129258882D01*
X132925724Y-129256198D01*
X132925722Y-129256197D01*
X132763319Y-129183891D01*
X132763318Y-129183891D01*
X132757288Y-129181206D01*
X132635251Y-129155266D01*
X132576944Y-129142872D01*
X132576939Y-129142872D01*
X132570487Y-129141500D01*
X132379513Y-129141500D01*
X132373061Y-129142872D01*
X132373056Y-129142872D01*
X132314749Y-129155266D01*
X132192712Y-129181206D01*
X132186682Y-129183891D01*
X132186681Y-129183891D01*
X132024278Y-129256197D01*
X132024276Y-129256198D01*
X132018248Y-129258882D01*
X132012907Y-129262762D01*
X132012906Y-129262763D01*
X132009103Y-129265526D01*
X131944355Y-129312568D01*
X131877489Y-129336426D01*
X131808337Y-129320346D01*
X131796233Y-129312567D01*
X131773796Y-129296265D01*
X131756752Y-129283882D01*
X131750724Y-129281198D01*
X131750722Y-129281197D01*
X131588319Y-129208891D01*
X131588318Y-129208891D01*
X131582288Y-129206206D01*
X131483797Y-129185271D01*
X131401944Y-129167872D01*
X131401939Y-129167872D01*
X131395487Y-129166500D01*
X131204513Y-129166500D01*
X131198061Y-129167872D01*
X131198056Y-129167872D01*
X131116203Y-129185271D01*
X131017712Y-129206206D01*
X131011682Y-129208891D01*
X131011681Y-129208891D01*
X131002055Y-129213177D01*
X130968011Y-129228334D01*
X130897645Y-129237768D01*
X130833348Y-129207662D01*
X130798800Y-129153334D01*
X130798586Y-129153432D01*
X130797883Y-129151893D01*
X130795866Y-129148721D01*
X130795381Y-129147068D01*
X130792304Y-129136589D01*
X130750960Y-129072257D01*
X130718122Y-129021159D01*
X130718120Y-129021156D01*
X130713250Y-129013579D01*
X130684399Y-128988579D01*
X130609555Y-128923726D01*
X130609552Y-128923724D01*
X130602743Y-128917824D01*
X130548001Y-128892824D01*
X130525823Y-128882696D01*
X130469734Y-128857081D01*
X130460561Y-128855762D01*
X130440829Y-128852925D01*
X130325000Y-128836271D01*
X129325000Y-128836271D01*
X129323036Y-128836395D01*
X129323032Y-128836395D01*
X129266920Y-128839934D01*
X129266916Y-128839935D01*
X129260443Y-128840343D01*
X129254189Y-128842066D01*
X129254188Y-128842066D01*
X129251524Y-128842800D01*
X129214768Y-128852925D01*
X129163376Y-128856167D01*
X129025000Y-128836271D01*
X126625000Y-128836271D01*
X126622487Y-128836472D01*
X126622486Y-128836472D01*
X126550353Y-128842240D01*
X126550350Y-128842241D01*
X126543355Y-128842800D01*
X126536657Y-128844890D01*
X126536655Y-128844890D01*
X126516019Y-128851328D01*
X126460562Y-128855762D01*
X126384945Y-128844890D01*
X126325000Y-128836271D01*
X125325000Y-128836271D01*
X125311424Y-128837242D01*
X125258627Y-128841018D01*
X125258626Y-128841018D01*
X125251889Y-128841500D01*
X125181300Y-128862227D01*
X125120235Y-128880157D01*
X125120233Y-128880158D01*
X125111589Y-128882696D01*
X125095830Y-128892824D01*
X124996159Y-128956878D01*
X124996156Y-128956880D01*
X124988579Y-128961750D01*
X124982678Y-128968560D01*
X124898726Y-129065445D01*
X124898724Y-129065448D01*
X124892824Y-129072257D01*
X124889080Y-129080454D01*
X124889080Y-129080455D01*
X124870914Y-129120233D01*
X124832081Y-129205266D01*
X124830798Y-129214189D01*
X124828031Y-129233433D01*
X124798537Y-129298014D01*
X124738811Y-129336397D01*
X124703314Y-129341500D01*
X124525645Y-129341500D01*
X124474396Y-129330607D01*
X124313319Y-129258891D01*
X124313318Y-129258891D01*
X124307288Y-129256206D01*
X124193865Y-129232097D01*
X124126944Y-129217872D01*
X124126939Y-129217872D01*
X124120487Y-129216500D01*
X123929513Y-129216500D01*
X123923061Y-129217872D01*
X123923056Y-129217872D01*
X123856135Y-129232097D01*
X123742712Y-129256206D01*
X123736682Y-129258891D01*
X123736681Y-129258891D01*
X123574278Y-129331197D01*
X123574276Y-129331198D01*
X123568248Y-129333882D01*
X123413747Y-129446134D01*
X123409326Y-129451044D01*
X123409325Y-129451045D01*
X123325832Y-129543774D01*
X123285960Y-129588056D01*
X123190473Y-129753444D01*
X123131458Y-129935072D01*
X123111496Y-130125000D01*
X121231488Y-130125000D01*
X121198565Y-130086179D01*
X121185740Y-130077743D01*
X121175416Y-130083795D01*
X119047020Y-132212190D01*
X119039408Y-132226131D01*
X118309357Y-132226131D01*
X118310592Y-132223869D01*
X118310461Y-132222034D01*
X118306210Y-132215420D01*
X116175992Y-130085203D01*
X116162455Y-130077811D01*
X116152753Y-130084599D01*
X116045430Y-130210257D01*
X116041296Y-130215664D01*
X115843215Y-130506041D01*
X115839697Y-130511851D01*
X115674134Y-130821922D01*
X115671259Y-130828087D01*
X115540155Y-131154218D01*
X115537962Y-131160658D01*
X115442846Y-131499044D01*
X115441363Y-131505679D01*
X115383350Y-131852354D01*
X115382591Y-131859126D01*
X115362357Y-132210037D01*
X115362333Y-132216832D01*
X114112559Y-132216832D01*
X114109773Y-132197376D01*
X114108500Y-132179514D01*
X114108500Y-129711862D01*
X116524950Y-129711862D01*
X116524986Y-129712704D01*
X116530037Y-129720826D01*
X118662190Y-131852980D01*
X118676131Y-131860592D01*
X118677966Y-131860461D01*
X118684580Y-131856210D01*
X120817798Y-129722991D01*
X120825412Y-129709047D01*
X120825344Y-129708089D01*
X120820836Y-129701272D01*
X120819418Y-129700065D01*
X120539813Y-129487064D01*
X120534187Y-129483240D01*
X120233214Y-129301681D01*
X120227202Y-129298484D01*
X119908370Y-129150487D01*
X119902070Y-129147967D01*
X119569129Y-129035273D01*
X119562551Y-129033437D01*
X119219417Y-128957367D01*
X119212678Y-128956251D01*
X118863310Y-128917680D01*
X118856529Y-128917301D01*
X118505015Y-128916687D01*
X118498242Y-128917042D01*
X118148720Y-128954395D01*
X118142010Y-128955482D01*
X117798586Y-129030361D01*
X117792011Y-129032172D01*
X117458683Y-129143702D01*
X117452361Y-129146205D01*
X117133034Y-129293079D01*
X117126991Y-129296265D01*
X116825401Y-129476763D01*
X116819755Y-129480571D01*
X116539408Y-129692596D01*
X116534211Y-129696987D01*
X116532972Y-129698155D01*
X116524950Y-129711862D01*
X114108500Y-129711862D01*
X114108500Y-121254000D01*
X124374871Y-121254000D01*
X124380100Y-121327111D01*
X124403344Y-121406272D01*
X124421296Y-121467411D01*
X124418108Y-121468347D01*
X124425991Y-121516695D01*
X124412296Y-121647000D01*
X124412986Y-121653565D01*
X124427579Y-121792406D01*
X124432258Y-121836928D01*
X124491273Y-122018556D01*
X124586760Y-122183944D01*
X124591178Y-122188851D01*
X124591179Y-122188852D01*
X124672303Y-122278949D01*
X124714547Y-122325866D01*
X124869048Y-122438118D01*
X124875076Y-122440802D01*
X124875078Y-122440803D01*
X125018594Y-122504700D01*
X125043512Y-122515794D01*
X125136913Y-122535647D01*
X125223856Y-122554128D01*
X125223861Y-122554128D01*
X125230313Y-122555500D01*
X125421287Y-122555500D01*
X125427739Y-122554128D01*
X125427744Y-122554128D01*
X125514687Y-122535647D01*
X125608088Y-122515794D01*
X125633006Y-122504700D01*
X125776522Y-122440803D01*
X125776524Y-122440802D01*
X125782552Y-122438118D01*
X125937053Y-122325866D01*
X125979297Y-122278949D01*
X126060421Y-122188852D01*
X126060422Y-122188851D01*
X126064840Y-122183944D01*
X126160327Y-122018556D01*
X126213537Y-121854792D01*
X126253611Y-121796187D01*
X126319007Y-121768550D01*
X126333370Y-121767729D01*
X128588600Y-121767729D01*
X128591114Y-121767528D01*
X128663247Y-121761760D01*
X128663250Y-121761759D01*
X128670245Y-121761200D01*
X128676943Y-121759110D01*
X128676945Y-121759110D01*
X128697581Y-121752672D01*
X128753038Y-121748238D01*
X128810814Y-121756545D01*
X128888600Y-121767729D01*
X128957536Y-121767729D01*
X129025657Y-121787731D01*
X129072150Y-121841387D01*
X129077368Y-121854790D01*
X129114073Y-121967756D01*
X129209560Y-122133144D01*
X129213978Y-122138051D01*
X129213979Y-122138052D01*
X129332925Y-122270155D01*
X129337347Y-122275066D01*
X129491848Y-122387318D01*
X129497876Y-122390002D01*
X129497878Y-122390003D01*
X129660281Y-122462309D01*
X129666312Y-122464994D01*
X129759712Y-122484847D01*
X129846656Y-122503328D01*
X129846661Y-122503328D01*
X129853113Y-122504700D01*
X130044087Y-122504700D01*
X130050539Y-122503328D01*
X130050544Y-122503328D01*
X130137488Y-122484847D01*
X130230888Y-122464994D01*
X130236919Y-122462309D01*
X130399322Y-122390003D01*
X130399324Y-122390002D01*
X130405352Y-122387318D01*
X130559853Y-122275066D01*
X130564275Y-122270155D01*
X130683221Y-122138052D01*
X130683222Y-122138051D01*
X130687640Y-122133144D01*
X130783127Y-121967756D01*
X130842142Y-121786128D01*
X130845659Y-121752672D01*
X130861414Y-121602765D01*
X130862104Y-121596200D01*
X130842142Y-121406272D01*
X130783127Y-121224644D01*
X130687640Y-121059256D01*
X130559853Y-120917334D01*
X130454267Y-120840621D01*
X130410914Y-120784400D01*
X130402329Y-120738686D01*
X130402329Y-119754000D01*
X130397100Y-119680889D01*
X130360748Y-119557085D01*
X130358443Y-119549235D01*
X130358442Y-119549233D01*
X130355904Y-119540589D01*
X130314560Y-119476257D01*
X130281722Y-119425159D01*
X130281720Y-119425156D01*
X130276850Y-119417579D01*
X130264834Y-119407167D01*
X130173155Y-119327726D01*
X130173152Y-119327724D01*
X130166343Y-119321824D01*
X130033334Y-119261081D01*
X130024161Y-119259762D01*
X130004429Y-119256925D01*
X129888600Y-119240271D01*
X128888600Y-119240271D01*
X128886636Y-119240395D01*
X128886632Y-119240395D01*
X128830520Y-119243934D01*
X128830516Y-119243935D01*
X128824043Y-119244343D01*
X128817789Y-119246066D01*
X128817788Y-119246066D01*
X128815124Y-119246800D01*
X128778368Y-119256925D01*
X128726976Y-119260167D01*
X128588600Y-119240271D01*
X126188600Y-119240271D01*
X126186087Y-119240472D01*
X126186086Y-119240472D01*
X126113953Y-119246240D01*
X126113950Y-119246241D01*
X126106955Y-119246800D01*
X126100257Y-119248890D01*
X126100255Y-119248890D01*
X126079619Y-119255328D01*
X126024162Y-119259762D01*
X125948545Y-119248890D01*
X125888600Y-119240271D01*
X124888600Y-119240271D01*
X124879624Y-119240913D01*
X124822227Y-119245018D01*
X124822226Y-119245018D01*
X124815489Y-119245500D01*
X124744900Y-119266227D01*
X124683835Y-119284157D01*
X124683833Y-119284158D01*
X124675189Y-119286696D01*
X124667610Y-119291567D01*
X124559759Y-119360878D01*
X124559756Y-119360880D01*
X124552179Y-119365750D01*
X124546278Y-119372560D01*
X124462326Y-119469445D01*
X124462324Y-119469448D01*
X124456424Y-119476257D01*
X124395681Y-119609266D01*
X124374871Y-119754000D01*
X124374871Y-121254000D01*
X114108500Y-121254000D01*
X114108500Y-112117966D01*
X123253257Y-112117966D01*
X123283565Y-112252446D01*
X123286645Y-112262275D01*
X123366770Y-112459603D01*
X123371413Y-112468794D01*
X123482694Y-112650388D01*
X123488777Y-112658699D01*
X123628213Y-112819667D01*
X123635580Y-112826883D01*
X123799434Y-112962916D01*
X123807881Y-112968831D01*
X123991756Y-113076279D01*
X124001042Y-113080729D01*
X124200001Y-113156703D01*
X124209899Y-113159579D01*
X124313250Y-113180606D01*
X124327299Y-113179410D01*
X124331000Y-113169065D01*
X124331000Y-113168517D01*
X124839000Y-113168517D01*
X124843064Y-113182359D01*
X124856478Y-113184393D01*
X124863184Y-113183534D01*
X124873262Y-113181392D01*
X125077255Y-113120191D01*
X125086842Y-113116433D01*
X125278095Y-113022739D01*
X125286945Y-113017464D01*
X125460328Y-112893792D01*
X125468193Y-112887145D01*
X125572897Y-112782805D01*
X125635268Y-112748889D01*
X125706075Y-112754077D01*
X125762837Y-112796723D01*
X125779819Y-112827826D01*
X125824385Y-112946705D01*
X125911739Y-113063261D01*
X126028295Y-113150615D01*
X126164684Y-113201745D01*
X126226866Y-113208500D01*
X128023134Y-113208500D01*
X128085316Y-113201745D01*
X128221705Y-113150615D01*
X128338261Y-113063261D01*
X128425615Y-112946705D01*
X128476745Y-112810316D01*
X128483500Y-112748134D01*
X128483500Y-110951866D01*
X128476745Y-110889684D01*
X128425615Y-110753295D01*
X128338261Y-110636739D01*
X128221705Y-110549385D01*
X128085316Y-110498255D01*
X128023134Y-110491500D01*
X126226866Y-110491500D01*
X126164684Y-110498255D01*
X126028295Y-110549385D01*
X125911739Y-110636739D01*
X125824385Y-110753295D01*
X125821233Y-110761703D01*
X125821232Y-110761705D01*
X125779722Y-110872433D01*
X125737081Y-110929198D01*
X125670519Y-110953898D01*
X125601170Y-110938691D01*
X125568546Y-110913004D01*
X125517799Y-110857234D01*
X125510273Y-110850215D01*
X125343139Y-110718222D01*
X125334552Y-110712517D01*
X125148117Y-110609599D01*
X125138705Y-110605369D01*
X124937959Y-110534280D01*
X124927988Y-110531646D01*
X124856837Y-110518972D01*
X124843540Y-110520432D01*
X124839000Y-110534989D01*
X124839000Y-113168517D01*
X124331000Y-113168517D01*
X124331000Y-112122115D01*
X124326525Y-112106876D01*
X124325135Y-112105671D01*
X124317452Y-112104000D01*
X123268225Y-112104000D01*
X123254694Y-112107973D01*
X123253257Y-112117966D01*
X114108500Y-112117966D01*
X114108500Y-111584183D01*
X123249389Y-111584183D01*
X123250912Y-111592607D01*
X123263292Y-111596000D01*
X124312885Y-111596000D01*
X124328124Y-111591525D01*
X124329329Y-111590135D01*
X124331000Y-111582452D01*
X124331000Y-110533102D01*
X124327082Y-110519758D01*
X124312806Y-110517771D01*
X124274324Y-110523660D01*
X124264288Y-110526051D01*
X124061868Y-110592212D01*
X124052359Y-110596209D01*
X123863463Y-110694542D01*
X123854738Y-110700036D01*
X123684433Y-110827905D01*
X123676726Y-110834748D01*
X123529590Y-110988717D01*
X123523104Y-110996727D01*
X123403098Y-111172649D01*
X123398000Y-111181623D01*
X123308338Y-111374783D01*
X123304775Y-111384470D01*
X123249389Y-111584183D01*
X114108500Y-111584183D01*
X114108500Y-104601695D01*
X115522251Y-104601695D01*
X115522548Y-104606848D01*
X115522548Y-104606851D01*
X115528011Y-104701590D01*
X115535110Y-104824715D01*
X115536247Y-104829761D01*
X115536248Y-104829767D01*
X115540632Y-104849218D01*
X115584222Y-105042639D01*
X115668266Y-105249616D01*
X115699501Y-105300587D01*
X115779094Y-105430471D01*
X115784987Y-105440088D01*
X115788367Y-105443990D01*
X115799352Y-105456671D01*
X115931250Y-105608938D01*
X115935230Y-105612242D01*
X115939981Y-105616187D01*
X115979616Y-105675090D01*
X115981113Y-105746071D01*
X115943997Y-105806593D01*
X115903724Y-105831112D01*
X115788295Y-105874385D01*
X115671739Y-105961739D01*
X115584385Y-106078295D01*
X115533255Y-106214684D01*
X115526500Y-106276866D01*
X115526500Y-108073134D01*
X115533255Y-108135316D01*
X115584385Y-108271705D01*
X115671739Y-108388261D01*
X115788295Y-108475615D01*
X115924684Y-108526745D01*
X115986866Y-108533500D01*
X117783134Y-108533500D01*
X117845316Y-108526745D01*
X117981705Y-108475615D01*
X118098261Y-108388261D01*
X118185615Y-108271705D01*
X118236745Y-108135316D01*
X118243500Y-108073134D01*
X118243500Y-107378101D01*
X118263502Y-107309980D01*
X118317158Y-107263487D01*
X118387432Y-107253383D01*
X118452012Y-107282877D01*
X118489333Y-107339163D01*
X118540473Y-107496556D01*
X118543776Y-107502278D01*
X118543777Y-107502279D01*
X118545835Y-107505844D01*
X118635960Y-107661944D01*
X118640378Y-107666851D01*
X118640379Y-107666852D01*
X118725088Y-107760931D01*
X118763747Y-107803866D01*
X118855627Y-107870621D01*
X118912904Y-107912235D01*
X118918248Y-107916118D01*
X118924276Y-107918802D01*
X118924278Y-107918803D01*
X119086681Y-107991109D01*
X119092712Y-107993794D01*
X119186112Y-108013647D01*
X119273056Y-108032128D01*
X119273061Y-108032128D01*
X119279513Y-108033500D01*
X119470487Y-108033500D01*
X119476939Y-108032128D01*
X119476944Y-108032128D01*
X119563888Y-108013647D01*
X119657288Y-107993794D01*
X119663319Y-107991109D01*
X119825722Y-107918803D01*
X119825724Y-107918802D01*
X119831752Y-107916118D01*
X119837091Y-107912239D01*
X119837098Y-107912235D01*
X119843528Y-107907563D01*
X119917587Y-107883500D01*
X129612849Y-107883500D01*
X129630382Y-107884726D01*
X129638460Y-107885861D01*
X129649779Y-107887452D01*
X129649782Y-107887452D01*
X129653687Y-107888001D01*
X129662951Y-107888131D01*
X129671046Y-107888244D01*
X129671051Y-107888244D01*
X129675000Y-107888299D01*
X129692607Y-107886324D01*
X129697649Y-107885861D01*
X129892876Y-107871898D01*
X129897364Y-107871577D01*
X129983704Y-107852795D01*
X130110813Y-107825145D01*
X130110816Y-107825144D01*
X130115202Y-107824190D01*
X130119404Y-107822623D01*
X130119410Y-107822621D01*
X130319866Y-107747854D01*
X130324078Y-107746283D01*
X130519741Y-107639443D01*
X130698207Y-107505844D01*
X130855844Y-107348207D01*
X130989443Y-107169741D01*
X131096283Y-106974078D01*
X131109834Y-106937747D01*
X131172621Y-106769410D01*
X131172623Y-106769404D01*
X131174190Y-106765202D01*
X131221577Y-106547364D01*
X131233532Y-106380218D01*
X131234436Y-106371678D01*
X131237452Y-106350221D01*
X131237452Y-106350218D01*
X131238001Y-106346313D01*
X131238121Y-106337763D01*
X131238244Y-106328962D01*
X131238244Y-106328956D01*
X131238299Y-106325000D01*
X131236819Y-106311804D01*
X131236422Y-106287875D01*
X131248076Y-106139796D01*
X131251169Y-106120269D01*
X131289228Y-105961739D01*
X131292223Y-105949265D01*
X131298332Y-105930462D01*
X131365633Y-105767985D01*
X131374607Y-105750374D01*
X131466497Y-105600424D01*
X131478112Y-105584436D01*
X131592329Y-105450705D01*
X131606307Y-105436727D01*
X131607121Y-105436032D01*
X131740036Y-105322512D01*
X131756024Y-105310897D01*
X131905974Y-105219007D01*
X131923585Y-105210033D01*
X132086067Y-105142730D01*
X132104865Y-105136623D01*
X132190368Y-105116096D01*
X132275869Y-105095569D01*
X132295396Y-105092476D01*
X132438119Y-105081243D01*
X132455910Y-105081663D01*
X132455910Y-105081643D01*
X132462950Y-105081741D01*
X132469943Y-105082625D01*
X132512001Y-105078501D01*
X132524298Y-105077900D01*
X133587491Y-105077900D01*
X133655612Y-105097902D01*
X133684402Y-105124995D01*
X133684987Y-105124488D01*
X133831250Y-105293338D01*
X133835230Y-105296642D01*
X133839981Y-105300587D01*
X133879616Y-105359490D01*
X133881113Y-105430471D01*
X133843997Y-105490993D01*
X133803724Y-105515512D01*
X133688295Y-105558785D01*
X133571739Y-105646139D01*
X133484385Y-105762695D01*
X133433255Y-105899084D01*
X133426500Y-105961266D01*
X133426500Y-107757534D01*
X133433255Y-107819716D01*
X133484385Y-107956105D01*
X133571739Y-108072661D01*
X133688295Y-108160015D01*
X133696704Y-108163167D01*
X133696705Y-108163168D01*
X133805451Y-108203935D01*
X133862216Y-108246576D01*
X133886916Y-108313138D01*
X133871709Y-108382487D01*
X133852316Y-108408968D01*
X133739766Y-108526745D01*
X133725629Y-108541538D01*
X133599743Y-108726080D01*
X133505688Y-108928705D01*
X133445989Y-109143970D01*
X133422251Y-109366095D01*
X133422548Y-109371248D01*
X133422548Y-109371251D01*
X133428011Y-109465990D01*
X133435110Y-109589115D01*
X133436247Y-109594161D01*
X133436248Y-109594167D01*
X133456119Y-109682339D01*
X133484222Y-109807039D01*
X133568266Y-110014016D01*
X133684987Y-110204488D01*
X133831250Y-110373338D01*
X134003126Y-110516032D01*
X134032338Y-110533102D01*
X134076445Y-110558876D01*
X134125169Y-110610514D01*
X134138240Y-110680297D01*
X134111509Y-110746069D01*
X134071055Y-110779427D01*
X134058607Y-110785907D01*
X134054474Y-110789010D01*
X134054471Y-110789012D01*
X133889329Y-110913004D01*
X133879965Y-110920035D01*
X133725629Y-111081538D01*
X133599743Y-111266080D01*
X133505688Y-111468705D01*
X133445989Y-111683970D01*
X133422251Y-111906095D01*
X133422548Y-111911248D01*
X133422548Y-111911251D01*
X133428011Y-112005990D01*
X133435110Y-112129115D01*
X133436247Y-112134161D01*
X133436248Y-112134167D01*
X133456119Y-112222339D01*
X133484222Y-112347039D01*
X133568266Y-112554016D01*
X133684987Y-112744488D01*
X133831250Y-112913338D01*
X134003126Y-113056032D01*
X134015497Y-113063261D01*
X134076445Y-113098876D01*
X134125169Y-113150514D01*
X134138240Y-113220297D01*
X134111509Y-113286069D01*
X134071055Y-113319427D01*
X134058607Y-113325907D01*
X134054474Y-113329010D01*
X134054471Y-113329012D01*
X134030247Y-113347200D01*
X133879965Y-113460035D01*
X133725629Y-113621538D01*
X133599743Y-113806080D01*
X133505688Y-114008705D01*
X133445989Y-114223970D01*
X133422251Y-114446095D01*
X133422548Y-114451248D01*
X133422548Y-114451251D01*
X133428011Y-114545990D01*
X133435110Y-114669115D01*
X133436247Y-114674161D01*
X133436248Y-114674167D01*
X133456119Y-114762339D01*
X133484222Y-114887039D01*
X133568266Y-115094016D01*
X133684987Y-115284488D01*
X133831250Y-115453338D01*
X134003126Y-115596032D01*
X134073595Y-115637211D01*
X134076445Y-115638876D01*
X134125169Y-115690514D01*
X134138240Y-115760297D01*
X134111509Y-115826069D01*
X134071055Y-115859427D01*
X134058607Y-115865907D01*
X134054474Y-115869010D01*
X134054471Y-115869012D01*
X133884100Y-115996930D01*
X133879965Y-116000035D01*
X133725629Y-116161538D01*
X133722715Y-116165810D01*
X133722714Y-116165811D01*
X133658431Y-116260046D01*
X133599743Y-116346080D01*
X133505688Y-116548705D01*
X133445989Y-116763970D01*
X133422251Y-116986095D01*
X133422548Y-116991248D01*
X133422548Y-116991251D01*
X133434812Y-117203947D01*
X133435110Y-117209115D01*
X133436247Y-117214161D01*
X133436248Y-117214167D01*
X133456119Y-117302339D01*
X133484222Y-117427039D01*
X133568266Y-117634016D01*
X133684987Y-117824488D01*
X133831250Y-117993338D01*
X133835230Y-117996642D01*
X133839981Y-118000587D01*
X133879616Y-118059490D01*
X133881113Y-118130471D01*
X133843997Y-118190993D01*
X133803724Y-118215512D01*
X133688295Y-118258785D01*
X133571739Y-118346139D01*
X133484385Y-118462695D01*
X133433255Y-118599084D01*
X133426500Y-118661266D01*
X133426500Y-120457534D01*
X133433255Y-120519716D01*
X133484385Y-120656105D01*
X133571739Y-120772661D01*
X133688295Y-120860015D01*
X133824684Y-120911145D01*
X133886866Y-120917900D01*
X135683134Y-120917900D01*
X135745316Y-120911145D01*
X135881705Y-120860015D01*
X135998261Y-120772661D01*
X136085615Y-120656105D01*
X136136745Y-120519716D01*
X136143500Y-120457534D01*
X136143500Y-118661266D01*
X136136745Y-118599084D01*
X136085615Y-118462695D01*
X135998261Y-118346139D01*
X135881705Y-118258785D01*
X135869132Y-118254072D01*
X135763203Y-118214360D01*
X135706439Y-118171718D01*
X135681739Y-118105156D01*
X135696947Y-118035808D01*
X135718493Y-118007127D01*
X135819435Y-117906537D01*
X135823096Y-117902889D01*
X135882594Y-117820089D01*
X135950435Y-117725677D01*
X135953453Y-117721477D01*
X136052430Y-117521211D01*
X136117370Y-117307469D01*
X136146529Y-117085990D01*
X136148156Y-117019400D01*
X136145418Y-116986095D01*
X151202251Y-116986095D01*
X151202548Y-116991248D01*
X151202548Y-116991251D01*
X151214812Y-117203947D01*
X151215110Y-117209115D01*
X151216247Y-117214161D01*
X151216248Y-117214167D01*
X151236119Y-117302339D01*
X151264222Y-117427039D01*
X151348266Y-117634016D01*
X151464987Y-117824488D01*
X151611250Y-117993338D01*
X151615230Y-117996642D01*
X151619981Y-118000587D01*
X151659616Y-118059490D01*
X151661113Y-118130471D01*
X151623997Y-118190993D01*
X151583724Y-118215512D01*
X151468295Y-118258785D01*
X151351739Y-118346139D01*
X151264385Y-118462695D01*
X151213255Y-118599084D01*
X151206500Y-118661266D01*
X151206500Y-120457534D01*
X151213255Y-120519716D01*
X151264385Y-120656105D01*
X151351739Y-120772661D01*
X151468295Y-120860015D01*
X151604684Y-120911145D01*
X151666866Y-120917900D01*
X153463134Y-120917900D01*
X153525316Y-120911145D01*
X153661705Y-120860015D01*
X153778261Y-120772661D01*
X153865615Y-120656105D01*
X153916745Y-120519716D01*
X153923500Y-120457534D01*
X153923500Y-118661266D01*
X153916745Y-118599084D01*
X153865615Y-118462695D01*
X153832685Y-118418757D01*
X160066500Y-118418757D01*
X160066712Y-118421330D01*
X160066712Y-118421341D01*
X160080478Y-118588779D01*
X160080479Y-118588785D01*
X160080902Y-118593930D01*
X160138327Y-118822551D01*
X160232322Y-119038723D01*
X160360360Y-119236641D01*
X160363839Y-119240464D01*
X160363841Y-119240467D01*
X160484037Y-119372560D01*
X160519005Y-119410989D01*
X160523056Y-119414188D01*
X160523060Y-119414192D01*
X160699939Y-119553883D01*
X160699943Y-119553885D01*
X160703994Y-119557085D01*
X160910361Y-119671005D01*
X160915230Y-119672729D01*
X160915234Y-119672731D01*
X161127689Y-119747965D01*
X161127693Y-119747966D01*
X161132564Y-119749691D01*
X161137657Y-119750598D01*
X161137660Y-119750599D01*
X161359544Y-119790123D01*
X161359550Y-119790124D01*
X161364633Y-119791029D01*
X161455477Y-119792139D01*
X161595170Y-119793846D01*
X161595172Y-119793846D01*
X161600339Y-119793909D01*
X161833349Y-119758253D01*
X162057407Y-119685020D01*
X162266496Y-119576175D01*
X162270629Y-119573072D01*
X162270632Y-119573070D01*
X162450865Y-119437747D01*
X162450868Y-119437745D01*
X162455000Y-119434642D01*
X162617857Y-119264223D01*
X162750693Y-119069492D01*
X162752869Y-119064805D01*
X162847764Y-118860372D01*
X162847766Y-118860367D01*
X162849941Y-118855681D01*
X162912935Y-118628532D01*
X162917183Y-118588779D01*
X162933144Y-118439437D01*
X162933144Y-118439429D01*
X162933500Y-118436102D01*
X162933500Y-118418757D01*
X165066500Y-118418757D01*
X165066712Y-118421330D01*
X165066712Y-118421341D01*
X165080478Y-118588779D01*
X165080479Y-118588785D01*
X165080902Y-118593930D01*
X165138327Y-118822551D01*
X165232322Y-119038723D01*
X165360360Y-119236641D01*
X165363839Y-119240464D01*
X165363841Y-119240467D01*
X165484037Y-119372560D01*
X165519005Y-119410989D01*
X165523056Y-119414188D01*
X165523060Y-119414192D01*
X165699939Y-119553883D01*
X165699943Y-119553885D01*
X165703994Y-119557085D01*
X165910361Y-119671005D01*
X165915230Y-119672729D01*
X165915234Y-119672731D01*
X166127689Y-119747965D01*
X166127693Y-119747966D01*
X166132564Y-119749691D01*
X166137657Y-119750598D01*
X166137660Y-119750599D01*
X166359544Y-119790123D01*
X166359550Y-119790124D01*
X166364633Y-119791029D01*
X166455477Y-119792139D01*
X166595170Y-119793846D01*
X166595172Y-119793846D01*
X166600339Y-119793909D01*
X166833349Y-119758253D01*
X167057407Y-119685020D01*
X167266496Y-119576175D01*
X167270629Y-119573072D01*
X167270632Y-119573070D01*
X167450865Y-119437747D01*
X167450868Y-119437745D01*
X167455000Y-119434642D01*
X167617857Y-119264223D01*
X167750693Y-119069492D01*
X167752869Y-119064805D01*
X167847764Y-118860372D01*
X167847766Y-118860367D01*
X167849941Y-118855681D01*
X167912935Y-118628532D01*
X167917183Y-118588779D01*
X167933144Y-118439437D01*
X167933144Y-118439429D01*
X167933500Y-118436102D01*
X167933500Y-117101243D01*
X167927048Y-117022765D01*
X167919522Y-116931221D01*
X167919521Y-116931215D01*
X167919098Y-116926070D01*
X167861673Y-116697449D01*
X167767678Y-116481277D01*
X167639640Y-116283359D01*
X167614543Y-116255777D01*
X167484473Y-116112833D01*
X167484471Y-116112832D01*
X167480995Y-116109011D01*
X167476944Y-116105812D01*
X167476940Y-116105808D01*
X167300061Y-115966117D01*
X167300057Y-115966115D01*
X167296006Y-115962915D01*
X167089639Y-115848995D01*
X167084770Y-115847271D01*
X167084766Y-115847269D01*
X166872311Y-115772035D01*
X166872307Y-115772034D01*
X166867436Y-115770309D01*
X166862343Y-115769402D01*
X166862340Y-115769401D01*
X166640456Y-115729877D01*
X166640450Y-115729876D01*
X166635367Y-115728971D01*
X166544523Y-115727861D01*
X166404830Y-115726154D01*
X166404828Y-115726154D01*
X166399661Y-115726091D01*
X166166651Y-115761747D01*
X165942593Y-115834980D01*
X165733504Y-115943825D01*
X165729371Y-115946928D01*
X165729368Y-115946930D01*
X165549135Y-116082253D01*
X165545000Y-116085358D01*
X165382143Y-116255777D01*
X165249307Y-116450508D01*
X165247133Y-116455192D01*
X165247131Y-116455195D01*
X165205905Y-116544010D01*
X165150059Y-116664319D01*
X165087065Y-116891468D01*
X165066500Y-117083898D01*
X165066500Y-118418757D01*
X162933500Y-118418757D01*
X162933500Y-117101243D01*
X162927048Y-117022765D01*
X162919522Y-116931221D01*
X162919521Y-116931215D01*
X162919098Y-116926070D01*
X162861673Y-116697449D01*
X162767678Y-116481277D01*
X162639640Y-116283359D01*
X162614543Y-116255777D01*
X162484473Y-116112833D01*
X162484471Y-116112832D01*
X162480995Y-116109011D01*
X162476944Y-116105812D01*
X162476940Y-116105808D01*
X162300061Y-115966117D01*
X162300057Y-115966115D01*
X162296006Y-115962915D01*
X162089639Y-115848995D01*
X162084770Y-115847271D01*
X162084766Y-115847269D01*
X161872311Y-115772035D01*
X161872307Y-115772034D01*
X161867436Y-115770309D01*
X161862343Y-115769402D01*
X161862340Y-115769401D01*
X161640456Y-115729877D01*
X161640450Y-115729876D01*
X161635367Y-115728971D01*
X161544523Y-115727861D01*
X161404830Y-115726154D01*
X161404828Y-115726154D01*
X161399661Y-115726091D01*
X161166651Y-115761747D01*
X160942593Y-115834980D01*
X160733504Y-115943825D01*
X160729371Y-115946928D01*
X160729368Y-115946930D01*
X160549135Y-116082253D01*
X160545000Y-116085358D01*
X160382143Y-116255777D01*
X160249307Y-116450508D01*
X160247133Y-116455192D01*
X160247131Y-116455195D01*
X160205905Y-116544010D01*
X160150059Y-116664319D01*
X160087065Y-116891468D01*
X160066500Y-117083898D01*
X160066500Y-118418757D01*
X153832685Y-118418757D01*
X153778261Y-118346139D01*
X153661705Y-118258785D01*
X153649132Y-118254072D01*
X153543203Y-118214360D01*
X153486439Y-118171718D01*
X153461739Y-118105156D01*
X153476947Y-118035808D01*
X153498493Y-118007127D01*
X153599435Y-117906537D01*
X153603096Y-117902889D01*
X153662594Y-117820089D01*
X153730435Y-117725677D01*
X153733453Y-117721477D01*
X153832430Y-117521211D01*
X153897370Y-117307469D01*
X153926529Y-117085990D01*
X153928156Y-117019400D01*
X153909852Y-116796761D01*
X153855431Y-116580102D01*
X153766354Y-116375240D01*
X153709723Y-116287702D01*
X153647822Y-116192017D01*
X153647820Y-116192014D01*
X153645014Y-116187677D01*
X153494670Y-116022451D01*
X153490619Y-116019252D01*
X153490615Y-116019248D01*
X153323414Y-115887200D01*
X153323410Y-115887198D01*
X153319359Y-115883998D01*
X153278053Y-115861196D01*
X153228084Y-115810764D01*
X153213312Y-115741321D01*
X153238428Y-115674916D01*
X153265780Y-115648309D01*
X153309603Y-115617050D01*
X153444860Y-115520573D01*
X153603096Y-115362889D01*
X153662594Y-115280089D01*
X153730435Y-115185677D01*
X153733453Y-115181477D01*
X153832430Y-114981211D01*
X153897370Y-114767469D01*
X153926529Y-114545990D01*
X153928156Y-114479400D01*
X153909852Y-114256761D01*
X153855431Y-114040102D01*
X153766354Y-113835240D01*
X153645014Y-113647677D01*
X153494670Y-113482451D01*
X153490619Y-113479252D01*
X153490615Y-113479248D01*
X153323414Y-113347200D01*
X153323410Y-113347198D01*
X153319359Y-113343998D01*
X153278053Y-113321196D01*
X153228084Y-113270764D01*
X153213312Y-113201321D01*
X153238428Y-113134916D01*
X153265780Y-113108309D01*
X153328935Y-113063261D01*
X153444860Y-112980573D01*
X153471636Y-112953891D01*
X153538615Y-112887145D01*
X153603096Y-112822889D01*
X153662594Y-112740089D01*
X153730435Y-112645677D01*
X153733453Y-112641477D01*
X153832430Y-112441211D01*
X153897370Y-112227469D01*
X153926529Y-112005990D01*
X153928156Y-111939400D01*
X153909852Y-111716761D01*
X153855431Y-111500102D01*
X153766354Y-111295240D01*
X153645014Y-111107677D01*
X153494670Y-110942451D01*
X153490619Y-110939252D01*
X153490615Y-110939248D01*
X153323414Y-110807200D01*
X153323410Y-110807198D01*
X153319359Y-110803998D01*
X153278053Y-110781196D01*
X153228084Y-110730764D01*
X153213312Y-110661321D01*
X153238428Y-110594916D01*
X153265780Y-110568309D01*
X153317180Y-110531646D01*
X153444860Y-110440573D01*
X153603096Y-110282889D01*
X153662594Y-110200089D01*
X153730435Y-110105677D01*
X153733453Y-110101477D01*
X153832430Y-109901211D01*
X153897370Y-109687469D01*
X153926529Y-109465990D01*
X153928156Y-109399400D01*
X153909852Y-109176761D01*
X153855431Y-108960102D01*
X153766354Y-108755240D01*
X153645014Y-108567677D01*
X153641532Y-108563850D01*
X153497798Y-108405888D01*
X153466746Y-108342042D01*
X153475141Y-108271543D01*
X153520317Y-108216775D01*
X153546761Y-108203106D01*
X153653297Y-108163167D01*
X153661705Y-108160015D01*
X153778261Y-108072661D01*
X153865615Y-107956105D01*
X153916745Y-107819716D01*
X153923500Y-107757534D01*
X153923500Y-105961266D01*
X153918882Y-105918757D01*
X160066500Y-105918757D01*
X160066712Y-105921330D01*
X160066712Y-105921341D01*
X160080478Y-106088779D01*
X160080479Y-106088785D01*
X160080902Y-106093930D01*
X160138327Y-106322551D01*
X160232322Y-106538723D01*
X160360360Y-106736641D01*
X160363839Y-106740464D01*
X160363841Y-106740467D01*
X160515527Y-106907167D01*
X160519005Y-106910989D01*
X160523056Y-106914188D01*
X160523060Y-106914192D01*
X160699939Y-107053883D01*
X160699943Y-107053885D01*
X160703994Y-107057085D01*
X160910361Y-107171005D01*
X160915230Y-107172729D01*
X160915234Y-107172731D01*
X161127689Y-107247965D01*
X161127693Y-107247966D01*
X161132564Y-107249691D01*
X161137657Y-107250598D01*
X161137660Y-107250599D01*
X161359544Y-107290123D01*
X161359550Y-107290124D01*
X161364633Y-107291029D01*
X161455477Y-107292139D01*
X161595170Y-107293846D01*
X161595172Y-107293846D01*
X161600339Y-107293909D01*
X161833349Y-107258253D01*
X162057407Y-107185020D01*
X162266496Y-107076175D01*
X162270629Y-107073072D01*
X162270632Y-107073070D01*
X162450865Y-106937747D01*
X162450868Y-106937745D01*
X162455000Y-106934642D01*
X162617857Y-106764223D01*
X162750693Y-106569492D01*
X162760965Y-106547364D01*
X162847764Y-106360372D01*
X162847766Y-106360367D01*
X162849941Y-106355681D01*
X162912935Y-106128532D01*
X162930446Y-105964683D01*
X162933144Y-105939437D01*
X162933144Y-105939429D01*
X162933500Y-105936102D01*
X162933500Y-105918757D01*
X165066500Y-105918757D01*
X165066712Y-105921330D01*
X165066712Y-105921341D01*
X165080478Y-106088779D01*
X165080479Y-106088785D01*
X165080902Y-106093930D01*
X165138327Y-106322551D01*
X165232322Y-106538723D01*
X165360360Y-106736641D01*
X165363839Y-106740464D01*
X165363841Y-106740467D01*
X165515527Y-106907167D01*
X165519005Y-106910989D01*
X165523056Y-106914188D01*
X165523060Y-106914192D01*
X165699939Y-107053883D01*
X165699943Y-107053885D01*
X165703994Y-107057085D01*
X165910361Y-107171005D01*
X165915230Y-107172729D01*
X165915234Y-107172731D01*
X166127689Y-107247965D01*
X166127693Y-107247966D01*
X166132564Y-107249691D01*
X166137657Y-107250598D01*
X166137660Y-107250599D01*
X166359544Y-107290123D01*
X166359550Y-107290124D01*
X166364633Y-107291029D01*
X166455477Y-107292139D01*
X166595170Y-107293846D01*
X166595172Y-107293846D01*
X166600339Y-107293909D01*
X166833349Y-107258253D01*
X167057407Y-107185020D01*
X167266496Y-107076175D01*
X167270629Y-107073072D01*
X167270632Y-107073070D01*
X167450865Y-106937747D01*
X167450868Y-106937745D01*
X167455000Y-106934642D01*
X167617857Y-106764223D01*
X167750693Y-106569492D01*
X167760965Y-106547364D01*
X167847764Y-106360372D01*
X167847766Y-106360367D01*
X167849941Y-106355681D01*
X167912935Y-106128532D01*
X167930446Y-105964683D01*
X167933144Y-105939437D01*
X167933144Y-105939429D01*
X167933500Y-105936102D01*
X167933500Y-104601243D01*
X167933288Y-104598659D01*
X167919522Y-104431221D01*
X167919521Y-104431215D01*
X167919098Y-104426070D01*
X167861673Y-104197449D01*
X167767678Y-103981277D01*
X167639640Y-103783359D01*
X167633980Y-103777138D01*
X167484473Y-103612833D01*
X167484471Y-103612832D01*
X167480995Y-103609011D01*
X167476944Y-103605812D01*
X167476940Y-103605808D01*
X167300061Y-103466117D01*
X167300057Y-103466115D01*
X167296006Y-103462915D01*
X167089639Y-103348995D01*
X167084770Y-103347271D01*
X167084766Y-103347269D01*
X166872311Y-103272035D01*
X166872307Y-103272034D01*
X166867436Y-103270309D01*
X166862343Y-103269402D01*
X166862340Y-103269401D01*
X166640456Y-103229877D01*
X166640450Y-103229876D01*
X166635367Y-103228971D01*
X166544523Y-103227861D01*
X166404830Y-103226154D01*
X166404828Y-103226154D01*
X166399661Y-103226091D01*
X166166651Y-103261747D01*
X165942593Y-103334980D01*
X165733504Y-103443825D01*
X165729371Y-103446928D01*
X165729368Y-103446930D01*
X165549135Y-103582253D01*
X165545000Y-103585358D01*
X165382143Y-103755777D01*
X165249307Y-103950508D01*
X165247133Y-103955192D01*
X165247131Y-103955195D01*
X165152245Y-104159610D01*
X165150059Y-104164319D01*
X165087065Y-104391468D01*
X165066500Y-104583898D01*
X165066500Y-105918757D01*
X162933500Y-105918757D01*
X162933500Y-104601243D01*
X162933288Y-104598659D01*
X162919522Y-104431221D01*
X162919521Y-104431215D01*
X162919098Y-104426070D01*
X162861673Y-104197449D01*
X162767678Y-103981277D01*
X162639640Y-103783359D01*
X162633980Y-103777138D01*
X162484473Y-103612833D01*
X162484471Y-103612832D01*
X162480995Y-103609011D01*
X162476944Y-103605812D01*
X162476940Y-103605808D01*
X162300061Y-103466117D01*
X162300057Y-103466115D01*
X162296006Y-103462915D01*
X162089639Y-103348995D01*
X162084770Y-103347271D01*
X162084766Y-103347269D01*
X161872311Y-103272035D01*
X161872307Y-103272034D01*
X161867436Y-103270309D01*
X161862343Y-103269402D01*
X161862340Y-103269401D01*
X161640456Y-103229877D01*
X161640450Y-103229876D01*
X161635367Y-103228971D01*
X161544523Y-103227861D01*
X161404830Y-103226154D01*
X161404828Y-103226154D01*
X161399661Y-103226091D01*
X161166651Y-103261747D01*
X160942593Y-103334980D01*
X160733504Y-103443825D01*
X160729371Y-103446928D01*
X160729368Y-103446930D01*
X160549135Y-103582253D01*
X160545000Y-103585358D01*
X160382143Y-103755777D01*
X160249307Y-103950508D01*
X160247133Y-103955192D01*
X160247131Y-103955195D01*
X160152245Y-104159610D01*
X160150059Y-104164319D01*
X160087065Y-104391468D01*
X160066500Y-104583898D01*
X160066500Y-105918757D01*
X153918882Y-105918757D01*
X153916745Y-105899084D01*
X153865615Y-105762695D01*
X153778261Y-105646139D01*
X153661705Y-105558785D01*
X153649132Y-105554072D01*
X153543203Y-105514360D01*
X153486439Y-105471718D01*
X153461739Y-105405156D01*
X153476947Y-105335808D01*
X153498493Y-105307127D01*
X153561009Y-105244829D01*
X153603096Y-105202889D01*
X153650714Y-105136622D01*
X153730435Y-105025677D01*
X153733453Y-105021477D01*
X153784625Y-104917939D01*
X153830136Y-104825853D01*
X153830137Y-104825851D01*
X153832430Y-104821211D01*
X153887983Y-104638365D01*
X153895865Y-104612423D01*
X153895865Y-104612421D01*
X153897370Y-104607469D01*
X153926529Y-104385990D01*
X153926983Y-104367407D01*
X153928074Y-104322765D01*
X153928074Y-104322761D01*
X153928156Y-104319400D01*
X153909852Y-104096761D01*
X153855431Y-103880102D01*
X153766354Y-103675240D01*
X153691591Y-103559674D01*
X153647822Y-103492017D01*
X153647820Y-103492014D01*
X153645014Y-103487677D01*
X153494670Y-103322451D01*
X153490619Y-103319252D01*
X153490615Y-103319248D01*
X153323414Y-103187200D01*
X153323410Y-103187198D01*
X153319359Y-103183998D01*
X153278053Y-103161196D01*
X153228084Y-103110764D01*
X153213312Y-103041321D01*
X153238428Y-102974916D01*
X153265780Y-102948309D01*
X153333383Y-102900088D01*
X153444860Y-102820573D01*
X153473094Y-102792438D01*
X153599435Y-102666537D01*
X153603096Y-102662889D01*
X153662594Y-102580089D01*
X153730435Y-102485677D01*
X153733453Y-102481477D01*
X153784625Y-102377939D01*
X153830136Y-102285853D01*
X153830137Y-102285851D01*
X153832430Y-102281211D01*
X153887983Y-102098365D01*
X153895865Y-102072423D01*
X153895865Y-102072421D01*
X153897370Y-102067469D01*
X153926529Y-101845990D01*
X153928156Y-101779400D01*
X153909852Y-101556761D01*
X153855431Y-101340102D01*
X153766354Y-101135240D01*
X153645014Y-100947677D01*
X153494670Y-100782451D01*
X153490619Y-100779252D01*
X153490615Y-100779248D01*
X153323414Y-100647200D01*
X153323410Y-100647198D01*
X153319359Y-100643998D01*
X153278053Y-100621196D01*
X153228084Y-100570764D01*
X153213312Y-100501321D01*
X153238428Y-100434916D01*
X153265780Y-100408309D01*
X153309603Y-100377050D01*
X153444860Y-100280573D01*
X153603096Y-100122889D01*
X153662594Y-100040089D01*
X153730435Y-99945677D01*
X153733453Y-99941477D01*
X153764499Y-99878661D01*
X153830136Y-99745853D01*
X153830137Y-99745851D01*
X153832430Y-99741211D01*
X153869907Y-99617860D01*
X153895865Y-99532423D01*
X153895865Y-99532421D01*
X153897370Y-99527469D01*
X153926529Y-99305990D01*
X153928156Y-99239400D01*
X153909852Y-99016761D01*
X153855431Y-98800102D01*
X153766354Y-98595240D01*
X153645014Y-98407677D01*
X153494670Y-98242451D01*
X153490619Y-98239252D01*
X153490615Y-98239248D01*
X153323414Y-98107200D01*
X153323410Y-98107198D01*
X153319359Y-98103998D01*
X153278053Y-98081196D01*
X153228084Y-98030764D01*
X153213312Y-97961321D01*
X153238428Y-97894916D01*
X153265780Y-97868309D01*
X153309603Y-97837050D01*
X153444860Y-97740573D01*
X153603096Y-97582889D01*
X153613296Y-97568695D01*
X153730435Y-97405677D01*
X153733453Y-97401477D01*
X153748926Y-97370171D01*
X153830136Y-97205853D01*
X153830137Y-97205851D01*
X153832430Y-97201211D01*
X153864900Y-97094340D01*
X153895865Y-96992423D01*
X153895865Y-96992421D01*
X153897370Y-96987469D01*
X153926529Y-96765990D01*
X153928156Y-96699400D01*
X153909852Y-96476761D01*
X153855431Y-96260102D01*
X153766354Y-96055240D01*
X153645014Y-95867677D01*
X153641540Y-95863859D01*
X153641533Y-95863850D01*
X153497435Y-95705488D01*
X153466383Y-95641642D01*
X153474779Y-95571144D01*
X153519956Y-95516376D01*
X153546400Y-95502707D01*
X153653052Y-95462725D01*
X153668649Y-95454186D01*
X153770724Y-95377685D01*
X153783285Y-95365124D01*
X153859786Y-95263049D01*
X153868324Y-95247454D01*
X153913478Y-95127006D01*
X153917105Y-95111751D01*
X153922631Y-95060886D01*
X153923000Y-95054072D01*
X153923000Y-94741381D01*
X166524160Y-94741381D01*
X166524237Y-94742470D01*
X166526698Y-94746206D01*
X166800632Y-94956404D01*
X166806262Y-94960259D01*
X167106591Y-95142862D01*
X167112593Y-95146080D01*
X167430897Y-95295184D01*
X167437202Y-95297732D01*
X167769743Y-95411587D01*
X167776313Y-95413446D01*
X168119183Y-95490714D01*
X168125912Y-95491853D01*
X168475143Y-95531643D01*
X168481933Y-95532046D01*
X168833419Y-95533886D01*
X168840220Y-95533554D01*
X169189853Y-95497423D01*
X169196581Y-95496357D01*
X169540274Y-95422676D01*
X169546822Y-95420897D01*
X169880549Y-95310527D01*
X169886891Y-95308041D01*
X170206718Y-95162288D01*
X170212777Y-95159121D01*
X170514995Y-94979676D01*
X170520659Y-94975884D01*
X170801732Y-94764849D01*
X170806958Y-94760464D01*
X170816613Y-94751428D01*
X170824682Y-94737750D01*
X170824654Y-94737024D01*
X170819512Y-94728723D01*
X168687810Y-92597020D01*
X168673869Y-92589408D01*
X168672034Y-92589539D01*
X168665420Y-92593790D01*
X166531774Y-94727437D01*
X166524160Y-94741381D01*
X153923000Y-94741381D01*
X153923000Y-94431515D01*
X153918525Y-94416276D01*
X153917135Y-94415071D01*
X153909452Y-94413400D01*
X151225116Y-94413400D01*
X151209877Y-94417875D01*
X151208672Y-94419265D01*
X151207001Y-94426948D01*
X151207001Y-95054069D01*
X151207371Y-95060890D01*
X151212895Y-95111752D01*
X151216521Y-95127004D01*
X151261676Y-95247454D01*
X151270214Y-95263049D01*
X151346715Y-95365124D01*
X151359276Y-95377685D01*
X151461351Y-95454186D01*
X151476946Y-95462724D01*
X151585827Y-95503542D01*
X151642591Y-95546184D01*
X151667291Y-95612745D01*
X151652083Y-95682094D01*
X151632691Y-95708575D01*
X151632133Y-95709159D01*
X151505629Y-95841538D01*
X151502715Y-95845810D01*
X151502714Y-95845811D01*
X151484838Y-95872017D01*
X151379743Y-96026080D01*
X151285688Y-96228705D01*
X151225989Y-96443970D01*
X151202251Y-96666095D01*
X151202548Y-96671248D01*
X151202548Y-96671251D01*
X151208011Y-96765990D01*
X151215110Y-96889115D01*
X151216247Y-96894161D01*
X151216248Y-96894167D01*
X151230449Y-96957178D01*
X151264222Y-97107039D01*
X151304346Y-97205853D01*
X151345377Y-97306900D01*
X151348266Y-97314016D01*
X151352736Y-97321310D01*
X151432908Y-97452139D01*
X151464987Y-97504488D01*
X151611250Y-97673338D01*
X151783126Y-97816032D01*
X151853595Y-97857211D01*
X151856445Y-97858876D01*
X151905169Y-97910514D01*
X151918240Y-97980297D01*
X151891509Y-98046069D01*
X151851055Y-98079427D01*
X151838607Y-98085907D01*
X151834474Y-98089010D01*
X151834471Y-98089012D01*
X151810247Y-98107200D01*
X151659965Y-98220035D01*
X151505629Y-98381538D01*
X151502715Y-98385810D01*
X151502714Y-98385811D01*
X151490404Y-98403857D01*
X151379743Y-98566080D01*
X151285688Y-98768705D01*
X151225989Y-98983970D01*
X151202251Y-99206095D01*
X151202548Y-99211248D01*
X151202548Y-99211251D01*
X151208011Y-99305990D01*
X151215110Y-99429115D01*
X151216247Y-99434161D01*
X151216248Y-99434167D01*
X151229597Y-99493400D01*
X151264222Y-99647039D01*
X151348266Y-99854016D01*
X151366666Y-99884042D01*
X151452371Y-100023900D01*
X151464987Y-100044488D01*
X151611250Y-100213338D01*
X151783126Y-100356032D01*
X151853595Y-100397211D01*
X151856445Y-100398876D01*
X151905169Y-100450514D01*
X151918240Y-100520297D01*
X151891509Y-100586069D01*
X151851055Y-100619427D01*
X151838607Y-100625907D01*
X151834474Y-100629010D01*
X151834471Y-100629012D01*
X151689538Y-100737831D01*
X151659965Y-100760035D01*
X151505629Y-100921538D01*
X151502715Y-100925810D01*
X151502714Y-100925811D01*
X151479666Y-100959598D01*
X151379743Y-101106080D01*
X151285688Y-101308705D01*
X151225989Y-101523970D01*
X151202251Y-101746095D01*
X151202548Y-101751248D01*
X151202548Y-101751251D01*
X151207937Y-101844707D01*
X151215110Y-101969115D01*
X151216247Y-101974161D01*
X151216248Y-101974167D01*
X151234817Y-102056562D01*
X151264222Y-102187039D01*
X151302461Y-102281211D01*
X151345833Y-102388023D01*
X151348266Y-102394016D01*
X151464987Y-102584488D01*
X151611250Y-102753338D01*
X151783126Y-102896032D01*
X151796745Y-102903990D01*
X151856445Y-102938876D01*
X151905169Y-102990514D01*
X151918240Y-103060297D01*
X151891509Y-103126069D01*
X151851055Y-103159427D01*
X151838607Y-103165907D01*
X151834474Y-103169010D01*
X151834471Y-103169012D01*
X151672643Y-103290516D01*
X151659965Y-103300035D01*
X151505629Y-103461538D01*
X151502720Y-103465803D01*
X151502714Y-103465811D01*
X151441085Y-103556156D01*
X151379743Y-103646080D01*
X151349190Y-103711901D01*
X151293248Y-103832419D01*
X151285688Y-103848705D01*
X151225989Y-104063970D01*
X151202251Y-104286095D01*
X151202548Y-104291248D01*
X151202548Y-104291251D01*
X151208623Y-104396605D01*
X151215110Y-104509115D01*
X151216247Y-104514161D01*
X151216248Y-104514167D01*
X151235872Y-104601243D01*
X151264222Y-104727039D01*
X151302461Y-104821211D01*
X151345833Y-104928023D01*
X151348266Y-104934016D01*
X151350965Y-104938420D01*
X151438732Y-105081643D01*
X151464987Y-105124488D01*
X151611250Y-105293338D01*
X151615230Y-105296642D01*
X151619981Y-105300587D01*
X151659616Y-105359490D01*
X151661113Y-105430471D01*
X151623997Y-105490993D01*
X151583724Y-105515512D01*
X151468295Y-105558785D01*
X151351739Y-105646139D01*
X151264385Y-105762695D01*
X151213255Y-105899084D01*
X151206500Y-105961266D01*
X151206500Y-107757534D01*
X151213255Y-107819716D01*
X151264385Y-107956105D01*
X151351739Y-108072661D01*
X151468295Y-108160015D01*
X151476704Y-108163167D01*
X151476705Y-108163168D01*
X151585451Y-108203935D01*
X151642216Y-108246576D01*
X151666916Y-108313138D01*
X151651709Y-108382487D01*
X151632316Y-108408968D01*
X151519766Y-108526745D01*
X151505629Y-108541538D01*
X151379743Y-108726080D01*
X151285688Y-108928705D01*
X151225989Y-109143970D01*
X151202251Y-109366095D01*
X151202548Y-109371248D01*
X151202548Y-109371251D01*
X151208011Y-109465990D01*
X151215110Y-109589115D01*
X151216247Y-109594161D01*
X151216248Y-109594167D01*
X151236119Y-109682339D01*
X151264222Y-109807039D01*
X151348266Y-110014016D01*
X151464987Y-110204488D01*
X151611250Y-110373338D01*
X151783126Y-110516032D01*
X151812338Y-110533102D01*
X151856445Y-110558876D01*
X151905169Y-110610514D01*
X151918240Y-110680297D01*
X151891509Y-110746069D01*
X151851055Y-110779427D01*
X151838607Y-110785907D01*
X151834474Y-110789010D01*
X151834471Y-110789012D01*
X151669329Y-110913004D01*
X151659965Y-110920035D01*
X151505629Y-111081538D01*
X151379743Y-111266080D01*
X151285688Y-111468705D01*
X151225989Y-111683970D01*
X151202251Y-111906095D01*
X151202548Y-111911248D01*
X151202548Y-111911251D01*
X151208011Y-112005990D01*
X151215110Y-112129115D01*
X151216247Y-112134161D01*
X151216248Y-112134167D01*
X151236119Y-112222339D01*
X151264222Y-112347039D01*
X151348266Y-112554016D01*
X151464987Y-112744488D01*
X151611250Y-112913338D01*
X151783126Y-113056032D01*
X151795497Y-113063261D01*
X151856445Y-113098876D01*
X151905169Y-113150514D01*
X151918240Y-113220297D01*
X151891509Y-113286069D01*
X151851055Y-113319427D01*
X151838607Y-113325907D01*
X151834474Y-113329010D01*
X151834471Y-113329012D01*
X151810247Y-113347200D01*
X151659965Y-113460035D01*
X151505629Y-113621538D01*
X151379743Y-113806080D01*
X151285688Y-114008705D01*
X151225989Y-114223970D01*
X151202251Y-114446095D01*
X151202548Y-114451248D01*
X151202548Y-114451251D01*
X151208011Y-114545990D01*
X151215110Y-114669115D01*
X151216247Y-114674161D01*
X151216248Y-114674167D01*
X151236119Y-114762339D01*
X151264222Y-114887039D01*
X151348266Y-115094016D01*
X151464987Y-115284488D01*
X151611250Y-115453338D01*
X151783126Y-115596032D01*
X151853595Y-115637211D01*
X151856445Y-115638876D01*
X151905169Y-115690514D01*
X151918240Y-115760297D01*
X151891509Y-115826069D01*
X151851055Y-115859427D01*
X151838607Y-115865907D01*
X151834474Y-115869010D01*
X151834471Y-115869012D01*
X151664100Y-115996930D01*
X151659965Y-116000035D01*
X151505629Y-116161538D01*
X151502715Y-116165810D01*
X151502714Y-116165811D01*
X151438431Y-116260046D01*
X151379743Y-116346080D01*
X151285688Y-116548705D01*
X151225989Y-116763970D01*
X151202251Y-116986095D01*
X136145418Y-116986095D01*
X136129852Y-116796761D01*
X136075431Y-116580102D01*
X135986354Y-116375240D01*
X135929723Y-116287702D01*
X135867822Y-116192017D01*
X135867820Y-116192014D01*
X135865014Y-116187677D01*
X135714670Y-116022451D01*
X135710619Y-116019252D01*
X135710615Y-116019248D01*
X135543414Y-115887200D01*
X135543410Y-115887198D01*
X135539359Y-115883998D01*
X135498053Y-115861196D01*
X135448084Y-115810764D01*
X135433312Y-115741321D01*
X135458428Y-115674916D01*
X135485780Y-115648309D01*
X135529603Y-115617050D01*
X135664860Y-115520573D01*
X135823096Y-115362889D01*
X135882594Y-115280089D01*
X135950435Y-115185677D01*
X135953453Y-115181477D01*
X136052430Y-114981211D01*
X136117370Y-114767469D01*
X136146529Y-114545990D01*
X136148156Y-114479400D01*
X136129852Y-114256761D01*
X136075431Y-114040102D01*
X135986354Y-113835240D01*
X135865014Y-113647677D01*
X135714670Y-113482451D01*
X135710619Y-113479252D01*
X135710615Y-113479248D01*
X135543414Y-113347200D01*
X135543410Y-113347198D01*
X135539359Y-113343998D01*
X135498053Y-113321196D01*
X135448084Y-113270764D01*
X135433312Y-113201321D01*
X135458428Y-113134916D01*
X135485780Y-113108309D01*
X135548935Y-113063261D01*
X135664860Y-112980573D01*
X135691636Y-112953891D01*
X135758615Y-112887145D01*
X135823096Y-112822889D01*
X135882594Y-112740089D01*
X135950435Y-112645677D01*
X135953453Y-112641477D01*
X136052430Y-112441211D01*
X136117370Y-112227469D01*
X136146529Y-112005990D01*
X136148156Y-111939400D01*
X136129852Y-111716761D01*
X136075431Y-111500102D01*
X135986354Y-111295240D01*
X135865014Y-111107677D01*
X135714670Y-110942451D01*
X135710619Y-110939252D01*
X135710615Y-110939248D01*
X135543414Y-110807200D01*
X135543410Y-110807198D01*
X135539359Y-110803998D01*
X135498053Y-110781196D01*
X135448084Y-110730764D01*
X135433312Y-110661321D01*
X135458428Y-110594916D01*
X135485780Y-110568309D01*
X135537180Y-110531646D01*
X135664860Y-110440573D01*
X135823096Y-110282889D01*
X135882594Y-110200089D01*
X135950435Y-110105677D01*
X135953453Y-110101477D01*
X136052430Y-109901211D01*
X136117370Y-109687469D01*
X136146529Y-109465990D01*
X136148156Y-109399400D01*
X136129852Y-109176761D01*
X136075431Y-108960102D01*
X135986354Y-108755240D01*
X135865014Y-108567677D01*
X135861532Y-108563850D01*
X135717798Y-108405888D01*
X135686746Y-108342042D01*
X135695141Y-108271543D01*
X135740317Y-108216775D01*
X135766761Y-108203106D01*
X135873297Y-108163167D01*
X135881705Y-108160015D01*
X135998261Y-108072661D01*
X136085615Y-107956105D01*
X136136745Y-107819716D01*
X136143500Y-107757534D01*
X136143500Y-105961266D01*
X136136745Y-105899084D01*
X136085615Y-105762695D01*
X135998261Y-105646139D01*
X135881705Y-105558785D01*
X135869132Y-105554072D01*
X135763203Y-105514360D01*
X135706439Y-105471718D01*
X135681739Y-105405156D01*
X135696947Y-105335808D01*
X135718493Y-105307127D01*
X135781009Y-105244829D01*
X135823096Y-105202889D01*
X135870714Y-105136622D01*
X135950435Y-105025677D01*
X135953453Y-105021477D01*
X136004625Y-104917939D01*
X136050136Y-104825853D01*
X136050137Y-104825851D01*
X136052430Y-104821211D01*
X136107983Y-104638365D01*
X136115865Y-104612423D01*
X136115865Y-104612421D01*
X136117370Y-104607469D01*
X136146529Y-104385990D01*
X136146983Y-104367407D01*
X136148074Y-104322765D01*
X136148074Y-104322761D01*
X136148156Y-104319400D01*
X136129852Y-104096761D01*
X136075431Y-103880102D01*
X135986354Y-103675240D01*
X135911591Y-103559674D01*
X135867822Y-103492017D01*
X135867820Y-103492014D01*
X135865014Y-103487677D01*
X135714670Y-103322451D01*
X135710619Y-103319252D01*
X135710615Y-103319248D01*
X135543414Y-103187200D01*
X135543410Y-103187198D01*
X135539359Y-103183998D01*
X135498053Y-103161196D01*
X135448084Y-103110764D01*
X135433312Y-103041321D01*
X135458428Y-102974916D01*
X135485780Y-102948309D01*
X135553383Y-102900088D01*
X135664860Y-102820573D01*
X135693094Y-102792438D01*
X135819435Y-102666537D01*
X135823096Y-102662889D01*
X135882594Y-102580089D01*
X135950435Y-102485677D01*
X135953453Y-102481477D01*
X136004625Y-102377939D01*
X136050136Y-102285853D01*
X136050137Y-102285851D01*
X136052430Y-102281211D01*
X136107983Y-102098365D01*
X136115865Y-102072423D01*
X136115865Y-102072421D01*
X136117370Y-102067469D01*
X136146529Y-101845990D01*
X136148156Y-101779400D01*
X136129852Y-101556761D01*
X136075431Y-101340102D01*
X135986354Y-101135240D01*
X135865014Y-100947677D01*
X135714670Y-100782451D01*
X135710619Y-100779252D01*
X135710615Y-100779248D01*
X135543414Y-100647200D01*
X135543410Y-100647198D01*
X135539359Y-100643998D01*
X135497569Y-100620929D01*
X135447598Y-100570497D01*
X135432826Y-100501054D01*
X135457942Y-100434648D01*
X135485294Y-100408041D01*
X135660328Y-100283192D01*
X135668200Y-100276539D01*
X135819052Y-100126212D01*
X135825730Y-100118365D01*
X135950003Y-99945420D01*
X135955313Y-99936583D01*
X136049670Y-99745667D01*
X136053469Y-99736072D01*
X136115377Y-99532310D01*
X136117555Y-99522237D01*
X136118986Y-99511362D01*
X136116775Y-99497178D01*
X136103617Y-99493400D01*
X133468225Y-99493400D01*
X133454694Y-99497373D01*
X133453257Y-99507366D01*
X133483565Y-99641846D01*
X133486645Y-99651675D01*
X133566770Y-99849003D01*
X133571413Y-99858194D01*
X133682694Y-100039788D01*
X133688777Y-100048099D01*
X133828213Y-100209067D01*
X133835580Y-100216283D01*
X133999434Y-100352316D01*
X134007881Y-100358231D01*
X134076969Y-100398603D01*
X134125693Y-100450242D01*
X134138764Y-100520025D01*
X134112033Y-100585796D01*
X134071584Y-100619152D01*
X134058607Y-100625907D01*
X134054474Y-100629010D01*
X134054471Y-100629012D01*
X133909538Y-100737831D01*
X133879965Y-100760035D01*
X133725629Y-100921538D01*
X133722715Y-100925810D01*
X133722714Y-100925811D01*
X133699666Y-100959598D01*
X133599743Y-101106080D01*
X133505688Y-101308705D01*
X133445989Y-101523970D01*
X133422251Y-101746095D01*
X133422548Y-101751248D01*
X133422548Y-101751251D01*
X133427937Y-101844707D01*
X133435110Y-101969115D01*
X133436247Y-101974161D01*
X133436248Y-101974167D01*
X133454817Y-102056562D01*
X133484222Y-102187039D01*
X133522461Y-102281211D01*
X133565833Y-102388023D01*
X133568266Y-102394016D01*
X133684987Y-102584488D01*
X133831250Y-102753338D01*
X134003126Y-102896032D01*
X134016745Y-102903990D01*
X134076445Y-102938876D01*
X134125169Y-102990514D01*
X134138240Y-103060297D01*
X134111509Y-103126069D01*
X134071055Y-103159427D01*
X134058607Y-103165907D01*
X134054474Y-103169010D01*
X134054471Y-103169012D01*
X133892643Y-103290516D01*
X133879965Y-103300035D01*
X133725629Y-103461538D01*
X133695363Y-103505907D01*
X133640455Y-103550907D01*
X133591277Y-103560900D01*
X132542751Y-103560900D01*
X132525218Y-103559674D01*
X132516224Y-103558410D01*
X132505821Y-103556948D01*
X132505818Y-103556948D01*
X132501913Y-103556399D01*
X132493771Y-103556285D01*
X132484563Y-103556156D01*
X132484556Y-103556156D01*
X132480600Y-103556101D01*
X132476143Y-103556601D01*
X132469180Y-103557186D01*
X132331083Y-103564941D01*
X132170631Y-103573952D01*
X131864561Y-103625956D01*
X131566237Y-103711901D01*
X131562969Y-103713255D01*
X131562968Y-103713255D01*
X131282680Y-103829354D01*
X131282675Y-103829356D01*
X131279412Y-103830708D01*
X131007693Y-103980882D01*
X130754497Y-104160535D01*
X130523007Y-104367407D01*
X130520662Y-104370031D01*
X130475061Y-104421059D01*
X130316135Y-104598897D01*
X130136482Y-104852093D01*
X130091205Y-104934016D01*
X130009452Y-105081937D01*
X129986308Y-105123812D01*
X129984956Y-105127075D01*
X129984954Y-105127080D01*
X129896231Y-105341277D01*
X129867501Y-105410637D01*
X129781556Y-105708961D01*
X129729552Y-106015031D01*
X129729354Y-106018560D01*
X129716493Y-106247565D01*
X129692703Y-106314457D01*
X129636524Y-106357868D01*
X129590691Y-106366500D01*
X119917587Y-106366500D01*
X119843528Y-106342437D01*
X119837098Y-106337765D01*
X119837091Y-106337761D01*
X119831752Y-106333882D01*
X119825724Y-106331198D01*
X119825722Y-106331197D01*
X119663319Y-106258891D01*
X119663318Y-106258891D01*
X119657288Y-106256206D01*
X119563888Y-106236353D01*
X119476944Y-106217872D01*
X119476939Y-106217872D01*
X119470487Y-106216500D01*
X119279513Y-106216500D01*
X119273061Y-106217872D01*
X119273056Y-106217872D01*
X119186113Y-106236353D01*
X119092712Y-106256206D01*
X119086682Y-106258891D01*
X119086681Y-106258891D01*
X118924278Y-106331197D01*
X118924276Y-106331198D01*
X118918248Y-106333882D01*
X118912907Y-106337762D01*
X118912906Y-106337763D01*
X118906571Y-106342366D01*
X118763747Y-106446134D01*
X118759326Y-106451044D01*
X118759325Y-106451045D01*
X118676465Y-106543071D01*
X118635960Y-106588056D01*
X118540473Y-106753444D01*
X118535757Y-106767960D01*
X118489333Y-106910836D01*
X118449259Y-106969441D01*
X118383863Y-106997078D01*
X118313906Y-106984971D01*
X118261600Y-106936965D01*
X118243500Y-106871899D01*
X118243500Y-106276866D01*
X118236745Y-106214684D01*
X118185615Y-106078295D01*
X118098261Y-105961739D01*
X117981705Y-105874385D01*
X117969132Y-105869672D01*
X117863203Y-105829960D01*
X117806439Y-105787318D01*
X117781739Y-105720756D01*
X117796947Y-105651408D01*
X117818493Y-105622727D01*
X117919435Y-105522137D01*
X117923096Y-105518489D01*
X117982594Y-105435689D01*
X118050435Y-105341277D01*
X118053453Y-105337077D01*
X118060649Y-105322518D01*
X118150136Y-105141453D01*
X118150137Y-105141451D01*
X118152430Y-105136811D01*
X118214044Y-104934016D01*
X118215865Y-104928023D01*
X118215865Y-104928021D01*
X118217370Y-104923069D01*
X118246529Y-104701590D01*
X118248156Y-104635000D01*
X118229852Y-104412361D01*
X118175431Y-104195702D01*
X118086354Y-103990840D01*
X117994403Y-103848705D01*
X117967822Y-103807617D01*
X117967820Y-103807614D01*
X117965014Y-103803277D01*
X117814670Y-103638051D01*
X117810619Y-103634852D01*
X117810615Y-103634848D01*
X117643414Y-103502800D01*
X117643410Y-103502798D01*
X117639359Y-103499598D01*
X117598053Y-103476796D01*
X117548084Y-103426364D01*
X117533312Y-103356921D01*
X117558428Y-103290516D01*
X117585780Y-103263909D01*
X117637701Y-103226874D01*
X117764860Y-103136173D01*
X117775000Y-103126069D01*
X117919435Y-102982137D01*
X117923096Y-102978489D01*
X117944783Y-102948309D01*
X118050435Y-102801277D01*
X118053453Y-102797077D01*
X118117970Y-102666537D01*
X118150136Y-102601453D01*
X118150137Y-102601451D01*
X118152430Y-102596811D01*
X118214044Y-102394016D01*
X118215865Y-102388023D01*
X118215865Y-102388021D01*
X118217370Y-102383069D01*
X118246529Y-102161590D01*
X118248156Y-102095000D01*
X118229852Y-101872361D01*
X118175431Y-101655702D01*
X118086354Y-101450840D01*
X117994403Y-101308705D01*
X117967822Y-101267617D01*
X117967820Y-101267614D01*
X117965014Y-101263277D01*
X117814670Y-101098051D01*
X117810619Y-101094852D01*
X117810615Y-101094848D01*
X117643414Y-100962800D01*
X117643410Y-100962798D01*
X117639359Y-100959598D01*
X117443789Y-100851638D01*
X117438920Y-100849914D01*
X117438916Y-100849912D01*
X117238087Y-100778795D01*
X117238083Y-100778794D01*
X117233212Y-100777069D01*
X117228119Y-100776162D01*
X117228116Y-100776161D01*
X117018373Y-100738800D01*
X117018367Y-100738799D01*
X117013284Y-100737894D01*
X116939452Y-100736992D01*
X116795081Y-100735228D01*
X116795079Y-100735228D01*
X116789911Y-100735165D01*
X116569091Y-100768955D01*
X116356756Y-100838357D01*
X116158607Y-100941507D01*
X116154474Y-100944610D01*
X116154471Y-100944612D01*
X116130247Y-100962800D01*
X115979965Y-101075635D01*
X115825629Y-101237138D01*
X115699743Y-101421680D01*
X115605688Y-101624305D01*
X115545989Y-101839570D01*
X115522251Y-102061695D01*
X115522548Y-102066848D01*
X115522548Y-102066851D01*
X115528011Y-102161590D01*
X115535110Y-102284715D01*
X115536247Y-102289761D01*
X115536248Y-102289767D01*
X115556119Y-102377939D01*
X115584222Y-102502639D01*
X115668266Y-102709616D01*
X115784987Y-102900088D01*
X115931250Y-103068938D01*
X116103126Y-103211632D01*
X116134349Y-103229877D01*
X116176445Y-103254476D01*
X116225169Y-103306114D01*
X116238240Y-103375897D01*
X116211509Y-103441669D01*
X116171055Y-103475027D01*
X116158607Y-103481507D01*
X116154474Y-103484610D01*
X116154471Y-103484612D01*
X115993053Y-103605808D01*
X115979965Y-103615635D01*
X115976393Y-103619373D01*
X115841963Y-103760046D01*
X115825629Y-103777138D01*
X115699743Y-103961680D01*
X115684003Y-103995590D01*
X115608383Y-104158500D01*
X115605688Y-104164305D01*
X115545989Y-104379570D01*
X115522251Y-104601695D01*
X114108500Y-104601695D01*
X114108500Y-99563534D01*
X127218900Y-99563534D01*
X127225655Y-99625716D01*
X127276785Y-99762105D01*
X127364139Y-99878661D01*
X127480695Y-99966015D01*
X127617084Y-100017145D01*
X127679266Y-100023900D01*
X129475534Y-100023900D01*
X129537716Y-100017145D01*
X129674105Y-99966015D01*
X129790661Y-99878661D01*
X129878015Y-99762105D01*
X129929145Y-99625716D01*
X129935900Y-99563534D01*
X129935900Y-98973583D01*
X133449389Y-98973583D01*
X133450912Y-98982007D01*
X133463292Y-98985400D01*
X134512885Y-98985400D01*
X134528124Y-98980925D01*
X134529329Y-98979535D01*
X134531000Y-98971852D01*
X134531000Y-98967285D01*
X135039000Y-98967285D01*
X135043475Y-98982524D01*
X135044865Y-98983729D01*
X135052548Y-98985400D01*
X136103344Y-98985400D01*
X136116875Y-98981427D01*
X136118180Y-98972347D01*
X136076214Y-98805275D01*
X136072894Y-98795524D01*
X135987972Y-98600214D01*
X135983105Y-98591139D01*
X135867426Y-98412326D01*
X135861136Y-98404157D01*
X135717806Y-98246640D01*
X135710273Y-98239615D01*
X135543139Y-98107622D01*
X135534552Y-98101917D01*
X135497116Y-98081251D01*
X135447146Y-98030819D01*
X135432374Y-97961376D01*
X135457490Y-97894971D01*
X135484842Y-97868364D01*
X135660327Y-97743192D01*
X135668200Y-97736539D01*
X135819052Y-97586212D01*
X135825730Y-97578365D01*
X135950003Y-97405420D01*
X135955313Y-97396583D01*
X136049670Y-97205667D01*
X136053469Y-97196072D01*
X136115377Y-96992310D01*
X136117555Y-96982237D01*
X136118986Y-96971362D01*
X136116775Y-96957178D01*
X136103617Y-96953400D01*
X135057115Y-96953400D01*
X135041876Y-96957875D01*
X135040671Y-96959265D01*
X135039000Y-96966948D01*
X135039000Y-98967285D01*
X134531000Y-98967285D01*
X134531000Y-96971515D01*
X134526525Y-96956276D01*
X134525135Y-96955071D01*
X134517452Y-96953400D01*
X133468225Y-96953400D01*
X133454694Y-96957373D01*
X133453257Y-96967366D01*
X133483565Y-97101846D01*
X133486645Y-97111675D01*
X133566770Y-97309003D01*
X133571413Y-97318194D01*
X133682694Y-97499788D01*
X133688777Y-97508099D01*
X133828213Y-97669067D01*
X133835580Y-97676283D01*
X133999434Y-97812316D01*
X134007881Y-97818231D01*
X134077479Y-97858901D01*
X134126203Y-97910540D01*
X134139274Y-97980323D01*
X134112543Y-98046094D01*
X134072087Y-98079453D01*
X134063462Y-98083942D01*
X134054738Y-98089436D01*
X133884433Y-98217305D01*
X133876726Y-98224148D01*
X133729590Y-98378117D01*
X133723104Y-98386127D01*
X133603098Y-98562049D01*
X133598000Y-98571023D01*
X133508338Y-98764183D01*
X133504775Y-98773870D01*
X133449389Y-98973583D01*
X129935900Y-98973583D01*
X129935900Y-97767266D01*
X129929145Y-97705084D01*
X129878015Y-97568695D01*
X129790661Y-97452139D01*
X129674105Y-97364785D01*
X129555087Y-97320167D01*
X129498323Y-97277525D01*
X129473623Y-97210964D01*
X129488830Y-97141615D01*
X129510377Y-97112935D01*
X129611452Y-97012212D01*
X129618130Y-97004365D01*
X129742403Y-96831420D01*
X129747713Y-96822583D01*
X129842070Y-96631667D01*
X129845869Y-96622072D01*
X129907777Y-96418310D01*
X129909955Y-96408237D01*
X129911386Y-96397362D01*
X129909175Y-96383178D01*
X129896017Y-96379400D01*
X127260625Y-96379400D01*
X127247094Y-96383373D01*
X127245657Y-96393366D01*
X127275965Y-96527846D01*
X127279045Y-96537675D01*
X127359170Y-96735003D01*
X127363813Y-96744194D01*
X127475094Y-96925788D01*
X127481177Y-96934099D01*
X127620613Y-97095067D01*
X127627977Y-97102279D01*
X127632922Y-97106385D01*
X127672556Y-97165289D01*
X127674053Y-97236270D01*
X127636937Y-97296792D01*
X127596664Y-97321310D01*
X127489105Y-97361632D01*
X127489104Y-97361633D01*
X127480695Y-97364785D01*
X127364139Y-97452139D01*
X127276785Y-97568695D01*
X127225655Y-97705084D01*
X127218900Y-97767266D01*
X127218900Y-99563534D01*
X114108500Y-99563534D01*
X114108500Y-95859583D01*
X127241789Y-95859583D01*
X127243312Y-95868007D01*
X127255692Y-95871400D01*
X128305285Y-95871400D01*
X128320524Y-95866925D01*
X128321729Y-95865535D01*
X128323400Y-95857852D01*
X128323400Y-95853285D01*
X128831400Y-95853285D01*
X128835875Y-95868524D01*
X128837265Y-95869729D01*
X128844948Y-95871400D01*
X129895744Y-95871400D01*
X129909275Y-95867427D01*
X129910580Y-95858347D01*
X129868614Y-95691275D01*
X129865294Y-95681524D01*
X129780372Y-95486214D01*
X129775505Y-95477139D01*
X129659826Y-95298326D01*
X129653536Y-95290157D01*
X129510206Y-95132640D01*
X129502673Y-95125615D01*
X129335539Y-94993622D01*
X129326952Y-94987917D01*
X129140517Y-94884999D01*
X129131105Y-94880769D01*
X128930359Y-94809680D01*
X128920388Y-94807046D01*
X128849237Y-94794372D01*
X128835940Y-94795832D01*
X128831400Y-94810389D01*
X128831400Y-95853285D01*
X128323400Y-95853285D01*
X128323400Y-94808502D01*
X128319482Y-94795158D01*
X128305206Y-94793171D01*
X128266724Y-94799060D01*
X128256688Y-94801451D01*
X128054268Y-94867612D01*
X128044759Y-94871609D01*
X127855863Y-94969942D01*
X127847138Y-94975436D01*
X127676833Y-95103305D01*
X127669126Y-95110148D01*
X127521990Y-95264117D01*
X127515504Y-95272127D01*
X127395498Y-95448049D01*
X127390400Y-95457023D01*
X127300738Y-95650183D01*
X127297175Y-95659870D01*
X127241789Y-95859583D01*
X114108500Y-95859583D01*
X114108500Y-94741381D01*
X116524160Y-94741381D01*
X116524237Y-94742470D01*
X116526698Y-94746206D01*
X116800632Y-94956404D01*
X116806262Y-94960259D01*
X117106591Y-95142862D01*
X117112593Y-95146080D01*
X117430897Y-95295184D01*
X117437202Y-95297732D01*
X117769743Y-95411587D01*
X117776313Y-95413446D01*
X118119183Y-95490714D01*
X118125912Y-95491853D01*
X118475143Y-95531643D01*
X118481933Y-95532046D01*
X118833419Y-95533886D01*
X118840220Y-95533554D01*
X119189853Y-95497423D01*
X119196581Y-95496357D01*
X119540274Y-95422676D01*
X119546822Y-95420897D01*
X119880549Y-95310527D01*
X119886891Y-95308041D01*
X120206718Y-95162288D01*
X120212777Y-95159121D01*
X120514995Y-94979676D01*
X120520659Y-94975884D01*
X120801732Y-94764849D01*
X120806958Y-94760464D01*
X120816613Y-94751428D01*
X120824682Y-94737750D01*
X120824654Y-94737024D01*
X120819512Y-94728723D01*
X118687810Y-92597020D01*
X118673869Y-92589408D01*
X118672034Y-92589539D01*
X118665420Y-92593790D01*
X116531774Y-94727437D01*
X116524160Y-94741381D01*
X114108500Y-94741381D01*
X114108500Y-92278250D01*
X114110246Y-92257345D01*
X114112770Y-92242344D01*
X114112770Y-92242341D01*
X114113576Y-92237552D01*
X114113729Y-92225000D01*
X114113039Y-92220184D01*
X114113039Y-92220178D01*
X114112560Y-92216832D01*
X115362333Y-92216832D01*
X115380117Y-92567893D01*
X115380827Y-92574649D01*
X115436420Y-92921723D01*
X115437859Y-92928378D01*
X115530608Y-93267410D01*
X115532757Y-93273871D01*
X115661581Y-93600912D01*
X115664412Y-93607095D01*
X115827803Y-93918310D01*
X115831286Y-93924152D01*
X116027330Y-94215896D01*
X116031433Y-94221340D01*
X116151425Y-94363836D01*
X116164164Y-94372279D01*
X116174608Y-94366181D01*
X118302980Y-92237810D01*
X118309357Y-92226131D01*
X119039408Y-92226131D01*
X119039539Y-92227966D01*
X119043790Y-92234580D01*
X121174009Y-94364798D01*
X121187605Y-94372223D01*
X121197218Y-94365522D01*
X121297518Y-94248912D01*
X121301676Y-94243514D01*
X121500762Y-93953840D01*
X121504310Y-93948029D01*
X121670942Y-93638559D01*
X121673849Y-93632381D01*
X121806090Y-93306713D01*
X121808304Y-93300283D01*
X121904598Y-92962237D01*
X121906105Y-92955607D01*
X121965332Y-92609118D01*
X121966112Y-92602378D01*
X121987668Y-92249925D01*
X121987784Y-92246323D01*
X121987853Y-92226819D01*
X121987761Y-92223194D01*
X121968666Y-91870615D01*
X121967931Y-91863849D01*
X121911130Y-91516985D01*
X121909663Y-91510313D01*
X121815736Y-91171627D01*
X121813562Y-91165163D01*
X121683598Y-90838578D01*
X121680742Y-90832398D01*
X121516269Y-90521763D01*
X121512769Y-90515937D01*
X121315697Y-90224862D01*
X121311590Y-90219453D01*
X121198565Y-90086179D01*
X121185740Y-90077743D01*
X121175416Y-90083795D01*
X119047020Y-92212190D01*
X119039408Y-92226131D01*
X118309357Y-92226131D01*
X118310592Y-92223869D01*
X118310461Y-92222034D01*
X118306210Y-92215420D01*
X116175992Y-90085203D01*
X116162455Y-90077811D01*
X116152753Y-90084599D01*
X116045430Y-90210257D01*
X116041296Y-90215664D01*
X115843215Y-90506041D01*
X115839697Y-90511851D01*
X115674134Y-90821922D01*
X115671259Y-90828087D01*
X115540155Y-91154218D01*
X115537962Y-91160658D01*
X115442846Y-91499044D01*
X115441363Y-91505679D01*
X115383350Y-91852354D01*
X115382591Y-91859126D01*
X115362357Y-92210037D01*
X115362333Y-92216832D01*
X114112560Y-92216832D01*
X114111387Y-92208644D01*
X114110234Y-92185284D01*
X114117364Y-92021996D01*
X114125637Y-91832498D01*
X114126595Y-91821549D01*
X114177157Y-91437490D01*
X114179066Y-91426664D01*
X114262910Y-91048472D01*
X114265755Y-91037855D01*
X114343267Y-90792017D01*
X114382241Y-90668408D01*
X114385997Y-90658087D01*
X114402085Y-90619248D01*
X114534246Y-90300181D01*
X114538879Y-90290246D01*
X114717759Y-89946622D01*
X114723249Y-89937113D01*
X114866750Y-89711862D01*
X116524950Y-89711862D01*
X116524986Y-89712704D01*
X116530037Y-89720826D01*
X118662190Y-91852980D01*
X118676131Y-91860592D01*
X118677966Y-91860461D01*
X118684580Y-91856210D01*
X120817798Y-89722991D01*
X120825412Y-89709047D01*
X120825344Y-89708089D01*
X120820836Y-89701272D01*
X120819418Y-89700065D01*
X120539813Y-89487064D01*
X120534187Y-89483240D01*
X120233214Y-89301681D01*
X120227202Y-89298484D01*
X119908370Y-89150487D01*
X119902070Y-89147967D01*
X119569129Y-89035273D01*
X119562551Y-89033437D01*
X119219417Y-88957367D01*
X119212678Y-88956251D01*
X118863310Y-88917680D01*
X118856529Y-88917301D01*
X118505015Y-88916687D01*
X118498242Y-88917042D01*
X118148720Y-88954395D01*
X118142010Y-88955482D01*
X117798586Y-89030361D01*
X117792011Y-89032172D01*
X117458683Y-89143702D01*
X117452361Y-89146205D01*
X117133034Y-89293079D01*
X117126991Y-89296265D01*
X116825401Y-89476763D01*
X116819755Y-89480571D01*
X116539408Y-89692596D01*
X116534211Y-89696987D01*
X116532972Y-89698155D01*
X116524950Y-89711862D01*
X114866750Y-89711862D01*
X114931383Y-89610408D01*
X114937687Y-89601404D01*
X115121128Y-89362339D01*
X115173516Y-89294066D01*
X115180579Y-89285649D01*
X115442284Y-89000049D01*
X115450053Y-88992280D01*
X115491398Y-88954395D01*
X115735652Y-88730577D01*
X115744069Y-88723513D01*
X116051404Y-88487687D01*
X116060408Y-88481383D01*
X116387113Y-88273249D01*
X116396622Y-88267759D01*
X116740246Y-88088879D01*
X116750181Y-88084246D01*
X117108094Y-87935994D01*
X117118408Y-87932241D01*
X117465647Y-87822757D01*
X117487855Y-87815755D01*
X117498472Y-87812910D01*
X117876664Y-87729066D01*
X117887490Y-87727157D01*
X118271549Y-87676595D01*
X118282498Y-87675637D01*
X118631554Y-87660397D01*
X118656429Y-87661777D01*
X118668724Y-87663691D01*
X118677626Y-87662527D01*
X118677628Y-87662527D01*
X118696399Y-87660072D01*
X118700286Y-87659564D01*
X118716621Y-87658500D01*
X134057373Y-87658500D01*
X134125494Y-87678502D01*
G37*
%TD.AperFunction*%
%TD*%
M02*
