%TF.GenerationSoftware,KiCad,Pcbnew,(6.0.9)*%
%TF.CreationDate,2022-11-19T08:59:57-07:00*%
%TF.ProjectId,AQM,41514d2e-6b69-4636-9164-5f7063625858,rev?*%
%TF.SameCoordinates,Original*%
%TF.FileFunction,Drillmap*%
%TF.FilePolarity,Positive*%
%FSLAX45Y45*%
G04 Gerber Fmt 4.5, Leading zero omitted, Abs format (unit mm)*
G04 Created by KiCad (PCBNEW (6.0.9)) date 2022-11-19 08:59:57*
%MOMM*%
%LPD*%
G01*
G04 APERTURE LIST*
%ADD10C,0.100000*%
%ADD11C,0.200000*%
G04 APERTURE END LIST*
D10*
X14500000Y-9007500D02*
X9500000Y-9007500D01*
X14500000Y-9007500D02*
G75*
G03*
X15007500Y-8500000I0J507500D01*
G01*
X8992500Y-8500000D02*
G75*
G03*
X9500000Y-9007500I507500J0D01*
G01*
X8992500Y-8500000D02*
X8992500Y-4500000D01*
X15007500Y-4500000D02*
X15007500Y-8500000D01*
X9500000Y-3992500D02*
G75*
G03*
X8992500Y-4500000I0J-507500D01*
G01*
X9500000Y-3992500D02*
X14500000Y-3992500D01*
X15007500Y-4500000D02*
G75*
G03*
X14500000Y-3992500I-507500J0D01*
G01*
D11*
X9245119Y-9322976D02*
X9245119Y-9122976D01*
X9292738Y-9122976D01*
X9321310Y-9132500D01*
X9340357Y-9151548D01*
X9349881Y-9170595D01*
X9359405Y-9208690D01*
X9359405Y-9237262D01*
X9349881Y-9275357D01*
X9340357Y-9294405D01*
X9321310Y-9313452D01*
X9292738Y-9322976D01*
X9245119Y-9322976D01*
X9445119Y-9322976D02*
X9445119Y-9189643D01*
X9445119Y-9227738D02*
X9454643Y-9208690D01*
X9464167Y-9199167D01*
X9483214Y-9189643D01*
X9502262Y-9189643D01*
X9568929Y-9322976D02*
X9568929Y-9189643D01*
X9568929Y-9122976D02*
X9559405Y-9132500D01*
X9568929Y-9142024D01*
X9578452Y-9132500D01*
X9568929Y-9122976D01*
X9568929Y-9142024D01*
X9692738Y-9322976D02*
X9673690Y-9313452D01*
X9664167Y-9294405D01*
X9664167Y-9122976D01*
X9797500Y-9322976D02*
X9778452Y-9313452D01*
X9768929Y-9294405D01*
X9768929Y-9122976D01*
X10026071Y-9322976D02*
X10026071Y-9122976D01*
X10092738Y-9265833D01*
X10159405Y-9122976D01*
X10159405Y-9322976D01*
X10340357Y-9322976D02*
X10340357Y-9218214D01*
X10330833Y-9199167D01*
X10311786Y-9189643D01*
X10273690Y-9189643D01*
X10254643Y-9199167D01*
X10340357Y-9313452D02*
X10321310Y-9322976D01*
X10273690Y-9322976D01*
X10254643Y-9313452D01*
X10245119Y-9294405D01*
X10245119Y-9275357D01*
X10254643Y-9256310D01*
X10273690Y-9246786D01*
X10321310Y-9246786D01*
X10340357Y-9237262D01*
X10435595Y-9189643D02*
X10435595Y-9389643D01*
X10435595Y-9199167D02*
X10454643Y-9189643D01*
X10492738Y-9189643D01*
X10511786Y-9199167D01*
X10521310Y-9208690D01*
X10530833Y-9227738D01*
X10530833Y-9284881D01*
X10521310Y-9303929D01*
X10511786Y-9313452D01*
X10492738Y-9322976D01*
X10454643Y-9322976D01*
X10435595Y-9313452D01*
X10616548Y-9303929D02*
X10626071Y-9313452D01*
X10616548Y-9322976D01*
X10607024Y-9313452D01*
X10616548Y-9303929D01*
X10616548Y-9322976D01*
X10616548Y-9199167D02*
X10626071Y-9208690D01*
X10616548Y-9218214D01*
X10607024Y-9208690D01*
X10616548Y-9199167D01*
X10616548Y-9218214D01*
M02*
