%TF.GenerationSoftware,KiCad,Pcbnew,(6.0.9)*%
%TF.CreationDate,2022-11-23T22:08:25-07:00*%
%TF.ProjectId,AQM,41514d2e-6b69-4636-9164-5f7063625858,rev?*%
%TF.SameCoordinates,Original*%
%TF.FileFunction,Paste,Top*%
%TF.FilePolarity,Positive*%
%FSLAX46Y46*%
G04 Gerber Fmt 4.6, Leading zero omitted, Abs format (unit mm)*
G04 Created by KiCad (PCBNEW (6.0.9)) date 2022-11-23 22:08:25*
%MOMM*%
%LPD*%
G01*
G04 APERTURE LIST*
G04 Aperture macros list*
%AMRoundRect*
0 Rectangle with rounded corners*
0 $1 Rounding radius*
0 $2 $3 $4 $5 $6 $7 $8 $9 X,Y pos of 4 corners*
0 Add a 4 corners polygon primitive as box body*
4,1,4,$2,$3,$4,$5,$6,$7,$8,$9,$2,$3,0*
0 Add four circle primitives for the rounded corners*
1,1,$1+$1,$2,$3*
1,1,$1+$1,$4,$5*
1,1,$1+$1,$6,$7*
1,1,$1+$1,$8,$9*
0 Add four rect primitives between the rounded corners*
20,1,$1+$1,$2,$3,$4,$5,0*
20,1,$1+$1,$4,$5,$6,$7,0*
20,1,$1+$1,$6,$7,$8,$9,0*
20,1,$1+$1,$8,$9,$2,$3,0*%
G04 Aperture macros list end*
%ADD10RoundRect,0.250000X0.250000X0.475000X-0.250000X0.475000X-0.250000X-0.475000X0.250000X-0.475000X0*%
%ADD11RoundRect,0.250000X0.475000X-0.250000X0.475000X0.250000X-0.475000X0.250000X-0.475000X-0.250000X0*%
%ADD12RoundRect,0.250000X0.350000X0.650000X-0.350000X0.650000X-0.350000X-0.650000X0.350000X-0.650000X0*%
%ADD13RoundRect,0.150000X0.150000X0.625000X-0.150000X0.625000X-0.150000X-0.625000X0.150000X-0.625000X0*%
%ADD14RoundRect,0.250000X-0.262500X-0.450000X0.262500X-0.450000X0.262500X0.450000X-0.262500X0.450000X0*%
%ADD15RoundRect,0.250000X-0.475000X0.250000X-0.475000X-0.250000X0.475000X-0.250000X0.475000X0.250000X0*%
%ADD16RoundRect,0.250000X0.450000X-0.262500X0.450000X0.262500X-0.450000X0.262500X-0.450000X-0.262500X0*%
%ADD17RoundRect,0.250000X0.262500X0.450000X-0.262500X0.450000X-0.262500X-0.450000X0.262500X-0.450000X0*%
%ADD18RoundRect,0.150000X0.587500X0.150000X-0.587500X0.150000X-0.587500X-0.150000X0.587500X-0.150000X0*%
G04 APERTURE END LIST*
D10*
%TO.C,C17*%
X126941200Y-117252800D03*
X128841200Y-117252800D03*
%TD*%
%TO.C,C7*%
X157888600Y-125812600D03*
X159788600Y-125812600D03*
%TD*%
D11*
%TO.C,C1*%
X156425000Y-96625000D03*
X156425000Y-98525000D03*
%TD*%
D12*
%TO.C,J1*%
X157675000Y-132625000D03*
X163275000Y-132625000D03*
D13*
X158975000Y-130100000D03*
X159975000Y-130100000D03*
X160975000Y-130100000D03*
X161975000Y-130100000D03*
%TD*%
D12*
%TO.C,J5*%
X154875000Y-132625000D03*
X149275000Y-132625000D03*
D13*
X150575000Y-130100000D03*
X151575000Y-130100000D03*
X152575000Y-130100000D03*
X153575000Y-130100000D03*
%TD*%
D10*
%TO.C,C10*%
X141038200Y-127793800D03*
X142938200Y-127793800D03*
%TD*%
D14*
%TO.C,R4*%
X128676700Y-121799400D03*
X126851700Y-121799400D03*
%TD*%
D12*
%TO.C,J2*%
X146475000Y-132625000D03*
X140875000Y-132625000D03*
D13*
X142175000Y-130100000D03*
X143175000Y-130100000D03*
X144175000Y-130100000D03*
X145175000Y-130100000D03*
%TD*%
D15*
%TO.C,C6*%
X162500000Y-122600000D03*
X162500000Y-120700000D03*
%TD*%
D10*
%TO.C,C11*%
X124375800Y-127793800D03*
X126275800Y-127793800D03*
%TD*%
%TO.C,C18*%
X126925000Y-115025000D03*
X128825000Y-115025000D03*
%TD*%
D12*
%TO.C,J3*%
X129750000Y-132625000D03*
X124150000Y-132625000D03*
D13*
X125450000Y-130100000D03*
X126450000Y-130100000D03*
X127450000Y-130100000D03*
X128450000Y-130100000D03*
%TD*%
D16*
%TO.C,R6*%
X130455000Y-106932500D03*
X130455000Y-108757500D03*
%TD*%
D14*
%TO.C,R2*%
X160662500Y-120575000D03*
X158837500Y-120575000D03*
%TD*%
D10*
%TO.C,C14*%
X124375800Y-125812600D03*
X126275800Y-125812600D03*
%TD*%
D11*
%TO.C,C2*%
X158400000Y-96625000D03*
X158400000Y-98525000D03*
%TD*%
D10*
%TO.C,C12*%
X132808600Y-127793800D03*
X134708600Y-127793800D03*
%TD*%
D12*
%TO.C,J4*%
X138075000Y-132625000D03*
X132475000Y-132625000D03*
D13*
X133775000Y-130100000D03*
X134775000Y-130100000D03*
X135775000Y-130100000D03*
X136775000Y-130100000D03*
%TD*%
D16*
%TO.C,R10*%
X130675000Y-112112500D03*
X130675000Y-113937500D03*
%TD*%
D15*
%TO.C,C5*%
X157100000Y-122500000D03*
X157100000Y-120600000D03*
%TD*%
D16*
%TO.C,R9*%
X130634400Y-115578300D03*
X130634400Y-117403300D03*
%TD*%
D10*
%TO.C,C8*%
X141038200Y-125812600D03*
X142938200Y-125812600D03*
%TD*%
%TO.C,C9*%
X157903800Y-127793800D03*
X159803800Y-127793800D03*
%TD*%
D17*
%TO.C,R7*%
X126862500Y-107125000D03*
X128687500Y-107125000D03*
%TD*%
D10*
%TO.C,C13*%
X149521800Y-127793800D03*
X151421800Y-127793800D03*
%TD*%
D17*
%TO.C,R8*%
X119662500Y-102125000D03*
X121487500Y-102125000D03*
%TD*%
D10*
%TO.C,C15*%
X132808600Y-125812600D03*
X134708600Y-125812600D03*
%TD*%
D18*
%TO.C,Q1*%
X123137500Y-106325000D03*
X125012500Y-105375000D03*
X125012500Y-107275000D03*
%TD*%
D14*
%TO.C,R5*%
X129743500Y-119818200D03*
X127918500Y-119818200D03*
%TD*%
D17*
%TO.C,R1*%
X129225000Y-101825000D03*
X131050000Y-101825000D03*
%TD*%
D10*
%TO.C,C16*%
X149521800Y-125793800D03*
X151421800Y-125793800D03*
%TD*%
D15*
%TO.C,C3*%
X156525000Y-93900000D03*
X156525000Y-92000000D03*
%TD*%
D14*
%TO.C,R3*%
X166162500Y-120600000D03*
X164337500Y-120600000D03*
%TD*%
D15*
%TO.C,C4*%
X158525000Y-93905000D03*
X158525000Y-92005000D03*
%TD*%
M02*
