M48
; DRILL file {KiCad (6.0.9)} date Sat 19 Nov 2022 08:58:35 AM MST
; FORMAT={-:-/ absolute / inch / decimal}
; #@! TF.CreationDate,2022-11-19T08:58:35-07:00
; #@! TF.GenerationSoftware,Kicad,Pcbnew,(6.0.9)
; #@! TF.FileFunction,Plated,1,4,PTH
FMAT,2
INCH
; #@! TA.AperFunction,Plated,PTH,ViaDrill
T1C0.0157
; #@! TA.AperFunction,Plated,PTH,ComponentDrill
T2C0.0354
; #@! TA.AperFunction,Plated,PTH,ComponentDrill
T3C0.0394
; #@! TA.AperFunction,Plated,PTH,ComponentDrill
T4C0.0402
; #@! TA.AperFunction,Plated,PTH,ComponentDrill
T5C0.0512
; #@! TA.AperFunction,Plated,PTH,ComponentDrill
T6C0.1260
%
G90
G05
T1
X3.8366Y-2.1484
X3.9508Y-3.2638
X4.002Y-2.93
X4.046Y-3.316
X4.128Y-3.322
X4.184Y-2.928
X4.2372Y-3.2618
X4.2835Y-3.2608
X4.376Y-3.316
X4.46Y-3.322
X4.563Y-3.2589
X4.6211Y-3.2608
X4.7Y-3.324
X4.78Y-3.322
X4.8996Y-3.2608
X4.9508Y-3.2608
X5.036Y-3.32
X5.116Y-3.322
X5.2254Y-3.2618
X5.2854Y-3.2618
X5.366Y-3.318
X5.442Y-3.322
X5.561Y-3.2618
T2
X4.127Y-1.9291
X4.127Y-2.0291
T3
X3.6697Y-2.1602
X3.6697Y-2.2602
X3.6697Y-2.3602
T4
X4.3744Y-1.6478
X4.3744Y-1.7478
X4.3744Y-1.8478
X4.3744Y-1.9478
X4.3744Y-2.0478
X4.3744Y-2.1478
X4.3744Y-2.2478
X4.3744Y-2.3478
X4.3744Y-2.4478
X4.3744Y-2.5478
X4.3744Y-2.6478
X4.3744Y-2.7478
X4.3744Y-2.8478
X5.0744Y-1.6478
X5.0744Y-1.7478
X5.0744Y-1.8478
X5.0744Y-1.9478
X5.0744Y-2.0478
X5.0744Y-2.1478
X5.0744Y-2.2478
X5.0744Y-2.3478
X5.0744Y-2.4478
X5.0744Y-2.5478
X5.0744Y-2.6478
X5.0744Y-2.7478
X5.0744Y-2.8478
T5
X5.4262Y-2.2848
X5.4262Y-2.777
X5.623Y-2.2848
X5.623Y-2.777
T6
X3.7402Y-1.7717
X3.7402Y-3.3465
X5.7087Y-1.7717
X5.7087Y-3.3465
T0
M30
