%TF.GenerationSoftware,KiCad,Pcbnew,(6.0.9)*%
%TF.CreationDate,2022-11-19T08:58:37-07:00*%
%TF.ProjectId,AQM,41514d2e-6b69-4636-9164-5f7063625858,rev?*%
%TF.SameCoordinates,Original*%
%TF.FileFunction,Legend,Bot*%
%TF.FilePolarity,Positive*%
%FSLAX46Y46*%
G04 Gerber Fmt 4.6, Leading zero omitted, Abs format (unit mm)*
G04 Created by KiCad (PCBNEW (6.0.9)) date 2022-11-19 08:58:37*
%MOMM*%
%LPD*%
G01*
G04 APERTURE LIST*
%ADD10C,0.150000*%
%ADD11C,0.120000*%
G04 APERTURE END LIST*
D10*
X124780476Y-78604761D02*
X124637619Y-78652380D01*
X124399523Y-78652380D01*
X124304285Y-78604761D01*
X124256666Y-78557142D01*
X124209047Y-78461904D01*
X124209047Y-78366666D01*
X124256666Y-78271428D01*
X124304285Y-78223809D01*
X124399523Y-78176190D01*
X124590000Y-78128571D01*
X124685238Y-78080952D01*
X124732857Y-78033333D01*
X124780476Y-77938095D01*
X124780476Y-77842857D01*
X124732857Y-77747619D01*
X124685238Y-77700000D01*
X124590000Y-77652380D01*
X124351904Y-77652380D01*
X124209047Y-77700000D01*
X123780476Y-78128571D02*
X123447142Y-78128571D01*
X123304285Y-78652380D02*
X123780476Y-78652380D01*
X123780476Y-77652380D01*
X123304285Y-77652380D01*
X122875714Y-78652380D02*
X122875714Y-77652380D01*
X122304285Y-78652380D01*
X122304285Y-77652380D01*
X121875714Y-78604761D02*
X121732857Y-78652380D01*
X121494761Y-78652380D01*
X121399523Y-78604761D01*
X121351904Y-78557142D01*
X121304285Y-78461904D01*
X121304285Y-78366666D01*
X121351904Y-78271428D01*
X121399523Y-78223809D01*
X121494761Y-78176190D01*
X121685238Y-78128571D01*
X121780476Y-78080952D01*
X121828095Y-78033333D01*
X121875714Y-77938095D01*
X121875714Y-77842857D01*
X121828095Y-77747619D01*
X121780476Y-77700000D01*
X121685238Y-77652380D01*
X121447142Y-77652380D01*
X121304285Y-77700000D01*
X120685238Y-77652380D02*
X120494761Y-77652380D01*
X120399523Y-77700000D01*
X120304285Y-77795238D01*
X120256666Y-77985714D01*
X120256666Y-78319047D01*
X120304285Y-78509523D01*
X120399523Y-78604761D01*
X120494761Y-78652380D01*
X120685238Y-78652380D01*
X120780476Y-78604761D01*
X120875714Y-78509523D01*
X120923333Y-78319047D01*
X120923333Y-77985714D01*
X120875714Y-77795238D01*
X120780476Y-77700000D01*
X120685238Y-77652380D01*
X119256666Y-78652380D02*
X119590000Y-78176190D01*
X119828095Y-78652380D02*
X119828095Y-77652380D01*
X119447142Y-77652380D01*
X119351904Y-77700000D01*
X119304285Y-77747619D01*
X119256666Y-77842857D01*
X119256666Y-77985714D01*
X119304285Y-78080952D01*
X119351904Y-78128571D01*
X119447142Y-78176190D01*
X119828095Y-78176190D01*
X118066190Y-78652380D02*
X118066190Y-77652380D01*
X117685238Y-77652380D01*
X117590000Y-77700000D01*
X117542380Y-77747619D01*
X117494761Y-77842857D01*
X117494761Y-77985714D01*
X117542380Y-78080952D01*
X117590000Y-78128571D01*
X117685238Y-78176190D01*
X118066190Y-78176190D01*
X116875714Y-77652380D02*
X116685238Y-77652380D01*
X116590000Y-77700000D01*
X116494761Y-77795238D01*
X116447142Y-77985714D01*
X116447142Y-78319047D01*
X116494761Y-78509523D01*
X116590000Y-78604761D01*
X116685238Y-78652380D01*
X116875714Y-78652380D01*
X116970952Y-78604761D01*
X117066190Y-78509523D01*
X117113809Y-78319047D01*
X117113809Y-77985714D01*
X117066190Y-77795238D01*
X116970952Y-77700000D01*
X116875714Y-77652380D01*
X116113809Y-77652380D02*
X115875714Y-78652380D01*
X115685238Y-77938095D01*
X115494761Y-78652380D01*
X115256666Y-77652380D01*
X114875714Y-78128571D02*
X114542380Y-78128571D01*
X114399523Y-78652380D02*
X114875714Y-78652380D01*
X114875714Y-77652380D01*
X114399523Y-77652380D01*
X113399523Y-78652380D02*
X113732857Y-78176190D01*
X113970952Y-78652380D02*
X113970952Y-77652380D01*
X113590000Y-77652380D01*
X113494761Y-77700000D01*
X113447142Y-77747619D01*
X113399523Y-77842857D01*
X113399523Y-77985714D01*
X113447142Y-78080952D01*
X113494761Y-78128571D01*
X113590000Y-78176190D01*
X113970952Y-78176190D01*
X99250000Y-79040000D02*
X142020000Y-79040000D01*
X142020000Y-79040000D02*
X142020000Y-88450000D01*
X142020000Y-88450000D02*
X99250000Y-88450000D01*
X99250000Y-88450000D02*
X99250000Y-79040000D01*
X107246133Y-67660780D02*
X107246133Y-66660780D01*
X106817561Y-66756019D02*
X106769942Y-66708400D01*
X106674704Y-66660780D01*
X106436609Y-66660780D01*
X106341371Y-66708400D01*
X106293752Y-66756019D01*
X106246133Y-66851257D01*
X106246133Y-66946495D01*
X106293752Y-67089352D01*
X106865180Y-67660780D01*
X106246133Y-67660780D01*
X105246133Y-67565542D02*
X105293752Y-67613161D01*
X105436609Y-67660780D01*
X105531847Y-67660780D01*
X105674704Y-67613161D01*
X105769942Y-67517923D01*
X105817561Y-67422685D01*
X105865180Y-67232209D01*
X105865180Y-67089352D01*
X105817561Y-66898876D01*
X105769942Y-66803638D01*
X105674704Y-66708400D01*
X105531847Y-66660780D01*
X105436609Y-66660780D01*
X105293752Y-66708400D01*
X105246133Y-66756019D01*
X104055657Y-67660780D02*
X104055657Y-66660780D01*
X103674704Y-66660780D01*
X103579466Y-66708400D01*
X103531847Y-66756019D01*
X103484228Y-66851257D01*
X103484228Y-66994114D01*
X103531847Y-67089352D01*
X103579466Y-67136971D01*
X103674704Y-67184590D01*
X104055657Y-67184590D01*
X103055657Y-66660780D02*
X103055657Y-67470304D01*
X103008038Y-67565542D01*
X102960419Y-67613161D01*
X102865180Y-67660780D01*
X102674704Y-67660780D01*
X102579466Y-67613161D01*
X102531847Y-67565542D01*
X102484228Y-67470304D01*
X102484228Y-66660780D01*
X101531847Y-67660780D02*
X102008038Y-67660780D01*
X102008038Y-66660780D01*
X100722323Y-67660780D02*
X101198514Y-67660780D01*
X101198514Y-66660780D01*
X100388990Y-67279828D02*
X99627085Y-67279828D01*
X99150895Y-66660780D02*
X99150895Y-67470304D01*
X99103276Y-67565542D01*
X99055657Y-67613161D01*
X98960419Y-67660780D01*
X98769942Y-67660780D01*
X98674704Y-67613161D01*
X98627085Y-67565542D01*
X98579466Y-67470304D01*
X98579466Y-66660780D01*
X98103276Y-67660780D02*
X98103276Y-66660780D01*
X97722323Y-66660780D01*
X97627085Y-66708400D01*
X97579466Y-66756019D01*
X97531847Y-66851257D01*
X97531847Y-66994114D01*
X97579466Y-67089352D01*
X97627085Y-67136971D01*
X97722323Y-67184590D01*
X98103276Y-67184590D01*
X97707200Y-67919600D02*
X108032800Y-67919600D01*
X108032800Y-67919600D02*
X108032800Y-75554000D01*
X108032800Y-75554000D02*
X97707200Y-75554000D01*
X97707200Y-75554000D02*
X97707200Y-67919600D01*
%TO.C,JP3*%
X100198133Y-74280780D02*
X100198133Y-74995066D01*
X100245752Y-75137923D01*
X100340990Y-75233161D01*
X100483847Y-75280780D01*
X100579085Y-75280780D01*
X99721942Y-75280780D02*
X99721942Y-74280780D01*
X99340990Y-74280780D01*
X99245752Y-74328400D01*
X99198133Y-74376019D01*
X99150514Y-74471257D01*
X99150514Y-74614114D01*
X99198133Y-74709352D01*
X99245752Y-74756971D01*
X99340990Y-74804590D01*
X99721942Y-74804590D01*
X98817180Y-74280780D02*
X98198133Y-74280780D01*
X98531466Y-74661733D01*
X98388609Y-74661733D01*
X98293371Y-74709352D01*
X98245752Y-74756971D01*
X98198133Y-74852209D01*
X98198133Y-75090304D01*
X98245752Y-75185542D01*
X98293371Y-75233161D01*
X98388609Y-75280780D01*
X98674323Y-75280780D01*
X98769561Y-75233161D01*
X98817180Y-75185542D01*
X106777885Y-73731380D02*
X107349314Y-73731380D01*
X107063600Y-73731380D02*
X107063600Y-72731380D01*
X107158838Y-72874238D01*
X107254076Y-72969476D01*
X107349314Y-73017095D01*
X100646933Y-72731380D02*
X100027885Y-72731380D01*
X100361219Y-73112333D01*
X100218361Y-73112333D01*
X100123123Y-73159952D01*
X100075504Y-73207571D01*
X100027885Y-73302809D01*
X100027885Y-73540904D01*
X100075504Y-73636142D01*
X100123123Y-73683761D01*
X100218361Y-73731380D01*
X100504076Y-73731380D01*
X100599314Y-73683761D01*
X100646933Y-73636142D01*
%TO.C,JP6*%
X130881333Y-80478380D02*
X130881333Y-81192666D01*
X130928952Y-81335523D01*
X131024190Y-81430761D01*
X131167047Y-81478380D01*
X131262285Y-81478380D01*
X130405142Y-81478380D02*
X130405142Y-80478380D01*
X130024190Y-80478380D01*
X129928952Y-80526000D01*
X129881333Y-80573619D01*
X129833714Y-80668857D01*
X129833714Y-80811714D01*
X129881333Y-80906952D01*
X129928952Y-80954571D01*
X130024190Y-81002190D01*
X130405142Y-81002190D01*
X128976571Y-80478380D02*
X129167047Y-80478380D01*
X129262285Y-80526000D01*
X129309904Y-80573619D01*
X129405142Y-80716476D01*
X129452761Y-80906952D01*
X129452761Y-81287904D01*
X129405142Y-81383142D01*
X129357523Y-81430761D01*
X129262285Y-81478380D01*
X129071809Y-81478380D01*
X128976571Y-81430761D01*
X128928952Y-81383142D01*
X128881333Y-81287904D01*
X128881333Y-81049809D01*
X128928952Y-80954571D01*
X128976571Y-80906952D01*
X129071809Y-80859333D01*
X129262285Y-80859333D01*
X129357523Y-80906952D01*
X129405142Y-80954571D01*
X129452761Y-81049809D01*
X125664285Y-83302380D02*
X126235714Y-83302380D01*
X125950000Y-83302380D02*
X125950000Y-82302380D01*
X126045238Y-82445238D01*
X126140476Y-82540476D01*
X126235714Y-82588095D01*
X133033333Y-82302380D02*
X132414285Y-82302380D01*
X132747619Y-82683333D01*
X132604761Y-82683333D01*
X132509523Y-82730952D01*
X132461904Y-82778571D01*
X132414285Y-82873809D01*
X132414285Y-83111904D01*
X132461904Y-83207142D01*
X132509523Y-83254761D01*
X132604761Y-83302380D01*
X132890476Y-83302380D01*
X132985714Y-83254761D01*
X133033333Y-83207142D01*
%TO.C,JP5*%
X113233333Y-80412380D02*
X113233333Y-81126666D01*
X113280952Y-81269523D01*
X113376190Y-81364761D01*
X113519047Y-81412380D01*
X113614285Y-81412380D01*
X112757142Y-81412380D02*
X112757142Y-80412380D01*
X112376190Y-80412380D01*
X112280952Y-80460000D01*
X112233333Y-80507619D01*
X112185714Y-80602857D01*
X112185714Y-80745714D01*
X112233333Y-80840952D01*
X112280952Y-80888571D01*
X112376190Y-80936190D01*
X112757142Y-80936190D01*
X111280952Y-80412380D02*
X111757142Y-80412380D01*
X111804761Y-80888571D01*
X111757142Y-80840952D01*
X111661904Y-80793333D01*
X111423809Y-80793333D01*
X111328571Y-80840952D01*
X111280952Y-80888571D01*
X111233333Y-80983809D01*
X111233333Y-81221904D01*
X111280952Y-81317142D01*
X111328571Y-81364761D01*
X111423809Y-81412380D01*
X111661904Y-81412380D01*
X111757142Y-81364761D01*
X111804761Y-81317142D01*
X108864285Y-83277380D02*
X109435714Y-83277380D01*
X109150000Y-83277380D02*
X109150000Y-82277380D01*
X109245238Y-82420238D01*
X109340476Y-82515476D01*
X109435714Y-82563095D01*
X116233333Y-82277380D02*
X115614285Y-82277380D01*
X115947619Y-82658333D01*
X115804761Y-82658333D01*
X115709523Y-82705952D01*
X115661904Y-82753571D01*
X115614285Y-82848809D01*
X115614285Y-83086904D01*
X115661904Y-83182142D01*
X115709523Y-83229761D01*
X115804761Y-83277380D01*
X116090476Y-83277380D01*
X116185714Y-83229761D01*
X116233333Y-83182142D01*
%TO.C,JP4*%
X104823333Y-80462380D02*
X104823333Y-81176666D01*
X104870952Y-81319523D01*
X104966190Y-81414761D01*
X105109047Y-81462380D01*
X105204285Y-81462380D01*
X104347142Y-81462380D02*
X104347142Y-80462380D01*
X103966190Y-80462380D01*
X103870952Y-80510000D01*
X103823333Y-80557619D01*
X103775714Y-80652857D01*
X103775714Y-80795714D01*
X103823333Y-80890952D01*
X103870952Y-80938571D01*
X103966190Y-80986190D01*
X104347142Y-80986190D01*
X102918571Y-80795714D02*
X102918571Y-81462380D01*
X103156666Y-80414761D02*
X103394761Y-81129047D01*
X102775714Y-81129047D01*
X107883333Y-82327380D02*
X107264285Y-82327380D01*
X107597619Y-82708333D01*
X107454761Y-82708333D01*
X107359523Y-82755952D01*
X107311904Y-82803571D01*
X107264285Y-82898809D01*
X107264285Y-83136904D01*
X107311904Y-83232142D01*
X107359523Y-83279761D01*
X107454761Y-83327380D01*
X107740476Y-83327380D01*
X107835714Y-83279761D01*
X107883333Y-83232142D01*
X100514285Y-83327380D02*
X101085714Y-83327380D01*
X100800000Y-83327380D02*
X100800000Y-82327380D01*
X100895238Y-82470238D01*
X100990476Y-82565476D01*
X101085714Y-82613095D01*
%TO.C,JP1*%
X138083333Y-80462380D02*
X138083333Y-81176666D01*
X138130952Y-81319523D01*
X138226190Y-81414761D01*
X138369047Y-81462380D01*
X138464285Y-81462380D01*
X137607142Y-81462380D02*
X137607142Y-80462380D01*
X137226190Y-80462380D01*
X137130952Y-80510000D01*
X137083333Y-80557619D01*
X137035714Y-80652857D01*
X137035714Y-80795714D01*
X137083333Y-80890952D01*
X137130952Y-80938571D01*
X137226190Y-80986190D01*
X137607142Y-80986190D01*
X136083333Y-81462380D02*
X136654761Y-81462380D01*
X136369047Y-81462380D02*
X136369047Y-80462380D01*
X136464285Y-80605238D01*
X136559523Y-80700476D01*
X136654761Y-80748095D01*
X134064285Y-83302380D02*
X134635714Y-83302380D01*
X134350000Y-83302380D02*
X134350000Y-82302380D01*
X134445238Y-82445238D01*
X134540476Y-82540476D01*
X134635714Y-82588095D01*
X141433333Y-82302380D02*
X140814285Y-82302380D01*
X141147619Y-82683333D01*
X141004761Y-82683333D01*
X140909523Y-82730952D01*
X140861904Y-82778571D01*
X140814285Y-82873809D01*
X140814285Y-83111904D01*
X140861904Y-83207142D01*
X140909523Y-83254761D01*
X141004761Y-83302380D01*
X141290476Y-83302380D01*
X141385714Y-83254761D01*
X141433333Y-83207142D01*
%TO.C,JP2*%
X121443333Y-80272380D02*
X121443333Y-80986666D01*
X121490952Y-81129523D01*
X121586190Y-81224761D01*
X121729047Y-81272380D01*
X121824285Y-81272380D01*
X120967142Y-81272380D02*
X120967142Y-80272380D01*
X120586190Y-80272380D01*
X120490952Y-80320000D01*
X120443333Y-80367619D01*
X120395714Y-80462857D01*
X120395714Y-80605714D01*
X120443333Y-80700952D01*
X120490952Y-80748571D01*
X120586190Y-80796190D01*
X120967142Y-80796190D01*
X120014761Y-80367619D02*
X119967142Y-80320000D01*
X119871904Y-80272380D01*
X119633809Y-80272380D01*
X119538571Y-80320000D01*
X119490952Y-80367619D01*
X119443333Y-80462857D01*
X119443333Y-80558095D01*
X119490952Y-80700952D01*
X120062380Y-81272380D01*
X119443333Y-81272380D01*
X117314285Y-83302380D02*
X117885714Y-83302380D01*
X117600000Y-83302380D02*
X117600000Y-82302380D01*
X117695238Y-82445238D01*
X117790476Y-82540476D01*
X117885714Y-82588095D01*
X124683333Y-82302380D02*
X124064285Y-82302380D01*
X124397619Y-82683333D01*
X124254761Y-82683333D01*
X124159523Y-82730952D01*
X124111904Y-82778571D01*
X124064285Y-82873809D01*
X124064285Y-83111904D01*
X124111904Y-83207142D01*
X124159523Y-83254761D01*
X124254761Y-83302380D01*
X124540476Y-83302380D01*
X124635714Y-83254761D01*
X124683333Y-83207142D01*
%TO.C,kibuzzard-6378F9DB*%
G36*
X106488442Y-68448276D02*
G01*
X106488442Y-71447163D01*
X105562400Y-72064524D01*
X104636358Y-71447163D01*
X104636358Y-70793063D01*
X104967087Y-70793063D01*
X104979787Y-70922444D01*
X105017887Y-71047063D01*
X105170287Y-71047063D01*
X105121472Y-70931573D01*
X105105200Y-70813701D01*
X105118892Y-70726190D01*
X105159969Y-70663682D01*
X105228430Y-70626177D01*
X105324275Y-70613676D01*
X105418533Y-70627963D01*
X105482231Y-70670826D01*
X105518545Y-70748613D01*
X105530650Y-70867676D01*
X105530650Y-70899426D01*
X105670350Y-70899426D01*
X105670350Y-70867676D01*
X105682256Y-70756948D01*
X105717975Y-70681938D01*
X105779491Y-70639076D01*
X105868787Y-70624788D01*
X105953454Y-70643133D01*
X106004254Y-70698166D01*
X106021187Y-70789888D01*
X106004519Y-70901807D01*
X105954512Y-71024838D01*
X106102150Y-71024838D01*
X106133018Y-70933116D01*
X106151539Y-70844216D01*
X106157713Y-70758138D01*
X106140052Y-70627566D01*
X106087069Y-70531126D01*
X106002733Y-70471594D01*
X105891012Y-70451751D01*
X105789313Y-70463657D01*
X105708053Y-70499376D01*
X105647232Y-70558907D01*
X105606850Y-70642251D01*
X105605262Y-70642251D01*
X105572322Y-70551962D01*
X105513187Y-70487469D01*
X105427859Y-70448774D01*
X105316337Y-70435876D01*
X105209622Y-70445798D01*
X105122310Y-70475563D01*
X105054400Y-70525173D01*
X105005893Y-70594626D01*
X104976789Y-70683923D01*
X104967087Y-70793063D01*
X104636358Y-70793063D01*
X104636358Y-70051701D01*
X104982962Y-70051701D01*
X106141837Y-70308876D01*
X106141837Y-70126313D01*
X105141712Y-69945338D01*
X105141712Y-69943751D01*
X106141837Y-69762776D01*
X106141837Y-69586563D01*
X104982962Y-69845326D01*
X104982962Y-70051701D01*
X104636358Y-70051701D01*
X104636358Y-69205563D01*
X104967087Y-69205563D01*
X104979787Y-69334944D01*
X105017887Y-69459563D01*
X105170287Y-69459563D01*
X105121472Y-69344073D01*
X105105200Y-69226201D01*
X105118892Y-69138690D01*
X105159969Y-69076182D01*
X105228430Y-69038677D01*
X105324275Y-69026176D01*
X105418533Y-69040463D01*
X105482231Y-69083326D01*
X105518545Y-69161113D01*
X105530650Y-69280176D01*
X105530650Y-69311926D01*
X105670350Y-69311926D01*
X105670350Y-69280176D01*
X105682256Y-69169448D01*
X105717975Y-69094438D01*
X105779491Y-69051576D01*
X105868787Y-69037288D01*
X105953454Y-69055633D01*
X106004254Y-69110666D01*
X106021187Y-69202388D01*
X106004519Y-69314307D01*
X105954512Y-69437338D01*
X106102150Y-69437338D01*
X106133018Y-69345616D01*
X106151539Y-69256716D01*
X106157713Y-69170638D01*
X106140052Y-69040066D01*
X106087069Y-68943626D01*
X106002733Y-68884094D01*
X105891012Y-68864251D01*
X105789313Y-68876157D01*
X105708053Y-68911876D01*
X105647232Y-68971407D01*
X105606850Y-69054751D01*
X105605262Y-69054751D01*
X105572322Y-68964462D01*
X105513187Y-68899969D01*
X105427859Y-68861274D01*
X105316337Y-68848376D01*
X105209622Y-68858298D01*
X105122310Y-68888063D01*
X105054400Y-68937673D01*
X105005893Y-69007126D01*
X104976789Y-69096423D01*
X104967087Y-69205563D01*
X104636358Y-69205563D01*
X104636358Y-68448276D01*
X106488442Y-68448276D01*
G37*
%TO.C,kibuzzard-6378ECA4*%
G36*
X102416504Y-68501722D02*
G01*
X102416504Y-71500609D01*
X101498400Y-72112678D01*
X100580296Y-71500609D01*
X100580296Y-70488528D01*
X100911025Y-70488528D01*
X100922931Y-70606400D01*
X100958650Y-70715540D01*
X101109463Y-70715540D01*
X101064219Y-70607193D01*
X101049137Y-70501228D01*
X101062830Y-70420265D01*
X101103906Y-70364703D01*
X101179114Y-70332556D01*
X101295200Y-70321840D01*
X101405333Y-70329381D01*
X101478556Y-70352003D01*
X101533325Y-70445665D01*
X101517450Y-70506387D01*
X101469825Y-70561553D01*
X101469825Y-70707603D01*
X102085775Y-70691728D01*
X102085775Y-70175790D01*
X101949250Y-70175790D01*
X101949250Y-70529803D01*
X101628575Y-70540915D01*
X101628575Y-70537740D01*
X101658341Y-70473447D01*
X101668262Y-70398040D01*
X101653340Y-70306600D01*
X101608572Y-70235480D01*
X101533960Y-70184680D01*
X101429503Y-70154200D01*
X101295200Y-70144040D01*
X101170669Y-70153212D01*
X101072244Y-70180729D01*
X100999925Y-70226590D01*
X100950536Y-70292383D01*
X100920903Y-70379696D01*
X100911025Y-70488528D01*
X100580296Y-70488528D01*
X100580296Y-69751928D01*
X100926900Y-69751928D01*
X102085775Y-70009103D01*
X102085775Y-69826540D01*
X101085650Y-69645565D01*
X101085650Y-69643978D01*
X102085775Y-69463003D01*
X102085775Y-69286790D01*
X100926900Y-69545553D01*
X100926900Y-69751928D01*
X100580296Y-69751928D01*
X100580296Y-68501722D01*
X102416504Y-68501722D01*
G37*
%TO.C,kibuzzard-6378EBEC*%
G36*
X139700000Y-83954522D02*
G01*
X140618104Y-84566591D01*
X140618104Y-87565478D01*
X138781896Y-87565478D01*
X138781896Y-86553397D01*
X139112625Y-86553397D01*
X139124531Y-86671269D01*
X139160250Y-86780410D01*
X139311063Y-86780410D01*
X139265819Y-86672063D01*
X139250737Y-86566097D01*
X139264430Y-86485135D01*
X139305506Y-86429572D01*
X139380714Y-86397425D01*
X139496800Y-86386710D01*
X139606933Y-86394250D01*
X139680156Y-86416872D01*
X139734925Y-86510535D01*
X139719050Y-86571257D01*
X139671425Y-86626422D01*
X139671425Y-86772472D01*
X140287375Y-86756597D01*
X140287375Y-86240660D01*
X140150850Y-86240660D01*
X140150850Y-86594672D01*
X139830175Y-86605785D01*
X139830175Y-86602610D01*
X139859941Y-86538316D01*
X139869862Y-86462910D01*
X139854940Y-86371470D01*
X139810172Y-86300350D01*
X139735560Y-86249550D01*
X139631103Y-86219070D01*
X139496800Y-86208910D01*
X139372269Y-86218082D01*
X139273844Y-86245599D01*
X139201525Y-86291460D01*
X139152136Y-86357253D01*
X139122503Y-86444565D01*
X139112625Y-86553397D01*
X138781896Y-86553397D01*
X138781896Y-85816797D01*
X139128500Y-85816797D01*
X140287375Y-86073972D01*
X140287375Y-85891410D01*
X139287250Y-85710435D01*
X139287250Y-85708847D01*
X140287375Y-85527872D01*
X140287375Y-85351660D01*
X139128500Y-85610422D01*
X139128500Y-85816797D01*
X138781896Y-85816797D01*
X138781896Y-84566591D01*
X139700000Y-83954522D01*
G37*
G36*
X131370000Y-83914522D02*
G01*
X132288104Y-84526591D01*
X132288104Y-87525478D01*
X130451896Y-87525478D01*
X130451896Y-86513397D01*
X130782625Y-86513397D01*
X130794531Y-86631269D01*
X130830250Y-86740410D01*
X130981063Y-86740410D01*
X130935819Y-86632063D01*
X130920737Y-86526097D01*
X130934430Y-86445135D01*
X130975506Y-86389572D01*
X131050714Y-86357425D01*
X131166800Y-86346710D01*
X131276933Y-86354250D01*
X131350156Y-86376872D01*
X131404925Y-86470535D01*
X131389050Y-86531257D01*
X131341425Y-86586422D01*
X131341425Y-86732472D01*
X131957375Y-86716597D01*
X131957375Y-86200660D01*
X131820850Y-86200660D01*
X131820850Y-86554672D01*
X131500175Y-86565785D01*
X131500175Y-86562610D01*
X131529941Y-86498316D01*
X131539862Y-86422910D01*
X131524940Y-86331470D01*
X131480172Y-86260350D01*
X131405560Y-86209550D01*
X131301103Y-86179070D01*
X131166800Y-86168910D01*
X131042269Y-86178082D01*
X130943844Y-86205599D01*
X130871525Y-86251460D01*
X130822136Y-86317253D01*
X130792503Y-86404565D01*
X130782625Y-86513397D01*
X130451896Y-86513397D01*
X130451896Y-85776797D01*
X130798500Y-85776797D01*
X131957375Y-86033972D01*
X131957375Y-85851410D01*
X130957250Y-85670435D01*
X130957250Y-85668847D01*
X131957375Y-85487872D01*
X131957375Y-85311660D01*
X130798500Y-85570422D01*
X130798500Y-85776797D01*
X130451896Y-85776797D01*
X130451896Y-84526591D01*
X131370000Y-83914522D01*
G37*
G36*
X122900000Y-83914522D02*
G01*
X123818104Y-84526591D01*
X123818104Y-87525478D01*
X121981896Y-87525478D01*
X121981896Y-86513397D01*
X122312625Y-86513397D01*
X122324531Y-86631269D01*
X122360250Y-86740410D01*
X122511063Y-86740410D01*
X122465819Y-86632063D01*
X122450737Y-86526097D01*
X122464430Y-86445135D01*
X122505506Y-86389572D01*
X122580714Y-86357425D01*
X122696800Y-86346710D01*
X122806933Y-86354250D01*
X122880156Y-86376872D01*
X122934925Y-86470535D01*
X122919050Y-86531257D01*
X122871425Y-86586422D01*
X122871425Y-86732472D01*
X123487375Y-86716597D01*
X123487375Y-86200660D01*
X123350850Y-86200660D01*
X123350850Y-86554672D01*
X123030175Y-86565785D01*
X123030175Y-86562610D01*
X123059941Y-86498316D01*
X123069862Y-86422910D01*
X123054940Y-86331470D01*
X123010172Y-86260350D01*
X122935560Y-86209550D01*
X122831103Y-86179070D01*
X122696800Y-86168910D01*
X122572269Y-86178082D01*
X122473844Y-86205599D01*
X122401525Y-86251460D01*
X122352136Y-86317253D01*
X122322503Y-86404565D01*
X122312625Y-86513397D01*
X121981896Y-86513397D01*
X121981896Y-85776797D01*
X122328500Y-85776797D01*
X123487375Y-86033972D01*
X123487375Y-85851410D01*
X122487250Y-85670435D01*
X122487250Y-85668847D01*
X123487375Y-85487872D01*
X123487375Y-85311660D01*
X122328500Y-85570422D01*
X122328500Y-85776797D01*
X121981896Y-85776797D01*
X121981896Y-84526591D01*
X122900000Y-83914522D01*
G37*
G36*
X114610000Y-83914522D02*
G01*
X115528104Y-84526591D01*
X115528104Y-87525478D01*
X113691896Y-87525478D01*
X113691896Y-86513397D01*
X114022625Y-86513397D01*
X114034531Y-86631269D01*
X114070250Y-86740410D01*
X114221063Y-86740410D01*
X114175819Y-86632063D01*
X114160737Y-86526097D01*
X114174430Y-86445135D01*
X114215506Y-86389572D01*
X114290714Y-86357425D01*
X114406800Y-86346710D01*
X114516933Y-86354250D01*
X114590156Y-86376872D01*
X114644925Y-86470535D01*
X114629050Y-86531257D01*
X114581425Y-86586422D01*
X114581425Y-86732472D01*
X115197375Y-86716597D01*
X115197375Y-86200660D01*
X115060850Y-86200660D01*
X115060850Y-86554672D01*
X114740175Y-86565785D01*
X114740175Y-86562610D01*
X114769941Y-86498316D01*
X114779862Y-86422910D01*
X114764940Y-86331470D01*
X114720172Y-86260350D01*
X114645560Y-86209550D01*
X114541103Y-86179070D01*
X114406800Y-86168910D01*
X114282269Y-86178082D01*
X114183844Y-86205599D01*
X114111525Y-86251460D01*
X114062136Y-86317253D01*
X114032503Y-86404565D01*
X114022625Y-86513397D01*
X113691896Y-86513397D01*
X113691896Y-85776797D01*
X114038500Y-85776797D01*
X115197375Y-86033972D01*
X115197375Y-85851410D01*
X114197250Y-85670435D01*
X114197250Y-85668847D01*
X115197375Y-85487872D01*
X115197375Y-85311660D01*
X114038500Y-85570422D01*
X114038500Y-85776797D01*
X113691896Y-85776797D01*
X113691896Y-84526591D01*
X114610000Y-83914522D01*
G37*
G36*
X106060000Y-83934522D02*
G01*
X106978104Y-84546591D01*
X106978104Y-87545478D01*
X105141896Y-87545478D01*
X105141896Y-86533397D01*
X105472625Y-86533397D01*
X105484531Y-86651269D01*
X105520250Y-86760410D01*
X105671063Y-86760410D01*
X105625819Y-86652063D01*
X105610737Y-86546097D01*
X105624430Y-86465135D01*
X105665506Y-86409572D01*
X105740714Y-86377425D01*
X105856800Y-86366710D01*
X105966933Y-86374250D01*
X106040156Y-86396872D01*
X106094925Y-86490535D01*
X106079050Y-86551257D01*
X106031425Y-86606422D01*
X106031425Y-86752472D01*
X106647375Y-86736597D01*
X106647375Y-86220660D01*
X106510850Y-86220660D01*
X106510850Y-86574672D01*
X106190175Y-86585785D01*
X106190175Y-86582610D01*
X106219941Y-86518316D01*
X106229862Y-86442910D01*
X106214940Y-86351470D01*
X106170172Y-86280350D01*
X106095560Y-86229550D01*
X105991103Y-86199070D01*
X105856800Y-86188910D01*
X105732269Y-86198082D01*
X105633844Y-86225599D01*
X105561525Y-86271460D01*
X105512136Y-86337253D01*
X105482503Y-86424565D01*
X105472625Y-86533397D01*
X105141896Y-86533397D01*
X105141896Y-85796797D01*
X105488500Y-85796797D01*
X106647375Y-86053972D01*
X106647375Y-85871410D01*
X105647250Y-85690435D01*
X105647250Y-85688847D01*
X106647375Y-85507872D01*
X106647375Y-85331660D01*
X105488500Y-85590422D01*
X105488500Y-85796797D01*
X105141896Y-85796797D01*
X105141896Y-84546591D01*
X106060000Y-83934522D01*
G37*
%TO.C,kibuzzard-6378EB76*%
G36*
X135400000Y-83961876D02*
G01*
X136326042Y-84579237D01*
X136326042Y-87578124D01*
X134473958Y-87578124D01*
X134473958Y-86924024D01*
X134804687Y-86924024D01*
X134817387Y-87053406D01*
X134855487Y-87178024D01*
X135007887Y-87178024D01*
X134959072Y-87062534D01*
X134942800Y-86944662D01*
X134956492Y-86857151D01*
X134997569Y-86794643D01*
X135066030Y-86757138D01*
X135161875Y-86744637D01*
X135256133Y-86758924D01*
X135319831Y-86801787D01*
X135356145Y-86879574D01*
X135368250Y-86998637D01*
X135368250Y-87030387D01*
X135507950Y-87030387D01*
X135507950Y-86998637D01*
X135519856Y-86887909D01*
X135555575Y-86812899D01*
X135617091Y-86770037D01*
X135706387Y-86755749D01*
X135791054Y-86774094D01*
X135841854Y-86829127D01*
X135858787Y-86920849D01*
X135842119Y-87032768D01*
X135792112Y-87155799D01*
X135939750Y-87155799D01*
X135970618Y-87064077D01*
X135989139Y-86975177D01*
X135995313Y-86889099D01*
X135977652Y-86758527D01*
X135924669Y-86662087D01*
X135840333Y-86602556D01*
X135728612Y-86582712D01*
X135626913Y-86594618D01*
X135545653Y-86630337D01*
X135484832Y-86689868D01*
X135444450Y-86773212D01*
X135442862Y-86773212D01*
X135409922Y-86682923D01*
X135350787Y-86618431D01*
X135265459Y-86579735D01*
X135153937Y-86566837D01*
X135047222Y-86576759D01*
X134959910Y-86606524D01*
X134892000Y-86656134D01*
X134843493Y-86725587D01*
X134814389Y-86814884D01*
X134804687Y-86924024D01*
X134473958Y-86924024D01*
X134473958Y-86182662D01*
X134820562Y-86182662D01*
X135979437Y-86439837D01*
X135979437Y-86257274D01*
X134979312Y-86076299D01*
X134979312Y-86074712D01*
X135979437Y-85893737D01*
X135979437Y-85717524D01*
X134820562Y-85976287D01*
X134820562Y-86182662D01*
X134473958Y-86182662D01*
X134473958Y-85336524D01*
X134804687Y-85336524D01*
X134817387Y-85465906D01*
X134855487Y-85590524D01*
X135007887Y-85590524D01*
X134959072Y-85475034D01*
X134942800Y-85357162D01*
X134956492Y-85269651D01*
X134997569Y-85207143D01*
X135066030Y-85169638D01*
X135161875Y-85157137D01*
X135256133Y-85171424D01*
X135319831Y-85214287D01*
X135356145Y-85292074D01*
X135368250Y-85411137D01*
X135368250Y-85442887D01*
X135507950Y-85442887D01*
X135507950Y-85411137D01*
X135519856Y-85300409D01*
X135555575Y-85225399D01*
X135617091Y-85182537D01*
X135706387Y-85168249D01*
X135791054Y-85186594D01*
X135841854Y-85241627D01*
X135858787Y-85333349D01*
X135842119Y-85445268D01*
X135792112Y-85568299D01*
X135939750Y-85568299D01*
X135970618Y-85476577D01*
X135989139Y-85387677D01*
X135995313Y-85301599D01*
X135977652Y-85171027D01*
X135924669Y-85074587D01*
X135840333Y-85015056D01*
X135728612Y-84995212D01*
X135626913Y-85007118D01*
X135545653Y-85042837D01*
X135484832Y-85102368D01*
X135444450Y-85185712D01*
X135442862Y-85185712D01*
X135409922Y-85095423D01*
X135350787Y-85030931D01*
X135265459Y-84992235D01*
X135153937Y-84979337D01*
X135047222Y-84989259D01*
X134959910Y-85019024D01*
X134892000Y-85068634D01*
X134843493Y-85138087D01*
X134814389Y-85227384D01*
X134804687Y-85336524D01*
X134473958Y-85336524D01*
X134473958Y-84579237D01*
X135400000Y-83961876D01*
G37*
G36*
X127110000Y-83921876D02*
G01*
X128036042Y-84539237D01*
X128036042Y-87538124D01*
X126183958Y-87538124D01*
X126183958Y-86884024D01*
X126514687Y-86884024D01*
X126527387Y-87013406D01*
X126565487Y-87138024D01*
X126717887Y-87138024D01*
X126669072Y-87022534D01*
X126652800Y-86904662D01*
X126666492Y-86817151D01*
X126707569Y-86754643D01*
X126776030Y-86717138D01*
X126871875Y-86704637D01*
X126966133Y-86718924D01*
X127029831Y-86761787D01*
X127066145Y-86839574D01*
X127078250Y-86958637D01*
X127078250Y-86990387D01*
X127217950Y-86990387D01*
X127217950Y-86958637D01*
X127229856Y-86847909D01*
X127265575Y-86772899D01*
X127327091Y-86730037D01*
X127416387Y-86715749D01*
X127501054Y-86734094D01*
X127551854Y-86789127D01*
X127568787Y-86880849D01*
X127552119Y-86992768D01*
X127502112Y-87115799D01*
X127649750Y-87115799D01*
X127680618Y-87024077D01*
X127699139Y-86935177D01*
X127705313Y-86849099D01*
X127687652Y-86718527D01*
X127634669Y-86622087D01*
X127550333Y-86562556D01*
X127438612Y-86542712D01*
X127336913Y-86554618D01*
X127255653Y-86590337D01*
X127194832Y-86649868D01*
X127154450Y-86733212D01*
X127152862Y-86733212D01*
X127119922Y-86642923D01*
X127060787Y-86578431D01*
X126975459Y-86539735D01*
X126863937Y-86526837D01*
X126757222Y-86536759D01*
X126669910Y-86566524D01*
X126602000Y-86616134D01*
X126553493Y-86685587D01*
X126524389Y-86774884D01*
X126514687Y-86884024D01*
X126183958Y-86884024D01*
X126183958Y-86142662D01*
X126530562Y-86142662D01*
X127689437Y-86399837D01*
X127689437Y-86217274D01*
X126689312Y-86036299D01*
X126689312Y-86034712D01*
X127689437Y-85853737D01*
X127689437Y-85677524D01*
X126530562Y-85936287D01*
X126530562Y-86142662D01*
X126183958Y-86142662D01*
X126183958Y-85296524D01*
X126514687Y-85296524D01*
X126527387Y-85425906D01*
X126565487Y-85550524D01*
X126717887Y-85550524D01*
X126669072Y-85435034D01*
X126652800Y-85317162D01*
X126666492Y-85229651D01*
X126707569Y-85167143D01*
X126776030Y-85129638D01*
X126871875Y-85117137D01*
X126966133Y-85131424D01*
X127029831Y-85174287D01*
X127066145Y-85252074D01*
X127078250Y-85371137D01*
X127078250Y-85402887D01*
X127217950Y-85402887D01*
X127217950Y-85371137D01*
X127229856Y-85260409D01*
X127265575Y-85185399D01*
X127327091Y-85142537D01*
X127416387Y-85128249D01*
X127501054Y-85146594D01*
X127551854Y-85201627D01*
X127568787Y-85293349D01*
X127552119Y-85405268D01*
X127502112Y-85528299D01*
X127649750Y-85528299D01*
X127680618Y-85436577D01*
X127699139Y-85347677D01*
X127705313Y-85261599D01*
X127687652Y-85131027D01*
X127634669Y-85034587D01*
X127550333Y-84975056D01*
X127438612Y-84955212D01*
X127336913Y-84967118D01*
X127255653Y-85002837D01*
X127194832Y-85062368D01*
X127154450Y-85145712D01*
X127152862Y-85145712D01*
X127119922Y-85055423D01*
X127060787Y-84990931D01*
X126975459Y-84952235D01*
X126863937Y-84939337D01*
X126757222Y-84949259D01*
X126669910Y-84979024D01*
X126602000Y-85028634D01*
X126553493Y-85098087D01*
X126524389Y-85187384D01*
X126514687Y-85296524D01*
X126183958Y-85296524D01*
X126183958Y-84539237D01*
X127110000Y-83921876D01*
G37*
G36*
X118740000Y-83941876D02*
G01*
X119666042Y-84559237D01*
X119666042Y-87558124D01*
X117813958Y-87558124D01*
X117813958Y-86904024D01*
X118144687Y-86904024D01*
X118157387Y-87033406D01*
X118195487Y-87158024D01*
X118347887Y-87158024D01*
X118299072Y-87042534D01*
X118282800Y-86924662D01*
X118296492Y-86837151D01*
X118337569Y-86774643D01*
X118406030Y-86737138D01*
X118501875Y-86724637D01*
X118596133Y-86738924D01*
X118659831Y-86781787D01*
X118696145Y-86859574D01*
X118708250Y-86978637D01*
X118708250Y-87010387D01*
X118847950Y-87010387D01*
X118847950Y-86978637D01*
X118859856Y-86867909D01*
X118895575Y-86792899D01*
X118957091Y-86750037D01*
X119046387Y-86735749D01*
X119131054Y-86754094D01*
X119181854Y-86809127D01*
X119198787Y-86900849D01*
X119182119Y-87012768D01*
X119132112Y-87135799D01*
X119279750Y-87135799D01*
X119310618Y-87044077D01*
X119329139Y-86955177D01*
X119335313Y-86869099D01*
X119317652Y-86738527D01*
X119264669Y-86642087D01*
X119180333Y-86582556D01*
X119068612Y-86562712D01*
X118966913Y-86574618D01*
X118885653Y-86610337D01*
X118824832Y-86669868D01*
X118784450Y-86753212D01*
X118782862Y-86753212D01*
X118749922Y-86662923D01*
X118690787Y-86598431D01*
X118605459Y-86559735D01*
X118493937Y-86546837D01*
X118387222Y-86556759D01*
X118299910Y-86586524D01*
X118232000Y-86636134D01*
X118183493Y-86705587D01*
X118154389Y-86794884D01*
X118144687Y-86904024D01*
X117813958Y-86904024D01*
X117813958Y-86162662D01*
X118160562Y-86162662D01*
X119319437Y-86419837D01*
X119319437Y-86237274D01*
X118319312Y-86056299D01*
X118319312Y-86054712D01*
X119319437Y-85873737D01*
X119319437Y-85697524D01*
X118160562Y-85956287D01*
X118160562Y-86162662D01*
X117813958Y-86162662D01*
X117813958Y-85316524D01*
X118144687Y-85316524D01*
X118157387Y-85445906D01*
X118195487Y-85570524D01*
X118347887Y-85570524D01*
X118299072Y-85455034D01*
X118282800Y-85337162D01*
X118296492Y-85249651D01*
X118337569Y-85187143D01*
X118406030Y-85149638D01*
X118501875Y-85137137D01*
X118596133Y-85151424D01*
X118659831Y-85194287D01*
X118696145Y-85272074D01*
X118708250Y-85391137D01*
X118708250Y-85422887D01*
X118847950Y-85422887D01*
X118847950Y-85391137D01*
X118859856Y-85280409D01*
X118895575Y-85205399D01*
X118957091Y-85162537D01*
X119046387Y-85148249D01*
X119131054Y-85166594D01*
X119181854Y-85221627D01*
X119198787Y-85313349D01*
X119182119Y-85425268D01*
X119132112Y-85548299D01*
X119279750Y-85548299D01*
X119310618Y-85456577D01*
X119329139Y-85367677D01*
X119335313Y-85281599D01*
X119317652Y-85151027D01*
X119264669Y-85054587D01*
X119180333Y-84995056D01*
X119068612Y-84975212D01*
X118966913Y-84987118D01*
X118885653Y-85022837D01*
X118824832Y-85082368D01*
X118784450Y-85165712D01*
X118782862Y-85165712D01*
X118749922Y-85075423D01*
X118690787Y-85010931D01*
X118605459Y-84972235D01*
X118493937Y-84959337D01*
X118387222Y-84969259D01*
X118299910Y-84999024D01*
X118232000Y-85048634D01*
X118183493Y-85118087D01*
X118154389Y-85207384D01*
X118144687Y-85316524D01*
X117813958Y-85316524D01*
X117813958Y-84559237D01*
X118740000Y-83941876D01*
G37*
G36*
X110310000Y-83891876D02*
G01*
X111236042Y-84509237D01*
X111236042Y-87508124D01*
X109383958Y-87508124D01*
X109383958Y-86854024D01*
X109714687Y-86854024D01*
X109727387Y-86983406D01*
X109765487Y-87108024D01*
X109917887Y-87108024D01*
X109869072Y-86992534D01*
X109852800Y-86874662D01*
X109866492Y-86787151D01*
X109907569Y-86724643D01*
X109976030Y-86687138D01*
X110071875Y-86674637D01*
X110166133Y-86688924D01*
X110229831Y-86731787D01*
X110266145Y-86809574D01*
X110278250Y-86928637D01*
X110278250Y-86960387D01*
X110417950Y-86960387D01*
X110417950Y-86928637D01*
X110429856Y-86817909D01*
X110465575Y-86742899D01*
X110527091Y-86700037D01*
X110616387Y-86685749D01*
X110701054Y-86704094D01*
X110751854Y-86759127D01*
X110768787Y-86850849D01*
X110752119Y-86962768D01*
X110702112Y-87085799D01*
X110849750Y-87085799D01*
X110880618Y-86994077D01*
X110899139Y-86905177D01*
X110905313Y-86819099D01*
X110887652Y-86688527D01*
X110834669Y-86592087D01*
X110750333Y-86532556D01*
X110638612Y-86512712D01*
X110536913Y-86524618D01*
X110455653Y-86560337D01*
X110394832Y-86619868D01*
X110354450Y-86703212D01*
X110352862Y-86703212D01*
X110319922Y-86612923D01*
X110260787Y-86548431D01*
X110175459Y-86509735D01*
X110063937Y-86496837D01*
X109957222Y-86506759D01*
X109869910Y-86536524D01*
X109802000Y-86586134D01*
X109753493Y-86655587D01*
X109724389Y-86744884D01*
X109714687Y-86854024D01*
X109383958Y-86854024D01*
X109383958Y-86112662D01*
X109730562Y-86112662D01*
X110889437Y-86369837D01*
X110889437Y-86187274D01*
X109889312Y-86006299D01*
X109889312Y-86004712D01*
X110889437Y-85823737D01*
X110889437Y-85647524D01*
X109730562Y-85906287D01*
X109730562Y-86112662D01*
X109383958Y-86112662D01*
X109383958Y-85266524D01*
X109714687Y-85266524D01*
X109727387Y-85395906D01*
X109765487Y-85520524D01*
X109917887Y-85520524D01*
X109869072Y-85405034D01*
X109852800Y-85287162D01*
X109866492Y-85199651D01*
X109907569Y-85137143D01*
X109976030Y-85099638D01*
X110071875Y-85087137D01*
X110166133Y-85101424D01*
X110229831Y-85144287D01*
X110266145Y-85222074D01*
X110278250Y-85341137D01*
X110278250Y-85372887D01*
X110417950Y-85372887D01*
X110417950Y-85341137D01*
X110429856Y-85230409D01*
X110465575Y-85155399D01*
X110527091Y-85112537D01*
X110616387Y-85098249D01*
X110701054Y-85116594D01*
X110751854Y-85171627D01*
X110768787Y-85263349D01*
X110752119Y-85375268D01*
X110702112Y-85498299D01*
X110849750Y-85498299D01*
X110880618Y-85406577D01*
X110899139Y-85317677D01*
X110905313Y-85231599D01*
X110887652Y-85101027D01*
X110834669Y-85004587D01*
X110750333Y-84945056D01*
X110638612Y-84925212D01*
X110536913Y-84937118D01*
X110455653Y-84972837D01*
X110394832Y-85032368D01*
X110354450Y-85115712D01*
X110352862Y-85115712D01*
X110319922Y-85025423D01*
X110260787Y-84960931D01*
X110175459Y-84922235D01*
X110063937Y-84909337D01*
X109957222Y-84919259D01*
X109869910Y-84949024D01*
X109802000Y-84998634D01*
X109753493Y-85068087D01*
X109724389Y-85157384D01*
X109714687Y-85266524D01*
X109383958Y-85266524D01*
X109383958Y-84509237D01*
X110310000Y-83891876D01*
G37*
G36*
X102010000Y-83941876D02*
G01*
X102936042Y-84559237D01*
X102936042Y-87558124D01*
X101083958Y-87558124D01*
X101083958Y-86904024D01*
X101414687Y-86904024D01*
X101427387Y-87033406D01*
X101465487Y-87158024D01*
X101617887Y-87158024D01*
X101569072Y-87042534D01*
X101552800Y-86924662D01*
X101566492Y-86837151D01*
X101607569Y-86774643D01*
X101676030Y-86737138D01*
X101771875Y-86724637D01*
X101866133Y-86738924D01*
X101929831Y-86781787D01*
X101966145Y-86859574D01*
X101978250Y-86978637D01*
X101978250Y-87010387D01*
X102117950Y-87010387D01*
X102117950Y-86978637D01*
X102129856Y-86867909D01*
X102165575Y-86792899D01*
X102227091Y-86750037D01*
X102316387Y-86735749D01*
X102401054Y-86754094D01*
X102451854Y-86809127D01*
X102468787Y-86900849D01*
X102452119Y-87012768D01*
X102402112Y-87135799D01*
X102549750Y-87135799D01*
X102580618Y-87044077D01*
X102599139Y-86955177D01*
X102605313Y-86869099D01*
X102587652Y-86738527D01*
X102534669Y-86642087D01*
X102450333Y-86582556D01*
X102338612Y-86562712D01*
X102236913Y-86574618D01*
X102155653Y-86610337D01*
X102094832Y-86669868D01*
X102054450Y-86753212D01*
X102052862Y-86753212D01*
X102019922Y-86662923D01*
X101960787Y-86598431D01*
X101875459Y-86559735D01*
X101763937Y-86546837D01*
X101657222Y-86556759D01*
X101569910Y-86586524D01*
X101502000Y-86636134D01*
X101453493Y-86705587D01*
X101424389Y-86794884D01*
X101414687Y-86904024D01*
X101083958Y-86904024D01*
X101083958Y-86162662D01*
X101430562Y-86162662D01*
X102589437Y-86419837D01*
X102589437Y-86237274D01*
X101589312Y-86056299D01*
X101589312Y-86054712D01*
X102589437Y-85873737D01*
X102589437Y-85697524D01*
X101430562Y-85956287D01*
X101430562Y-86162662D01*
X101083958Y-86162662D01*
X101083958Y-85316524D01*
X101414687Y-85316524D01*
X101427387Y-85445906D01*
X101465487Y-85570524D01*
X101617887Y-85570524D01*
X101569072Y-85455034D01*
X101552800Y-85337162D01*
X101566492Y-85249651D01*
X101607569Y-85187143D01*
X101676030Y-85149638D01*
X101771875Y-85137137D01*
X101866133Y-85151424D01*
X101929831Y-85194287D01*
X101966145Y-85272074D01*
X101978250Y-85391137D01*
X101978250Y-85422887D01*
X102117950Y-85422887D01*
X102117950Y-85391137D01*
X102129856Y-85280409D01*
X102165575Y-85205399D01*
X102227091Y-85162537D01*
X102316387Y-85148249D01*
X102401054Y-85166594D01*
X102451854Y-85221627D01*
X102468787Y-85313349D01*
X102452119Y-85425268D01*
X102402112Y-85548299D01*
X102549750Y-85548299D01*
X102580618Y-85456577D01*
X102599139Y-85367677D01*
X102605313Y-85281599D01*
X102587652Y-85151027D01*
X102534669Y-85054587D01*
X102450333Y-84995056D01*
X102338612Y-84975212D01*
X102236913Y-84987118D01*
X102155653Y-85022837D01*
X102094832Y-85082368D01*
X102054450Y-85165712D01*
X102052862Y-85165712D01*
X102019922Y-85075423D01*
X101960787Y-85010931D01*
X101875459Y-84972235D01*
X101763937Y-84959337D01*
X101657222Y-84969259D01*
X101569910Y-84999024D01*
X101502000Y-85048634D01*
X101453493Y-85118087D01*
X101424389Y-85207384D01*
X101414687Y-85316524D01*
X101083958Y-85316524D01*
X101083958Y-84559237D01*
X102010000Y-83941876D01*
G37*
D11*
%TO.C,JP3*%
X100963600Y-72279000D02*
X100963600Y-74229000D01*
X106463600Y-72279000D02*
X100963600Y-72279000D01*
X100963600Y-74229000D02*
X106463600Y-74229000D01*
X106463600Y-74229000D02*
X106463600Y-72279000D01*
%TO.C,JP6*%
X132050000Y-81900000D02*
X126550000Y-81900000D01*
X126550000Y-83850000D02*
X132050000Y-83850000D01*
X126550000Y-81900000D02*
X126550000Y-83850000D01*
X132050000Y-83850000D02*
X132050000Y-81900000D01*
%TO.C,JP5*%
X109750000Y-83825000D02*
X115250000Y-83825000D01*
X109750000Y-81875000D02*
X109750000Y-83825000D01*
X115250000Y-83825000D02*
X115250000Y-81875000D01*
X115250000Y-81875000D02*
X109750000Y-81875000D01*
%TO.C,JP4*%
X101400000Y-81925000D02*
X101400000Y-83875000D01*
X106900000Y-83875000D02*
X106900000Y-81925000D01*
X101400000Y-83875000D02*
X106900000Y-83875000D01*
X106900000Y-81925000D02*
X101400000Y-81925000D01*
%TO.C,JP1*%
X134950000Y-81900000D02*
X134950000Y-83850000D01*
X140450000Y-83850000D02*
X140450000Y-81900000D01*
X140450000Y-81900000D02*
X134950000Y-81900000D01*
X134950000Y-83850000D02*
X140450000Y-83850000D01*
%TO.C,JP2*%
X123700000Y-81900000D02*
X118200000Y-81900000D01*
X118200000Y-83850000D02*
X123700000Y-83850000D01*
X123700000Y-83850000D02*
X123700000Y-81900000D01*
X118200000Y-81900000D02*
X118200000Y-83850000D01*
%TD*%
M02*
