%TF.GenerationSoftware,KiCad,Pcbnew,(6.0.9)*%
%TF.CreationDate,2022-11-18T22:17:03-07:00*%
%TF.ProjectId,AQM,41514d2e-6b69-4636-9164-5f7063625858,rev?*%
%TF.SameCoordinates,Original*%
%TF.FileFunction,Copper,L1,Top*%
%TF.FilePolarity,Positive*%
%FSLAX46Y46*%
G04 Gerber Fmt 4.6, Leading zero omitted, Abs format (unit mm)*
G04 Created by KiCad (PCBNEW (6.0.9)) date 2022-11-18 22:17:03*
%MOMM*%
%LPD*%
G01*
G04 APERTURE LIST*
G04 Aperture macros list*
%AMRoundRect*
0 Rectangle with rounded corners*
0 $1 Rounding radius*
0 $2 $3 $4 $5 $6 $7 $8 $9 X,Y pos of 4 corners*
0 Add a 4 corners polygon primitive as box body*
4,1,4,$2,$3,$4,$5,$6,$7,$8,$9,$2,$3,0*
0 Add four circle primitives for the rounded corners*
1,1,$1+$1,$2,$3*
1,1,$1+$1,$4,$5*
1,1,$1+$1,$6,$7*
1,1,$1+$1,$8,$9*
0 Add four rect primitives between the rounded corners*
20,1,$1+$1,$2,$3,$4,$5,0*
20,1,$1+$1,$4,$5,$6,$7,0*
20,1,$1+$1,$6,$7,$8,$9,0*
20,1,$1+$1,$8,$9,$2,$3,0*%
G04 Aperture macros list end*
%TA.AperFunction,SMDPad,CuDef*%
%ADD10R,3.500000X1.700000*%
%TD*%
%TA.AperFunction,SMDPad,CuDef*%
%ADD11RoundRect,0.250000X0.475000X-0.250000X0.475000X0.250000X-0.475000X0.250000X-0.475000X-0.250000X0*%
%TD*%
%TA.AperFunction,ComponentPad*%
%ADD12C,5.600000*%
%TD*%
%TA.AperFunction,SMDPad,CuDef*%
%ADD13RoundRect,0.150000X-0.625000X0.150000X-0.625000X-0.150000X0.625000X-0.150000X0.625000X0.150000X0*%
%TD*%
%TA.AperFunction,SMDPad,CuDef*%
%ADD14RoundRect,0.250000X-0.650000X0.350000X-0.650000X-0.350000X0.650000X-0.350000X0.650000X0.350000X0*%
%TD*%
%TA.AperFunction,SMDPad,CuDef*%
%ADD15RoundRect,0.250000X-0.475000X0.250000X-0.475000X-0.250000X0.475000X-0.250000X0.475000X0.250000X0*%
%TD*%
%TA.AperFunction,SMDPad,CuDef*%
%ADD16RoundRect,0.150000X0.625000X-0.150000X0.625000X0.150000X-0.625000X0.150000X-0.625000X-0.150000X0*%
%TD*%
%TA.AperFunction,SMDPad,CuDef*%
%ADD17RoundRect,0.250000X0.650000X-0.350000X0.650000X0.350000X-0.650000X0.350000X-0.650000X-0.350000X0*%
%TD*%
%TA.AperFunction,SMDPad,CuDef*%
%ADD18RoundRect,0.150000X0.150000X0.625000X-0.150000X0.625000X-0.150000X-0.625000X0.150000X-0.625000X0*%
%TD*%
%TA.AperFunction,SMDPad,CuDef*%
%ADD19RoundRect,0.250000X0.350000X0.650000X-0.350000X0.650000X-0.350000X-0.650000X0.350000X-0.650000X0*%
%TD*%
%TA.AperFunction,SMDPad,CuDef*%
%ADD20RoundRect,0.250000X-0.250000X-0.475000X0.250000X-0.475000X0.250000X0.475000X-0.250000X0.475000X0*%
%TD*%
%TA.AperFunction,SMDPad,CuDef*%
%ADD21RoundRect,0.250000X0.262500X0.450000X-0.262500X0.450000X-0.262500X-0.450000X0.262500X-0.450000X0*%
%TD*%
%TA.AperFunction,ComponentPad*%
%ADD22R,1.800000X1.800000*%
%TD*%
%TA.AperFunction,ComponentPad*%
%ADD23C,1.800000*%
%TD*%
%TA.AperFunction,ViaPad*%
%ADD24C,0.800000*%
%TD*%
%TA.AperFunction,Conductor*%
%ADD25C,0.500000*%
%TD*%
G04 APERTURE END LIST*
D10*
%TO.P,U1,1,D+*%
%TO.N,unconnected-(U1-Pad1)*%
X145110000Y-51304400D03*
%TO.P,U1,2,TX*%
%TO.N,unconnected-(U1-Pad2)*%
X145110000Y-53844400D03*
%TO.P,U1,3,RX*%
%TO.N,unconnected-(U1-Pad3)*%
X145110000Y-56384400D03*
%TO.P,U1,4,GND*%
%TO.N,GND*%
X145110000Y-58924400D03*
%TO.P,U1,5,GND*%
X145110000Y-61464400D03*
%TO.P,U1,6,D2*%
%TO.N,Net-(R1-Pad1)*%
X145110000Y-64004400D03*
%TO.P,U1,7,D3*%
%TO.N,unconnected-(U1-Pad7)*%
X145110000Y-66544400D03*
%TO.P,U1,8,D4*%
%TO.N,unconnected-(U1-Pad8)*%
X145110000Y-69084400D03*
%TO.P,U1,9,D5*%
%TO.N,unconnected-(U1-Pad9)*%
X145110000Y-71624400D03*
%TO.P,U1,10,D6*%
%TO.N,unconnected-(U1-Pad10)*%
X145110000Y-74164400D03*
%TO.P,U1,11,D7*%
%TO.N,unconnected-(U1-Pad11)*%
X145110000Y-76704400D03*
%TO.P,U1,12,D8*%
%TO.N,unconnected-(U1-Pad12)*%
X145110000Y-79244400D03*
%TO.P,U1,13,D9*%
%TO.N,unconnected-(U1-Pad13)*%
X145110000Y-81784400D03*
%TO.P,U1,14,D10*%
%TO.N,unconnected-(U1-Pad14)*%
X164690000Y-81784400D03*
%TO.P,U1,15,MOSI*%
%TO.N,unconnected-(U1-Pad15)*%
X164690000Y-79244400D03*
%TO.P,U1,16,MISO*%
%TO.N,unconnected-(U1-Pad16)*%
X164690000Y-76704400D03*
%TO.P,U1,17,SCLK*%
%TO.N,unconnected-(U1-Pad17)*%
X164690000Y-74164400D03*
%TO.P,U1,18,A0*%
%TO.N,unconnected-(U1-Pad18)*%
X164690000Y-71624400D03*
%TO.P,U1,19,A1*%
%TO.N,unconnected-(U1-Pad19)*%
X164690000Y-69084400D03*
%TO.P,U1,20,A2*%
%TO.N,unconnected-(U1-Pad20)*%
X164690000Y-66544400D03*
%TO.P,U1,21,A3*%
%TO.N,unconnected-(U1-Pad21)*%
X164690000Y-64004400D03*
%TO.P,U1,22,3V3*%
%TO.N,+3V3*%
X164690000Y-61464400D03*
%TO.P,U1,23,RST*%
%TO.N,unconnected-(U1-Pad23)*%
X164690000Y-58924400D03*
%TO.P,U1,24,GND*%
%TO.N,GND*%
X164690000Y-56384400D03*
%TO.P,U1,25,VBUS*%
%TO.N,VBUS*%
X164690000Y-53844400D03*
%TO.P,U1,26,D-*%
%TO.N,unconnected-(U1-Pad26)*%
X164690000Y-51304400D03*
%TD*%
D11*
%TO.P,C1,1*%
%TO.N,+3V3*%
X167800000Y-61050000D03*
%TO.P,C1,2*%
%TO.N,GND*%
X167800000Y-59150000D03*
%TD*%
D12*
%TO.P,H4,1,1*%
%TO.N,GND*%
X134000000Y-54000000D03*
%TD*%
%TO.P,H3,1,1*%
%TO.N,GND*%
X174000000Y-54000000D03*
%TD*%
%TO.P,H2,1,1*%
%TO.N,GND*%
X134000000Y-94000000D03*
%TD*%
%TO.P,H1,1,1*%
%TO.N,GND*%
X174000000Y-94000000D03*
%TD*%
D13*
%TO.P,J1,1,Pin_1*%
%TO.N,GND*%
X172975000Y-68300000D03*
%TO.P,J1,2,Pin_2*%
%TO.N,Net-(C7-Pad1)*%
X172975000Y-69300000D03*
%TO.P,J1,3,Pin_3*%
%TO.N,/I2C.SDA*%
X172975000Y-70300000D03*
%TO.P,J1,4,Pin_4*%
%TO.N,/I2C.SCL*%
X172975000Y-71300000D03*
D14*
%TO.P,J1,MP*%
%TO.N,N/C*%
X175500000Y-67000000D03*
X175500000Y-72600000D03*
%TD*%
D15*
%TO.P,C11,2*%
%TO.N,GND*%
X139500000Y-81200000D03*
%TO.P,C11,1*%
%TO.N,Net-(C11-Pad1)*%
X139500000Y-79300000D03*
%TD*%
%TO.P,C3,1*%
%TO.N,VBUS*%
X167800000Y-53950000D03*
%TO.P,C3,2*%
%TO.N,GND*%
X167800000Y-55850000D03*
%TD*%
%TO.P,C14,2*%
%TO.N,GND*%
X141500000Y-81200000D03*
%TO.P,C14,1*%
%TO.N,Net-(C11-Pad1)*%
X141500000Y-79300000D03*
%TD*%
D16*
%TO.P,J5,1,Pin_1*%
%TO.N,GND*%
X136525000Y-69650000D03*
%TO.P,J5,2,Pin_2*%
%TO.N,Net-(C10-Pad1)*%
X136525000Y-68650000D03*
%TO.P,J5,3,Pin_3*%
%TO.N,/I2C.SDA*%
X136525000Y-67650000D03*
%TO.P,J5,4,Pin_4*%
%TO.N,/I2C.SCL*%
X136525000Y-66650000D03*
D17*
%TO.P,J5,MP*%
%TO.N,N/C*%
X134000000Y-65350000D03*
X134000000Y-70950000D03*
%TD*%
D15*
%TO.P,C13,1*%
%TO.N,Net-(C10-Pad1)*%
X138800000Y-68275000D03*
%TO.P,C13,2*%
%TO.N,GND*%
X138800000Y-70175000D03*
%TD*%
D14*
%TO.P,J4,MP*%
%TO.N,N/C*%
X175700000Y-82800000D03*
X175700000Y-77200000D03*
D13*
%TO.P,J4,4,Pin_4*%
%TO.N,/I2C.SCL*%
X173175000Y-81500000D03*
%TO.P,J4,3,Pin_3*%
%TO.N,/I2C.SDA*%
X173175000Y-80500000D03*
%TO.P,J4,2,Pin_2*%
%TO.N,Net-(C12-Pad1)*%
X173175000Y-79500000D03*
%TO.P,J4,1,Pin_1*%
%TO.N,GND*%
X173175000Y-78500000D03*
%TD*%
D11*
%TO.P,C12,1*%
%TO.N,Net-(C12-Pad1)*%
X168495000Y-80485000D03*
%TO.P,C12,2*%
%TO.N,GND*%
X168495000Y-78585000D03*
%TD*%
D16*
%TO.P,J3,1,Pin_1*%
%TO.N,GND*%
X136625000Y-81050000D03*
%TO.P,J3,2,Pin_2*%
%TO.N,Net-(C11-Pad1)*%
X136625000Y-80050000D03*
%TO.P,J3,3,Pin_3*%
%TO.N,/I2C.SDA*%
X136625000Y-79050000D03*
%TO.P,J3,4,Pin_4*%
%TO.N,/I2C.SCL*%
X136625000Y-78050000D03*
D17*
%TO.P,J3,MP*%
%TO.N,N/C*%
X134100000Y-82350000D03*
X134100000Y-76750000D03*
%TD*%
D11*
%TO.P,C7,1*%
%TO.N,Net-(C7-Pad1)*%
X168700000Y-69750000D03*
%TO.P,C7,2*%
%TO.N,GND*%
X168700000Y-67850000D03*
%TD*%
D18*
%TO.P,J2,1,Pin_1*%
%TO.N,GND*%
X155900000Y-94200000D03*
%TO.P,J2,2,Pin_2*%
%TO.N,Net-(C5-Pad1)*%
X154900000Y-94200000D03*
%TO.P,J2,3,Pin_3*%
%TO.N,/I2C.SDA*%
X153900000Y-94200000D03*
%TO.P,J2,4,Pin_4*%
%TO.N,/I2C.SCL*%
X152900000Y-94200000D03*
D19*
%TO.P,J2,MP*%
%TO.N,N/C*%
X157200000Y-96725000D03*
X151600000Y-96725000D03*
%TD*%
D20*
%TO.P,C5,1*%
%TO.N,Net-(C5-Pad1)*%
X155450000Y-91500000D03*
%TO.P,C5,2*%
%TO.N,GND*%
X157350000Y-91500000D03*
%TD*%
D21*
%TO.P,R2,1*%
%TO.N,Net-(JP1-Pad1)*%
X141455000Y-73280000D03*
%TO.P,R2,2*%
%TO.N,/I2C.SDA*%
X139630000Y-73280000D03*
%TD*%
%TO.P,R1,1*%
%TO.N,Net-(R1-Pad1)*%
X142212500Y-64150000D03*
%TO.P,R1,2*%
%TO.N,Net-(D1-Pad2)*%
X140387500Y-64150000D03*
%TD*%
%TO.P,R3,1*%
%TO.N,Net-(JP1-Pad1)*%
X141460000Y-75205000D03*
%TO.P,R3,2*%
%TO.N,/I2C.SCL*%
X139635000Y-75205000D03*
%TD*%
D11*
%TO.P,C8,1*%
%TO.N,Net-(C7-Pad1)*%
X170695000Y-69735000D03*
%TO.P,C8,2*%
%TO.N,GND*%
X170695000Y-67835000D03*
%TD*%
D15*
%TO.P,C10,1*%
%TO.N,Net-(C10-Pad1)*%
X140795000Y-68260000D03*
%TO.P,C10,2*%
%TO.N,GND*%
X140795000Y-70160000D03*
%TD*%
D11*
%TO.P,C9,1*%
%TO.N,Net-(C12-Pad1)*%
X170500000Y-80500000D03*
%TO.P,C9,2*%
%TO.N,GND*%
X170500000Y-78600000D03*
%TD*%
D20*
%TO.P,C6,1*%
%TO.N,Net-(C5-Pad1)*%
X155450000Y-89500000D03*
%TO.P,C6,2*%
%TO.N,GND*%
X157350000Y-89500000D03*
%TD*%
D22*
%TO.P,D1,1,K*%
%TO.N,GND*%
X140775000Y-59500000D03*
D23*
%TO.P,D1,2,A*%
%TO.N,Net-(D1-Pad2)*%
X138235000Y-59500000D03*
%TD*%
D11*
%TO.P,C2,1*%
%TO.N,+3V3*%
X169800000Y-61050000D03*
%TO.P,C2,2*%
%TO.N,GND*%
X169800000Y-59150000D03*
%TD*%
D15*
%TO.P,C4,1*%
%TO.N,VBUS*%
X169800000Y-53950000D03*
%TO.P,C4,2*%
%TO.N,GND*%
X169800000Y-55850000D03*
%TD*%
D24*
%TO.N,/I2C.SCL*%
X175100000Y-69050000D03*
X172900000Y-72350000D03*
%TO.N,Net-(C7-Pad1)*%
X169300000Y-70900000D03*
%TO.N,VBUS*%
X168805600Y-53844400D03*
X166705600Y-53844400D03*
%TO.N,+3V3*%
X168850000Y-61050000D03*
X166785600Y-61464400D03*
X170400000Y-66200000D03*
%TO.N,VBUS*%
X167900000Y-65950000D03*
X170600000Y-77200000D03*
%TO.N,+3V3*%
X168050000Y-77000000D03*
%TO.N,/I2C.SCL*%
X157100000Y-86000000D03*
X151300000Y-86000000D03*
%TO.N,VBUS*%
X159000000Y-91600000D03*
%TO.N,+3V3*%
X159000000Y-89000000D03*
%TO.N,Net-(C5-Pad1)*%
X155550000Y-88100000D03*
%TO.N,GND*%
X134250000Y-68800000D03*
X136800000Y-70900000D03*
X140600000Y-71550000D03*
%TO.N,+3V3*%
X137350000Y-72250000D03*
%TO.N,VBUS*%
X138700000Y-76300000D03*
%TO.N,+3V3*%
X141800000Y-82750000D03*
%TO.N,VBUS*%
X139250000Y-82750000D03*
%TO.N,/I2C.SDA*%
X149750000Y-74200000D03*
%TO.N,/I2C.SCL*%
X135305000Y-75205000D03*
X149570729Y-76364500D03*
%TO.N,Net-(C11-Pad1)*%
X140300000Y-78000000D03*
X135150000Y-80100000D03*
%TO.N,+3V3*%
X142250000Y-71200000D03*
%TO.N,VBUS*%
X138450000Y-71400000D03*
%TO.N,Net-(C10-Pad1)*%
X139850000Y-66700000D03*
%TO.N,/I2C.SDA*%
X134550000Y-78800000D03*
X135800000Y-72200000D03*
%TD*%
D25*
%TO.N,/I2C.SCL*%
X175550000Y-68900000D02*
X175250000Y-68900000D01*
%TO.N,/I2C.SDA*%
X174188678Y-80384894D02*
X173786687Y-80460039D01*
X173379477Y-80497773D02*
X173175000Y-80500000D01*
X173786687Y-80460039D02*
X173379477Y-80497773D01*
%TO.N,/I2C.SCL*%
X175550000Y-68900000D02*
G75*
G02*
X178250000Y-71600000I0J-2700000D01*
G01*
X178250000Y-78350000D02*
X178250000Y-71600000D01*
%TO.N,/I2C.SDA*%
X174963359Y-80125247D02*
X174582021Y-80272978D01*
%TO.N,/I2C.SCL*%
X172900000Y-72350000D02*
X172900000Y-71375000D01*
%TO.N,/I2C.SDA*%
X172975000Y-70300000D02*
X176067530Y-70300000D01*
%TO.N,/I2C.SCL*%
X178250000Y-78350000D02*
G75*
G02*
X175100000Y-81500000I-3150000J0D01*
G01*
%TO.N,/I2C.SDA*%
X174582021Y-80272978D02*
X174188678Y-80384894D01*
X177248776Y-71481246D02*
X177248776Y-77839830D01*
%TO.N,/I2C.SCL*%
X173175000Y-81500000D02*
X175100000Y-81500000D01*
%TO.N,/I2C.SDA*%
X177248776Y-77839830D02*
X174963359Y-80125247D01*
%TO.N,/I2C.SCL*%
X175100000Y-69050000D02*
G75*
G02*
X175250000Y-68900000I150000J0D01*
G01*
%TO.N,/I2C.SDA*%
X176067530Y-70300000D02*
X177248776Y-71481246D01*
%TO.N,/I2C.SCL*%
X172975000Y-71300000D02*
G75*
G03*
X172900000Y-71375000I0J-75000D01*
G01*
X150098037Y-75837192D02*
X149570729Y-76364500D01*
X150569414Y-75837226D02*
G75*
G02*
X152899999Y-78600000I-474514J-2764674D01*
G01*
X152900000Y-87200000D02*
X152900000Y-78600000D01*
X150569420Y-75837192D02*
X150098037Y-75837192D01*
%TO.N,Net-(C7-Pad1)*%
X169300000Y-70900000D02*
X169300000Y-70350000D01*
X168700000Y-69750000D02*
G75*
G02*
X169300000Y-70350000I0J-600000D01*
G01*
%TO.N,VBUS*%
X168805600Y-53844400D02*
X169694400Y-53844400D01*
X166705600Y-53844400D02*
X168805600Y-53844400D01*
%TO.N,+3V3*%
X168850000Y-61050000D02*
X169800000Y-61050000D01*
X166785600Y-61464400D02*
X167385600Y-61464400D01*
%TO.N,VBUS*%
X163790000Y-53844400D02*
X166705600Y-53844400D01*
X169800000Y-53950000D02*
G75*
G03*
X169694400Y-53844400I-105600J0D01*
G01*
%TO.N,+3V3*%
X167800000Y-61050000D02*
X168850000Y-61050000D01*
X163790000Y-61464400D02*
X166785600Y-61464400D01*
X167800000Y-61050000D02*
G75*
G02*
X167385600Y-61464400I-414400J0D01*
G01*
%TO.N,/I2C.SCL*%
X152900000Y-94200000D02*
X152900000Y-87200000D01*
X151300000Y-86000000D02*
X151700000Y-86000000D01*
X152900000Y-87200000D02*
G75*
G03*
X151700000Y-86000000I-1200000J0D01*
G01*
X169300000Y-85950000D02*
G75*
G03*
X173175000Y-82075000I0J3875000D01*
G01*
X173175000Y-81500000D02*
X173175000Y-82075000D01*
X169300000Y-85950000D02*
X157150000Y-85950000D01*
X157100000Y-86000000D02*
G75*
G02*
X157150000Y-85950000I50000J0D01*
G01*
%TO.N,/I2C.SDA*%
X153900000Y-78351882D02*
X153900000Y-87300000D01*
X153900000Y-87300000D02*
G75*
G02*
X156850000Y-84350000I2950000J0D01*
G01*
X153900000Y-87300000D02*
X153900000Y-94200000D01*
X171650000Y-81401472D02*
G75*
G02*
X172551472Y-80500000I901500J-28D01*
G01*
X169100000Y-84350000D02*
G75*
G03*
X171650000Y-81800000I0J2550000D01*
G01*
X169100000Y-84350000D02*
X156850000Y-84350000D01*
X173175000Y-80500000D02*
X172551472Y-80500000D01*
X171650000Y-81401472D02*
X171650000Y-81800000D01*
%TO.N,Net-(C5-Pad1)*%
X155550000Y-88100000D02*
G75*
G03*
X155450000Y-88200000I0J-100000D01*
G01*
X155450000Y-89500000D02*
X155450000Y-88200000D01*
X155450000Y-91500000D02*
X155450000Y-89500000D01*
X154900000Y-94200000D02*
X154900000Y-92050000D01*
X155450000Y-91500000D02*
G75*
G03*
X154900000Y-92050000I0J-550000D01*
G01*
%TO.N,/I2C.SDA*%
X153900028Y-78351882D02*
G75*
G03*
X150700593Y-74638202I-3755028J-18D01*
G01*
X149750000Y-74200000D02*
X150188202Y-74638202D01*
X150188202Y-74638202D02*
X150700593Y-74638202D01*
%TO.N,/I2C.SCL*%
X139635000Y-75205000D02*
X135305000Y-75205000D01*
X135305000Y-75205000D02*
X134505000Y-75205000D01*
%TO.N,Net-(C12-Pad1)*%
X171500000Y-79500000D02*
G75*
G03*
X170500000Y-80500000I0J-1000000D01*
G01*
X171500000Y-79500000D02*
X173175000Y-79500000D01*
%TO.N,Net-(C7-Pad1)*%
X170695000Y-69735000D02*
X168715000Y-69735000D01*
X168700000Y-69750000D02*
G75*
G02*
X168715000Y-69735000I15000J0D01*
G01*
X172975000Y-69300000D02*
X171130000Y-69300000D01*
X170695000Y-69735000D02*
G75*
G02*
X171130000Y-69300000I435000J0D01*
G01*
%TO.N,Net-(C11-Pad1)*%
X140300000Y-78100000D02*
X140300000Y-78000000D01*
X140300000Y-78100000D02*
G75*
G03*
X141500000Y-79300000I1200000J0D01*
G01*
X139500000Y-79300000D02*
X141500000Y-79300000D01*
%TO.N,Net-(C12-Pad1)*%
X168900000Y-80500000D02*
X170900000Y-80500000D01*
%TO.N,Net-(C11-Pad1)*%
X135150000Y-80100000D02*
X136575000Y-80100000D01*
X136625000Y-80050000D02*
G75*
G02*
X136575000Y-80100000I-50000J0D01*
G01*
%TO.N,GND*%
X140795000Y-70160000D02*
X140795000Y-70295000D01*
%TO.N,Net-(C10-Pad1)*%
X139960000Y-68260000D02*
X139960000Y-66810000D01*
X139850000Y-66700000D02*
G75*
G02*
X139960000Y-66810000I0J-110000D01*
G01*
X140795000Y-68260000D02*
X139960000Y-68260000D01*
X139960000Y-68260000D02*
X138815000Y-68260000D01*
%TO.N,/I2C.SDA*%
X139630000Y-73280000D02*
X136880000Y-73280000D01*
X135800000Y-72200000D02*
G75*
G03*
X136880000Y-73280000I1080000J0D01*
G01*
X134800000Y-79050000D02*
G75*
G02*
X134550000Y-78800000I0J250000D01*
G01*
X134800000Y-79050000D02*
X136625000Y-79050000D01*
X133500000Y-73250000D02*
G75*
G02*
X131500000Y-71250000I0J2000000D01*
G01*
X131500000Y-69500000D02*
X131500000Y-71250000D01*
X136525000Y-67650000D02*
X133350000Y-67650000D01*
X131500000Y-69500000D02*
G75*
G02*
X133350000Y-67650000I1850000J0D01*
G01*
X133500000Y-73250000D02*
X139600000Y-73250000D01*
X139630000Y-73280000D02*
G75*
G03*
X139600000Y-73250000I-30000J0D01*
G01*
%TO.N,/I2C.SCL*%
X130100000Y-70800000D02*
X130100000Y-69100000D01*
X132650000Y-66550000D02*
G75*
G03*
X130100000Y-69100000I0J-2550000D01*
G01*
X130100000Y-70800000D02*
G75*
G03*
X134505000Y-75205000I4405000J0D01*
G01*
X132650000Y-66550000D02*
X136425000Y-66550000D01*
X136525000Y-66650000D02*
G75*
G03*
X136425000Y-66550000I-100000J0D01*
G01*
X139635000Y-75205000D02*
X139470000Y-75205000D01*
X136625000Y-78050000D02*
G75*
G02*
X139470000Y-75205000I2845000J0D01*
G01*
%TO.N,Net-(C10-Pad1)*%
X138800000Y-68275000D02*
G75*
G02*
X138815000Y-68260000I15000J0D01*
G01*
X136525000Y-68650000D02*
X138425000Y-68650000D01*
X138800000Y-68275000D02*
G75*
G02*
X138425000Y-68650000I-375000J0D01*
G01*
%TO.N,Net-(D1-Pad2)*%
X138235000Y-61997500D02*
X138235000Y-59500000D01*
X138235000Y-61997500D02*
G75*
G03*
X140387500Y-64150000I2152500J0D01*
G01*
%TO.N,Net-(R1-Pad1)*%
X146010000Y-64004400D02*
X142358100Y-64004400D01*
X142358100Y-64004400D02*
X142212500Y-64150000D01*
%TD*%
%TA.AperFunction,Conductor*%
%TO.N,GND*%
G36*
X173950633Y-49308500D02*
G01*
X173970018Y-49310000D01*
X173984851Y-49312310D01*
X173984855Y-49312310D01*
X173993724Y-49313691D01*
X174014183Y-49311016D01*
X174036007Y-49310072D01*
X174403396Y-49326113D01*
X174414345Y-49327071D01*
X174809227Y-49379057D01*
X174820032Y-49380963D01*
X175208885Y-49467170D01*
X175219495Y-49470013D01*
X175599345Y-49589779D01*
X175609658Y-49593532D01*
X175977647Y-49745958D01*
X175987582Y-49750591D01*
X176340878Y-49934506D01*
X176350386Y-49939995D01*
X176382363Y-49960367D01*
X176686289Y-50153989D01*
X176695293Y-50160293D01*
X177011282Y-50402759D01*
X177019685Y-50409811D01*
X177166515Y-50544356D01*
X177313335Y-50678893D01*
X177321107Y-50686665D01*
X177432692Y-50808437D01*
X177590189Y-50980315D01*
X177597241Y-50988718D01*
X177660581Y-51071265D01*
X177839707Y-51304707D01*
X177846011Y-51313711D01*
X178060004Y-51649613D01*
X178065494Y-51659122D01*
X178249400Y-52012400D01*
X178254042Y-52022353D01*
X178406465Y-52390334D01*
X178410221Y-52400655D01*
X178484023Y-52634724D01*
X178529987Y-52780504D01*
X178532830Y-52791115D01*
X178619037Y-53179968D01*
X178620943Y-53190773D01*
X178632779Y-53280679D01*
X178672929Y-53585655D01*
X178673887Y-53596604D01*
X178675584Y-53635461D01*
X178689603Y-53956552D01*
X178688223Y-53981429D01*
X178686309Y-53993724D01*
X178687473Y-54002626D01*
X178687473Y-54002628D01*
X178690436Y-54025283D01*
X178691500Y-54041621D01*
X178691500Y-69658715D01*
X178671498Y-69726836D01*
X178617842Y-69773329D01*
X178547568Y-69783433D01*
X178482988Y-69753939D01*
X178457426Y-69723492D01*
X178430695Y-69678893D01*
X178430689Y-69678884D01*
X178429106Y-69676243D01*
X178357755Y-69580038D01*
X178228528Y-69405795D01*
X178228525Y-69405791D01*
X178226681Y-69403305D01*
X177998478Y-69151522D01*
X177746695Y-68923319D01*
X177728748Y-68910008D01*
X177476242Y-68722737D01*
X177473757Y-68720894D01*
X177471116Y-68719311D01*
X177471107Y-68719305D01*
X177184933Y-68547780D01*
X177184934Y-68547780D01*
X177182292Y-68546197D01*
X177179510Y-68544881D01*
X176877899Y-68402229D01*
X176877890Y-68402225D01*
X176875107Y-68400909D01*
X176715134Y-68343670D01*
X176558068Y-68287470D01*
X176558059Y-68287467D01*
X176555160Y-68286430D01*
X176503918Y-68273595D01*
X176442700Y-68237640D01*
X176410638Y-68174296D01*
X176417912Y-68103673D01*
X176462213Y-68048194D01*
X176473343Y-68041751D01*
X176473946Y-68041550D01*
X176477646Y-68039260D01*
X176477657Y-68039254D01*
X176618120Y-67952332D01*
X176624348Y-67948478D01*
X176749305Y-67823303D01*
X176760377Y-67805341D01*
X176838275Y-67678968D01*
X176838276Y-67678966D01*
X176842115Y-67672738D01*
X176884367Y-67545352D01*
X176895632Y-67511389D01*
X176895632Y-67511387D01*
X176897797Y-67504861D01*
X176898944Y-67493672D01*
X176904760Y-67436898D01*
X176908500Y-67400400D01*
X176908500Y-66599600D01*
X176899211Y-66510072D01*
X176898238Y-66500692D01*
X176898237Y-66500688D01*
X176897526Y-66493834D01*
X176895228Y-66486944D01*
X176843868Y-66333002D01*
X176841550Y-66326054D01*
X176748478Y-66175652D01*
X176623303Y-66050695D01*
X176617072Y-66046854D01*
X176478968Y-65961725D01*
X176478966Y-65961724D01*
X176472738Y-65957885D01*
X176312254Y-65904655D01*
X176311389Y-65904368D01*
X176311387Y-65904368D01*
X176304861Y-65902203D01*
X176298025Y-65901503D01*
X176298022Y-65901502D01*
X176254969Y-65897091D01*
X176200400Y-65891500D01*
X174799600Y-65891500D01*
X174796354Y-65891837D01*
X174796350Y-65891837D01*
X174700692Y-65901762D01*
X174700688Y-65901763D01*
X174693834Y-65902474D01*
X174687298Y-65904655D01*
X174687296Y-65904655D01*
X174662994Y-65912763D01*
X174526054Y-65958450D01*
X174375652Y-66051522D01*
X174250695Y-66176697D01*
X174246855Y-66182927D01*
X174246854Y-66182928D01*
X174218102Y-66229573D01*
X174157885Y-66327262D01*
X174139277Y-66383365D01*
X174105898Y-66484000D01*
X174102203Y-66495139D01*
X174101503Y-66501975D01*
X174101502Y-66501978D01*
X174097091Y-66545031D01*
X174091500Y-66599600D01*
X174091500Y-67400400D01*
X174091837Y-67403646D01*
X174091837Y-67403650D01*
X174092568Y-67410695D01*
X174095173Y-67435794D01*
X174096177Y-67445474D01*
X174083313Y-67515295D01*
X174034742Y-67567077D01*
X173965886Y-67584380D01*
X173906711Y-67566932D01*
X173870221Y-67545352D01*
X173855790Y-67539107D01*
X173709935Y-67496731D01*
X173697333Y-67494430D01*
X173668916Y-67492193D01*
X173663986Y-67492000D01*
X173247115Y-67492000D01*
X173231876Y-67496475D01*
X173230671Y-67497865D01*
X173229000Y-67505548D01*
X173229000Y-68027885D01*
X173233475Y-68043124D01*
X173234865Y-68044329D01*
X173242548Y-68046000D01*
X174236878Y-68046000D01*
X174252117Y-68041525D01*
X174271102Y-68019616D01*
X174275090Y-68010881D01*
X174334814Y-67972494D01*
X174405811Y-67972490D01*
X174436435Y-67986128D01*
X174509427Y-68031121D01*
X174527262Y-68042115D01*
X174578191Y-68059007D01*
X174578781Y-68059203D01*
X174637140Y-68099634D01*
X174664377Y-68165198D01*
X174651843Y-68235080D01*
X174613174Y-68280732D01*
X174603900Y-68287470D01*
X174488747Y-68371134D01*
X174484326Y-68376044D01*
X174484325Y-68376045D01*
X174454561Y-68409101D01*
X174360960Y-68513056D01*
X174358678Y-68511001D01*
X174313023Y-68546248D01*
X174258427Y-68554550D01*
X174250584Y-68554000D01*
X173917570Y-68554000D01*
X173868725Y-68543885D01*
X173863601Y-68540855D01*
X173855993Y-68538645D01*
X173855989Y-68538643D01*
X173767915Y-68513056D01*
X173703831Y-68494438D01*
X173697426Y-68493934D01*
X173697421Y-68493933D01*
X173668958Y-68491693D01*
X173668950Y-68491693D01*
X173666502Y-68491500D01*
X172847000Y-68491500D01*
X172778879Y-68471498D01*
X172732386Y-68417842D01*
X172721000Y-68365500D01*
X172721000Y-67510116D01*
X172716525Y-67494877D01*
X172715135Y-67493672D01*
X172707452Y-67492001D01*
X172286017Y-67492001D01*
X172281080Y-67492195D01*
X172252664Y-67494430D01*
X172240069Y-67496730D01*
X172094207Y-67539108D01*
X172093227Y-67539532D01*
X172092393Y-67539635D01*
X172086600Y-67541318D01*
X172086329Y-67540384D01*
X172022766Y-67548230D01*
X171958787Y-67517453D01*
X171921604Y-67456972D01*
X171917858Y-67436898D01*
X171917744Y-67435794D01*
X171914851Y-67422400D01*
X171863412Y-67268216D01*
X171857239Y-67255038D01*
X171771937Y-67117193D01*
X171762901Y-67105792D01*
X171648171Y-66991261D01*
X171636760Y-66982249D01*
X171498757Y-66897184D01*
X171485576Y-66891037D01*
X171331290Y-66839862D01*
X171317914Y-66836995D01*
X171288059Y-66833936D01*
X171222332Y-66807095D01*
X171181550Y-66748980D01*
X171178661Y-66678043D01*
X171191782Y-66645592D01*
X171231223Y-66577279D01*
X171231224Y-66577278D01*
X171234527Y-66571556D01*
X171293542Y-66389928D01*
X171300129Y-66327262D01*
X171312814Y-66206565D01*
X171313504Y-66200000D01*
X171307190Y-66139928D01*
X171294232Y-66016635D01*
X171294232Y-66016633D01*
X171293542Y-66010072D01*
X171234527Y-65828444D01*
X171213990Y-65792872D01*
X171142341Y-65668774D01*
X171139040Y-65663056D01*
X171067934Y-65584084D01*
X171015675Y-65526045D01*
X171015674Y-65526044D01*
X171011253Y-65521134D01*
X170856752Y-65408882D01*
X170850724Y-65406198D01*
X170850722Y-65406197D01*
X170688319Y-65333891D01*
X170688318Y-65333891D01*
X170682288Y-65331206D01*
X170588887Y-65311353D01*
X170501944Y-65292872D01*
X170501939Y-65292872D01*
X170495487Y-65291500D01*
X170304513Y-65291500D01*
X170298061Y-65292872D01*
X170298056Y-65292872D01*
X170211113Y-65311353D01*
X170117712Y-65331206D01*
X170111682Y-65333891D01*
X170111681Y-65333891D01*
X169949278Y-65406197D01*
X169949276Y-65406198D01*
X169943248Y-65408882D01*
X169788747Y-65521134D01*
X169784326Y-65526044D01*
X169784325Y-65526045D01*
X169732067Y-65584084D01*
X169660960Y-65663056D01*
X169657659Y-65668774D01*
X169586011Y-65792872D01*
X169565473Y-65828444D01*
X169506458Y-66010072D01*
X169505768Y-66016633D01*
X169505768Y-66016635D01*
X169492810Y-66139928D01*
X169486496Y-66200000D01*
X169487186Y-66206565D01*
X169499872Y-66327262D01*
X169506458Y-66389928D01*
X169565473Y-66571556D01*
X169568776Y-66577278D01*
X169568777Y-66577279D01*
X169657512Y-66730972D01*
X169674250Y-66799967D01*
X169651030Y-66867059D01*
X169595223Y-66910946D01*
X169524547Y-66917695D01*
X169495140Y-66908165D01*
X169490580Y-66906038D01*
X169336290Y-66854862D01*
X169322914Y-66851995D01*
X169228562Y-66842328D01*
X169222145Y-66842000D01*
X168972115Y-66842000D01*
X168956876Y-66846475D01*
X168955671Y-66847865D01*
X168954000Y-66855548D01*
X168954000Y-67577885D01*
X168958475Y-67593124D01*
X168959865Y-67594329D01*
X168967548Y-67596000D01*
X169403885Y-67596000D01*
X169437588Y-67586104D01*
X169473086Y-67581000D01*
X170823000Y-67581000D01*
X170891121Y-67601002D01*
X170937614Y-67654658D01*
X170949000Y-67707000D01*
X170949000Y-67963000D01*
X170928998Y-68031121D01*
X170875342Y-68077614D01*
X170823000Y-68089000D01*
X169991115Y-68089000D01*
X169957412Y-68098896D01*
X169921914Y-68104000D01*
X167485116Y-68104000D01*
X167469877Y-68108475D01*
X167468672Y-68109865D01*
X167467001Y-68117548D01*
X167467001Y-68147095D01*
X167467338Y-68153614D01*
X167477257Y-68249206D01*
X167480149Y-68262600D01*
X167531588Y-68416784D01*
X167537761Y-68429962D01*
X167623063Y-68567807D01*
X167632099Y-68579208D01*
X167746828Y-68693738D01*
X167755762Y-68700794D01*
X167796823Y-68758712D01*
X167800053Y-68829635D01*
X167764426Y-68891046D01*
X167756593Y-68897846D01*
X167750652Y-68901522D01*
X167625695Y-69026697D01*
X167621855Y-69032927D01*
X167621854Y-69032928D01*
X167557376Y-69137531D01*
X167532885Y-69177262D01*
X167508332Y-69251288D01*
X167485062Y-69321446D01*
X167477203Y-69345139D01*
X167466500Y-69449600D01*
X167466500Y-70050400D01*
X167466837Y-70053646D01*
X167466837Y-70053650D01*
X167475063Y-70132928D01*
X167477474Y-70156166D01*
X167533450Y-70323946D01*
X167626522Y-70474348D01*
X167751697Y-70599305D01*
X167757927Y-70603145D01*
X167757928Y-70603146D01*
X167856788Y-70664084D01*
X167902262Y-70692115D01*
X167916152Y-70696722D01*
X168063611Y-70745632D01*
X168063613Y-70745632D01*
X168070139Y-70747797D01*
X168076975Y-70748497D01*
X168076978Y-70748498D01*
X168110584Y-70751941D01*
X168174600Y-70758500D01*
X168261431Y-70758500D01*
X168329552Y-70778502D01*
X168376045Y-70832158D01*
X168384970Y-70886830D01*
X168387186Y-70886830D01*
X168387186Y-70893431D01*
X168386496Y-70900000D01*
X168387186Y-70906565D01*
X168404352Y-71069886D01*
X168406458Y-71089928D01*
X168465473Y-71271556D01*
X168468776Y-71277278D01*
X168468777Y-71277279D01*
X168483161Y-71302193D01*
X168560960Y-71436944D01*
X168565378Y-71441851D01*
X168565379Y-71441852D01*
X168587453Y-71466368D01*
X168688747Y-71578866D01*
X168843248Y-71691118D01*
X168849276Y-71693802D01*
X168849278Y-71693803D01*
X168909077Y-71720427D01*
X169017712Y-71768794D01*
X169111113Y-71788647D01*
X169198056Y-71807128D01*
X169198061Y-71807128D01*
X169204513Y-71808500D01*
X169395487Y-71808500D01*
X169401939Y-71807128D01*
X169401944Y-71807128D01*
X169488887Y-71788647D01*
X169582288Y-71768794D01*
X169690923Y-71720427D01*
X169750722Y-71693803D01*
X169750724Y-71693802D01*
X169756752Y-71691118D01*
X169911253Y-71578866D01*
X170012547Y-71466368D01*
X170034621Y-71441852D01*
X170034622Y-71441851D01*
X170039040Y-71436944D01*
X170116839Y-71302193D01*
X170131223Y-71277279D01*
X170131224Y-71277278D01*
X170134527Y-71271556D01*
X170193542Y-71089928D01*
X170195649Y-71069886D01*
X170212814Y-70906565D01*
X170213504Y-70900000D01*
X170212120Y-70886830D01*
X170211683Y-70882668D01*
X170224456Y-70812830D01*
X170272959Y-70760984D01*
X170336993Y-70743500D01*
X171220400Y-70743500D01*
X171223646Y-70743163D01*
X171223650Y-70743163D01*
X171319308Y-70733238D01*
X171319312Y-70733237D01*
X171326166Y-70732526D01*
X171332702Y-70730345D01*
X171332704Y-70730345D01*
X171486998Y-70678868D01*
X171493946Y-70676550D01*
X171553078Y-70639958D01*
X171621526Y-70621121D01*
X171689296Y-70642282D01*
X171734867Y-70696722D01*
X171736057Y-70700013D01*
X171738644Y-70705991D01*
X171740855Y-70713601D01*
X171744890Y-70720424D01*
X171744891Y-70720426D01*
X171754020Y-70735863D01*
X171771478Y-70804679D01*
X171754020Y-70864137D01*
X171748944Y-70872721D01*
X171740855Y-70886399D01*
X171738644Y-70894010D01*
X171738643Y-70894012D01*
X171734996Y-70906565D01*
X171694438Y-71046169D01*
X171691500Y-71083498D01*
X171691500Y-71516502D01*
X171691693Y-71518950D01*
X171691693Y-71518958D01*
X171691865Y-71521134D01*
X171694438Y-71553831D01*
X171704925Y-71589928D01*
X171733196Y-71687237D01*
X171740855Y-71713601D01*
X171744892Y-71720427D01*
X171821509Y-71849980D01*
X171821511Y-71849983D01*
X171825547Y-71856807D01*
X171943193Y-71974453D01*
X171950011Y-71978485D01*
X171950016Y-71978489D01*
X171959964Y-71984372D01*
X172008416Y-72036266D01*
X172021121Y-72106116D01*
X172015658Y-72131758D01*
X172006458Y-72160072D01*
X172005768Y-72166633D01*
X172005768Y-72166635D01*
X172003970Y-72183744D01*
X171986496Y-72350000D01*
X171987186Y-72356565D01*
X172001264Y-72490506D01*
X172006458Y-72539928D01*
X172065473Y-72721556D01*
X172160960Y-72886944D01*
X172288747Y-73028866D01*
X172443248Y-73141118D01*
X172449276Y-73143802D01*
X172449278Y-73143803D01*
X172611681Y-73216109D01*
X172617712Y-73218794D01*
X172711112Y-73238647D01*
X172798056Y-73257128D01*
X172798061Y-73257128D01*
X172804513Y-73258500D01*
X172995487Y-73258500D01*
X173001939Y-73257128D01*
X173001944Y-73257128D01*
X173088888Y-73238647D01*
X173182288Y-73218794D01*
X173188319Y-73216109D01*
X173350722Y-73143803D01*
X173350724Y-73143802D01*
X173356752Y-73141118D01*
X173511253Y-73028866D01*
X173639040Y-72886944D01*
X173734527Y-72721556D01*
X173793542Y-72539928D01*
X173798737Y-72490506D01*
X173812814Y-72356565D01*
X173813504Y-72350000D01*
X173796009Y-72183547D01*
X173808781Y-72113709D01*
X173857283Y-72061863D01*
X173861322Y-72059807D01*
X173863601Y-72059145D01*
X173898031Y-72038783D01*
X173906586Y-72033724D01*
X173975402Y-72016265D01*
X174042734Y-72038783D01*
X174087202Y-72094128D01*
X174096068Y-72155020D01*
X174091500Y-72199600D01*
X174091500Y-73000400D01*
X174091837Y-73003646D01*
X174091837Y-73003650D01*
X174099355Y-73076103D01*
X174102474Y-73106166D01*
X174104655Y-73112702D01*
X174104655Y-73112704D01*
X174148728Y-73244806D01*
X174158450Y-73273946D01*
X174251522Y-73424348D01*
X174376697Y-73549305D01*
X174527262Y-73642115D01*
X174590398Y-73663056D01*
X174688611Y-73695632D01*
X174688613Y-73695632D01*
X174695139Y-73697797D01*
X174701975Y-73698497D01*
X174701978Y-73698498D01*
X174745031Y-73702909D01*
X174799600Y-73708500D01*
X176200400Y-73708500D01*
X176203646Y-73708163D01*
X176203650Y-73708163D01*
X176299308Y-73698238D01*
X176299312Y-73698237D01*
X176306166Y-73697526D01*
X176312706Y-73695344D01*
X176312711Y-73695343D01*
X176324402Y-73691443D01*
X176395351Y-73688859D01*
X176456435Y-73725044D01*
X176488258Y-73788509D01*
X176490276Y-73810967D01*
X176490276Y-75965500D01*
X176470274Y-76033621D01*
X176416618Y-76080114D01*
X176364276Y-76091500D01*
X174999600Y-76091500D01*
X174996354Y-76091837D01*
X174996350Y-76091837D01*
X174900692Y-76101762D01*
X174900688Y-76101763D01*
X174893834Y-76102474D01*
X174887298Y-76104655D01*
X174887296Y-76104655D01*
X174816415Y-76128303D01*
X174726054Y-76158450D01*
X174575652Y-76251522D01*
X174450695Y-76376697D01*
X174446855Y-76382927D01*
X174446854Y-76382928D01*
X174393938Y-76468774D01*
X174357885Y-76527262D01*
X174346792Y-76560706D01*
X174309797Y-76672245D01*
X174302203Y-76695139D01*
X174301503Y-76701975D01*
X174301502Y-76701978D01*
X174298206Y-76734152D01*
X174291500Y-76799600D01*
X174291500Y-77600400D01*
X174295717Y-77641037D01*
X174296177Y-77645474D01*
X174283313Y-77715295D01*
X174234742Y-77767077D01*
X174165886Y-77784380D01*
X174106711Y-77766932D01*
X174070221Y-77745352D01*
X174055790Y-77739107D01*
X173909935Y-77696731D01*
X173897333Y-77694430D01*
X173868916Y-77692193D01*
X173863986Y-77692000D01*
X173447115Y-77692000D01*
X173431876Y-77696475D01*
X173430671Y-77697865D01*
X173429000Y-77705548D01*
X173429000Y-78227885D01*
X173433475Y-78243124D01*
X173434865Y-78244329D01*
X173442548Y-78246000D01*
X174436878Y-78246000D01*
X174452117Y-78241525D01*
X174471102Y-78219616D01*
X174475090Y-78210881D01*
X174534814Y-78172494D01*
X174605811Y-78172490D01*
X174636434Y-78186128D01*
X174727262Y-78242115D01*
X174790398Y-78263056D01*
X174888611Y-78295632D01*
X174888613Y-78295632D01*
X174895139Y-78297797D01*
X174901975Y-78298497D01*
X174901978Y-78298498D01*
X174933837Y-78301762D01*
X174999600Y-78308500D01*
X175403235Y-78308500D01*
X175471356Y-78328502D01*
X175517849Y-78382158D01*
X175527953Y-78452432D01*
X175498459Y-78517012D01*
X175492330Y-78523595D01*
X174671749Y-79344176D01*
X174609437Y-79378202D01*
X174538622Y-79373137D01*
X174481786Y-79330590D01*
X174457043Y-79264971D01*
X174456068Y-79252588D01*
X174456067Y-79252580D01*
X174455562Y-79246169D01*
X174409145Y-79086399D01*
X174395690Y-79063649D01*
X174378230Y-78994835D01*
X174395689Y-78935370D01*
X174404648Y-78920221D01*
X174410893Y-78905790D01*
X174449939Y-78771395D01*
X174449899Y-78757294D01*
X174442630Y-78754000D01*
X174117570Y-78754000D01*
X174068725Y-78743885D01*
X174063601Y-78740855D01*
X174055993Y-78738645D01*
X174055989Y-78738643D01*
X173945655Y-78706589D01*
X173903831Y-78694438D01*
X173897426Y-78693934D01*
X173897421Y-78693933D01*
X173868958Y-78691693D01*
X173868950Y-78691693D01*
X173866502Y-78691500D01*
X173047000Y-78691500D01*
X172978879Y-78671498D01*
X172932386Y-78617842D01*
X172921000Y-78565500D01*
X172921000Y-77710116D01*
X172916525Y-77694877D01*
X172915135Y-77693672D01*
X172907452Y-77692001D01*
X172486017Y-77692001D01*
X172481080Y-77692195D01*
X172452664Y-77694430D01*
X172440069Y-77696730D01*
X172294210Y-77739107D01*
X172279779Y-77745352D01*
X172150322Y-77821911D01*
X172137896Y-77831551D01*
X172031551Y-77937896D01*
X172021911Y-77950322D01*
X171945352Y-78079779D01*
X171939105Y-78094214D01*
X171935267Y-78107426D01*
X171897054Y-78167262D01*
X171832558Y-78196940D01*
X171762256Y-78187037D01*
X171708467Y-78140698D01*
X171694746Y-78112150D01*
X171668412Y-78033216D01*
X171662239Y-78020038D01*
X171576937Y-77882193D01*
X171567901Y-77870792D01*
X171453171Y-77756261D01*
X171452619Y-77755825D01*
X171452340Y-77755432D01*
X171447991Y-77751090D01*
X171448734Y-77750345D01*
X171411560Y-77697905D01*
X171408333Y-77626982D01*
X171421599Y-77593948D01*
X171431223Y-77577279D01*
X171431224Y-77577278D01*
X171434527Y-77571556D01*
X171493542Y-77389928D01*
X171494872Y-77377279D01*
X171512814Y-77206565D01*
X171513504Y-77200000D01*
X171508795Y-77155200D01*
X171494232Y-77016635D01*
X171494232Y-77016633D01*
X171493542Y-77010072D01*
X171434527Y-76828444D01*
X171339040Y-76663056D01*
X171321164Y-76643202D01*
X171215675Y-76526045D01*
X171215674Y-76526044D01*
X171211253Y-76521134D01*
X171062657Y-76413172D01*
X171062094Y-76412763D01*
X171062093Y-76412762D01*
X171056752Y-76408882D01*
X171050724Y-76406198D01*
X171050722Y-76406197D01*
X170888319Y-76333891D01*
X170888318Y-76333891D01*
X170882288Y-76331206D01*
X170788887Y-76311353D01*
X170701944Y-76292872D01*
X170701939Y-76292872D01*
X170695487Y-76291500D01*
X170504513Y-76291500D01*
X170498061Y-76292872D01*
X170498056Y-76292872D01*
X170411113Y-76311353D01*
X170317712Y-76331206D01*
X170311682Y-76333891D01*
X170311681Y-76333891D01*
X170149278Y-76406197D01*
X170149276Y-76406198D01*
X170143248Y-76408882D01*
X170137907Y-76412762D01*
X170137906Y-76412763D01*
X170137343Y-76413172D01*
X169988747Y-76521134D01*
X169984326Y-76526044D01*
X169984325Y-76526045D01*
X169878837Y-76643202D01*
X169860960Y-76663056D01*
X169765473Y-76828444D01*
X169706458Y-77010072D01*
X169705768Y-77016633D01*
X169705768Y-77016635D01*
X169691205Y-77155200D01*
X169686496Y-77200000D01*
X169687186Y-77206565D01*
X169705129Y-77377279D01*
X169706458Y-77389928D01*
X169742230Y-77500020D01*
X169747798Y-77517157D01*
X169749826Y-77588125D01*
X169713163Y-77648923D01*
X169694268Y-77663238D01*
X169575989Y-77736431D01*
X169507537Y-77755269D01*
X169443495Y-77735272D01*
X169442991Y-77736090D01*
X169439784Y-77734113D01*
X169439767Y-77734108D01*
X169439719Y-77734073D01*
X169298757Y-77647184D01*
X169285576Y-77641037D01*
X169131290Y-77589862D01*
X169117914Y-77586995D01*
X169023562Y-77577328D01*
X169017145Y-77577000D01*
X168984152Y-77577000D01*
X168916031Y-77556998D01*
X168869538Y-77503342D01*
X168859434Y-77433068D01*
X168875033Y-77388000D01*
X168881223Y-77377279D01*
X168881224Y-77377278D01*
X168884527Y-77371556D01*
X168943542Y-77189928D01*
X168946046Y-77166109D01*
X168962814Y-77006565D01*
X168963504Y-77000000D01*
X168953661Y-76906352D01*
X168944232Y-76816635D01*
X168944232Y-76816633D01*
X168943542Y-76810072D01*
X168884527Y-76628444D01*
X168876559Y-76614642D01*
X168822571Y-76521134D01*
X168789040Y-76463056D01*
X168689781Y-76352817D01*
X168665675Y-76326045D01*
X168665674Y-76326044D01*
X168661253Y-76321134D01*
X168562154Y-76249134D01*
X168512094Y-76212763D01*
X168512093Y-76212762D01*
X168506752Y-76208882D01*
X168500724Y-76206198D01*
X168500722Y-76206197D01*
X168338319Y-76133891D01*
X168338318Y-76133891D01*
X168332288Y-76131206D01*
X168220441Y-76107432D01*
X168151944Y-76092872D01*
X168151939Y-76092872D01*
X168145487Y-76091500D01*
X167954513Y-76091500D01*
X167948061Y-76092872D01*
X167948056Y-76092872D01*
X167879559Y-76107432D01*
X167767712Y-76131206D01*
X167761682Y-76133891D01*
X167761681Y-76133891D01*
X167599278Y-76206197D01*
X167599276Y-76206198D01*
X167593248Y-76208882D01*
X167587907Y-76212762D01*
X167587906Y-76212763D01*
X167537846Y-76249134D01*
X167438747Y-76321134D01*
X167434326Y-76326044D01*
X167434325Y-76326045D01*
X167410220Y-76352817D01*
X167310960Y-76463056D01*
X167277429Y-76521134D01*
X167223442Y-76614642D01*
X167215473Y-76628444D01*
X167195923Y-76688611D01*
X167194333Y-76693506D01*
X167154259Y-76752112D01*
X167088863Y-76779749D01*
X167018906Y-76767642D01*
X166966600Y-76719636D01*
X166948500Y-76654570D01*
X166948500Y-75806266D01*
X166941745Y-75744084D01*
X166890615Y-75607695D01*
X166817370Y-75509964D01*
X166792522Y-75443459D01*
X166807575Y-75374076D01*
X166817370Y-75358835D01*
X166826844Y-75346194D01*
X166890615Y-75261105D01*
X166941745Y-75124716D01*
X166948500Y-75062534D01*
X166948500Y-73266266D01*
X166941745Y-73204084D01*
X166890615Y-73067695D01*
X166817370Y-72969964D01*
X166792522Y-72903459D01*
X166807575Y-72834076D01*
X166817370Y-72818835D01*
X166890615Y-72721105D01*
X166941745Y-72584716D01*
X166948500Y-72522534D01*
X166948500Y-70726266D01*
X166947943Y-70721134D01*
X166945648Y-70700013D01*
X166941745Y-70664084D01*
X166890615Y-70527695D01*
X166817370Y-70429964D01*
X166792522Y-70363459D01*
X166807575Y-70294076D01*
X166817370Y-70278835D01*
X166818549Y-70277262D01*
X166890615Y-70181105D01*
X166941745Y-70044716D01*
X166948500Y-69982534D01*
X166948500Y-68186266D01*
X166941745Y-68124084D01*
X166890615Y-67987695D01*
X166817370Y-67889964D01*
X166792522Y-67823459D01*
X166807575Y-67754076D01*
X166817370Y-67738835D01*
X166851720Y-67693002D01*
X166890615Y-67641105D01*
X166941745Y-67504716D01*
X166948500Y-67442534D01*
X166948500Y-66579224D01*
X166968502Y-66511103D01*
X167022158Y-66464610D01*
X167092432Y-66454506D01*
X167157012Y-66484000D01*
X167168136Y-66494914D01*
X167284325Y-66623955D01*
X167288747Y-66628866D01*
X167443248Y-66741118D01*
X167449276Y-66743802D01*
X167449278Y-66743803D01*
X167591435Y-66807095D01*
X167617712Y-66818794D01*
X167624173Y-66820167D01*
X167624178Y-66820169D01*
X167651688Y-66826017D01*
X167714162Y-66859745D01*
X167748483Y-66921895D01*
X167743755Y-66992734D01*
X167714664Y-67038281D01*
X167631261Y-67121829D01*
X167622249Y-67133240D01*
X167537184Y-67271243D01*
X167531037Y-67284424D01*
X167479862Y-67438710D01*
X167476995Y-67452086D01*
X167467328Y-67546438D01*
X167467000Y-67552855D01*
X167467000Y-67577885D01*
X167471475Y-67593124D01*
X167472865Y-67594329D01*
X167480548Y-67596000D01*
X168427885Y-67596000D01*
X168443124Y-67591525D01*
X168444329Y-67590135D01*
X168446000Y-67582452D01*
X168446000Y-66860116D01*
X168435519Y-66824420D01*
X168419256Y-66799116D01*
X168419254Y-66728120D01*
X168457636Y-66668392D01*
X168466090Y-66661679D01*
X168468735Y-66659758D01*
X168511253Y-66628866D01*
X168515675Y-66623955D01*
X168634621Y-66491852D01*
X168634622Y-66491851D01*
X168639040Y-66486944D01*
X168734527Y-66321556D01*
X168793542Y-66139928D01*
X168797737Y-66100020D01*
X168812814Y-65956565D01*
X168813504Y-65950000D01*
X168807390Y-65891828D01*
X168794232Y-65766635D01*
X168794232Y-65766633D01*
X168793542Y-65760072D01*
X168734527Y-65578444D01*
X168639040Y-65413056D01*
X168522351Y-65283459D01*
X168515675Y-65276045D01*
X168515674Y-65276044D01*
X168511253Y-65271134D01*
X168356752Y-65158882D01*
X168350724Y-65156198D01*
X168350722Y-65156197D01*
X168188319Y-65083891D01*
X168188318Y-65083891D01*
X168182288Y-65081206D01*
X168088887Y-65061353D01*
X168001944Y-65042872D01*
X168001939Y-65042872D01*
X167995487Y-65041500D01*
X167804513Y-65041500D01*
X167798061Y-65042872D01*
X167798056Y-65042872D01*
X167711113Y-65061353D01*
X167617712Y-65081206D01*
X167611682Y-65083891D01*
X167611681Y-65083891D01*
X167449278Y-65156197D01*
X167449276Y-65156198D01*
X167443248Y-65158882D01*
X167288747Y-65271134D01*
X167284326Y-65276044D01*
X167284325Y-65276045D01*
X167277650Y-65283459D01*
X167160960Y-65413056D01*
X167157659Y-65418774D01*
X167122601Y-65479496D01*
X167071219Y-65528489D01*
X167001505Y-65541925D01*
X166935594Y-65515539D01*
X166895500Y-65460725D01*
X166893768Y-65456105D01*
X166893767Y-65456103D01*
X166890615Y-65447695D01*
X166817370Y-65349964D01*
X166792522Y-65283459D01*
X166807575Y-65214076D01*
X166817370Y-65198835D01*
X166817638Y-65198478D01*
X166890615Y-65101105D01*
X166941745Y-64964716D01*
X166948500Y-64902534D01*
X166948500Y-63106266D01*
X166941745Y-63044084D01*
X166890615Y-62907695D01*
X166817370Y-62809964D01*
X166792522Y-62743459D01*
X166807575Y-62674076D01*
X166817370Y-62658835D01*
X166824240Y-62649669D01*
X166890615Y-62561105D01*
X166941745Y-62424716D01*
X166943547Y-62425392D01*
X166973669Y-62372670D01*
X167034833Y-62340220D01*
X167067888Y-62333194D01*
X167073919Y-62330509D01*
X167236322Y-62258203D01*
X167236324Y-62258202D01*
X167242352Y-62255518D01*
X167253361Y-62247520D01*
X167320228Y-62223663D01*
X167344954Y-62224684D01*
X167364287Y-62227401D01*
X167372429Y-62227515D01*
X167381637Y-62227644D01*
X167381644Y-62227644D01*
X167385600Y-62227699D01*
X167418552Y-62224003D01*
X167422683Y-62223609D01*
X167569649Y-62212042D01*
X167574456Y-62210888D01*
X167574462Y-62210887D01*
X167687213Y-62183818D01*
X167749167Y-62168944D01*
X167753738Y-62167051D01*
X167753740Y-62167050D01*
X167915157Y-62100188D01*
X167919732Y-62098293D01*
X167923951Y-62095707D01*
X167923958Y-62095704D01*
X167954371Y-62077067D01*
X168020205Y-62058500D01*
X168325400Y-62058500D01*
X168328646Y-62058163D01*
X168328650Y-62058163D01*
X168424308Y-62048238D01*
X168424312Y-62048237D01*
X168431166Y-62047526D01*
X168437702Y-62045345D01*
X168437704Y-62045345D01*
X168581112Y-61997500D01*
X168598946Y-61991550D01*
X168635456Y-61968957D01*
X168703908Y-61950120D01*
X168727955Y-61952855D01*
X168748056Y-61957128D01*
X168748061Y-61957128D01*
X168754513Y-61958500D01*
X168912014Y-61958500D01*
X168978129Y-61977240D01*
X168996028Y-61988273D01*
X168996033Y-61988275D01*
X169002262Y-61992115D01*
X169082005Y-62018564D01*
X169163611Y-62045632D01*
X169163613Y-62045632D01*
X169170139Y-62047797D01*
X169176975Y-62048497D01*
X169176978Y-62048498D01*
X169220031Y-62052909D01*
X169274600Y-62058500D01*
X170325400Y-62058500D01*
X170328646Y-62058163D01*
X170328650Y-62058163D01*
X170424308Y-62048238D01*
X170424312Y-62048237D01*
X170431166Y-62047526D01*
X170437702Y-62045345D01*
X170437704Y-62045345D01*
X170581112Y-61997500D01*
X170598946Y-61991550D01*
X170749348Y-61898478D01*
X170874305Y-61773303D01*
X170904533Y-61724265D01*
X170963275Y-61628968D01*
X170963276Y-61628966D01*
X170967115Y-61622738D01*
X171022797Y-61454861D01*
X171033500Y-61350400D01*
X171033500Y-60749600D01*
X171023968Y-60657730D01*
X171023238Y-60650692D01*
X171023237Y-60650688D01*
X171022526Y-60643834D01*
X171001061Y-60579494D01*
X170968868Y-60483002D01*
X170966550Y-60476054D01*
X170873478Y-60325652D01*
X170748303Y-60200695D01*
X170743765Y-60197898D01*
X170703176Y-60140647D01*
X170699946Y-60069724D01*
X170735572Y-60008313D01*
X170744068Y-60000938D01*
X170754207Y-59992902D01*
X170868739Y-59878171D01*
X170877751Y-59866760D01*
X170962816Y-59728757D01*
X170968963Y-59715576D01*
X171020138Y-59561290D01*
X171023005Y-59547914D01*
X171032672Y-59453562D01*
X171033000Y-59447146D01*
X171033000Y-59422115D01*
X171028525Y-59406876D01*
X171027135Y-59405671D01*
X171019452Y-59404000D01*
X167672000Y-59404000D01*
X167603879Y-59383998D01*
X167557386Y-59330342D01*
X167546000Y-59278000D01*
X167546000Y-58877885D01*
X168054000Y-58877885D01*
X168058475Y-58893124D01*
X168059865Y-58894329D01*
X168067548Y-58896000D01*
X169527885Y-58896000D01*
X169543124Y-58891525D01*
X169544329Y-58890135D01*
X169546000Y-58882452D01*
X169546000Y-58877885D01*
X170054000Y-58877885D01*
X170058475Y-58893124D01*
X170059865Y-58894329D01*
X170067548Y-58896000D01*
X171014884Y-58896000D01*
X171030123Y-58891525D01*
X171031328Y-58890135D01*
X171032999Y-58882452D01*
X171032999Y-58852905D01*
X171032662Y-58846386D01*
X171022743Y-58750794D01*
X171019851Y-58737400D01*
X170968412Y-58583216D01*
X170962239Y-58570038D01*
X170876937Y-58432193D01*
X170867901Y-58420792D01*
X170753171Y-58306261D01*
X170741760Y-58297249D01*
X170603757Y-58212184D01*
X170590576Y-58206037D01*
X170436290Y-58154862D01*
X170422914Y-58151995D01*
X170328562Y-58142328D01*
X170322145Y-58142000D01*
X170072115Y-58142000D01*
X170056876Y-58146475D01*
X170055671Y-58147865D01*
X170054000Y-58155548D01*
X170054000Y-58877885D01*
X169546000Y-58877885D01*
X169546000Y-58160116D01*
X169541525Y-58144877D01*
X169540135Y-58143672D01*
X169532452Y-58142001D01*
X169277905Y-58142001D01*
X169271386Y-58142338D01*
X169175794Y-58152257D01*
X169162400Y-58155149D01*
X169008216Y-58206588D01*
X168995038Y-58212761D01*
X168866422Y-58292352D01*
X168797970Y-58311190D01*
X168734003Y-58292468D01*
X168603757Y-58212184D01*
X168590576Y-58206037D01*
X168436290Y-58154862D01*
X168422914Y-58151995D01*
X168328562Y-58142328D01*
X168322145Y-58142000D01*
X168072115Y-58142000D01*
X168056876Y-58146475D01*
X168055671Y-58147865D01*
X168054000Y-58155548D01*
X168054000Y-58877885D01*
X167546000Y-58877885D01*
X167546000Y-58160116D01*
X167541525Y-58144877D01*
X167540135Y-58143672D01*
X167532452Y-58142001D01*
X167277905Y-58142001D01*
X167271386Y-58142338D01*
X167175794Y-58152257D01*
X167162400Y-58155149D01*
X167114376Y-58171171D01*
X167043427Y-58173755D01*
X166982343Y-58137572D01*
X166950518Y-58074107D01*
X166948500Y-58051647D01*
X166948500Y-58026266D01*
X166941745Y-57964084D01*
X166890615Y-57827695D01*
X166817058Y-57729548D01*
X166792210Y-57663042D01*
X166807263Y-57593659D01*
X166817058Y-57578418D01*
X166884786Y-57488049D01*
X166893324Y-57472454D01*
X166938478Y-57352006D01*
X166942105Y-57336751D01*
X166947631Y-57285886D01*
X166948000Y-57279072D01*
X166948000Y-56948132D01*
X166968002Y-56880011D01*
X167021658Y-56833518D01*
X167091932Y-56823414D01*
X167113668Y-56828539D01*
X167163710Y-56845138D01*
X167177086Y-56848005D01*
X167271438Y-56857672D01*
X167277854Y-56858000D01*
X167527885Y-56858000D01*
X167543124Y-56853525D01*
X167544329Y-56852135D01*
X167546000Y-56844452D01*
X167546000Y-56839884D01*
X168054000Y-56839884D01*
X168058475Y-56855123D01*
X168059865Y-56856328D01*
X168067548Y-56857999D01*
X168322095Y-56857999D01*
X168328614Y-56857662D01*
X168424206Y-56847743D01*
X168437600Y-56844851D01*
X168591784Y-56793412D01*
X168604962Y-56787239D01*
X168733578Y-56707648D01*
X168802030Y-56688810D01*
X168865997Y-56707532D01*
X168996243Y-56787816D01*
X169009424Y-56793963D01*
X169163710Y-56845138D01*
X169177086Y-56848005D01*
X169271438Y-56857672D01*
X169277854Y-56858000D01*
X169527885Y-56858000D01*
X169543124Y-56853525D01*
X169544329Y-56852135D01*
X169546000Y-56844452D01*
X169546000Y-56839884D01*
X170054000Y-56839884D01*
X170058475Y-56855123D01*
X170059865Y-56856328D01*
X170067548Y-56857999D01*
X170322095Y-56857999D01*
X170328614Y-56857662D01*
X170424206Y-56847743D01*
X170437600Y-56844851D01*
X170591784Y-56793412D01*
X170604962Y-56787239D01*
X170742807Y-56701937D01*
X170754208Y-56692901D01*
X170868739Y-56578171D01*
X170877751Y-56566760D01*
X170908805Y-56516381D01*
X171849160Y-56516381D01*
X171849237Y-56517470D01*
X171851698Y-56521206D01*
X172125632Y-56731404D01*
X172131262Y-56735259D01*
X172431591Y-56917862D01*
X172437593Y-56921080D01*
X172755897Y-57070184D01*
X172762202Y-57072732D01*
X173094743Y-57186587D01*
X173101313Y-57188446D01*
X173444183Y-57265714D01*
X173450912Y-57266853D01*
X173800143Y-57306643D01*
X173806933Y-57307046D01*
X174158419Y-57308886D01*
X174165220Y-57308554D01*
X174514853Y-57272423D01*
X174521581Y-57271357D01*
X174865274Y-57197676D01*
X174871822Y-57195897D01*
X175205549Y-57085527D01*
X175211891Y-57083041D01*
X175531718Y-56937288D01*
X175537777Y-56934121D01*
X175839995Y-56754676D01*
X175845659Y-56750884D01*
X176126732Y-56539849D01*
X176131958Y-56535464D01*
X176141613Y-56526428D01*
X176149682Y-56512750D01*
X176149654Y-56512024D01*
X176144512Y-56503723D01*
X174012810Y-54372020D01*
X173998869Y-54364408D01*
X173997034Y-54364539D01*
X173990420Y-54368790D01*
X171856774Y-56502437D01*
X171849160Y-56516381D01*
X170908805Y-56516381D01*
X170962816Y-56428757D01*
X170968963Y-56415576D01*
X171020138Y-56261290D01*
X171023005Y-56247914D01*
X171032672Y-56153562D01*
X171033000Y-56147146D01*
X171033000Y-56122115D01*
X171028525Y-56106876D01*
X171027135Y-56105671D01*
X171019452Y-56104000D01*
X170072115Y-56104000D01*
X170056876Y-56108475D01*
X170055671Y-56109865D01*
X170054000Y-56117548D01*
X170054000Y-56839884D01*
X169546000Y-56839884D01*
X169546000Y-56122115D01*
X169541525Y-56106876D01*
X169540135Y-56105671D01*
X169532452Y-56104000D01*
X168072115Y-56104000D01*
X168056876Y-56108475D01*
X168055671Y-56109865D01*
X168054000Y-56117548D01*
X168054000Y-56839884D01*
X167546000Y-56839884D01*
X167546000Y-55722000D01*
X167566002Y-55653879D01*
X167619658Y-55607386D01*
X167672000Y-55596000D01*
X171025556Y-55596000D01*
X171093677Y-55616002D01*
X171137115Y-55663429D01*
X171152799Y-55693303D01*
X171156286Y-55699152D01*
X171352330Y-55990896D01*
X171356433Y-55996340D01*
X171476425Y-56138836D01*
X171489164Y-56147279D01*
X171499608Y-56141181D01*
X173627980Y-54012810D01*
X173634357Y-54001131D01*
X174364408Y-54001131D01*
X174364539Y-54002966D01*
X174368790Y-54009580D01*
X176499009Y-56139798D01*
X176512605Y-56147223D01*
X176522218Y-56140522D01*
X176622518Y-56023912D01*
X176626676Y-56018514D01*
X176825762Y-55728840D01*
X176829310Y-55723029D01*
X176995942Y-55413559D01*
X176998849Y-55407381D01*
X177131090Y-55081713D01*
X177133304Y-55075283D01*
X177229598Y-54737237D01*
X177231105Y-54730607D01*
X177290332Y-54384118D01*
X177291112Y-54377378D01*
X177312668Y-54024925D01*
X177312784Y-54021323D01*
X177312853Y-54001819D01*
X177312761Y-53998194D01*
X177293666Y-53645615D01*
X177292931Y-53638849D01*
X177236130Y-53291985D01*
X177234663Y-53285313D01*
X177140736Y-52946627D01*
X177138562Y-52940163D01*
X177008598Y-52613578D01*
X177005742Y-52607398D01*
X176841269Y-52296763D01*
X176837769Y-52290937D01*
X176640697Y-51999862D01*
X176636590Y-51994453D01*
X176523565Y-51861179D01*
X176510740Y-51852743D01*
X176500416Y-51858795D01*
X174372020Y-53987190D01*
X174364408Y-54001131D01*
X173634357Y-54001131D01*
X173635592Y-53998869D01*
X173635461Y-53997034D01*
X173631210Y-53990420D01*
X171500992Y-51860203D01*
X171487455Y-51852811D01*
X171477753Y-51859599D01*
X171370430Y-51985257D01*
X171366296Y-51990664D01*
X171168215Y-52281041D01*
X171164697Y-52286851D01*
X170999134Y-52596922D01*
X170996259Y-52603087D01*
X170865155Y-52929217D01*
X170862964Y-52935653D01*
X170851696Y-52975740D01*
X170814006Y-53035906D01*
X170749771Y-53066145D01*
X170679385Y-53056855D01*
X170664281Y-53048903D01*
X170603968Y-53011725D01*
X170603966Y-53011724D01*
X170597738Y-53007885D01*
X170496726Y-52974381D01*
X170436389Y-52954368D01*
X170436387Y-52954368D01*
X170429861Y-52952203D01*
X170423025Y-52951503D01*
X170423022Y-52951502D01*
X170371916Y-52946266D01*
X170325400Y-52941500D01*
X169274600Y-52941500D01*
X169271354Y-52941837D01*
X169271350Y-52941837D01*
X169175692Y-52951762D01*
X169175688Y-52951763D01*
X169168834Y-52952474D01*
X169162292Y-52954657D01*
X169162290Y-52954657D01*
X169127511Y-52966260D01*
X169061438Y-52969984D01*
X168987972Y-52954368D01*
X168907544Y-52937272D01*
X168907539Y-52937272D01*
X168901087Y-52935900D01*
X168710113Y-52935900D01*
X168703661Y-52937272D01*
X168703656Y-52937272D01*
X168542787Y-52971466D01*
X168476925Y-52967813D01*
X168468887Y-52965147D01*
X168429861Y-52952203D01*
X168423025Y-52951503D01*
X168423022Y-52951502D01*
X168371916Y-52946266D01*
X168325400Y-52941500D01*
X167274600Y-52941500D01*
X167271354Y-52941837D01*
X167271350Y-52941837D01*
X167175692Y-52951762D01*
X167175688Y-52951763D01*
X167168834Y-52952474D01*
X167162298Y-52954655D01*
X167162296Y-52954655D01*
X167103170Y-52974381D01*
X167032220Y-52976965D01*
X166971136Y-52940781D01*
X166941997Y-52886400D01*
X166941745Y-52884084D01*
X166890615Y-52747695D01*
X166817370Y-52649964D01*
X166792522Y-52583459D01*
X166807575Y-52514076D01*
X166817370Y-52498835D01*
X166885229Y-52408291D01*
X166890615Y-52401105D01*
X166941745Y-52264716D01*
X166948500Y-52202534D01*
X166948500Y-51486862D01*
X171849950Y-51486862D01*
X171849986Y-51487704D01*
X171855037Y-51495826D01*
X173987190Y-53627980D01*
X174001131Y-53635592D01*
X174002966Y-53635461D01*
X174009580Y-53631210D01*
X176142798Y-51497991D01*
X176150412Y-51484047D01*
X176150344Y-51483089D01*
X176145836Y-51476272D01*
X176144418Y-51475065D01*
X175864813Y-51262064D01*
X175859187Y-51258240D01*
X175558214Y-51076681D01*
X175552202Y-51073484D01*
X175233370Y-50925487D01*
X175227070Y-50922967D01*
X174894129Y-50810273D01*
X174887551Y-50808437D01*
X174544417Y-50732367D01*
X174537678Y-50731251D01*
X174188310Y-50692680D01*
X174181529Y-50692301D01*
X173830015Y-50691687D01*
X173823242Y-50692042D01*
X173473720Y-50729395D01*
X173467010Y-50730482D01*
X173123586Y-50805361D01*
X173117011Y-50807172D01*
X172783683Y-50918702D01*
X172777361Y-50921205D01*
X172458034Y-51068079D01*
X172451991Y-51071265D01*
X172150401Y-51251763D01*
X172144755Y-51255571D01*
X171864408Y-51467596D01*
X171859211Y-51471987D01*
X171857972Y-51473155D01*
X171849950Y-51486862D01*
X166948500Y-51486862D01*
X166948500Y-50406266D01*
X166941745Y-50344084D01*
X166890615Y-50207695D01*
X166803261Y-50091139D01*
X166686705Y-50003785D01*
X166550316Y-49952655D01*
X166488134Y-49945900D01*
X162891866Y-49945900D01*
X162829684Y-49952655D01*
X162693295Y-50003785D01*
X162576739Y-50091139D01*
X162489385Y-50207695D01*
X162438255Y-50344084D01*
X162431500Y-50406266D01*
X162431500Y-52202534D01*
X162438255Y-52264716D01*
X162489385Y-52401105D01*
X162494771Y-52408291D01*
X162562630Y-52498835D01*
X162587478Y-52565341D01*
X162572425Y-52634724D01*
X162562632Y-52649962D01*
X162489385Y-52747695D01*
X162438255Y-52884084D01*
X162431500Y-52946266D01*
X162431500Y-54742534D01*
X162438255Y-54804716D01*
X162489385Y-54941105D01*
X162494771Y-54948291D01*
X162562942Y-55039252D01*
X162587790Y-55105758D01*
X162572737Y-55175141D01*
X162562942Y-55190382D01*
X162495214Y-55280751D01*
X162486676Y-55296346D01*
X162441522Y-55416794D01*
X162437895Y-55432049D01*
X162432369Y-55482914D01*
X162432000Y-55489728D01*
X162432000Y-56112285D01*
X162436475Y-56127524D01*
X162437865Y-56128729D01*
X162445548Y-56130400D01*
X164818000Y-56130400D01*
X164886121Y-56150402D01*
X164932614Y-56204058D01*
X164944000Y-56256400D01*
X164944000Y-56512400D01*
X164923998Y-56580521D01*
X164870342Y-56627014D01*
X164818000Y-56638400D01*
X162450116Y-56638400D01*
X162434877Y-56642875D01*
X162433672Y-56644265D01*
X162432001Y-56651948D01*
X162432001Y-57279069D01*
X162432371Y-57285890D01*
X162437895Y-57336752D01*
X162441521Y-57352004D01*
X162486676Y-57472454D01*
X162495214Y-57488049D01*
X162562942Y-57578418D01*
X162587790Y-57644925D01*
X162572737Y-57714307D01*
X162562942Y-57729548D01*
X162489385Y-57827695D01*
X162438255Y-57964084D01*
X162431500Y-58026266D01*
X162431500Y-59822534D01*
X162438255Y-59884716D01*
X162489385Y-60021105D01*
X162512692Y-60052203D01*
X162562630Y-60118835D01*
X162587478Y-60185341D01*
X162572425Y-60254724D01*
X162562632Y-60269962D01*
X162489385Y-60367695D01*
X162438255Y-60504084D01*
X162431500Y-60566266D01*
X162431500Y-62362534D01*
X162438255Y-62424716D01*
X162489385Y-62561105D01*
X162555760Y-62649669D01*
X162562630Y-62658835D01*
X162587478Y-62725341D01*
X162572425Y-62794724D01*
X162562632Y-62809962D01*
X162489385Y-62907695D01*
X162438255Y-63044084D01*
X162431500Y-63106266D01*
X162431500Y-64902534D01*
X162438255Y-64964716D01*
X162489385Y-65101105D01*
X162562362Y-65198478D01*
X162562630Y-65198835D01*
X162587478Y-65265341D01*
X162572425Y-65334724D01*
X162562632Y-65349962D01*
X162489385Y-65447695D01*
X162438255Y-65584084D01*
X162431500Y-65646266D01*
X162431500Y-67442534D01*
X162438255Y-67504716D01*
X162489385Y-67641105D01*
X162528280Y-67693002D01*
X162562630Y-67738835D01*
X162587478Y-67805341D01*
X162572425Y-67874724D01*
X162562632Y-67889962D01*
X162489385Y-67987695D01*
X162438255Y-68124084D01*
X162431500Y-68186266D01*
X162431500Y-69982534D01*
X162438255Y-70044716D01*
X162489385Y-70181105D01*
X162561451Y-70277262D01*
X162562630Y-70278835D01*
X162587478Y-70345341D01*
X162572425Y-70414724D01*
X162562632Y-70429962D01*
X162489385Y-70527695D01*
X162438255Y-70664084D01*
X162434352Y-70700013D01*
X162432058Y-70721134D01*
X162431500Y-70726266D01*
X162431500Y-72522534D01*
X162438255Y-72584716D01*
X162489385Y-72721105D01*
X162562630Y-72818835D01*
X162587478Y-72885341D01*
X162572425Y-72954724D01*
X162562632Y-72969962D01*
X162489385Y-73067695D01*
X162438255Y-73204084D01*
X162431500Y-73266266D01*
X162431500Y-75062534D01*
X162438255Y-75124716D01*
X162489385Y-75261105D01*
X162553156Y-75346194D01*
X162562630Y-75358835D01*
X162587478Y-75425341D01*
X162572425Y-75494724D01*
X162562632Y-75509962D01*
X162489385Y-75607695D01*
X162438255Y-75744084D01*
X162431500Y-75806266D01*
X162431500Y-77602534D01*
X162438255Y-77664716D01*
X162489385Y-77801105D01*
X162557732Y-77892300D01*
X162562630Y-77898835D01*
X162587478Y-77965341D01*
X162572425Y-78034724D01*
X162562632Y-78049962D01*
X162489385Y-78147695D01*
X162438255Y-78284084D01*
X162431500Y-78346266D01*
X162431500Y-80142534D01*
X162438255Y-80204716D01*
X162489385Y-80341105D01*
X162500745Y-80356262D01*
X162562630Y-80438835D01*
X162587478Y-80505341D01*
X162572425Y-80574724D01*
X162562632Y-80589962D01*
X162489385Y-80687695D01*
X162438255Y-80824084D01*
X162431500Y-80886266D01*
X162431500Y-82682534D01*
X162438255Y-82744716D01*
X162489385Y-82881105D01*
X162576739Y-82997661D01*
X162693295Y-83085015D01*
X162829684Y-83136145D01*
X162891866Y-83142900D01*
X166488134Y-83142900D01*
X166550316Y-83136145D01*
X166686705Y-83085015D01*
X166803261Y-82997661D01*
X166890615Y-82881105D01*
X166941745Y-82744716D01*
X166948500Y-82682534D01*
X166948500Y-80886266D01*
X166941745Y-80824084D01*
X166890615Y-80687695D01*
X166817370Y-80589964D01*
X166792522Y-80523459D01*
X166807575Y-80454076D01*
X166817370Y-80438835D01*
X166879255Y-80356262D01*
X166890615Y-80341105D01*
X166941745Y-80204716D01*
X166948500Y-80142534D01*
X166948500Y-78346266D01*
X166941745Y-78284084D01*
X166890615Y-78147695D01*
X166817370Y-78049964D01*
X166792522Y-77983459D01*
X166807575Y-77914076D01*
X166817370Y-77898835D01*
X166822268Y-77892300D01*
X166890615Y-77801105D01*
X166941745Y-77664716D01*
X166948500Y-77602534D01*
X166948500Y-77345430D01*
X166968502Y-77277309D01*
X167022158Y-77230816D01*
X167092432Y-77220712D01*
X167157012Y-77250206D01*
X167194333Y-77306494D01*
X167215473Y-77371556D01*
X167218776Y-77377278D01*
X167218777Y-77377279D01*
X167222291Y-77383365D01*
X167310960Y-77536944D01*
X167437139Y-77677080D01*
X167467854Y-77741084D01*
X167459091Y-77811537D01*
X167432673Y-77850406D01*
X167426261Y-77856829D01*
X167417249Y-77868240D01*
X167332184Y-78006243D01*
X167326037Y-78019424D01*
X167274862Y-78173710D01*
X167271995Y-78187086D01*
X167262328Y-78281438D01*
X167262000Y-78287855D01*
X167262000Y-78312885D01*
X167266475Y-78328124D01*
X167267865Y-78329329D01*
X167275548Y-78331000D01*
X169711487Y-78331000D01*
X169741910Y-78339933D01*
X169742441Y-78337493D01*
X169781548Y-78346000D01*
X170628000Y-78346000D01*
X170696121Y-78366002D01*
X170742614Y-78419658D01*
X170754000Y-78472000D01*
X170754000Y-78728000D01*
X170733998Y-78796121D01*
X170680342Y-78842614D01*
X170628000Y-78854000D01*
X169283513Y-78854000D01*
X169253090Y-78845067D01*
X169252559Y-78847507D01*
X169213452Y-78839000D01*
X167280116Y-78839000D01*
X167264877Y-78843475D01*
X167263672Y-78844865D01*
X167262001Y-78852548D01*
X167262001Y-78882095D01*
X167262338Y-78888614D01*
X167272257Y-78984206D01*
X167275149Y-78997600D01*
X167326588Y-79151784D01*
X167332761Y-79164962D01*
X167418063Y-79302807D01*
X167427099Y-79314208D01*
X167541828Y-79428738D01*
X167550762Y-79435794D01*
X167591823Y-79493712D01*
X167595053Y-79564635D01*
X167559426Y-79626046D01*
X167551593Y-79632846D01*
X167545652Y-79636522D01*
X167420695Y-79761697D01*
X167416855Y-79767927D01*
X167416854Y-79767928D01*
X167332649Y-79904534D01*
X167327885Y-79912262D01*
X167325581Y-79919209D01*
X167291055Y-80023303D01*
X167272203Y-80080139D01*
X167271503Y-80086975D01*
X167271502Y-80086978D01*
X167270780Y-80094029D01*
X167261500Y-80184600D01*
X167261500Y-80785400D01*
X167261837Y-80788646D01*
X167261837Y-80788650D01*
X167269583Y-80863299D01*
X167272474Y-80891166D01*
X167274655Y-80897702D01*
X167274655Y-80897704D01*
X167303351Y-80983716D01*
X167328450Y-81058946D01*
X167421522Y-81209348D01*
X167426704Y-81214521D01*
X167453730Y-81241500D01*
X167546697Y-81334305D01*
X167552927Y-81338145D01*
X167552928Y-81338146D01*
X167655743Y-81401522D01*
X167697262Y-81427115D01*
X167749432Y-81444419D01*
X167858611Y-81480632D01*
X167858613Y-81480632D01*
X167865139Y-81482797D01*
X167871975Y-81483497D01*
X167871978Y-81483498D01*
X167915031Y-81487909D01*
X167969600Y-81493500D01*
X169020400Y-81493500D01*
X169023646Y-81493163D01*
X169023650Y-81493163D01*
X169119308Y-81483238D01*
X169119312Y-81483237D01*
X169126166Y-81482526D01*
X169132702Y-81480345D01*
X169132704Y-81480345D01*
X169264806Y-81436272D01*
X169293946Y-81426550D01*
X169418976Y-81349179D01*
X169487424Y-81330342D01*
X169551125Y-81350233D01*
X169551697Y-81349305D01*
X169677928Y-81427115D01*
X169702262Y-81442115D01*
X169743491Y-81455790D01*
X169863611Y-81495632D01*
X169863613Y-81495632D01*
X169870139Y-81497797D01*
X169876975Y-81498497D01*
X169876978Y-81498498D01*
X169920031Y-81502909D01*
X169974600Y-81508500D01*
X170765500Y-81508500D01*
X170833621Y-81528502D01*
X170880114Y-81582158D01*
X170891500Y-81634500D01*
X170891500Y-81744017D01*
X170890506Y-81759809D01*
X170886775Y-81789343D01*
X170889021Y-81812248D01*
X170889352Y-81832775D01*
X170876713Y-82025596D01*
X170874562Y-82041936D01*
X170840525Y-82213056D01*
X170832067Y-82255576D01*
X170827803Y-82271489D01*
X170758224Y-82476462D01*
X170757785Y-82477756D01*
X170751478Y-82492982D01*
X170658003Y-82682534D01*
X170655138Y-82688343D01*
X170646899Y-82702613D01*
X170610850Y-82756565D01*
X170525883Y-82883726D01*
X170515850Y-82896801D01*
X170372227Y-83060572D01*
X170360572Y-83072227D01*
X170196801Y-83215850D01*
X170183726Y-83225883D01*
X170113679Y-83272687D01*
X170002613Y-83346899D01*
X169988347Y-83355136D01*
X169922325Y-83387694D01*
X169792982Y-83451478D01*
X169777758Y-83457784D01*
X169571489Y-83527803D01*
X169555579Y-83532066D01*
X169496574Y-83543803D01*
X169341936Y-83574562D01*
X169325596Y-83576713D01*
X169143692Y-83588636D01*
X169119666Y-83587913D01*
X169110657Y-83586775D01*
X169070817Y-83590681D01*
X169068598Y-83590899D01*
X169056302Y-83591500D01*
X156912151Y-83591500D01*
X156894618Y-83590274D01*
X156885624Y-83589010D01*
X156875221Y-83587548D01*
X156875218Y-83587548D01*
X156871313Y-83586999D01*
X156862049Y-83586869D01*
X156853954Y-83586756D01*
X156853949Y-83586756D01*
X156850000Y-83586701D01*
X156846067Y-83587142D01*
X156843398Y-83587273D01*
X156840879Y-83587476D01*
X156650101Y-83596848D01*
X156489154Y-83604755D01*
X156489149Y-83604755D01*
X156486065Y-83604907D01*
X156125635Y-83658372D01*
X156103961Y-83663801D01*
X155775181Y-83746155D01*
X155775171Y-83746158D01*
X155772181Y-83746907D01*
X155769282Y-83747944D01*
X155769273Y-83747947D01*
X155600644Y-83808284D01*
X155429107Y-83869661D01*
X155426324Y-83870977D01*
X155426315Y-83870981D01*
X155102499Y-84024135D01*
X155099717Y-84025451D01*
X155097075Y-84027034D01*
X155097076Y-84027034D01*
X154849277Y-84175559D01*
X154780565Y-84193424D01*
X154713102Y-84171304D01*
X154668308Y-84116222D01*
X154658500Y-84067485D01*
X154658500Y-78414030D01*
X154659726Y-78396496D01*
X154662451Y-78377104D01*
X154663001Y-78373191D01*
X154663299Y-78351878D01*
X154662859Y-78347952D01*
X154662690Y-78344495D01*
X154662533Y-78342494D01*
X154645235Y-77953595D01*
X154645234Y-77953587D01*
X154645110Y-77950793D01*
X154642611Y-77932158D01*
X154592106Y-77555656D01*
X154592106Y-77555654D01*
X154591733Y-77552876D01*
X154503241Y-77161268D01*
X154380334Y-76779062D01*
X154271277Y-76521134D01*
X154225071Y-76411854D01*
X154225068Y-76411847D01*
X154223981Y-76409277D01*
X154035418Y-76054832D01*
X153890953Y-75833274D01*
X153817661Y-75720870D01*
X153817658Y-75720866D01*
X153816133Y-75718527D01*
X153567858Y-75403016D01*
X153292553Y-75110792D01*
X153238227Y-75062534D01*
X152994504Y-74846037D01*
X152994502Y-74846035D01*
X152992393Y-74844162D01*
X152669748Y-74605232D01*
X152409989Y-74446500D01*
X152329556Y-74397349D01*
X152329548Y-74397345D01*
X152327166Y-74395889D01*
X152308430Y-74386615D01*
X151969859Y-74219026D01*
X151969851Y-74219023D01*
X151967351Y-74217785D01*
X151938487Y-74206565D01*
X151595757Y-74073342D01*
X151595758Y-74073342D01*
X151593146Y-74072327D01*
X151207506Y-73960664D01*
X151204765Y-73960128D01*
X151204759Y-73960127D01*
X151056208Y-73931103D01*
X150850790Y-73890968D01*
X150839149Y-73888112D01*
X150838589Y-73887946D01*
X150838361Y-73887878D01*
X150838359Y-73887877D01*
X150834565Y-73886753D01*
X150830660Y-73886113D01*
X150830657Y-73886112D01*
X150817430Y-73883943D01*
X150817425Y-73883942D01*
X150813531Y-73883304D01*
X150811301Y-73883222D01*
X150806026Y-73882318D01*
X150805987Y-73882573D01*
X150800434Y-73881728D01*
X150794983Y-73880394D01*
X150789381Y-73880046D01*
X150789378Y-73880046D01*
X150785768Y-73879822D01*
X150785758Y-73879822D01*
X150783829Y-73879702D01*
X150718042Y-73879702D01*
X150713405Y-73879617D01*
X150681553Y-73878444D01*
X150614215Y-73855948D01*
X150577071Y-73815529D01*
X150492342Y-73668774D01*
X150492339Y-73668769D01*
X150489040Y-73663056D01*
X150460578Y-73631445D01*
X150365675Y-73526045D01*
X150365674Y-73526044D01*
X150361253Y-73521134D01*
X150206752Y-73408882D01*
X150200724Y-73406198D01*
X150200722Y-73406197D01*
X150038319Y-73333891D01*
X150038318Y-73333891D01*
X150032288Y-73331206D01*
X149938887Y-73311353D01*
X149851944Y-73292872D01*
X149851939Y-73292872D01*
X149845487Y-73291500D01*
X149654513Y-73291500D01*
X149648061Y-73292872D01*
X149648056Y-73292872D01*
X149561113Y-73311353D01*
X149467712Y-73331206D01*
X149461682Y-73333891D01*
X149461681Y-73333891D01*
X149299278Y-73406197D01*
X149299276Y-73406198D01*
X149293248Y-73408882D01*
X149138747Y-73521134D01*
X149134326Y-73526044D01*
X149134325Y-73526045D01*
X149039423Y-73631445D01*
X149010960Y-73663056D01*
X148984912Y-73708172D01*
X148938530Y-73788509D01*
X148915473Y-73828444D01*
X148856458Y-74010072D01*
X148855768Y-74016633D01*
X148855768Y-74016635D01*
X148852966Y-74043299D01*
X148836496Y-74200000D01*
X148856458Y-74389928D01*
X148915473Y-74571556D01*
X148918776Y-74577278D01*
X148918777Y-74577279D01*
X148934916Y-74605232D01*
X149010960Y-74736944D01*
X149015378Y-74741851D01*
X149015379Y-74741852D01*
X149107499Y-74844162D01*
X149138747Y-74878866D01*
X149293248Y-74991118D01*
X149299276Y-74993802D01*
X149299278Y-74993803D01*
X149461681Y-75066109D01*
X149467712Y-75068794D01*
X149474167Y-75070166D01*
X149474170Y-75070167D01*
X149508732Y-75077513D01*
X149571206Y-75111241D01*
X149605527Y-75173390D01*
X149600800Y-75244229D01*
X149574008Y-75287414D01*
X149554908Y-75307576D01*
X149552531Y-75310017D01*
X149414398Y-75448150D01*
X149351501Y-75482301D01*
X149294905Y-75494331D01*
X149294896Y-75494334D01*
X149288441Y-75495706D01*
X149282411Y-75498391D01*
X149282410Y-75498391D01*
X149120007Y-75570697D01*
X149120005Y-75570698D01*
X149113977Y-75573382D01*
X148959476Y-75685634D01*
X148955055Y-75690544D01*
X148955054Y-75690545D01*
X148847622Y-75809861D01*
X148831689Y-75827556D01*
X148828388Y-75833274D01*
X148753202Y-75963500D01*
X148736202Y-75992944D01*
X148677187Y-76174572D01*
X148676497Y-76181133D01*
X148676497Y-76181135D01*
X148660724Y-76331206D01*
X148657225Y-76364500D01*
X148657915Y-76371065D01*
X148673280Y-76517251D01*
X148677187Y-76554428D01*
X148736202Y-76736056D01*
X148739505Y-76741778D01*
X148739506Y-76741779D01*
X148761032Y-76779062D01*
X148831689Y-76901444D01*
X148836107Y-76906351D01*
X148836108Y-76906352D01*
X148925555Y-77005693D01*
X148959476Y-77043366D01*
X149019859Y-77087237D01*
X149078489Y-77129834D01*
X149113977Y-77155618D01*
X149120005Y-77158302D01*
X149120007Y-77158303D01*
X149232752Y-77208500D01*
X149288441Y-77233294D01*
X149374239Y-77251531D01*
X149468785Y-77271628D01*
X149468790Y-77271628D01*
X149475242Y-77273000D01*
X149666216Y-77273000D01*
X149672668Y-77271628D01*
X149672673Y-77271628D01*
X149767219Y-77251531D01*
X149853017Y-77233294D01*
X149908706Y-77208500D01*
X150021451Y-77158303D01*
X150021453Y-77158302D01*
X150027481Y-77155618D01*
X150062970Y-77129834D01*
X150121599Y-77087237D01*
X150181982Y-77043366D01*
X150215903Y-77005693D01*
X150305350Y-76906352D01*
X150305351Y-76906351D01*
X150309769Y-76901444D01*
X150380426Y-76779062D01*
X150401952Y-76741779D01*
X150401953Y-76741778D01*
X150405256Y-76736056D01*
X150417529Y-76698282D01*
X150457602Y-76639678D01*
X150522999Y-76612040D01*
X150566530Y-76614642D01*
X150641296Y-76632434D01*
X150686547Y-76643202D01*
X150701870Y-76647896D01*
X150827039Y-76695139D01*
X150930407Y-76734154D01*
X150945004Y-76740752D01*
X151160739Y-76855322D01*
X151174387Y-76863725D01*
X151373833Y-77004755D01*
X151386304Y-77014821D01*
X151566240Y-77180032D01*
X151577313Y-77191581D01*
X151734829Y-77378307D01*
X151744354Y-77391179D01*
X151876884Y-77596377D01*
X151884703Y-77610361D01*
X151990111Y-77830719D01*
X151996090Y-77845578D01*
X152005456Y-77873946D01*
X152072675Y-78077544D01*
X152076721Y-78093051D01*
X152123238Y-78332845D01*
X152125283Y-78348741D01*
X152138674Y-78556631D01*
X152137951Y-78580443D01*
X152137646Y-78582866D01*
X152137646Y-78582874D01*
X152136768Y-78589860D01*
X152137460Y-78596869D01*
X152137460Y-78596873D01*
X152140890Y-78631606D01*
X152141500Y-78643987D01*
X152141500Y-85137419D01*
X152121498Y-85205540D01*
X152067842Y-85252033D01*
X151990919Y-85260998D01*
X151960227Y-85254893D01*
X151960224Y-85254893D01*
X151956184Y-85254089D01*
X151952071Y-85253819D01*
X151952068Y-85253819D01*
X151907712Y-85250912D01*
X151841719Y-85246587D01*
X151775897Y-85222792D01*
X151762091Y-85212761D01*
X151756752Y-85208882D01*
X151750722Y-85206197D01*
X151588319Y-85133891D01*
X151588318Y-85133891D01*
X151582288Y-85131206D01*
X151484715Y-85110466D01*
X151401944Y-85092872D01*
X151401939Y-85092872D01*
X151395487Y-85091500D01*
X151204513Y-85091500D01*
X151198061Y-85092872D01*
X151198056Y-85092872D01*
X151115285Y-85110466D01*
X151017712Y-85131206D01*
X151011682Y-85133891D01*
X151011681Y-85133891D01*
X150849278Y-85206197D01*
X150849276Y-85206198D01*
X150843248Y-85208882D01*
X150837909Y-85212761D01*
X150837906Y-85212763D01*
X150794632Y-85244204D01*
X150688747Y-85321134D01*
X150560960Y-85463056D01*
X150465473Y-85628444D01*
X150406458Y-85810072D01*
X150386496Y-86000000D01*
X150406458Y-86189928D01*
X150465473Y-86371556D01*
X150560960Y-86536944D01*
X150565378Y-86541851D01*
X150565379Y-86541852D01*
X150656285Y-86642813D01*
X150688747Y-86678866D01*
X150736064Y-86713244D01*
X150831051Y-86782256D01*
X150843248Y-86791118D01*
X150849276Y-86793802D01*
X150849278Y-86793803D01*
X151011681Y-86866109D01*
X151017712Y-86868794D01*
X151107184Y-86887812D01*
X151198056Y-86907128D01*
X151198061Y-86907128D01*
X151204513Y-86908500D01*
X151395487Y-86908500D01*
X151401939Y-86907128D01*
X151401944Y-86907128D01*
X151492816Y-86887812D01*
X151582288Y-86868794D01*
X151755467Y-86791690D01*
X151825834Y-86782256D01*
X151854933Y-86790388D01*
X151905425Y-86811302D01*
X151933904Y-86827744D01*
X151999033Y-86877718D01*
X152022282Y-86900967D01*
X152072256Y-86966096D01*
X152088698Y-86994575D01*
X152120108Y-87070407D01*
X152128621Y-87102178D01*
X152136610Y-87162860D01*
X152137676Y-87181066D01*
X152137658Y-87182355D01*
X152136775Y-87189343D01*
X152137462Y-87196350D01*
X152137462Y-87196354D01*
X152140899Y-87231402D01*
X152141500Y-87243698D01*
X152141500Y-93291246D01*
X152136497Y-93326398D01*
X152094438Y-93471169D01*
X152093934Y-93477574D01*
X152093933Y-93477579D01*
X152091693Y-93506042D01*
X152091500Y-93508498D01*
X152091500Y-94891502D01*
X152091693Y-94893950D01*
X152091693Y-94893958D01*
X152093927Y-94922333D01*
X152094438Y-94928831D01*
X152096233Y-94935008D01*
X152138643Y-95080988D01*
X152138644Y-95080990D01*
X152140855Y-95088601D01*
X152144891Y-95095425D01*
X152166276Y-95131586D01*
X152183735Y-95200402D01*
X152161217Y-95267734D01*
X152105872Y-95312202D01*
X152044980Y-95321068D01*
X152000400Y-95316500D01*
X151199600Y-95316500D01*
X151196354Y-95316837D01*
X151196350Y-95316837D01*
X151100692Y-95326762D01*
X151100688Y-95326763D01*
X151093834Y-95327474D01*
X151087298Y-95329655D01*
X151087296Y-95329655D01*
X151075316Y-95333652D01*
X150926054Y-95383450D01*
X150775652Y-95476522D01*
X150650695Y-95601697D01*
X150646855Y-95607927D01*
X150646854Y-95607928D01*
X150572323Y-95728840D01*
X150557885Y-95752262D01*
X150502203Y-95920139D01*
X150491500Y-96024600D01*
X150491500Y-97425400D01*
X150502474Y-97531166D01*
X150558450Y-97698946D01*
X150651522Y-97849348D01*
X150776697Y-97974305D01*
X150782927Y-97978145D01*
X150782928Y-97978146D01*
X150920520Y-98062959D01*
X150927262Y-98067115D01*
X151007005Y-98093564D01*
X151088611Y-98120632D01*
X151088613Y-98120632D01*
X151095139Y-98122797D01*
X151101975Y-98123497D01*
X151101978Y-98123498D01*
X151145031Y-98127909D01*
X151199600Y-98133500D01*
X152000400Y-98133500D01*
X152003646Y-98133163D01*
X152003650Y-98133163D01*
X152099308Y-98123238D01*
X152099312Y-98123237D01*
X152106166Y-98122526D01*
X152112702Y-98120345D01*
X152112704Y-98120345D01*
X152244806Y-98076272D01*
X152273946Y-98066550D01*
X152424348Y-97973478D01*
X152549305Y-97848303D01*
X152642115Y-97697738D01*
X152697797Y-97529861D01*
X152708500Y-97425400D01*
X156091500Y-97425400D01*
X156102474Y-97531166D01*
X156158450Y-97698946D01*
X156251522Y-97849348D01*
X156376697Y-97974305D01*
X156382927Y-97978145D01*
X156382928Y-97978146D01*
X156520520Y-98062959D01*
X156527262Y-98067115D01*
X156607005Y-98093564D01*
X156688611Y-98120632D01*
X156688613Y-98120632D01*
X156695139Y-98122797D01*
X156701975Y-98123497D01*
X156701978Y-98123498D01*
X156745031Y-98127909D01*
X156799600Y-98133500D01*
X157600400Y-98133500D01*
X157603646Y-98133163D01*
X157603650Y-98133163D01*
X157699308Y-98123238D01*
X157699312Y-98123237D01*
X157706166Y-98122526D01*
X157712702Y-98120345D01*
X157712704Y-98120345D01*
X157844806Y-98076272D01*
X157873946Y-98066550D01*
X158024348Y-97973478D01*
X158149305Y-97848303D01*
X158242115Y-97697738D01*
X158297797Y-97529861D01*
X158308500Y-97425400D01*
X158308500Y-96516381D01*
X171849160Y-96516381D01*
X171849237Y-96517470D01*
X171851698Y-96521206D01*
X172125632Y-96731404D01*
X172131262Y-96735259D01*
X172431591Y-96917862D01*
X172437593Y-96921080D01*
X172755897Y-97070184D01*
X172762202Y-97072732D01*
X173094743Y-97186587D01*
X173101313Y-97188446D01*
X173444183Y-97265714D01*
X173450912Y-97266853D01*
X173800143Y-97306643D01*
X173806933Y-97307046D01*
X174158419Y-97308886D01*
X174165220Y-97308554D01*
X174514853Y-97272423D01*
X174521581Y-97271357D01*
X174865274Y-97197676D01*
X174871822Y-97195897D01*
X175205549Y-97085527D01*
X175211891Y-97083041D01*
X175531718Y-96937288D01*
X175537777Y-96934121D01*
X175839995Y-96754676D01*
X175845659Y-96750884D01*
X176126732Y-96539849D01*
X176131958Y-96535464D01*
X176141613Y-96526428D01*
X176149682Y-96512750D01*
X176149654Y-96512024D01*
X176144512Y-96503723D01*
X174012810Y-94372020D01*
X173998869Y-94364408D01*
X173997034Y-94364539D01*
X173990420Y-94368790D01*
X171856774Y-96502437D01*
X171849160Y-96516381D01*
X158308500Y-96516381D01*
X158308500Y-96024600D01*
X158304154Y-95982714D01*
X158298238Y-95925692D01*
X158298237Y-95925688D01*
X158297526Y-95918834D01*
X158241550Y-95751054D01*
X158148478Y-95600652D01*
X158023303Y-95475695D01*
X158000888Y-95461878D01*
X157878968Y-95386725D01*
X157878966Y-95386724D01*
X157872738Y-95382885D01*
X157771943Y-95349453D01*
X157711389Y-95329368D01*
X157711387Y-95329368D01*
X157704861Y-95327203D01*
X157698025Y-95326503D01*
X157698022Y-95326502D01*
X157646047Y-95321177D01*
X157600400Y-95316500D01*
X156799600Y-95316500D01*
X156796354Y-95316837D01*
X156796350Y-95316837D01*
X156776813Y-95318864D01*
X156754525Y-95321177D01*
X156684705Y-95308313D01*
X156632923Y-95259742D01*
X156615620Y-95190886D01*
X156633068Y-95131711D01*
X156654648Y-95095221D01*
X156660893Y-95080790D01*
X156703269Y-94934935D01*
X156705570Y-94922333D01*
X156707807Y-94893916D01*
X156708000Y-94888986D01*
X156708000Y-94472115D01*
X156703525Y-94456876D01*
X156702135Y-94455671D01*
X156694452Y-94454000D01*
X156172115Y-94454000D01*
X156156876Y-94458475D01*
X156155671Y-94459865D01*
X156154000Y-94467548D01*
X156154000Y-95461878D01*
X156158475Y-95477117D01*
X156180384Y-95496102D01*
X156189119Y-95500090D01*
X156227506Y-95559814D01*
X156227510Y-95630811D01*
X156213872Y-95661435D01*
X156172323Y-95728840D01*
X156157885Y-95752262D01*
X156102203Y-95920139D01*
X156091500Y-96024600D01*
X156091500Y-97425400D01*
X152708500Y-97425400D01*
X152708500Y-96024600D01*
X152704154Y-95982714D01*
X152698238Y-95925692D01*
X152698237Y-95925688D01*
X152697526Y-95918834D01*
X152641550Y-95751054D01*
X152594983Y-95675803D01*
X152576145Y-95607351D01*
X152597306Y-95539582D01*
X152651747Y-95494010D01*
X152702127Y-95483500D01*
X153116502Y-95483500D01*
X153118950Y-95483307D01*
X153118958Y-95483307D01*
X153147421Y-95481067D01*
X153147426Y-95481066D01*
X153153831Y-95480562D01*
X153253769Y-95451528D01*
X153305988Y-95436357D01*
X153305990Y-95436356D01*
X153313601Y-95434145D01*
X153320426Y-95430109D01*
X153335863Y-95420980D01*
X153404679Y-95403522D01*
X153464137Y-95420980D01*
X153479574Y-95430109D01*
X153486399Y-95434145D01*
X153494010Y-95436356D01*
X153494012Y-95436357D01*
X153546231Y-95451528D01*
X153646169Y-95480562D01*
X153652574Y-95481066D01*
X153652579Y-95481067D01*
X153681042Y-95483307D01*
X153681050Y-95483307D01*
X153683498Y-95483500D01*
X154116502Y-95483500D01*
X154118950Y-95483307D01*
X154118958Y-95483307D01*
X154147421Y-95481067D01*
X154147426Y-95481066D01*
X154153831Y-95480562D01*
X154253769Y-95451528D01*
X154305988Y-95436357D01*
X154305990Y-95436356D01*
X154313601Y-95434145D01*
X154320426Y-95430109D01*
X154335863Y-95420980D01*
X154404679Y-95403522D01*
X154464137Y-95420980D01*
X154479574Y-95430109D01*
X154486399Y-95434145D01*
X154494010Y-95436356D01*
X154494012Y-95436357D01*
X154546231Y-95451528D01*
X154646169Y-95480562D01*
X154652574Y-95481066D01*
X154652579Y-95481067D01*
X154681042Y-95483307D01*
X154681050Y-95483307D01*
X154683498Y-95483500D01*
X155116502Y-95483500D01*
X155118950Y-95483307D01*
X155118958Y-95483307D01*
X155147421Y-95481067D01*
X155147426Y-95481066D01*
X155153831Y-95480562D01*
X155253769Y-95451528D01*
X155305988Y-95436357D01*
X155305990Y-95436356D01*
X155313601Y-95434145D01*
X155336351Y-95420690D01*
X155405165Y-95403230D01*
X155464630Y-95420689D01*
X155479779Y-95429648D01*
X155494210Y-95435893D01*
X155628605Y-95474939D01*
X155642706Y-95474899D01*
X155646000Y-95467630D01*
X155646000Y-95142570D01*
X155656115Y-95093725D01*
X155659145Y-95088601D01*
X155661355Y-95080993D01*
X155661357Y-95080989D01*
X155703767Y-94935008D01*
X155705562Y-94928831D01*
X155706074Y-94922333D01*
X155708307Y-94893958D01*
X155708307Y-94893950D01*
X155708500Y-94891502D01*
X155708500Y-94072000D01*
X155728502Y-94003879D01*
X155742405Y-93991832D01*
X170687333Y-93991832D01*
X170705117Y-94342893D01*
X170705827Y-94349649D01*
X170761420Y-94696723D01*
X170762859Y-94703378D01*
X170855608Y-95042410D01*
X170857757Y-95048871D01*
X170986581Y-95375912D01*
X170989412Y-95382095D01*
X171152803Y-95693310D01*
X171156286Y-95699152D01*
X171352330Y-95990896D01*
X171356433Y-95996340D01*
X171476425Y-96138836D01*
X171489164Y-96147279D01*
X171499608Y-96141181D01*
X173627980Y-94012810D01*
X173634357Y-94001131D01*
X174364408Y-94001131D01*
X174364539Y-94002966D01*
X174368790Y-94009580D01*
X176499009Y-96139798D01*
X176512605Y-96147223D01*
X176522218Y-96140522D01*
X176622518Y-96023912D01*
X176626676Y-96018514D01*
X176825762Y-95728840D01*
X176829310Y-95723029D01*
X176995942Y-95413559D01*
X176998849Y-95407381D01*
X177131090Y-95081713D01*
X177133304Y-95075283D01*
X177229598Y-94737237D01*
X177231105Y-94730607D01*
X177290332Y-94384118D01*
X177291112Y-94377378D01*
X177312668Y-94024925D01*
X177312784Y-94021323D01*
X177312853Y-94001819D01*
X177312761Y-93998194D01*
X177293666Y-93645615D01*
X177292931Y-93638849D01*
X177236130Y-93291985D01*
X177234663Y-93285313D01*
X177140736Y-92946627D01*
X177138562Y-92940163D01*
X177008598Y-92613578D01*
X177005742Y-92607398D01*
X176841269Y-92296763D01*
X176837769Y-92290937D01*
X176640697Y-91999862D01*
X176636590Y-91994453D01*
X176523565Y-91861179D01*
X176510740Y-91852743D01*
X176500416Y-91858795D01*
X174372020Y-93987190D01*
X174364408Y-94001131D01*
X173634357Y-94001131D01*
X173635592Y-93998869D01*
X173635461Y-93997034D01*
X173631210Y-93990420D01*
X171500992Y-91860203D01*
X171487455Y-91852811D01*
X171477753Y-91859599D01*
X171370430Y-91985257D01*
X171366296Y-91990664D01*
X171168215Y-92281041D01*
X171164697Y-92286851D01*
X170999134Y-92596922D01*
X170996259Y-92603087D01*
X170865155Y-92929218D01*
X170862962Y-92935658D01*
X170767846Y-93274044D01*
X170766363Y-93280679D01*
X170708350Y-93627354D01*
X170707591Y-93634126D01*
X170687357Y-93985037D01*
X170687333Y-93991832D01*
X155742405Y-93991832D01*
X155782158Y-93957386D01*
X155834500Y-93946000D01*
X156689884Y-93946000D01*
X156705123Y-93941525D01*
X156706328Y-93940135D01*
X156707999Y-93932452D01*
X156707999Y-93511017D01*
X156707805Y-93506080D01*
X156705570Y-93477664D01*
X156703270Y-93465069D01*
X156660893Y-93319210D01*
X156654648Y-93304779D01*
X156578089Y-93175322D01*
X156568449Y-93162896D01*
X156462104Y-93056551D01*
X156449678Y-93046911D01*
X156320221Y-92970352D01*
X156305790Y-92964107D01*
X156159935Y-92921731D01*
X156147333Y-92919430D01*
X156118916Y-92917193D01*
X156113986Y-92917000D01*
X156049057Y-92917000D01*
X155980936Y-92896998D01*
X155934443Y-92843342D01*
X155924339Y-92773068D01*
X155953833Y-92708488D01*
X156009181Y-92671476D01*
X156016998Y-92668868D01*
X156023946Y-92666550D01*
X156174348Y-92573478D01*
X156299305Y-92448303D01*
X156302102Y-92443765D01*
X156359353Y-92403176D01*
X156430276Y-92399946D01*
X156491687Y-92435572D01*
X156499062Y-92444068D01*
X156507098Y-92454207D01*
X156621829Y-92568739D01*
X156633240Y-92577751D01*
X156771243Y-92662816D01*
X156784424Y-92668963D01*
X156938710Y-92720138D01*
X156952086Y-92723005D01*
X157046438Y-92732672D01*
X157052854Y-92733000D01*
X157077885Y-92733000D01*
X157093124Y-92728525D01*
X157094329Y-92727135D01*
X157096000Y-92719452D01*
X157096000Y-92714884D01*
X157604000Y-92714884D01*
X157608475Y-92730123D01*
X157609865Y-92731328D01*
X157617548Y-92732999D01*
X157647095Y-92732999D01*
X157653614Y-92732662D01*
X157749206Y-92722743D01*
X157762600Y-92719851D01*
X157916784Y-92668412D01*
X157929962Y-92662239D01*
X158067807Y-92576937D01*
X158079208Y-92567901D01*
X158193739Y-92453171D01*
X158202753Y-92441757D01*
X158258297Y-92351647D01*
X158311068Y-92304153D01*
X158381140Y-92292729D01*
X158439618Y-92315826D01*
X158543248Y-92391118D01*
X158549276Y-92393802D01*
X158549278Y-92393803D01*
X158711681Y-92466109D01*
X158717712Y-92468794D01*
X158811113Y-92488647D01*
X158898056Y-92507128D01*
X158898061Y-92507128D01*
X158904513Y-92508500D01*
X159095487Y-92508500D01*
X159101939Y-92507128D01*
X159101944Y-92507128D01*
X159188888Y-92488647D01*
X159282288Y-92468794D01*
X159288319Y-92466109D01*
X159450722Y-92393803D01*
X159450724Y-92393802D01*
X159456752Y-92391118D01*
X159611253Y-92278866D01*
X159739040Y-92136944D01*
X159803440Y-92025400D01*
X159831223Y-91977279D01*
X159831224Y-91977278D01*
X159834527Y-91971556D01*
X159893542Y-91789928D01*
X159913504Y-91600000D01*
X159901613Y-91486862D01*
X171849950Y-91486862D01*
X171849986Y-91487704D01*
X171855037Y-91495826D01*
X173987190Y-93627980D01*
X174001131Y-93635592D01*
X174002966Y-93635461D01*
X174009580Y-93631210D01*
X176142798Y-91497991D01*
X176150412Y-91484047D01*
X176150344Y-91483089D01*
X176145836Y-91476272D01*
X176144418Y-91475065D01*
X175864813Y-91262064D01*
X175859187Y-91258240D01*
X175558214Y-91076681D01*
X175552202Y-91073484D01*
X175233370Y-90925487D01*
X175227070Y-90922967D01*
X174894129Y-90810273D01*
X174887551Y-90808437D01*
X174544417Y-90732367D01*
X174537678Y-90731251D01*
X174188310Y-90692680D01*
X174181529Y-90692301D01*
X173830015Y-90691687D01*
X173823242Y-90692042D01*
X173473720Y-90729395D01*
X173467010Y-90730482D01*
X173123586Y-90805361D01*
X173117011Y-90807172D01*
X172783683Y-90918702D01*
X172777361Y-90921205D01*
X172458034Y-91068079D01*
X172451991Y-91071265D01*
X172150401Y-91251763D01*
X172144755Y-91255571D01*
X171864408Y-91467596D01*
X171859211Y-91471987D01*
X171857972Y-91473155D01*
X171849950Y-91486862D01*
X159901613Y-91486862D01*
X159900172Y-91473155D01*
X159894232Y-91416635D01*
X159894232Y-91416633D01*
X159893542Y-91410072D01*
X159834527Y-91228444D01*
X159739040Y-91063056D01*
X159611253Y-90921134D01*
X159512157Y-90849136D01*
X159462094Y-90812763D01*
X159462093Y-90812762D01*
X159456752Y-90808882D01*
X159450724Y-90806198D01*
X159450722Y-90806197D01*
X159288319Y-90733891D01*
X159288318Y-90733891D01*
X159282288Y-90731206D01*
X159174153Y-90708221D01*
X159101944Y-90692872D01*
X159101939Y-90692872D01*
X159095487Y-90691500D01*
X158904513Y-90691500D01*
X158898061Y-90692872D01*
X158898056Y-90692872D01*
X158825847Y-90708221D01*
X158717712Y-90731206D01*
X158711682Y-90733891D01*
X158711681Y-90733891D01*
X158549278Y-90806197D01*
X158549276Y-90806198D01*
X158543248Y-90808882D01*
X158537907Y-90812762D01*
X158537906Y-90812763D01*
X158508339Y-90834245D01*
X158441471Y-90858103D01*
X158372320Y-90842023D01*
X158322840Y-90791109D01*
X158314755Y-90772186D01*
X158293414Y-90708221D01*
X158287239Y-90695038D01*
X158207648Y-90566422D01*
X158188810Y-90497970D01*
X158207532Y-90434003D01*
X158287816Y-90303757D01*
X158293963Y-90290576D01*
X158345138Y-90136290D01*
X158348005Y-90122914D01*
X158357672Y-90028562D01*
X158358000Y-90022146D01*
X158358000Y-89901607D01*
X158378002Y-89833486D01*
X158431658Y-89786993D01*
X158501932Y-89776889D01*
X158543221Y-89791179D01*
X158543248Y-89791118D01*
X158549279Y-89793803D01*
X158549281Y-89793804D01*
X158638409Y-89833486D01*
X158717712Y-89868794D01*
X158811113Y-89888647D01*
X158898056Y-89907128D01*
X158898061Y-89907128D01*
X158904513Y-89908500D01*
X159095487Y-89908500D01*
X159101939Y-89907128D01*
X159101944Y-89907128D01*
X159188888Y-89888647D01*
X159282288Y-89868794D01*
X159288319Y-89866109D01*
X159450722Y-89793803D01*
X159450724Y-89793802D01*
X159456752Y-89791118D01*
X159476337Y-89776889D01*
X159512157Y-89750864D01*
X159611253Y-89678866D01*
X159739040Y-89536944D01*
X159834527Y-89371556D01*
X159893542Y-89189928D01*
X159913504Y-89000000D01*
X159893542Y-88810072D01*
X159834527Y-88628444D01*
X159739040Y-88463056D01*
X159726100Y-88448684D01*
X159615675Y-88326045D01*
X159615674Y-88326044D01*
X159611253Y-88321134D01*
X159456752Y-88208882D01*
X159450724Y-88206198D01*
X159450722Y-88206197D01*
X159288319Y-88133891D01*
X159288318Y-88133891D01*
X159282288Y-88131206D01*
X159166362Y-88106565D01*
X159101944Y-88092872D01*
X159101939Y-88092872D01*
X159095487Y-88091500D01*
X158904513Y-88091500D01*
X158898061Y-88092872D01*
X158898056Y-88092872D01*
X158833638Y-88106565D01*
X158717712Y-88131206D01*
X158711682Y-88133891D01*
X158711681Y-88133891D01*
X158549278Y-88206197D01*
X158549276Y-88206198D01*
X158543248Y-88208882D01*
X158388747Y-88321134D01*
X158278276Y-88443824D01*
X158217834Y-88481062D01*
X158146850Y-88479710D01*
X158095624Y-88448684D01*
X158078171Y-88431261D01*
X158066760Y-88422249D01*
X157928757Y-88337184D01*
X157915576Y-88331037D01*
X157761290Y-88279862D01*
X157747914Y-88276995D01*
X157653562Y-88267328D01*
X157647145Y-88267000D01*
X157622115Y-88267000D01*
X157606876Y-88271475D01*
X157605671Y-88272865D01*
X157604000Y-88280548D01*
X157604000Y-92714884D01*
X157096000Y-92714884D01*
X157096000Y-88285116D01*
X157091525Y-88269877D01*
X157090135Y-88268672D01*
X157082452Y-88267001D01*
X157052905Y-88267001D01*
X157046386Y-88267338D01*
X156950794Y-88277257D01*
X156937400Y-88280149D01*
X156783216Y-88331588D01*
X156770038Y-88337762D01*
X156632466Y-88422894D01*
X156564014Y-88441732D01*
X156496245Y-88420571D01*
X156450673Y-88366130D01*
X156443094Y-88291308D01*
X156443542Y-88289928D01*
X156445336Y-88272865D01*
X156462814Y-88106565D01*
X156463504Y-88100000D01*
X156443542Y-87910072D01*
X156384527Y-87728444D01*
X156289040Y-87563056D01*
X156161253Y-87421134D01*
X156006752Y-87308882D01*
X156000724Y-87306198D01*
X156000722Y-87306197D01*
X155838319Y-87233891D01*
X155838318Y-87233891D01*
X155832288Y-87231206D01*
X155738888Y-87211353D01*
X155651944Y-87192872D01*
X155651939Y-87192872D01*
X155645487Y-87191500D01*
X155454513Y-87191500D01*
X155448061Y-87192872D01*
X155448056Y-87192872D01*
X155361113Y-87211353D01*
X155267712Y-87231206D01*
X155261682Y-87233891D01*
X155261681Y-87233891D01*
X155099278Y-87306197D01*
X155099276Y-87306198D01*
X155093248Y-87308882D01*
X154938747Y-87421134D01*
X154878135Y-87488451D01*
X154817690Y-87525689D01*
X154746706Y-87524337D01*
X154687722Y-87484823D01*
X154659464Y-87419693D01*
X154658500Y-87404139D01*
X154658500Y-87362151D01*
X154659726Y-87344615D01*
X154662452Y-87325221D01*
X154662452Y-87325218D01*
X154663001Y-87321313D01*
X154663175Y-87308882D01*
X154663244Y-87303961D01*
X154663244Y-87303955D01*
X154663299Y-87300000D01*
X154662857Y-87296057D01*
X154661393Y-87283002D01*
X154660838Y-87261351D01*
X154674019Y-87043451D01*
X154675853Y-87028347D01*
X154720807Y-86783038D01*
X154724448Y-86768265D01*
X154798645Y-86530157D01*
X154804041Y-86515930D01*
X154840896Y-86434043D01*
X154906395Y-86288509D01*
X154913465Y-86275038D01*
X155042487Y-86061610D01*
X155051130Y-86049088D01*
X155204943Y-85852761D01*
X155215033Y-85841373D01*
X155391373Y-85665033D01*
X155402761Y-85654943D01*
X155428562Y-85634729D01*
X155599090Y-85501129D01*
X155611610Y-85492487D01*
X155790087Y-85384594D01*
X155825039Y-85363464D01*
X155838511Y-85356394D01*
X155838631Y-85356340D01*
X156065934Y-85254039D01*
X156080152Y-85248647D01*
X156195314Y-85212761D01*
X156300488Y-85179988D01*
X156371475Y-85178819D01*
X156431825Y-85216213D01*
X156462378Y-85280299D01*
X156453433Y-85350730D01*
X156431613Y-85384588D01*
X156360960Y-85463056D01*
X156265473Y-85628444D01*
X156206458Y-85810072D01*
X156186496Y-86000000D01*
X156206458Y-86189928D01*
X156265473Y-86371556D01*
X156360960Y-86536944D01*
X156365378Y-86541851D01*
X156365379Y-86541852D01*
X156456285Y-86642813D01*
X156488747Y-86678866D01*
X156536064Y-86713244D01*
X156631051Y-86782256D01*
X156643248Y-86791118D01*
X156649276Y-86793802D01*
X156649278Y-86793803D01*
X156811681Y-86866109D01*
X156817712Y-86868794D01*
X156907184Y-86887812D01*
X156998056Y-86907128D01*
X156998061Y-86907128D01*
X157004513Y-86908500D01*
X157195487Y-86908500D01*
X157201939Y-86907128D01*
X157201944Y-86907128D01*
X157292816Y-86887812D01*
X157382288Y-86868794D01*
X157388319Y-86866109D01*
X157550722Y-86793803D01*
X157550724Y-86793802D01*
X157556752Y-86791118D01*
X157568950Y-86782256D01*
X157637344Y-86732564D01*
X157704211Y-86708706D01*
X157711405Y-86708500D01*
X169237849Y-86708500D01*
X169255382Y-86709726D01*
X169264376Y-86710990D01*
X169274779Y-86712452D01*
X169274782Y-86712452D01*
X169278687Y-86713001D01*
X169287653Y-86713126D01*
X169296044Y-86713244D01*
X169296049Y-86713244D01*
X169300000Y-86713299D01*
X169303930Y-86712858D01*
X169306987Y-86712709D01*
X169309908Y-86712482D01*
X169701461Y-86695386D01*
X169701472Y-86695385D01*
X169704221Y-86695265D01*
X169951895Y-86662658D01*
X170102640Y-86642813D01*
X170102646Y-86642812D01*
X170105365Y-86642454D01*
X170500380Y-86554881D01*
X170503005Y-86554053D01*
X170503010Y-86554052D01*
X170883632Y-86434043D01*
X170883640Y-86434040D01*
X170886260Y-86433214D01*
X171235604Y-86288511D01*
X171257525Y-86279431D01*
X171257526Y-86279430D01*
X171260067Y-86278378D01*
X171262507Y-86277108D01*
X171262513Y-86277105D01*
X171442585Y-86183365D01*
X171618957Y-86091551D01*
X171960198Y-85874157D01*
X171988082Y-85852761D01*
X172279018Y-85629518D01*
X172279022Y-85629515D01*
X172281194Y-85627848D01*
X172579500Y-85354500D01*
X172852848Y-85056194D01*
X172864782Y-85040642D01*
X173097489Y-84737372D01*
X173097491Y-84737369D01*
X173099157Y-84735198D01*
X173316551Y-84393957D01*
X173503378Y-84035067D01*
X173658214Y-83661260D01*
X173659085Y-83658500D01*
X173779052Y-83278010D01*
X173779053Y-83278005D01*
X173779881Y-83275380D01*
X173867454Y-82880365D01*
X173868464Y-82872697D01*
X173919904Y-82481960D01*
X173920265Y-82479221D01*
X173923691Y-82400763D01*
X173924214Y-82388782D01*
X173947169Y-82321599D01*
X174002801Y-82277491D01*
X174014942Y-82273282D01*
X174048602Y-82263503D01*
X174083754Y-82258500D01*
X174166387Y-82258500D01*
X174234508Y-82278502D01*
X174281001Y-82332158D01*
X174291042Y-82393136D01*
X174291992Y-82393185D01*
X174291828Y-82396402D01*
X174291500Y-82399600D01*
X174291500Y-83200400D01*
X174291837Y-83203646D01*
X174291837Y-83203650D01*
X174301629Y-83298022D01*
X174302474Y-83306166D01*
X174304655Y-83312702D01*
X174304655Y-83312704D01*
X174318812Y-83355138D01*
X174358450Y-83473946D01*
X174451522Y-83624348D01*
X174576697Y-83749305D01*
X174582927Y-83753145D01*
X174582928Y-83753146D01*
X174720090Y-83837694D01*
X174727262Y-83842115D01*
X174807005Y-83868564D01*
X174888611Y-83895632D01*
X174888613Y-83895632D01*
X174895139Y-83897797D01*
X174901975Y-83898497D01*
X174901978Y-83898498D01*
X174945031Y-83902909D01*
X174999600Y-83908500D01*
X176400400Y-83908500D01*
X176403646Y-83908163D01*
X176403650Y-83908163D01*
X176499308Y-83898238D01*
X176499312Y-83898237D01*
X176506166Y-83897526D01*
X176512702Y-83895345D01*
X176512704Y-83895345D01*
X176644806Y-83851272D01*
X176673946Y-83841550D01*
X176824348Y-83748478D01*
X176949305Y-83623303D01*
X176953146Y-83617072D01*
X177038275Y-83478968D01*
X177038276Y-83478966D01*
X177042115Y-83472738D01*
X177097797Y-83304861D01*
X177108500Y-83200400D01*
X177108500Y-82399600D01*
X177108163Y-82396350D01*
X177098238Y-82300692D01*
X177098237Y-82300688D01*
X177097526Y-82293834D01*
X177090670Y-82273282D01*
X177043868Y-82133002D01*
X177041550Y-82126054D01*
X176948478Y-81975652D01*
X176943296Y-81970480D01*
X176940109Y-81966458D01*
X176913471Y-81900647D01*
X176926642Y-81830883D01*
X176977542Y-81778117D01*
X177157205Y-81678045D01*
X177159758Y-81676623D01*
X177457913Y-81472382D01*
X177628966Y-81330342D01*
X177733716Y-81243359D01*
X177733719Y-81243356D01*
X177735952Y-81241502D01*
X177991502Y-80985952D01*
X178004611Y-80970166D01*
X178160750Y-80782134D01*
X178222382Y-80707913D01*
X178426623Y-80409758D01*
X178455426Y-80358047D01*
X178506047Y-80308270D01*
X178575546Y-80293762D01*
X178641855Y-80319131D01*
X178683923Y-80376322D01*
X178691501Y-80419361D01*
X178691501Y-93950634D01*
X178690001Y-93970019D01*
X178687691Y-93984852D01*
X178687691Y-93984856D01*
X178686310Y-93993725D01*
X178688985Y-94014184D01*
X178689929Y-94036008D01*
X178676530Y-94342893D01*
X178673888Y-94403396D01*
X178672930Y-94414345D01*
X178630421Y-94737237D01*
X178620944Y-94809220D01*
X178619036Y-94820037D01*
X178562450Y-95075283D01*
X178532833Y-95208878D01*
X178529988Y-95219495D01*
X178422687Y-95559814D01*
X178410225Y-95599337D01*
X178406469Y-95609658D01*
X178275564Y-95925692D01*
X178254047Y-95977638D01*
X178249405Y-95987591D01*
X178166306Y-96147223D01*
X178065501Y-96340868D01*
X178060005Y-96350388D01*
X177846007Y-96686298D01*
X177839702Y-96695302D01*
X177597248Y-97011273D01*
X177590183Y-97019693D01*
X177325187Y-97308886D01*
X177321109Y-97313336D01*
X177313336Y-97321109D01*
X177019693Y-97590183D01*
X177011273Y-97597248D01*
X176695302Y-97839702D01*
X176686298Y-97846007D01*
X176350388Y-98060005D01*
X176340869Y-98065500D01*
X175987591Y-98249405D01*
X175977647Y-98254043D01*
X175609658Y-98406469D01*
X175599345Y-98410222D01*
X175219496Y-98529988D01*
X175208879Y-98532833D01*
X174820037Y-98619036D01*
X174809228Y-98620943D01*
X174414346Y-98672930D01*
X174403397Y-98673888D01*
X174043447Y-98689604D01*
X174018572Y-98688224D01*
X174006277Y-98686310D01*
X173997375Y-98687474D01*
X173997373Y-98687474D01*
X173982324Y-98689442D01*
X173974715Y-98690437D01*
X173958380Y-98691501D01*
X134049366Y-98691501D01*
X134029981Y-98690001D01*
X134015148Y-98687691D01*
X134015144Y-98687691D01*
X134006275Y-98686310D01*
X133985816Y-98688985D01*
X133963992Y-98689929D01*
X133596603Y-98673888D01*
X133585654Y-98672930D01*
X133190772Y-98620943D01*
X133179963Y-98619036D01*
X132791121Y-98532833D01*
X132780504Y-98529988D01*
X132400655Y-98410222D01*
X132390342Y-98406469D01*
X132022353Y-98254043D01*
X132012409Y-98249405D01*
X131659131Y-98065500D01*
X131649612Y-98060005D01*
X131313702Y-97846007D01*
X131304698Y-97839702D01*
X130988727Y-97597248D01*
X130980307Y-97590183D01*
X130686664Y-97321109D01*
X130678891Y-97313336D01*
X130674814Y-97308886D01*
X130409817Y-97019693D01*
X130402752Y-97011273D01*
X130160298Y-96695302D01*
X130153993Y-96686298D01*
X130045744Y-96516381D01*
X131849160Y-96516381D01*
X131849237Y-96517470D01*
X131851698Y-96521206D01*
X132125632Y-96731404D01*
X132131262Y-96735259D01*
X132431591Y-96917862D01*
X132437593Y-96921080D01*
X132755897Y-97070184D01*
X132762202Y-97072732D01*
X133094743Y-97186587D01*
X133101313Y-97188446D01*
X133444183Y-97265714D01*
X133450912Y-97266853D01*
X133800143Y-97306643D01*
X133806933Y-97307046D01*
X134158419Y-97308886D01*
X134165220Y-97308554D01*
X134514853Y-97272423D01*
X134521581Y-97271357D01*
X134865274Y-97197676D01*
X134871822Y-97195897D01*
X135205549Y-97085527D01*
X135211891Y-97083041D01*
X135531718Y-96937288D01*
X135537777Y-96934121D01*
X135839995Y-96754676D01*
X135845659Y-96750884D01*
X136126732Y-96539849D01*
X136131958Y-96535464D01*
X136141613Y-96526428D01*
X136149682Y-96512750D01*
X136149654Y-96512024D01*
X136144512Y-96503723D01*
X134012810Y-94372020D01*
X133998869Y-94364408D01*
X133997034Y-94364539D01*
X133990420Y-94368790D01*
X131856774Y-96502437D01*
X131849160Y-96516381D01*
X130045744Y-96516381D01*
X129939995Y-96350388D01*
X129934499Y-96340868D01*
X129833694Y-96147223D01*
X129750595Y-95987591D01*
X129745953Y-95977638D01*
X129724437Y-95925692D01*
X129593531Y-95609658D01*
X129589775Y-95599337D01*
X129577314Y-95559814D01*
X129470012Y-95219495D01*
X129467167Y-95208878D01*
X129437550Y-95075283D01*
X129380964Y-94820037D01*
X129379056Y-94809220D01*
X129369580Y-94737237D01*
X129327070Y-94414345D01*
X129326112Y-94403396D01*
X129310396Y-94043449D01*
X129311776Y-94018567D01*
X129312309Y-94015147D01*
X129313690Y-94006277D01*
X129312482Y-93997034D01*
X129311802Y-93991832D01*
X130687333Y-93991832D01*
X130705117Y-94342893D01*
X130705827Y-94349649D01*
X130761420Y-94696723D01*
X130762859Y-94703378D01*
X130855608Y-95042410D01*
X130857757Y-95048871D01*
X130986581Y-95375912D01*
X130989412Y-95382095D01*
X131152803Y-95693310D01*
X131156286Y-95699152D01*
X131352330Y-95990896D01*
X131356433Y-95996340D01*
X131476425Y-96138836D01*
X131489164Y-96147279D01*
X131499608Y-96141181D01*
X133627980Y-94012810D01*
X133634357Y-94001131D01*
X134364408Y-94001131D01*
X134364539Y-94002966D01*
X134368790Y-94009580D01*
X136499009Y-96139798D01*
X136512605Y-96147223D01*
X136522218Y-96140522D01*
X136622518Y-96023912D01*
X136626676Y-96018514D01*
X136825762Y-95728840D01*
X136829310Y-95723029D01*
X136995942Y-95413559D01*
X136998849Y-95407381D01*
X137131090Y-95081713D01*
X137133304Y-95075283D01*
X137229598Y-94737237D01*
X137231105Y-94730607D01*
X137290332Y-94384118D01*
X137291112Y-94377378D01*
X137312668Y-94024925D01*
X137312784Y-94021323D01*
X137312853Y-94001819D01*
X137312761Y-93998194D01*
X137293666Y-93645615D01*
X137292931Y-93638849D01*
X137236130Y-93291985D01*
X137234663Y-93285313D01*
X137140736Y-92946627D01*
X137138562Y-92940163D01*
X137008598Y-92613578D01*
X137005742Y-92607398D01*
X136841269Y-92296763D01*
X136837769Y-92290937D01*
X136640697Y-91999862D01*
X136636590Y-91994453D01*
X136523565Y-91861179D01*
X136510740Y-91852743D01*
X136500416Y-91858795D01*
X134372020Y-93987190D01*
X134364408Y-94001131D01*
X133634357Y-94001131D01*
X133635592Y-93998869D01*
X133635461Y-93997034D01*
X133631210Y-93990420D01*
X131500992Y-91860203D01*
X131487455Y-91852811D01*
X131477753Y-91859599D01*
X131370430Y-91985257D01*
X131366296Y-91990664D01*
X131168215Y-92281041D01*
X131164697Y-92286851D01*
X130999134Y-92596922D01*
X130996259Y-92603087D01*
X130865155Y-92929218D01*
X130862962Y-92935658D01*
X130767846Y-93274044D01*
X130766363Y-93280679D01*
X130708350Y-93627354D01*
X130707591Y-93634126D01*
X130687357Y-93985037D01*
X130687333Y-93991832D01*
X129311802Y-93991832D01*
X129309563Y-93974718D01*
X129308499Y-93958380D01*
X129308499Y-91486862D01*
X131849950Y-91486862D01*
X131849986Y-91487704D01*
X131855037Y-91495826D01*
X133987190Y-93627980D01*
X134001131Y-93635592D01*
X134002966Y-93635461D01*
X134009580Y-93631210D01*
X136142798Y-91497991D01*
X136150412Y-91484047D01*
X136150344Y-91483089D01*
X136145836Y-91476272D01*
X136144418Y-91475065D01*
X135864813Y-91262064D01*
X135859187Y-91258240D01*
X135558214Y-91076681D01*
X135552202Y-91073484D01*
X135233370Y-90925487D01*
X135227070Y-90922967D01*
X134894129Y-90810273D01*
X134887551Y-90808437D01*
X134544417Y-90732367D01*
X134537678Y-90731251D01*
X134188310Y-90692680D01*
X134181529Y-90692301D01*
X133830015Y-90691687D01*
X133823242Y-90692042D01*
X133473720Y-90729395D01*
X133467010Y-90730482D01*
X133123586Y-90805361D01*
X133117011Y-90807172D01*
X132783683Y-90918702D01*
X132777361Y-90921205D01*
X132458034Y-91068079D01*
X132451991Y-91071265D01*
X132150401Y-91251763D01*
X132144755Y-91255571D01*
X131864408Y-91467596D01*
X131859211Y-91471987D01*
X131857972Y-91473155D01*
X131849950Y-91486862D01*
X129308499Y-91486862D01*
X129308499Y-82750400D01*
X132691500Y-82750400D01*
X132691837Y-82753646D01*
X132691837Y-82753650D01*
X132701660Y-82848316D01*
X132702474Y-82856166D01*
X132704655Y-82862702D01*
X132704655Y-82862704D01*
X132716031Y-82896801D01*
X132758450Y-83023946D01*
X132851522Y-83174348D01*
X132976697Y-83299305D01*
X132982927Y-83303145D01*
X132982928Y-83303146D01*
X133120090Y-83387694D01*
X133127262Y-83392115D01*
X133207005Y-83418564D01*
X133288611Y-83445632D01*
X133288613Y-83445632D01*
X133295139Y-83447797D01*
X133301975Y-83448497D01*
X133301978Y-83448498D01*
X133331065Y-83451478D01*
X133399600Y-83458500D01*
X134800400Y-83458500D01*
X134803646Y-83458163D01*
X134803650Y-83458163D01*
X134899308Y-83448238D01*
X134899312Y-83448237D01*
X134906166Y-83447526D01*
X134912702Y-83445345D01*
X134912704Y-83445345D01*
X135044806Y-83401272D01*
X135073946Y-83391550D01*
X135224348Y-83298478D01*
X135349305Y-83173303D01*
X135377675Y-83127279D01*
X135438275Y-83028968D01*
X135438276Y-83028966D01*
X135442115Y-83022738D01*
X135497797Y-82854861D01*
X135508500Y-82750400D01*
X135508500Y-81949600D01*
X135503823Y-81904525D01*
X135516687Y-81834705D01*
X135565258Y-81782923D01*
X135634114Y-81765620D01*
X135693289Y-81783068D01*
X135729779Y-81804648D01*
X135744210Y-81810893D01*
X135890065Y-81853269D01*
X135902667Y-81855570D01*
X135931084Y-81857807D01*
X135936014Y-81858000D01*
X136352885Y-81858000D01*
X136368124Y-81853525D01*
X136369329Y-81852135D01*
X136371000Y-81844452D01*
X136371000Y-81839884D01*
X136879000Y-81839884D01*
X136883475Y-81855123D01*
X136884865Y-81856328D01*
X136892548Y-81857999D01*
X137313984Y-81857999D01*
X137318920Y-81857805D01*
X137347336Y-81855570D01*
X137359931Y-81853270D01*
X137505790Y-81810893D01*
X137520221Y-81804648D01*
X137649678Y-81728089D01*
X137662104Y-81718449D01*
X137768449Y-81612104D01*
X137778089Y-81599678D01*
X137854648Y-81470221D01*
X137860893Y-81455790D01*
X137899939Y-81321395D01*
X137899899Y-81307294D01*
X137892630Y-81304000D01*
X136897115Y-81304000D01*
X136881876Y-81308475D01*
X136880671Y-81309865D01*
X136879000Y-81317548D01*
X136879000Y-81839884D01*
X136371000Y-81839884D01*
X136371000Y-81322115D01*
X136366525Y-81306876D01*
X136365135Y-81305671D01*
X136357452Y-81304000D01*
X135363122Y-81304000D01*
X135347883Y-81308475D01*
X135328898Y-81330384D01*
X135324910Y-81339119D01*
X135265186Y-81377506D01*
X135194189Y-81377510D01*
X135163565Y-81363872D01*
X135139731Y-81349180D01*
X135107210Y-81329134D01*
X135078968Y-81311725D01*
X135078966Y-81311724D01*
X135072738Y-81307885D01*
X134912254Y-81254655D01*
X134911389Y-81254368D01*
X134911387Y-81254368D01*
X134904861Y-81252203D01*
X134898025Y-81251503D01*
X134898022Y-81251502D01*
X134854969Y-81247091D01*
X134800400Y-81241500D01*
X133399600Y-81241500D01*
X133396354Y-81241837D01*
X133396350Y-81241837D01*
X133300692Y-81251762D01*
X133300688Y-81251763D01*
X133293834Y-81252474D01*
X133287298Y-81254655D01*
X133287296Y-81254655D01*
X133188156Y-81287731D01*
X133126054Y-81308450D01*
X132975652Y-81401522D01*
X132850695Y-81526697D01*
X132846855Y-81532927D01*
X132846854Y-81532928D01*
X132805709Y-81599678D01*
X132757885Y-81677262D01*
X132702203Y-81845139D01*
X132701503Y-81851975D01*
X132701502Y-81851978D01*
X132698690Y-81879425D01*
X132691500Y-81949600D01*
X132691500Y-82750400D01*
X129308499Y-82750400D01*
X129308499Y-72306267D01*
X129328501Y-72238146D01*
X129382157Y-72191653D01*
X129452431Y-72181549D01*
X129517011Y-72211043D01*
X129555261Y-72270315D01*
X129617097Y-72478019D01*
X129772361Y-72875928D01*
X129773503Y-72878264D01*
X129958806Y-73257309D01*
X129958812Y-73257321D01*
X129959954Y-73259656D01*
X129961286Y-73261892D01*
X129961288Y-73261895D01*
X130177259Y-73624341D01*
X130177266Y-73624352D01*
X130178595Y-73626582D01*
X130426789Y-73974199D01*
X130702841Y-74300134D01*
X131004866Y-74602159D01*
X131330801Y-74878211D01*
X131678418Y-75126405D01*
X131680648Y-75127734D01*
X131680659Y-75127741D01*
X131986558Y-75310017D01*
X132045344Y-75345046D01*
X132047679Y-75346188D01*
X132047691Y-75346194D01*
X132426533Y-75531398D01*
X132429072Y-75532639D01*
X132826981Y-75687903D01*
X132829481Y-75688647D01*
X132831531Y-75689351D01*
X132889468Y-75730386D01*
X132916023Y-75796229D01*
X132902764Y-75865977D01*
X132879797Y-75897543D01*
X132855870Y-75921512D01*
X132855866Y-75921517D01*
X132850695Y-75926697D01*
X132846855Y-75932927D01*
X132846854Y-75932928D01*
X132782606Y-76037158D01*
X132757885Y-76077262D01*
X132750108Y-76100709D01*
X132705214Y-76236062D01*
X132702203Y-76245139D01*
X132701503Y-76251975D01*
X132701502Y-76251978D01*
X132700870Y-76258146D01*
X132691500Y-76349600D01*
X132691500Y-77150400D01*
X132691837Y-77153646D01*
X132691837Y-77153650D01*
X132701376Y-77245581D01*
X132702474Y-77256166D01*
X132704655Y-77262702D01*
X132704655Y-77262704D01*
X132728353Y-77333735D01*
X132758450Y-77423946D01*
X132851522Y-77574348D01*
X132976697Y-77699305D01*
X132982927Y-77703145D01*
X132982928Y-77703146D01*
X133120090Y-77787694D01*
X133127262Y-77792115D01*
X133181401Y-77810072D01*
X133288611Y-77845632D01*
X133288613Y-77845632D01*
X133295139Y-77847797D01*
X133301975Y-77848497D01*
X133301978Y-77848498D01*
X133345031Y-77852909D01*
X133399600Y-77858500D01*
X133912444Y-77858500D01*
X133980565Y-77878502D01*
X134027058Y-77932158D01*
X134037162Y-78002432D01*
X134007668Y-78067012D01*
X133986507Y-78086434D01*
X133938747Y-78121134D01*
X133934326Y-78126044D01*
X133934325Y-78126045D01*
X133830347Y-78241525D01*
X133810960Y-78263056D01*
X133757222Y-78356132D01*
X133720546Y-78419658D01*
X133715473Y-78428444D01*
X133656458Y-78610072D01*
X133655768Y-78616633D01*
X133655768Y-78616635D01*
X133639502Y-78771395D01*
X133636496Y-78800000D01*
X133637186Y-78806565D01*
X133649353Y-78922323D01*
X133656458Y-78989928D01*
X133715473Y-79171556D01*
X133810960Y-79336944D01*
X133815378Y-79341851D01*
X133815379Y-79341852D01*
X133934325Y-79473955D01*
X133938747Y-79478866D01*
X133978022Y-79507401D01*
X134048285Y-79558450D01*
X134093248Y-79591118D01*
X134099276Y-79593802D01*
X134099278Y-79593803D01*
X134222726Y-79648765D01*
X134276822Y-79694745D01*
X134297471Y-79762672D01*
X134291310Y-79802808D01*
X134280536Y-79835968D01*
X134256458Y-79910072D01*
X134255768Y-79916633D01*
X134255768Y-79916635D01*
X134239270Y-80073611D01*
X134236496Y-80100000D01*
X134237186Y-80106565D01*
X134255444Y-80280276D01*
X134256458Y-80289928D01*
X134315473Y-80471556D01*
X134410960Y-80636944D01*
X134415378Y-80641851D01*
X134415379Y-80641852D01*
X134534325Y-80773955D01*
X134538747Y-80778866D01*
X134583467Y-80811357D01*
X134687904Y-80887235D01*
X134693248Y-80891118D01*
X134699276Y-80893802D01*
X134699278Y-80893803D01*
X134861441Y-80966002D01*
X134867712Y-80968794D01*
X134948434Y-80985952D01*
X135048056Y-81007128D01*
X135048061Y-81007128D01*
X135054513Y-81008500D01*
X135245487Y-81008500D01*
X135251939Y-81007128D01*
X135251944Y-81007128D01*
X135351566Y-80985952D01*
X135432288Y-80968794D01*
X135438559Y-80966002D01*
X135600722Y-80893803D01*
X135600724Y-80893802D01*
X135606752Y-80891118D01*
X135612091Y-80887239D01*
X135612098Y-80887235D01*
X135618528Y-80882563D01*
X135692587Y-80858500D01*
X136512849Y-80858500D01*
X136530382Y-80859726D01*
X136539376Y-80860990D01*
X136549779Y-80862452D01*
X136549782Y-80862452D01*
X136553687Y-80863001D01*
X136561930Y-80863116D01*
X136571038Y-80863244D01*
X136571044Y-80863244D01*
X136575000Y-80863299D01*
X136610788Y-80859285D01*
X136624831Y-80858500D01*
X137316502Y-80858500D01*
X137318950Y-80858307D01*
X137318958Y-80858307D01*
X137347421Y-80856067D01*
X137347426Y-80856066D01*
X137353831Y-80855562D01*
X137425578Y-80834718D01*
X137505989Y-80811357D01*
X137505993Y-80811355D01*
X137513601Y-80809145D01*
X137518725Y-80806115D01*
X137567570Y-80796000D01*
X137886878Y-80796000D01*
X137900409Y-80792027D01*
X137901544Y-80784129D01*
X137860893Y-80644210D01*
X137854648Y-80629779D01*
X137845689Y-80614630D01*
X137828230Y-80545814D01*
X137845690Y-80486352D01*
X137859145Y-80463601D01*
X137905562Y-80303831D01*
X137906163Y-80296206D01*
X137908307Y-80268958D01*
X137908307Y-80268950D01*
X137908500Y-80266502D01*
X137908500Y-79833498D01*
X137905562Y-79796169D01*
X137859145Y-79636399D01*
X137855109Y-79629574D01*
X137845980Y-79614137D01*
X137828522Y-79545321D01*
X137845980Y-79485863D01*
X137855109Y-79470426D01*
X137855110Y-79470424D01*
X137859145Y-79463601D01*
X137905562Y-79303831D01*
X137907163Y-79283498D01*
X137908307Y-79268958D01*
X137908307Y-79268950D01*
X137908500Y-79266502D01*
X137908500Y-78833498D01*
X137908307Y-78831042D01*
X137906067Y-78802579D01*
X137906066Y-78802574D01*
X137905562Y-78796169D01*
X137859145Y-78636399D01*
X137855109Y-78629574D01*
X137845980Y-78614137D01*
X137828522Y-78545321D01*
X137845980Y-78485863D01*
X137855109Y-78470426D01*
X137855110Y-78470424D01*
X137859145Y-78463601D01*
X137864011Y-78446854D01*
X137887500Y-78366002D01*
X137905562Y-78303831D01*
X137906208Y-78295632D01*
X137908307Y-78268958D01*
X137908307Y-78268950D01*
X137908500Y-78266502D01*
X137908500Y-77833498D01*
X137906772Y-77811537D01*
X137906067Y-77802579D01*
X137906066Y-77802574D01*
X137905562Y-77796169D01*
X137875355Y-77692195D01*
X137861357Y-77644012D01*
X137861356Y-77644010D01*
X137859145Y-77636399D01*
X137835476Y-77596377D01*
X137778491Y-77500020D01*
X137778489Y-77500017D01*
X137774453Y-77493193D01*
X137656807Y-77375547D01*
X137621340Y-77354572D01*
X137572890Y-77302679D01*
X137560185Y-77232828D01*
X137572476Y-77190391D01*
X137659387Y-77014154D01*
X137667628Y-76999881D01*
X137765073Y-76854044D01*
X137819550Y-76808516D01*
X137889993Y-76799668D01*
X137954037Y-76830309D01*
X137963473Y-76839735D01*
X138088747Y-76978866D01*
X138243248Y-77091118D01*
X138249276Y-77093802D01*
X138249278Y-77093803D01*
X138394829Y-77158606D01*
X138417712Y-77168794D01*
X138486263Y-77183365D01*
X138598056Y-77207128D01*
X138598061Y-77207128D01*
X138604513Y-77208500D01*
X138795487Y-77208500D01*
X138801939Y-77207128D01*
X138801944Y-77207128D01*
X138913737Y-77183365D01*
X138982288Y-77168794D01*
X139005171Y-77158606D01*
X139150722Y-77093803D01*
X139150724Y-77093802D01*
X139156752Y-77091118D01*
X139311253Y-76978866D01*
X139419101Y-76859089D01*
X139434621Y-76841852D01*
X139434622Y-76841851D01*
X139439040Y-76836944D01*
X139500916Y-76729772D01*
X139531223Y-76677279D01*
X139531224Y-76677278D01*
X139534527Y-76671556D01*
X139590086Y-76500564D01*
X139630160Y-76441958D01*
X139695556Y-76414321D01*
X139709919Y-76413500D01*
X139947900Y-76413500D01*
X139951146Y-76413163D01*
X139951150Y-76413163D01*
X140046808Y-76403238D01*
X140046812Y-76403237D01*
X140053666Y-76402526D01*
X140060202Y-76400345D01*
X140060204Y-76400345D01*
X140202662Y-76352817D01*
X140221446Y-76346550D01*
X140371848Y-76253478D01*
X140458284Y-76166891D01*
X140520566Y-76132812D01*
X140591386Y-76137815D01*
X140636475Y-76166736D01*
X140700193Y-76230343D01*
X140724197Y-76254305D01*
X140730427Y-76258145D01*
X140730428Y-76258146D01*
X140867590Y-76342694D01*
X140874762Y-76347115D01*
X140946969Y-76371065D01*
X141036111Y-76400632D01*
X141036113Y-76400632D01*
X141042639Y-76402797D01*
X141049475Y-76403497D01*
X141049478Y-76403498D01*
X141092531Y-76407909D01*
X141147100Y-76413500D01*
X141772900Y-76413500D01*
X141776146Y-76413163D01*
X141776150Y-76413163D01*
X141871808Y-76403238D01*
X141871812Y-76403237D01*
X141878666Y-76402526D01*
X141885202Y-76400345D01*
X141885204Y-76400345D01*
X142027662Y-76352817D01*
X142046446Y-76346550D01*
X142196848Y-76253478D01*
X142205173Y-76245139D01*
X142287861Y-76162306D01*
X142321805Y-76128303D01*
X142365567Y-76057308D01*
X142410775Y-75983968D01*
X142410776Y-75983966D01*
X142414615Y-75977738D01*
X142470297Y-75809861D01*
X142471014Y-75802869D01*
X142475949Y-75754693D01*
X142481000Y-75705400D01*
X142481000Y-74704600D01*
X142470026Y-74598834D01*
X142460926Y-74571556D01*
X142418872Y-74445506D01*
X142414050Y-74431054D01*
X142384539Y-74383365D01*
X142335952Y-74304849D01*
X142317114Y-74236397D01*
X142335836Y-74172430D01*
X142405775Y-74058968D01*
X142405776Y-74058966D01*
X142409615Y-74052738D01*
X142465297Y-73884861D01*
X142468260Y-73855948D01*
X142472868Y-73810967D01*
X142476000Y-73780400D01*
X142476000Y-72779600D01*
X142475663Y-72776350D01*
X142465738Y-72680692D01*
X142465737Y-72680688D01*
X142465026Y-72673834D01*
X142409050Y-72506054D01*
X142315978Y-72355652D01*
X142281326Y-72321061D01*
X142247247Y-72258780D01*
X142252250Y-72187960D01*
X142294746Y-72131086D01*
X142346009Y-72110958D01*
X142345487Y-72108500D01*
X142532288Y-72068794D01*
X142547856Y-72061863D01*
X142627821Y-72026260D01*
X142674252Y-72005588D01*
X142744618Y-71996154D01*
X142808915Y-72026260D01*
X142846729Y-72086349D01*
X142851500Y-72120695D01*
X142851500Y-72522534D01*
X142858255Y-72584716D01*
X142909385Y-72721105D01*
X142982630Y-72818835D01*
X143007478Y-72885341D01*
X142992425Y-72954724D01*
X142982632Y-72969962D01*
X142909385Y-73067695D01*
X142858255Y-73204084D01*
X142851500Y-73266266D01*
X142851500Y-75062534D01*
X142858255Y-75124716D01*
X142909385Y-75261105D01*
X142973156Y-75346194D01*
X142982630Y-75358835D01*
X143007478Y-75425341D01*
X142992425Y-75494724D01*
X142982632Y-75509962D01*
X142909385Y-75607695D01*
X142858255Y-75744084D01*
X142851500Y-75806266D01*
X142851500Y-77602534D01*
X142858255Y-77664716D01*
X142909385Y-77801105D01*
X142977732Y-77892300D01*
X142982630Y-77898835D01*
X143007478Y-77965341D01*
X142992425Y-78034724D01*
X142982632Y-78049962D01*
X142909385Y-78147695D01*
X142858255Y-78284084D01*
X142851500Y-78346266D01*
X142851500Y-78581871D01*
X142831498Y-78649992D01*
X142777842Y-78696485D01*
X142707568Y-78706589D01*
X142642988Y-78677095D01*
X142618356Y-78648174D01*
X142615781Y-78644012D01*
X142573478Y-78575652D01*
X142448303Y-78450695D01*
X142442072Y-78446854D01*
X142303968Y-78361725D01*
X142303966Y-78361724D01*
X142297738Y-78357885D01*
X142211644Y-78329329D01*
X142136389Y-78304368D01*
X142136387Y-78304368D01*
X142129861Y-78302203D01*
X142123025Y-78301503D01*
X142123022Y-78301502D01*
X142079969Y-78297091D01*
X142025400Y-78291500D01*
X141322804Y-78291500D01*
X141254683Y-78271498D01*
X141208190Y-78217842D01*
X141197494Y-78152330D01*
X141212814Y-78006565D01*
X141213504Y-78000000D01*
X141212570Y-77991118D01*
X141194232Y-77816635D01*
X141194232Y-77816633D01*
X141193542Y-77810072D01*
X141134527Y-77628444D01*
X141039040Y-77463056D01*
X140978846Y-77396203D01*
X140915675Y-77326045D01*
X140915674Y-77326044D01*
X140911253Y-77321134D01*
X140801647Y-77241500D01*
X140762094Y-77212763D01*
X140762093Y-77212762D01*
X140756752Y-77208882D01*
X140750724Y-77206198D01*
X140750722Y-77206197D01*
X140588319Y-77133891D01*
X140588318Y-77133891D01*
X140582288Y-77131206D01*
X140488888Y-77111353D01*
X140401944Y-77092872D01*
X140401939Y-77092872D01*
X140395487Y-77091500D01*
X140204513Y-77091500D01*
X140198061Y-77092872D01*
X140198056Y-77092872D01*
X140111112Y-77111353D01*
X140017712Y-77131206D01*
X140011682Y-77133891D01*
X140011681Y-77133891D01*
X139849278Y-77206197D01*
X139849276Y-77206198D01*
X139843248Y-77208882D01*
X139837907Y-77212762D01*
X139837906Y-77212763D01*
X139798353Y-77241500D01*
X139688747Y-77321134D01*
X139684326Y-77326044D01*
X139684325Y-77326045D01*
X139621155Y-77396203D01*
X139560960Y-77463056D01*
X139465473Y-77628444D01*
X139406458Y-77810072D01*
X139405768Y-77816633D01*
X139405768Y-77816635D01*
X139387430Y-77991118D01*
X139386496Y-78000000D01*
X139387186Y-78006565D01*
X139402506Y-78152330D01*
X139389734Y-78222168D01*
X139341232Y-78274015D01*
X139277196Y-78291500D01*
X138974600Y-78291500D01*
X138971354Y-78291837D01*
X138971350Y-78291837D01*
X138875692Y-78301762D01*
X138875688Y-78301763D01*
X138868834Y-78302474D01*
X138862298Y-78304655D01*
X138862296Y-78304655D01*
X138756556Y-78339933D01*
X138701054Y-78358450D01*
X138550652Y-78451522D01*
X138425695Y-78576697D01*
X138421855Y-78582927D01*
X138421854Y-78582928D01*
X138352012Y-78696233D01*
X138332885Y-78727262D01*
X138322924Y-78757294D01*
X138300286Y-78825547D01*
X138277203Y-78895139D01*
X138276503Y-78901975D01*
X138276502Y-78901978D01*
X138274633Y-78920221D01*
X138266500Y-78999600D01*
X138266500Y-79600400D01*
X138266837Y-79603646D01*
X138266837Y-79603650D01*
X138276551Y-79697269D01*
X138277474Y-79706166D01*
X138279655Y-79712702D01*
X138279655Y-79712704D01*
X138294272Y-79756517D01*
X138333450Y-79873946D01*
X138426522Y-80024348D01*
X138551697Y-80149305D01*
X138556235Y-80152102D01*
X138596824Y-80209353D01*
X138600054Y-80280276D01*
X138564428Y-80341687D01*
X138555932Y-80349062D01*
X138545793Y-80357098D01*
X138431261Y-80471829D01*
X138422249Y-80483240D01*
X138337184Y-80621243D01*
X138331037Y-80634424D01*
X138279862Y-80788710D01*
X138276995Y-80802086D01*
X138267328Y-80896438D01*
X138267000Y-80902855D01*
X138267000Y-80927885D01*
X138271475Y-80943124D01*
X138272865Y-80944329D01*
X138280548Y-80946000D01*
X141628000Y-80946000D01*
X141696121Y-80966002D01*
X141742614Y-81019658D01*
X141754000Y-81072000D01*
X141754000Y-81328000D01*
X141733998Y-81396121D01*
X141680342Y-81442614D01*
X141628000Y-81454000D01*
X138285116Y-81454000D01*
X138269877Y-81458475D01*
X138268672Y-81459865D01*
X138267001Y-81467548D01*
X138267001Y-81497095D01*
X138267338Y-81503614D01*
X138277257Y-81599206D01*
X138280149Y-81612600D01*
X138331588Y-81766784D01*
X138337761Y-81779962D01*
X138423063Y-81917807D01*
X138432099Y-81929208D01*
X138523532Y-82020482D01*
X138557611Y-82082765D01*
X138552608Y-82153585D01*
X138528151Y-82193963D01*
X138510960Y-82213056D01*
X138464450Y-82293614D01*
X138430663Y-82352135D01*
X138415473Y-82378444D01*
X138356458Y-82560072D01*
X138336496Y-82750000D01*
X138337186Y-82756565D01*
X138350276Y-82881105D01*
X138356458Y-82939928D01*
X138415473Y-83121556D01*
X138510960Y-83286944D01*
X138515378Y-83291851D01*
X138515379Y-83291852D01*
X138605656Y-83392115D01*
X138638747Y-83428866D01*
X138793248Y-83541118D01*
X138799276Y-83543802D01*
X138799278Y-83543803D01*
X138961681Y-83616109D01*
X138967712Y-83618794D01*
X139035722Y-83633250D01*
X139148056Y-83657128D01*
X139148061Y-83657128D01*
X139154513Y-83658500D01*
X139345487Y-83658500D01*
X139351939Y-83657128D01*
X139351944Y-83657128D01*
X139464278Y-83633250D01*
X139532288Y-83618794D01*
X139538319Y-83616109D01*
X139700722Y-83543803D01*
X139700724Y-83543802D01*
X139706752Y-83541118D01*
X139861253Y-83428866D01*
X139894344Y-83392115D01*
X139984621Y-83291852D01*
X139984622Y-83291851D01*
X139989040Y-83286944D01*
X140084527Y-83121556D01*
X140143542Y-82939928D01*
X140149725Y-82881105D01*
X140162814Y-82756565D01*
X140163504Y-82750000D01*
X140143542Y-82560072D01*
X140084527Y-82378444D01*
X140081223Y-82372721D01*
X140078539Y-82366693D01*
X140079732Y-82366162D01*
X140064660Y-82304025D01*
X140087883Y-82236933D01*
X140143691Y-82193048D01*
X140150642Y-82190500D01*
X140291782Y-82143413D01*
X140304962Y-82137239D01*
X140433578Y-82057648D01*
X140502030Y-82038810D01*
X140565997Y-82057532D01*
X140696243Y-82137816D01*
X140709424Y-82143963D01*
X140863717Y-82195140D01*
X140879930Y-82198616D01*
X140942344Y-82232453D01*
X140976556Y-82294663D01*
X140971704Y-82365494D01*
X140968732Y-82372799D01*
X140965473Y-82378444D01*
X140906458Y-82560072D01*
X140886496Y-82750000D01*
X140887186Y-82756565D01*
X140900276Y-82881105D01*
X140906458Y-82939928D01*
X140965473Y-83121556D01*
X141060960Y-83286944D01*
X141065378Y-83291851D01*
X141065379Y-83291852D01*
X141155656Y-83392115D01*
X141188747Y-83428866D01*
X141343248Y-83541118D01*
X141349276Y-83543802D01*
X141349278Y-83543803D01*
X141511681Y-83616109D01*
X141517712Y-83618794D01*
X141585722Y-83633250D01*
X141698056Y-83657128D01*
X141698061Y-83657128D01*
X141704513Y-83658500D01*
X141895487Y-83658500D01*
X141901939Y-83657128D01*
X141901944Y-83657128D01*
X142014278Y-83633250D01*
X142082288Y-83618794D01*
X142088319Y-83616109D01*
X142250722Y-83543803D01*
X142250724Y-83543802D01*
X142256752Y-83541118D01*
X142411253Y-83428866D01*
X142444344Y-83392115D01*
X142534621Y-83291852D01*
X142534622Y-83291851D01*
X142539040Y-83286944D01*
X142634527Y-83121556D01*
X142693542Y-82939928D01*
X142693677Y-82938647D01*
X142726467Y-82877910D01*
X142788617Y-82843588D01*
X142859456Y-82848316D01*
X142916812Y-82891015D01*
X142958180Y-82946212D01*
X142996739Y-82997661D01*
X143113295Y-83085015D01*
X143249684Y-83136145D01*
X143311866Y-83142900D01*
X146908134Y-83142900D01*
X146970316Y-83136145D01*
X147106705Y-83085015D01*
X147223261Y-82997661D01*
X147310615Y-82881105D01*
X147361745Y-82744716D01*
X147368500Y-82682534D01*
X147368500Y-80886266D01*
X147361745Y-80824084D01*
X147310615Y-80687695D01*
X147237370Y-80589964D01*
X147212522Y-80523459D01*
X147227575Y-80454076D01*
X147237370Y-80438835D01*
X147299255Y-80356262D01*
X147310615Y-80341105D01*
X147361745Y-80204716D01*
X147368500Y-80142534D01*
X147368500Y-78346266D01*
X147361745Y-78284084D01*
X147310615Y-78147695D01*
X147237370Y-78049964D01*
X147212522Y-77983459D01*
X147227575Y-77914076D01*
X147237370Y-77898835D01*
X147242268Y-77892300D01*
X147310615Y-77801105D01*
X147361745Y-77664716D01*
X147368500Y-77602534D01*
X147368500Y-75806266D01*
X147361745Y-75744084D01*
X147310615Y-75607695D01*
X147237370Y-75509964D01*
X147212522Y-75443459D01*
X147227575Y-75374076D01*
X147237370Y-75358835D01*
X147246844Y-75346194D01*
X147310615Y-75261105D01*
X147361745Y-75124716D01*
X147368500Y-75062534D01*
X147368500Y-73266266D01*
X147361745Y-73204084D01*
X147310615Y-73067695D01*
X147237370Y-72969964D01*
X147212522Y-72903459D01*
X147227575Y-72834076D01*
X147237370Y-72818835D01*
X147310615Y-72721105D01*
X147361745Y-72584716D01*
X147368500Y-72522534D01*
X147368500Y-70726266D01*
X147367943Y-70721134D01*
X147365648Y-70700013D01*
X147361745Y-70664084D01*
X147310615Y-70527695D01*
X147237370Y-70429964D01*
X147212522Y-70363459D01*
X147227575Y-70294076D01*
X147237370Y-70278835D01*
X147238549Y-70277262D01*
X147310615Y-70181105D01*
X147361745Y-70044716D01*
X147368500Y-69982534D01*
X147368500Y-68186266D01*
X147361745Y-68124084D01*
X147310615Y-67987695D01*
X147237370Y-67889964D01*
X147212522Y-67823459D01*
X147227575Y-67754076D01*
X147237370Y-67738835D01*
X147271720Y-67693002D01*
X147310615Y-67641105D01*
X147361745Y-67504716D01*
X147368500Y-67442534D01*
X147368500Y-65646266D01*
X147361745Y-65584084D01*
X147310615Y-65447695D01*
X147237370Y-65349964D01*
X147212522Y-65283459D01*
X147227575Y-65214076D01*
X147237370Y-65198835D01*
X147237638Y-65198478D01*
X147310615Y-65101105D01*
X147361745Y-64964716D01*
X147368500Y-64902534D01*
X147368500Y-63106266D01*
X147361745Y-63044084D01*
X147310615Y-62907695D01*
X147242548Y-62816873D01*
X147237058Y-62809548D01*
X147212210Y-62743042D01*
X147227263Y-62673659D01*
X147237058Y-62658418D01*
X147304786Y-62568049D01*
X147313324Y-62552454D01*
X147358478Y-62432006D01*
X147362105Y-62416751D01*
X147367631Y-62365886D01*
X147368000Y-62359072D01*
X147368000Y-61736515D01*
X147363525Y-61721276D01*
X147362135Y-61720071D01*
X147354452Y-61718400D01*
X142870116Y-61718400D01*
X142854877Y-61722875D01*
X142853672Y-61724265D01*
X142852001Y-61731948D01*
X142852001Y-62359069D01*
X142852371Y-62365890D01*
X142857895Y-62416752D01*
X142861521Y-62432004D01*
X142906676Y-62552454D01*
X142915214Y-62568049D01*
X142982942Y-62658418D01*
X143007790Y-62724925D01*
X142992737Y-62794307D01*
X142982942Y-62809548D01*
X142977452Y-62816873D01*
X142909385Y-62907695D01*
X142906234Y-62916102D01*
X142906230Y-62916108D01*
X142906192Y-62916210D01*
X142906127Y-62916297D01*
X142901923Y-62923975D01*
X142900815Y-62923368D01*
X142863549Y-62972973D01*
X142796986Y-62997670D01*
X142748548Y-62991570D01*
X142629861Y-62952203D01*
X142623025Y-62951503D01*
X142623022Y-62951502D01*
X142579969Y-62947091D01*
X142525400Y-62941500D01*
X141899600Y-62941500D01*
X141896354Y-62941837D01*
X141896350Y-62941837D01*
X141800692Y-62951762D01*
X141800688Y-62951763D01*
X141793834Y-62952474D01*
X141787298Y-62954655D01*
X141787296Y-62954655D01*
X141732391Y-62972973D01*
X141626054Y-63008450D01*
X141475652Y-63101522D01*
X141470479Y-63106704D01*
X141389216Y-63188109D01*
X141326934Y-63222188D01*
X141256114Y-63217185D01*
X141211025Y-63188264D01*
X141128483Y-63105866D01*
X141123303Y-63100695D01*
X141110362Y-63092718D01*
X140978968Y-63011725D01*
X140978966Y-63011724D01*
X140972738Y-63007885D01*
X140839602Y-62963726D01*
X140811389Y-62954368D01*
X140811387Y-62954368D01*
X140804861Y-62952203D01*
X140798025Y-62951503D01*
X140798022Y-62951502D01*
X140754969Y-62947091D01*
X140700400Y-62941500D01*
X140074600Y-62941500D01*
X140071354Y-62941837D01*
X140071350Y-62941837D01*
X139975692Y-62951762D01*
X139975688Y-62951763D01*
X139968834Y-62952474D01*
X139962298Y-62954655D01*
X139962296Y-62954655D01*
X139907391Y-62972973D01*
X139801054Y-63008450D01*
X139683193Y-63081385D01*
X139664879Y-63092718D01*
X139596427Y-63111556D01*
X139528657Y-63090395D01*
X139516746Y-63081385D01*
X139409334Y-62989647D01*
X139395353Y-62975667D01*
X139393052Y-62972973D01*
X139266168Y-62824411D01*
X139254549Y-62808419D01*
X139246157Y-62794724D01*
X139150614Y-62638811D01*
X139141644Y-62621206D01*
X139065520Y-62437428D01*
X139059412Y-62418629D01*
X139058988Y-62416860D01*
X139012977Y-62225212D01*
X139009884Y-62205685D01*
X139007083Y-62170099D01*
X138997248Y-62045124D01*
X138997232Y-62025568D01*
X138997450Y-62022732D01*
X138998001Y-62018813D01*
X138998299Y-61997500D01*
X138994285Y-61961713D01*
X138993500Y-61947669D01*
X138993500Y-61192285D01*
X142852000Y-61192285D01*
X142856475Y-61207524D01*
X142857865Y-61208729D01*
X142865548Y-61210400D01*
X144837885Y-61210400D01*
X144853124Y-61205925D01*
X144854329Y-61204535D01*
X144856000Y-61196852D01*
X144856000Y-61192285D01*
X145364000Y-61192285D01*
X145368475Y-61207524D01*
X145369865Y-61208729D01*
X145377548Y-61210400D01*
X147349884Y-61210400D01*
X147365123Y-61205925D01*
X147366328Y-61204535D01*
X147367999Y-61196852D01*
X147367999Y-60569731D01*
X147367629Y-60562910D01*
X147362105Y-60512048D01*
X147358479Y-60496796D01*
X147313324Y-60376346D01*
X147304789Y-60360756D01*
X147236745Y-60269965D01*
X147211898Y-60203458D01*
X147226951Y-60134076D01*
X147236745Y-60118835D01*
X147304789Y-60028044D01*
X147313324Y-60012454D01*
X147358478Y-59892006D01*
X147362105Y-59876751D01*
X147367631Y-59825886D01*
X147368000Y-59819072D01*
X147368000Y-59196515D01*
X147363525Y-59181276D01*
X147362135Y-59180071D01*
X147354452Y-59178400D01*
X145382115Y-59178400D01*
X145366876Y-59182875D01*
X145365671Y-59184265D01*
X145364000Y-59191948D01*
X145364000Y-61192285D01*
X144856000Y-61192285D01*
X144856000Y-59196515D01*
X144851525Y-59181276D01*
X144850135Y-59180071D01*
X144842452Y-59178400D01*
X142870116Y-59178400D01*
X142854877Y-59182875D01*
X142853672Y-59184265D01*
X142852001Y-59191948D01*
X142852001Y-59819069D01*
X142852371Y-59825890D01*
X142857895Y-59876752D01*
X142861521Y-59892004D01*
X142906676Y-60012454D01*
X142915211Y-60028044D01*
X142983255Y-60118835D01*
X143008102Y-60185342D01*
X142993049Y-60254724D01*
X142983255Y-60269965D01*
X142915211Y-60360756D01*
X142906676Y-60376346D01*
X142861522Y-60496794D01*
X142857895Y-60512049D01*
X142852369Y-60562914D01*
X142852000Y-60569728D01*
X142852000Y-61192285D01*
X138993500Y-61192285D01*
X138993500Y-60754052D01*
X139013502Y-60685931D01*
X139046332Y-60651473D01*
X139143039Y-60582493D01*
X139143042Y-60582491D01*
X139147243Y-60579494D01*
X139150898Y-60575852D01*
X139150906Y-60575845D01*
X139192697Y-60534199D01*
X139255068Y-60500282D01*
X139325875Y-60505470D01*
X139382637Y-60548116D01*
X139399619Y-60579218D01*
X139421677Y-60638056D01*
X139430214Y-60653649D01*
X139506715Y-60755724D01*
X139519276Y-60768285D01*
X139621351Y-60844786D01*
X139636946Y-60853324D01*
X139757394Y-60898478D01*
X139772649Y-60902105D01*
X139823514Y-60907631D01*
X139830328Y-60908000D01*
X140502885Y-60908000D01*
X140518124Y-60903525D01*
X140519329Y-60902135D01*
X140521000Y-60894452D01*
X140521000Y-60889884D01*
X141029000Y-60889884D01*
X141033475Y-60905123D01*
X141034865Y-60906328D01*
X141042548Y-60907999D01*
X141719669Y-60907999D01*
X141726490Y-60907629D01*
X141777352Y-60902105D01*
X141792604Y-60898479D01*
X141913054Y-60853324D01*
X141928649Y-60844786D01*
X142030724Y-60768285D01*
X142043285Y-60755724D01*
X142119786Y-60653649D01*
X142128324Y-60638054D01*
X142173478Y-60517606D01*
X142177105Y-60502351D01*
X142182631Y-60451486D01*
X142183000Y-60444672D01*
X142183000Y-59772115D01*
X142178525Y-59756876D01*
X142177135Y-59755671D01*
X142169452Y-59754000D01*
X141047115Y-59754000D01*
X141031876Y-59758475D01*
X141030671Y-59759865D01*
X141029000Y-59767548D01*
X141029000Y-60889884D01*
X140521000Y-60889884D01*
X140521000Y-59227885D01*
X141029000Y-59227885D01*
X141033475Y-59243124D01*
X141034865Y-59244329D01*
X141042548Y-59246000D01*
X142164884Y-59246000D01*
X142180123Y-59241525D01*
X142181328Y-59240135D01*
X142182999Y-59232452D01*
X142182999Y-58555331D01*
X142182629Y-58548510D01*
X142177105Y-58497648D01*
X142173479Y-58482396D01*
X142128324Y-58361946D01*
X142119786Y-58346351D01*
X142043285Y-58244276D01*
X142030724Y-58231715D01*
X141928649Y-58155214D01*
X141913054Y-58146676D01*
X141792606Y-58101522D01*
X141777351Y-58097895D01*
X141726486Y-58092369D01*
X141719672Y-58092000D01*
X141047115Y-58092000D01*
X141031876Y-58096475D01*
X141030671Y-58097865D01*
X141029000Y-58105548D01*
X141029000Y-59227885D01*
X140521000Y-59227885D01*
X140521000Y-58110116D01*
X140516525Y-58094877D01*
X140515135Y-58093672D01*
X140507452Y-58092001D01*
X139830331Y-58092001D01*
X139823510Y-58092371D01*
X139772648Y-58097895D01*
X139757396Y-58101521D01*
X139636946Y-58146676D01*
X139621351Y-58155214D01*
X139519276Y-58231715D01*
X139506715Y-58244276D01*
X139430214Y-58346351D01*
X139421675Y-58361948D01*
X139400934Y-58417275D01*
X139358293Y-58474040D01*
X139291731Y-58498740D01*
X139222383Y-58483533D01*
X139199388Y-58466909D01*
X139198887Y-58466358D01*
X139165527Y-58440012D01*
X139021177Y-58326011D01*
X139021172Y-58326008D01*
X139017123Y-58322810D01*
X139012607Y-58320317D01*
X139012604Y-58320315D01*
X138818879Y-58213373D01*
X138818875Y-58213371D01*
X138814355Y-58210876D01*
X138809486Y-58209152D01*
X138809482Y-58209150D01*
X138600903Y-58135288D01*
X138600899Y-58135287D01*
X138596028Y-58133562D01*
X138590935Y-58132655D01*
X138590932Y-58132654D01*
X138373095Y-58093851D01*
X138373089Y-58093850D01*
X138368006Y-58092945D01*
X138290644Y-58092000D01*
X138141581Y-58090179D01*
X138141579Y-58090179D01*
X138136411Y-58090116D01*
X137907464Y-58125150D01*
X137687314Y-58197106D01*
X137682726Y-58199494D01*
X137682722Y-58199496D01*
X137494940Y-58297249D01*
X137481872Y-58304052D01*
X137477739Y-58307155D01*
X137477736Y-58307157D01*
X137331073Y-58417275D01*
X137296655Y-58443117D01*
X137293083Y-58446855D01*
X137175367Y-58570038D01*
X137136639Y-58610564D01*
X137006119Y-58801899D01*
X136908602Y-59011981D01*
X136846707Y-59235169D01*
X136822095Y-59465469D01*
X136822392Y-59470622D01*
X136822392Y-59470625D01*
X136827620Y-59561290D01*
X136835427Y-59696697D01*
X136836564Y-59701743D01*
X136836565Y-59701749D01*
X136863786Y-59822534D01*
X136886346Y-59922642D01*
X136888288Y-59927424D01*
X136888289Y-59927428D01*
X136934609Y-60041500D01*
X136973484Y-60137237D01*
X137094501Y-60334719D01*
X137246147Y-60509784D01*
X137423517Y-60657039D01*
X137424349Y-60657730D01*
X137424206Y-60657902D01*
X137467101Y-60711570D01*
X137476500Y-60759321D01*
X137476500Y-61941517D01*
X137475506Y-61957309D01*
X137471775Y-61986843D01*
X137472463Y-61993856D01*
X137472412Y-61997500D01*
X137471913Y-61997500D01*
X137490246Y-62323942D01*
X137545013Y-62646279D01*
X137587659Y-62794307D01*
X137633772Y-62954367D01*
X137635526Y-62960457D01*
X137636880Y-62963725D01*
X137636880Y-62963726D01*
X137729887Y-63188264D01*
X137760647Y-63262526D01*
X137918802Y-63548686D01*
X138108002Y-63815339D01*
X138325869Y-64059131D01*
X138569661Y-64276998D01*
X138836314Y-64466198D01*
X139122474Y-64624353D01*
X139125737Y-64625704D01*
X139125742Y-64625707D01*
X139314223Y-64703778D01*
X139369504Y-64748326D01*
X139385528Y-64780310D01*
X139431130Y-64916993D01*
X139433450Y-64923946D01*
X139526522Y-65074348D01*
X139651697Y-65199305D01*
X139657927Y-65203145D01*
X139657928Y-65203146D01*
X139795090Y-65287694D01*
X139802262Y-65292115D01*
X139850564Y-65308136D01*
X139963611Y-65345632D01*
X139963613Y-65345632D01*
X139970139Y-65347797D01*
X139976975Y-65348497D01*
X139976978Y-65348498D01*
X140020031Y-65352909D01*
X140074600Y-65358500D01*
X140700400Y-65358500D01*
X140703646Y-65358163D01*
X140703650Y-65358163D01*
X140799308Y-65348238D01*
X140799312Y-65348237D01*
X140806166Y-65347526D01*
X140812702Y-65345345D01*
X140812704Y-65345345D01*
X140944806Y-65301272D01*
X140973946Y-65291550D01*
X141124348Y-65198478D01*
X141210784Y-65111891D01*
X141273066Y-65077812D01*
X141343886Y-65082815D01*
X141388976Y-65111736D01*
X141476697Y-65199305D01*
X141482927Y-65203145D01*
X141482928Y-65203146D01*
X141620090Y-65287694D01*
X141627262Y-65292115D01*
X141675564Y-65308136D01*
X141788611Y-65345632D01*
X141788613Y-65345632D01*
X141795139Y-65347797D01*
X141801975Y-65348497D01*
X141801978Y-65348498D01*
X141845031Y-65352909D01*
X141899600Y-65358500D01*
X142525400Y-65358500D01*
X142528646Y-65358163D01*
X142528650Y-65358163D01*
X142624308Y-65348238D01*
X142624312Y-65348237D01*
X142631166Y-65347526D01*
X142637702Y-65345345D01*
X142637704Y-65345345D01*
X142741488Y-65310720D01*
X142812438Y-65308136D01*
X142873522Y-65344320D01*
X142905346Y-65407784D01*
X142899346Y-65474474D01*
X142858255Y-65584084D01*
X142851500Y-65646266D01*
X142851500Y-67442534D01*
X142858255Y-67504716D01*
X142909385Y-67641105D01*
X142948280Y-67693002D01*
X142982630Y-67738835D01*
X143007478Y-67805341D01*
X142992425Y-67874724D01*
X142982632Y-67889962D01*
X142909385Y-67987695D01*
X142858255Y-68124084D01*
X142851500Y-68186266D01*
X142851500Y-69982534D01*
X142858255Y-70044716D01*
X142909385Y-70181105D01*
X142981451Y-70277262D01*
X142982630Y-70278835D01*
X143007478Y-70345341D01*
X142992425Y-70414724D01*
X142982634Y-70429959D01*
X142970051Y-70446749D01*
X142913190Y-70489263D01*
X142842372Y-70494287D01*
X142795165Y-70473118D01*
X142712094Y-70412763D01*
X142712093Y-70412762D01*
X142706752Y-70408882D01*
X142700724Y-70406198D01*
X142700722Y-70406197D01*
X142538319Y-70333891D01*
X142538318Y-70333891D01*
X142532288Y-70331206D01*
X142438887Y-70311353D01*
X142351944Y-70292872D01*
X142351939Y-70292872D01*
X142345487Y-70291500D01*
X142154513Y-70291500D01*
X142148061Y-70292872D01*
X142148056Y-70292872D01*
X142061113Y-70311353D01*
X141967712Y-70331206D01*
X141961682Y-70333891D01*
X141961681Y-70333891D01*
X141806219Y-70403107D01*
X141754970Y-70414000D01*
X141067115Y-70414000D01*
X141051876Y-70418475D01*
X141050671Y-70419865D01*
X141049000Y-70427548D01*
X141049000Y-71149884D01*
X141053475Y-71165123D01*
X141054865Y-71166328D01*
X141062548Y-71167999D01*
X141219681Y-71167999D01*
X141287802Y-71188001D01*
X141334295Y-71241657D01*
X141344991Y-71280828D01*
X141355768Y-71383365D01*
X141356458Y-71389928D01*
X141415473Y-71571556D01*
X141418776Y-71577278D01*
X141418777Y-71577279D01*
X141434792Y-71605017D01*
X141510960Y-71736944D01*
X141515378Y-71741851D01*
X141515379Y-71741852D01*
X141622831Y-71861190D01*
X141653549Y-71925197D01*
X141644784Y-71995651D01*
X141599321Y-72050182D01*
X141529195Y-72071500D01*
X141142100Y-72071500D01*
X141138854Y-72071837D01*
X141138850Y-72071837D01*
X141043192Y-72081762D01*
X141043188Y-72081763D01*
X141036334Y-72082474D01*
X141029798Y-72084655D01*
X141029796Y-72084655D01*
X140922857Y-72120333D01*
X140868554Y-72138450D01*
X140718152Y-72231522D01*
X140690942Y-72258780D01*
X140631716Y-72318109D01*
X140569434Y-72352188D01*
X140498614Y-72347185D01*
X140453525Y-72318264D01*
X140370983Y-72235866D01*
X140365803Y-72230695D01*
X140302951Y-72191952D01*
X140221468Y-72141725D01*
X140221466Y-72141724D01*
X140215238Y-72137885D01*
X140134055Y-72110958D01*
X140053889Y-72084368D01*
X140053887Y-72084368D01*
X140047361Y-72082203D01*
X140040525Y-72081503D01*
X140040522Y-72081502D01*
X139997469Y-72077091D01*
X139942900Y-72071500D01*
X139329592Y-72071500D01*
X139261471Y-72051498D01*
X139214978Y-71997842D01*
X139204874Y-71927568D01*
X139220473Y-71882500D01*
X139232777Y-71861190D01*
X139265526Y-71804466D01*
X139281223Y-71777279D01*
X139281224Y-71777278D01*
X139284527Y-71771556D01*
X139343542Y-71589928D01*
X139344872Y-71577279D01*
X139362814Y-71406565D01*
X139363504Y-71400000D01*
X139353224Y-71302192D01*
X139365996Y-71232354D01*
X139414498Y-71180507D01*
X139438658Y-71169498D01*
X139591784Y-71118412D01*
X139604962Y-71112238D01*
X139743226Y-71026678D01*
X139811678Y-71007840D01*
X139875644Y-71026562D01*
X139991238Y-71097814D01*
X140004424Y-71103963D01*
X140158710Y-71155138D01*
X140172086Y-71158005D01*
X140266438Y-71167672D01*
X140272854Y-71168000D01*
X140522885Y-71168000D01*
X140538124Y-71163525D01*
X140539329Y-71162135D01*
X140541000Y-71154452D01*
X140541000Y-70432115D01*
X140536525Y-70416876D01*
X140535135Y-70415671D01*
X140527452Y-70414000D01*
X140091115Y-70414000D01*
X140057412Y-70423896D01*
X140021914Y-70429000D01*
X138672000Y-70429000D01*
X138603879Y-70408998D01*
X138557386Y-70355342D01*
X138546000Y-70303000D01*
X138546000Y-70047000D01*
X138566002Y-69978879D01*
X138619658Y-69932386D01*
X138672000Y-69921000D01*
X139503885Y-69921000D01*
X139537588Y-69911104D01*
X139573086Y-69906000D01*
X142009884Y-69906000D01*
X142025123Y-69901525D01*
X142026328Y-69900135D01*
X142027999Y-69892452D01*
X142027999Y-69862905D01*
X142027662Y-69856386D01*
X142017743Y-69760794D01*
X142014851Y-69747400D01*
X141963412Y-69593216D01*
X141957239Y-69580038D01*
X141871937Y-69442193D01*
X141862901Y-69430792D01*
X141748172Y-69316262D01*
X141739238Y-69309206D01*
X141698177Y-69251288D01*
X141694947Y-69180365D01*
X141730574Y-69118954D01*
X141738407Y-69112154D01*
X141744348Y-69108478D01*
X141869305Y-68983303D01*
X141887214Y-68954250D01*
X141958275Y-68838968D01*
X141958276Y-68838966D01*
X141962115Y-68832738D01*
X141992377Y-68741500D01*
X142015632Y-68671389D01*
X142015632Y-68671387D01*
X142017797Y-68664861D01*
X142028500Y-68560400D01*
X142028500Y-67959600D01*
X142027346Y-67948478D01*
X142018238Y-67860692D01*
X142018237Y-67860688D01*
X142017526Y-67853834D01*
X142001348Y-67805341D01*
X141963868Y-67693002D01*
X141961550Y-67686054D01*
X141868478Y-67535652D01*
X141848086Y-67515295D01*
X141748483Y-67415866D01*
X141743303Y-67410695D01*
X141731790Y-67403598D01*
X141598968Y-67321725D01*
X141598966Y-67321724D01*
X141592738Y-67317885D01*
X141512995Y-67291436D01*
X141431389Y-67264368D01*
X141431387Y-67264368D01*
X141424861Y-67262203D01*
X141418025Y-67261503D01*
X141418022Y-67261502D01*
X141374969Y-67257091D01*
X141320400Y-67251500D01*
X140844500Y-67251500D01*
X140776379Y-67231498D01*
X140729886Y-67177842D01*
X140718500Y-67125500D01*
X140718500Y-66986955D01*
X140724667Y-66948019D01*
X140736713Y-66910946D01*
X140743542Y-66889928D01*
X140744502Y-66880800D01*
X140762814Y-66706565D01*
X140763504Y-66700000D01*
X140756028Y-66628866D01*
X140744232Y-66516635D01*
X140744232Y-66516633D01*
X140743542Y-66510072D01*
X140684527Y-66328444D01*
X140589040Y-66163056D01*
X140568216Y-66139928D01*
X140465675Y-66026045D01*
X140465674Y-66026044D01*
X140461253Y-66021134D01*
X140306752Y-65908882D01*
X140300724Y-65906198D01*
X140300722Y-65906197D01*
X140138319Y-65833891D01*
X140138318Y-65833891D01*
X140132288Y-65831206D01*
X140038887Y-65811353D01*
X139951944Y-65792872D01*
X139951939Y-65792872D01*
X139945487Y-65791500D01*
X139754513Y-65791500D01*
X139748061Y-65792872D01*
X139748056Y-65792872D01*
X139661113Y-65811353D01*
X139567712Y-65831206D01*
X139561682Y-65833891D01*
X139561681Y-65833891D01*
X139399278Y-65906197D01*
X139399276Y-65906198D01*
X139393248Y-65908882D01*
X139238747Y-66021134D01*
X139234326Y-66026044D01*
X139234325Y-66026045D01*
X139131785Y-66139928D01*
X139110960Y-66163056D01*
X139015473Y-66328444D01*
X138956458Y-66510072D01*
X138955768Y-66516633D01*
X138955768Y-66516635D01*
X138943972Y-66628866D01*
X138936496Y-66700000D01*
X138937186Y-66706565D01*
X138955499Y-66880800D01*
X138956458Y-66889928D01*
X139015473Y-67071556D01*
X139018776Y-67077278D01*
X139018777Y-67077279D01*
X139018903Y-67077497D01*
X139018937Y-67077639D01*
X139021461Y-67083307D01*
X139020425Y-67083768D01*
X139035643Y-67146492D01*
X139012425Y-67213584D01*
X138956619Y-67257473D01*
X138909786Y-67266500D01*
X138274600Y-67266500D01*
X138271354Y-67266837D01*
X138271350Y-67266837D01*
X138175692Y-67276762D01*
X138175688Y-67276763D01*
X138168834Y-67277474D01*
X138162298Y-67279655D01*
X138162296Y-67279655D01*
X138054614Y-67315581D01*
X138001054Y-67333450D01*
X137960936Y-67358276D01*
X137892487Y-67377113D01*
X137824717Y-67355952D01*
X137779146Y-67301512D01*
X137773638Y-67286284D01*
X137761357Y-67244012D01*
X137761356Y-67244010D01*
X137759145Y-67236399D01*
X137755109Y-67229574D01*
X137745980Y-67214137D01*
X137728522Y-67145321D01*
X137745980Y-67085863D01*
X137755109Y-67070426D01*
X137755110Y-67070424D01*
X137759145Y-67063601D01*
X137805562Y-66903831D01*
X137806086Y-66897184D01*
X137808307Y-66868958D01*
X137808307Y-66868950D01*
X137808500Y-66866502D01*
X137808500Y-66433498D01*
X137805562Y-66396169D01*
X137759145Y-66236399D01*
X137727522Y-66182928D01*
X137678491Y-66100020D01*
X137678489Y-66100017D01*
X137674453Y-66093193D01*
X137556807Y-65975547D01*
X137549983Y-65971511D01*
X137549980Y-65971509D01*
X137420427Y-65894892D01*
X137420428Y-65894892D01*
X137413601Y-65890855D01*
X137405990Y-65888644D01*
X137405988Y-65888643D01*
X137308129Y-65860213D01*
X137253831Y-65844438D01*
X137247426Y-65843934D01*
X137247421Y-65843933D01*
X137218958Y-65841693D01*
X137218950Y-65841693D01*
X137216502Y-65841500D01*
X136735862Y-65841500D01*
X136699286Y-65836074D01*
X136599226Y-65805721D01*
X136599225Y-65805721D01*
X136593295Y-65803922D01*
X136558735Y-65800518D01*
X136541140Y-65797514D01*
X136524848Y-65793527D01*
X136524843Y-65793526D01*
X136519390Y-65792192D01*
X136513785Y-65791844D01*
X136513783Y-65791844D01*
X136510175Y-65791620D01*
X136510165Y-65791620D01*
X136508236Y-65791500D01*
X136487151Y-65791500D01*
X136469618Y-65790274D01*
X136460624Y-65789010D01*
X136450221Y-65787548D01*
X136450218Y-65787548D01*
X136446313Y-65786999D01*
X136437964Y-65786882D01*
X136428961Y-65786756D01*
X136428955Y-65786756D01*
X136425000Y-65786701D01*
X136389214Y-65790715D01*
X136375169Y-65791500D01*
X135534500Y-65791500D01*
X135466379Y-65771498D01*
X135419886Y-65717842D01*
X135408500Y-65665500D01*
X135408500Y-64949600D01*
X135397526Y-64843834D01*
X135341550Y-64676054D01*
X135248478Y-64525652D01*
X135123303Y-64400695D01*
X135117072Y-64396854D01*
X134978968Y-64311725D01*
X134978966Y-64311724D01*
X134972738Y-64307885D01*
X134812254Y-64254655D01*
X134811389Y-64254368D01*
X134811387Y-64254368D01*
X134804861Y-64252203D01*
X134798025Y-64251503D01*
X134798022Y-64251502D01*
X134754969Y-64247091D01*
X134700400Y-64241500D01*
X133299600Y-64241500D01*
X133296354Y-64241837D01*
X133296350Y-64241837D01*
X133200692Y-64251762D01*
X133200688Y-64251763D01*
X133193834Y-64252474D01*
X133187298Y-64254655D01*
X133187296Y-64254655D01*
X133114194Y-64279044D01*
X133026054Y-64308450D01*
X132875652Y-64401522D01*
X132750695Y-64526697D01*
X132657885Y-64677262D01*
X132602203Y-64845139D01*
X132591500Y-64949600D01*
X132591500Y-65670456D01*
X132571498Y-65738577D01*
X132517842Y-65785070D01*
X132472095Y-65796283D01*
X132413290Y-65799365D01*
X132303693Y-65805109D01*
X132300453Y-65805622D01*
X132300445Y-65805623D01*
X132156362Y-65828444D01*
X131961180Y-65859358D01*
X131626214Y-65949112D01*
X131623126Y-65950297D01*
X131623124Y-65950298D01*
X131557348Y-65975547D01*
X131302465Y-66073387D01*
X131299525Y-66074885D01*
X130996421Y-66229324D01*
X130996414Y-66229328D01*
X130993480Y-66230823D01*
X130990714Y-66232619D01*
X130990711Y-66232621D01*
X130863441Y-66315271D01*
X130702644Y-66419694D01*
X130433144Y-66637931D01*
X130187931Y-66883144D01*
X129969694Y-67152644D01*
X129967892Y-67155419D01*
X129783921Y-67438710D01*
X129780823Y-67443480D01*
X129779328Y-67446414D01*
X129779324Y-67446421D01*
X129657225Y-67686054D01*
X129623387Y-67752465D01*
X129570606Y-67889965D01*
X129552130Y-67938097D01*
X129509045Y-67994525D01*
X129442291Y-68018702D01*
X129373064Y-68002951D01*
X129323342Y-67952273D01*
X129308499Y-67892943D01*
X129308499Y-56516381D01*
X131849160Y-56516381D01*
X131849237Y-56517470D01*
X131851698Y-56521206D01*
X132125632Y-56731404D01*
X132131262Y-56735259D01*
X132431591Y-56917862D01*
X132437593Y-56921080D01*
X132755897Y-57070184D01*
X132762202Y-57072732D01*
X133094743Y-57186587D01*
X133101313Y-57188446D01*
X133444183Y-57265714D01*
X133450912Y-57266853D01*
X133800143Y-57306643D01*
X133806933Y-57307046D01*
X134158419Y-57308886D01*
X134165220Y-57308554D01*
X134417011Y-57282534D01*
X142851500Y-57282534D01*
X142858255Y-57344716D01*
X142909385Y-57481105D01*
X142914771Y-57488291D01*
X142982942Y-57579252D01*
X143007790Y-57645758D01*
X142992737Y-57715141D01*
X142982942Y-57730382D01*
X142915214Y-57820751D01*
X142906676Y-57836346D01*
X142861522Y-57956794D01*
X142857895Y-57972049D01*
X142852369Y-58022914D01*
X142852000Y-58029728D01*
X142852000Y-58652285D01*
X142856475Y-58667524D01*
X142857865Y-58668729D01*
X142865548Y-58670400D01*
X147349884Y-58670400D01*
X147365123Y-58665925D01*
X147366328Y-58664535D01*
X147367999Y-58656852D01*
X147367999Y-58029731D01*
X147367629Y-58022910D01*
X147362105Y-57972048D01*
X147358479Y-57956796D01*
X147313324Y-57836346D01*
X147304786Y-57820751D01*
X147237058Y-57730382D01*
X147212210Y-57663875D01*
X147227263Y-57594493D01*
X147237058Y-57579252D01*
X147305229Y-57488291D01*
X147310615Y-57481105D01*
X147361745Y-57344716D01*
X147368500Y-57282534D01*
X147368500Y-55486266D01*
X147361745Y-55424084D01*
X147310615Y-55287695D01*
X147237370Y-55189964D01*
X147212522Y-55123459D01*
X147227575Y-55054076D01*
X147237370Y-55038835D01*
X147305229Y-54948291D01*
X147310615Y-54941105D01*
X147361745Y-54804716D01*
X147368500Y-54742534D01*
X147368500Y-52946266D01*
X147361745Y-52884084D01*
X147310615Y-52747695D01*
X147237370Y-52649964D01*
X147212522Y-52583459D01*
X147227575Y-52514076D01*
X147237370Y-52498835D01*
X147305229Y-52408291D01*
X147310615Y-52401105D01*
X147361745Y-52264716D01*
X147368500Y-52202534D01*
X147368500Y-50406266D01*
X147361745Y-50344084D01*
X147310615Y-50207695D01*
X147223261Y-50091139D01*
X147106705Y-50003785D01*
X146970316Y-49952655D01*
X146908134Y-49945900D01*
X143311866Y-49945900D01*
X143249684Y-49952655D01*
X143113295Y-50003785D01*
X142996739Y-50091139D01*
X142909385Y-50207695D01*
X142858255Y-50344084D01*
X142851500Y-50406266D01*
X142851500Y-52202534D01*
X142858255Y-52264716D01*
X142909385Y-52401105D01*
X142914771Y-52408291D01*
X142982630Y-52498835D01*
X143007478Y-52565341D01*
X142992425Y-52634724D01*
X142982632Y-52649962D01*
X142909385Y-52747695D01*
X142858255Y-52884084D01*
X142851500Y-52946266D01*
X142851500Y-54742534D01*
X142858255Y-54804716D01*
X142909385Y-54941105D01*
X142914771Y-54948291D01*
X142982630Y-55038835D01*
X143007478Y-55105341D01*
X142992425Y-55174724D01*
X142982632Y-55189962D01*
X142909385Y-55287695D01*
X142858255Y-55424084D01*
X142851500Y-55486266D01*
X142851500Y-57282534D01*
X134417011Y-57282534D01*
X134514853Y-57272423D01*
X134521581Y-57271357D01*
X134865274Y-57197676D01*
X134871822Y-57195897D01*
X135205549Y-57085527D01*
X135211891Y-57083041D01*
X135531718Y-56937288D01*
X135537777Y-56934121D01*
X135839995Y-56754676D01*
X135845659Y-56750884D01*
X136126732Y-56539849D01*
X136131958Y-56535464D01*
X136141613Y-56526428D01*
X136149682Y-56512750D01*
X136149654Y-56512024D01*
X136144512Y-56503723D01*
X134012810Y-54372020D01*
X133998869Y-54364408D01*
X133997034Y-54364539D01*
X133990420Y-54368790D01*
X131856774Y-56502437D01*
X131849160Y-56516381D01*
X129308499Y-56516381D01*
X129308499Y-54049366D01*
X129309999Y-54029981D01*
X129312309Y-54015148D01*
X129312309Y-54015144D01*
X129313690Y-54006275D01*
X129311802Y-53991832D01*
X130687333Y-53991832D01*
X130705117Y-54342893D01*
X130705827Y-54349649D01*
X130761420Y-54696723D01*
X130762859Y-54703378D01*
X130855608Y-55042410D01*
X130857757Y-55048871D01*
X130986581Y-55375912D01*
X130989412Y-55382095D01*
X131152803Y-55693310D01*
X131156286Y-55699152D01*
X131352330Y-55990896D01*
X131356433Y-55996340D01*
X131476425Y-56138836D01*
X131489164Y-56147279D01*
X131499608Y-56141181D01*
X133627980Y-54012810D01*
X133634357Y-54001131D01*
X134364408Y-54001131D01*
X134364539Y-54002966D01*
X134368790Y-54009580D01*
X136499009Y-56139798D01*
X136512605Y-56147223D01*
X136522218Y-56140522D01*
X136622518Y-56023912D01*
X136626676Y-56018514D01*
X136825762Y-55728840D01*
X136829310Y-55723029D01*
X136995942Y-55413559D01*
X136998849Y-55407381D01*
X137131090Y-55081713D01*
X137133304Y-55075283D01*
X137229598Y-54737237D01*
X137231105Y-54730607D01*
X137290332Y-54384118D01*
X137291112Y-54377378D01*
X137312668Y-54024925D01*
X137312784Y-54021323D01*
X137312853Y-54001819D01*
X137312761Y-53998194D01*
X137293666Y-53645615D01*
X137292931Y-53638849D01*
X137236130Y-53291985D01*
X137234663Y-53285313D01*
X137140736Y-52946627D01*
X137138562Y-52940163D01*
X137008598Y-52613578D01*
X137005742Y-52607398D01*
X136841269Y-52296763D01*
X136837769Y-52290937D01*
X136640697Y-51999862D01*
X136636590Y-51994453D01*
X136523565Y-51861179D01*
X136510740Y-51852743D01*
X136500416Y-51858795D01*
X134372020Y-53987190D01*
X134364408Y-54001131D01*
X133634357Y-54001131D01*
X133635592Y-53998869D01*
X133635461Y-53997034D01*
X133631210Y-53990420D01*
X131500992Y-51860203D01*
X131487455Y-51852811D01*
X131477753Y-51859599D01*
X131370430Y-51985257D01*
X131366296Y-51990664D01*
X131168215Y-52281041D01*
X131164697Y-52286851D01*
X130999134Y-52596922D01*
X130996259Y-52603087D01*
X130865155Y-52929218D01*
X130862962Y-52935658D01*
X130767846Y-53274044D01*
X130766363Y-53280679D01*
X130708350Y-53627354D01*
X130707591Y-53634126D01*
X130687357Y-53985037D01*
X130687333Y-53991832D01*
X129311802Y-53991832D01*
X129311015Y-53985816D01*
X129310071Y-53963988D01*
X129324268Y-53638849D01*
X129326112Y-53596603D01*
X129327070Y-53585654D01*
X129379056Y-53190780D01*
X129380965Y-53179955D01*
X129398537Y-53100695D01*
X129467167Y-52791121D01*
X129470012Y-52780504D01*
X129515976Y-52634724D01*
X129589778Y-52400655D01*
X129593534Y-52390334D01*
X129745957Y-52022353D01*
X129750599Y-52012400D01*
X129761915Y-51990664D01*
X129934500Y-51659131D01*
X129939995Y-51649612D01*
X130043678Y-51486862D01*
X131849950Y-51486862D01*
X131849986Y-51487704D01*
X131855037Y-51495826D01*
X133987190Y-53627980D01*
X134001131Y-53635592D01*
X134002966Y-53635461D01*
X134009580Y-53631210D01*
X136142798Y-51497991D01*
X136150412Y-51484047D01*
X136150344Y-51483089D01*
X136145836Y-51476272D01*
X136144418Y-51475065D01*
X135864813Y-51262064D01*
X135859187Y-51258240D01*
X135558214Y-51076681D01*
X135552202Y-51073484D01*
X135233370Y-50925487D01*
X135227070Y-50922967D01*
X134894129Y-50810273D01*
X134887551Y-50808437D01*
X134544417Y-50732367D01*
X134537678Y-50731251D01*
X134188310Y-50692680D01*
X134181529Y-50692301D01*
X133830015Y-50691687D01*
X133823242Y-50692042D01*
X133473720Y-50729395D01*
X133467010Y-50730482D01*
X133123586Y-50805361D01*
X133117011Y-50807172D01*
X132783683Y-50918702D01*
X132777361Y-50921205D01*
X132458034Y-51068079D01*
X132451991Y-51071265D01*
X132150401Y-51251763D01*
X132144755Y-51255571D01*
X131864408Y-51467596D01*
X131859211Y-51471987D01*
X131857972Y-51473155D01*
X131849950Y-51486862D01*
X130043678Y-51486862D01*
X130153993Y-51313702D01*
X130160298Y-51304698D01*
X130402752Y-50988727D01*
X130409817Y-50980307D01*
X130638035Y-50731251D01*
X130678895Y-50686660D01*
X130686664Y-50678891D01*
X130980307Y-50409817D01*
X130988727Y-50402752D01*
X131304698Y-50160298D01*
X131313702Y-50153993D01*
X131617636Y-49960366D01*
X131649613Y-49939994D01*
X131659132Y-49934499D01*
X132012409Y-49750595D01*
X132022353Y-49745957D01*
X132390342Y-49593531D01*
X132400655Y-49589778D01*
X132780505Y-49470012D01*
X132791122Y-49467167D01*
X133179963Y-49380964D01*
X133190772Y-49379057D01*
X133585655Y-49327070D01*
X133596603Y-49326112D01*
X133956553Y-49310396D01*
X133981428Y-49311776D01*
X133993723Y-49313690D01*
X134002625Y-49312526D01*
X134002627Y-49312526D01*
X134018913Y-49310396D01*
X134025285Y-49309563D01*
X134041620Y-49308499D01*
X152269989Y-49308499D01*
X173950633Y-49308500D01*
G37*
%TD.AperFunction*%
%TA.AperFunction,Conductor*%
G36*
X135183621Y-68428502D02*
G01*
X135230114Y-68482158D01*
X135241500Y-68534500D01*
X135241500Y-68866502D01*
X135241693Y-68868950D01*
X135241693Y-68868958D01*
X135243432Y-68891046D01*
X135244438Y-68903831D01*
X135250100Y-68923319D01*
X135280134Y-69026697D01*
X135290855Y-69063601D01*
X135304310Y-69086351D01*
X135321770Y-69155165D01*
X135304311Y-69214630D01*
X135295352Y-69229779D01*
X135289107Y-69244210D01*
X135250061Y-69378605D01*
X135250101Y-69392706D01*
X135257370Y-69396000D01*
X135582430Y-69396000D01*
X135631275Y-69406115D01*
X135636399Y-69409145D01*
X135644007Y-69411355D01*
X135644011Y-69411357D01*
X135710909Y-69430792D01*
X135796169Y-69455562D01*
X135802574Y-69456066D01*
X135802579Y-69456067D01*
X135831042Y-69458307D01*
X135831050Y-69458307D01*
X135833498Y-69458500D01*
X136653000Y-69458500D01*
X136721121Y-69478502D01*
X136767614Y-69532158D01*
X136779000Y-69584500D01*
X136779000Y-70439884D01*
X136783475Y-70455123D01*
X136784865Y-70456328D01*
X136792548Y-70457999D01*
X137213984Y-70457999D01*
X137218920Y-70457805D01*
X137247336Y-70455570D01*
X137259931Y-70453270D01*
X137410882Y-70409413D01*
X137481878Y-70409615D01*
X137541495Y-70448169D01*
X137571363Y-70517406D01*
X137577257Y-70574206D01*
X137580149Y-70587600D01*
X137631591Y-70741792D01*
X137637758Y-70754958D01*
X137668273Y-70804269D01*
X137687111Y-70872721D01*
X137670249Y-70933569D01*
X137615473Y-71028444D01*
X137593716Y-71095405D01*
X137559731Y-71200000D01*
X137556458Y-71210072D01*
X137555768Y-71216633D01*
X137555768Y-71216635D01*
X137554503Y-71228672D01*
X137527489Y-71294328D01*
X137469267Y-71334957D01*
X137429193Y-71341500D01*
X137254513Y-71341500D01*
X137248061Y-71342872D01*
X137248056Y-71342872D01*
X137161112Y-71361353D01*
X137067712Y-71381206D01*
X137061682Y-71383891D01*
X137061681Y-71383891D01*
X136899278Y-71456197D01*
X136899276Y-71456198D01*
X136893248Y-71458882D01*
X136887907Y-71462762D01*
X136887906Y-71462763D01*
X136839582Y-71497873D01*
X136738747Y-71571134D01*
X136691145Y-71624002D01*
X136630700Y-71661240D01*
X136559716Y-71659888D01*
X136503874Y-71624000D01*
X136415675Y-71526045D01*
X136415674Y-71526044D01*
X136411253Y-71521134D01*
X136256752Y-71408882D01*
X136250724Y-71406198D01*
X136250722Y-71406197D01*
X136088319Y-71333891D01*
X136088318Y-71333891D01*
X136082288Y-71331206D01*
X135988887Y-71311353D01*
X135901944Y-71292872D01*
X135901939Y-71292872D01*
X135895487Y-71291500D01*
X135704513Y-71291500D01*
X135698061Y-71292872D01*
X135698056Y-71292872D01*
X135560697Y-71322069D01*
X135489906Y-71316667D01*
X135433274Y-71273850D01*
X135408780Y-71207212D01*
X135408500Y-71198822D01*
X135408500Y-70549600D01*
X135406965Y-70534801D01*
X135403823Y-70504526D01*
X135416687Y-70434705D01*
X135465258Y-70382923D01*
X135534114Y-70365620D01*
X135593289Y-70383068D01*
X135629779Y-70404648D01*
X135644210Y-70410893D01*
X135790065Y-70453269D01*
X135802667Y-70455570D01*
X135831084Y-70457807D01*
X135836014Y-70458000D01*
X136252885Y-70458000D01*
X136268124Y-70453525D01*
X136269329Y-70452135D01*
X136271000Y-70444452D01*
X136271000Y-69922115D01*
X136266525Y-69906876D01*
X136265135Y-69905671D01*
X136257452Y-69904000D01*
X135263122Y-69904000D01*
X135247883Y-69908475D01*
X135228898Y-69930384D01*
X135224910Y-69939119D01*
X135165186Y-69977506D01*
X135094189Y-69977510D01*
X135063565Y-69963872D01*
X134978968Y-69911725D01*
X134978966Y-69911724D01*
X134972738Y-69907885D01*
X134837127Y-69862905D01*
X134811389Y-69854368D01*
X134811387Y-69854368D01*
X134804861Y-69852203D01*
X134798025Y-69851503D01*
X134798022Y-69851502D01*
X134754969Y-69847091D01*
X134700400Y-69841500D01*
X133299600Y-69841500D01*
X133296354Y-69841837D01*
X133296350Y-69841837D01*
X133200692Y-69851762D01*
X133200688Y-69851763D01*
X133193834Y-69852474D01*
X133187298Y-69854655D01*
X133187296Y-69854655D01*
X133074006Y-69892452D01*
X133026054Y-69908450D01*
X132875652Y-70001522D01*
X132750695Y-70126697D01*
X132746855Y-70132927D01*
X132746854Y-70132928D01*
X132734403Y-70153128D01*
X132657885Y-70277262D01*
X132652308Y-70294076D01*
X132608038Y-70427548D01*
X132602203Y-70445139D01*
X132601503Y-70451975D01*
X132601502Y-70451978D01*
X132600905Y-70457805D01*
X132591500Y-70549600D01*
X132591500Y-71350400D01*
X132591837Y-71353646D01*
X132591837Y-71353650D01*
X132601234Y-71444213D01*
X132602474Y-71456166D01*
X132604655Y-71462702D01*
X132604655Y-71462704D01*
X132637885Y-71562306D01*
X132658450Y-71623946D01*
X132751522Y-71774348D01*
X132876697Y-71899305D01*
X132882927Y-71903145D01*
X132882928Y-71903146D01*
X133014701Y-71984372D01*
X133027262Y-71992115D01*
X133067882Y-72005588D01*
X133188611Y-72045632D01*
X133188613Y-72045632D01*
X133195139Y-72047797D01*
X133201975Y-72048497D01*
X133201978Y-72048498D01*
X133245031Y-72052909D01*
X133299600Y-72058500D01*
X134700400Y-72058500D01*
X134749029Y-72053454D01*
X134818849Y-72066318D01*
X134870631Y-72114889D01*
X134887934Y-72183744D01*
X134887342Y-72191948D01*
X134886496Y-72200000D01*
X134887186Y-72206565D01*
X134902506Y-72352330D01*
X134889734Y-72422168D01*
X134841232Y-72474015D01*
X134777196Y-72491500D01*
X133555983Y-72491500D01*
X133540191Y-72490506D01*
X133538579Y-72490302D01*
X133510657Y-72486775D01*
X133490256Y-72488775D01*
X133468087Y-72488988D01*
X133315671Y-72476993D01*
X133296145Y-72473900D01*
X133211071Y-72453476D01*
X133125995Y-72433051D01*
X133107197Y-72426944D01*
X132945528Y-72359978D01*
X132927923Y-72351008D01*
X132778716Y-72259574D01*
X132762727Y-72247957D01*
X132629665Y-72134311D01*
X132615687Y-72120333D01*
X132502043Y-71987273D01*
X132490424Y-71971281D01*
X132398992Y-71822077D01*
X132390022Y-71804472D01*
X132323056Y-71642803D01*
X132316948Y-71624003D01*
X132316935Y-71623946D01*
X132287601Y-71501762D01*
X132276100Y-71453855D01*
X132273007Y-71434328D01*
X132271310Y-71412763D01*
X132262248Y-71297622D01*
X132262232Y-71278068D01*
X132262450Y-71275231D01*
X132263001Y-71271313D01*
X132263299Y-71250000D01*
X132259285Y-71214213D01*
X132258500Y-71200169D01*
X132258500Y-69562151D01*
X132259726Y-69544615D01*
X132262452Y-69525221D01*
X132262452Y-69525218D01*
X132263001Y-69521313D01*
X132263299Y-69500000D01*
X132262005Y-69488461D01*
X132261699Y-69463437D01*
X132268097Y-69390308D01*
X132274121Y-69321444D01*
X132277935Y-69299815D01*
X132289267Y-69257526D01*
X132321475Y-69137326D01*
X132328984Y-69116697D01*
X132400076Y-68964238D01*
X132411057Y-68945219D01*
X132507540Y-68807426D01*
X132521658Y-68790601D01*
X132640601Y-68671658D01*
X132657426Y-68657540D01*
X132795219Y-68561057D01*
X132814239Y-68550075D01*
X132822446Y-68546248D01*
X132966697Y-68478984D01*
X132987326Y-68471475D01*
X133149817Y-68427935D01*
X133171443Y-68424121D01*
X133308197Y-68412157D01*
X133325310Y-68412487D01*
X133325313Y-68412243D01*
X133332348Y-68412341D01*
X133339343Y-68413225D01*
X133381401Y-68409101D01*
X133393698Y-68408500D01*
X135115500Y-68408500D01*
X135183621Y-68428502D01*
G37*
%TD.AperFunction*%
%TD*%
M02*
