M48
; DRILL file {KiCad (6.0.9)} date Fri 18 Nov 2022 10:16:56 PM MST
; FORMAT={-:-/ absolute / inch / decimal}
; #@! TF.CreationDate,2022-11-18T22:16:56-07:00
; #@! TF.GenerationSoftware,Kicad,Pcbnew,(6.0.9)
; #@! TF.FileFunction,Plated,1,4,PTH
FMAT,2
INCH
; #@! TA.AperFunction,Plated,PTH,ViaDrill
T1C0.0157
; #@! TA.AperFunction,Plated,PTH,ComponentDrill
T2C0.0354
; #@! TA.AperFunction,Plated,PTH,ComponentDrill
T3C0.1260
%
G90
G05
T1
X5.2854Y-2.7087
X5.2972Y-3.1024
X5.3209Y-3.1535
X5.327Y-2.9608
X5.3465Y-2.8425
X5.3858Y-2.7913
X5.4075Y-2.8445
X5.4508Y-2.811
X5.4606Y-3.0039
X5.4823Y-3.2579
X5.5059Y-2.626
X5.5236Y-3.0709
X5.5354Y-2.8169
X5.5827Y-3.2579
X5.6004Y-2.8031
X5.8886Y-3.0065
X5.8957Y-2.9213
X5.9567Y-3.3858
X6.124Y-3.4685
X6.185Y-3.3858
X6.2598Y-3.5039
X6.2598Y-3.6063
X6.5632Y-2.1199
X6.5664Y-2.4199
X6.6102Y-2.5965
X6.6161Y-3.0315
X6.6459Y-2.1199
X6.6476Y-2.4035
X6.6654Y-2.7913
X6.7087Y-2.6063
X6.7165Y-3.0394
X6.8071Y-2.8484
X6.8937Y-2.7185
T2
X5.4423Y-2.3425
X5.5423Y-2.3425
T3
X5.2756Y-2.126
X5.2756Y-3.7008
X6.8504Y-2.126
X6.8504Y-3.7008
T0
M30
