%TF.GenerationSoftware,KiCad,Pcbnew,(6.0.9)*%
%TF.CreationDate,2022-11-19T08:59:55-07:00*%
%TF.ProjectId,AQM,41514d2e-6b69-4636-9164-5f7063625858,rev?*%
%TF.SameCoordinates,Original*%
%TF.FileFunction,Paste,Top*%
%TF.FilePolarity,Positive*%
%FSLAX46Y46*%
G04 Gerber Fmt 4.6, Leading zero omitted, Abs format (unit mm)*
G04 Created by KiCad (PCBNEW (6.0.9)) date 2022-11-19 08:59:55*
%MOMM*%
%LPD*%
G01*
G04 APERTURE LIST*
G04 Aperture macros list*
%AMRoundRect*
0 Rectangle with rounded corners*
0 $1 Rounding radius*
0 $2 $3 $4 $5 $6 $7 $8 $9 X,Y pos of 4 corners*
0 Add a 4 corners polygon primitive as box body*
4,1,4,$2,$3,$4,$5,$6,$7,$8,$9,$2,$3,0*
0 Add four circle primitives for the rounded corners*
1,1,$1+$1,$2,$3*
1,1,$1+$1,$4,$5*
1,1,$1+$1,$6,$7*
1,1,$1+$1,$8,$9*
0 Add four rect primitives between the rounded corners*
20,1,$1+$1,$2,$3,$4,$5,0*
20,1,$1+$1,$4,$5,$6,$7,0*
20,1,$1+$1,$6,$7,$8,$9,0*
20,1,$1+$1,$8,$9,$2,$3,0*%
G04 Aperture macros list end*
%ADD10RoundRect,0.250000X0.450000X-0.262500X0.450000X0.262500X-0.450000X0.262500X-0.450000X-0.262500X0*%
%ADD11RoundRect,0.250000X0.262500X0.450000X-0.262500X0.450000X-0.262500X-0.450000X0.262500X-0.450000X0*%
%ADD12RoundRect,0.150000X0.587500X0.150000X-0.587500X0.150000X-0.587500X-0.150000X0.587500X-0.150000X0*%
%ADD13RoundRect,0.250000X0.250000X0.475000X-0.250000X0.475000X-0.250000X-0.475000X0.250000X-0.475000X0*%
%ADD14RoundRect,0.250000X0.475000X-0.250000X0.475000X0.250000X-0.475000X0.250000X-0.475000X-0.250000X0*%
%ADD15RoundRect,0.150000X0.150000X0.625000X-0.150000X0.625000X-0.150000X-0.625000X0.150000X-0.625000X0*%
%ADD16RoundRect,0.250000X0.350000X0.650000X-0.350000X0.650000X-0.350000X-0.650000X0.350000X-0.650000X0*%
%ADD17RoundRect,0.250000X-0.262500X-0.450000X0.262500X-0.450000X0.262500X0.450000X-0.262500X0.450000X0*%
%ADD18RoundRect,0.250000X-0.475000X0.250000X-0.475000X-0.250000X0.475000X-0.250000X0.475000X0.250000X0*%
G04 APERTURE END LIST*
D10*
%TO.C,R8*%
X99020000Y-56462500D03*
X99020000Y-54637500D03*
%TD*%
D11*
%TO.C,R7*%
X104942500Y-59920000D03*
X103117500Y-59920000D03*
%TD*%
D10*
%TO.C,R6*%
X106780000Y-61532500D03*
X106780000Y-59707500D03*
%TD*%
D12*
%TO.C,Q1*%
X99082500Y-59090000D03*
X100957500Y-58140000D03*
X100957500Y-60040000D03*
%TD*%
D13*
%TO.C,C7*%
X136113600Y-78587600D03*
X134213600Y-78587600D03*
%TD*%
D14*
%TO.C,C1*%
X132750000Y-51300000D03*
X132750000Y-49400000D03*
%TD*%
D15*
%TO.C,J1*%
X138300000Y-82875000D03*
X137300000Y-82875000D03*
X136300000Y-82875000D03*
X135300000Y-82875000D03*
D16*
X139600000Y-85400000D03*
X134000000Y-85400000D03*
%TD*%
%TO.C,J5*%
X131200000Y-85400000D03*
X125600000Y-85400000D03*
D15*
X126900000Y-82875000D03*
X127900000Y-82875000D03*
X128900000Y-82875000D03*
X129900000Y-82875000D03*
%TD*%
D13*
%TO.C,C10*%
X119263200Y-80568800D03*
X117363200Y-80568800D03*
%TD*%
D17*
%TO.C,R4*%
X105001700Y-74574400D03*
X103176700Y-74574400D03*
%TD*%
D16*
%TO.C,J2*%
X122800000Y-85400000D03*
X117200000Y-85400000D03*
D15*
X118500000Y-82875000D03*
X119500000Y-82875000D03*
X120500000Y-82875000D03*
X121500000Y-82875000D03*
%TD*%
D18*
%TO.C,C6*%
X138825000Y-73475000D03*
X138825000Y-75375000D03*
%TD*%
D13*
%TO.C,C11*%
X100700800Y-80568800D03*
X102600800Y-80568800D03*
%TD*%
D16*
%TO.C,J3*%
X106075000Y-85400000D03*
X100475000Y-85400000D03*
D15*
X101775000Y-82875000D03*
X102775000Y-82875000D03*
X103775000Y-82875000D03*
X104775000Y-82875000D03*
%TD*%
D17*
%TO.C,R2*%
X135162500Y-73350000D03*
X136987500Y-73350000D03*
%TD*%
D13*
%TO.C,C14*%
X102600800Y-78587600D03*
X100700800Y-78587600D03*
%TD*%
D14*
%TO.C,C2*%
X134725000Y-51300000D03*
X134725000Y-49400000D03*
%TD*%
D13*
%TO.C,C12*%
X111033600Y-80568800D03*
X109133600Y-80568800D03*
%TD*%
D16*
%TO.C,J4*%
X114400000Y-85400000D03*
X108800000Y-85400000D03*
D15*
X110100000Y-82875000D03*
X111100000Y-82875000D03*
X112100000Y-82875000D03*
X113100000Y-82875000D03*
%TD*%
D18*
%TO.C,C5*%
X133425000Y-73375000D03*
X133425000Y-75275000D03*
%TD*%
D13*
%TO.C,C8*%
X119263200Y-78587600D03*
X117363200Y-78587600D03*
%TD*%
%TO.C,C9*%
X136128800Y-80568800D03*
X134228800Y-80568800D03*
%TD*%
%TO.C,C13*%
X127746800Y-80568800D03*
X125846800Y-80568800D03*
%TD*%
%TO.C,C15*%
X111033600Y-78587600D03*
X109133600Y-78587600D03*
%TD*%
D17*
%TO.C,R5*%
X106068500Y-72593200D03*
X104243500Y-72593200D03*
%TD*%
D11*
%TO.C,R1*%
X107375000Y-54600000D03*
X105550000Y-54600000D03*
%TD*%
D13*
%TO.C,C16*%
X127746800Y-78568800D03*
X125846800Y-78568800D03*
%TD*%
D18*
%TO.C,C3*%
X132850000Y-44775000D03*
X132850000Y-46675000D03*
%TD*%
D17*
%TO.C,R3*%
X140662500Y-73375000D03*
X142487500Y-73375000D03*
%TD*%
D18*
%TO.C,C4*%
X134850000Y-44780000D03*
X134850000Y-46680000D03*
%TD*%
M02*
