%TF.GenerationSoftware,KiCad,Pcbnew,(6.0.9)*%
%TF.CreationDate,2022-11-18T22:17:03-07:00*%
%TF.ProjectId,AQM,41514d2e-6b69-4636-9164-5f7063625858,rev?*%
%TF.SameCoordinates,Original*%
%TF.FileFunction,Copper,L4,Bot*%
%TF.FilePolarity,Positive*%
%FSLAX46Y46*%
G04 Gerber Fmt 4.6, Leading zero omitted, Abs format (unit mm)*
G04 Created by KiCad (PCBNEW (6.0.9)) date 2022-11-18 22:17:03*
%MOMM*%
%LPD*%
G01*
G04 APERTURE LIST*
G04 Aperture macros list*
%AMFreePoly0*
4,1,6,1.000000,0.000000,0.500000,-0.750000,-0.500000,-0.750000,-0.500000,0.750000,0.500000,0.750000,1.000000,0.000000,1.000000,0.000000,$1*%
%AMFreePoly1*
4,1,6,0.500000,-0.750000,-0.650000,-0.750000,-0.150000,0.000000,-0.650000,0.750000,0.500000,0.750000,0.500000,-0.750000,0.500000,-0.750000,$1*%
G04 Aperture macros list end*
%TA.AperFunction,ComponentPad*%
%ADD10C,5.600000*%
%TD*%
%TA.AperFunction,ComponentPad*%
%ADD11R,1.800000X1.800000*%
%TD*%
%TA.AperFunction,ComponentPad*%
%ADD12C,1.800000*%
%TD*%
%TA.AperFunction,SMDPad,CuDef*%
%ADD13FreePoly0,270.000000*%
%TD*%
%TA.AperFunction,SMDPad,CuDef*%
%ADD14FreePoly1,270.000000*%
%TD*%
%TA.AperFunction,SMDPad,CuDef*%
%ADD15FreePoly0,180.000000*%
%TD*%
%TA.AperFunction,SMDPad,CuDef*%
%ADD16FreePoly1,180.000000*%
%TD*%
%TA.AperFunction,SMDPad,CuDef*%
%ADD17FreePoly0,0.000000*%
%TD*%
%TA.AperFunction,SMDPad,CuDef*%
%ADD18FreePoly1,0.000000*%
%TD*%
%TA.AperFunction,SMDPad,CuDef*%
%ADD19FreePoly0,90.000000*%
%TD*%
%TA.AperFunction,SMDPad,CuDef*%
%ADD20FreePoly1,90.000000*%
%TD*%
%TA.AperFunction,ViaPad*%
%ADD21C,0.800000*%
%TD*%
%TA.AperFunction,Conductor*%
%ADD22C,0.500000*%
%TD*%
G04 APERTURE END LIST*
D10*
%TO.P,H4,1,1*%
%TO.N,GND*%
X134000000Y-54000000D03*
%TD*%
%TO.P,H3,1,1*%
%TO.N,GND*%
X174000000Y-54000000D03*
%TD*%
%TO.P,H2,1,1*%
%TO.N,GND*%
X134000000Y-94000000D03*
%TD*%
%TO.P,H1,1,1*%
%TO.N,GND*%
X174000000Y-94000000D03*
%TD*%
D11*
%TO.P,D1,1,K*%
%TO.N,GND*%
X140775000Y-59500000D03*
D12*
%TO.P,D1,2,A*%
%TO.N,Net-(D1-Pad2)*%
X138235000Y-59500000D03*
%TD*%
D13*
%TO.P,JP8,1,A*%
%TO.N,Net-(C11-Pad1)*%
X141800000Y-79575000D03*
D14*
%TO.P,JP8,2,B*%
%TO.N,+3V3*%
X141800000Y-81025000D03*
%TD*%
D15*
%TO.P,JP5,1,A*%
%TO.N,Net-(C7-Pad1)*%
X141280000Y-72980000D03*
D16*
%TO.P,JP5,2,B*%
%TO.N,+3V3*%
X139830000Y-72980000D03*
%TD*%
D13*
%TO.P,JP12,1,A*%
%TO.N,Net-(C11-Pad1)*%
X139255000Y-79590000D03*
D14*
%TO.P,JP12,2,B*%
%TO.N,VBUS*%
X139255000Y-81040000D03*
%TD*%
D13*
%TO.P,JP6,1,A*%
%TO.N,Net-(C10-Pad1)*%
X141585000Y-68485000D03*
D14*
%TO.P,JP6,2,B*%
%TO.N,+3V3*%
X141585000Y-69935000D03*
%TD*%
D17*
%TO.P,JP4,1,A*%
%TO.N,Net-(C5-Pad1)*%
X155625000Y-91600000D03*
D18*
%TO.P,JP4,2,B*%
%TO.N,VBUS*%
X157075000Y-91600000D03*
%TD*%
D19*
%TO.P,JP1,1,A*%
%TO.N,Net-(JP1-Pad1)*%
X170425000Y-69555000D03*
D20*
%TO.P,JP1,2,B*%
%TO.N,+3V3*%
X170425000Y-68105000D03*
%TD*%
D19*
%TO.P,JP9,1,A*%
%TO.N,Net-(C7-Pad1)*%
X167900000Y-69550000D03*
D20*
%TO.P,JP9,2,B*%
%TO.N,VBUS*%
X167900000Y-68100000D03*
%TD*%
D13*
%TO.P,JP10,1,A*%
%TO.N,Net-(C10-Pad1)*%
X139050000Y-68475000D03*
D14*
%TO.P,JP10,2,B*%
%TO.N,VBUS*%
X139050000Y-69925000D03*
%TD*%
D15*
%TO.P,JP2,1,A*%
%TO.N,Net-(JP1-Pad1)*%
X141265000Y-75515000D03*
D16*
%TO.P,JP2,2,B*%
%TO.N,VBUS*%
X139815000Y-75515000D03*
%TD*%
D19*
%TO.P,JP7,1,A*%
%TO.N,Net-(C12-Pad1)*%
X168050000Y-80325000D03*
D20*
%TO.P,JP7,2,B*%
%TO.N,+3V3*%
X168050000Y-78875000D03*
%TD*%
D17*
%TO.P,JP3,1,A*%
%TO.N,Net-(C5-Pad1)*%
X155625000Y-89100000D03*
D18*
%TO.P,JP3,2,B*%
%TO.N,+3V3*%
X157075000Y-89100000D03*
%TD*%
D19*
%TO.P,JP11,1,A*%
%TO.N,Net-(C12-Pad1)*%
X170600000Y-80325000D03*
D20*
%TO.P,JP11,2,B*%
%TO.N,VBUS*%
X170600000Y-78875000D03*
%TD*%
D21*
%TO.N,/I2C.SCL*%
X175100000Y-69050000D03*
X172900000Y-72350000D03*
%TO.N,Net-(C7-Pad1)*%
X169300000Y-70900000D03*
%TO.N,VBUS*%
X168805600Y-53844400D03*
X166705600Y-53844400D03*
%TO.N,+3V3*%
X168850000Y-61050000D03*
X166785600Y-61464400D03*
X170400000Y-66200000D03*
%TO.N,VBUS*%
X167900000Y-65950000D03*
X170600000Y-77200000D03*
%TO.N,+3V3*%
X168050000Y-77000000D03*
%TO.N,/I2C.SCL*%
X157100000Y-86000000D03*
X151300000Y-86000000D03*
%TO.N,VBUS*%
X159000000Y-91600000D03*
%TO.N,+3V3*%
X159000000Y-89000000D03*
%TO.N,Net-(C5-Pad1)*%
X155550000Y-88100000D03*
%TO.N,GND*%
X134250000Y-68800000D03*
X136800000Y-70900000D03*
X140600000Y-71550000D03*
%TO.N,+3V3*%
X137350000Y-72250000D03*
%TO.N,VBUS*%
X138700000Y-76300000D03*
%TO.N,+3V3*%
X141800000Y-82750000D03*
%TO.N,VBUS*%
X139250000Y-82750000D03*
%TO.N,/I2C.SDA*%
X149750000Y-74200000D03*
%TO.N,/I2C.SCL*%
X135305000Y-75205000D03*
X149570729Y-76364500D03*
%TO.N,Net-(C11-Pad1)*%
X140300000Y-78000000D03*
X135150000Y-80100000D03*
%TO.N,+3V3*%
X142250000Y-71200000D03*
%TO.N,VBUS*%
X138450000Y-71400000D03*
%TO.N,Net-(C10-Pad1)*%
X139850000Y-66700000D03*
%TO.N,/I2C.SDA*%
X134550000Y-78800000D03*
X135800000Y-72200000D03*
%TD*%
D22*
%TO.N,/I2C.SCL*%
X172900000Y-72350000D02*
G75*
G03*
X175100000Y-70150000I0J2200000D01*
G01*
X175100000Y-69050000D02*
X175100000Y-70150000D01*
%TO.N,Net-(C7-Pad1)*%
X164470000Y-72980000D02*
G75*
G03*
X167900000Y-69550000I0J3430000D01*
G01*
X164470000Y-72980000D02*
X141280000Y-72980000D01*
%TO.N,/I2C.SCL*%
X149499848Y-76925664D02*
X149570729Y-76854783D01*
X149570729Y-76854783D02*
X149570729Y-76364500D01*
X137250000Y-77150000D02*
X148750000Y-77150000D01*
%TO.N,Net-(JP1-Pad1)*%
X164465000Y-75515000D02*
X141265000Y-75515000D01*
%TO.N,/I2C.SCL*%
X149499833Y-76925641D02*
G75*
G02*
X148750000Y-77150000I-761833J1180941D01*
G01*
X137250000Y-77150000D02*
G75*
G02*
X135305000Y-75205000I0J1945000D01*
G01*
%TO.N,Net-(JP1-Pad1)*%
X164465000Y-75515000D02*
G75*
G03*
X170425000Y-69555000I0J5960000D01*
G01*
%TO.N,Net-(C7-Pad1)*%
X167900000Y-69550000D02*
X167900000Y-70150000D01*
X168650000Y-70900000D02*
X169300000Y-70900000D01*
X168650000Y-70900000D02*
G75*
G02*
X167900000Y-70150000I0J750000D01*
G01*
%TO.N,+3V3*%
X170400000Y-66200000D02*
G75*
G02*
X170425000Y-66225000I0J-25000D01*
G01*
X170425000Y-68105000D02*
X170425000Y-66225000D01*
%TO.N,VBUS*%
X167900000Y-68100000D02*
X167900000Y-65950000D01*
X170600000Y-78875000D02*
X170600000Y-77200000D01*
%TO.N,+3V3*%
X168050000Y-78875000D02*
X168050000Y-77000000D01*
%TO.N,/I2C.SCL*%
X157100000Y-86000000D02*
X151300000Y-86000000D01*
%TO.N,VBUS*%
X157075000Y-91600000D02*
X159000000Y-91600000D01*
%TO.N,+3V3*%
X159000000Y-89000000D02*
G75*
G02*
X158900000Y-89100000I-100000J0D01*
G01*
X157075000Y-89100000D02*
X158900000Y-89100000D01*
%TO.N,Net-(C5-Pad1)*%
X155550000Y-88100000D02*
X155550000Y-91525000D01*
X155625000Y-91600000D02*
G75*
G02*
X155550000Y-91525000I0J75000D01*
G01*
%TO.N,+3V3*%
X137350000Y-72250000D02*
G75*
G03*
X138080000Y-72980000I730000J0D01*
G01*
X139830000Y-72980000D02*
X138080000Y-72980000D01*
%TO.N,VBUS*%
X138700000Y-76300000D02*
G75*
G02*
X139485000Y-75515000I785000J0D01*
G01*
X139815000Y-75515000D02*
X139485000Y-75515000D01*
%TO.N,+3V3*%
X141800000Y-81025000D02*
X141800000Y-82750000D01*
%TO.N,VBUS*%
X139250000Y-82750000D02*
G75*
G03*
X139255000Y-82745000I0J5000D01*
G01*
X139255000Y-81040000D02*
X139255000Y-82745000D01*
%TO.N,/I2C.SDA*%
X149750000Y-74200000D02*
X137800000Y-74200000D01*
X135800000Y-72200000D02*
G75*
G03*
X137800000Y-74200000I2000000J0D01*
G01*
%TO.N,Net-(C11-Pad1)*%
X140300000Y-78000000D02*
X140300000Y-78545000D01*
X139255000Y-79590000D02*
G75*
G03*
X140300000Y-78545000I0J1045000D01*
G01*
X135150000Y-80100000D02*
G75*
G02*
X135660000Y-79590000I510000J0D01*
G01*
X139255000Y-79590000D02*
X135660000Y-79590000D01*
X139255000Y-79590000D02*
X141785000Y-79590000D01*
X141800000Y-79575000D02*
G75*
G02*
X141785000Y-79590000I-15000J0D01*
G01*
%TO.N,+3V3*%
X142250000Y-71200000D02*
G75*
G02*
X141585000Y-70535000I0J665000D01*
G01*
X141585000Y-69935000D02*
X141585000Y-70535000D01*
%TO.N,VBUS*%
X138450000Y-71400000D02*
G75*
G03*
X139050000Y-70800000I0J600000D01*
G01*
X139050000Y-69925000D02*
X139050000Y-70800000D01*
%TO.N,Net-(C10-Pad1)*%
X139850000Y-66700000D02*
X139850000Y-66750000D01*
X141585000Y-68485000D02*
G75*
G02*
X139850000Y-66750000I0J1735000D01*
G01*
X139850000Y-66700000D02*
X139850000Y-67675000D01*
X139050000Y-68475000D02*
G75*
G03*
X139850000Y-67675000I0J800000D01*
G01*
%TO.N,/I2C.SDA*%
X134550000Y-78850000D02*
G75*
G02*
X134000000Y-79400000I-550000J0D01*
G01*
X134550000Y-78850000D02*
X134550000Y-78800000D01*
X131600000Y-76400000D02*
X131600000Y-76450000D01*
X131600000Y-76450000D02*
X131600000Y-77000000D01*
X131600000Y-76400000D02*
G75*
G02*
X135800000Y-72200000I4200000J0D01*
G01*
X134000000Y-79400000D02*
G75*
G02*
X131600000Y-77000000I0J2400000D01*
G01*
%TD*%
%TA.AperFunction,Conductor*%
%TO.N,GND*%
G36*
X173950633Y-49308500D02*
G01*
X173970018Y-49310000D01*
X173984851Y-49312310D01*
X173984855Y-49312310D01*
X173993724Y-49313691D01*
X174014183Y-49311016D01*
X174036007Y-49310072D01*
X174403396Y-49326113D01*
X174414345Y-49327071D01*
X174809227Y-49379057D01*
X174820032Y-49380963D01*
X175208885Y-49467170D01*
X175219495Y-49470013D01*
X175599345Y-49589779D01*
X175609658Y-49593532D01*
X175977647Y-49745958D01*
X175987582Y-49750591D01*
X176340878Y-49934506D01*
X176350386Y-49939995D01*
X176382363Y-49960367D01*
X176686289Y-50153989D01*
X176695293Y-50160293D01*
X177011282Y-50402759D01*
X177019685Y-50409811D01*
X177166515Y-50544356D01*
X177313335Y-50678893D01*
X177321107Y-50686665D01*
X177432692Y-50808437D01*
X177590189Y-50980315D01*
X177597241Y-50988718D01*
X177660581Y-51071265D01*
X177839707Y-51304707D01*
X177846011Y-51313711D01*
X178060004Y-51649613D01*
X178065494Y-51659122D01*
X178249400Y-52012400D01*
X178254042Y-52022353D01*
X178406465Y-52390334D01*
X178410221Y-52400655D01*
X178493994Y-52666348D01*
X178529987Y-52780504D01*
X178532830Y-52791115D01*
X178619037Y-53179968D01*
X178620943Y-53190773D01*
X178632779Y-53280679D01*
X178672929Y-53585655D01*
X178673887Y-53596604D01*
X178684420Y-53837835D01*
X178689603Y-53956552D01*
X178688223Y-53981429D01*
X178686309Y-53993724D01*
X178687473Y-54002626D01*
X178687473Y-54002628D01*
X178690436Y-54025283D01*
X178691500Y-54041621D01*
X178691501Y-93950634D01*
X178690001Y-93970019D01*
X178687691Y-93984852D01*
X178687691Y-93984856D01*
X178686310Y-93993725D01*
X178688985Y-94014184D01*
X178689929Y-94036012D01*
X178673888Y-94403396D01*
X178672930Y-94414345D01*
X178630421Y-94737237D01*
X178620944Y-94809220D01*
X178619036Y-94820037D01*
X178562450Y-95075283D01*
X178532833Y-95208878D01*
X178529988Y-95219496D01*
X178410225Y-95599337D01*
X178406469Y-95609658D01*
X178357103Y-95728840D01*
X178254047Y-95977638D01*
X178249405Y-95987591D01*
X178166306Y-96147223D01*
X178065501Y-96340868D01*
X178060005Y-96350388D01*
X177846007Y-96686298D01*
X177839702Y-96695302D01*
X177597248Y-97011273D01*
X177590183Y-97019693D01*
X177325187Y-97308886D01*
X177321109Y-97313336D01*
X177313336Y-97321109D01*
X177019693Y-97590183D01*
X177011273Y-97597248D01*
X176695302Y-97839702D01*
X176686298Y-97846007D01*
X176350388Y-98060005D01*
X176340869Y-98065500D01*
X175987591Y-98249405D01*
X175977647Y-98254043D01*
X175609658Y-98406469D01*
X175599345Y-98410222D01*
X175219496Y-98529988D01*
X175208879Y-98532833D01*
X174820037Y-98619036D01*
X174809228Y-98620943D01*
X174414346Y-98672930D01*
X174403397Y-98673888D01*
X174043447Y-98689604D01*
X174018572Y-98688224D01*
X174006277Y-98686310D01*
X173997375Y-98687474D01*
X173997373Y-98687474D01*
X173982324Y-98689442D01*
X173974715Y-98690437D01*
X173958380Y-98691501D01*
X134049366Y-98691501D01*
X134029981Y-98690001D01*
X134015148Y-98687691D01*
X134015144Y-98687691D01*
X134006275Y-98686310D01*
X133985816Y-98688985D01*
X133963992Y-98689929D01*
X133596603Y-98673888D01*
X133585654Y-98672930D01*
X133190772Y-98620943D01*
X133179963Y-98619036D01*
X132791121Y-98532833D01*
X132780504Y-98529988D01*
X132400655Y-98410222D01*
X132390342Y-98406469D01*
X132022353Y-98254043D01*
X132012409Y-98249405D01*
X131659131Y-98065500D01*
X131649612Y-98060005D01*
X131313702Y-97846007D01*
X131304698Y-97839702D01*
X130988727Y-97597248D01*
X130980307Y-97590183D01*
X130686664Y-97321109D01*
X130678891Y-97313336D01*
X130674814Y-97308886D01*
X130409817Y-97019693D01*
X130402752Y-97011273D01*
X130160298Y-96695302D01*
X130153993Y-96686298D01*
X130045744Y-96516381D01*
X131849160Y-96516381D01*
X131849237Y-96517470D01*
X131851698Y-96521206D01*
X132125632Y-96731404D01*
X132131262Y-96735259D01*
X132431591Y-96917862D01*
X132437593Y-96921080D01*
X132755897Y-97070184D01*
X132762202Y-97072732D01*
X133094743Y-97186587D01*
X133101313Y-97188446D01*
X133444183Y-97265714D01*
X133450912Y-97266853D01*
X133800143Y-97306643D01*
X133806933Y-97307046D01*
X134158419Y-97308886D01*
X134165220Y-97308554D01*
X134514853Y-97272423D01*
X134521581Y-97271357D01*
X134865274Y-97197676D01*
X134871822Y-97195897D01*
X135205549Y-97085527D01*
X135211891Y-97083041D01*
X135531718Y-96937288D01*
X135537777Y-96934121D01*
X135839995Y-96754676D01*
X135845659Y-96750884D01*
X136126732Y-96539849D01*
X136131958Y-96535464D01*
X136141613Y-96526428D01*
X136147540Y-96516381D01*
X171849160Y-96516381D01*
X171849237Y-96517470D01*
X171851698Y-96521206D01*
X172125632Y-96731404D01*
X172131262Y-96735259D01*
X172431591Y-96917862D01*
X172437593Y-96921080D01*
X172755897Y-97070184D01*
X172762202Y-97072732D01*
X173094743Y-97186587D01*
X173101313Y-97188446D01*
X173444183Y-97265714D01*
X173450912Y-97266853D01*
X173800143Y-97306643D01*
X173806933Y-97307046D01*
X174158419Y-97308886D01*
X174165220Y-97308554D01*
X174514853Y-97272423D01*
X174521581Y-97271357D01*
X174865274Y-97197676D01*
X174871822Y-97195897D01*
X175205549Y-97085527D01*
X175211891Y-97083041D01*
X175531718Y-96937288D01*
X175537777Y-96934121D01*
X175839995Y-96754676D01*
X175845659Y-96750884D01*
X176126732Y-96539849D01*
X176131958Y-96535464D01*
X176141613Y-96526428D01*
X176149682Y-96512750D01*
X176149654Y-96512024D01*
X176144512Y-96503723D01*
X174012810Y-94372020D01*
X173998869Y-94364408D01*
X173997034Y-94364539D01*
X173990420Y-94368790D01*
X171856774Y-96502437D01*
X171849160Y-96516381D01*
X136147540Y-96516381D01*
X136149682Y-96512750D01*
X136149654Y-96512024D01*
X136144512Y-96503723D01*
X134012810Y-94372020D01*
X133998869Y-94364408D01*
X133997034Y-94364539D01*
X133990420Y-94368790D01*
X131856774Y-96502437D01*
X131849160Y-96516381D01*
X130045744Y-96516381D01*
X129939995Y-96350388D01*
X129934499Y-96340868D01*
X129833694Y-96147223D01*
X129750595Y-95987591D01*
X129745953Y-95977638D01*
X129642898Y-95728840D01*
X129593531Y-95609658D01*
X129589775Y-95599337D01*
X129470012Y-95219496D01*
X129467167Y-95208878D01*
X129437550Y-95075283D01*
X129380964Y-94820037D01*
X129379056Y-94809220D01*
X129369580Y-94737237D01*
X129327070Y-94414345D01*
X129326112Y-94403396D01*
X129310396Y-94043449D01*
X129311776Y-94018567D01*
X129312309Y-94015147D01*
X129313690Y-94006277D01*
X129312482Y-93997034D01*
X129311802Y-93991832D01*
X130687333Y-93991832D01*
X130705117Y-94342893D01*
X130705827Y-94349649D01*
X130761420Y-94696723D01*
X130762859Y-94703378D01*
X130855608Y-95042410D01*
X130857757Y-95048871D01*
X130986581Y-95375912D01*
X130989412Y-95382095D01*
X131152803Y-95693310D01*
X131156286Y-95699152D01*
X131352330Y-95990896D01*
X131356433Y-95996340D01*
X131476425Y-96138836D01*
X131489164Y-96147279D01*
X131499608Y-96141181D01*
X133627980Y-94012810D01*
X133634357Y-94001131D01*
X134364408Y-94001131D01*
X134364539Y-94002966D01*
X134368790Y-94009580D01*
X136499009Y-96139798D01*
X136512605Y-96147223D01*
X136522218Y-96140522D01*
X136622518Y-96023912D01*
X136626676Y-96018514D01*
X136825762Y-95728840D01*
X136829310Y-95723029D01*
X136995942Y-95413559D01*
X136998849Y-95407381D01*
X137131090Y-95081713D01*
X137133304Y-95075283D01*
X137229598Y-94737237D01*
X137231105Y-94730607D01*
X137290332Y-94384118D01*
X137291112Y-94377378D01*
X137312668Y-94024925D01*
X137312784Y-94021323D01*
X137312853Y-94001819D01*
X137312761Y-93998194D01*
X137312416Y-93991832D01*
X170687333Y-93991832D01*
X170705117Y-94342893D01*
X170705827Y-94349649D01*
X170761420Y-94696723D01*
X170762859Y-94703378D01*
X170855608Y-95042410D01*
X170857757Y-95048871D01*
X170986581Y-95375912D01*
X170989412Y-95382095D01*
X171152803Y-95693310D01*
X171156286Y-95699152D01*
X171352330Y-95990896D01*
X171356433Y-95996340D01*
X171476425Y-96138836D01*
X171489164Y-96147279D01*
X171499608Y-96141181D01*
X173627980Y-94012810D01*
X173634357Y-94001131D01*
X174364408Y-94001131D01*
X174364539Y-94002966D01*
X174368790Y-94009580D01*
X176499009Y-96139798D01*
X176512605Y-96147223D01*
X176522218Y-96140522D01*
X176622518Y-96023912D01*
X176626676Y-96018514D01*
X176825762Y-95728840D01*
X176829310Y-95723029D01*
X176995942Y-95413559D01*
X176998849Y-95407381D01*
X177131090Y-95081713D01*
X177133304Y-95075283D01*
X177229598Y-94737237D01*
X177231105Y-94730607D01*
X177290332Y-94384118D01*
X177291112Y-94377378D01*
X177312668Y-94024925D01*
X177312784Y-94021323D01*
X177312853Y-94001819D01*
X177312761Y-93998194D01*
X177293666Y-93645615D01*
X177292931Y-93638849D01*
X177236130Y-93291985D01*
X177234663Y-93285313D01*
X177140736Y-92946627D01*
X177138562Y-92940163D01*
X177008598Y-92613578D01*
X177005742Y-92607398D01*
X176841269Y-92296763D01*
X176837769Y-92290937D01*
X176640697Y-91999862D01*
X176636590Y-91994453D01*
X176523565Y-91861179D01*
X176510740Y-91852743D01*
X176500416Y-91858795D01*
X174372020Y-93987190D01*
X174364408Y-94001131D01*
X173634357Y-94001131D01*
X173635592Y-93998869D01*
X173635461Y-93997034D01*
X173631210Y-93990420D01*
X171500992Y-91860203D01*
X171487455Y-91852811D01*
X171477753Y-91859599D01*
X171370430Y-91985257D01*
X171366296Y-91990664D01*
X171168215Y-92281041D01*
X171164697Y-92286851D01*
X170999134Y-92596922D01*
X170996259Y-92603087D01*
X170865155Y-92929218D01*
X170862962Y-92935658D01*
X170767846Y-93274044D01*
X170766363Y-93280679D01*
X170708350Y-93627354D01*
X170707591Y-93634126D01*
X170687357Y-93985037D01*
X170687333Y-93991832D01*
X137312416Y-93991832D01*
X137293666Y-93645615D01*
X137292931Y-93638849D01*
X137236130Y-93291985D01*
X137234663Y-93285313D01*
X137140736Y-92946627D01*
X137138562Y-92940163D01*
X137008598Y-92613578D01*
X137005742Y-92607398D01*
X136869457Y-92350000D01*
X154611271Y-92350000D01*
X154616500Y-92423111D01*
X154657696Y-92563411D01*
X154662567Y-92570990D01*
X154731878Y-92678841D01*
X154731880Y-92678844D01*
X154736750Y-92686421D01*
X154743560Y-92692322D01*
X154840445Y-92776274D01*
X154840448Y-92776276D01*
X154847257Y-92782176D01*
X154980266Y-92842919D01*
X155125000Y-92863729D01*
X156125000Y-92863729D01*
X156126964Y-92863605D01*
X156126968Y-92863605D01*
X156183080Y-92860066D01*
X156183084Y-92860065D01*
X156189557Y-92859657D01*
X156235232Y-92847075D01*
X156286624Y-92843833D01*
X156425000Y-92863729D01*
X157575000Y-92863729D01*
X157606986Y-92861441D01*
X157641373Y-92858982D01*
X157641374Y-92858982D01*
X157648111Y-92858500D01*
X157727618Y-92835155D01*
X157779765Y-92819843D01*
X157779767Y-92819842D01*
X157788411Y-92817304D01*
X157852255Y-92776274D01*
X157903841Y-92743122D01*
X157903844Y-92743120D01*
X157911421Y-92738250D01*
X157956331Y-92686421D01*
X158001274Y-92634555D01*
X158001276Y-92634552D01*
X158007176Y-92627743D01*
X158021252Y-92596922D01*
X158064175Y-92502932D01*
X158067919Y-92494734D01*
X158069202Y-92485811D01*
X158071969Y-92466567D01*
X158101463Y-92401986D01*
X158161189Y-92363603D01*
X158196686Y-92358500D01*
X158457413Y-92358500D01*
X158531472Y-92382563D01*
X158537902Y-92387235D01*
X158537909Y-92387239D01*
X158543248Y-92391118D01*
X158549276Y-92393802D01*
X158549278Y-92393803D01*
X158711681Y-92466109D01*
X158717712Y-92468794D01*
X158811113Y-92488647D01*
X158898056Y-92507128D01*
X158898061Y-92507128D01*
X158904513Y-92508500D01*
X159095487Y-92508500D01*
X159101939Y-92507128D01*
X159101944Y-92507128D01*
X159188888Y-92488647D01*
X159282288Y-92468794D01*
X159288319Y-92466109D01*
X159450722Y-92393803D01*
X159450724Y-92393802D01*
X159456752Y-92391118D01*
X159462097Y-92387235D01*
X159586620Y-92296763D01*
X159611253Y-92278866D01*
X159739040Y-92136944D01*
X159797314Y-92036010D01*
X159831223Y-91977279D01*
X159831224Y-91977278D01*
X159834527Y-91971556D01*
X159893542Y-91789928D01*
X159913504Y-91600000D01*
X159901613Y-91486862D01*
X171849950Y-91486862D01*
X171849986Y-91487704D01*
X171855037Y-91495826D01*
X173987190Y-93627980D01*
X174001131Y-93635592D01*
X174002966Y-93635461D01*
X174009580Y-93631210D01*
X176142798Y-91497991D01*
X176150412Y-91484047D01*
X176150344Y-91483089D01*
X176145836Y-91476272D01*
X176144418Y-91475065D01*
X175864813Y-91262064D01*
X175859187Y-91258240D01*
X175558214Y-91076681D01*
X175552202Y-91073484D01*
X175233370Y-90925487D01*
X175227070Y-90922967D01*
X174894129Y-90810273D01*
X174887551Y-90808437D01*
X174544417Y-90732367D01*
X174537678Y-90731251D01*
X174188310Y-90692680D01*
X174181529Y-90692301D01*
X173830015Y-90691687D01*
X173823242Y-90692042D01*
X173473720Y-90729395D01*
X173467010Y-90730482D01*
X173123586Y-90805361D01*
X173117011Y-90807172D01*
X172783683Y-90918702D01*
X172777361Y-90921205D01*
X172458034Y-91068079D01*
X172451991Y-91071265D01*
X172150401Y-91251763D01*
X172144755Y-91255571D01*
X171864408Y-91467596D01*
X171859211Y-91471987D01*
X171857972Y-91473155D01*
X171849950Y-91486862D01*
X159901613Y-91486862D01*
X159900172Y-91473155D01*
X159894232Y-91416635D01*
X159894232Y-91416633D01*
X159893542Y-91410072D01*
X159834527Y-91228444D01*
X159739040Y-91063056D01*
X159611253Y-90921134D01*
X159501647Y-90841500D01*
X159462094Y-90812763D01*
X159462093Y-90812762D01*
X159456752Y-90808882D01*
X159450724Y-90806198D01*
X159450722Y-90806197D01*
X159288319Y-90733891D01*
X159288318Y-90733891D01*
X159282288Y-90731206D01*
X159160251Y-90705266D01*
X159101944Y-90692872D01*
X159101939Y-90692872D01*
X159095487Y-90691500D01*
X158904513Y-90691500D01*
X158898061Y-90692872D01*
X158898056Y-90692872D01*
X158839749Y-90705266D01*
X158717712Y-90731206D01*
X158711682Y-90733891D01*
X158711681Y-90733891D01*
X158549278Y-90806197D01*
X158549276Y-90806198D01*
X158543248Y-90808882D01*
X158537909Y-90812761D01*
X158537902Y-90812765D01*
X158531472Y-90817437D01*
X158457413Y-90841500D01*
X158196794Y-90841500D01*
X158128673Y-90821498D01*
X158082180Y-90767842D01*
X158075898Y-90750999D01*
X158069554Y-90729395D01*
X158042304Y-90636589D01*
X157996583Y-90565446D01*
X157968122Y-90521159D01*
X157968120Y-90521156D01*
X157963250Y-90513579D01*
X157885946Y-90446595D01*
X157847563Y-90386870D01*
X157847563Y-90315873D01*
X157885946Y-90256147D01*
X157900336Y-90245375D01*
X157903836Y-90243125D01*
X157903838Y-90243123D01*
X157911421Y-90238250D01*
X157956331Y-90186421D01*
X158001274Y-90134555D01*
X158001276Y-90134552D01*
X158007176Y-90127743D01*
X158067919Y-89994734D01*
X158071969Y-89966567D01*
X158101463Y-89901986D01*
X158161189Y-89863603D01*
X158196686Y-89858500D01*
X158668307Y-89858500D01*
X158707244Y-89864667D01*
X158711681Y-89866109D01*
X158717712Y-89868794D01*
X158724164Y-89870166D01*
X158724169Y-89870167D01*
X158898056Y-89907128D01*
X158898061Y-89907128D01*
X158904513Y-89908500D01*
X159095487Y-89908500D01*
X159101939Y-89907128D01*
X159101944Y-89907128D01*
X159188888Y-89888647D01*
X159282288Y-89868794D01*
X159288319Y-89866109D01*
X159450722Y-89793803D01*
X159450724Y-89793802D01*
X159456752Y-89791118D01*
X159611253Y-89678866D01*
X159739040Y-89536944D01*
X159834527Y-89371556D01*
X159893542Y-89189928D01*
X159913504Y-89000000D01*
X159893542Y-88810072D01*
X159834527Y-88628444D01*
X159739040Y-88463056D01*
X159611253Y-88321134D01*
X159456752Y-88208882D01*
X159450724Y-88206198D01*
X159450722Y-88206197D01*
X159288319Y-88133891D01*
X159288318Y-88133891D01*
X159282288Y-88131206D01*
X159188888Y-88111353D01*
X159101944Y-88092872D01*
X159101939Y-88092872D01*
X159095487Y-88091500D01*
X158904513Y-88091500D01*
X158898061Y-88092872D01*
X158898056Y-88092872D01*
X158811113Y-88111353D01*
X158717712Y-88131206D01*
X158711682Y-88133891D01*
X158711681Y-88133891D01*
X158549278Y-88206197D01*
X158549276Y-88206198D01*
X158543248Y-88208882D01*
X158394092Y-88317251D01*
X158393837Y-88317436D01*
X158326969Y-88341294D01*
X158319776Y-88341500D01*
X158196794Y-88341500D01*
X158128673Y-88321498D01*
X158082180Y-88267842D01*
X158075898Y-88250999D01*
X158044842Y-88145234D01*
X158042304Y-88136589D01*
X158013327Y-88091500D01*
X157968122Y-88021159D01*
X157968120Y-88021156D01*
X157963250Y-88013579D01*
X157956440Y-88007678D01*
X157859555Y-87923726D01*
X157859552Y-87923724D01*
X157852743Y-87917824D01*
X157835769Y-87910072D01*
X157727932Y-87860825D01*
X157727933Y-87860825D01*
X157719734Y-87857081D01*
X157575000Y-87836271D01*
X156511106Y-87836271D01*
X156442985Y-87816269D01*
X156396492Y-87762613D01*
X156391278Y-87749222D01*
X156384527Y-87728444D01*
X156289040Y-87563056D01*
X156161253Y-87421134D01*
X156006752Y-87308882D01*
X156000724Y-87306198D01*
X156000722Y-87306197D01*
X155838319Y-87233891D01*
X155838318Y-87233891D01*
X155832288Y-87231206D01*
X155738888Y-87211353D01*
X155651944Y-87192872D01*
X155651939Y-87192872D01*
X155645487Y-87191500D01*
X155454513Y-87191500D01*
X155448061Y-87192872D01*
X155448056Y-87192872D01*
X155361113Y-87211353D01*
X155267712Y-87231206D01*
X155261682Y-87233891D01*
X155261681Y-87233891D01*
X155099278Y-87306197D01*
X155099276Y-87306198D01*
X155093248Y-87308882D01*
X154938747Y-87421134D01*
X154810960Y-87563056D01*
X154715473Y-87728444D01*
X154656458Y-87910072D01*
X154636496Y-88100000D01*
X154641229Y-88145029D01*
X154636815Y-88193696D01*
X154635825Y-88197068D01*
X154632081Y-88205266D01*
X154611271Y-88350000D01*
X154611271Y-89850000D01*
X154616500Y-89923111D01*
X154657696Y-90063411D01*
X154662567Y-90070990D01*
X154731878Y-90178841D01*
X154731880Y-90178844D01*
X154736750Y-90186421D01*
X154743561Y-90192322D01*
X154743562Y-90192324D01*
X154748014Y-90196182D01*
X154786397Y-90255909D01*
X154791500Y-90291405D01*
X154791500Y-90411383D01*
X154771498Y-90479504D01*
X154760725Y-90493895D01*
X154692824Y-90572257D01*
X154632081Y-90705266D01*
X154611271Y-90850000D01*
X154611271Y-92350000D01*
X136869457Y-92350000D01*
X136841269Y-92296763D01*
X136837769Y-92290937D01*
X136640697Y-91999862D01*
X136636590Y-91994453D01*
X136523565Y-91861179D01*
X136510740Y-91852743D01*
X136500416Y-91858795D01*
X134372020Y-93987190D01*
X134364408Y-94001131D01*
X133634357Y-94001131D01*
X133635592Y-93998869D01*
X133635461Y-93997034D01*
X133631210Y-93990420D01*
X131500992Y-91860203D01*
X131487455Y-91852811D01*
X131477753Y-91859599D01*
X131370430Y-91985257D01*
X131366296Y-91990664D01*
X131168215Y-92281041D01*
X131164697Y-92286851D01*
X130999134Y-92596922D01*
X130996259Y-92603087D01*
X130865155Y-92929218D01*
X130862962Y-92935658D01*
X130767846Y-93274044D01*
X130766363Y-93280679D01*
X130708350Y-93627354D01*
X130707591Y-93634126D01*
X130687357Y-93985037D01*
X130687333Y-93991832D01*
X129311802Y-93991832D01*
X129309563Y-93974718D01*
X129308499Y-93958380D01*
X129308499Y-91486862D01*
X131849950Y-91486862D01*
X131849986Y-91487704D01*
X131855037Y-91495826D01*
X133987190Y-93627980D01*
X134001131Y-93635592D01*
X134002966Y-93635461D01*
X134009580Y-93631210D01*
X136142798Y-91497991D01*
X136150412Y-91484047D01*
X136150344Y-91483089D01*
X136145836Y-91476272D01*
X136144418Y-91475065D01*
X135864813Y-91262064D01*
X135859187Y-91258240D01*
X135558214Y-91076681D01*
X135552202Y-91073484D01*
X135233370Y-90925487D01*
X135227070Y-90922967D01*
X134894129Y-90810273D01*
X134887551Y-90808437D01*
X134544417Y-90732367D01*
X134537678Y-90731251D01*
X134188310Y-90692680D01*
X134181529Y-90692301D01*
X133830015Y-90691687D01*
X133823242Y-90692042D01*
X133473720Y-90729395D01*
X133467010Y-90730482D01*
X133123586Y-90805361D01*
X133117011Y-90807172D01*
X132783683Y-90918702D01*
X132777361Y-90921205D01*
X132458034Y-91068079D01*
X132451991Y-91071265D01*
X132150401Y-91251763D01*
X132144755Y-91255571D01*
X131864408Y-91467596D01*
X131859211Y-91471987D01*
X131857972Y-91473155D01*
X131849950Y-91486862D01*
X129308499Y-91486862D01*
X129308499Y-86000000D01*
X150386496Y-86000000D01*
X150406458Y-86189928D01*
X150465473Y-86371556D01*
X150560960Y-86536944D01*
X150688747Y-86678866D01*
X150787843Y-86750864D01*
X150837904Y-86787235D01*
X150843248Y-86791118D01*
X150849276Y-86793802D01*
X150849278Y-86793803D01*
X151011681Y-86866109D01*
X151017712Y-86868794D01*
X151111112Y-86888647D01*
X151198056Y-86907128D01*
X151198061Y-86907128D01*
X151204513Y-86908500D01*
X151395487Y-86908500D01*
X151401939Y-86907128D01*
X151401944Y-86907128D01*
X151488887Y-86888647D01*
X151582288Y-86868794D01*
X151588319Y-86866109D01*
X151750722Y-86793803D01*
X151750724Y-86793802D01*
X151756752Y-86791118D01*
X151762091Y-86787239D01*
X151762098Y-86787235D01*
X151768528Y-86782563D01*
X151842587Y-86758500D01*
X156557413Y-86758500D01*
X156631472Y-86782563D01*
X156637902Y-86787235D01*
X156637909Y-86787239D01*
X156643248Y-86791118D01*
X156649276Y-86793802D01*
X156649278Y-86793803D01*
X156811681Y-86866109D01*
X156817712Y-86868794D01*
X156911112Y-86888647D01*
X156998056Y-86907128D01*
X156998061Y-86907128D01*
X157004513Y-86908500D01*
X157195487Y-86908500D01*
X157201939Y-86907128D01*
X157201944Y-86907128D01*
X157288887Y-86888647D01*
X157382288Y-86868794D01*
X157388319Y-86866109D01*
X157550722Y-86793803D01*
X157550724Y-86793802D01*
X157556752Y-86791118D01*
X157562097Y-86787235D01*
X157612157Y-86750864D01*
X157711253Y-86678866D01*
X157839040Y-86536944D01*
X157934527Y-86371556D01*
X157993542Y-86189928D01*
X158013504Y-86000000D01*
X157993542Y-85810072D01*
X157934527Y-85628444D01*
X157839040Y-85463056D01*
X157711253Y-85321134D01*
X157568527Y-85217437D01*
X157562094Y-85212763D01*
X157562093Y-85212762D01*
X157556752Y-85208882D01*
X157550724Y-85206198D01*
X157550722Y-85206197D01*
X157388319Y-85133891D01*
X157388318Y-85133891D01*
X157382288Y-85131206D01*
X157288888Y-85111353D01*
X157201944Y-85092872D01*
X157201939Y-85092872D01*
X157195487Y-85091500D01*
X157004513Y-85091500D01*
X156998061Y-85092872D01*
X156998056Y-85092872D01*
X156911112Y-85111353D01*
X156817712Y-85131206D01*
X156811682Y-85133891D01*
X156811681Y-85133891D01*
X156649278Y-85206197D01*
X156649276Y-85206198D01*
X156643248Y-85208882D01*
X156637909Y-85212761D01*
X156637902Y-85212765D01*
X156631472Y-85217437D01*
X156557413Y-85241500D01*
X151842587Y-85241500D01*
X151768528Y-85217437D01*
X151762098Y-85212765D01*
X151762091Y-85212761D01*
X151756752Y-85208882D01*
X151750724Y-85206198D01*
X151750722Y-85206197D01*
X151588319Y-85133891D01*
X151588318Y-85133891D01*
X151582288Y-85131206D01*
X151488888Y-85111353D01*
X151401944Y-85092872D01*
X151401939Y-85092872D01*
X151395487Y-85091500D01*
X151204513Y-85091500D01*
X151198061Y-85092872D01*
X151198056Y-85092872D01*
X151111112Y-85111353D01*
X151017712Y-85131206D01*
X151011682Y-85133891D01*
X151011681Y-85133891D01*
X150849278Y-85206197D01*
X150849276Y-85206198D01*
X150843248Y-85208882D01*
X150837907Y-85212762D01*
X150837906Y-85212763D01*
X150831473Y-85217437D01*
X150688747Y-85321134D01*
X150560960Y-85463056D01*
X150465473Y-85628444D01*
X150406458Y-85810072D01*
X150386496Y-86000000D01*
X129308499Y-86000000D01*
X129308499Y-76989343D01*
X130836775Y-76989343D01*
X130837463Y-76996356D01*
X130837412Y-77000000D01*
X130837165Y-77000000D01*
X130837343Y-77003402D01*
X130839715Y-77048659D01*
X130854491Y-77330606D01*
X130855004Y-77333846D01*
X130855005Y-77333854D01*
X130873981Y-77453658D01*
X130906281Y-77657590D01*
X130991965Y-77977370D01*
X131110606Y-78286441D01*
X131112104Y-78289381D01*
X131258612Y-78576917D01*
X131260905Y-78581418D01*
X131441213Y-78859068D01*
X131649556Y-79116350D01*
X131883650Y-79350444D01*
X132140932Y-79558787D01*
X132143707Y-79560589D01*
X132342118Y-79689438D01*
X132418583Y-79739095D01*
X132713559Y-79889394D01*
X133022630Y-80008035D01*
X133342410Y-80093719D01*
X133515964Y-80121208D01*
X133666146Y-80144995D01*
X133666154Y-80144996D01*
X133669394Y-80145509D01*
X133871255Y-80156088D01*
X133958629Y-80160667D01*
X133969567Y-80161720D01*
X133974768Y-80162451D01*
X133974780Y-80162452D01*
X133978687Y-80163001D01*
X133986930Y-80163116D01*
X133996038Y-80163244D01*
X133996044Y-80163244D01*
X134000000Y-80163299D01*
X134003940Y-80162857D01*
X134003942Y-80162857D01*
X134020420Y-80161009D01*
X134024576Y-80160612D01*
X134047926Y-80158774D01*
X134118710Y-80153203D01*
X134188190Y-80167799D01*
X134238749Y-80217641D01*
X134253906Y-80265645D01*
X134256458Y-80289928D01*
X134315473Y-80471556D01*
X134410960Y-80636944D01*
X134538747Y-80778866D01*
X134693248Y-80891118D01*
X134699276Y-80893802D01*
X134699278Y-80893803D01*
X134861681Y-80966109D01*
X134867712Y-80968794D01*
X134961113Y-80988647D01*
X135048056Y-81007128D01*
X135048061Y-81007128D01*
X135054513Y-81008500D01*
X135245487Y-81008500D01*
X135251939Y-81007128D01*
X135251944Y-81007128D01*
X135338887Y-80988647D01*
X135432288Y-80968794D01*
X135438319Y-80966109D01*
X135600722Y-80893803D01*
X135600724Y-80893802D01*
X135606752Y-80891118D01*
X135761253Y-80778866D01*
X135889040Y-80636944D01*
X135984527Y-80471556D01*
X135996222Y-80435563D01*
X136036296Y-80376958D01*
X136101693Y-80349321D01*
X136116055Y-80348500D01*
X137865271Y-80348500D01*
X137933392Y-80368502D01*
X137979885Y-80422158D01*
X137991271Y-80474500D01*
X137991271Y-81540000D01*
X137996500Y-81613111D01*
X137998404Y-81619594D01*
X138033292Y-81738411D01*
X138037696Y-81753411D01*
X138042567Y-81760990D01*
X138111878Y-81868841D01*
X138111880Y-81868844D01*
X138116750Y-81876421D01*
X138123560Y-81882322D01*
X138220445Y-81966274D01*
X138220448Y-81966276D01*
X138227257Y-81972176D01*
X138360266Y-82032919D01*
X138369189Y-82034202D01*
X138388433Y-82036969D01*
X138453014Y-82066463D01*
X138491397Y-82126189D01*
X138496500Y-82161686D01*
X138496500Y-82204340D01*
X138479619Y-82267340D01*
X138415473Y-82378444D01*
X138356458Y-82560072D01*
X138336496Y-82750000D01*
X138356458Y-82939928D01*
X138415473Y-83121556D01*
X138510960Y-83286944D01*
X138638747Y-83428866D01*
X138793248Y-83541118D01*
X138799276Y-83543802D01*
X138799278Y-83543803D01*
X138961681Y-83616109D01*
X138967712Y-83618794D01*
X139061113Y-83638647D01*
X139148056Y-83657128D01*
X139148061Y-83657128D01*
X139154513Y-83658500D01*
X139345487Y-83658500D01*
X139351939Y-83657128D01*
X139351944Y-83657128D01*
X139438887Y-83638647D01*
X139532288Y-83618794D01*
X139538319Y-83616109D01*
X139700722Y-83543803D01*
X139700724Y-83543802D01*
X139706752Y-83541118D01*
X139861253Y-83428866D01*
X139989040Y-83286944D01*
X140084527Y-83121556D01*
X140143542Y-82939928D01*
X140163504Y-82750000D01*
X140143542Y-82560072D01*
X140084527Y-82378444D01*
X140030381Y-82284660D01*
X140013500Y-82221661D01*
X140013500Y-82161794D01*
X140033502Y-82093673D01*
X140087158Y-82047180D01*
X140104001Y-82040898D01*
X140113458Y-82038121D01*
X140218411Y-82007304D01*
X140290586Y-81960920D01*
X140333841Y-81933122D01*
X140333844Y-81933120D01*
X140341421Y-81928250D01*
X140394216Y-81867322D01*
X140437176Y-81817743D01*
X140439193Y-81819491D01*
X140482314Y-81782121D01*
X140552587Y-81772012D01*
X140617170Y-81801500D01*
X140640662Y-81828609D01*
X140656877Y-81853839D01*
X140661750Y-81861421D01*
X140668560Y-81867322D01*
X140765445Y-81951274D01*
X140765448Y-81951276D01*
X140772257Y-81957176D01*
X140780454Y-81960920D01*
X140780455Y-81960920D01*
X140813301Y-81975920D01*
X140905266Y-82017919D01*
X140914189Y-82019202D01*
X140933433Y-82021969D01*
X140998014Y-82051463D01*
X141036397Y-82111189D01*
X141041500Y-82146686D01*
X141041500Y-82213001D01*
X141024619Y-82276000D01*
X140965473Y-82378444D01*
X140906458Y-82560072D01*
X140886496Y-82750000D01*
X140906458Y-82939928D01*
X140965473Y-83121556D01*
X141060960Y-83286944D01*
X141188747Y-83428866D01*
X141343248Y-83541118D01*
X141349276Y-83543802D01*
X141349278Y-83543803D01*
X141511681Y-83616109D01*
X141517712Y-83618794D01*
X141611113Y-83638647D01*
X141698056Y-83657128D01*
X141698061Y-83657128D01*
X141704513Y-83658500D01*
X141895487Y-83658500D01*
X141901939Y-83657128D01*
X141901944Y-83657128D01*
X141988887Y-83638647D01*
X142082288Y-83618794D01*
X142088319Y-83616109D01*
X142250722Y-83543803D01*
X142250724Y-83543802D01*
X142256752Y-83541118D01*
X142411253Y-83428866D01*
X142539040Y-83286944D01*
X142634527Y-83121556D01*
X142693542Y-82939928D01*
X142713504Y-82750000D01*
X142693542Y-82560072D01*
X142634527Y-82378444D01*
X142575381Y-82276000D01*
X142558500Y-82213001D01*
X142558500Y-82146794D01*
X142578502Y-82078673D01*
X142632158Y-82032180D01*
X142649001Y-82025898D01*
X142671805Y-82019202D01*
X142763411Y-81992304D01*
X142863081Y-81928250D01*
X142878841Y-81918122D01*
X142878844Y-81918120D01*
X142886421Y-81913250D01*
X142892322Y-81906440D01*
X142976274Y-81809555D01*
X142976276Y-81809552D01*
X142982176Y-81802743D01*
X143042919Y-81669734D01*
X143063729Y-81525000D01*
X143063729Y-80825000D01*
X166786271Y-80825000D01*
X166791500Y-80898111D01*
X166832696Y-81038411D01*
X166837567Y-81045990D01*
X166906878Y-81153841D01*
X166906880Y-81153844D01*
X166911750Y-81161421D01*
X166918560Y-81167322D01*
X167015445Y-81251274D01*
X167015448Y-81251276D01*
X167022257Y-81257176D01*
X167155266Y-81317919D01*
X167300000Y-81338729D01*
X168800000Y-81338729D01*
X168831986Y-81336441D01*
X168866373Y-81333982D01*
X168866374Y-81333982D01*
X168873111Y-81333500D01*
X168952618Y-81310155D01*
X169004765Y-81294843D01*
X169004767Y-81294842D01*
X169013411Y-81292304D01*
X169077255Y-81251274D01*
X169128841Y-81218122D01*
X169128844Y-81218120D01*
X169136421Y-81213250D01*
X169232114Y-81102815D01*
X169291838Y-81064432D01*
X169362835Y-81064432D01*
X169422561Y-81102815D01*
X169433335Y-81117207D01*
X169456878Y-81153841D01*
X169456880Y-81153844D01*
X169461750Y-81161421D01*
X169468560Y-81167322D01*
X169565445Y-81251274D01*
X169565448Y-81251276D01*
X169572257Y-81257176D01*
X169705266Y-81317919D01*
X169850000Y-81338729D01*
X171350000Y-81338729D01*
X171381986Y-81336441D01*
X171416373Y-81333982D01*
X171416374Y-81333982D01*
X171423111Y-81333500D01*
X171502618Y-81310155D01*
X171554765Y-81294843D01*
X171554767Y-81294842D01*
X171563411Y-81292304D01*
X171627255Y-81251274D01*
X171678841Y-81218122D01*
X171678844Y-81218120D01*
X171686421Y-81213250D01*
X171731331Y-81161421D01*
X171776274Y-81109555D01*
X171776276Y-81109552D01*
X171782176Y-81102743D01*
X171842919Y-80969734D01*
X171863729Y-80825000D01*
X171863729Y-79825000D01*
X171863605Y-79823032D01*
X171860066Y-79766920D01*
X171860065Y-79766916D01*
X171859657Y-79760443D01*
X171847075Y-79714768D01*
X171843833Y-79663375D01*
X171863729Y-79525000D01*
X171863729Y-78375000D01*
X171858500Y-78301889D01*
X171817304Y-78161589D01*
X171775913Y-78097184D01*
X171743122Y-78046159D01*
X171743120Y-78046156D01*
X171738250Y-78038579D01*
X171703978Y-78008882D01*
X171634555Y-77948726D01*
X171634552Y-77948724D01*
X171627743Y-77942824D01*
X171608183Y-77933891D01*
X171556435Y-77910259D01*
X171494734Y-77882081D01*
X171477159Y-77879554D01*
X171466567Y-77878031D01*
X171401986Y-77848537D01*
X171363603Y-77788811D01*
X171358500Y-77753314D01*
X171358500Y-77736999D01*
X171375381Y-77673999D01*
X171375691Y-77673463D01*
X171408076Y-77617370D01*
X171431223Y-77577279D01*
X171431224Y-77577278D01*
X171434527Y-77571556D01*
X171493542Y-77389928D01*
X171494872Y-77377279D01*
X171512814Y-77206565D01*
X171513504Y-77200000D01*
X171494819Y-77022220D01*
X171494232Y-77016635D01*
X171494232Y-77016633D01*
X171493542Y-77010072D01*
X171434527Y-76828444D01*
X171339040Y-76663056D01*
X171211253Y-76521134D01*
X171096184Y-76437531D01*
X171062094Y-76412763D01*
X171062093Y-76412762D01*
X171056752Y-76408882D01*
X171050724Y-76406198D01*
X171050722Y-76406197D01*
X170888319Y-76333891D01*
X170888318Y-76333891D01*
X170882288Y-76331206D01*
X170788887Y-76311353D01*
X170701944Y-76292872D01*
X170701939Y-76292872D01*
X170695487Y-76291500D01*
X170504513Y-76291500D01*
X170498061Y-76292872D01*
X170498056Y-76292872D01*
X170411113Y-76311353D01*
X170317712Y-76331206D01*
X170311682Y-76333891D01*
X170311681Y-76333891D01*
X170149278Y-76406197D01*
X170149276Y-76406198D01*
X170143248Y-76408882D01*
X170137907Y-76412762D01*
X170137906Y-76412763D01*
X170103816Y-76437531D01*
X169988747Y-76521134D01*
X169860960Y-76663056D01*
X169765473Y-76828444D01*
X169706458Y-77010072D01*
X169705768Y-77016633D01*
X169705768Y-77016635D01*
X169705181Y-77022220D01*
X169686496Y-77200000D01*
X169687186Y-77206565D01*
X169705129Y-77377279D01*
X169706458Y-77389928D01*
X169765473Y-77571556D01*
X169768776Y-77577278D01*
X169768777Y-77577279D01*
X169791924Y-77617370D01*
X169824310Y-77673463D01*
X169824619Y-77673999D01*
X169841500Y-77736999D01*
X169841500Y-77753206D01*
X169821498Y-77821327D01*
X169767842Y-77867820D01*
X169750999Y-77874102D01*
X169636589Y-77907696D01*
X169627871Y-77913299D01*
X169521159Y-77981878D01*
X169521156Y-77981880D01*
X169513579Y-77986750D01*
X169417886Y-78097185D01*
X169358162Y-78135568D01*
X169287165Y-78135568D01*
X169227439Y-78097185D01*
X169216665Y-78082793D01*
X169193122Y-78046159D01*
X169193120Y-78046156D01*
X169188250Y-78038579D01*
X169153978Y-78008882D01*
X169084555Y-77948726D01*
X169084552Y-77948724D01*
X169077743Y-77942824D01*
X169058183Y-77933891D01*
X169006435Y-77910259D01*
X168944734Y-77882081D01*
X168927159Y-77879554D01*
X168916567Y-77878031D01*
X168851986Y-77848537D01*
X168813603Y-77788811D01*
X168808500Y-77753314D01*
X168808500Y-77536999D01*
X168825381Y-77473999D01*
X168831199Y-77463923D01*
X168884527Y-77371556D01*
X168943542Y-77189928D01*
X168952129Y-77108232D01*
X168962814Y-77006565D01*
X168963504Y-77000000D01*
X168956990Y-76938019D01*
X168944232Y-76816635D01*
X168944232Y-76816633D01*
X168943542Y-76810072D01*
X168884527Y-76628444D01*
X168789040Y-76463056D01*
X168751455Y-76421313D01*
X168665675Y-76326045D01*
X168665674Y-76326044D01*
X168661253Y-76321134D01*
X168506752Y-76208882D01*
X168500724Y-76206198D01*
X168500722Y-76206197D01*
X168338319Y-76133891D01*
X168338318Y-76133891D01*
X168332288Y-76131206D01*
X168238888Y-76111353D01*
X168151944Y-76092872D01*
X168151939Y-76092872D01*
X168145487Y-76091500D01*
X167954513Y-76091500D01*
X167948061Y-76092872D01*
X167948056Y-76092872D01*
X167861112Y-76111353D01*
X167767712Y-76131206D01*
X167761682Y-76133891D01*
X167761681Y-76133891D01*
X167599278Y-76206197D01*
X167599276Y-76206198D01*
X167593248Y-76208882D01*
X167438747Y-76321134D01*
X167434326Y-76326044D01*
X167434325Y-76326045D01*
X167348546Y-76421313D01*
X167310960Y-76463056D01*
X167215473Y-76628444D01*
X167156458Y-76810072D01*
X167155768Y-76816633D01*
X167155768Y-76816635D01*
X167143010Y-76938019D01*
X167136496Y-77000000D01*
X167137186Y-77006565D01*
X167147872Y-77108232D01*
X167156458Y-77189928D01*
X167215473Y-77371556D01*
X167268802Y-77463923D01*
X167274619Y-77473999D01*
X167291500Y-77536999D01*
X167291500Y-77753206D01*
X167271498Y-77821327D01*
X167217842Y-77867820D01*
X167200999Y-77874102D01*
X167086589Y-77907696D01*
X167077871Y-77913299D01*
X166971159Y-77981878D01*
X166971156Y-77981880D01*
X166963579Y-77986750D01*
X166957679Y-77993559D01*
X166957678Y-77993560D01*
X166873726Y-78090445D01*
X166873724Y-78090448D01*
X166867824Y-78097257D01*
X166807081Y-78230266D01*
X166786271Y-78375000D01*
X166786271Y-79525000D01*
X166792800Y-79606645D01*
X166794890Y-79613343D01*
X166794890Y-79613345D01*
X166801328Y-79633981D01*
X166805762Y-79689438D01*
X166798407Y-79740594D01*
X166786271Y-79825000D01*
X166786271Y-80825000D01*
X143063729Y-80825000D01*
X143063729Y-80375000D01*
X143063209Y-80368502D01*
X143057760Y-80300353D01*
X143057759Y-80300350D01*
X143057200Y-80293355D01*
X143048672Y-80266019D01*
X143044238Y-80210562D01*
X143053665Y-80144995D01*
X143063729Y-80075000D01*
X143063729Y-79075000D01*
X143058500Y-79001889D01*
X143017304Y-78861589D01*
X142957556Y-78768619D01*
X142943122Y-78746159D01*
X142943120Y-78746156D01*
X142938250Y-78738579D01*
X142890125Y-78696878D01*
X142834555Y-78648726D01*
X142834552Y-78648724D01*
X142827743Y-78642824D01*
X142694734Y-78582081D01*
X142550000Y-78561271D01*
X141243233Y-78561271D01*
X141175112Y-78541269D01*
X141128619Y-78487613D01*
X141118515Y-78417339D01*
X141130063Y-78383986D01*
X141128539Y-78383307D01*
X141131223Y-78377279D01*
X141134527Y-78371556D01*
X141193542Y-78189928D01*
X141199256Y-78135568D01*
X141206384Y-78067743D01*
X141211262Y-78021329D01*
X141238275Y-77955673D01*
X141296497Y-77915043D01*
X141336572Y-77908500D01*
X148691625Y-77908500D01*
X148708094Y-77909581D01*
X148731270Y-77912637D01*
X148731278Y-77912638D01*
X148735203Y-77913155D01*
X148739163Y-77913177D01*
X148739170Y-77913177D01*
X148745411Y-77913211D01*
X148756518Y-77913271D01*
X148768521Y-77911821D01*
X148777989Y-77910677D01*
X148784921Y-77910033D01*
X148996946Y-77896237D01*
X149000496Y-77896006D01*
X149122350Y-77874102D01*
X149237636Y-77853379D01*
X149237643Y-77853377D01*
X149241144Y-77852748D01*
X149475389Y-77782659D01*
X149544357Y-77753206D01*
X149696982Y-77688027D01*
X149696986Y-77688025D01*
X149700248Y-77686632D01*
X149703333Y-77684880D01*
X149703337Y-77684878D01*
X149817287Y-77620164D01*
X149818301Y-77621949D01*
X149818709Y-77621614D01*
X149817741Y-77620018D01*
X149817747Y-77620015D01*
X149819103Y-77619192D01*
X149822207Y-77617370D01*
X149865659Y-77592693D01*
X149874978Y-77587902D01*
X149891961Y-77580045D01*
X149891966Y-77580042D01*
X149895557Y-77578381D01*
X149913628Y-77567077D01*
X149916690Y-77564577D01*
X149916696Y-77564573D01*
X149931854Y-77552198D01*
X149946171Y-77542085D01*
X149964149Y-77531176D01*
X149964154Y-77531172D01*
X149968955Y-77528259D01*
X149977332Y-77520861D01*
X150004347Y-77493846D01*
X150013762Y-77485334D01*
X150039990Y-77463923D01*
X150045450Y-77459466D01*
X150049786Y-77453911D01*
X150049790Y-77453907D01*
X150057250Y-77444350D01*
X150081884Y-77420403D01*
X150085649Y-77417632D01*
X150085651Y-77417630D01*
X150091547Y-77413291D01*
X150096286Y-77407713D01*
X150096289Y-77407710D01*
X150125764Y-77373015D01*
X150132694Y-77365499D01*
X150138389Y-77359804D01*
X150156010Y-77337532D01*
X150158801Y-77334128D01*
X150201320Y-77284080D01*
X150201321Y-77284078D01*
X150206062Y-77278498D01*
X150209390Y-77271982D01*
X150212757Y-77266933D01*
X150215924Y-77261804D01*
X150220463Y-77256067D01*
X150251384Y-77189908D01*
X150253290Y-77186008D01*
X150254640Y-77183365D01*
X150286498Y-77120975D01*
X150288237Y-77113866D01*
X150290333Y-77108232D01*
X150292252Y-77102462D01*
X150295351Y-77095833D01*
X150310220Y-77024348D01*
X150311190Y-77020065D01*
X150311853Y-77017356D01*
X150328537Y-76949173D01*
X150329229Y-76938019D01*
X150329264Y-76938021D01*
X150329504Y-76934050D01*
X150329881Y-76929828D01*
X150331370Y-76922668D01*
X150330817Y-76902237D01*
X150347652Y-76835828D01*
X150355220Y-76822721D01*
X150405256Y-76736056D01*
X150464271Y-76554428D01*
X150467254Y-76526045D01*
X150481939Y-76386329D01*
X150508952Y-76320673D01*
X150567174Y-76280043D01*
X150607249Y-76273500D01*
X164402849Y-76273500D01*
X164420382Y-76274726D01*
X164429376Y-76275990D01*
X164439779Y-76277452D01*
X164439782Y-76277452D01*
X164443687Y-76278001D01*
X164465000Y-76278299D01*
X164465567Y-76278235D01*
X164466308Y-76278414D01*
X164466298Y-76278153D01*
X164468864Y-76278057D01*
X164967426Y-76259403D01*
X164969753Y-76259141D01*
X164969764Y-76259140D01*
X165259602Y-76226482D01*
X165467041Y-76203109D01*
X165469351Y-76202672D01*
X165958730Y-76110077D01*
X165958742Y-76110074D01*
X165961053Y-76109637D01*
X166136322Y-76062674D01*
X166444420Y-75980120D01*
X166444429Y-75980117D01*
X166446699Y-75979509D01*
X166921262Y-75813452D01*
X167316424Y-75641045D01*
X167379934Y-75613336D01*
X167379939Y-75613334D01*
X167382088Y-75612396D01*
X167419516Y-75592615D01*
X167527662Y-75535458D01*
X167826601Y-75377464D01*
X167971147Y-75286640D01*
X168250318Y-75111225D01*
X168250322Y-75111222D01*
X168252315Y-75109970D01*
X168357747Y-75032158D01*
X168451047Y-74963299D01*
X168656848Y-74811411D01*
X169037939Y-74483456D01*
X169393456Y-74127939D01*
X169721411Y-73746848D01*
X169932554Y-73460760D01*
X170018568Y-73344215D01*
X170018571Y-73344210D01*
X170019970Y-73342315D01*
X170043683Y-73304576D01*
X170286217Y-72918586D01*
X170286220Y-72918581D01*
X170287464Y-72916601D01*
X170522396Y-72472088D01*
X170555822Y-72395476D01*
X170575663Y-72350000D01*
X171986496Y-72350000D01*
X171987186Y-72356565D01*
X171999546Y-72474160D01*
X172006458Y-72539928D01*
X172065473Y-72721556D01*
X172160960Y-72886944D01*
X172165378Y-72891851D01*
X172165379Y-72891852D01*
X172284325Y-73023955D01*
X172288747Y-73028866D01*
X172443248Y-73141118D01*
X172449276Y-73143802D01*
X172449278Y-73143803D01*
X172602158Y-73211869D01*
X172617712Y-73218794D01*
X172711112Y-73238647D01*
X172798056Y-73257128D01*
X172798061Y-73257128D01*
X172804513Y-73258500D01*
X172995487Y-73258500D01*
X173001939Y-73257128D01*
X173001944Y-73257128D01*
X173088888Y-73238647D01*
X173182288Y-73218794D01*
X173197842Y-73211869D01*
X173350722Y-73143803D01*
X173350724Y-73143802D01*
X173356752Y-73141118D01*
X173387374Y-73118870D01*
X173452108Y-73071838D01*
X173506454Y-73049326D01*
X173512692Y-73048338D01*
X173512707Y-73048335D01*
X173515951Y-73047821D01*
X173519119Y-73046972D01*
X173519129Y-73046970D01*
X173709100Y-72996067D01*
X173815481Y-72967562D01*
X174104982Y-72856433D01*
X174381280Y-72715652D01*
X174641349Y-72546761D01*
X174882340Y-72351611D01*
X175101611Y-72132340D01*
X175296761Y-71891349D01*
X175465652Y-71631280D01*
X175606433Y-71354982D01*
X175717562Y-71065481D01*
X175797821Y-70765951D01*
X175846331Y-70459672D01*
X175856617Y-70263411D01*
X175857452Y-70247489D01*
X175857738Y-70244677D01*
X175857808Y-70244390D01*
X175858500Y-70233236D01*
X175858500Y-70230770D01*
X175858673Y-70224176D01*
X175860229Y-70194484D01*
X175861282Y-70183545D01*
X175862451Y-70175227D01*
X175863001Y-70171313D01*
X175863299Y-70150000D01*
X175859285Y-70114213D01*
X175858500Y-70100169D01*
X175858500Y-69586999D01*
X175875381Y-69523999D01*
X175931223Y-69427279D01*
X175931224Y-69427278D01*
X175934527Y-69421556D01*
X175993542Y-69239928D01*
X175996651Y-69210353D01*
X176012814Y-69056565D01*
X176013504Y-69050000D01*
X175993542Y-68860072D01*
X175934527Y-68678444D01*
X175839040Y-68513056D01*
X175711253Y-68371134D01*
X175556752Y-68258882D01*
X175550724Y-68256198D01*
X175550722Y-68256197D01*
X175388319Y-68183891D01*
X175388318Y-68183891D01*
X175382288Y-68181206D01*
X175288888Y-68161353D01*
X175201944Y-68142872D01*
X175201939Y-68142872D01*
X175195487Y-68141500D01*
X175004513Y-68141500D01*
X174998061Y-68142872D01*
X174998056Y-68142872D01*
X174911112Y-68161353D01*
X174817712Y-68181206D01*
X174811682Y-68183891D01*
X174811681Y-68183891D01*
X174649278Y-68256197D01*
X174649276Y-68256198D01*
X174643248Y-68258882D01*
X174488747Y-68371134D01*
X174360960Y-68513056D01*
X174265473Y-68678444D01*
X174206458Y-68860072D01*
X174186496Y-69050000D01*
X174187186Y-69056565D01*
X174203350Y-69210353D01*
X174206458Y-69239928D01*
X174265473Y-69421556D01*
X174268776Y-69427278D01*
X174268777Y-69427279D01*
X174324619Y-69523999D01*
X174341500Y-69586999D01*
X174341500Y-70094017D01*
X174340506Y-70109809D01*
X174336775Y-70139343D01*
X174338775Y-70159744D01*
X174338988Y-70181914D01*
X174333255Y-70254765D01*
X174324531Y-70365614D01*
X174321438Y-70385142D01*
X174277122Y-70569734D01*
X174273263Y-70585807D01*
X174267155Y-70604606D01*
X174188179Y-70795270D01*
X174179209Y-70812875D01*
X174079871Y-70974980D01*
X174071379Y-70988838D01*
X174059760Y-71004830D01*
X174007959Y-71065481D01*
X173925734Y-71161754D01*
X173911755Y-71175733D01*
X173754830Y-71309760D01*
X173738841Y-71321377D01*
X173562875Y-71429209D01*
X173545270Y-71438179D01*
X173360322Y-71514787D01*
X173357179Y-71516089D01*
X173286589Y-71523678D01*
X173257713Y-71514787D01*
X173188324Y-71483893D01*
X173188321Y-71483892D01*
X173182288Y-71481206D01*
X173129117Y-71469904D01*
X173001944Y-71442872D01*
X173001939Y-71442872D01*
X172995487Y-71441500D01*
X172804513Y-71441500D01*
X172798061Y-71442872D01*
X172798056Y-71442872D01*
X172711112Y-71461353D01*
X172617712Y-71481206D01*
X172611682Y-71483891D01*
X172611681Y-71483891D01*
X172449278Y-71556197D01*
X172449276Y-71556198D01*
X172443248Y-71558882D01*
X172437907Y-71562762D01*
X172437906Y-71562763D01*
X172425804Y-71571556D01*
X172288747Y-71671134D01*
X172284326Y-71676044D01*
X172284325Y-71676045D01*
X172200814Y-71768794D01*
X172160960Y-71813056D01*
X172157659Y-71818774D01*
X172077890Y-71956938D01*
X172065473Y-71978444D01*
X172006458Y-72160072D01*
X172005768Y-72166633D01*
X172005768Y-72166635D01*
X172000349Y-72218193D01*
X171986496Y-72350000D01*
X170575663Y-72350000D01*
X170640453Y-72201498D01*
X170723452Y-72011262D01*
X170889509Y-71536699D01*
X170893730Y-71520948D01*
X170986229Y-71175734D01*
X171019637Y-71051053D01*
X171024989Y-71022771D01*
X171091981Y-70668709D01*
X171124299Y-70605494D01*
X171185662Y-70569787D01*
X171206795Y-70566455D01*
X171241373Y-70563982D01*
X171241374Y-70563982D01*
X171248111Y-70563500D01*
X171327618Y-70540155D01*
X171379765Y-70524843D01*
X171379767Y-70524842D01*
X171388411Y-70522304D01*
X171427730Y-70497035D01*
X171503841Y-70448122D01*
X171503844Y-70448120D01*
X171511421Y-70443250D01*
X171527235Y-70425000D01*
X171601274Y-70339555D01*
X171601276Y-70339552D01*
X171607176Y-70332743D01*
X171667919Y-70199734D01*
X171688729Y-70055000D01*
X171688729Y-69055000D01*
X171688386Y-69049557D01*
X171685066Y-68996920D01*
X171685065Y-68996916D01*
X171684657Y-68990443D01*
X171672075Y-68944768D01*
X171668833Y-68893375D01*
X171672678Y-68866635D01*
X171688729Y-68755000D01*
X171688729Y-67605000D01*
X171683500Y-67531889D01*
X171642304Y-67391589D01*
X171613567Y-67346873D01*
X171568122Y-67276159D01*
X171568120Y-67276156D01*
X171563250Y-67268579D01*
X171526805Y-67236999D01*
X171459555Y-67178726D01*
X171459552Y-67178724D01*
X171452743Y-67172824D01*
X171441795Y-67167824D01*
X171327932Y-67115825D01*
X171327933Y-67115825D01*
X171319734Y-67112081D01*
X171310811Y-67110798D01*
X171291567Y-67108031D01*
X171226986Y-67078537D01*
X171188603Y-67018811D01*
X171183500Y-66983314D01*
X171183500Y-66693698D01*
X171200381Y-66630698D01*
X171231223Y-66577279D01*
X171231224Y-66577278D01*
X171234527Y-66571556D01*
X171293542Y-66389928D01*
X171313504Y-66200000D01*
X171307190Y-66139928D01*
X171294232Y-66016635D01*
X171294232Y-66016633D01*
X171293542Y-66010072D01*
X171234527Y-65828444D01*
X171213990Y-65792872D01*
X171142341Y-65668774D01*
X171139040Y-65663056D01*
X171011253Y-65521134D01*
X170856752Y-65408882D01*
X170850724Y-65406198D01*
X170850722Y-65406197D01*
X170688319Y-65333891D01*
X170688318Y-65333891D01*
X170682288Y-65331206D01*
X170588887Y-65311353D01*
X170501944Y-65292872D01*
X170501939Y-65292872D01*
X170495487Y-65291500D01*
X170304513Y-65291500D01*
X170298061Y-65292872D01*
X170298056Y-65292872D01*
X170211113Y-65311353D01*
X170117712Y-65331206D01*
X170111682Y-65333891D01*
X170111681Y-65333891D01*
X169949278Y-65406197D01*
X169949276Y-65406198D01*
X169943248Y-65408882D01*
X169788747Y-65521134D01*
X169660960Y-65663056D01*
X169657659Y-65668774D01*
X169586011Y-65792872D01*
X169565473Y-65828444D01*
X169506458Y-66010072D01*
X169505768Y-66016633D01*
X169505768Y-66016635D01*
X169492810Y-66139928D01*
X169486496Y-66200000D01*
X169506458Y-66389928D01*
X169565473Y-66571556D01*
X169568776Y-66577278D01*
X169568777Y-66577279D01*
X169649619Y-66717301D01*
X169666500Y-66780301D01*
X169666500Y-66983206D01*
X169646498Y-67051327D01*
X169592842Y-67097820D01*
X169575999Y-67104102D01*
X169461589Y-67137696D01*
X169454010Y-67142567D01*
X169346159Y-67211878D01*
X169346156Y-67211880D01*
X169338579Y-67216750D01*
X169298002Y-67263579D01*
X169259087Y-67308489D01*
X169199360Y-67346873D01*
X169128364Y-67346873D01*
X169068638Y-67308490D01*
X169057865Y-67294099D01*
X169043123Y-67271161D01*
X169043122Y-67271160D01*
X169038250Y-67263579D01*
X168992065Y-67223559D01*
X168934555Y-67173726D01*
X168934552Y-67173724D01*
X168927743Y-67167824D01*
X168794734Y-67107081D01*
X168785811Y-67105798D01*
X168766567Y-67103031D01*
X168701986Y-67073537D01*
X168663603Y-67013811D01*
X168658500Y-66978314D01*
X168658500Y-66486999D01*
X168675381Y-66423999D01*
X168691428Y-66396206D01*
X168734527Y-66321556D01*
X168793542Y-66139928D01*
X168805512Y-66026045D01*
X168812814Y-65956565D01*
X168813504Y-65950000D01*
X168801301Y-65833891D01*
X168794232Y-65766635D01*
X168794232Y-65766633D01*
X168793542Y-65760072D01*
X168734527Y-65578444D01*
X168639040Y-65413056D01*
X168511253Y-65271134D01*
X168356752Y-65158882D01*
X168350724Y-65156198D01*
X168350722Y-65156197D01*
X168188319Y-65083891D01*
X168188318Y-65083891D01*
X168182288Y-65081206D01*
X168088887Y-65061353D01*
X168001944Y-65042872D01*
X168001939Y-65042872D01*
X167995487Y-65041500D01*
X167804513Y-65041500D01*
X167798061Y-65042872D01*
X167798056Y-65042872D01*
X167711113Y-65061353D01*
X167617712Y-65081206D01*
X167611682Y-65083891D01*
X167611681Y-65083891D01*
X167449278Y-65156197D01*
X167449276Y-65156198D01*
X167443248Y-65158882D01*
X167288747Y-65271134D01*
X167160960Y-65413056D01*
X167065473Y-65578444D01*
X167006458Y-65760072D01*
X167005768Y-65766633D01*
X167005768Y-65766635D01*
X166998699Y-65833891D01*
X166986496Y-65950000D01*
X166987186Y-65956565D01*
X166994489Y-66026045D01*
X167006458Y-66139928D01*
X167065473Y-66321556D01*
X167108573Y-66396206D01*
X167124619Y-66423999D01*
X167141500Y-66486999D01*
X167141500Y-66978206D01*
X167121498Y-67046327D01*
X167067842Y-67092820D01*
X167050999Y-67099102D01*
X166936589Y-67132696D01*
X166916633Y-67145521D01*
X166821159Y-67206878D01*
X166821156Y-67206880D01*
X166813579Y-67211750D01*
X166807678Y-67218560D01*
X166723726Y-67315445D01*
X166723724Y-67315448D01*
X166717824Y-67322257D01*
X166657081Y-67455266D01*
X166636271Y-67600000D01*
X166636271Y-68750000D01*
X166642800Y-68831645D01*
X166644890Y-68838343D01*
X166644890Y-68838345D01*
X166651328Y-68858981D01*
X166655762Y-68914438D01*
X166636271Y-69050000D01*
X166636271Y-70050000D01*
X166641500Y-70123111D01*
X166656803Y-70175227D01*
X166671176Y-70224176D01*
X166682696Y-70263411D01*
X166687567Y-70270990D01*
X166756878Y-70378841D01*
X166756880Y-70378844D01*
X166761750Y-70386421D01*
X166768560Y-70392322D01*
X166872257Y-70482176D01*
X166870669Y-70484008D01*
X166908602Y-70527788D01*
X166918704Y-70598063D01*
X166910396Y-70628345D01*
X166879644Y-70702587D01*
X166873513Y-70715317D01*
X166735451Y-70965123D01*
X166727934Y-70977088D01*
X166562756Y-71209884D01*
X166553946Y-71220931D01*
X166446199Y-71341500D01*
X166373486Y-71422867D01*
X166363751Y-71433760D01*
X166353760Y-71443751D01*
X166140931Y-71633946D01*
X166129884Y-71642756D01*
X165897088Y-71807934D01*
X165885123Y-71815451D01*
X165635317Y-71953513D01*
X165622586Y-71959644D01*
X165358871Y-72068879D01*
X165345551Y-72073540D01*
X165156080Y-72128126D01*
X165071264Y-72152561D01*
X165057489Y-72155705D01*
X164916789Y-72179611D01*
X164776084Y-72203518D01*
X164762052Y-72205099D01*
X164622468Y-72212938D01*
X164514733Y-72218988D01*
X164491881Y-72218193D01*
X164480657Y-72216775D01*
X164440817Y-72220681D01*
X164438598Y-72220899D01*
X164426302Y-72221500D01*
X142776577Y-72221500D01*
X142708456Y-72201498D01*
X142661963Y-72147842D01*
X142651859Y-72077568D01*
X142681353Y-72012988D01*
X142707159Y-71991679D01*
X142706752Y-71991118D01*
X142750072Y-71959644D01*
X142861253Y-71878866D01*
X142924928Y-71808148D01*
X142984621Y-71741852D01*
X142984622Y-71741851D01*
X142989040Y-71736944D01*
X143084527Y-71571556D01*
X143143542Y-71389928D01*
X143144790Y-71378059D01*
X143162814Y-71206565D01*
X143163504Y-71200000D01*
X143159484Y-71161754D01*
X143144232Y-71016635D01*
X143144232Y-71016633D01*
X143143542Y-71010072D01*
X143084527Y-70828444D01*
X143065371Y-70795264D01*
X143009099Y-70697800D01*
X142989040Y-70663056D01*
X142879252Y-70541124D01*
X142848534Y-70477117D01*
X142848218Y-70443973D01*
X142847767Y-70443941D01*
X142848087Y-70439462D01*
X142848729Y-70435000D01*
X142848729Y-69285000D01*
X142847929Y-69275000D01*
X142842760Y-69210353D01*
X142842759Y-69210350D01*
X142842200Y-69203355D01*
X142833672Y-69176019D01*
X142829238Y-69120562D01*
X142848087Y-68989463D01*
X142848729Y-68985000D01*
X142848729Y-67985000D01*
X142843500Y-67911889D01*
X142802304Y-67771589D01*
X142750156Y-67690445D01*
X142728122Y-67656159D01*
X142728120Y-67656156D01*
X142723250Y-67648579D01*
X142675562Y-67607257D01*
X142619555Y-67558726D01*
X142619552Y-67558724D01*
X142612743Y-67552824D01*
X142479734Y-67492081D01*
X142335000Y-67471271D01*
X140982737Y-67471271D01*
X140914616Y-67451269D01*
X140893642Y-67434366D01*
X140844756Y-67385480D01*
X140830638Y-67368656D01*
X140745650Y-67247281D01*
X140734668Y-67228260D01*
X140696086Y-67145521D01*
X140685425Y-67075330D01*
X140690448Y-67053335D01*
X140741502Y-66896206D01*
X140743542Y-66889928D01*
X140763504Y-66700000D01*
X140743542Y-66510072D01*
X140684527Y-66328444D01*
X140589040Y-66163056D01*
X140568216Y-66139928D01*
X140465675Y-66026045D01*
X140465674Y-66026044D01*
X140461253Y-66021134D01*
X140306752Y-65908882D01*
X140300724Y-65906198D01*
X140300722Y-65906197D01*
X140138319Y-65833891D01*
X140138318Y-65833891D01*
X140132288Y-65831206D01*
X140038887Y-65811353D01*
X139951944Y-65792872D01*
X139951939Y-65792872D01*
X139945487Y-65791500D01*
X139754513Y-65791500D01*
X139748061Y-65792872D01*
X139748056Y-65792872D01*
X139661113Y-65811353D01*
X139567712Y-65831206D01*
X139561682Y-65833891D01*
X139561681Y-65833891D01*
X139399278Y-65906197D01*
X139399276Y-65906198D01*
X139393248Y-65908882D01*
X139238747Y-66021134D01*
X139234326Y-66026044D01*
X139234325Y-66026045D01*
X139131785Y-66139928D01*
X139110960Y-66163056D01*
X139015473Y-66328444D01*
X138956458Y-66510072D01*
X138936496Y-66700000D01*
X138956458Y-66889928D01*
X139015473Y-67071556D01*
X139018776Y-67077278D01*
X139018777Y-67077279D01*
X139035243Y-67105798D01*
X139073941Y-67172824D01*
X139074619Y-67173999D01*
X139091500Y-67236999D01*
X139091500Y-67335271D01*
X139071498Y-67403392D01*
X139017842Y-67449885D01*
X138965500Y-67461271D01*
X138300000Y-67461271D01*
X138268014Y-67463559D01*
X138233627Y-67466018D01*
X138233626Y-67466018D01*
X138226889Y-67466500D01*
X138147382Y-67489845D01*
X138095235Y-67505157D01*
X138095233Y-67505158D01*
X138086589Y-67507696D01*
X138079010Y-67512567D01*
X137971159Y-67581878D01*
X137971156Y-67581880D01*
X137963579Y-67586750D01*
X137957678Y-67593560D01*
X137873726Y-67690445D01*
X137873724Y-67690448D01*
X137867824Y-67697257D01*
X137807081Y-67830266D01*
X137786271Y-67975000D01*
X137786271Y-68975000D01*
X137786395Y-68976964D01*
X137786395Y-68976968D01*
X137787654Y-68996920D01*
X137790343Y-69039557D01*
X137802925Y-69085232D01*
X137806167Y-69136624D01*
X137786271Y-69275000D01*
X137786271Y-70425000D01*
X137791500Y-70498111D01*
X137800214Y-70527788D01*
X137832676Y-70638344D01*
X137832676Y-70709340D01*
X137805416Y-70758152D01*
X137710960Y-70863056D01*
X137707659Y-70868774D01*
X137619202Y-71021986D01*
X137615473Y-71028444D01*
X137613431Y-71034729D01*
X137559731Y-71200000D01*
X137556458Y-71210072D01*
X137555768Y-71216633D01*
X137555768Y-71216635D01*
X137554503Y-71228672D01*
X137527489Y-71294328D01*
X137469267Y-71334957D01*
X137429193Y-71341500D01*
X137254513Y-71341500D01*
X137248061Y-71342872D01*
X137248056Y-71342872D01*
X137177254Y-71357922D01*
X137067712Y-71381206D01*
X137061682Y-71383891D01*
X137061681Y-71383891D01*
X136899278Y-71456197D01*
X136899276Y-71456198D01*
X136893248Y-71458882D01*
X136887907Y-71462762D01*
X136887906Y-71462763D01*
X136864410Y-71479834D01*
X136738747Y-71571134D01*
X136691145Y-71624002D01*
X136630700Y-71661240D01*
X136559716Y-71659888D01*
X136503874Y-71624000D01*
X136415675Y-71526045D01*
X136415674Y-71526044D01*
X136411253Y-71521134D01*
X136291855Y-71434386D01*
X136262094Y-71412763D01*
X136262093Y-71412762D01*
X136256752Y-71408882D01*
X136250724Y-71406198D01*
X136250722Y-71406197D01*
X136088319Y-71333891D01*
X136088318Y-71333891D01*
X136082288Y-71331206D01*
X135981379Y-71309757D01*
X135901944Y-71292872D01*
X135901939Y-71292872D01*
X135895487Y-71291500D01*
X135704513Y-71291500D01*
X135698061Y-71292872D01*
X135698056Y-71292872D01*
X135618621Y-71309757D01*
X135517712Y-71331206D01*
X135511682Y-71333891D01*
X135511681Y-71333891D01*
X135349278Y-71406197D01*
X135349276Y-71406198D01*
X135343248Y-71408882D01*
X135337907Y-71412762D01*
X135337906Y-71412763D01*
X135285147Y-71451095D01*
X135227532Y-71474081D01*
X135173411Y-71481206D01*
X134940870Y-71511820D01*
X134940864Y-71511821D01*
X134938145Y-71512179D01*
X134515423Y-71605894D01*
X134512798Y-71606722D01*
X134512793Y-71606723D01*
X134105105Y-71735266D01*
X134105097Y-71735269D01*
X134102477Y-71736095D01*
X133769653Y-71873955D01*
X133748423Y-71882749D01*
X133702451Y-71901791D01*
X133700011Y-71903061D01*
X133700005Y-71903064D01*
X133566196Y-71972721D01*
X133318388Y-72101722D01*
X132953212Y-72334365D01*
X132728549Y-72506755D01*
X132611869Y-72596286D01*
X132611863Y-72596291D01*
X132609701Y-72597950D01*
X132290471Y-72890471D01*
X131997950Y-73209701D01*
X131996291Y-73211863D01*
X131996286Y-73211869D01*
X131989920Y-73220166D01*
X131734365Y-73553212D01*
X131501722Y-73918388D01*
X131453994Y-74010072D01*
X131304175Y-74297872D01*
X131301791Y-74302451D01*
X131300739Y-74304992D01*
X131300738Y-74304993D01*
X131279996Y-74355068D01*
X131136095Y-74702477D01*
X131135269Y-74705097D01*
X131135266Y-74705105D01*
X131006723Y-75112793D01*
X131005894Y-75115423D01*
X130912179Y-75538145D01*
X130911821Y-75540864D01*
X130911820Y-75540870D01*
X130905438Y-75589348D01*
X130855663Y-75967427D01*
X130837714Y-76378536D01*
X130837671Y-76379044D01*
X130837650Y-76379747D01*
X130837659Y-76379792D01*
X130837488Y-76383702D01*
X130836775Y-76389343D01*
X130837098Y-76392633D01*
X130836776Y-76400000D01*
X130837414Y-76400000D01*
X130837413Y-76400041D01*
X130837820Y-76400001D01*
X130840899Y-76431403D01*
X130841500Y-76443698D01*
X130841500Y-76944017D01*
X130840506Y-76959809D01*
X130836775Y-76989343D01*
X129308499Y-76989343D01*
X129308499Y-61464400D01*
X165872096Y-61464400D01*
X165872786Y-61470965D01*
X165885492Y-61591852D01*
X165892058Y-61654328D01*
X165951073Y-61835956D01*
X166046560Y-62001344D01*
X166174347Y-62143266D01*
X166328848Y-62255518D01*
X166334876Y-62258202D01*
X166334878Y-62258203D01*
X166497281Y-62330509D01*
X166503312Y-62333194D01*
X166596712Y-62353047D01*
X166683656Y-62371528D01*
X166683661Y-62371528D01*
X166690113Y-62372900D01*
X166881087Y-62372900D01*
X166887539Y-62371528D01*
X166887544Y-62371528D01*
X166974488Y-62353047D01*
X167067888Y-62333194D01*
X167073919Y-62330509D01*
X167236322Y-62258203D01*
X167236324Y-62258202D01*
X167242352Y-62255518D01*
X167396853Y-62143266D01*
X167524640Y-62001344D01*
X167620127Y-61835956D01*
X167679142Y-61654328D01*
X167685709Y-61591852D01*
X167698414Y-61470965D01*
X167699104Y-61464400D01*
X167698414Y-61457835D01*
X167679832Y-61281035D01*
X167679832Y-61281033D01*
X167679142Y-61274472D01*
X167620127Y-61092844D01*
X167595391Y-61050000D01*
X167936496Y-61050000D01*
X167937186Y-61056565D01*
X167940398Y-61087121D01*
X167956458Y-61239928D01*
X168015473Y-61421556D01*
X168110960Y-61586944D01*
X168238747Y-61728866D01*
X168337843Y-61800864D01*
X168377493Y-61829671D01*
X168393248Y-61841118D01*
X168399276Y-61843802D01*
X168399278Y-61843803D01*
X168561681Y-61916109D01*
X168567712Y-61918794D01*
X168661112Y-61938647D01*
X168748056Y-61957128D01*
X168748061Y-61957128D01*
X168754513Y-61958500D01*
X168945487Y-61958500D01*
X168951939Y-61957128D01*
X168951944Y-61957128D01*
X169038888Y-61938647D01*
X169132288Y-61918794D01*
X169138319Y-61916109D01*
X169300722Y-61843803D01*
X169300724Y-61843802D01*
X169306752Y-61841118D01*
X169322508Y-61829671D01*
X169362157Y-61800864D01*
X169461253Y-61728866D01*
X169589040Y-61586944D01*
X169684527Y-61421556D01*
X169743542Y-61239928D01*
X169759603Y-61087121D01*
X169762814Y-61056565D01*
X169763504Y-61050000D01*
X169750624Y-60927456D01*
X169744232Y-60866635D01*
X169744232Y-60866633D01*
X169743542Y-60860072D01*
X169684527Y-60678444D01*
X169589040Y-60513056D01*
X169461253Y-60371134D01*
X169306752Y-60258882D01*
X169300724Y-60256198D01*
X169300722Y-60256197D01*
X169138319Y-60183891D01*
X169138318Y-60183891D01*
X169132288Y-60181206D01*
X169038888Y-60161353D01*
X168951944Y-60142872D01*
X168951939Y-60142872D01*
X168945487Y-60141500D01*
X168754513Y-60141500D01*
X168748061Y-60142872D01*
X168748056Y-60142872D01*
X168661112Y-60161353D01*
X168567712Y-60181206D01*
X168561682Y-60183891D01*
X168561681Y-60183891D01*
X168399278Y-60256197D01*
X168399276Y-60256198D01*
X168393248Y-60258882D01*
X168238747Y-60371134D01*
X168110960Y-60513056D01*
X168015473Y-60678444D01*
X167956458Y-60860072D01*
X167955768Y-60866633D01*
X167955768Y-60866635D01*
X167949376Y-60927456D01*
X167936496Y-61050000D01*
X167595391Y-61050000D01*
X167524640Y-60927456D01*
X167510018Y-60911216D01*
X167401275Y-60790445D01*
X167401274Y-60790444D01*
X167396853Y-60785534D01*
X167294257Y-60710993D01*
X167247694Y-60677163D01*
X167247693Y-60677162D01*
X167242352Y-60673282D01*
X167236324Y-60670598D01*
X167236322Y-60670597D01*
X167073919Y-60598291D01*
X167073918Y-60598291D01*
X167067888Y-60595606D01*
X166974488Y-60575753D01*
X166887544Y-60557272D01*
X166887539Y-60557272D01*
X166881087Y-60555900D01*
X166690113Y-60555900D01*
X166683661Y-60557272D01*
X166683656Y-60557272D01*
X166596712Y-60575753D01*
X166503312Y-60595606D01*
X166497282Y-60598291D01*
X166497281Y-60598291D01*
X166334878Y-60670597D01*
X166334876Y-60670598D01*
X166328848Y-60673282D01*
X166323507Y-60677162D01*
X166323506Y-60677163D01*
X166276943Y-60710993D01*
X166174347Y-60785534D01*
X166169926Y-60790444D01*
X166169925Y-60790445D01*
X166061183Y-60911216D01*
X166046560Y-60927456D01*
X165951073Y-61092844D01*
X165892058Y-61274472D01*
X165891368Y-61281033D01*
X165891368Y-61281035D01*
X165872786Y-61457835D01*
X165872096Y-61464400D01*
X129308499Y-61464400D01*
X129308499Y-59465469D01*
X136822095Y-59465469D01*
X136835427Y-59696697D01*
X136836564Y-59701743D01*
X136836565Y-59701749D01*
X136851394Y-59767548D01*
X136886346Y-59922642D01*
X136888288Y-59927424D01*
X136888289Y-59927428D01*
X136971540Y-60132450D01*
X136973484Y-60137237D01*
X137094501Y-60334719D01*
X137246147Y-60509784D01*
X137424349Y-60657730D01*
X137624322Y-60774584D01*
X137629147Y-60776426D01*
X137629148Y-60776427D01*
X137703665Y-60804883D01*
X137840694Y-60857209D01*
X137845760Y-60858240D01*
X137845761Y-60858240D01*
X137854766Y-60860072D01*
X138067656Y-60903385D01*
X138198324Y-60908176D01*
X138293949Y-60911683D01*
X138293953Y-60911683D01*
X138299113Y-60911872D01*
X138304233Y-60911216D01*
X138304235Y-60911216D01*
X138403668Y-60898478D01*
X138528847Y-60882442D01*
X138533795Y-60880957D01*
X138533802Y-60880956D01*
X138745747Y-60817369D01*
X138750690Y-60815886D01*
X138802622Y-60790445D01*
X138954049Y-60716262D01*
X138954052Y-60716260D01*
X138958684Y-60713991D01*
X139147243Y-60579494D01*
X139150898Y-60575852D01*
X139150906Y-60575845D01*
X139192697Y-60534199D01*
X139255068Y-60500282D01*
X139325875Y-60505470D01*
X139382637Y-60548116D01*
X139399619Y-60579218D01*
X139421677Y-60638056D01*
X139430214Y-60653649D01*
X139506715Y-60755724D01*
X139519276Y-60768285D01*
X139621351Y-60844786D01*
X139636946Y-60853324D01*
X139757394Y-60898478D01*
X139772649Y-60902105D01*
X139823514Y-60907631D01*
X139830328Y-60908000D01*
X140502885Y-60908000D01*
X140518124Y-60903525D01*
X140519329Y-60902135D01*
X140521000Y-60894452D01*
X140521000Y-60889884D01*
X141029000Y-60889884D01*
X141033475Y-60905123D01*
X141034865Y-60906328D01*
X141042548Y-60907999D01*
X141719669Y-60907999D01*
X141726490Y-60907629D01*
X141777352Y-60902105D01*
X141792604Y-60898479D01*
X141913054Y-60853324D01*
X141928649Y-60844786D01*
X142030724Y-60768285D01*
X142043285Y-60755724D01*
X142119786Y-60653649D01*
X142128324Y-60638054D01*
X142173478Y-60517606D01*
X142177105Y-60502351D01*
X142182631Y-60451486D01*
X142183000Y-60444672D01*
X142183000Y-59772115D01*
X142178525Y-59756876D01*
X142177135Y-59755671D01*
X142169452Y-59754000D01*
X141047115Y-59754000D01*
X141031876Y-59758475D01*
X141030671Y-59759865D01*
X141029000Y-59767548D01*
X141029000Y-60889884D01*
X140521000Y-60889884D01*
X140521000Y-59227885D01*
X141029000Y-59227885D01*
X141033475Y-59243124D01*
X141034865Y-59244329D01*
X141042548Y-59246000D01*
X142164884Y-59246000D01*
X142180123Y-59241525D01*
X142181328Y-59240135D01*
X142182999Y-59232452D01*
X142182999Y-58555331D01*
X142182629Y-58548510D01*
X142177105Y-58497648D01*
X142173479Y-58482396D01*
X142128324Y-58361946D01*
X142119786Y-58346351D01*
X142043285Y-58244276D01*
X142030724Y-58231715D01*
X141928649Y-58155214D01*
X141913054Y-58146676D01*
X141792606Y-58101522D01*
X141777351Y-58097895D01*
X141726486Y-58092369D01*
X141719672Y-58092000D01*
X141047115Y-58092000D01*
X141031876Y-58096475D01*
X141030671Y-58097865D01*
X141029000Y-58105548D01*
X141029000Y-59227885D01*
X140521000Y-59227885D01*
X140521000Y-58110116D01*
X140516525Y-58094877D01*
X140515135Y-58093672D01*
X140507452Y-58092001D01*
X139830331Y-58092001D01*
X139823510Y-58092371D01*
X139772648Y-58097895D01*
X139757396Y-58101521D01*
X139636946Y-58146676D01*
X139621351Y-58155214D01*
X139519276Y-58231715D01*
X139506715Y-58244276D01*
X139430214Y-58346351D01*
X139421675Y-58361948D01*
X139400934Y-58417275D01*
X139358293Y-58474040D01*
X139291731Y-58498740D01*
X139222383Y-58483533D01*
X139199388Y-58466909D01*
X139198887Y-58466358D01*
X139136737Y-58417275D01*
X139021177Y-58326011D01*
X139021172Y-58326008D01*
X139017123Y-58322810D01*
X139012607Y-58320317D01*
X139012604Y-58320315D01*
X138818879Y-58213373D01*
X138818875Y-58213371D01*
X138814355Y-58210876D01*
X138809486Y-58209152D01*
X138809482Y-58209150D01*
X138600903Y-58135288D01*
X138600899Y-58135287D01*
X138596028Y-58133562D01*
X138590935Y-58132655D01*
X138590932Y-58132654D01*
X138373095Y-58093851D01*
X138373089Y-58093850D01*
X138368006Y-58092945D01*
X138290644Y-58092000D01*
X138141581Y-58090179D01*
X138141579Y-58090179D01*
X138136411Y-58090116D01*
X137907464Y-58125150D01*
X137687314Y-58197106D01*
X137682726Y-58199494D01*
X137682722Y-58199496D01*
X137486461Y-58301663D01*
X137481872Y-58304052D01*
X137477739Y-58307155D01*
X137477736Y-58307157D01*
X137331073Y-58417275D01*
X137296655Y-58443117D01*
X137136639Y-58610564D01*
X137006119Y-58801899D01*
X136908602Y-59011981D01*
X136846707Y-59235169D01*
X136822095Y-59465469D01*
X129308499Y-59465469D01*
X129308499Y-56516381D01*
X131849160Y-56516381D01*
X131849237Y-56517470D01*
X131851698Y-56521206D01*
X132125632Y-56731404D01*
X132131262Y-56735259D01*
X132431591Y-56917862D01*
X132437593Y-56921080D01*
X132755897Y-57070184D01*
X132762202Y-57072732D01*
X133094743Y-57186587D01*
X133101313Y-57188446D01*
X133444183Y-57265714D01*
X133450912Y-57266853D01*
X133800143Y-57306643D01*
X133806933Y-57307046D01*
X134158419Y-57308886D01*
X134165220Y-57308554D01*
X134514853Y-57272423D01*
X134521581Y-57271357D01*
X134865274Y-57197676D01*
X134871822Y-57195897D01*
X135205549Y-57085527D01*
X135211891Y-57083041D01*
X135531718Y-56937288D01*
X135537777Y-56934121D01*
X135839995Y-56754676D01*
X135845659Y-56750884D01*
X136126732Y-56539849D01*
X136131958Y-56535464D01*
X136141613Y-56526428D01*
X136147540Y-56516381D01*
X171849160Y-56516381D01*
X171849237Y-56517470D01*
X171851698Y-56521206D01*
X172125632Y-56731404D01*
X172131262Y-56735259D01*
X172431591Y-56917862D01*
X172437593Y-56921080D01*
X172755897Y-57070184D01*
X172762202Y-57072732D01*
X173094743Y-57186587D01*
X173101313Y-57188446D01*
X173444183Y-57265714D01*
X173450912Y-57266853D01*
X173800143Y-57306643D01*
X173806933Y-57307046D01*
X174158419Y-57308886D01*
X174165220Y-57308554D01*
X174514853Y-57272423D01*
X174521581Y-57271357D01*
X174865274Y-57197676D01*
X174871822Y-57195897D01*
X175205549Y-57085527D01*
X175211891Y-57083041D01*
X175531718Y-56937288D01*
X175537777Y-56934121D01*
X175839995Y-56754676D01*
X175845659Y-56750884D01*
X176126732Y-56539849D01*
X176131958Y-56535464D01*
X176141613Y-56526428D01*
X176149682Y-56512750D01*
X176149654Y-56512024D01*
X176144512Y-56503723D01*
X174012810Y-54372020D01*
X173998869Y-54364408D01*
X173997034Y-54364539D01*
X173990420Y-54368790D01*
X171856774Y-56502437D01*
X171849160Y-56516381D01*
X136147540Y-56516381D01*
X136149682Y-56512750D01*
X136149654Y-56512024D01*
X136144512Y-56503723D01*
X134012810Y-54372020D01*
X133998869Y-54364408D01*
X133997034Y-54364539D01*
X133990420Y-54368790D01*
X131856774Y-56502437D01*
X131849160Y-56516381D01*
X129308499Y-56516381D01*
X129308499Y-54049366D01*
X129309999Y-54029981D01*
X129312309Y-54015148D01*
X129312309Y-54015144D01*
X129313690Y-54006275D01*
X129311802Y-53991832D01*
X130687333Y-53991832D01*
X130705117Y-54342893D01*
X130705827Y-54349649D01*
X130761420Y-54696723D01*
X130762859Y-54703378D01*
X130855608Y-55042410D01*
X130857757Y-55048871D01*
X130986581Y-55375912D01*
X130989412Y-55382095D01*
X131152803Y-55693310D01*
X131156286Y-55699152D01*
X131352330Y-55990896D01*
X131356433Y-55996340D01*
X131476425Y-56138836D01*
X131489164Y-56147279D01*
X131499608Y-56141181D01*
X133627980Y-54012810D01*
X133634357Y-54001131D01*
X134364408Y-54001131D01*
X134364539Y-54002966D01*
X134368790Y-54009580D01*
X136499009Y-56139798D01*
X136512605Y-56147223D01*
X136522218Y-56140522D01*
X136622518Y-56023912D01*
X136626676Y-56018514D01*
X136825762Y-55728840D01*
X136829310Y-55723029D01*
X136995942Y-55413559D01*
X136998849Y-55407381D01*
X137131090Y-55081713D01*
X137133304Y-55075283D01*
X137229598Y-54737237D01*
X137231105Y-54730607D01*
X137290332Y-54384118D01*
X137291112Y-54377378D01*
X137312668Y-54024925D01*
X137312784Y-54021323D01*
X137312853Y-54001819D01*
X137312761Y-53998194D01*
X137304432Y-53844400D01*
X165792096Y-53844400D01*
X165792786Y-53850965D01*
X165809110Y-54006275D01*
X165812058Y-54034328D01*
X165871073Y-54215956D01*
X165966560Y-54381344D01*
X166094347Y-54523266D01*
X166248848Y-54635518D01*
X166254876Y-54638202D01*
X166254878Y-54638203D01*
X166417281Y-54710509D01*
X166423312Y-54713194D01*
X166516712Y-54733047D01*
X166603656Y-54751528D01*
X166603661Y-54751528D01*
X166610113Y-54752900D01*
X166801087Y-54752900D01*
X166807539Y-54751528D01*
X166807544Y-54751528D01*
X166894488Y-54733047D01*
X166987888Y-54713194D01*
X166993919Y-54710509D01*
X167156322Y-54638203D01*
X167156324Y-54638202D01*
X167162352Y-54635518D01*
X167316853Y-54523266D01*
X167444640Y-54381344D01*
X167540127Y-54215956D01*
X167599142Y-54034328D01*
X167602091Y-54006275D01*
X167618414Y-53850965D01*
X167619104Y-53844400D01*
X167892096Y-53844400D01*
X167892786Y-53850965D01*
X167909110Y-54006275D01*
X167912058Y-54034328D01*
X167971073Y-54215956D01*
X168066560Y-54381344D01*
X168194347Y-54523266D01*
X168348848Y-54635518D01*
X168354876Y-54638202D01*
X168354878Y-54638203D01*
X168517281Y-54710509D01*
X168523312Y-54713194D01*
X168616712Y-54733047D01*
X168703656Y-54751528D01*
X168703661Y-54751528D01*
X168710113Y-54752900D01*
X168901087Y-54752900D01*
X168907539Y-54751528D01*
X168907544Y-54751528D01*
X168994488Y-54733047D01*
X169087888Y-54713194D01*
X169093919Y-54710509D01*
X169256322Y-54638203D01*
X169256324Y-54638202D01*
X169262352Y-54635518D01*
X169416853Y-54523266D01*
X169544640Y-54381344D01*
X169640127Y-54215956D01*
X169699142Y-54034328D01*
X169702091Y-54006275D01*
X169703609Y-53991832D01*
X170687333Y-53991832D01*
X170705117Y-54342893D01*
X170705827Y-54349649D01*
X170761420Y-54696723D01*
X170762859Y-54703378D01*
X170855608Y-55042410D01*
X170857757Y-55048871D01*
X170986581Y-55375912D01*
X170989412Y-55382095D01*
X171152803Y-55693310D01*
X171156286Y-55699152D01*
X171352330Y-55990896D01*
X171356433Y-55996340D01*
X171476425Y-56138836D01*
X171489164Y-56147279D01*
X171499608Y-56141181D01*
X173627980Y-54012810D01*
X173634357Y-54001131D01*
X174364408Y-54001131D01*
X174364539Y-54002966D01*
X174368790Y-54009580D01*
X176499009Y-56139798D01*
X176512605Y-56147223D01*
X176522218Y-56140522D01*
X176622518Y-56023912D01*
X176626676Y-56018514D01*
X176825762Y-55728840D01*
X176829310Y-55723029D01*
X176995942Y-55413559D01*
X176998849Y-55407381D01*
X177131090Y-55081713D01*
X177133304Y-55075283D01*
X177229598Y-54737237D01*
X177231105Y-54730607D01*
X177290332Y-54384118D01*
X177291112Y-54377378D01*
X177312668Y-54024925D01*
X177312784Y-54021323D01*
X177312853Y-54001819D01*
X177312761Y-53998194D01*
X177293666Y-53645615D01*
X177292931Y-53638849D01*
X177236130Y-53291985D01*
X177234663Y-53285313D01*
X177140736Y-52946627D01*
X177138562Y-52940163D01*
X177008598Y-52613578D01*
X177005742Y-52607398D01*
X176841269Y-52296763D01*
X176837769Y-52290937D01*
X176640697Y-51999862D01*
X176636590Y-51994453D01*
X176523565Y-51861179D01*
X176510740Y-51852743D01*
X176500416Y-51858795D01*
X174372020Y-53987190D01*
X174364408Y-54001131D01*
X173634357Y-54001131D01*
X173635592Y-53998869D01*
X173635461Y-53997034D01*
X173631210Y-53990420D01*
X171500992Y-51860203D01*
X171487455Y-51852811D01*
X171477753Y-51859599D01*
X171370430Y-51985257D01*
X171366296Y-51990664D01*
X171168215Y-52281041D01*
X171164697Y-52286851D01*
X170999134Y-52596922D01*
X170996259Y-52603087D01*
X170865155Y-52929218D01*
X170862962Y-52935658D01*
X170767846Y-53274044D01*
X170766363Y-53280679D01*
X170708350Y-53627354D01*
X170707591Y-53634126D01*
X170687357Y-53985037D01*
X170687333Y-53991832D01*
X169703609Y-53991832D01*
X169718414Y-53850965D01*
X169719104Y-53844400D01*
X169699142Y-53654472D01*
X169640127Y-53472844D01*
X169544640Y-53307456D01*
X169524703Y-53285313D01*
X169421275Y-53170445D01*
X169421274Y-53170444D01*
X169416853Y-53165534D01*
X169262352Y-53053282D01*
X169256324Y-53050598D01*
X169256322Y-53050597D01*
X169093919Y-52978291D01*
X169093918Y-52978291D01*
X169087888Y-52975606D01*
X168994487Y-52955753D01*
X168907544Y-52937272D01*
X168907539Y-52937272D01*
X168901087Y-52935900D01*
X168710113Y-52935900D01*
X168703661Y-52937272D01*
X168703656Y-52937272D01*
X168616713Y-52955753D01*
X168523312Y-52975606D01*
X168517282Y-52978291D01*
X168517281Y-52978291D01*
X168354878Y-53050597D01*
X168354876Y-53050598D01*
X168348848Y-53053282D01*
X168194347Y-53165534D01*
X168189926Y-53170444D01*
X168189925Y-53170445D01*
X168086498Y-53285313D01*
X168066560Y-53307456D01*
X167971073Y-53472844D01*
X167912058Y-53654472D01*
X167892096Y-53844400D01*
X167619104Y-53844400D01*
X167599142Y-53654472D01*
X167540127Y-53472844D01*
X167444640Y-53307456D01*
X167424703Y-53285313D01*
X167321275Y-53170445D01*
X167321274Y-53170444D01*
X167316853Y-53165534D01*
X167162352Y-53053282D01*
X167156324Y-53050598D01*
X167156322Y-53050597D01*
X166993919Y-52978291D01*
X166993918Y-52978291D01*
X166987888Y-52975606D01*
X166894487Y-52955753D01*
X166807544Y-52937272D01*
X166807539Y-52937272D01*
X166801087Y-52935900D01*
X166610113Y-52935900D01*
X166603661Y-52937272D01*
X166603656Y-52937272D01*
X166516713Y-52955753D01*
X166423312Y-52975606D01*
X166417282Y-52978291D01*
X166417281Y-52978291D01*
X166254878Y-53050597D01*
X166254876Y-53050598D01*
X166248848Y-53053282D01*
X166094347Y-53165534D01*
X166089926Y-53170444D01*
X166089925Y-53170445D01*
X165986498Y-53285313D01*
X165966560Y-53307456D01*
X165871073Y-53472844D01*
X165812058Y-53654472D01*
X165792096Y-53844400D01*
X137304432Y-53844400D01*
X137293666Y-53645615D01*
X137292931Y-53638849D01*
X137236130Y-53291985D01*
X137234663Y-53285313D01*
X137140736Y-52946627D01*
X137138562Y-52940163D01*
X137008598Y-52613578D01*
X137005742Y-52607398D01*
X136841269Y-52296763D01*
X136837769Y-52290937D01*
X136640697Y-51999862D01*
X136636590Y-51994453D01*
X136523565Y-51861179D01*
X136510740Y-51852743D01*
X136500416Y-51858795D01*
X134372020Y-53987190D01*
X134364408Y-54001131D01*
X133634357Y-54001131D01*
X133635592Y-53998869D01*
X133635461Y-53997034D01*
X133631210Y-53990420D01*
X131500992Y-51860203D01*
X131487455Y-51852811D01*
X131477753Y-51859599D01*
X131370430Y-51985257D01*
X131366296Y-51990664D01*
X131168215Y-52281041D01*
X131164697Y-52286851D01*
X130999134Y-52596922D01*
X130996259Y-52603087D01*
X130865155Y-52929218D01*
X130862962Y-52935658D01*
X130767846Y-53274044D01*
X130766363Y-53280679D01*
X130708350Y-53627354D01*
X130707591Y-53634126D01*
X130687357Y-53985037D01*
X130687333Y-53991832D01*
X129311802Y-53991832D01*
X129311015Y-53985816D01*
X129310071Y-53963988D01*
X129323860Y-53648194D01*
X129326112Y-53596603D01*
X129327070Y-53585654D01*
X129362943Y-53313174D01*
X129379057Y-53190772D01*
X129380965Y-53179955D01*
X129383074Y-53170445D01*
X129467167Y-52791121D01*
X129470012Y-52780504D01*
X129506005Y-52666348D01*
X129589778Y-52400655D01*
X129593534Y-52390334D01*
X129745957Y-52022353D01*
X129750599Y-52012400D01*
X129761915Y-51990664D01*
X129934500Y-51659131D01*
X129939995Y-51649612D01*
X130043678Y-51486862D01*
X131849950Y-51486862D01*
X131849986Y-51487704D01*
X131855037Y-51495826D01*
X133987190Y-53627980D01*
X134001131Y-53635592D01*
X134002966Y-53635461D01*
X134009580Y-53631210D01*
X136142798Y-51497991D01*
X136148875Y-51486862D01*
X171849950Y-51486862D01*
X171849986Y-51487704D01*
X171855037Y-51495826D01*
X173987190Y-53627980D01*
X174001131Y-53635592D01*
X174002966Y-53635461D01*
X174009580Y-53631210D01*
X176142798Y-51497991D01*
X176150412Y-51484047D01*
X176150344Y-51483089D01*
X176145836Y-51476272D01*
X176144418Y-51475065D01*
X175864813Y-51262064D01*
X175859187Y-51258240D01*
X175558214Y-51076681D01*
X175552202Y-51073484D01*
X175233370Y-50925487D01*
X175227070Y-50922967D01*
X174894129Y-50810273D01*
X174887551Y-50808437D01*
X174544417Y-50732367D01*
X174537678Y-50731251D01*
X174188310Y-50692680D01*
X174181529Y-50692301D01*
X173830015Y-50691687D01*
X173823242Y-50692042D01*
X173473720Y-50729395D01*
X173467010Y-50730482D01*
X173123586Y-50805361D01*
X173117011Y-50807172D01*
X172783683Y-50918702D01*
X172777361Y-50921205D01*
X172458034Y-51068079D01*
X172451991Y-51071265D01*
X172150401Y-51251763D01*
X172144755Y-51255571D01*
X171864408Y-51467596D01*
X171859211Y-51471987D01*
X171857972Y-51473155D01*
X171849950Y-51486862D01*
X136148875Y-51486862D01*
X136150412Y-51484047D01*
X136150344Y-51483089D01*
X136145836Y-51476272D01*
X136144418Y-51475065D01*
X135864813Y-51262064D01*
X135859187Y-51258240D01*
X135558214Y-51076681D01*
X135552202Y-51073484D01*
X135233370Y-50925487D01*
X135227070Y-50922967D01*
X134894129Y-50810273D01*
X134887551Y-50808437D01*
X134544417Y-50732367D01*
X134537678Y-50731251D01*
X134188310Y-50692680D01*
X134181529Y-50692301D01*
X133830015Y-50691687D01*
X133823242Y-50692042D01*
X133473720Y-50729395D01*
X133467010Y-50730482D01*
X133123586Y-50805361D01*
X133117011Y-50807172D01*
X132783683Y-50918702D01*
X132777361Y-50921205D01*
X132458034Y-51068079D01*
X132451991Y-51071265D01*
X132150401Y-51251763D01*
X132144755Y-51255571D01*
X131864408Y-51467596D01*
X131859211Y-51471987D01*
X131857972Y-51473155D01*
X131849950Y-51486862D01*
X130043678Y-51486862D01*
X130153993Y-51313702D01*
X130160298Y-51304698D01*
X130402752Y-50988727D01*
X130409817Y-50980307D01*
X130638035Y-50731251D01*
X130678895Y-50686660D01*
X130686664Y-50678891D01*
X130980307Y-50409817D01*
X130988727Y-50402752D01*
X131304698Y-50160298D01*
X131313702Y-50153993D01*
X131617636Y-49960366D01*
X131649613Y-49939994D01*
X131659132Y-49934499D01*
X132012409Y-49750595D01*
X132022353Y-49745957D01*
X132390342Y-49593531D01*
X132400655Y-49589778D01*
X132780505Y-49470012D01*
X132791122Y-49467167D01*
X133179963Y-49380964D01*
X133190772Y-49379057D01*
X133585655Y-49327070D01*
X133596603Y-49326112D01*
X133956553Y-49310396D01*
X133981428Y-49311776D01*
X133993723Y-49313690D01*
X134002625Y-49312526D01*
X134002627Y-49312526D01*
X134018913Y-49310396D01*
X134025285Y-49309563D01*
X134041620Y-49308499D01*
X152269989Y-49308499D01*
X173950633Y-49308500D01*
G37*
%TD.AperFunction*%
%TA.AperFunction,Conductor*%
G36*
X140410260Y-70717014D02*
G01*
X140421033Y-70731405D01*
X140441878Y-70763841D01*
X140441880Y-70763844D01*
X140446750Y-70771421D01*
X140453560Y-70777322D01*
X140550445Y-70861274D01*
X140550448Y-70861276D01*
X140557257Y-70867176D01*
X140690266Y-70927919D01*
X140812454Y-70945487D01*
X140877034Y-70974980D01*
X140910930Y-71021986D01*
X140930226Y-71068571D01*
X140977730Y-71183254D01*
X141094803Y-71374300D01*
X141184937Y-71479833D01*
X141209370Y-71508440D01*
X141238401Y-71573230D01*
X141227796Y-71643430D01*
X141180921Y-71696752D01*
X141113559Y-71716271D01*
X140780000Y-71716271D01*
X140778036Y-71716395D01*
X140778032Y-71716395D01*
X140721920Y-71719934D01*
X140721916Y-71719935D01*
X140715443Y-71720343D01*
X140669768Y-71732925D01*
X140618376Y-71736167D01*
X140480000Y-71716271D01*
X139706784Y-71716271D01*
X139638663Y-71696269D01*
X139592170Y-71642613D01*
X139582066Y-71572339D01*
X139599351Y-71524436D01*
X139664175Y-71418653D01*
X139746006Y-71221098D01*
X139783366Y-71065481D01*
X139793620Y-71022771D01*
X139828972Y-70961202D01*
X139880641Y-70931289D01*
X140004765Y-70894843D01*
X140004767Y-70894842D01*
X140013411Y-70892304D01*
X140058922Y-70863056D01*
X140128841Y-70818122D01*
X140128844Y-70818120D01*
X140136421Y-70813250D01*
X140219811Y-70717013D01*
X140279537Y-70678630D01*
X140350533Y-70678630D01*
X140410260Y-70717014D01*
G37*
%TD.AperFunction*%
%TD*%
M02*
