%TF.GenerationSoftware,KiCad,Pcbnew,(6.0.9)*%
%TF.CreationDate,2022-11-19T08:59:55-07:00*%
%TF.ProjectId,AQM,41514d2e-6b69-4636-9164-5f7063625858,rev?*%
%TF.SameCoordinates,Original*%
%TF.FileFunction,Copper,L2,Inr*%
%TF.FilePolarity,Positive*%
%FSLAX46Y46*%
G04 Gerber Fmt 4.6, Leading zero omitted, Abs format (unit mm)*
G04 Created by KiCad (PCBNEW (6.0.9)) date 2022-11-19 08:59:55*
%MOMM*%
%LPD*%
G01*
G04 APERTURE LIST*
%TA.AperFunction,ComponentPad*%
%ADD10R,1.700000X1.700000*%
%TD*%
%TA.AperFunction,ComponentPad*%
%ADD11O,1.700000X1.700000*%
%TD*%
%TA.AperFunction,ComponentPad*%
%ADD12C,5.600000*%
%TD*%
%TA.AperFunction,ComponentPad*%
%ADD13R,1.800000X1.800000*%
%TD*%
%TA.AperFunction,ComponentPad*%
%ADD14C,1.800000*%
%TD*%
%TA.AperFunction,ComponentPad*%
%ADD15O,1.850000X3.048000*%
%TD*%
%TA.AperFunction,ViaPad*%
%ADD16C,0.800000*%
%TD*%
G04 APERTURE END LIST*
D10*
%TO.N,Net-(J6-Pad1)*%
%TO.C,J6*%
X93210000Y-59950000D03*
D11*
%TO.N,VBUS*%
X93210000Y-57410000D03*
%TO.N,GND*%
X93210000Y-54870000D03*
%TD*%
D12*
%TO.N,GND*%
%TO.C,H3*%
X145000000Y-85000000D03*
%TD*%
%TO.N,GND*%
%TO.C,H4*%
X95000000Y-85000000D03*
%TD*%
D11*
%TO.N,unconnected-(U1-Pad1)*%
%TO.C,U1*%
X111110000Y-41854400D03*
%TO.N,unconnected-(U1-Pad2)*%
X111110000Y-44394400D03*
D10*
%TO.N,unconnected-(U1-Pad3)*%
X111110000Y-46934400D03*
D11*
%TO.N,GND*%
X111110000Y-49474400D03*
X111110000Y-52014400D03*
%TO.N,Net-(U1-Pad6)*%
X111110000Y-54554400D03*
%TO.N,unconnected-(U1-Pad7)*%
X111110000Y-57094400D03*
D10*
%TO.N,Net-(U1-Pad8)*%
X111110000Y-59634400D03*
D11*
%TO.N,unconnected-(U1-Pad9)*%
X111110000Y-62174400D03*
%TO.N,unconnected-(U1-Pad10)*%
X111110000Y-64714400D03*
%TO.N,unconnected-(U1-Pad11)*%
X111110000Y-67254400D03*
%TO.N,unconnected-(U1-Pad12)*%
X111110000Y-69794400D03*
D10*
%TO.N,unconnected-(U1-Pad13)*%
X111110000Y-72334400D03*
%TO.N,Net-(U1-Pad14)*%
X128890000Y-72334400D03*
D11*
%TO.N,unconnected-(U1-Pad15)*%
X128890000Y-69794400D03*
%TO.N,unconnected-(U1-Pad16)*%
X128890000Y-67254400D03*
%TO.N,unconnected-(U1-Pad17)*%
X128890000Y-64714400D03*
%TO.N,unconnected-(U1-Pad18)*%
X128890000Y-62174400D03*
D10*
%TO.N,unconnected-(U1-Pad19)*%
X128890000Y-59634400D03*
D11*
%TO.N,unconnected-(U1-Pad20)*%
X128890000Y-57094400D03*
%TO.N,unconnected-(U1-Pad21)*%
X128890000Y-54554400D03*
%TO.N,+3V3*%
X128890000Y-52014400D03*
%TO.N,unconnected-(U1-Pad23)*%
X128890000Y-49474400D03*
D10*
%TO.N,GND*%
X128890000Y-46934400D03*
D11*
%TO.N,VBUS*%
X128890000Y-44394400D03*
%TO.N,unconnected-(U1-Pad26)*%
X128890000Y-41854400D03*
%TD*%
D12*
%TO.N,GND*%
%TO.C,H1*%
X95000000Y-45000000D03*
%TD*%
D13*
%TO.N,GND*%
%TO.C,D1*%
X104825000Y-49000000D03*
D14*
%TO.N,Net-(D1-Pad2)*%
X104825000Y-51540000D03*
%TD*%
D12*
%TO.N,GND*%
%TO.C,H2*%
X145000000Y-45000000D03*
%TD*%
D15*
%TO.N,Net-(R3-Pad2)*%
%TO.C,SW1*%
X142825000Y-58035000D03*
X142825000Y-70535000D03*
%TO.N,+3V3*%
X137825000Y-70535000D03*
X137825000Y-58035000D03*
%TD*%
D16*
%TO.N,Net-(C7-Pad1)*%
X136296400Y-84277200D03*
%TO.N,Net-(C13-Pad1)*%
X127914400Y-84328000D03*
%TO.N,Net-(C10-Pad1)*%
X119380000Y-84429600D03*
%TO.N,Net-(C12-Pad1)*%
X111150400Y-84226400D03*
%TO.N,Net-(C11-Pad1)*%
X102768400Y-84226400D03*
%TO.N,/I2C/I2C.SCL*%
X104851200Y-84378800D03*
X113284000Y-84378800D03*
X138226800Y-84378800D03*
X121412000Y-84378800D03*
X129946400Y-84378800D03*
%TO.N,VBUS*%
X97450000Y-54570000D03*
%TO.N,+3V3*%
X125750000Y-82825000D03*
X134250000Y-82850000D03*
X108800000Y-82825000D03*
X106273600Y-74371200D03*
X100350000Y-82900000D03*
X117375000Y-82825000D03*
%TO.N,VBUS*%
X115900000Y-82775000D03*
X107625000Y-82850000D03*
X132725000Y-82850000D03*
X124450000Y-82825000D03*
X101650800Y-74422000D03*
X141250000Y-82850000D03*
%TD*%
%TA.AperFunction,Conductor*%
%TO.N,+3V3*%
G36*
X110450494Y-40453502D02*
G01*
X110496987Y-40507158D01*
X110507091Y-40577432D01*
X110477597Y-40642012D01*
X110440558Y-40671260D01*
X110383607Y-40700907D01*
X110379474Y-40704010D01*
X110379471Y-40704012D01*
X110355247Y-40722200D01*
X110204965Y-40835035D01*
X110050629Y-40996538D01*
X110047715Y-41000810D01*
X110047714Y-41000811D01*
X109962556Y-41125649D01*
X109924743Y-41181080D01*
X109830688Y-41383705D01*
X109770989Y-41598970D01*
X109747251Y-41821095D01*
X109747548Y-41826248D01*
X109747548Y-41826251D01*
X109752852Y-41918237D01*
X109760110Y-42044115D01*
X109761247Y-42049161D01*
X109761248Y-42049167D01*
X109768282Y-42080378D01*
X109809222Y-42262039D01*
X109859317Y-42385408D01*
X109890900Y-42463188D01*
X109893266Y-42469016D01*
X110009987Y-42659488D01*
X110156250Y-42828338D01*
X110328126Y-42971032D01*
X110376963Y-42999570D01*
X110401445Y-43013876D01*
X110450169Y-43065514D01*
X110463240Y-43135297D01*
X110436509Y-43201069D01*
X110396055Y-43234427D01*
X110383607Y-43240907D01*
X110379474Y-43244010D01*
X110379471Y-43244012D01*
X110209100Y-43371930D01*
X110204965Y-43375035D01*
X110050629Y-43536538D01*
X109924743Y-43721080D01*
X109830688Y-43923705D01*
X109770989Y-44138970D01*
X109747251Y-44361095D01*
X109747548Y-44366248D01*
X109747548Y-44366251D01*
X109753011Y-44460990D01*
X109760110Y-44584115D01*
X109761247Y-44589161D01*
X109761248Y-44589167D01*
X109781119Y-44677339D01*
X109809222Y-44802039D01*
X109847461Y-44896211D01*
X109890344Y-45001819D01*
X109893266Y-45009016D01*
X110009987Y-45199488D01*
X110156250Y-45368338D01*
X110160230Y-45371642D01*
X110164981Y-45375587D01*
X110204616Y-45434490D01*
X110206113Y-45505471D01*
X110168997Y-45565993D01*
X110128724Y-45590512D01*
X110013295Y-45633785D01*
X109896739Y-45721139D01*
X109809385Y-45837695D01*
X109758255Y-45974084D01*
X109751500Y-46036266D01*
X109751500Y-47832534D01*
X109758255Y-47894716D01*
X109809385Y-48031105D01*
X109896739Y-48147661D01*
X110013295Y-48235015D01*
X110021704Y-48238167D01*
X110021705Y-48238168D01*
X110130451Y-48278935D01*
X110187216Y-48321576D01*
X110211916Y-48388138D01*
X110196709Y-48457487D01*
X110177316Y-48483968D01*
X110050629Y-48616538D01*
X109924743Y-48801080D01*
X109830688Y-49003705D01*
X109770989Y-49218970D01*
X109747251Y-49441095D01*
X109747548Y-49446248D01*
X109747548Y-49446251D01*
X109753011Y-49540990D01*
X109760110Y-49664115D01*
X109761247Y-49669161D01*
X109761248Y-49669167D01*
X109781119Y-49757339D01*
X109809222Y-49882039D01*
X109893266Y-50089016D01*
X109895965Y-50093420D01*
X110003341Y-50268642D01*
X110009987Y-50279488D01*
X110156250Y-50448338D01*
X110328126Y-50591032D01*
X110398595Y-50632211D01*
X110401445Y-50633876D01*
X110450169Y-50685514D01*
X110463240Y-50755297D01*
X110436509Y-50821069D01*
X110396055Y-50854427D01*
X110383607Y-50860907D01*
X110379474Y-50864010D01*
X110379471Y-50864012D01*
X110355247Y-50882200D01*
X110204965Y-50995035D01*
X110050629Y-51156538D01*
X110047715Y-51160810D01*
X110047714Y-51160811D01*
X110035404Y-51178857D01*
X109924743Y-51341080D01*
X109909003Y-51374990D01*
X109833965Y-51536646D01*
X109830688Y-51543705D01*
X109770989Y-51758970D01*
X109747251Y-51981095D01*
X109747548Y-51986248D01*
X109747548Y-51986251D01*
X109753011Y-52080990D01*
X109760110Y-52204115D01*
X109761247Y-52209161D01*
X109761248Y-52209167D01*
X109774597Y-52268400D01*
X109809222Y-52422039D01*
X109862434Y-52553086D01*
X109889400Y-52619494D01*
X109893266Y-52629016D01*
X109895965Y-52633420D01*
X109969851Y-52753991D01*
X110009987Y-52819488D01*
X110156250Y-52988338D01*
X110328126Y-53131032D01*
X110398595Y-53172211D01*
X110401445Y-53173876D01*
X110450169Y-53225514D01*
X110463240Y-53295297D01*
X110436509Y-53361069D01*
X110396055Y-53394427D01*
X110383607Y-53400907D01*
X110379474Y-53404010D01*
X110379471Y-53404012D01*
X110234538Y-53512831D01*
X110204965Y-53535035D01*
X110050629Y-53696538D01*
X110047715Y-53700810D01*
X110047714Y-53700811D01*
X110024666Y-53734598D01*
X109924743Y-53881080D01*
X109909003Y-53914990D01*
X109856477Y-54028148D01*
X109830688Y-54083705D01*
X109770989Y-54298970D01*
X109747251Y-54521095D01*
X109747548Y-54526248D01*
X109747548Y-54526251D01*
X109752937Y-54619707D01*
X109760110Y-54744115D01*
X109761247Y-54749161D01*
X109761248Y-54749167D01*
X109765088Y-54766206D01*
X109809222Y-54962039D01*
X109847461Y-55056211D01*
X109890833Y-55163023D01*
X109893266Y-55169016D01*
X110009987Y-55359488D01*
X110156250Y-55528338D01*
X110328126Y-55671032D01*
X110341745Y-55678990D01*
X110401445Y-55713876D01*
X110450169Y-55765514D01*
X110463240Y-55835297D01*
X110436509Y-55901069D01*
X110396055Y-55934427D01*
X110383607Y-55940907D01*
X110379474Y-55944010D01*
X110379471Y-55944012D01*
X110217643Y-56065516D01*
X110204965Y-56075035D01*
X110172664Y-56108836D01*
X110064183Y-56222355D01*
X110050629Y-56236538D01*
X110047715Y-56240810D01*
X110047714Y-56240811D01*
X110024666Y-56274598D01*
X109924743Y-56421080D01*
X109909003Y-56454990D01*
X109858862Y-56563010D01*
X109830688Y-56623705D01*
X109770989Y-56838970D01*
X109747251Y-57061095D01*
X109747548Y-57066248D01*
X109747548Y-57066251D01*
X109753623Y-57171605D01*
X109760110Y-57284115D01*
X109761247Y-57289161D01*
X109761248Y-57289167D01*
X109776212Y-57355563D01*
X109809222Y-57502039D01*
X109847461Y-57596211D01*
X109890833Y-57703023D01*
X109893266Y-57709016D01*
X110009987Y-57899488D01*
X110156250Y-58068338D01*
X110160230Y-58071642D01*
X110164981Y-58075587D01*
X110204616Y-58134490D01*
X110206113Y-58205471D01*
X110168997Y-58265993D01*
X110128725Y-58290512D01*
X110084437Y-58307115D01*
X110013295Y-58333785D01*
X109896739Y-58421139D01*
X109809385Y-58537695D01*
X109758255Y-58674084D01*
X109751500Y-58736266D01*
X109751500Y-60532534D01*
X109758255Y-60594716D01*
X109809385Y-60731105D01*
X109896739Y-60847661D01*
X110013295Y-60935015D01*
X110021704Y-60938167D01*
X110021705Y-60938168D01*
X110130451Y-60978935D01*
X110187216Y-61021576D01*
X110211916Y-61088138D01*
X110196709Y-61157487D01*
X110177316Y-61183968D01*
X110064766Y-61301745D01*
X110050629Y-61316538D01*
X109924743Y-61501080D01*
X109830688Y-61703705D01*
X109770989Y-61918970D01*
X109747251Y-62141095D01*
X109747548Y-62146248D01*
X109747548Y-62146251D01*
X109753011Y-62240990D01*
X109760110Y-62364115D01*
X109761247Y-62369161D01*
X109761248Y-62369167D01*
X109781119Y-62457339D01*
X109809222Y-62582039D01*
X109893266Y-62789016D01*
X110009987Y-62979488D01*
X110156250Y-63148338D01*
X110328126Y-63291032D01*
X110398595Y-63332211D01*
X110401445Y-63333876D01*
X110450169Y-63385514D01*
X110463240Y-63455297D01*
X110436509Y-63521069D01*
X110396055Y-63554427D01*
X110383607Y-63560907D01*
X110379474Y-63564010D01*
X110379471Y-63564012D01*
X110355247Y-63582200D01*
X110204965Y-63695035D01*
X110050629Y-63856538D01*
X109924743Y-64041080D01*
X109830688Y-64243705D01*
X109770989Y-64458970D01*
X109747251Y-64681095D01*
X109747548Y-64686248D01*
X109747548Y-64686251D01*
X109753011Y-64780990D01*
X109760110Y-64904115D01*
X109761247Y-64909161D01*
X109761248Y-64909167D01*
X109781119Y-64997339D01*
X109809222Y-65122039D01*
X109893266Y-65329016D01*
X110009987Y-65519488D01*
X110156250Y-65688338D01*
X110328126Y-65831032D01*
X110398595Y-65872211D01*
X110401445Y-65873876D01*
X110450169Y-65925514D01*
X110463240Y-65995297D01*
X110436509Y-66061069D01*
X110396055Y-66094427D01*
X110383607Y-66100907D01*
X110379474Y-66104010D01*
X110379471Y-66104012D01*
X110355247Y-66122200D01*
X110204965Y-66235035D01*
X110050629Y-66396538D01*
X109924743Y-66581080D01*
X109830688Y-66783705D01*
X109770989Y-66998970D01*
X109747251Y-67221095D01*
X109747548Y-67226248D01*
X109747548Y-67226251D01*
X109753011Y-67320990D01*
X109760110Y-67444115D01*
X109761247Y-67449161D01*
X109761248Y-67449167D01*
X109781119Y-67537339D01*
X109809222Y-67662039D01*
X109893266Y-67869016D01*
X110009987Y-68059488D01*
X110156250Y-68228338D01*
X110328126Y-68371032D01*
X110398595Y-68412211D01*
X110401445Y-68413876D01*
X110450169Y-68465514D01*
X110463240Y-68535297D01*
X110436509Y-68601069D01*
X110396055Y-68634427D01*
X110383607Y-68640907D01*
X110379474Y-68644010D01*
X110379471Y-68644012D01*
X110249584Y-68741534D01*
X110204965Y-68775035D01*
X110050629Y-68936538D01*
X110047715Y-68940810D01*
X110047714Y-68940811D01*
X109983431Y-69035046D01*
X109924743Y-69121080D01*
X109909003Y-69154990D01*
X109863891Y-69252176D01*
X109830688Y-69323705D01*
X109770989Y-69538970D01*
X109747251Y-69761095D01*
X109747548Y-69766248D01*
X109747548Y-69766251D01*
X109754041Y-69878855D01*
X109760110Y-69984115D01*
X109761247Y-69989161D01*
X109761248Y-69989167D01*
X109781119Y-70077339D01*
X109809222Y-70202039D01*
X109893266Y-70409016D01*
X110009987Y-70599488D01*
X110156250Y-70768338D01*
X110160230Y-70771642D01*
X110164981Y-70775587D01*
X110204616Y-70834490D01*
X110206113Y-70905471D01*
X110168997Y-70965993D01*
X110128724Y-70990512D01*
X110013295Y-71033785D01*
X109896739Y-71121139D01*
X109809385Y-71237695D01*
X109758255Y-71374084D01*
X109751500Y-71436266D01*
X109751500Y-73232534D01*
X109758255Y-73294716D01*
X109809385Y-73431105D01*
X109896739Y-73547661D01*
X110013295Y-73635015D01*
X110149684Y-73686145D01*
X110211866Y-73692900D01*
X112008134Y-73692900D01*
X112070316Y-73686145D01*
X112206705Y-73635015D01*
X112323261Y-73547661D01*
X112410615Y-73431105D01*
X112461745Y-73294716D01*
X112468500Y-73232534D01*
X112468500Y-71436266D01*
X112461745Y-71374084D01*
X112410615Y-71237695D01*
X112323261Y-71121139D01*
X112206705Y-71033785D01*
X112194132Y-71029072D01*
X112088203Y-70989360D01*
X112031439Y-70946718D01*
X112006739Y-70880156D01*
X112021947Y-70810808D01*
X112043493Y-70782127D01*
X112144435Y-70681537D01*
X112148096Y-70677889D01*
X112207594Y-70595089D01*
X112275435Y-70500677D01*
X112278453Y-70496477D01*
X112377430Y-70296211D01*
X112442370Y-70082469D01*
X112471529Y-69860990D01*
X112473156Y-69794400D01*
X112470418Y-69761095D01*
X127527251Y-69761095D01*
X127527548Y-69766248D01*
X127527548Y-69766251D01*
X127534041Y-69878855D01*
X127540110Y-69984115D01*
X127541247Y-69989161D01*
X127541248Y-69989167D01*
X127561119Y-70077339D01*
X127589222Y-70202039D01*
X127673266Y-70409016D01*
X127789987Y-70599488D01*
X127936250Y-70768338D01*
X127940230Y-70771642D01*
X127944981Y-70775587D01*
X127984616Y-70834490D01*
X127986113Y-70905471D01*
X127948997Y-70965993D01*
X127908724Y-70990512D01*
X127793295Y-71033785D01*
X127676739Y-71121139D01*
X127589385Y-71237695D01*
X127538255Y-71374084D01*
X127531500Y-71436266D01*
X127531500Y-73232534D01*
X127538255Y-73294716D01*
X127589385Y-73431105D01*
X127676739Y-73547661D01*
X127793295Y-73635015D01*
X127929684Y-73686145D01*
X127991866Y-73692900D01*
X129788134Y-73692900D01*
X129850316Y-73686145D01*
X129986705Y-73635015D01*
X130103261Y-73547661D01*
X130190615Y-73431105D01*
X130241745Y-73294716D01*
X130248500Y-73232534D01*
X130248500Y-71436266D01*
X130241745Y-71374084D01*
X130190615Y-71237695D01*
X130155728Y-71191145D01*
X136392000Y-71191145D01*
X136392212Y-71196318D01*
X136405973Y-71363687D01*
X136407658Y-71373867D01*
X136462544Y-71592377D01*
X136465864Y-71602128D01*
X136555704Y-71808749D01*
X136560570Y-71817824D01*
X136682948Y-72006990D01*
X136689240Y-72015161D01*
X136840869Y-72181800D01*
X136848402Y-72188825D01*
X137025218Y-72328466D01*
X137033791Y-72334162D01*
X137231045Y-72443052D01*
X137240440Y-72447273D01*
X137452820Y-72522481D01*
X137462783Y-72525113D01*
X137553163Y-72541212D01*
X137566460Y-72539752D01*
X137570508Y-72526774D01*
X138079000Y-72526774D01*
X138082918Y-72540118D01*
X138097194Y-72542105D01*
X138153121Y-72533547D01*
X138163146Y-72531159D01*
X138377295Y-72461164D01*
X138386804Y-72457167D01*
X138586640Y-72353139D01*
X138595365Y-72347645D01*
X138775532Y-72212372D01*
X138783239Y-72205529D01*
X138938896Y-72042644D01*
X138945379Y-72034638D01*
X139072343Y-71848515D01*
X139077432Y-71839556D01*
X139172294Y-71635193D01*
X139175851Y-71625525D01*
X139236060Y-71408420D01*
X139237991Y-71398301D01*
X139257644Y-71214405D01*
X139258000Y-71207713D01*
X139258000Y-71193757D01*
X141391500Y-71193757D01*
X141391711Y-71196318D01*
X141391712Y-71196341D01*
X141405478Y-71363779D01*
X141405479Y-71363785D01*
X141405902Y-71368930D01*
X141463327Y-71597551D01*
X141557322Y-71813723D01*
X141685360Y-72011641D01*
X141688839Y-72015464D01*
X141688841Y-72015467D01*
X141713858Y-72042960D01*
X141844005Y-72185989D01*
X141848056Y-72189188D01*
X141848060Y-72189192D01*
X142024939Y-72328883D01*
X142024943Y-72328885D01*
X142028994Y-72332085D01*
X142235361Y-72446005D01*
X142240230Y-72447729D01*
X142240234Y-72447731D01*
X142452689Y-72522965D01*
X142452693Y-72522966D01*
X142457564Y-72524691D01*
X142462657Y-72525598D01*
X142462660Y-72525599D01*
X142684544Y-72565123D01*
X142684550Y-72565124D01*
X142689633Y-72566029D01*
X142780477Y-72567139D01*
X142920170Y-72568846D01*
X142920172Y-72568846D01*
X142925339Y-72568909D01*
X143158349Y-72533253D01*
X143382407Y-72460020D01*
X143591496Y-72351175D01*
X143595629Y-72348072D01*
X143595632Y-72348070D01*
X143775865Y-72212747D01*
X143775868Y-72212745D01*
X143780000Y-72209642D01*
X143942857Y-72039223D01*
X144075693Y-71844492D01*
X144077869Y-71839805D01*
X144172764Y-71635372D01*
X144172766Y-71635367D01*
X144174941Y-71630681D01*
X144237935Y-71403532D01*
X144242193Y-71363687D01*
X144258144Y-71214437D01*
X144258144Y-71214429D01*
X144258500Y-71211102D01*
X144258500Y-69876243D01*
X144256971Y-69857640D01*
X144244522Y-69706221D01*
X144244521Y-69706215D01*
X144244098Y-69701070D01*
X144186673Y-69472449D01*
X144092678Y-69256277D01*
X143964640Y-69058359D01*
X143943715Y-69035362D01*
X143809473Y-68887833D01*
X143809471Y-68887832D01*
X143805995Y-68884011D01*
X143801944Y-68880812D01*
X143801940Y-68880808D01*
X143625061Y-68741117D01*
X143625057Y-68741115D01*
X143621006Y-68737915D01*
X143414639Y-68623995D01*
X143409770Y-68622271D01*
X143409766Y-68622269D01*
X143197311Y-68547035D01*
X143197307Y-68547034D01*
X143192436Y-68545309D01*
X143187343Y-68544402D01*
X143187340Y-68544401D01*
X142965456Y-68504877D01*
X142965450Y-68504876D01*
X142960367Y-68503971D01*
X142869523Y-68502861D01*
X142729830Y-68501154D01*
X142729828Y-68501154D01*
X142724661Y-68501091D01*
X142491651Y-68536747D01*
X142267593Y-68609980D01*
X142058504Y-68718825D01*
X142054371Y-68721928D01*
X142054368Y-68721930D01*
X141874135Y-68857253D01*
X141870000Y-68860358D01*
X141707143Y-69030777D01*
X141574307Y-69225508D01*
X141572133Y-69230192D01*
X141572131Y-69230195D01*
X141530905Y-69319010D01*
X141475059Y-69439319D01*
X141412065Y-69666468D01*
X141391500Y-69858898D01*
X141391500Y-71193757D01*
X139258000Y-71193757D01*
X139258000Y-70807115D01*
X139253525Y-70791876D01*
X139252135Y-70790671D01*
X139244452Y-70789000D01*
X138097115Y-70789000D01*
X138081876Y-70793475D01*
X138080671Y-70794865D01*
X138079000Y-70802548D01*
X138079000Y-72526774D01*
X137570508Y-72526774D01*
X137571000Y-72525197D01*
X137571000Y-70807115D01*
X137566525Y-70791876D01*
X137565135Y-70790671D01*
X137557452Y-70789000D01*
X136410115Y-70789000D01*
X136394876Y-70793475D01*
X136393671Y-70794865D01*
X136392000Y-70802548D01*
X136392000Y-71191145D01*
X130155728Y-71191145D01*
X130103261Y-71121139D01*
X129986705Y-71033785D01*
X129974132Y-71029072D01*
X129868203Y-70989360D01*
X129811439Y-70946718D01*
X129786739Y-70880156D01*
X129801947Y-70810808D01*
X129823493Y-70782127D01*
X129924435Y-70681537D01*
X129928096Y-70677889D01*
X129987594Y-70595089D01*
X130055435Y-70500677D01*
X130058453Y-70496477D01*
X130157430Y-70296211D01*
X130167555Y-70262885D01*
X136392000Y-70262885D01*
X136396475Y-70278124D01*
X136397865Y-70279329D01*
X136405548Y-70281000D01*
X137552885Y-70281000D01*
X137568124Y-70276525D01*
X137569329Y-70275135D01*
X137571000Y-70267452D01*
X137571000Y-70262885D01*
X138079000Y-70262885D01*
X138083475Y-70278124D01*
X138084865Y-70279329D01*
X138092548Y-70281000D01*
X139239885Y-70281000D01*
X139255124Y-70276525D01*
X139256329Y-70275135D01*
X139258000Y-70267452D01*
X139258000Y-69878855D01*
X139257788Y-69873682D01*
X139244027Y-69706313D01*
X139242342Y-69696133D01*
X139187456Y-69477623D01*
X139184136Y-69467872D01*
X139094296Y-69261251D01*
X139089430Y-69252176D01*
X138967052Y-69063010D01*
X138960760Y-69054839D01*
X138809131Y-68888200D01*
X138801598Y-68881175D01*
X138624782Y-68741534D01*
X138616209Y-68735838D01*
X138418955Y-68626948D01*
X138409560Y-68622727D01*
X138197180Y-68547519D01*
X138187217Y-68544887D01*
X138096837Y-68528788D01*
X138083540Y-68530248D01*
X138079000Y-68544803D01*
X138079000Y-70262885D01*
X137571000Y-70262885D01*
X137571000Y-68543226D01*
X137567082Y-68529882D01*
X137552806Y-68527895D01*
X137496879Y-68536453D01*
X137486854Y-68538841D01*
X137272705Y-68608836D01*
X137263196Y-68612833D01*
X137063360Y-68716861D01*
X137054635Y-68722355D01*
X136874468Y-68857628D01*
X136866761Y-68864471D01*
X136711104Y-69027356D01*
X136704621Y-69035362D01*
X136577657Y-69221485D01*
X136572568Y-69230444D01*
X136477706Y-69434807D01*
X136474149Y-69444475D01*
X136413940Y-69661580D01*
X136412009Y-69671699D01*
X136392356Y-69855595D01*
X136392000Y-69862287D01*
X136392000Y-70262885D01*
X130167555Y-70262885D01*
X130222370Y-70082469D01*
X130251529Y-69860990D01*
X130253156Y-69794400D01*
X130234852Y-69571761D01*
X130180431Y-69355102D01*
X130091354Y-69150240D01*
X130034723Y-69062702D01*
X129972822Y-68967017D01*
X129972820Y-68967014D01*
X129970014Y-68962677D01*
X129819670Y-68797451D01*
X129815619Y-68794252D01*
X129815615Y-68794248D01*
X129648414Y-68662200D01*
X129648410Y-68662198D01*
X129644359Y-68658998D01*
X129603053Y-68636196D01*
X129553084Y-68585764D01*
X129538312Y-68516321D01*
X129563428Y-68449916D01*
X129590780Y-68423309D01*
X129634603Y-68392050D01*
X129769860Y-68295573D01*
X129928096Y-68137889D01*
X129987594Y-68055089D01*
X130055435Y-67960677D01*
X130058453Y-67956477D01*
X130157430Y-67756211D01*
X130222370Y-67542469D01*
X130251529Y-67320990D01*
X130253156Y-67254400D01*
X130234852Y-67031761D01*
X130180431Y-66815102D01*
X130091354Y-66610240D01*
X129970014Y-66422677D01*
X129819670Y-66257451D01*
X129815619Y-66254252D01*
X129815615Y-66254248D01*
X129648414Y-66122200D01*
X129648410Y-66122198D01*
X129644359Y-66118998D01*
X129603053Y-66096196D01*
X129553084Y-66045764D01*
X129538312Y-65976321D01*
X129563428Y-65909916D01*
X129590780Y-65883309D01*
X129634603Y-65852050D01*
X129769860Y-65755573D01*
X129928096Y-65597889D01*
X129987594Y-65515089D01*
X130055435Y-65420677D01*
X130058453Y-65416477D01*
X130157430Y-65216211D01*
X130222370Y-65002469D01*
X130251529Y-64780990D01*
X130253156Y-64714400D01*
X130234852Y-64491761D01*
X130180431Y-64275102D01*
X130091354Y-64070240D01*
X129970014Y-63882677D01*
X129819670Y-63717451D01*
X129815619Y-63714252D01*
X129815615Y-63714248D01*
X129648414Y-63582200D01*
X129648410Y-63582198D01*
X129644359Y-63578998D01*
X129603053Y-63556196D01*
X129553084Y-63505764D01*
X129538312Y-63436321D01*
X129563428Y-63369916D01*
X129590780Y-63343309D01*
X129634603Y-63312050D01*
X129769860Y-63215573D01*
X129928096Y-63057889D01*
X129987594Y-62975089D01*
X130055435Y-62880677D01*
X130058453Y-62876477D01*
X130157430Y-62676211D01*
X130222370Y-62462469D01*
X130251529Y-62240990D01*
X130253156Y-62174400D01*
X130234852Y-61951761D01*
X130180431Y-61735102D01*
X130091354Y-61530240D01*
X129970014Y-61342677D01*
X129966532Y-61338850D01*
X129822798Y-61180888D01*
X129791746Y-61117042D01*
X129800141Y-61046543D01*
X129845317Y-60991775D01*
X129871761Y-60978106D01*
X129978297Y-60938167D01*
X129986705Y-60935015D01*
X130103261Y-60847661D01*
X130190615Y-60731105D01*
X130241745Y-60594716D01*
X130248500Y-60532534D01*
X130248500Y-58736266D01*
X130243598Y-58691145D01*
X136392000Y-58691145D01*
X136392212Y-58696318D01*
X136405973Y-58863687D01*
X136407658Y-58873867D01*
X136462544Y-59092377D01*
X136465864Y-59102128D01*
X136555704Y-59308749D01*
X136560570Y-59317824D01*
X136682948Y-59506990D01*
X136689240Y-59515161D01*
X136840869Y-59681800D01*
X136848402Y-59688825D01*
X137025218Y-59828466D01*
X137033791Y-59834162D01*
X137231045Y-59943052D01*
X137240440Y-59947273D01*
X137452820Y-60022481D01*
X137462783Y-60025113D01*
X137553163Y-60041212D01*
X137566460Y-60039752D01*
X137570508Y-60026774D01*
X138079000Y-60026774D01*
X138082918Y-60040118D01*
X138097194Y-60042105D01*
X138153121Y-60033547D01*
X138163146Y-60031159D01*
X138377295Y-59961164D01*
X138386804Y-59957167D01*
X138586640Y-59853139D01*
X138595365Y-59847645D01*
X138775532Y-59712372D01*
X138783239Y-59705529D01*
X138938896Y-59542644D01*
X138945379Y-59534638D01*
X139072343Y-59348515D01*
X139077432Y-59339556D01*
X139172294Y-59135193D01*
X139175851Y-59125525D01*
X139236060Y-58908420D01*
X139237991Y-58898301D01*
X139257644Y-58714405D01*
X139258000Y-58707713D01*
X139258000Y-58693757D01*
X141391500Y-58693757D01*
X141391711Y-58696318D01*
X141391712Y-58696341D01*
X141405478Y-58863779D01*
X141405479Y-58863785D01*
X141405902Y-58868930D01*
X141463327Y-59097551D01*
X141557322Y-59313723D01*
X141685360Y-59511641D01*
X141688839Y-59515464D01*
X141688841Y-59515467D01*
X141713858Y-59542960D01*
X141844005Y-59685989D01*
X141848056Y-59689188D01*
X141848060Y-59689192D01*
X142024939Y-59828883D01*
X142024943Y-59828885D01*
X142028994Y-59832085D01*
X142235361Y-59946005D01*
X142240230Y-59947729D01*
X142240234Y-59947731D01*
X142452689Y-60022965D01*
X142452693Y-60022966D01*
X142457564Y-60024691D01*
X142462657Y-60025598D01*
X142462660Y-60025599D01*
X142684544Y-60065123D01*
X142684550Y-60065124D01*
X142689633Y-60066029D01*
X142780477Y-60067139D01*
X142920170Y-60068846D01*
X142920172Y-60068846D01*
X142925339Y-60068909D01*
X143158349Y-60033253D01*
X143382407Y-59960020D01*
X143591496Y-59851175D01*
X143595629Y-59848072D01*
X143595632Y-59848070D01*
X143775865Y-59712747D01*
X143775868Y-59712745D01*
X143780000Y-59709642D01*
X143942857Y-59539223D01*
X144075693Y-59344492D01*
X144077869Y-59339805D01*
X144172764Y-59135372D01*
X144172766Y-59135367D01*
X144174941Y-59130681D01*
X144237935Y-58903532D01*
X144255446Y-58739683D01*
X144258144Y-58714437D01*
X144258144Y-58714429D01*
X144258500Y-58711102D01*
X144258500Y-57376243D01*
X144258288Y-57373659D01*
X144244522Y-57206221D01*
X144244521Y-57206215D01*
X144244098Y-57201070D01*
X144186673Y-56972449D01*
X144092678Y-56756277D01*
X143964640Y-56558359D01*
X143958980Y-56552138D01*
X143809473Y-56387833D01*
X143809471Y-56387832D01*
X143805995Y-56384011D01*
X143801944Y-56380812D01*
X143801940Y-56380808D01*
X143625061Y-56241117D01*
X143625057Y-56241115D01*
X143621006Y-56237915D01*
X143414639Y-56123995D01*
X143409770Y-56122271D01*
X143409766Y-56122269D01*
X143197311Y-56047035D01*
X143197307Y-56047034D01*
X143192436Y-56045309D01*
X143187343Y-56044402D01*
X143187340Y-56044401D01*
X142965456Y-56004877D01*
X142965450Y-56004876D01*
X142960367Y-56003971D01*
X142869523Y-56002861D01*
X142729830Y-56001154D01*
X142729828Y-56001154D01*
X142724661Y-56001091D01*
X142491651Y-56036747D01*
X142267593Y-56109980D01*
X142058504Y-56218825D01*
X142054371Y-56221928D01*
X142054368Y-56221930D01*
X141874135Y-56357253D01*
X141870000Y-56360358D01*
X141707143Y-56530777D01*
X141574307Y-56725508D01*
X141572133Y-56730192D01*
X141572131Y-56730195D01*
X141477245Y-56934610D01*
X141475059Y-56939319D01*
X141412065Y-57166468D01*
X141391500Y-57358898D01*
X141391500Y-58693757D01*
X139258000Y-58693757D01*
X139258000Y-58307115D01*
X139253525Y-58291876D01*
X139252135Y-58290671D01*
X139244452Y-58289000D01*
X138097115Y-58289000D01*
X138081876Y-58293475D01*
X138080671Y-58294865D01*
X138079000Y-58302548D01*
X138079000Y-60026774D01*
X137570508Y-60026774D01*
X137571000Y-60025197D01*
X137571000Y-58307115D01*
X137566525Y-58291876D01*
X137565135Y-58290671D01*
X137557452Y-58289000D01*
X136410115Y-58289000D01*
X136394876Y-58293475D01*
X136393671Y-58294865D01*
X136392000Y-58302548D01*
X136392000Y-58691145D01*
X130243598Y-58691145D01*
X130241745Y-58674084D01*
X130190615Y-58537695D01*
X130103261Y-58421139D01*
X129986705Y-58333785D01*
X129974132Y-58329072D01*
X129868203Y-58289360D01*
X129811439Y-58246718D01*
X129786739Y-58180156D01*
X129801947Y-58110808D01*
X129823493Y-58082127D01*
X129924435Y-57981537D01*
X129928096Y-57977889D01*
X129987594Y-57895089D01*
X130055435Y-57800677D01*
X130058453Y-57796477D01*
X130075055Y-57762885D01*
X136392000Y-57762885D01*
X136396475Y-57778124D01*
X136397865Y-57779329D01*
X136405548Y-57781000D01*
X137552885Y-57781000D01*
X137568124Y-57776525D01*
X137569329Y-57775135D01*
X137571000Y-57767452D01*
X137571000Y-57762885D01*
X138079000Y-57762885D01*
X138083475Y-57778124D01*
X138084865Y-57779329D01*
X138092548Y-57781000D01*
X139239885Y-57781000D01*
X139255124Y-57776525D01*
X139256329Y-57775135D01*
X139258000Y-57767452D01*
X139258000Y-57378855D01*
X139257788Y-57373682D01*
X139244027Y-57206313D01*
X139242342Y-57196133D01*
X139187456Y-56977623D01*
X139184136Y-56967872D01*
X139094296Y-56761251D01*
X139089430Y-56752176D01*
X138967052Y-56563010D01*
X138960760Y-56554839D01*
X138809131Y-56388200D01*
X138801598Y-56381175D01*
X138624782Y-56241534D01*
X138616209Y-56235838D01*
X138418955Y-56126948D01*
X138409560Y-56122727D01*
X138197180Y-56047519D01*
X138187217Y-56044887D01*
X138096837Y-56028788D01*
X138083540Y-56030248D01*
X138079000Y-56044803D01*
X138079000Y-57762885D01*
X137571000Y-57762885D01*
X137571000Y-56043226D01*
X137567082Y-56029882D01*
X137552806Y-56027895D01*
X137496879Y-56036453D01*
X137486854Y-56038841D01*
X137272705Y-56108836D01*
X137263196Y-56112833D01*
X137063360Y-56216861D01*
X137054635Y-56222355D01*
X136874468Y-56357628D01*
X136866761Y-56364471D01*
X136711104Y-56527356D01*
X136704621Y-56535362D01*
X136577657Y-56721485D01*
X136572568Y-56730444D01*
X136477706Y-56934807D01*
X136474149Y-56944475D01*
X136413940Y-57161580D01*
X136412009Y-57171699D01*
X136392356Y-57355595D01*
X136392000Y-57362287D01*
X136392000Y-57762885D01*
X130075055Y-57762885D01*
X130109625Y-57692939D01*
X130155136Y-57600853D01*
X130155137Y-57600851D01*
X130157430Y-57596211D01*
X130212983Y-57413365D01*
X130220865Y-57387423D01*
X130220865Y-57387421D01*
X130222370Y-57382469D01*
X130251529Y-57160990D01*
X130253156Y-57094400D01*
X130234852Y-56871761D01*
X130180431Y-56655102D01*
X130091354Y-56450240D01*
X129970014Y-56262677D01*
X129819670Y-56097451D01*
X129815619Y-56094252D01*
X129815615Y-56094248D01*
X129648414Y-55962200D01*
X129648410Y-55962198D01*
X129644359Y-55958998D01*
X129603053Y-55936196D01*
X129553084Y-55885764D01*
X129538312Y-55816321D01*
X129563428Y-55749916D01*
X129590780Y-55723309D01*
X129658383Y-55675088D01*
X129769860Y-55595573D01*
X129798094Y-55567438D01*
X129924435Y-55441537D01*
X129928096Y-55437889D01*
X129987594Y-55355089D01*
X130055435Y-55260677D01*
X130058453Y-55256477D01*
X130109625Y-55152939D01*
X130155136Y-55060853D01*
X130155137Y-55060851D01*
X130157430Y-55056211D01*
X130212983Y-54873365D01*
X130220865Y-54847423D01*
X130220865Y-54847421D01*
X130222370Y-54842469D01*
X130251529Y-54620990D01*
X130251808Y-54609588D01*
X130253074Y-54557765D01*
X130253074Y-54557761D01*
X130253156Y-54554400D01*
X130234852Y-54331761D01*
X130180431Y-54115102D01*
X130091354Y-53910240D01*
X130050785Y-53847530D01*
X129972822Y-53727017D01*
X129972820Y-53727014D01*
X129970014Y-53722677D01*
X129819670Y-53557451D01*
X129815619Y-53554252D01*
X129815615Y-53554248D01*
X129648414Y-53422200D01*
X129648410Y-53422198D01*
X129644359Y-53418998D01*
X129602569Y-53395929D01*
X129552598Y-53345497D01*
X129537826Y-53276054D01*
X129562942Y-53209648D01*
X129590294Y-53183041D01*
X129765328Y-53058192D01*
X129773200Y-53051539D01*
X129924052Y-52901212D01*
X129930730Y-52893365D01*
X130055003Y-52720420D01*
X130060313Y-52711583D01*
X130154670Y-52520667D01*
X130158469Y-52511072D01*
X130220377Y-52307310D01*
X130222555Y-52297237D01*
X130223986Y-52286362D01*
X130221775Y-52272178D01*
X130208617Y-52268400D01*
X127573225Y-52268400D01*
X127559694Y-52272373D01*
X127558257Y-52282366D01*
X127588565Y-52416846D01*
X127591645Y-52426675D01*
X127671770Y-52624003D01*
X127676413Y-52633194D01*
X127787694Y-52814788D01*
X127793777Y-52823099D01*
X127933213Y-52984067D01*
X127940580Y-52991283D01*
X128104434Y-53127316D01*
X128112881Y-53133231D01*
X128181969Y-53173603D01*
X128230693Y-53225242D01*
X128243764Y-53295025D01*
X128217033Y-53360796D01*
X128176584Y-53394152D01*
X128163607Y-53400907D01*
X128159474Y-53404010D01*
X128159471Y-53404012D01*
X128014538Y-53512831D01*
X127984965Y-53535035D01*
X127830629Y-53696538D01*
X127827715Y-53700810D01*
X127827714Y-53700811D01*
X127804666Y-53734598D01*
X127704743Y-53881080D01*
X127689003Y-53914990D01*
X127636477Y-54028148D01*
X127610688Y-54083705D01*
X127550989Y-54298970D01*
X127527251Y-54521095D01*
X127527548Y-54526248D01*
X127527548Y-54526251D01*
X127532937Y-54619707D01*
X127540110Y-54744115D01*
X127541247Y-54749161D01*
X127541248Y-54749167D01*
X127545088Y-54766206D01*
X127589222Y-54962039D01*
X127627461Y-55056211D01*
X127670833Y-55163023D01*
X127673266Y-55169016D01*
X127789987Y-55359488D01*
X127936250Y-55528338D01*
X128108126Y-55671032D01*
X128121745Y-55678990D01*
X128181445Y-55713876D01*
X128230169Y-55765514D01*
X128243240Y-55835297D01*
X128216509Y-55901069D01*
X128176055Y-55934427D01*
X128163607Y-55940907D01*
X128159474Y-55944010D01*
X128159471Y-55944012D01*
X127997643Y-56065516D01*
X127984965Y-56075035D01*
X127952664Y-56108836D01*
X127844183Y-56222355D01*
X127830629Y-56236538D01*
X127827715Y-56240810D01*
X127827714Y-56240811D01*
X127804666Y-56274598D01*
X127704743Y-56421080D01*
X127689003Y-56454990D01*
X127638862Y-56563010D01*
X127610688Y-56623705D01*
X127550989Y-56838970D01*
X127527251Y-57061095D01*
X127527548Y-57066248D01*
X127527548Y-57066251D01*
X127533623Y-57171605D01*
X127540110Y-57284115D01*
X127541247Y-57289161D01*
X127541248Y-57289167D01*
X127556212Y-57355563D01*
X127589222Y-57502039D01*
X127627461Y-57596211D01*
X127670833Y-57703023D01*
X127673266Y-57709016D01*
X127789987Y-57899488D01*
X127936250Y-58068338D01*
X127940230Y-58071642D01*
X127944981Y-58075587D01*
X127984616Y-58134490D01*
X127986113Y-58205471D01*
X127948997Y-58265993D01*
X127908725Y-58290512D01*
X127864437Y-58307115D01*
X127793295Y-58333785D01*
X127676739Y-58421139D01*
X127589385Y-58537695D01*
X127538255Y-58674084D01*
X127531500Y-58736266D01*
X127531500Y-60532534D01*
X127538255Y-60594716D01*
X127589385Y-60731105D01*
X127676739Y-60847661D01*
X127793295Y-60935015D01*
X127801704Y-60938167D01*
X127801705Y-60938168D01*
X127910451Y-60978935D01*
X127967216Y-61021576D01*
X127991916Y-61088138D01*
X127976709Y-61157487D01*
X127957316Y-61183968D01*
X127844766Y-61301745D01*
X127830629Y-61316538D01*
X127704743Y-61501080D01*
X127610688Y-61703705D01*
X127550989Y-61918970D01*
X127527251Y-62141095D01*
X127527548Y-62146248D01*
X127527548Y-62146251D01*
X127533011Y-62240990D01*
X127540110Y-62364115D01*
X127541247Y-62369161D01*
X127541248Y-62369167D01*
X127561119Y-62457339D01*
X127589222Y-62582039D01*
X127673266Y-62789016D01*
X127789987Y-62979488D01*
X127936250Y-63148338D01*
X128108126Y-63291032D01*
X128178595Y-63332211D01*
X128181445Y-63333876D01*
X128230169Y-63385514D01*
X128243240Y-63455297D01*
X128216509Y-63521069D01*
X128176055Y-63554427D01*
X128163607Y-63560907D01*
X128159474Y-63564010D01*
X128159471Y-63564012D01*
X128135247Y-63582200D01*
X127984965Y-63695035D01*
X127830629Y-63856538D01*
X127704743Y-64041080D01*
X127610688Y-64243705D01*
X127550989Y-64458970D01*
X127527251Y-64681095D01*
X127527548Y-64686248D01*
X127527548Y-64686251D01*
X127533011Y-64780990D01*
X127540110Y-64904115D01*
X127541247Y-64909161D01*
X127541248Y-64909167D01*
X127561119Y-64997339D01*
X127589222Y-65122039D01*
X127673266Y-65329016D01*
X127789987Y-65519488D01*
X127936250Y-65688338D01*
X128108126Y-65831032D01*
X128178595Y-65872211D01*
X128181445Y-65873876D01*
X128230169Y-65925514D01*
X128243240Y-65995297D01*
X128216509Y-66061069D01*
X128176055Y-66094427D01*
X128163607Y-66100907D01*
X128159474Y-66104010D01*
X128159471Y-66104012D01*
X128135247Y-66122200D01*
X127984965Y-66235035D01*
X127830629Y-66396538D01*
X127704743Y-66581080D01*
X127610688Y-66783705D01*
X127550989Y-66998970D01*
X127527251Y-67221095D01*
X127527548Y-67226248D01*
X127527548Y-67226251D01*
X127533011Y-67320990D01*
X127540110Y-67444115D01*
X127541247Y-67449161D01*
X127541248Y-67449167D01*
X127561119Y-67537339D01*
X127589222Y-67662039D01*
X127673266Y-67869016D01*
X127789987Y-68059488D01*
X127936250Y-68228338D01*
X128108126Y-68371032D01*
X128178595Y-68412211D01*
X128181445Y-68413876D01*
X128230169Y-68465514D01*
X128243240Y-68535297D01*
X128216509Y-68601069D01*
X128176055Y-68634427D01*
X128163607Y-68640907D01*
X128159474Y-68644010D01*
X128159471Y-68644012D01*
X128029584Y-68741534D01*
X127984965Y-68775035D01*
X127830629Y-68936538D01*
X127827715Y-68940810D01*
X127827714Y-68940811D01*
X127763431Y-69035046D01*
X127704743Y-69121080D01*
X127689003Y-69154990D01*
X127643891Y-69252176D01*
X127610688Y-69323705D01*
X127550989Y-69538970D01*
X127527251Y-69761095D01*
X112470418Y-69761095D01*
X112454852Y-69571761D01*
X112400431Y-69355102D01*
X112311354Y-69150240D01*
X112254723Y-69062702D01*
X112192822Y-68967017D01*
X112192820Y-68967014D01*
X112190014Y-68962677D01*
X112039670Y-68797451D01*
X112035619Y-68794252D01*
X112035615Y-68794248D01*
X111868414Y-68662200D01*
X111868410Y-68662198D01*
X111864359Y-68658998D01*
X111823053Y-68636196D01*
X111773084Y-68585764D01*
X111758312Y-68516321D01*
X111783428Y-68449916D01*
X111810780Y-68423309D01*
X111854603Y-68392050D01*
X111989860Y-68295573D01*
X112148096Y-68137889D01*
X112207594Y-68055089D01*
X112275435Y-67960677D01*
X112278453Y-67956477D01*
X112377430Y-67756211D01*
X112442370Y-67542469D01*
X112471529Y-67320990D01*
X112473156Y-67254400D01*
X112454852Y-67031761D01*
X112400431Y-66815102D01*
X112311354Y-66610240D01*
X112190014Y-66422677D01*
X112039670Y-66257451D01*
X112035619Y-66254252D01*
X112035615Y-66254248D01*
X111868414Y-66122200D01*
X111868410Y-66122198D01*
X111864359Y-66118998D01*
X111823053Y-66096196D01*
X111773084Y-66045764D01*
X111758312Y-65976321D01*
X111783428Y-65909916D01*
X111810780Y-65883309D01*
X111854603Y-65852050D01*
X111989860Y-65755573D01*
X112148096Y-65597889D01*
X112207594Y-65515089D01*
X112275435Y-65420677D01*
X112278453Y-65416477D01*
X112377430Y-65216211D01*
X112442370Y-65002469D01*
X112471529Y-64780990D01*
X112473156Y-64714400D01*
X112454852Y-64491761D01*
X112400431Y-64275102D01*
X112311354Y-64070240D01*
X112190014Y-63882677D01*
X112039670Y-63717451D01*
X112035619Y-63714252D01*
X112035615Y-63714248D01*
X111868414Y-63582200D01*
X111868410Y-63582198D01*
X111864359Y-63578998D01*
X111823053Y-63556196D01*
X111773084Y-63505764D01*
X111758312Y-63436321D01*
X111783428Y-63369916D01*
X111810780Y-63343309D01*
X111854603Y-63312050D01*
X111989860Y-63215573D01*
X112148096Y-63057889D01*
X112207594Y-62975089D01*
X112275435Y-62880677D01*
X112278453Y-62876477D01*
X112377430Y-62676211D01*
X112442370Y-62462469D01*
X112471529Y-62240990D01*
X112473156Y-62174400D01*
X112454852Y-61951761D01*
X112400431Y-61735102D01*
X112311354Y-61530240D01*
X112190014Y-61342677D01*
X112186532Y-61338850D01*
X112042798Y-61180888D01*
X112011746Y-61117042D01*
X112020141Y-61046543D01*
X112065317Y-60991775D01*
X112091761Y-60978106D01*
X112198297Y-60938167D01*
X112206705Y-60935015D01*
X112323261Y-60847661D01*
X112410615Y-60731105D01*
X112461745Y-60594716D01*
X112468500Y-60532534D01*
X112468500Y-58736266D01*
X112461745Y-58674084D01*
X112410615Y-58537695D01*
X112323261Y-58421139D01*
X112206705Y-58333785D01*
X112194132Y-58329072D01*
X112088203Y-58289360D01*
X112031439Y-58246718D01*
X112006739Y-58180156D01*
X112021947Y-58110808D01*
X112043493Y-58082127D01*
X112144435Y-57981537D01*
X112148096Y-57977889D01*
X112207594Y-57895089D01*
X112275435Y-57800677D01*
X112278453Y-57796477D01*
X112329625Y-57692939D01*
X112375136Y-57600853D01*
X112375137Y-57600851D01*
X112377430Y-57596211D01*
X112432983Y-57413365D01*
X112440865Y-57387423D01*
X112440865Y-57387421D01*
X112442370Y-57382469D01*
X112471529Y-57160990D01*
X112473156Y-57094400D01*
X112454852Y-56871761D01*
X112400431Y-56655102D01*
X112311354Y-56450240D01*
X112190014Y-56262677D01*
X112039670Y-56097451D01*
X112035619Y-56094252D01*
X112035615Y-56094248D01*
X111868414Y-55962200D01*
X111868410Y-55962198D01*
X111864359Y-55958998D01*
X111823053Y-55936196D01*
X111773084Y-55885764D01*
X111758312Y-55816321D01*
X111783428Y-55749916D01*
X111810780Y-55723309D01*
X111878383Y-55675088D01*
X111989860Y-55595573D01*
X112018094Y-55567438D01*
X112144435Y-55441537D01*
X112148096Y-55437889D01*
X112207594Y-55355089D01*
X112275435Y-55260677D01*
X112278453Y-55256477D01*
X112329625Y-55152939D01*
X112375136Y-55060853D01*
X112375137Y-55060851D01*
X112377430Y-55056211D01*
X112432983Y-54873365D01*
X112440865Y-54847423D01*
X112440865Y-54847421D01*
X112442370Y-54842469D01*
X112471529Y-54620990D01*
X112471808Y-54609588D01*
X112473074Y-54557765D01*
X112473074Y-54557761D01*
X112473156Y-54554400D01*
X112454852Y-54331761D01*
X112400431Y-54115102D01*
X112311354Y-53910240D01*
X112270785Y-53847530D01*
X112192822Y-53727017D01*
X112192820Y-53727014D01*
X112190014Y-53722677D01*
X112039670Y-53557451D01*
X112035619Y-53554252D01*
X112035615Y-53554248D01*
X111868414Y-53422200D01*
X111868410Y-53422198D01*
X111864359Y-53418998D01*
X111823053Y-53396196D01*
X111773084Y-53345764D01*
X111758312Y-53276321D01*
X111783428Y-53209916D01*
X111810780Y-53183309D01*
X111854603Y-53152050D01*
X111989860Y-53055573D01*
X112148096Y-52897889D01*
X112177213Y-52857369D01*
X112275435Y-52720677D01*
X112278453Y-52716477D01*
X112286429Y-52700340D01*
X112375136Y-52520853D01*
X112375137Y-52520851D01*
X112377430Y-52516211D01*
X112442370Y-52302469D01*
X112471529Y-52080990D01*
X112473156Y-52014400D01*
X112454852Y-51791761D01*
X112400431Y-51575102D01*
X112311354Y-51370240D01*
X112190014Y-51182677D01*
X112039670Y-51017451D01*
X112035619Y-51014252D01*
X112035615Y-51014248D01*
X111868414Y-50882200D01*
X111868410Y-50882198D01*
X111864359Y-50878998D01*
X111823053Y-50856196D01*
X111773084Y-50805764D01*
X111758312Y-50736321D01*
X111783428Y-50669916D01*
X111810780Y-50643309D01*
X111854603Y-50612050D01*
X111989860Y-50515573D01*
X112148096Y-50357889D01*
X112207594Y-50275089D01*
X112275435Y-50180677D01*
X112278453Y-50176477D01*
X112360575Y-50010316D01*
X112375136Y-49980853D01*
X112375137Y-49980851D01*
X112377430Y-49976211D01*
X112442370Y-49762469D01*
X112471529Y-49540990D01*
X112473156Y-49474400D01*
X112454852Y-49251761D01*
X112400431Y-49035102D01*
X112311354Y-48830240D01*
X112190014Y-48642677D01*
X112186532Y-48638850D01*
X112042798Y-48480888D01*
X112011746Y-48417042D01*
X112020141Y-48346543D01*
X112065317Y-48291775D01*
X112091761Y-48278106D01*
X112198297Y-48238167D01*
X112206705Y-48235015D01*
X112323261Y-48147661D01*
X112410615Y-48031105D01*
X112461745Y-47894716D01*
X112468500Y-47832534D01*
X112468500Y-46036266D01*
X112461745Y-45974084D01*
X112410615Y-45837695D01*
X112323261Y-45721139D01*
X112206705Y-45633785D01*
X112194132Y-45629072D01*
X112088203Y-45589360D01*
X112031439Y-45546718D01*
X112006739Y-45480156D01*
X112021947Y-45410808D01*
X112043493Y-45382127D01*
X112044797Y-45380828D01*
X112148096Y-45277889D01*
X112207594Y-45195089D01*
X112275435Y-45100677D01*
X112278453Y-45096477D01*
X112305565Y-45041621D01*
X112375136Y-44900853D01*
X112375137Y-44900851D01*
X112377430Y-44896211D01*
X112442370Y-44682469D01*
X112471529Y-44460990D01*
X112473156Y-44394400D01*
X112454852Y-44171761D01*
X112400431Y-43955102D01*
X112311354Y-43750240D01*
X112216020Y-43602876D01*
X112192822Y-43567017D01*
X112192820Y-43567014D01*
X112190014Y-43562677D01*
X112039670Y-43397451D01*
X112035619Y-43394252D01*
X112035615Y-43394248D01*
X111868414Y-43262200D01*
X111868410Y-43262198D01*
X111864359Y-43258998D01*
X111823053Y-43236196D01*
X111773084Y-43185764D01*
X111758312Y-43116321D01*
X111783428Y-43049916D01*
X111810780Y-43023309D01*
X111864546Y-42984958D01*
X111989860Y-42895573D01*
X112148096Y-42737889D01*
X112158485Y-42723432D01*
X112275435Y-42560677D01*
X112278453Y-42556477D01*
X112316700Y-42479091D01*
X112375136Y-42360853D01*
X112375137Y-42360851D01*
X112377430Y-42356211D01*
X112442370Y-42142469D01*
X112471529Y-41920990D01*
X112473156Y-41854400D01*
X112454852Y-41631761D01*
X112400431Y-41415102D01*
X112311354Y-41210240D01*
X112206929Y-41048823D01*
X112192822Y-41027017D01*
X112192820Y-41027014D01*
X112190014Y-41022677D01*
X112039670Y-40857451D01*
X112035619Y-40854252D01*
X112035615Y-40854248D01*
X111868414Y-40722200D01*
X111868410Y-40722198D01*
X111864359Y-40718998D01*
X111775253Y-40669809D01*
X111725282Y-40619376D01*
X111710510Y-40549933D01*
X111735626Y-40483528D01*
X111792657Y-40441243D01*
X111836146Y-40433500D01*
X128162373Y-40433500D01*
X128230494Y-40453502D01*
X128276987Y-40507158D01*
X128287091Y-40577432D01*
X128257597Y-40642012D01*
X128220558Y-40671260D01*
X128163607Y-40700907D01*
X128159474Y-40704010D01*
X128159471Y-40704012D01*
X128135247Y-40722200D01*
X127984965Y-40835035D01*
X127830629Y-40996538D01*
X127827715Y-41000810D01*
X127827714Y-41000811D01*
X127742556Y-41125649D01*
X127704743Y-41181080D01*
X127610688Y-41383705D01*
X127550989Y-41598970D01*
X127527251Y-41821095D01*
X127527548Y-41826248D01*
X127527548Y-41826251D01*
X127532852Y-41918237D01*
X127540110Y-42044115D01*
X127541247Y-42049161D01*
X127541248Y-42049167D01*
X127548282Y-42080378D01*
X127589222Y-42262039D01*
X127639317Y-42385408D01*
X127670900Y-42463188D01*
X127673266Y-42469016D01*
X127789987Y-42659488D01*
X127936250Y-42828338D01*
X128108126Y-42971032D01*
X128156963Y-42999570D01*
X128181445Y-43013876D01*
X128230169Y-43065514D01*
X128243240Y-43135297D01*
X128216509Y-43201069D01*
X128176055Y-43234427D01*
X128163607Y-43240907D01*
X128159474Y-43244010D01*
X128159471Y-43244012D01*
X127989100Y-43371930D01*
X127984965Y-43375035D01*
X127830629Y-43536538D01*
X127704743Y-43721080D01*
X127610688Y-43923705D01*
X127550989Y-44138970D01*
X127527251Y-44361095D01*
X127527548Y-44366248D01*
X127527548Y-44366251D01*
X127533011Y-44460990D01*
X127540110Y-44584115D01*
X127541247Y-44589161D01*
X127541248Y-44589167D01*
X127561119Y-44677339D01*
X127589222Y-44802039D01*
X127627461Y-44896211D01*
X127670344Y-45001819D01*
X127673266Y-45009016D01*
X127789987Y-45199488D01*
X127936250Y-45368338D01*
X127940230Y-45371642D01*
X127944981Y-45375587D01*
X127984616Y-45434490D01*
X127986113Y-45505471D01*
X127948997Y-45565993D01*
X127908724Y-45590512D01*
X127793295Y-45633785D01*
X127676739Y-45721139D01*
X127589385Y-45837695D01*
X127538255Y-45974084D01*
X127531500Y-46036266D01*
X127531500Y-47832534D01*
X127538255Y-47894716D01*
X127589385Y-48031105D01*
X127676739Y-48147661D01*
X127793295Y-48235015D01*
X127801704Y-48238167D01*
X127801705Y-48238168D01*
X127910451Y-48278935D01*
X127967216Y-48321576D01*
X127991916Y-48388138D01*
X127976709Y-48457487D01*
X127957316Y-48483968D01*
X127830629Y-48616538D01*
X127704743Y-48801080D01*
X127610688Y-49003705D01*
X127550989Y-49218970D01*
X127527251Y-49441095D01*
X127527548Y-49446248D01*
X127527548Y-49446251D01*
X127533011Y-49540990D01*
X127540110Y-49664115D01*
X127541247Y-49669161D01*
X127541248Y-49669167D01*
X127561119Y-49757339D01*
X127589222Y-49882039D01*
X127673266Y-50089016D01*
X127675965Y-50093420D01*
X127783341Y-50268642D01*
X127789987Y-50279488D01*
X127936250Y-50448338D01*
X128108126Y-50591032D01*
X128181445Y-50633876D01*
X128181955Y-50634174D01*
X128230679Y-50685812D01*
X128243750Y-50755595D01*
X128217019Y-50821367D01*
X128176562Y-50854727D01*
X128168457Y-50858946D01*
X128159738Y-50864436D01*
X127989433Y-50992305D01*
X127981726Y-50999148D01*
X127834590Y-51153117D01*
X127828104Y-51161127D01*
X127708098Y-51337049D01*
X127703000Y-51346023D01*
X127613338Y-51539183D01*
X127609775Y-51548870D01*
X127554389Y-51748583D01*
X127555912Y-51757007D01*
X127568292Y-51760400D01*
X130208344Y-51760400D01*
X130221875Y-51756427D01*
X130223180Y-51747347D01*
X130181214Y-51580275D01*
X130177894Y-51570524D01*
X130092972Y-51375214D01*
X130088105Y-51366139D01*
X129972426Y-51187326D01*
X129966136Y-51179157D01*
X129822806Y-51021640D01*
X129815273Y-51014615D01*
X129648139Y-50882622D01*
X129639556Y-50876920D01*
X129602602Y-50856520D01*
X129552631Y-50806087D01*
X129537859Y-50736645D01*
X129562975Y-50670239D01*
X129590327Y-50643632D01*
X129613797Y-50626891D01*
X129769860Y-50515573D01*
X129928096Y-50357889D01*
X129987594Y-50275089D01*
X130055435Y-50180677D01*
X130058453Y-50176477D01*
X130140575Y-50010316D01*
X130155136Y-49980853D01*
X130155137Y-49980851D01*
X130157430Y-49976211D01*
X130222370Y-49762469D01*
X130251529Y-49540990D01*
X130253156Y-49474400D01*
X130234852Y-49251761D01*
X130180431Y-49035102D01*
X130091354Y-48830240D01*
X129970014Y-48642677D01*
X129966532Y-48638850D01*
X129822798Y-48480888D01*
X129791746Y-48417042D01*
X129800141Y-48346543D01*
X129845317Y-48291775D01*
X129871761Y-48278106D01*
X129978297Y-48238167D01*
X129986705Y-48235015D01*
X130103261Y-48147661D01*
X130190615Y-48031105D01*
X130241745Y-47894716D01*
X130248500Y-47832534D01*
X130248500Y-46036266D01*
X130241745Y-45974084D01*
X130190615Y-45837695D01*
X130103261Y-45721139D01*
X129986705Y-45633785D01*
X129974132Y-45629072D01*
X129868203Y-45589360D01*
X129811439Y-45546718D01*
X129786739Y-45480156D01*
X129801947Y-45410808D01*
X129823493Y-45382127D01*
X129824797Y-45380828D01*
X129928096Y-45277889D01*
X129987594Y-45195089D01*
X130055435Y-45100677D01*
X130058453Y-45096477D01*
X130085565Y-45041621D01*
X130111851Y-44988434D01*
X141686661Y-44988434D01*
X141704792Y-45346340D01*
X141705329Y-45349695D01*
X141705330Y-45349701D01*
X141726226Y-45480156D01*
X141761470Y-45700195D01*
X141856033Y-46045859D01*
X141987374Y-46379288D01*
X142153957Y-46696582D01*
X142155858Y-46699411D01*
X142155864Y-46699421D01*
X142339569Y-46972800D01*
X142353834Y-46994029D01*
X142584665Y-47268150D01*
X142843751Y-47515738D01*
X143128061Y-47733897D01*
X143160056Y-47753350D01*
X143431355Y-47918303D01*
X143431360Y-47918306D01*
X143434270Y-47920075D01*
X143437358Y-47921521D01*
X143437357Y-47921521D01*
X143755710Y-48070649D01*
X143755720Y-48070653D01*
X143758794Y-48072093D01*
X143762012Y-48073195D01*
X143762015Y-48073196D01*
X144094615Y-48187071D01*
X144094623Y-48187073D01*
X144097838Y-48188174D01*
X144447435Y-48266959D01*
X144499728Y-48272917D01*
X144800114Y-48307142D01*
X144800122Y-48307142D01*
X144803497Y-48307527D01*
X144806901Y-48307545D01*
X144806904Y-48307545D01*
X145001227Y-48308562D01*
X145161857Y-48309403D01*
X145165243Y-48309053D01*
X145165245Y-48309053D01*
X145514932Y-48272917D01*
X145514941Y-48272916D01*
X145518324Y-48272566D01*
X145521657Y-48271852D01*
X145521660Y-48271851D01*
X145718607Y-48229629D01*
X145868727Y-48197446D01*
X146208968Y-48084922D01*
X146535066Y-47936311D01*
X146715601Y-47829117D01*
X146840262Y-47755099D01*
X146840267Y-47755096D01*
X146843207Y-47753350D01*
X147129786Y-47538180D01*
X147391451Y-47293319D01*
X147625140Y-47021630D01*
X147731750Y-46866512D01*
X147826190Y-46729101D01*
X147826195Y-46729094D01*
X147828120Y-46726292D01*
X147829732Y-46723298D01*
X147829737Y-46723290D01*
X147996395Y-46413772D01*
X147998017Y-46410760D01*
X148132842Y-46078724D01*
X148143142Y-46042568D01*
X148203548Y-45830509D01*
X148231020Y-45734070D01*
X148270095Y-45505471D01*
X148290829Y-45384175D01*
X148290829Y-45384173D01*
X148291401Y-45380828D01*
X148293511Y-45346340D01*
X148313168Y-45024928D01*
X148313278Y-45023131D01*
X148313316Y-45012265D01*
X148313353Y-45001819D01*
X148313353Y-45001806D01*
X148313359Y-45000000D01*
X148293979Y-44642159D01*
X148236066Y-44288505D01*
X148140297Y-43943173D01*
X148137243Y-43935497D01*
X148009052Y-43613369D01*
X148007793Y-43610205D01*
X147919483Y-43443416D01*
X147841702Y-43296513D01*
X147841698Y-43296506D01*
X147840103Y-43293494D01*
X147639190Y-42996746D01*
X147619597Y-42973642D01*
X147416104Y-42733692D01*
X147407403Y-42723432D01*
X147147454Y-42476750D01*
X146871888Y-42266825D01*
X146865091Y-42261647D01*
X146865089Y-42261646D01*
X146862384Y-42259585D01*
X146859472Y-42257828D01*
X146859467Y-42257825D01*
X146558443Y-42076236D01*
X146558437Y-42076233D01*
X146555528Y-42074478D01*
X146230475Y-41923593D01*
X146016143Y-41851046D01*
X145894255Y-41809789D01*
X145894250Y-41809788D01*
X145891028Y-41808697D01*
X145692681Y-41764724D01*
X145544493Y-41731871D01*
X145544487Y-41731870D01*
X145541158Y-41731132D01*
X145537769Y-41730758D01*
X145537764Y-41730757D01*
X145188338Y-41692180D01*
X145188333Y-41692180D01*
X145184957Y-41691807D01*
X145181558Y-41691801D01*
X145181557Y-41691801D01*
X145012080Y-41691505D01*
X144826592Y-41691182D01*
X144713413Y-41703277D01*
X144473639Y-41728901D01*
X144473631Y-41728902D01*
X144470256Y-41729263D01*
X144120117Y-41805606D01*
X143780271Y-41919317D01*
X143777178Y-41920739D01*
X143777177Y-41920740D01*
X143770974Y-41923593D01*
X143454694Y-42069066D01*
X143451760Y-42070822D01*
X143451758Y-42070823D01*
X143323769Y-42147423D01*
X143147193Y-42253101D01*
X143144467Y-42255163D01*
X143144465Y-42255164D01*
X142869409Y-42463188D01*
X142861367Y-42469270D01*
X142600559Y-42715043D01*
X142598347Y-42717633D01*
X142598345Y-42717635D01*
X142577931Y-42741537D01*
X142367819Y-42987546D01*
X142365900Y-42990358D01*
X142365897Y-42990363D01*
X142314633Y-43065514D01*
X142165871Y-43283591D01*
X141997077Y-43599714D01*
X141863411Y-43932218D01*
X141862491Y-43935492D01*
X141862489Y-43935497D01*
X141784630Y-44212490D01*
X141766437Y-44277213D01*
X141707290Y-44630663D01*
X141686661Y-44988434D01*
X130111851Y-44988434D01*
X130155136Y-44900853D01*
X130155137Y-44900851D01*
X130157430Y-44896211D01*
X130222370Y-44682469D01*
X130251529Y-44460990D01*
X130253156Y-44394400D01*
X130234852Y-44171761D01*
X130180431Y-43955102D01*
X130091354Y-43750240D01*
X129996020Y-43602876D01*
X129972822Y-43567017D01*
X129972820Y-43567014D01*
X129970014Y-43562677D01*
X129819670Y-43397451D01*
X129815619Y-43394252D01*
X129815615Y-43394248D01*
X129648414Y-43262200D01*
X129648410Y-43262198D01*
X129644359Y-43258998D01*
X129603053Y-43236196D01*
X129553084Y-43185764D01*
X129538312Y-43116321D01*
X129563428Y-43049916D01*
X129590780Y-43023309D01*
X129644546Y-42984958D01*
X129769860Y-42895573D01*
X129928096Y-42737889D01*
X129938485Y-42723432D01*
X130055435Y-42560677D01*
X130058453Y-42556477D01*
X130096700Y-42479091D01*
X130155136Y-42360853D01*
X130155137Y-42360851D01*
X130157430Y-42356211D01*
X130222370Y-42142469D01*
X130251529Y-41920990D01*
X130253156Y-41854400D01*
X130234852Y-41631761D01*
X130180431Y-41415102D01*
X130091354Y-41210240D01*
X129986929Y-41048823D01*
X129972822Y-41027017D01*
X129972820Y-41027014D01*
X129970014Y-41022677D01*
X129819670Y-40857451D01*
X129815619Y-40854252D01*
X129815615Y-40854248D01*
X129648414Y-40722200D01*
X129648410Y-40722198D01*
X129644359Y-40718998D01*
X129555253Y-40669809D01*
X129505282Y-40619376D01*
X129490510Y-40549933D01*
X129515626Y-40483528D01*
X129572657Y-40441243D01*
X129616146Y-40433500D01*
X144950633Y-40433500D01*
X144970018Y-40435000D01*
X144984851Y-40437310D01*
X144984855Y-40437310D01*
X144993724Y-40438691D01*
X145014183Y-40436016D01*
X145036008Y-40435072D01*
X145392502Y-40450637D01*
X145403451Y-40451595D01*
X145787510Y-40502157D01*
X145798336Y-40504066D01*
X146176528Y-40587910D01*
X146187145Y-40590755D01*
X146209353Y-40597757D01*
X146556592Y-40707241D01*
X146566906Y-40710994D01*
X146924819Y-40859246D01*
X146934754Y-40863879D01*
X147278378Y-41042759D01*
X147287887Y-41048249D01*
X147614592Y-41256383D01*
X147623596Y-41262687D01*
X147930931Y-41498513D01*
X147939348Y-41505577D01*
X148183459Y-41729263D01*
X148224947Y-41767280D01*
X148232716Y-41775049D01*
X148494421Y-42060649D01*
X148501484Y-42069066D01*
X148553872Y-42137339D01*
X148737313Y-42376404D01*
X148743617Y-42385408D01*
X148951751Y-42712113D01*
X148957241Y-42721622D01*
X149136121Y-43065246D01*
X149140754Y-43075181D01*
X149272915Y-43394248D01*
X149289003Y-43433087D01*
X149292759Y-43443408D01*
X149331733Y-43567017D01*
X149409245Y-43812855D01*
X149412090Y-43823472D01*
X149495934Y-44201664D01*
X149497843Y-44212490D01*
X149548405Y-44596549D01*
X149549363Y-44607498D01*
X149552853Y-44687423D01*
X149564603Y-44956552D01*
X149563223Y-44981429D01*
X149561309Y-44993724D01*
X149562473Y-45002626D01*
X149562473Y-45002628D01*
X149564398Y-45017344D01*
X149565390Y-45024928D01*
X149565436Y-45025283D01*
X149566500Y-45041621D01*
X149566500Y-84950633D01*
X149565000Y-84970018D01*
X149562690Y-84984851D01*
X149562690Y-84984855D01*
X149561309Y-84993724D01*
X149563984Y-85014183D01*
X149564928Y-85036008D01*
X149549363Y-85392501D01*
X149548405Y-85403451D01*
X149497843Y-85787510D01*
X149495934Y-85798336D01*
X149412090Y-86176528D01*
X149409245Y-86187145D01*
X149292762Y-86556584D01*
X149289006Y-86566906D01*
X149221823Y-86729101D01*
X149140758Y-86924810D01*
X149136121Y-86934754D01*
X148957241Y-87278378D01*
X148951752Y-87287885D01*
X148883938Y-87394333D01*
X148743617Y-87614592D01*
X148737313Y-87623596D01*
X148508708Y-87921521D01*
X148501487Y-87930931D01*
X148494423Y-87939348D01*
X148257268Y-88198158D01*
X148232720Y-88224947D01*
X148224951Y-88232716D01*
X148143290Y-88307545D01*
X147939351Y-88494421D01*
X147930931Y-88501487D01*
X147623596Y-88737313D01*
X147614592Y-88743617D01*
X147287887Y-88951751D01*
X147278378Y-88957241D01*
X146934754Y-89136121D01*
X146924819Y-89140754D01*
X146566906Y-89289006D01*
X146556592Y-89292759D01*
X146357119Y-89355653D01*
X146187145Y-89409245D01*
X146176528Y-89412090D01*
X145798336Y-89495934D01*
X145787510Y-89497843D01*
X145403451Y-89548405D01*
X145392502Y-89549363D01*
X145043446Y-89564603D01*
X145018571Y-89563223D01*
X145006276Y-89561309D01*
X144997374Y-89562473D01*
X144997372Y-89562473D01*
X144982323Y-89564441D01*
X144974714Y-89565436D01*
X144958379Y-89566500D01*
X95049367Y-89566500D01*
X95029982Y-89565000D01*
X95015149Y-89562690D01*
X95015145Y-89562690D01*
X95006276Y-89561309D01*
X94985817Y-89563984D01*
X94963992Y-89564928D01*
X94607498Y-89549363D01*
X94596549Y-89548405D01*
X94212490Y-89497843D01*
X94201664Y-89495934D01*
X93823472Y-89412090D01*
X93812855Y-89409245D01*
X93642881Y-89355653D01*
X93443408Y-89292759D01*
X93433094Y-89289006D01*
X93075181Y-89140754D01*
X93065246Y-89136121D01*
X92721622Y-88957241D01*
X92712113Y-88951751D01*
X92385408Y-88743617D01*
X92376404Y-88737313D01*
X92069069Y-88501487D01*
X92060649Y-88494421D01*
X91856710Y-88307545D01*
X91775049Y-88232716D01*
X91767280Y-88224947D01*
X91742733Y-88198158D01*
X91505577Y-87939348D01*
X91498513Y-87930931D01*
X91491293Y-87921521D01*
X91262687Y-87623596D01*
X91256383Y-87614592D01*
X91116062Y-87394333D01*
X91048248Y-87287885D01*
X91042759Y-87278378D01*
X90863879Y-86934754D01*
X90859242Y-86924810D01*
X90778178Y-86729101D01*
X90710994Y-86566906D01*
X90707238Y-86556584D01*
X90590755Y-86187145D01*
X90587910Y-86176528D01*
X90504066Y-85798336D01*
X90502157Y-85787510D01*
X90451595Y-85403451D01*
X90450637Y-85392501D01*
X90435561Y-85047206D01*
X90437188Y-85020805D01*
X90437769Y-85017352D01*
X90437770Y-85017345D01*
X90438576Y-85012552D01*
X90438729Y-85000000D01*
X90437073Y-84988434D01*
X91686661Y-84988434D01*
X91704792Y-85346340D01*
X91705329Y-85349695D01*
X91705330Y-85349701D01*
X91719540Y-85438414D01*
X91761470Y-85700195D01*
X91856033Y-86045859D01*
X91987374Y-86379288D01*
X92153957Y-86696582D01*
X92155858Y-86699411D01*
X92155864Y-86699421D01*
X92310731Y-86929886D01*
X92353834Y-86994029D01*
X92584665Y-87268150D01*
X92843751Y-87515738D01*
X93128061Y-87733897D01*
X93160056Y-87753350D01*
X93431355Y-87918303D01*
X93431360Y-87918306D01*
X93434270Y-87920075D01*
X93437358Y-87921521D01*
X93437357Y-87921521D01*
X93755710Y-88070649D01*
X93755720Y-88070653D01*
X93758794Y-88072093D01*
X93762012Y-88073195D01*
X93762015Y-88073196D01*
X94094615Y-88187071D01*
X94094623Y-88187073D01*
X94097838Y-88188174D01*
X94447435Y-88266959D01*
X94499728Y-88272917D01*
X94800114Y-88307142D01*
X94800122Y-88307142D01*
X94803497Y-88307527D01*
X94806901Y-88307545D01*
X94806904Y-88307545D01*
X95001227Y-88308562D01*
X95161857Y-88309403D01*
X95165243Y-88309053D01*
X95165245Y-88309053D01*
X95514932Y-88272917D01*
X95514941Y-88272916D01*
X95518324Y-88272566D01*
X95521657Y-88271852D01*
X95521660Y-88271851D01*
X95740446Y-88224947D01*
X95868727Y-88197446D01*
X96208968Y-88084922D01*
X96535066Y-87936311D01*
X96629052Y-87880506D01*
X96840262Y-87755099D01*
X96840267Y-87755096D01*
X96843207Y-87753350D01*
X97129786Y-87538180D01*
X97391451Y-87293319D01*
X97625140Y-87021630D01*
X97731750Y-86866512D01*
X97826190Y-86729101D01*
X97826195Y-86729094D01*
X97828120Y-86726292D01*
X97829732Y-86723298D01*
X97829737Y-86723290D01*
X97996395Y-86413772D01*
X97998017Y-86410760D01*
X98132842Y-86078724D01*
X98143142Y-86042568D01*
X98163527Y-85971006D01*
X98231020Y-85734070D01*
X98291401Y-85380828D01*
X98293511Y-85346340D01*
X98313168Y-85024928D01*
X98313278Y-85023131D01*
X98313350Y-85002627D01*
X98313353Y-85001819D01*
X98313353Y-85001806D01*
X98313359Y-85000000D01*
X98293979Y-84642159D01*
X98236066Y-84288505D01*
X98218843Y-84226400D01*
X101854896Y-84226400D01*
X101855586Y-84232965D01*
X101864056Y-84313548D01*
X101874858Y-84416328D01*
X101933873Y-84597956D01*
X101937176Y-84603678D01*
X101937177Y-84603679D01*
X101949952Y-84625806D01*
X102029360Y-84763344D01*
X102033778Y-84768251D01*
X102033779Y-84768252D01*
X102115692Y-84859226D01*
X102157147Y-84905266D01*
X102237281Y-84963487D01*
X102287537Y-85000000D01*
X102311648Y-85017518D01*
X102317676Y-85020202D01*
X102317678Y-85020203D01*
X102480081Y-85092509D01*
X102486112Y-85095194D01*
X102579512Y-85115047D01*
X102666456Y-85133528D01*
X102666461Y-85133528D01*
X102672913Y-85134900D01*
X102863887Y-85134900D01*
X102870339Y-85133528D01*
X102870344Y-85133528D01*
X102957288Y-85115047D01*
X103050688Y-85095194D01*
X103056719Y-85092509D01*
X103219122Y-85020203D01*
X103219124Y-85020202D01*
X103225152Y-85017518D01*
X103249264Y-85000000D01*
X103299519Y-84963487D01*
X103379653Y-84905266D01*
X103421108Y-84859226D01*
X103503021Y-84768252D01*
X103503022Y-84768251D01*
X103507440Y-84763344D01*
X103586848Y-84625806D01*
X103599623Y-84603679D01*
X103599624Y-84603678D01*
X103602927Y-84597956D01*
X103661942Y-84416328D01*
X103665886Y-84378800D01*
X103937696Y-84378800D01*
X103938386Y-84385365D01*
X103954164Y-84535481D01*
X103957658Y-84568728D01*
X104016673Y-84750356D01*
X104019976Y-84756078D01*
X104019977Y-84756079D01*
X104027005Y-84768252D01*
X104112160Y-84915744D01*
X104116578Y-84920651D01*
X104116579Y-84920652D01*
X104235525Y-85052755D01*
X104239947Y-85057666D01*
X104319186Y-85115237D01*
X104361520Y-85145994D01*
X104394448Y-85169918D01*
X104400476Y-85172602D01*
X104400478Y-85172603D01*
X104543994Y-85236500D01*
X104568912Y-85247594D01*
X104662313Y-85267447D01*
X104749256Y-85285928D01*
X104749261Y-85285928D01*
X104755713Y-85287300D01*
X104946687Y-85287300D01*
X104953139Y-85285928D01*
X104953144Y-85285928D01*
X105040087Y-85267447D01*
X105133488Y-85247594D01*
X105158406Y-85236500D01*
X105301922Y-85172603D01*
X105301924Y-85172602D01*
X105307952Y-85169918D01*
X105340881Y-85145994D01*
X105383214Y-85115237D01*
X105462453Y-85057666D01*
X105466875Y-85052755D01*
X105585821Y-84920652D01*
X105585822Y-84920651D01*
X105590240Y-84915744D01*
X105675395Y-84768252D01*
X105682423Y-84756079D01*
X105682424Y-84756078D01*
X105685727Y-84750356D01*
X105744742Y-84568728D01*
X105748237Y-84535481D01*
X105764014Y-84385365D01*
X105764704Y-84378800D01*
X105753108Y-84268469D01*
X105748686Y-84226400D01*
X110236896Y-84226400D01*
X110237586Y-84232965D01*
X110246056Y-84313548D01*
X110256858Y-84416328D01*
X110315873Y-84597956D01*
X110319176Y-84603678D01*
X110319177Y-84603679D01*
X110331952Y-84625806D01*
X110411360Y-84763344D01*
X110415778Y-84768251D01*
X110415779Y-84768252D01*
X110497692Y-84859226D01*
X110539147Y-84905266D01*
X110619281Y-84963487D01*
X110669537Y-85000000D01*
X110693648Y-85017518D01*
X110699676Y-85020202D01*
X110699678Y-85020203D01*
X110862081Y-85092509D01*
X110868112Y-85095194D01*
X110961512Y-85115047D01*
X111048456Y-85133528D01*
X111048461Y-85133528D01*
X111054913Y-85134900D01*
X111245887Y-85134900D01*
X111252339Y-85133528D01*
X111252344Y-85133528D01*
X111339288Y-85115047D01*
X111432688Y-85095194D01*
X111438719Y-85092509D01*
X111601122Y-85020203D01*
X111601124Y-85020202D01*
X111607152Y-85017518D01*
X111631264Y-85000000D01*
X111681519Y-84963487D01*
X111761653Y-84905266D01*
X111803108Y-84859226D01*
X111885021Y-84768252D01*
X111885022Y-84768251D01*
X111889440Y-84763344D01*
X111968848Y-84625806D01*
X111981623Y-84603679D01*
X111981624Y-84603678D01*
X111984927Y-84597956D01*
X112043942Y-84416328D01*
X112047886Y-84378800D01*
X112370496Y-84378800D01*
X112371186Y-84385365D01*
X112386964Y-84535481D01*
X112390458Y-84568728D01*
X112449473Y-84750356D01*
X112452776Y-84756078D01*
X112452777Y-84756079D01*
X112459805Y-84768252D01*
X112544960Y-84915744D01*
X112549378Y-84920651D01*
X112549379Y-84920652D01*
X112668325Y-85052755D01*
X112672747Y-85057666D01*
X112751986Y-85115237D01*
X112794320Y-85145994D01*
X112827248Y-85169918D01*
X112833276Y-85172602D01*
X112833278Y-85172603D01*
X112976794Y-85236500D01*
X113001712Y-85247594D01*
X113095113Y-85267447D01*
X113182056Y-85285928D01*
X113182061Y-85285928D01*
X113188513Y-85287300D01*
X113379487Y-85287300D01*
X113385939Y-85285928D01*
X113385944Y-85285928D01*
X113472887Y-85267447D01*
X113566288Y-85247594D01*
X113591206Y-85236500D01*
X113734722Y-85172603D01*
X113734724Y-85172602D01*
X113740752Y-85169918D01*
X113773681Y-85145994D01*
X113816014Y-85115237D01*
X113895253Y-85057666D01*
X113899675Y-85052755D01*
X114018621Y-84920652D01*
X114018622Y-84920651D01*
X114023040Y-84915744D01*
X114108195Y-84768252D01*
X114115223Y-84756079D01*
X114115224Y-84756078D01*
X114118527Y-84750356D01*
X114177542Y-84568728D01*
X114181037Y-84535481D01*
X114192165Y-84429600D01*
X118466496Y-84429600D01*
X118467186Y-84436165D01*
X118484097Y-84597061D01*
X118486458Y-84619528D01*
X118545473Y-84801156D01*
X118548776Y-84806878D01*
X118548777Y-84806879D01*
X118555805Y-84819052D01*
X118640960Y-84966544D01*
X118645378Y-84971451D01*
X118645379Y-84971452D01*
X118735015Y-85071003D01*
X118768747Y-85108466D01*
X118787104Y-85121803D01*
X118890320Y-85196794D01*
X118923248Y-85220718D01*
X118929276Y-85223402D01*
X118929278Y-85223403D01*
X119072794Y-85287300D01*
X119097712Y-85298394D01*
X119191113Y-85318247D01*
X119278056Y-85336728D01*
X119278061Y-85336728D01*
X119284513Y-85338100D01*
X119475487Y-85338100D01*
X119481939Y-85336728D01*
X119481944Y-85336728D01*
X119568887Y-85318247D01*
X119662288Y-85298394D01*
X119687206Y-85287300D01*
X119830722Y-85223403D01*
X119830724Y-85223402D01*
X119836752Y-85220718D01*
X119869681Y-85196794D01*
X119972896Y-85121803D01*
X119991253Y-85108466D01*
X120024985Y-85071003D01*
X120114621Y-84971452D01*
X120114622Y-84971451D01*
X120119040Y-84966544D01*
X120204195Y-84819052D01*
X120211223Y-84806879D01*
X120211224Y-84806878D01*
X120214527Y-84801156D01*
X120273542Y-84619528D01*
X120275475Y-84601137D01*
X120302490Y-84535481D01*
X120360712Y-84494852D01*
X120431657Y-84492151D01*
X120492801Y-84528234D01*
X120520617Y-84575372D01*
X120577473Y-84750356D01*
X120580776Y-84756078D01*
X120580777Y-84756079D01*
X120587805Y-84768252D01*
X120672960Y-84915744D01*
X120677378Y-84920651D01*
X120677379Y-84920652D01*
X120796325Y-85052755D01*
X120800747Y-85057666D01*
X120879986Y-85115237D01*
X120922320Y-85145994D01*
X120955248Y-85169918D01*
X120961276Y-85172602D01*
X120961278Y-85172603D01*
X121104794Y-85236500D01*
X121129712Y-85247594D01*
X121223113Y-85267447D01*
X121310056Y-85285928D01*
X121310061Y-85285928D01*
X121316513Y-85287300D01*
X121507487Y-85287300D01*
X121513939Y-85285928D01*
X121513944Y-85285928D01*
X121600887Y-85267447D01*
X121694288Y-85247594D01*
X121719206Y-85236500D01*
X121862722Y-85172603D01*
X121862724Y-85172602D01*
X121868752Y-85169918D01*
X121901681Y-85145994D01*
X121944014Y-85115237D01*
X122023253Y-85057666D01*
X122027675Y-85052755D01*
X122146621Y-84920652D01*
X122146622Y-84920651D01*
X122151040Y-84915744D01*
X122236195Y-84768252D01*
X122243223Y-84756079D01*
X122243224Y-84756078D01*
X122246527Y-84750356D01*
X122305542Y-84568728D01*
X122309037Y-84535481D01*
X122324814Y-84385365D01*
X122325504Y-84378800D01*
X122320165Y-84328000D01*
X127000896Y-84328000D01*
X127001586Y-84334565D01*
X127018433Y-84494852D01*
X127020858Y-84517928D01*
X127079873Y-84699556D01*
X127175360Y-84864944D01*
X127179778Y-84869851D01*
X127179779Y-84869852D01*
X127295339Y-84998194D01*
X127303147Y-85006866D01*
X127382386Y-85064437D01*
X127424720Y-85095194D01*
X127457648Y-85119118D01*
X127463676Y-85121802D01*
X127463678Y-85121803D01*
X127607194Y-85185700D01*
X127632112Y-85196794D01*
X127725513Y-85216647D01*
X127812456Y-85235128D01*
X127812461Y-85235128D01*
X127818913Y-85236500D01*
X128009887Y-85236500D01*
X128016339Y-85235128D01*
X128016344Y-85235128D01*
X128103287Y-85216647D01*
X128196688Y-85196794D01*
X128221606Y-85185700D01*
X128365122Y-85121803D01*
X128365124Y-85121802D01*
X128371152Y-85119118D01*
X128404081Y-85095194D01*
X128446414Y-85064437D01*
X128525653Y-85006866D01*
X128533461Y-84998194D01*
X128649021Y-84869852D01*
X128649022Y-84869851D01*
X128653440Y-84864944D01*
X128748927Y-84699556D01*
X128805783Y-84524572D01*
X128845855Y-84465968D01*
X128911252Y-84438331D01*
X128981209Y-84450438D01*
X129033515Y-84498444D01*
X129050925Y-84550337D01*
X129052858Y-84568728D01*
X129111873Y-84750356D01*
X129115176Y-84756078D01*
X129115177Y-84756079D01*
X129122205Y-84768252D01*
X129207360Y-84915744D01*
X129211778Y-84920651D01*
X129211779Y-84920652D01*
X129330725Y-85052755D01*
X129335147Y-85057666D01*
X129414386Y-85115237D01*
X129456720Y-85145994D01*
X129489648Y-85169918D01*
X129495676Y-85172602D01*
X129495678Y-85172603D01*
X129639194Y-85236500D01*
X129664112Y-85247594D01*
X129757513Y-85267447D01*
X129844456Y-85285928D01*
X129844461Y-85285928D01*
X129850913Y-85287300D01*
X130041887Y-85287300D01*
X130048339Y-85285928D01*
X130048344Y-85285928D01*
X130135287Y-85267447D01*
X130228688Y-85247594D01*
X130253606Y-85236500D01*
X130397122Y-85172603D01*
X130397124Y-85172602D01*
X130403152Y-85169918D01*
X130436081Y-85145994D01*
X130478414Y-85115237D01*
X130557653Y-85057666D01*
X130562075Y-85052755D01*
X130681021Y-84920652D01*
X130681022Y-84920651D01*
X130685440Y-84915744D01*
X130770595Y-84768252D01*
X130777623Y-84756079D01*
X130777624Y-84756078D01*
X130780927Y-84750356D01*
X130839942Y-84568728D01*
X130843437Y-84535481D01*
X130859214Y-84385365D01*
X130859904Y-84378800D01*
X130849226Y-84277200D01*
X135382896Y-84277200D01*
X135383586Y-84283765D01*
X135398179Y-84422606D01*
X135402858Y-84467128D01*
X135461873Y-84648756D01*
X135557360Y-84814144D01*
X135561778Y-84819051D01*
X135561779Y-84819052D01*
X135642903Y-84909149D01*
X135685147Y-84956066D01*
X135839648Y-85068318D01*
X135845676Y-85071002D01*
X135845678Y-85071003D01*
X135989194Y-85134900D01*
X136014112Y-85145994D01*
X136107512Y-85165847D01*
X136194456Y-85184328D01*
X136194461Y-85184328D01*
X136200913Y-85185700D01*
X136391887Y-85185700D01*
X136398339Y-85184328D01*
X136398344Y-85184328D01*
X136485288Y-85165847D01*
X136578688Y-85145994D01*
X136603606Y-85134900D01*
X136747122Y-85071003D01*
X136747124Y-85071002D01*
X136753152Y-85068318D01*
X136907653Y-84956066D01*
X136949897Y-84909149D01*
X137031021Y-84819052D01*
X137031022Y-84819051D01*
X137035440Y-84814144D01*
X137130927Y-84648756D01*
X137131072Y-84648840D01*
X137175083Y-84597061D01*
X137243011Y-84576412D01*
X137311319Y-84595765D01*
X137358320Y-84648976D01*
X137364041Y-84663467D01*
X137392273Y-84750356D01*
X137395576Y-84756078D01*
X137395577Y-84756079D01*
X137402605Y-84768252D01*
X137487760Y-84915744D01*
X137492178Y-84920651D01*
X137492179Y-84920652D01*
X137611125Y-85052755D01*
X137615547Y-85057666D01*
X137694786Y-85115237D01*
X137737120Y-85145994D01*
X137770048Y-85169918D01*
X137776076Y-85172602D01*
X137776078Y-85172603D01*
X137919594Y-85236500D01*
X137944512Y-85247594D01*
X138037913Y-85267447D01*
X138124856Y-85285928D01*
X138124861Y-85285928D01*
X138131313Y-85287300D01*
X138322287Y-85287300D01*
X138328739Y-85285928D01*
X138328744Y-85285928D01*
X138415687Y-85267447D01*
X138509088Y-85247594D01*
X138534006Y-85236500D01*
X138677522Y-85172603D01*
X138677524Y-85172602D01*
X138683552Y-85169918D01*
X138716481Y-85145994D01*
X138758814Y-85115237D01*
X138838053Y-85057666D01*
X138842475Y-85052755D01*
X138961421Y-84920652D01*
X138961422Y-84920651D01*
X138965840Y-84915744D01*
X139050995Y-84768252D01*
X139058023Y-84756079D01*
X139058024Y-84756078D01*
X139061327Y-84750356D01*
X139120342Y-84568728D01*
X139123837Y-84535481D01*
X139139614Y-84385365D01*
X139140304Y-84378800D01*
X139128708Y-84268469D01*
X139121032Y-84195435D01*
X139121032Y-84195433D01*
X139120342Y-84188872D01*
X139061327Y-84007244D01*
X138965840Y-83841856D01*
X138915681Y-83786148D01*
X138842475Y-83704845D01*
X138842474Y-83704844D01*
X138838053Y-83699934D01*
X138698213Y-83598334D01*
X138688894Y-83591563D01*
X138688893Y-83591562D01*
X138683552Y-83587682D01*
X138677524Y-83584998D01*
X138677522Y-83584997D01*
X138515119Y-83512691D01*
X138515118Y-83512691D01*
X138509088Y-83510006D01*
X138414794Y-83489963D01*
X138328744Y-83471672D01*
X138328739Y-83471672D01*
X138322287Y-83470300D01*
X138131313Y-83470300D01*
X138124861Y-83471672D01*
X138124856Y-83471672D01*
X138038806Y-83489963D01*
X137944512Y-83510006D01*
X137938482Y-83512691D01*
X137938481Y-83512691D01*
X137776078Y-83584997D01*
X137776076Y-83584998D01*
X137770048Y-83587682D01*
X137764707Y-83591562D01*
X137764706Y-83591563D01*
X137755387Y-83598334D01*
X137615547Y-83699934D01*
X137611126Y-83704844D01*
X137611125Y-83704845D01*
X137537920Y-83786148D01*
X137487760Y-83841856D01*
X137392273Y-84007244D01*
X137392128Y-84007160D01*
X137348117Y-84058939D01*
X137280189Y-84079588D01*
X137211881Y-84060235D01*
X137164880Y-84007024D01*
X137159158Y-83992530D01*
X137145574Y-83950721D01*
X137130927Y-83905644D01*
X137123429Y-83892656D01*
X137041489Y-83750734D01*
X137035440Y-83740256D01*
X137026559Y-83730392D01*
X136912075Y-83603245D01*
X136912074Y-83603244D01*
X136907653Y-83598334D01*
X136789776Y-83512691D01*
X136758494Y-83489963D01*
X136758493Y-83489962D01*
X136753152Y-83486082D01*
X136747124Y-83483398D01*
X136747122Y-83483397D01*
X136584719Y-83411091D01*
X136584718Y-83411091D01*
X136578688Y-83408406D01*
X136477718Y-83386944D01*
X136398344Y-83370072D01*
X136398339Y-83370072D01*
X136391887Y-83368700D01*
X136200913Y-83368700D01*
X136194461Y-83370072D01*
X136194456Y-83370072D01*
X136115082Y-83386944D01*
X136014112Y-83408406D01*
X136008082Y-83411091D01*
X136008081Y-83411091D01*
X135845678Y-83483397D01*
X135845676Y-83483398D01*
X135839648Y-83486082D01*
X135834307Y-83489962D01*
X135834306Y-83489963D01*
X135803024Y-83512691D01*
X135685147Y-83598334D01*
X135680726Y-83603244D01*
X135680725Y-83603245D01*
X135566242Y-83730392D01*
X135557360Y-83740256D01*
X135551311Y-83750734D01*
X135469372Y-83892656D01*
X135461873Y-83905644D01*
X135402858Y-84087272D01*
X135402168Y-84093833D01*
X135402168Y-84093835D01*
X135385086Y-84256362D01*
X135382896Y-84277200D01*
X130849226Y-84277200D01*
X130848308Y-84268469D01*
X130840632Y-84195435D01*
X130840632Y-84195433D01*
X130839942Y-84188872D01*
X130780927Y-84007244D01*
X130685440Y-83841856D01*
X130635281Y-83786148D01*
X130562075Y-83704845D01*
X130562074Y-83704844D01*
X130557653Y-83699934D01*
X130417813Y-83598334D01*
X130408494Y-83591563D01*
X130408493Y-83591562D01*
X130403152Y-83587682D01*
X130397124Y-83584998D01*
X130397122Y-83584997D01*
X130234719Y-83512691D01*
X130234718Y-83512691D01*
X130228688Y-83510006D01*
X130134394Y-83489963D01*
X130048344Y-83471672D01*
X130048339Y-83471672D01*
X130041887Y-83470300D01*
X129850913Y-83470300D01*
X129844461Y-83471672D01*
X129844456Y-83471672D01*
X129758406Y-83489963D01*
X129664112Y-83510006D01*
X129658082Y-83512691D01*
X129658081Y-83512691D01*
X129495678Y-83584997D01*
X129495676Y-83584998D01*
X129489648Y-83587682D01*
X129484307Y-83591562D01*
X129484306Y-83591563D01*
X129474987Y-83598334D01*
X129335147Y-83699934D01*
X129330726Y-83704844D01*
X129330725Y-83704845D01*
X129257520Y-83786148D01*
X129207360Y-83841856D01*
X129111873Y-84007244D01*
X129055017Y-84182228D01*
X129014945Y-84240832D01*
X128949548Y-84268469D01*
X128879591Y-84256362D01*
X128827285Y-84208356D01*
X128809875Y-84156463D01*
X128809789Y-84155645D01*
X128807942Y-84138072D01*
X128748927Y-83956444D01*
X128653440Y-83791056D01*
X128624127Y-83758500D01*
X128530075Y-83654045D01*
X128530074Y-83654044D01*
X128525653Y-83649134D01*
X128406050Y-83562237D01*
X128376494Y-83540763D01*
X128376493Y-83540762D01*
X128371152Y-83536882D01*
X128365124Y-83534198D01*
X128365122Y-83534197D01*
X128202719Y-83461891D01*
X128202718Y-83461891D01*
X128196688Y-83459206D01*
X128102394Y-83439163D01*
X128016344Y-83420872D01*
X128016339Y-83420872D01*
X128009887Y-83419500D01*
X127818913Y-83419500D01*
X127812461Y-83420872D01*
X127812456Y-83420872D01*
X127726406Y-83439163D01*
X127632112Y-83459206D01*
X127626082Y-83461891D01*
X127626081Y-83461891D01*
X127463678Y-83534197D01*
X127463676Y-83534198D01*
X127457648Y-83536882D01*
X127452307Y-83540762D01*
X127452306Y-83540763D01*
X127422750Y-83562237D01*
X127303147Y-83649134D01*
X127298726Y-83654044D01*
X127298725Y-83654045D01*
X127204674Y-83758500D01*
X127175360Y-83791056D01*
X127079873Y-83956444D01*
X127020858Y-84138072D01*
X127020168Y-84144633D01*
X127020168Y-84144635D01*
X127002415Y-84313548D01*
X127000896Y-84328000D01*
X122320165Y-84328000D01*
X122313908Y-84268469D01*
X122306232Y-84195435D01*
X122306232Y-84195433D01*
X122305542Y-84188872D01*
X122246527Y-84007244D01*
X122151040Y-83841856D01*
X122100881Y-83786148D01*
X122027675Y-83704845D01*
X122027674Y-83704844D01*
X122023253Y-83699934D01*
X121883413Y-83598334D01*
X121874094Y-83591563D01*
X121874093Y-83591562D01*
X121868752Y-83587682D01*
X121862724Y-83584998D01*
X121862722Y-83584997D01*
X121700319Y-83512691D01*
X121700318Y-83512691D01*
X121694288Y-83510006D01*
X121599994Y-83489963D01*
X121513944Y-83471672D01*
X121513939Y-83471672D01*
X121507487Y-83470300D01*
X121316513Y-83470300D01*
X121310061Y-83471672D01*
X121310056Y-83471672D01*
X121224006Y-83489963D01*
X121129712Y-83510006D01*
X121123682Y-83512691D01*
X121123681Y-83512691D01*
X120961278Y-83584997D01*
X120961276Y-83584998D01*
X120955248Y-83587682D01*
X120949907Y-83591562D01*
X120949906Y-83591563D01*
X120940587Y-83598334D01*
X120800747Y-83699934D01*
X120796326Y-83704844D01*
X120796325Y-83704845D01*
X120723120Y-83786148D01*
X120672960Y-83841856D01*
X120577473Y-84007244D01*
X120518458Y-84188872D01*
X120516611Y-84206445D01*
X120516525Y-84207263D01*
X120489510Y-84272919D01*
X120431288Y-84313548D01*
X120360343Y-84316249D01*
X120299199Y-84280166D01*
X120271383Y-84233028D01*
X120214527Y-84058044D01*
X120202073Y-84036472D01*
X120130167Y-83911929D01*
X120119040Y-83892656D01*
X120068881Y-83836948D01*
X119995675Y-83755645D01*
X119995674Y-83755644D01*
X119991253Y-83750734D01*
X119844076Y-83643803D01*
X119842094Y-83642363D01*
X119842093Y-83642362D01*
X119836752Y-83638482D01*
X119830724Y-83635798D01*
X119830722Y-83635797D01*
X119668319Y-83563491D01*
X119668318Y-83563491D01*
X119662288Y-83560806D01*
X119567994Y-83540763D01*
X119481944Y-83522472D01*
X119481939Y-83522472D01*
X119475487Y-83521100D01*
X119284513Y-83521100D01*
X119278061Y-83522472D01*
X119278056Y-83522472D01*
X119192006Y-83540763D01*
X119097712Y-83560806D01*
X119091682Y-83563491D01*
X119091681Y-83563491D01*
X118929278Y-83635797D01*
X118929276Y-83635798D01*
X118923248Y-83638482D01*
X118917907Y-83642362D01*
X118917906Y-83642363D01*
X118915924Y-83643803D01*
X118768747Y-83750734D01*
X118764326Y-83755644D01*
X118764325Y-83755645D01*
X118691120Y-83836948D01*
X118640960Y-83892656D01*
X118629833Y-83911929D01*
X118557928Y-84036472D01*
X118545473Y-84058044D01*
X118486458Y-84239672D01*
X118485768Y-84246233D01*
X118485768Y-84246235D01*
X118477864Y-84321435D01*
X118466496Y-84429600D01*
X114192165Y-84429600D01*
X114196814Y-84385365D01*
X114197504Y-84378800D01*
X114185908Y-84268469D01*
X114178232Y-84195435D01*
X114178232Y-84195433D01*
X114177542Y-84188872D01*
X114118527Y-84007244D01*
X114023040Y-83841856D01*
X113972881Y-83786148D01*
X113899675Y-83704845D01*
X113899674Y-83704844D01*
X113895253Y-83699934D01*
X113755413Y-83598334D01*
X113746094Y-83591563D01*
X113746093Y-83591562D01*
X113740752Y-83587682D01*
X113734724Y-83584998D01*
X113734722Y-83584997D01*
X113572319Y-83512691D01*
X113572318Y-83512691D01*
X113566288Y-83510006D01*
X113471994Y-83489963D01*
X113385944Y-83471672D01*
X113385939Y-83471672D01*
X113379487Y-83470300D01*
X113188513Y-83470300D01*
X113182061Y-83471672D01*
X113182056Y-83471672D01*
X113096006Y-83489963D01*
X113001712Y-83510006D01*
X112995682Y-83512691D01*
X112995681Y-83512691D01*
X112833278Y-83584997D01*
X112833276Y-83584998D01*
X112827248Y-83587682D01*
X112821907Y-83591562D01*
X112821906Y-83591563D01*
X112812587Y-83598334D01*
X112672747Y-83699934D01*
X112668326Y-83704844D01*
X112668325Y-83704845D01*
X112595120Y-83786148D01*
X112544960Y-83841856D01*
X112449473Y-84007244D01*
X112390458Y-84188872D01*
X112389768Y-84195433D01*
X112389768Y-84195435D01*
X112382092Y-84268469D01*
X112370496Y-84378800D01*
X112047886Y-84378800D01*
X112054745Y-84313548D01*
X112063214Y-84232965D01*
X112063904Y-84226400D01*
X112061893Y-84207263D01*
X112044632Y-84043035D01*
X112044632Y-84043033D01*
X112043942Y-84036472D01*
X111984927Y-83854844D01*
X111977429Y-83841856D01*
X111929303Y-83758500D01*
X111889440Y-83689456D01*
X111807394Y-83598334D01*
X111766075Y-83552445D01*
X111766074Y-83552444D01*
X111761653Y-83547534D01*
X111643776Y-83461891D01*
X111612494Y-83439163D01*
X111612493Y-83439162D01*
X111607152Y-83435282D01*
X111601124Y-83432598D01*
X111601122Y-83432597D01*
X111438719Y-83360291D01*
X111438718Y-83360291D01*
X111432688Y-83357606D01*
X111339287Y-83337753D01*
X111252344Y-83319272D01*
X111252339Y-83319272D01*
X111245887Y-83317900D01*
X111054913Y-83317900D01*
X111048461Y-83319272D01*
X111048456Y-83319272D01*
X110961513Y-83337753D01*
X110868112Y-83357606D01*
X110862082Y-83360291D01*
X110862081Y-83360291D01*
X110699678Y-83432597D01*
X110699676Y-83432598D01*
X110693648Y-83435282D01*
X110688307Y-83439162D01*
X110688306Y-83439163D01*
X110657024Y-83461891D01*
X110539147Y-83547534D01*
X110534726Y-83552444D01*
X110534725Y-83552445D01*
X110493407Y-83598334D01*
X110411360Y-83689456D01*
X110371497Y-83758500D01*
X110323372Y-83841856D01*
X110315873Y-83854844D01*
X110256858Y-84036472D01*
X110256168Y-84043033D01*
X110256168Y-84043035D01*
X110238907Y-84207263D01*
X110236896Y-84226400D01*
X105748686Y-84226400D01*
X105745432Y-84195435D01*
X105745432Y-84195433D01*
X105744742Y-84188872D01*
X105685727Y-84007244D01*
X105590240Y-83841856D01*
X105540081Y-83786148D01*
X105466875Y-83704845D01*
X105466874Y-83704844D01*
X105462453Y-83699934D01*
X105322613Y-83598334D01*
X105313294Y-83591563D01*
X105313293Y-83591562D01*
X105307952Y-83587682D01*
X105301924Y-83584998D01*
X105301922Y-83584997D01*
X105139519Y-83512691D01*
X105139518Y-83512691D01*
X105133488Y-83510006D01*
X105039194Y-83489963D01*
X104953144Y-83471672D01*
X104953139Y-83471672D01*
X104946687Y-83470300D01*
X104755713Y-83470300D01*
X104749261Y-83471672D01*
X104749256Y-83471672D01*
X104663206Y-83489963D01*
X104568912Y-83510006D01*
X104562882Y-83512691D01*
X104562881Y-83512691D01*
X104400478Y-83584997D01*
X104400476Y-83584998D01*
X104394448Y-83587682D01*
X104389107Y-83591562D01*
X104389106Y-83591563D01*
X104379787Y-83598334D01*
X104239947Y-83699934D01*
X104235526Y-83704844D01*
X104235525Y-83704845D01*
X104162320Y-83786148D01*
X104112160Y-83841856D01*
X104016673Y-84007244D01*
X103957658Y-84188872D01*
X103956968Y-84195433D01*
X103956968Y-84195435D01*
X103949292Y-84268469D01*
X103937696Y-84378800D01*
X103665886Y-84378800D01*
X103672745Y-84313548D01*
X103681214Y-84232965D01*
X103681904Y-84226400D01*
X103679893Y-84207263D01*
X103662632Y-84043035D01*
X103662632Y-84043033D01*
X103661942Y-84036472D01*
X103602927Y-83854844D01*
X103595429Y-83841856D01*
X103547303Y-83758500D01*
X103507440Y-83689456D01*
X103425394Y-83598334D01*
X103384075Y-83552445D01*
X103384074Y-83552444D01*
X103379653Y-83547534D01*
X103261776Y-83461891D01*
X103230494Y-83439163D01*
X103230493Y-83439162D01*
X103225152Y-83435282D01*
X103219124Y-83432598D01*
X103219122Y-83432597D01*
X103056719Y-83360291D01*
X103056718Y-83360291D01*
X103050688Y-83357606D01*
X102957287Y-83337753D01*
X102870344Y-83319272D01*
X102870339Y-83319272D01*
X102863887Y-83317900D01*
X102672913Y-83317900D01*
X102666461Y-83319272D01*
X102666456Y-83319272D01*
X102579513Y-83337753D01*
X102486112Y-83357606D01*
X102480082Y-83360291D01*
X102480081Y-83360291D01*
X102317678Y-83432597D01*
X102317676Y-83432598D01*
X102311648Y-83435282D01*
X102306307Y-83439162D01*
X102306306Y-83439163D01*
X102275024Y-83461891D01*
X102157147Y-83547534D01*
X102152726Y-83552444D01*
X102152725Y-83552445D01*
X102111407Y-83598334D01*
X102029360Y-83689456D01*
X101989497Y-83758500D01*
X101941372Y-83841856D01*
X101933873Y-83854844D01*
X101874858Y-84036472D01*
X101874168Y-84043033D01*
X101874168Y-84043035D01*
X101856907Y-84207263D01*
X101854896Y-84226400D01*
X98218843Y-84226400D01*
X98140297Y-83943173D01*
X98137243Y-83935497D01*
X98019046Y-83638482D01*
X98007793Y-83610205D01*
X97940652Y-83483397D01*
X97841702Y-83296513D01*
X97841698Y-83296506D01*
X97840103Y-83293494D01*
X97639190Y-82996746D01*
X97618575Y-82972437D01*
X97514740Y-82850000D01*
X106711496Y-82850000D01*
X106712186Y-82856562D01*
X106712186Y-82856565D01*
X106728301Y-83009887D01*
X106731458Y-83039928D01*
X106790473Y-83221556D01*
X106885960Y-83386944D01*
X106890378Y-83391851D01*
X106890379Y-83391852D01*
X106986815Y-83498955D01*
X107013747Y-83528866D01*
X107094700Y-83587682D01*
X107135982Y-83617675D01*
X107168248Y-83641118D01*
X107174276Y-83643802D01*
X107174278Y-83643803D01*
X107336681Y-83716109D01*
X107342712Y-83718794D01*
X107420592Y-83735348D01*
X107523056Y-83757128D01*
X107523061Y-83757128D01*
X107529513Y-83758500D01*
X107720487Y-83758500D01*
X107726939Y-83757128D01*
X107726944Y-83757128D01*
X107829408Y-83735348D01*
X107907288Y-83718794D01*
X107913319Y-83716109D01*
X108075722Y-83643803D01*
X108075724Y-83643802D01*
X108081752Y-83641118D01*
X108114019Y-83617675D01*
X108155300Y-83587682D01*
X108236253Y-83528866D01*
X108263185Y-83498955D01*
X108359621Y-83391852D01*
X108359622Y-83391851D01*
X108364040Y-83386944D01*
X108459527Y-83221556D01*
X108518542Y-83039928D01*
X108521700Y-83009887D01*
X108537814Y-82856565D01*
X108537814Y-82856562D01*
X108538504Y-82850000D01*
X108530621Y-82775000D01*
X114986496Y-82775000D01*
X115006458Y-82964928D01*
X115065473Y-83146556D01*
X115160960Y-83311944D01*
X115165378Y-83316851D01*
X115165379Y-83316852D01*
X115223342Y-83381226D01*
X115288747Y-83453866D01*
X115366017Y-83510006D01*
X115435937Y-83560806D01*
X115443248Y-83566118D01*
X115449276Y-83568802D01*
X115449278Y-83568803D01*
X115602991Y-83637240D01*
X115617712Y-83643794D01*
X115697766Y-83660810D01*
X115798056Y-83682128D01*
X115798061Y-83682128D01*
X115804513Y-83683500D01*
X115995487Y-83683500D01*
X116001939Y-83682128D01*
X116001944Y-83682128D01*
X116102234Y-83660810D01*
X116182288Y-83643794D01*
X116197009Y-83637240D01*
X116350722Y-83568803D01*
X116350724Y-83568802D01*
X116356752Y-83566118D01*
X116364064Y-83560806D01*
X116433983Y-83510006D01*
X116511253Y-83453866D01*
X116576658Y-83381226D01*
X116634621Y-83316852D01*
X116634622Y-83316851D01*
X116639040Y-83311944D01*
X116734527Y-83146556D01*
X116793542Y-82964928D01*
X116808249Y-82825000D01*
X123536496Y-82825000D01*
X123556458Y-83014928D01*
X123615473Y-83196556D01*
X123710960Y-83361944D01*
X123715378Y-83366851D01*
X123715379Y-83366852D01*
X123808524Y-83470300D01*
X123838747Y-83503866D01*
X123924429Y-83566118D01*
X123984686Y-83609897D01*
X123993248Y-83616118D01*
X123999276Y-83618802D01*
X123999278Y-83618803D01*
X124161681Y-83691109D01*
X124167712Y-83693794D01*
X124261113Y-83713647D01*
X124348056Y-83732128D01*
X124348061Y-83732128D01*
X124354513Y-83733500D01*
X124545487Y-83733500D01*
X124551939Y-83732128D01*
X124551944Y-83732128D01*
X124638887Y-83713647D01*
X124732288Y-83693794D01*
X124738319Y-83691109D01*
X124900722Y-83618803D01*
X124900724Y-83618802D01*
X124906752Y-83616118D01*
X124915315Y-83609897D01*
X124975571Y-83566118D01*
X125061253Y-83503866D01*
X125091476Y-83470300D01*
X125184621Y-83366852D01*
X125184622Y-83366851D01*
X125189040Y-83361944D01*
X125284527Y-83196556D01*
X125343542Y-83014928D01*
X125360876Y-82850000D01*
X131811496Y-82850000D01*
X131812186Y-82856562D01*
X131812186Y-82856565D01*
X131828301Y-83009887D01*
X131831458Y-83039928D01*
X131890473Y-83221556D01*
X131985960Y-83386944D01*
X131990378Y-83391851D01*
X131990379Y-83391852D01*
X132086815Y-83498955D01*
X132113747Y-83528866D01*
X132194700Y-83587682D01*
X132235982Y-83617675D01*
X132268248Y-83641118D01*
X132274276Y-83643802D01*
X132274278Y-83643803D01*
X132436681Y-83716109D01*
X132442712Y-83718794D01*
X132520592Y-83735348D01*
X132623056Y-83757128D01*
X132623061Y-83757128D01*
X132629513Y-83758500D01*
X132820487Y-83758500D01*
X132826939Y-83757128D01*
X132826944Y-83757128D01*
X132929408Y-83735348D01*
X133007288Y-83718794D01*
X133013319Y-83716109D01*
X133175722Y-83643803D01*
X133175724Y-83643802D01*
X133181752Y-83641118D01*
X133214019Y-83617675D01*
X133255300Y-83587682D01*
X133336253Y-83528866D01*
X133363185Y-83498955D01*
X133459621Y-83391852D01*
X133459622Y-83391851D01*
X133464040Y-83386944D01*
X133559527Y-83221556D01*
X133618542Y-83039928D01*
X133621700Y-83009887D01*
X133637814Y-82856565D01*
X133637814Y-82856562D01*
X133638504Y-82850000D01*
X140336496Y-82850000D01*
X140337186Y-82856562D01*
X140337186Y-82856565D01*
X140353301Y-83009887D01*
X140356458Y-83039928D01*
X140415473Y-83221556D01*
X140510960Y-83386944D01*
X140515378Y-83391851D01*
X140515379Y-83391852D01*
X140611815Y-83498955D01*
X140638747Y-83528866D01*
X140719700Y-83587682D01*
X140760982Y-83617675D01*
X140793248Y-83641118D01*
X140799276Y-83643802D01*
X140799278Y-83643803D01*
X140961681Y-83716109D01*
X140967712Y-83718794D01*
X141045592Y-83735348D01*
X141148056Y-83757128D01*
X141148061Y-83757128D01*
X141154513Y-83758500D01*
X141345487Y-83758500D01*
X141351939Y-83757128D01*
X141351944Y-83757128D01*
X141454408Y-83735348D01*
X141532288Y-83718794D01*
X141538319Y-83716109D01*
X141700722Y-83643803D01*
X141700724Y-83643802D01*
X141706752Y-83641118D01*
X141739020Y-83617674D01*
X141805885Y-83593817D01*
X141875037Y-83609897D01*
X141924517Y-83660810D01*
X141938617Y-83730392D01*
X141929986Y-83766607D01*
X141863411Y-83932218D01*
X141862491Y-83935492D01*
X141862489Y-83935497D01*
X141768895Y-84268469D01*
X141766437Y-84277213D01*
X141765875Y-84280570D01*
X141765875Y-84280571D01*
X141711806Y-84603679D01*
X141707290Y-84630663D01*
X141686661Y-84988434D01*
X141704792Y-85346340D01*
X141705329Y-85349695D01*
X141705330Y-85349701D01*
X141719540Y-85438414D01*
X141761470Y-85700195D01*
X141856033Y-86045859D01*
X141987374Y-86379288D01*
X142153957Y-86696582D01*
X142155858Y-86699411D01*
X142155864Y-86699421D01*
X142310731Y-86929886D01*
X142353834Y-86994029D01*
X142584665Y-87268150D01*
X142843751Y-87515738D01*
X143128061Y-87733897D01*
X143160056Y-87753350D01*
X143431355Y-87918303D01*
X143431360Y-87918306D01*
X143434270Y-87920075D01*
X143437358Y-87921521D01*
X143437357Y-87921521D01*
X143755710Y-88070649D01*
X143755720Y-88070653D01*
X143758794Y-88072093D01*
X143762012Y-88073195D01*
X143762015Y-88073196D01*
X144094615Y-88187071D01*
X144094623Y-88187073D01*
X144097838Y-88188174D01*
X144447435Y-88266959D01*
X144499728Y-88272917D01*
X144800114Y-88307142D01*
X144800122Y-88307142D01*
X144803497Y-88307527D01*
X144806901Y-88307545D01*
X144806904Y-88307545D01*
X145001227Y-88308562D01*
X145161857Y-88309403D01*
X145165243Y-88309053D01*
X145165245Y-88309053D01*
X145514932Y-88272917D01*
X145514941Y-88272916D01*
X145518324Y-88272566D01*
X145521657Y-88271852D01*
X145521660Y-88271851D01*
X145740446Y-88224947D01*
X145868727Y-88197446D01*
X146208968Y-88084922D01*
X146535066Y-87936311D01*
X146629052Y-87880506D01*
X146840262Y-87755099D01*
X146840267Y-87755096D01*
X146843207Y-87753350D01*
X147129786Y-87538180D01*
X147391451Y-87293319D01*
X147625140Y-87021630D01*
X147731750Y-86866512D01*
X147826190Y-86729101D01*
X147826195Y-86729094D01*
X147828120Y-86726292D01*
X147829732Y-86723298D01*
X147829737Y-86723290D01*
X147996395Y-86413772D01*
X147998017Y-86410760D01*
X148132842Y-86078724D01*
X148143142Y-86042568D01*
X148163527Y-85971006D01*
X148231020Y-85734070D01*
X148291401Y-85380828D01*
X148293511Y-85346340D01*
X148313168Y-85024928D01*
X148313278Y-85023131D01*
X148313350Y-85002627D01*
X148313353Y-85001819D01*
X148313353Y-85001806D01*
X148313359Y-85000000D01*
X148293979Y-84642159D01*
X148236066Y-84288505D01*
X148140297Y-83943173D01*
X148137243Y-83935497D01*
X148019046Y-83638482D01*
X148007793Y-83610205D01*
X147940652Y-83483397D01*
X147841702Y-83296513D01*
X147841698Y-83296506D01*
X147840103Y-83293494D01*
X147639190Y-82996746D01*
X147618575Y-82972437D01*
X147456703Y-82781565D01*
X147407403Y-82723432D01*
X147147454Y-82476750D01*
X146862384Y-82259585D01*
X146859472Y-82257828D01*
X146859467Y-82257825D01*
X146558443Y-82076236D01*
X146558437Y-82076233D01*
X146555528Y-82074478D01*
X146306518Y-81958891D01*
X146233571Y-81925030D01*
X146233569Y-81925029D01*
X146230475Y-81923593D01*
X146060751Y-81866145D01*
X145894255Y-81809789D01*
X145894250Y-81809788D01*
X145891028Y-81808697D01*
X145692681Y-81764724D01*
X145544493Y-81731871D01*
X145544487Y-81731870D01*
X145541158Y-81731132D01*
X145537769Y-81730758D01*
X145537764Y-81730757D01*
X145188338Y-81692180D01*
X145188333Y-81692180D01*
X145184957Y-81691807D01*
X145181558Y-81691801D01*
X145181557Y-81691801D01*
X145012080Y-81691505D01*
X144826592Y-81691182D01*
X144713413Y-81703277D01*
X144473639Y-81728901D01*
X144473631Y-81728902D01*
X144470256Y-81729263D01*
X144120117Y-81805606D01*
X143780271Y-81919317D01*
X143777178Y-81920739D01*
X143777177Y-81920740D01*
X143645715Y-81981206D01*
X143454694Y-82069066D01*
X143451760Y-82070822D01*
X143451758Y-82070823D01*
X143275945Y-82176045D01*
X143147193Y-82253101D01*
X143144467Y-82255163D01*
X143144465Y-82255164D01*
X142882293Y-82453444D01*
X142861367Y-82469270D01*
X142858882Y-82471612D01*
X142858877Y-82471616D01*
X142850945Y-82479091D01*
X142600559Y-82715043D01*
X142598347Y-82717633D01*
X142598345Y-82717635D01*
X142381884Y-82971078D01*
X142322433Y-83009887D01*
X142251439Y-83010393D01*
X142191440Y-82972437D01*
X142161487Y-82908069D01*
X142160763Y-82876075D01*
X142162814Y-82856562D01*
X142163504Y-82850000D01*
X142143542Y-82660072D01*
X142084527Y-82478444D01*
X142079231Y-82469270D01*
X141992341Y-82318774D01*
X141989040Y-82313056D01*
X141971679Y-82293774D01*
X141865675Y-82176045D01*
X141865674Y-82176044D01*
X141861253Y-82171134D01*
X141726243Y-82073043D01*
X141712094Y-82062763D01*
X141712093Y-82062762D01*
X141706752Y-82058882D01*
X141700724Y-82056198D01*
X141700722Y-82056197D01*
X141538319Y-81983891D01*
X141538318Y-81983891D01*
X141532288Y-81981206D01*
X141427305Y-81958891D01*
X141351944Y-81942872D01*
X141351939Y-81942872D01*
X141345487Y-81941500D01*
X141154513Y-81941500D01*
X141148061Y-81942872D01*
X141148056Y-81942872D01*
X141072695Y-81958891D01*
X140967712Y-81981206D01*
X140961682Y-81983891D01*
X140961681Y-81983891D01*
X140799278Y-82056197D01*
X140799276Y-82056198D01*
X140793248Y-82058882D01*
X140787907Y-82062762D01*
X140787906Y-82062763D01*
X140773757Y-82073043D01*
X140638747Y-82171134D01*
X140634326Y-82176044D01*
X140634325Y-82176045D01*
X140528322Y-82293774D01*
X140510960Y-82313056D01*
X140507659Y-82318774D01*
X140420770Y-82469270D01*
X140415473Y-82478444D01*
X140356458Y-82660072D01*
X140336496Y-82850000D01*
X133638504Y-82850000D01*
X133618542Y-82660072D01*
X133559527Y-82478444D01*
X133554231Y-82469270D01*
X133467341Y-82318774D01*
X133464040Y-82313056D01*
X133446679Y-82293774D01*
X133340675Y-82176045D01*
X133340674Y-82176044D01*
X133336253Y-82171134D01*
X133201243Y-82073043D01*
X133187094Y-82062763D01*
X133187093Y-82062762D01*
X133181752Y-82058882D01*
X133175724Y-82056198D01*
X133175722Y-82056197D01*
X133013319Y-81983891D01*
X133013318Y-81983891D01*
X133007288Y-81981206D01*
X132902305Y-81958891D01*
X132826944Y-81942872D01*
X132826939Y-81942872D01*
X132820487Y-81941500D01*
X132629513Y-81941500D01*
X132623061Y-81942872D01*
X132623056Y-81942872D01*
X132547695Y-81958891D01*
X132442712Y-81981206D01*
X132436682Y-81983891D01*
X132436681Y-81983891D01*
X132274278Y-82056197D01*
X132274276Y-82056198D01*
X132268248Y-82058882D01*
X132262907Y-82062762D01*
X132262906Y-82062763D01*
X132248757Y-82073043D01*
X132113747Y-82171134D01*
X132109326Y-82176044D01*
X132109325Y-82176045D01*
X132003322Y-82293774D01*
X131985960Y-82313056D01*
X131982659Y-82318774D01*
X131895770Y-82469270D01*
X131890473Y-82478444D01*
X131831458Y-82660072D01*
X131811496Y-82850000D01*
X125360876Y-82850000D01*
X125363504Y-82825000D01*
X125357559Y-82768435D01*
X125344232Y-82641635D01*
X125344232Y-82641633D01*
X125343542Y-82635072D01*
X125284527Y-82453444D01*
X125189040Y-82288056D01*
X125157567Y-82253101D01*
X125065675Y-82151045D01*
X125065674Y-82151044D01*
X125061253Y-82146134D01*
X124946503Y-82062763D01*
X124912094Y-82037763D01*
X124912093Y-82037762D01*
X124906752Y-82033882D01*
X124900724Y-82031198D01*
X124900722Y-82031197D01*
X124738319Y-81958891D01*
X124738318Y-81958891D01*
X124732288Y-81956206D01*
X124638888Y-81936353D01*
X124551944Y-81917872D01*
X124551939Y-81917872D01*
X124545487Y-81916500D01*
X124354513Y-81916500D01*
X124348061Y-81917872D01*
X124348056Y-81917872D01*
X124261112Y-81936353D01*
X124167712Y-81956206D01*
X124161682Y-81958891D01*
X124161681Y-81958891D01*
X123999278Y-82031197D01*
X123999276Y-82031198D01*
X123993248Y-82033882D01*
X123987907Y-82037762D01*
X123987906Y-82037763D01*
X123953497Y-82062763D01*
X123838747Y-82146134D01*
X123834326Y-82151044D01*
X123834325Y-82151045D01*
X123742434Y-82253101D01*
X123710960Y-82288056D01*
X123615473Y-82453444D01*
X123556458Y-82635072D01*
X123555768Y-82641633D01*
X123555768Y-82641635D01*
X123542441Y-82768435D01*
X123536496Y-82825000D01*
X116808249Y-82825000D01*
X116813504Y-82775000D01*
X116793542Y-82585072D01*
X116734527Y-82403444D01*
X116639040Y-82238056D01*
X116511253Y-82096134D01*
X116356752Y-81983882D01*
X116350724Y-81981198D01*
X116350722Y-81981197D01*
X116188319Y-81908891D01*
X116188318Y-81908891D01*
X116182288Y-81906206D01*
X116088888Y-81886353D01*
X116001944Y-81867872D01*
X116001939Y-81867872D01*
X115995487Y-81866500D01*
X115804513Y-81866500D01*
X115798061Y-81867872D01*
X115798056Y-81867872D01*
X115711112Y-81886353D01*
X115617712Y-81906206D01*
X115611682Y-81908891D01*
X115611681Y-81908891D01*
X115449278Y-81981197D01*
X115449276Y-81981198D01*
X115443248Y-81983882D01*
X115288747Y-82096134D01*
X115160960Y-82238056D01*
X115065473Y-82403444D01*
X115006458Y-82585072D01*
X114986496Y-82775000D01*
X108530621Y-82775000D01*
X108518542Y-82660072D01*
X108459527Y-82478444D01*
X108454231Y-82469270D01*
X108367341Y-82318774D01*
X108364040Y-82313056D01*
X108346679Y-82293774D01*
X108240675Y-82176045D01*
X108240674Y-82176044D01*
X108236253Y-82171134D01*
X108101243Y-82073043D01*
X108087094Y-82062763D01*
X108087093Y-82062762D01*
X108081752Y-82058882D01*
X108075724Y-82056198D01*
X108075722Y-82056197D01*
X107913319Y-81983891D01*
X107913318Y-81983891D01*
X107907288Y-81981206D01*
X107802305Y-81958891D01*
X107726944Y-81942872D01*
X107726939Y-81942872D01*
X107720487Y-81941500D01*
X107529513Y-81941500D01*
X107523061Y-81942872D01*
X107523056Y-81942872D01*
X107447695Y-81958891D01*
X107342712Y-81981206D01*
X107336682Y-81983891D01*
X107336681Y-81983891D01*
X107174278Y-82056197D01*
X107174276Y-82056198D01*
X107168248Y-82058882D01*
X107162907Y-82062762D01*
X107162906Y-82062763D01*
X107148757Y-82073043D01*
X107013747Y-82171134D01*
X107009326Y-82176044D01*
X107009325Y-82176045D01*
X106903322Y-82293774D01*
X106885960Y-82313056D01*
X106882659Y-82318774D01*
X106795770Y-82469270D01*
X106790473Y-82478444D01*
X106731458Y-82660072D01*
X106711496Y-82850000D01*
X97514740Y-82850000D01*
X97456703Y-82781565D01*
X97407403Y-82723432D01*
X97147454Y-82476750D01*
X96862384Y-82259585D01*
X96859472Y-82257828D01*
X96859467Y-82257825D01*
X96558443Y-82076236D01*
X96558437Y-82076233D01*
X96555528Y-82074478D01*
X96306518Y-81958891D01*
X96233571Y-81925030D01*
X96233569Y-81925029D01*
X96230475Y-81923593D01*
X96060751Y-81866145D01*
X95894255Y-81809789D01*
X95894250Y-81809788D01*
X95891028Y-81808697D01*
X95692681Y-81764724D01*
X95544493Y-81731871D01*
X95544487Y-81731870D01*
X95541158Y-81731132D01*
X95537769Y-81730758D01*
X95537764Y-81730757D01*
X95188338Y-81692180D01*
X95188333Y-81692180D01*
X95184957Y-81691807D01*
X95181558Y-81691801D01*
X95181557Y-81691801D01*
X95012080Y-81691505D01*
X94826592Y-81691182D01*
X94713413Y-81703277D01*
X94473639Y-81728901D01*
X94473631Y-81728902D01*
X94470256Y-81729263D01*
X94120117Y-81805606D01*
X93780271Y-81919317D01*
X93777178Y-81920739D01*
X93777177Y-81920740D01*
X93645715Y-81981206D01*
X93454694Y-82069066D01*
X93451760Y-82070822D01*
X93451758Y-82070823D01*
X93275945Y-82176045D01*
X93147193Y-82253101D01*
X93144467Y-82255163D01*
X93144465Y-82255164D01*
X92882293Y-82453444D01*
X92861367Y-82469270D01*
X92858882Y-82471612D01*
X92858877Y-82471616D01*
X92850945Y-82479091D01*
X92600559Y-82715043D01*
X92367819Y-82987546D01*
X92365900Y-82990358D01*
X92365897Y-82990363D01*
X92336563Y-83033365D01*
X92165871Y-83283591D01*
X91997077Y-83599714D01*
X91863411Y-83932218D01*
X91862491Y-83935492D01*
X91862489Y-83935497D01*
X91768895Y-84268469D01*
X91766437Y-84277213D01*
X91765875Y-84280570D01*
X91765875Y-84280571D01*
X91711806Y-84603679D01*
X91707290Y-84630663D01*
X91686661Y-84988434D01*
X90437073Y-84988434D01*
X90434773Y-84972376D01*
X90433500Y-84954514D01*
X90433500Y-74422000D01*
X100737296Y-74422000D01*
X100757258Y-74611928D01*
X100816273Y-74793556D01*
X100911760Y-74958944D01*
X101039547Y-75100866D01*
X101194048Y-75213118D01*
X101200076Y-75215802D01*
X101200078Y-75215803D01*
X101362481Y-75288109D01*
X101368512Y-75290794D01*
X101461912Y-75310647D01*
X101548856Y-75329128D01*
X101548861Y-75329128D01*
X101555313Y-75330500D01*
X101746287Y-75330500D01*
X101752739Y-75329128D01*
X101752744Y-75329128D01*
X101839688Y-75310647D01*
X101933088Y-75290794D01*
X101939119Y-75288109D01*
X102101522Y-75215803D01*
X102101524Y-75215802D01*
X102107552Y-75213118D01*
X102262053Y-75100866D01*
X102389840Y-74958944D01*
X102485327Y-74793556D01*
X102544342Y-74611928D01*
X102564304Y-74422000D01*
X102544342Y-74232072D01*
X102485327Y-74050444D01*
X102389840Y-73885056D01*
X102262053Y-73743134D01*
X102107552Y-73630882D01*
X102101524Y-73628198D01*
X102101522Y-73628197D01*
X101939119Y-73555891D01*
X101939118Y-73555891D01*
X101933088Y-73553206D01*
X101839687Y-73533353D01*
X101752744Y-73514872D01*
X101752739Y-73514872D01*
X101746287Y-73513500D01*
X101555313Y-73513500D01*
X101548861Y-73514872D01*
X101548856Y-73514872D01*
X101461913Y-73533353D01*
X101368512Y-73553206D01*
X101362482Y-73555891D01*
X101362481Y-73555891D01*
X101200078Y-73628197D01*
X101200076Y-73628198D01*
X101194048Y-73630882D01*
X101039547Y-73743134D01*
X100911760Y-73885056D01*
X100816273Y-74050444D01*
X100757258Y-74232072D01*
X100737296Y-74422000D01*
X90433500Y-74422000D01*
X90433500Y-57376695D01*
X91847251Y-57376695D01*
X91847548Y-57381848D01*
X91847548Y-57381851D01*
X91853011Y-57476590D01*
X91860110Y-57599715D01*
X91861247Y-57604761D01*
X91861248Y-57604767D01*
X91881119Y-57692939D01*
X91909222Y-57817639D01*
X91993266Y-58024616D01*
X92024501Y-58075587D01*
X92104094Y-58205471D01*
X92109987Y-58215088D01*
X92256250Y-58383938D01*
X92260230Y-58387242D01*
X92264981Y-58391187D01*
X92304616Y-58450090D01*
X92306113Y-58521071D01*
X92268997Y-58581593D01*
X92228724Y-58606112D01*
X92113295Y-58649385D01*
X91996739Y-58736739D01*
X91909385Y-58853295D01*
X91858255Y-58989684D01*
X91851500Y-59051866D01*
X91851500Y-60848134D01*
X91858255Y-60910316D01*
X91909385Y-61046705D01*
X91996739Y-61163261D01*
X92113295Y-61250615D01*
X92249684Y-61301745D01*
X92311866Y-61308500D01*
X94108134Y-61308500D01*
X94170316Y-61301745D01*
X94306705Y-61250615D01*
X94423261Y-61163261D01*
X94510615Y-61046705D01*
X94561745Y-60910316D01*
X94568500Y-60848134D01*
X94568500Y-59051866D01*
X94561745Y-58989684D01*
X94510615Y-58853295D01*
X94423261Y-58736739D01*
X94306705Y-58649385D01*
X94294132Y-58644672D01*
X94188203Y-58604960D01*
X94131439Y-58562318D01*
X94106739Y-58495756D01*
X94121947Y-58426408D01*
X94143493Y-58397727D01*
X94244435Y-58297137D01*
X94248096Y-58293489D01*
X94307594Y-58210689D01*
X94375435Y-58116277D01*
X94378453Y-58112077D01*
X94396488Y-58075587D01*
X94475136Y-57916453D01*
X94475137Y-57916451D01*
X94477430Y-57911811D01*
X94518533Y-57776525D01*
X94540865Y-57703023D01*
X94540865Y-57703021D01*
X94542370Y-57698069D01*
X94571529Y-57476590D01*
X94573156Y-57410000D01*
X94554852Y-57187361D01*
X94500431Y-56970702D01*
X94411354Y-56765840D01*
X94319403Y-56623705D01*
X94292822Y-56582617D01*
X94292820Y-56582614D01*
X94290014Y-56578277D01*
X94139670Y-56413051D01*
X94135619Y-56409852D01*
X94135615Y-56409848D01*
X93968414Y-56277800D01*
X93968410Y-56277798D01*
X93964359Y-56274598D01*
X93923053Y-56251796D01*
X93873084Y-56201364D01*
X93858312Y-56131921D01*
X93883428Y-56065516D01*
X93910780Y-56038909D01*
X93962701Y-56001874D01*
X94089860Y-55911173D01*
X94100000Y-55901069D01*
X94244435Y-55757137D01*
X94248096Y-55753489D01*
X94269783Y-55723309D01*
X94375435Y-55576277D01*
X94378453Y-55572077D01*
X94424702Y-55478500D01*
X94475136Y-55376453D01*
X94475137Y-55376451D01*
X94477430Y-55371811D01*
X94539044Y-55169016D01*
X94540865Y-55163023D01*
X94540865Y-55163021D01*
X94542370Y-55158069D01*
X94571529Y-54936590D01*
X94573156Y-54870000D01*
X94554852Y-54647361D01*
X94535420Y-54570000D01*
X96536496Y-54570000D01*
X96556458Y-54759928D01*
X96615473Y-54941556D01*
X96710960Y-55106944D01*
X96715378Y-55111851D01*
X96715379Y-55111852D01*
X96766850Y-55169016D01*
X96838747Y-55248866D01*
X96993248Y-55361118D01*
X96999276Y-55363802D01*
X96999278Y-55363803D01*
X97161681Y-55436109D01*
X97167712Y-55438794D01*
X97261112Y-55458647D01*
X97348056Y-55477128D01*
X97348061Y-55477128D01*
X97354513Y-55478500D01*
X97545487Y-55478500D01*
X97551939Y-55477128D01*
X97551944Y-55477128D01*
X97638888Y-55458647D01*
X97732288Y-55438794D01*
X97738319Y-55436109D01*
X97900722Y-55363803D01*
X97900724Y-55363802D01*
X97906752Y-55361118D01*
X98061253Y-55248866D01*
X98133150Y-55169016D01*
X98184621Y-55111852D01*
X98184622Y-55111851D01*
X98189040Y-55106944D01*
X98284527Y-54941556D01*
X98343542Y-54759928D01*
X98363504Y-54570000D01*
X98358364Y-54521095D01*
X98344232Y-54386635D01*
X98344232Y-54386633D01*
X98343542Y-54380072D01*
X98284527Y-54198444D01*
X98189040Y-54033056D01*
X98170206Y-54012138D01*
X98065675Y-53896045D01*
X98065674Y-53896044D01*
X98061253Y-53891134D01*
X97906752Y-53778882D01*
X97900724Y-53776198D01*
X97900722Y-53776197D01*
X97738319Y-53703891D01*
X97738318Y-53703891D01*
X97732288Y-53701206D01*
X97638887Y-53681353D01*
X97551944Y-53662872D01*
X97551939Y-53662872D01*
X97545487Y-53661500D01*
X97354513Y-53661500D01*
X97348061Y-53662872D01*
X97348056Y-53662872D01*
X97261113Y-53681353D01*
X97167712Y-53701206D01*
X97161682Y-53703891D01*
X97161681Y-53703891D01*
X96999278Y-53776197D01*
X96999276Y-53776198D01*
X96993248Y-53778882D01*
X96838747Y-53891134D01*
X96834326Y-53896044D01*
X96834325Y-53896045D01*
X96729795Y-54012138D01*
X96710960Y-54033056D01*
X96615473Y-54198444D01*
X96556458Y-54380072D01*
X96555768Y-54386633D01*
X96555768Y-54386635D01*
X96541636Y-54521095D01*
X96536496Y-54570000D01*
X94535420Y-54570000D01*
X94500431Y-54430702D01*
X94411354Y-54225840D01*
X94319403Y-54083705D01*
X94292822Y-54042617D01*
X94292820Y-54042614D01*
X94290014Y-54038277D01*
X94139670Y-53873051D01*
X94135619Y-53869852D01*
X94135615Y-53869848D01*
X93968414Y-53737800D01*
X93968410Y-53737798D01*
X93964359Y-53734598D01*
X93768789Y-53626638D01*
X93763920Y-53624914D01*
X93763916Y-53624912D01*
X93563087Y-53553795D01*
X93563083Y-53553794D01*
X93558212Y-53552069D01*
X93553119Y-53551162D01*
X93553116Y-53551161D01*
X93343373Y-53513800D01*
X93343367Y-53513799D01*
X93338284Y-53512894D01*
X93264452Y-53511992D01*
X93120081Y-53510228D01*
X93120079Y-53510228D01*
X93114911Y-53510165D01*
X92894091Y-53543955D01*
X92681756Y-53613357D01*
X92483607Y-53716507D01*
X92479474Y-53719610D01*
X92479471Y-53719612D01*
X92455247Y-53737800D01*
X92304965Y-53850635D01*
X92150629Y-54012138D01*
X92024743Y-54196680D01*
X92009003Y-54230590D01*
X91939616Y-54380072D01*
X91930688Y-54399305D01*
X91870989Y-54614570D01*
X91847251Y-54836695D01*
X91847548Y-54841848D01*
X91847548Y-54841851D01*
X91852935Y-54935271D01*
X91860110Y-55059715D01*
X91861247Y-55064761D01*
X91861248Y-55064767D01*
X91881119Y-55152939D01*
X91909222Y-55277639D01*
X91947461Y-55371811D01*
X91990783Y-55478500D01*
X91993266Y-55484616D01*
X92109987Y-55675088D01*
X92256250Y-55843938D01*
X92428126Y-55986632D01*
X92459349Y-56004877D01*
X92501445Y-56029476D01*
X92550169Y-56081114D01*
X92563240Y-56150897D01*
X92536509Y-56216669D01*
X92496055Y-56250027D01*
X92483607Y-56256507D01*
X92479474Y-56259610D01*
X92479471Y-56259612D01*
X92313787Y-56384011D01*
X92304965Y-56390635D01*
X92301393Y-56394373D01*
X92166661Y-56535362D01*
X92150629Y-56552138D01*
X92147715Y-56556410D01*
X92147714Y-56556411D01*
X92135404Y-56574457D01*
X92024743Y-56736680D01*
X91930688Y-56939305D01*
X91870989Y-57154570D01*
X91847251Y-57376695D01*
X90433500Y-57376695D01*
X90433500Y-51505469D01*
X103412095Y-51505469D01*
X103412392Y-51510622D01*
X103412392Y-51510625D01*
X103418067Y-51609041D01*
X103425427Y-51736697D01*
X103426564Y-51741743D01*
X103426565Y-51741749D01*
X103458741Y-51884523D01*
X103476346Y-51962642D01*
X103478288Y-51967424D01*
X103478289Y-51967428D01*
X103523042Y-52077640D01*
X103563484Y-52177237D01*
X103684501Y-52374719D01*
X103836147Y-52549784D01*
X104014349Y-52697730D01*
X104214322Y-52814584D01*
X104430694Y-52897209D01*
X104435760Y-52898240D01*
X104435761Y-52898240D01*
X104488846Y-52909040D01*
X104657656Y-52943385D01*
X104788324Y-52948176D01*
X104883949Y-52951683D01*
X104883953Y-52951683D01*
X104889113Y-52951872D01*
X104894233Y-52951216D01*
X104894235Y-52951216D01*
X104967270Y-52941860D01*
X105118847Y-52922442D01*
X105123795Y-52920957D01*
X105123802Y-52920956D01*
X105335747Y-52857369D01*
X105340690Y-52855886D01*
X105421236Y-52816427D01*
X105544049Y-52756262D01*
X105544052Y-52756260D01*
X105548684Y-52753991D01*
X105737243Y-52619494D01*
X105901303Y-52456005D01*
X106036458Y-52267917D01*
X106083641Y-52172450D01*
X106136784Y-52064922D01*
X106136785Y-52064920D01*
X106139078Y-52060280D01*
X106206408Y-51838671D01*
X106236640Y-51609041D01*
X106238110Y-51548870D01*
X106238245Y-51543365D01*
X106238245Y-51543361D01*
X106238327Y-51540000D01*
X106224013Y-51365892D01*
X106219773Y-51314318D01*
X106219772Y-51314312D01*
X106219349Y-51309167D01*
X106186693Y-51179157D01*
X106164184Y-51089544D01*
X106164183Y-51089540D01*
X106162925Y-51084533D01*
X106160866Y-51079797D01*
X106072630Y-50876868D01*
X106072628Y-50876865D01*
X106070570Y-50872131D01*
X105944764Y-50677665D01*
X105915311Y-50645296D01*
X105854848Y-50578848D01*
X105823796Y-50515002D01*
X105832192Y-50444504D01*
X105877369Y-50389736D01*
X105903812Y-50376067D01*
X105963297Y-50353767D01*
X105971705Y-50350615D01*
X106088261Y-50263261D01*
X106175615Y-50146705D01*
X106226745Y-50010316D01*
X106233500Y-49948134D01*
X106233500Y-48051866D01*
X106226745Y-47989684D01*
X106175615Y-47853295D01*
X106088261Y-47736739D01*
X105971705Y-47649385D01*
X105835316Y-47598255D01*
X105773134Y-47591500D01*
X103876866Y-47591500D01*
X103814684Y-47598255D01*
X103678295Y-47649385D01*
X103561739Y-47736739D01*
X103474385Y-47853295D01*
X103423255Y-47989684D01*
X103416500Y-48051866D01*
X103416500Y-49948134D01*
X103423255Y-50010316D01*
X103474385Y-50146705D01*
X103561739Y-50263261D01*
X103678295Y-50350615D01*
X103686704Y-50353767D01*
X103686705Y-50353768D01*
X103746164Y-50376058D01*
X103802929Y-50418699D01*
X103827629Y-50485261D01*
X103812422Y-50554609D01*
X103793029Y-50581091D01*
X103726639Y-50650564D01*
X103723725Y-50654836D01*
X103723724Y-50654837D01*
X103708152Y-50677665D01*
X103596119Y-50841899D01*
X103498602Y-51051981D01*
X103436707Y-51275169D01*
X103412095Y-51505469D01*
X90433500Y-51505469D01*
X90433500Y-45053250D01*
X90435246Y-45032345D01*
X90437770Y-45017344D01*
X90437770Y-45017341D01*
X90438576Y-45012552D01*
X90438729Y-45000000D01*
X90438039Y-44995184D01*
X90438039Y-44995178D01*
X90437073Y-44988434D01*
X91686661Y-44988434D01*
X91704792Y-45346340D01*
X91705329Y-45349695D01*
X91705330Y-45349701D01*
X91726226Y-45480156D01*
X91761470Y-45700195D01*
X91856033Y-46045859D01*
X91987374Y-46379288D01*
X92153957Y-46696582D01*
X92155858Y-46699411D01*
X92155864Y-46699421D01*
X92339569Y-46972800D01*
X92353834Y-46994029D01*
X92584665Y-47268150D01*
X92843751Y-47515738D01*
X93128061Y-47733897D01*
X93160056Y-47753350D01*
X93431355Y-47918303D01*
X93431360Y-47918306D01*
X93434270Y-47920075D01*
X93437358Y-47921521D01*
X93437357Y-47921521D01*
X93755710Y-48070649D01*
X93755720Y-48070653D01*
X93758794Y-48072093D01*
X93762012Y-48073195D01*
X93762015Y-48073196D01*
X94094615Y-48187071D01*
X94094623Y-48187073D01*
X94097838Y-48188174D01*
X94447435Y-48266959D01*
X94499728Y-48272917D01*
X94800114Y-48307142D01*
X94800122Y-48307142D01*
X94803497Y-48307527D01*
X94806901Y-48307545D01*
X94806904Y-48307545D01*
X95001227Y-48308562D01*
X95161857Y-48309403D01*
X95165243Y-48309053D01*
X95165245Y-48309053D01*
X95514932Y-48272917D01*
X95514941Y-48272916D01*
X95518324Y-48272566D01*
X95521657Y-48271852D01*
X95521660Y-48271851D01*
X95718607Y-48229629D01*
X95868727Y-48197446D01*
X96208968Y-48084922D01*
X96535066Y-47936311D01*
X96715601Y-47829117D01*
X96840262Y-47755099D01*
X96840267Y-47755096D01*
X96843207Y-47753350D01*
X97129786Y-47538180D01*
X97391451Y-47293319D01*
X97625140Y-47021630D01*
X97731750Y-46866512D01*
X97826190Y-46729101D01*
X97826195Y-46729094D01*
X97828120Y-46726292D01*
X97829732Y-46723298D01*
X97829737Y-46723290D01*
X97996395Y-46413772D01*
X97998017Y-46410760D01*
X98132842Y-46078724D01*
X98143142Y-46042568D01*
X98203548Y-45830509D01*
X98231020Y-45734070D01*
X98270095Y-45505471D01*
X98290829Y-45384175D01*
X98290829Y-45384173D01*
X98291401Y-45380828D01*
X98293511Y-45346340D01*
X98313168Y-45024928D01*
X98313278Y-45023131D01*
X98313316Y-45012265D01*
X98313353Y-45001819D01*
X98313353Y-45001806D01*
X98313359Y-45000000D01*
X98293979Y-44642159D01*
X98236066Y-44288505D01*
X98140297Y-43943173D01*
X98137243Y-43935497D01*
X98009052Y-43613369D01*
X98007793Y-43610205D01*
X97919483Y-43443416D01*
X97841702Y-43296513D01*
X97841698Y-43296506D01*
X97840103Y-43293494D01*
X97639190Y-42996746D01*
X97619597Y-42973642D01*
X97416104Y-42733692D01*
X97407403Y-42723432D01*
X97147454Y-42476750D01*
X96871888Y-42266825D01*
X96865091Y-42261647D01*
X96865089Y-42261646D01*
X96862384Y-42259585D01*
X96859472Y-42257828D01*
X96859467Y-42257825D01*
X96558443Y-42076236D01*
X96558437Y-42076233D01*
X96555528Y-42074478D01*
X96230475Y-41923593D01*
X96016143Y-41851046D01*
X95894255Y-41809789D01*
X95894250Y-41809788D01*
X95891028Y-41808697D01*
X95692681Y-41764724D01*
X95544493Y-41731871D01*
X95544487Y-41731870D01*
X95541158Y-41731132D01*
X95537769Y-41730758D01*
X95537764Y-41730757D01*
X95188338Y-41692180D01*
X95188333Y-41692180D01*
X95184957Y-41691807D01*
X95181558Y-41691801D01*
X95181557Y-41691801D01*
X95012080Y-41691505D01*
X94826592Y-41691182D01*
X94713413Y-41703277D01*
X94473639Y-41728901D01*
X94473631Y-41728902D01*
X94470256Y-41729263D01*
X94120117Y-41805606D01*
X93780271Y-41919317D01*
X93777178Y-41920739D01*
X93777177Y-41920740D01*
X93770974Y-41923593D01*
X93454694Y-42069066D01*
X93451760Y-42070822D01*
X93451758Y-42070823D01*
X93323769Y-42147423D01*
X93147193Y-42253101D01*
X93144467Y-42255163D01*
X93144465Y-42255164D01*
X92869409Y-42463188D01*
X92861367Y-42469270D01*
X92600559Y-42715043D01*
X92598347Y-42717633D01*
X92598345Y-42717635D01*
X92577931Y-42741537D01*
X92367819Y-42987546D01*
X92365900Y-42990358D01*
X92365897Y-42990363D01*
X92314633Y-43065514D01*
X92165871Y-43283591D01*
X91997077Y-43599714D01*
X91863411Y-43932218D01*
X91862491Y-43935492D01*
X91862489Y-43935497D01*
X91784630Y-44212490D01*
X91766437Y-44277213D01*
X91707290Y-44630663D01*
X91686661Y-44988434D01*
X90437073Y-44988434D01*
X90436387Y-44983644D01*
X90435234Y-44960284D01*
X90442364Y-44796996D01*
X90450637Y-44607498D01*
X90451595Y-44596549D01*
X90502157Y-44212490D01*
X90504066Y-44201664D01*
X90587910Y-43823472D01*
X90590755Y-43812855D01*
X90668267Y-43567017D01*
X90707241Y-43443408D01*
X90710997Y-43433087D01*
X90727085Y-43394248D01*
X90859246Y-43075181D01*
X90863879Y-43065246D01*
X91042759Y-42721622D01*
X91048249Y-42712113D01*
X91256383Y-42385408D01*
X91262687Y-42376404D01*
X91446128Y-42137339D01*
X91498516Y-42069066D01*
X91505579Y-42060649D01*
X91767284Y-41775049D01*
X91775053Y-41767280D01*
X91816542Y-41729263D01*
X92060652Y-41505577D01*
X92069069Y-41498513D01*
X92376404Y-41262687D01*
X92385408Y-41256383D01*
X92712113Y-41048249D01*
X92721622Y-41042759D01*
X93065246Y-40863879D01*
X93075181Y-40859246D01*
X93433094Y-40710994D01*
X93443408Y-40707241D01*
X93790647Y-40597757D01*
X93812855Y-40590755D01*
X93823472Y-40587910D01*
X94201664Y-40504066D01*
X94212490Y-40502157D01*
X94596549Y-40451595D01*
X94607498Y-40450637D01*
X94956554Y-40435397D01*
X94981429Y-40436777D01*
X94993724Y-40438691D01*
X95002626Y-40437527D01*
X95002628Y-40437527D01*
X95021399Y-40435072D01*
X95025286Y-40434564D01*
X95041621Y-40433500D01*
X110382373Y-40433500D01*
X110450494Y-40453502D01*
G37*
%TD.AperFunction*%
%TD*%
M02*
