%TF.GenerationSoftware,KiCad,Pcbnew,(6.0.9)*%
%TF.CreationDate,2022-11-18T22:17:03-07:00*%
%TF.ProjectId,AQM,41514d2e-6b69-4636-9164-5f7063625858,rev?*%
%TF.SameCoordinates,Original*%
%TF.FileFunction,Legend,Bot*%
%TF.FilePolarity,Positive*%
%FSLAX46Y46*%
G04 Gerber Fmt 4.6, Leading zero omitted, Abs format (unit mm)*
G04 Created by KiCad (PCBNEW (6.0.9)) date 2022-11-18 22:17:03*
%MOMM*%
%LPD*%
G01*
G04 APERTURE LIST*
%ADD10C,0.150000*%
%ADD11C,0.120000*%
G04 APERTURE END LIST*
D10*
%TO.C,JP8*%
X139452380Y-79466666D02*
X140166666Y-79466666D01*
X140309523Y-79419047D01*
X140404761Y-79323809D01*
X140452380Y-79180952D01*
X140452380Y-79085714D01*
X140452380Y-79942857D02*
X139452380Y-79942857D01*
X139452380Y-80323809D01*
X139500000Y-80419047D01*
X139547619Y-80466666D01*
X139642857Y-80514285D01*
X139785714Y-80514285D01*
X139880952Y-80466666D01*
X139928571Y-80419047D01*
X139976190Y-80323809D01*
X139976190Y-79942857D01*
X139880952Y-81085714D02*
X139833333Y-80990476D01*
X139785714Y-80942857D01*
X139690476Y-80895238D01*
X139642857Y-80895238D01*
X139547619Y-80942857D01*
X139500000Y-80990476D01*
X139452380Y-81085714D01*
X139452380Y-81276190D01*
X139500000Y-81371428D01*
X139547619Y-81419047D01*
X139642857Y-81466666D01*
X139690476Y-81466666D01*
X139785714Y-81419047D01*
X139833333Y-81371428D01*
X139880952Y-81276190D01*
X139880952Y-81085714D01*
X139928571Y-80990476D01*
X139976190Y-80942857D01*
X140071428Y-80895238D01*
X140261904Y-80895238D01*
X140357142Y-80942857D01*
X140404761Y-80990476D01*
X140452380Y-81085714D01*
X140452380Y-81276190D01*
X140404761Y-81371428D01*
X140357142Y-81419047D01*
X140261904Y-81466666D01*
X140071428Y-81466666D01*
X139976190Y-81419047D01*
X139928571Y-81371428D01*
X139880952Y-81276190D01*
%TO.C,JP5*%
X141388333Y-71307380D02*
X141388333Y-72021666D01*
X141435952Y-72164523D01*
X141531190Y-72259761D01*
X141674047Y-72307380D01*
X141769285Y-72307380D01*
X140912142Y-72307380D02*
X140912142Y-71307380D01*
X140531190Y-71307380D01*
X140435952Y-71355000D01*
X140388333Y-71402619D01*
X140340714Y-71497857D01*
X140340714Y-71640714D01*
X140388333Y-71735952D01*
X140435952Y-71783571D01*
X140531190Y-71831190D01*
X140912142Y-71831190D01*
X139435952Y-71307380D02*
X139912142Y-71307380D01*
X139959761Y-71783571D01*
X139912142Y-71735952D01*
X139816904Y-71688333D01*
X139578809Y-71688333D01*
X139483571Y-71735952D01*
X139435952Y-71783571D01*
X139388333Y-71878809D01*
X139388333Y-72116904D01*
X139435952Y-72212142D01*
X139483571Y-72259761D01*
X139578809Y-72307380D01*
X139816904Y-72307380D01*
X139912142Y-72259761D01*
X139959761Y-72212142D01*
%TO.C,JP12*%
X136907380Y-79005476D02*
X137621666Y-79005476D01*
X137764523Y-78957857D01*
X137859761Y-78862619D01*
X137907380Y-78719761D01*
X137907380Y-78624523D01*
X137907380Y-79481666D02*
X136907380Y-79481666D01*
X136907380Y-79862619D01*
X136955000Y-79957857D01*
X137002619Y-80005476D01*
X137097857Y-80053095D01*
X137240714Y-80053095D01*
X137335952Y-80005476D01*
X137383571Y-79957857D01*
X137431190Y-79862619D01*
X137431190Y-79481666D01*
X137907380Y-81005476D02*
X137907380Y-80434047D01*
X137907380Y-80719761D02*
X136907380Y-80719761D01*
X137050238Y-80624523D01*
X137145476Y-80529285D01*
X137193095Y-80434047D01*
X137002619Y-81386428D02*
X136955000Y-81434047D01*
X136907380Y-81529285D01*
X136907380Y-81767380D01*
X136955000Y-81862619D01*
X137002619Y-81910238D01*
X137097857Y-81957857D01*
X137193095Y-81957857D01*
X137335952Y-81910238D01*
X137907380Y-81338809D01*
X137907380Y-81957857D01*
%TO.C,JP6*%
X139237380Y-68376666D02*
X139951666Y-68376666D01*
X140094523Y-68329047D01*
X140189761Y-68233809D01*
X140237380Y-68090952D01*
X140237380Y-67995714D01*
X140237380Y-68852857D02*
X139237380Y-68852857D01*
X139237380Y-69233809D01*
X139285000Y-69329047D01*
X139332619Y-69376666D01*
X139427857Y-69424285D01*
X139570714Y-69424285D01*
X139665952Y-69376666D01*
X139713571Y-69329047D01*
X139761190Y-69233809D01*
X139761190Y-68852857D01*
X139237380Y-70281428D02*
X139237380Y-70090952D01*
X139285000Y-69995714D01*
X139332619Y-69948095D01*
X139475476Y-69852857D01*
X139665952Y-69805238D01*
X140046904Y-69805238D01*
X140142142Y-69852857D01*
X140189761Y-69900476D01*
X140237380Y-69995714D01*
X140237380Y-70186190D01*
X140189761Y-70281428D01*
X140142142Y-70329047D01*
X140046904Y-70376666D01*
X139808809Y-70376666D01*
X139713571Y-70329047D01*
X139665952Y-70281428D01*
X139618333Y-70186190D01*
X139618333Y-69995714D01*
X139665952Y-69900476D01*
X139713571Y-69852857D01*
X139808809Y-69805238D01*
%TO.C,JP4*%
X157233333Y-93052380D02*
X157233333Y-93766666D01*
X157280952Y-93909523D01*
X157376190Y-94004761D01*
X157519047Y-94052380D01*
X157614285Y-94052380D01*
X156757142Y-94052380D02*
X156757142Y-93052380D01*
X156376190Y-93052380D01*
X156280952Y-93100000D01*
X156233333Y-93147619D01*
X156185714Y-93242857D01*
X156185714Y-93385714D01*
X156233333Y-93480952D01*
X156280952Y-93528571D01*
X156376190Y-93576190D01*
X156757142Y-93576190D01*
X155328571Y-93385714D02*
X155328571Y-94052380D01*
X155566666Y-93004761D02*
X155804761Y-93719047D01*
X155185714Y-93719047D01*
%TO.C,JP1*%
X171677380Y-67996666D02*
X172391666Y-67996666D01*
X172534523Y-67949047D01*
X172629761Y-67853809D01*
X172677380Y-67710952D01*
X172677380Y-67615714D01*
X172677380Y-68472857D02*
X171677380Y-68472857D01*
X171677380Y-68853809D01*
X171725000Y-68949047D01*
X171772619Y-68996666D01*
X171867857Y-69044285D01*
X172010714Y-69044285D01*
X172105952Y-68996666D01*
X172153571Y-68949047D01*
X172201190Y-68853809D01*
X172201190Y-68472857D01*
X172677380Y-69996666D02*
X172677380Y-69425238D01*
X172677380Y-69710952D02*
X171677380Y-69710952D01*
X171820238Y-69615714D01*
X171915476Y-69520476D01*
X171963095Y-69425238D01*
%TO.C,JP9*%
X169152380Y-67991666D02*
X169866666Y-67991666D01*
X170009523Y-67944047D01*
X170104761Y-67848809D01*
X170152380Y-67705952D01*
X170152380Y-67610714D01*
X170152380Y-68467857D02*
X169152380Y-68467857D01*
X169152380Y-68848809D01*
X169200000Y-68944047D01*
X169247619Y-68991666D01*
X169342857Y-69039285D01*
X169485714Y-69039285D01*
X169580952Y-68991666D01*
X169628571Y-68944047D01*
X169676190Y-68848809D01*
X169676190Y-68467857D01*
X170152380Y-69515476D02*
X170152380Y-69705952D01*
X170104761Y-69801190D01*
X170057142Y-69848809D01*
X169914285Y-69944047D01*
X169723809Y-69991666D01*
X169342857Y-69991666D01*
X169247619Y-69944047D01*
X169200000Y-69896428D01*
X169152380Y-69801190D01*
X169152380Y-69610714D01*
X169200000Y-69515476D01*
X169247619Y-69467857D01*
X169342857Y-69420238D01*
X169580952Y-69420238D01*
X169676190Y-69467857D01*
X169723809Y-69515476D01*
X169771428Y-69610714D01*
X169771428Y-69801190D01*
X169723809Y-69896428D01*
X169676190Y-69944047D01*
X169580952Y-69991666D01*
%TO.C,JP10*%
X136702380Y-67890476D02*
X137416666Y-67890476D01*
X137559523Y-67842857D01*
X137654761Y-67747619D01*
X137702380Y-67604761D01*
X137702380Y-67509523D01*
X137702380Y-68366666D02*
X136702380Y-68366666D01*
X136702380Y-68747619D01*
X136750000Y-68842857D01*
X136797619Y-68890476D01*
X136892857Y-68938095D01*
X137035714Y-68938095D01*
X137130952Y-68890476D01*
X137178571Y-68842857D01*
X137226190Y-68747619D01*
X137226190Y-68366666D01*
X137702380Y-69890476D02*
X137702380Y-69319047D01*
X137702380Y-69604761D02*
X136702380Y-69604761D01*
X136845238Y-69509523D01*
X136940476Y-69414285D01*
X136988095Y-69319047D01*
X136702380Y-70509523D02*
X136702380Y-70604761D01*
X136750000Y-70700000D01*
X136797619Y-70747619D01*
X136892857Y-70795238D01*
X137083333Y-70842857D01*
X137321428Y-70842857D01*
X137511904Y-70795238D01*
X137607142Y-70747619D01*
X137654761Y-70700000D01*
X137702380Y-70604761D01*
X137702380Y-70509523D01*
X137654761Y-70414285D01*
X137607142Y-70366666D01*
X137511904Y-70319047D01*
X137321428Y-70271428D01*
X137083333Y-70271428D01*
X136892857Y-70319047D01*
X136797619Y-70366666D01*
X136750000Y-70414285D01*
X136702380Y-70509523D01*
%TO.C,JP2*%
X141373333Y-73167380D02*
X141373333Y-73881666D01*
X141420952Y-74024523D01*
X141516190Y-74119761D01*
X141659047Y-74167380D01*
X141754285Y-74167380D01*
X140897142Y-74167380D02*
X140897142Y-73167380D01*
X140516190Y-73167380D01*
X140420952Y-73215000D01*
X140373333Y-73262619D01*
X140325714Y-73357857D01*
X140325714Y-73500714D01*
X140373333Y-73595952D01*
X140420952Y-73643571D01*
X140516190Y-73691190D01*
X140897142Y-73691190D01*
X139944761Y-73262619D02*
X139897142Y-73215000D01*
X139801904Y-73167380D01*
X139563809Y-73167380D01*
X139468571Y-73215000D01*
X139420952Y-73262619D01*
X139373333Y-73357857D01*
X139373333Y-73453095D01*
X139420952Y-73595952D01*
X139992380Y-74167380D01*
X139373333Y-74167380D01*
%TO.C,JP7*%
X169302380Y-78766666D02*
X170016666Y-78766666D01*
X170159523Y-78719047D01*
X170254761Y-78623809D01*
X170302380Y-78480952D01*
X170302380Y-78385714D01*
X170302380Y-79242857D02*
X169302380Y-79242857D01*
X169302380Y-79623809D01*
X169350000Y-79719047D01*
X169397619Y-79766666D01*
X169492857Y-79814285D01*
X169635714Y-79814285D01*
X169730952Y-79766666D01*
X169778571Y-79719047D01*
X169826190Y-79623809D01*
X169826190Y-79242857D01*
X169302380Y-80147619D02*
X169302380Y-80814285D01*
X170302380Y-80385714D01*
%TO.C,JP3*%
X156833333Y-84552380D02*
X156833333Y-85266666D01*
X156880952Y-85409523D01*
X156976190Y-85504761D01*
X157119047Y-85552380D01*
X157214285Y-85552380D01*
X156357142Y-85552380D02*
X156357142Y-84552380D01*
X155976190Y-84552380D01*
X155880952Y-84600000D01*
X155833333Y-84647619D01*
X155785714Y-84742857D01*
X155785714Y-84885714D01*
X155833333Y-84980952D01*
X155880952Y-85028571D01*
X155976190Y-85076190D01*
X156357142Y-85076190D01*
X155452380Y-84552380D02*
X154833333Y-84552380D01*
X155166666Y-84933333D01*
X155023809Y-84933333D01*
X154928571Y-84980952D01*
X154880952Y-85028571D01*
X154833333Y-85123809D01*
X154833333Y-85361904D01*
X154880952Y-85457142D01*
X154928571Y-85504761D01*
X155023809Y-85552380D01*
X155309523Y-85552380D01*
X155404761Y-85504761D01*
X155452380Y-85457142D01*
%TO.C,JP11*%
X171852380Y-78290476D02*
X172566666Y-78290476D01*
X172709523Y-78242857D01*
X172804761Y-78147619D01*
X172852380Y-78004761D01*
X172852380Y-77909523D01*
X172852380Y-78766666D02*
X171852380Y-78766666D01*
X171852380Y-79147619D01*
X171900000Y-79242857D01*
X171947619Y-79290476D01*
X172042857Y-79338095D01*
X172185714Y-79338095D01*
X172280952Y-79290476D01*
X172328571Y-79242857D01*
X172376190Y-79147619D01*
X172376190Y-78766666D01*
X172852380Y-80290476D02*
X172852380Y-79719047D01*
X172852380Y-80004761D02*
X171852380Y-80004761D01*
X171995238Y-79909523D01*
X172090476Y-79814285D01*
X172138095Y-79719047D01*
X172852380Y-81242857D02*
X172852380Y-80671428D01*
X172852380Y-80957142D02*
X171852380Y-80957142D01*
X171995238Y-80861904D01*
X172090476Y-80766666D01*
X172138095Y-80671428D01*
D11*
%TO.C,JP8*%
X142800000Y-81700000D02*
X142800000Y-78900000D01*
X140800000Y-81700000D02*
X142800000Y-81700000D01*
X142800000Y-78900000D02*
X140800000Y-78900000D01*
X140800000Y-78900000D02*
X140800000Y-81700000D01*
%TO.C,JP5*%
X139155000Y-73980000D02*
X141955000Y-73980000D01*
X139155000Y-71980000D02*
X139155000Y-73980000D01*
X141955000Y-73980000D02*
X141955000Y-71980000D01*
X141955000Y-71980000D02*
X139155000Y-71980000D01*
%TO.C,JP12*%
X140255000Y-78915000D02*
X138255000Y-78915000D01*
X138255000Y-81715000D02*
X140255000Y-81715000D01*
X140255000Y-81715000D02*
X140255000Y-78915000D01*
X138255000Y-78915000D02*
X138255000Y-81715000D01*
%TO.C,JP6*%
X142585000Y-67810000D02*
X140585000Y-67810000D01*
X142585000Y-70610000D02*
X142585000Y-67810000D01*
X140585000Y-67810000D02*
X140585000Y-70610000D01*
X140585000Y-70610000D02*
X142585000Y-70610000D01*
%TO.C,JP4*%
X154950000Y-90600000D02*
X154950000Y-92600000D01*
X157750000Y-92600000D02*
X157750000Y-90600000D01*
X157750000Y-90600000D02*
X154950000Y-90600000D01*
X154950000Y-92600000D02*
X157750000Y-92600000D01*
%TO.C,JP1*%
X171425000Y-67430000D02*
X169425000Y-67430000D01*
X171425000Y-70230000D02*
X171425000Y-67430000D01*
X169425000Y-67430000D02*
X169425000Y-70230000D01*
X169425000Y-70230000D02*
X171425000Y-70230000D01*
%TO.C,JP9*%
X166900000Y-70225000D02*
X168900000Y-70225000D01*
X168900000Y-67425000D02*
X166900000Y-67425000D01*
X168900000Y-70225000D02*
X168900000Y-67425000D01*
X166900000Y-67425000D02*
X166900000Y-70225000D01*
%TO.C,JP10*%
X140050000Y-67800000D02*
X138050000Y-67800000D01*
X138050000Y-67800000D02*
X138050000Y-70600000D01*
X140050000Y-70600000D02*
X140050000Y-67800000D01*
X138050000Y-70600000D02*
X140050000Y-70600000D01*
%TO.C,JP2*%
X141940000Y-74515000D02*
X139140000Y-74515000D01*
X139140000Y-76515000D02*
X141940000Y-76515000D01*
X141940000Y-76515000D02*
X141940000Y-74515000D01*
X139140000Y-74515000D02*
X139140000Y-76515000D01*
%TO.C,JP7*%
X169050000Y-78200000D02*
X167050000Y-78200000D01*
X167050000Y-81000000D02*
X169050000Y-81000000D01*
X167050000Y-78200000D02*
X167050000Y-81000000D01*
X169050000Y-81000000D02*
X169050000Y-78200000D01*
%TO.C,JP3*%
X154950000Y-88100000D02*
X154950000Y-90100000D01*
X157750000Y-90100000D02*
X157750000Y-88100000D01*
X154950000Y-90100000D02*
X157750000Y-90100000D01*
X157750000Y-88100000D02*
X154950000Y-88100000D01*
%TO.C,JP11*%
X169600000Y-81000000D02*
X171600000Y-81000000D01*
X171600000Y-81000000D02*
X171600000Y-78200000D01*
X171600000Y-78200000D02*
X169600000Y-78200000D01*
X169600000Y-78200000D02*
X169600000Y-81000000D01*
%TD*%
M02*
