%TF.GenerationSoftware,KiCad,Pcbnew,(6.0.9)*%
%TF.CreationDate,2022-11-18T22:17:03-07:00*%
%TF.ProjectId,AQM,41514d2e-6b69-4636-9164-5f7063625858,rev?*%
%TF.SameCoordinates,Original*%
%TF.FileFunction,Paste,Top*%
%TF.FilePolarity,Positive*%
%FSLAX46Y46*%
G04 Gerber Fmt 4.6, Leading zero omitted, Abs format (unit mm)*
G04 Created by KiCad (PCBNEW (6.0.9)) date 2022-11-18 22:17:03*
%MOMM*%
%LPD*%
G01*
G04 APERTURE LIST*
G04 Aperture macros list*
%AMRoundRect*
0 Rectangle with rounded corners*
0 $1 Rounding radius*
0 $2 $3 $4 $5 $6 $7 $8 $9 X,Y pos of 4 corners*
0 Add a 4 corners polygon primitive as box body*
4,1,4,$2,$3,$4,$5,$6,$7,$8,$9,$2,$3,0*
0 Add four circle primitives for the rounded corners*
1,1,$1+$1,$2,$3*
1,1,$1+$1,$4,$5*
1,1,$1+$1,$6,$7*
1,1,$1+$1,$8,$9*
0 Add four rect primitives between the rounded corners*
20,1,$1+$1,$2,$3,$4,$5,0*
20,1,$1+$1,$4,$5,$6,$7,0*
20,1,$1+$1,$6,$7,$8,$9,0*
20,1,$1+$1,$8,$9,$2,$3,0*%
G04 Aperture macros list end*
%ADD10RoundRect,0.250000X0.475000X-0.250000X0.475000X0.250000X-0.475000X0.250000X-0.475000X-0.250000X0*%
%ADD11RoundRect,0.150000X-0.625000X0.150000X-0.625000X-0.150000X0.625000X-0.150000X0.625000X0.150000X0*%
%ADD12RoundRect,0.250000X-0.650000X0.350000X-0.650000X-0.350000X0.650000X-0.350000X0.650000X0.350000X0*%
%ADD13RoundRect,0.250000X-0.475000X0.250000X-0.475000X-0.250000X0.475000X-0.250000X0.475000X0.250000X0*%
%ADD14RoundRect,0.150000X0.625000X-0.150000X0.625000X0.150000X-0.625000X0.150000X-0.625000X-0.150000X0*%
%ADD15RoundRect,0.250000X0.650000X-0.350000X0.650000X0.350000X-0.650000X0.350000X-0.650000X-0.350000X0*%
%ADD16RoundRect,0.150000X0.150000X0.625000X-0.150000X0.625000X-0.150000X-0.625000X0.150000X-0.625000X0*%
%ADD17RoundRect,0.250000X0.350000X0.650000X-0.350000X0.650000X-0.350000X-0.650000X0.350000X-0.650000X0*%
%ADD18RoundRect,0.250000X-0.250000X-0.475000X0.250000X-0.475000X0.250000X0.475000X-0.250000X0.475000X0*%
%ADD19RoundRect,0.250000X0.262500X0.450000X-0.262500X0.450000X-0.262500X-0.450000X0.262500X-0.450000X0*%
G04 APERTURE END LIST*
D10*
%TO.C,C1*%
X167800000Y-61050000D03*
X167800000Y-59150000D03*
%TD*%
D11*
%TO.C,J1*%
X172975000Y-68300000D03*
X172975000Y-69300000D03*
X172975000Y-70300000D03*
X172975000Y-71300000D03*
D12*
X175500000Y-67000000D03*
X175500000Y-72600000D03*
%TD*%
D13*
%TO.C,C11*%
X139500000Y-81200000D03*
X139500000Y-79300000D03*
%TD*%
%TO.C,C3*%
X167800000Y-53950000D03*
X167800000Y-55850000D03*
%TD*%
%TO.C,C14*%
X141500000Y-81200000D03*
X141500000Y-79300000D03*
%TD*%
D14*
%TO.C,J5*%
X136525000Y-69650000D03*
X136525000Y-68650000D03*
X136525000Y-67650000D03*
X136525000Y-66650000D03*
D15*
X134000000Y-65350000D03*
X134000000Y-70950000D03*
%TD*%
D13*
%TO.C,C13*%
X138800000Y-68275000D03*
X138800000Y-70175000D03*
%TD*%
D12*
%TO.C,J4*%
X175700000Y-82800000D03*
X175700000Y-77200000D03*
D11*
X173175000Y-81500000D03*
X173175000Y-80500000D03*
X173175000Y-79500000D03*
X173175000Y-78500000D03*
%TD*%
D10*
%TO.C,C12*%
X168495000Y-80485000D03*
X168495000Y-78585000D03*
%TD*%
D14*
%TO.C,J3*%
X136625000Y-81050000D03*
X136625000Y-80050000D03*
X136625000Y-79050000D03*
X136625000Y-78050000D03*
D15*
X134100000Y-82350000D03*
X134100000Y-76750000D03*
%TD*%
D10*
%TO.C,C7*%
X168700000Y-69750000D03*
X168700000Y-67850000D03*
%TD*%
D16*
%TO.C,J2*%
X155900000Y-94200000D03*
X154900000Y-94200000D03*
X153900000Y-94200000D03*
X152900000Y-94200000D03*
D17*
X157200000Y-96725000D03*
X151600000Y-96725000D03*
%TD*%
D18*
%TO.C,C5*%
X155450000Y-91500000D03*
X157350000Y-91500000D03*
%TD*%
D19*
%TO.C,R2*%
X141455000Y-73280000D03*
X139630000Y-73280000D03*
%TD*%
%TO.C,R1*%
X142212500Y-64150000D03*
X140387500Y-64150000D03*
%TD*%
%TO.C,R3*%
X141460000Y-75205000D03*
X139635000Y-75205000D03*
%TD*%
D10*
%TO.C,C8*%
X170695000Y-69735000D03*
X170695000Y-67835000D03*
%TD*%
D13*
%TO.C,C10*%
X140795000Y-68260000D03*
X140795000Y-70160000D03*
%TD*%
D10*
%TO.C,C9*%
X170500000Y-80500000D03*
X170500000Y-78600000D03*
%TD*%
D18*
%TO.C,C6*%
X155450000Y-89500000D03*
X157350000Y-89500000D03*
%TD*%
D10*
%TO.C,C2*%
X169800000Y-61050000D03*
X169800000Y-59150000D03*
%TD*%
D13*
%TO.C,C4*%
X169800000Y-53950000D03*
X169800000Y-55850000D03*
%TD*%
M02*
