%TF.GenerationSoftware,KiCad,Pcbnew,(6.0.9)*%
%TF.CreationDate,2022-11-18T22:17:03-07:00*%
%TF.ProjectId,AQM,41514d2e-6b69-4636-9164-5f7063625858,rev?*%
%TF.SameCoordinates,Original*%
%TF.FileFunction,Copper,L3,Inr*%
%TF.FilePolarity,Positive*%
%FSLAX46Y46*%
G04 Gerber Fmt 4.6, Leading zero omitted, Abs format (unit mm)*
G04 Created by KiCad (PCBNEW (6.0.9)) date 2022-11-18 22:17:03*
%MOMM*%
%LPD*%
G01*
G04 APERTURE LIST*
%TA.AperFunction,ComponentPad*%
%ADD10C,5.600000*%
%TD*%
%TA.AperFunction,ComponentPad*%
%ADD11R,1.800000X1.800000*%
%TD*%
%TA.AperFunction,ComponentPad*%
%ADD12C,1.800000*%
%TD*%
%TA.AperFunction,ViaPad*%
%ADD13C,0.800000*%
%TD*%
G04 APERTURE END LIST*
D10*
%TO.N,GND*%
%TO.C,H4*%
X134000000Y-54000000D03*
%TD*%
%TO.N,GND*%
%TO.C,H3*%
X174000000Y-54000000D03*
%TD*%
%TO.N,GND*%
%TO.C,H2*%
X134000000Y-94000000D03*
%TD*%
%TO.N,GND*%
%TO.C,H1*%
X174000000Y-94000000D03*
%TD*%
D11*
%TO.N,GND*%
%TO.C,D1*%
X140775000Y-59500000D03*
D12*
%TO.N,Net-(D1-Pad2)*%
X138235000Y-59500000D03*
%TD*%
D13*
%TO.N,/I2C.SCL*%
X175100000Y-69050000D03*
X172900000Y-72350000D03*
%TO.N,Net-(C7-Pad1)*%
X169300000Y-70900000D03*
%TO.N,VBUS*%
X168805600Y-53844400D03*
X166705600Y-53844400D03*
%TO.N,+3V3*%
X168850000Y-61050000D03*
X166785600Y-61464400D03*
X170400000Y-66200000D03*
%TO.N,VBUS*%
X167900000Y-65950000D03*
X170600000Y-77200000D03*
%TO.N,+3V3*%
X168050000Y-77000000D03*
%TO.N,/I2C.SCL*%
X157100000Y-86000000D03*
X151300000Y-86000000D03*
%TO.N,VBUS*%
X159000000Y-91600000D03*
%TO.N,+3V3*%
X159000000Y-89000000D03*
%TO.N,Net-(C5-Pad1)*%
X155550000Y-88100000D03*
%TO.N,GND*%
X134250000Y-68800000D03*
X136800000Y-70900000D03*
X140600000Y-71550000D03*
%TO.N,+3V3*%
X137350000Y-72250000D03*
%TO.N,VBUS*%
X138700000Y-76300000D03*
%TO.N,+3V3*%
X141800000Y-82750000D03*
%TO.N,VBUS*%
X139250000Y-82750000D03*
%TO.N,/I2C.SDA*%
X149750000Y-74200000D03*
%TO.N,/I2C.SCL*%
X135305000Y-75205000D03*
X149570729Y-76364500D03*
%TO.N,Net-(C11-Pad1)*%
X140300000Y-78000000D03*
X135150000Y-80100000D03*
%TO.N,+3V3*%
X142250000Y-71200000D03*
%TO.N,VBUS*%
X138450000Y-71400000D03*
%TO.N,Net-(C10-Pad1)*%
X139850000Y-66700000D03*
%TO.N,/I2C.SDA*%
X134550000Y-78800000D03*
X135800000Y-72200000D03*
%TD*%
%TA.AperFunction,Conductor*%
%TO.N,VBUS*%
G36*
X173950633Y-49308500D02*
G01*
X173970018Y-49310000D01*
X173984851Y-49312310D01*
X173984855Y-49312310D01*
X173993724Y-49313691D01*
X174014183Y-49311016D01*
X174036007Y-49310072D01*
X174403396Y-49326113D01*
X174414345Y-49327071D01*
X174809227Y-49379057D01*
X174820032Y-49380963D01*
X175208885Y-49467170D01*
X175219495Y-49470013D01*
X175599345Y-49589779D01*
X175609658Y-49593532D01*
X175977647Y-49745958D01*
X175987582Y-49750591D01*
X176340878Y-49934506D01*
X176350386Y-49939995D01*
X176382363Y-49960367D01*
X176686289Y-50153989D01*
X176695293Y-50160293D01*
X177011282Y-50402759D01*
X177019685Y-50409811D01*
X177166515Y-50544356D01*
X177313335Y-50678893D01*
X177321107Y-50686665D01*
X177455645Y-50833486D01*
X177590189Y-50980315D01*
X177597241Y-50988718D01*
X177775419Y-51220925D01*
X177839707Y-51304707D01*
X177846011Y-51313711D01*
X178060004Y-51649613D01*
X178065494Y-51659122D01*
X178249400Y-52012400D01*
X178254042Y-52022353D01*
X178367603Y-52296513D01*
X178406465Y-52390334D01*
X178410224Y-52400663D01*
X178529987Y-52780504D01*
X178532830Y-52791115D01*
X178619037Y-53179968D01*
X178620943Y-53190773D01*
X178632765Y-53280571D01*
X178672929Y-53585655D01*
X178673887Y-53596604D01*
X178676025Y-53645561D01*
X178689603Y-53956552D01*
X178688223Y-53981429D01*
X178686309Y-53993724D01*
X178687473Y-54002626D01*
X178687473Y-54002628D01*
X178689441Y-54017677D01*
X178690390Y-54024928D01*
X178690436Y-54025283D01*
X178691500Y-54041621D01*
X178691501Y-93950634D01*
X178690001Y-93970019D01*
X178687691Y-93984852D01*
X178687691Y-93984856D01*
X178686310Y-93993725D01*
X178688985Y-94014184D01*
X178689929Y-94036008D01*
X178674873Y-94380828D01*
X178673888Y-94403396D01*
X178672930Y-94414345D01*
X178630838Y-94734070D01*
X178620944Y-94809220D01*
X178619036Y-94820037D01*
X178562414Y-95075446D01*
X178532833Y-95208878D01*
X178529988Y-95219496D01*
X178410225Y-95599337D01*
X178406466Y-95609666D01*
X178254047Y-95977638D01*
X178249405Y-95987591D01*
X178090253Y-96293319D01*
X178065501Y-96340868D01*
X178060005Y-96350388D01*
X177846007Y-96686298D01*
X177839702Y-96695302D01*
X177597248Y-97011273D01*
X177590183Y-97019693D01*
X177542167Y-97072093D01*
X177325034Y-97309053D01*
X177321109Y-97313336D01*
X177313336Y-97321109D01*
X177019693Y-97590183D01*
X177011273Y-97597248D01*
X176695302Y-97839702D01*
X176686298Y-97846007D01*
X176350388Y-98060005D01*
X176340869Y-98065500D01*
X175987591Y-98249405D01*
X175977647Y-98254043D01*
X175609658Y-98406469D01*
X175599345Y-98410222D01*
X175219496Y-98529988D01*
X175208879Y-98532833D01*
X174820037Y-98619036D01*
X174809228Y-98620943D01*
X174414346Y-98672930D01*
X174403397Y-98673888D01*
X174043447Y-98689604D01*
X174018572Y-98688224D01*
X174006277Y-98686310D01*
X173997375Y-98687474D01*
X173997373Y-98687474D01*
X173982324Y-98689442D01*
X173974715Y-98690437D01*
X173958380Y-98691501D01*
X134049366Y-98691501D01*
X134029981Y-98690001D01*
X134015148Y-98687691D01*
X134015144Y-98687691D01*
X134006275Y-98686310D01*
X133985816Y-98688985D01*
X133963992Y-98689929D01*
X133596603Y-98673888D01*
X133585654Y-98672930D01*
X133190772Y-98620943D01*
X133179963Y-98619036D01*
X132791121Y-98532833D01*
X132780504Y-98529988D01*
X132400655Y-98410222D01*
X132390342Y-98406469D01*
X132022353Y-98254043D01*
X132012409Y-98249405D01*
X131659131Y-98065500D01*
X131649612Y-98060005D01*
X131313702Y-97846007D01*
X131304698Y-97839702D01*
X130988727Y-97597248D01*
X130980307Y-97590183D01*
X130686664Y-97321109D01*
X130678891Y-97313336D01*
X130674967Y-97309053D01*
X130457833Y-97072093D01*
X130409817Y-97019693D01*
X130402752Y-97011273D01*
X130160298Y-96695302D01*
X130153993Y-96686298D01*
X129939995Y-96350388D01*
X129934499Y-96340868D01*
X129909747Y-96293319D01*
X129750595Y-95987591D01*
X129745953Y-95977638D01*
X129593534Y-95609666D01*
X129589775Y-95599337D01*
X129470012Y-95219496D01*
X129467167Y-95208878D01*
X129437586Y-95075446D01*
X129380964Y-94820037D01*
X129379056Y-94809220D01*
X129369163Y-94734070D01*
X129327070Y-94414345D01*
X129326112Y-94403396D01*
X129325127Y-94380828D01*
X129310396Y-94043447D01*
X129311776Y-94018567D01*
X129312309Y-94015147D01*
X129313690Y-94006277D01*
X129311357Y-93988434D01*
X130686661Y-93988434D01*
X130704792Y-94346340D01*
X130705329Y-94349695D01*
X130705330Y-94349701D01*
X130721112Y-94448230D01*
X130761470Y-94700195D01*
X130856033Y-95045859D01*
X130857282Y-95049029D01*
X130969398Y-95333652D01*
X130987374Y-95379288D01*
X131153957Y-95696582D01*
X131155858Y-95699411D01*
X131155864Y-95699421D01*
X131339569Y-95972800D01*
X131353834Y-95994029D01*
X131584665Y-96268150D01*
X131843751Y-96515738D01*
X132128061Y-96733897D01*
X132160056Y-96753350D01*
X132431355Y-96918303D01*
X132431360Y-96918306D01*
X132434270Y-96920075D01*
X132437358Y-96921521D01*
X132437357Y-96921521D01*
X132755710Y-97070649D01*
X132755720Y-97070653D01*
X132758794Y-97072093D01*
X132762012Y-97073195D01*
X132762015Y-97073196D01*
X133094615Y-97187071D01*
X133094623Y-97187073D01*
X133097838Y-97188174D01*
X133447435Y-97266959D01*
X133499728Y-97272917D01*
X133800114Y-97307142D01*
X133800122Y-97307142D01*
X133803497Y-97307527D01*
X133806901Y-97307545D01*
X133806904Y-97307545D01*
X134001227Y-97308562D01*
X134161857Y-97309403D01*
X134165243Y-97309053D01*
X134165245Y-97309053D01*
X134514932Y-97272917D01*
X134514941Y-97272916D01*
X134518324Y-97272566D01*
X134521657Y-97271852D01*
X134521660Y-97271851D01*
X134694186Y-97234864D01*
X134868727Y-97197446D01*
X135208968Y-97084922D01*
X135535066Y-96936311D01*
X135629052Y-96880506D01*
X135840262Y-96755099D01*
X135840267Y-96755096D01*
X135843207Y-96753350D01*
X136129786Y-96538180D01*
X136391451Y-96293319D01*
X136625140Y-96021630D01*
X136731750Y-95866512D01*
X136826190Y-95729101D01*
X136826195Y-95729094D01*
X136828120Y-95726292D01*
X136829732Y-95723298D01*
X136829737Y-95723290D01*
X136996395Y-95413772D01*
X136998017Y-95410760D01*
X137132842Y-95078724D01*
X137143142Y-95042568D01*
X137208060Y-94814671D01*
X137231020Y-94734070D01*
X137291401Y-94380828D01*
X137293511Y-94346340D01*
X137313168Y-94024928D01*
X137313278Y-94023131D01*
X137313359Y-94000000D01*
X137312733Y-93988434D01*
X170686661Y-93988434D01*
X170704792Y-94346340D01*
X170705329Y-94349695D01*
X170705330Y-94349701D01*
X170721112Y-94448230D01*
X170761470Y-94700195D01*
X170856033Y-95045859D01*
X170857282Y-95049029D01*
X170969398Y-95333652D01*
X170987374Y-95379288D01*
X171153957Y-95696582D01*
X171155858Y-95699411D01*
X171155864Y-95699421D01*
X171339569Y-95972800D01*
X171353834Y-95994029D01*
X171584665Y-96268150D01*
X171843751Y-96515738D01*
X172128061Y-96733897D01*
X172160056Y-96753350D01*
X172431355Y-96918303D01*
X172431360Y-96918306D01*
X172434270Y-96920075D01*
X172437358Y-96921521D01*
X172437357Y-96921521D01*
X172755710Y-97070649D01*
X172755720Y-97070653D01*
X172758794Y-97072093D01*
X172762012Y-97073195D01*
X172762015Y-97073196D01*
X173094615Y-97187071D01*
X173094623Y-97187073D01*
X173097838Y-97188174D01*
X173447435Y-97266959D01*
X173499728Y-97272917D01*
X173800114Y-97307142D01*
X173800122Y-97307142D01*
X173803497Y-97307527D01*
X173806901Y-97307545D01*
X173806904Y-97307545D01*
X174001227Y-97308562D01*
X174161857Y-97309403D01*
X174165243Y-97309053D01*
X174165245Y-97309053D01*
X174514932Y-97272917D01*
X174514941Y-97272916D01*
X174518324Y-97272566D01*
X174521657Y-97271852D01*
X174521660Y-97271851D01*
X174694186Y-97234864D01*
X174868727Y-97197446D01*
X175208968Y-97084922D01*
X175535066Y-96936311D01*
X175629052Y-96880506D01*
X175840262Y-96755099D01*
X175840267Y-96755096D01*
X175843207Y-96753350D01*
X176129786Y-96538180D01*
X176391451Y-96293319D01*
X176625140Y-96021630D01*
X176731750Y-95866512D01*
X176826190Y-95729101D01*
X176826195Y-95729094D01*
X176828120Y-95726292D01*
X176829732Y-95723298D01*
X176829737Y-95723290D01*
X176996395Y-95413772D01*
X176998017Y-95410760D01*
X177132842Y-95078724D01*
X177143142Y-95042568D01*
X177208060Y-94814671D01*
X177231020Y-94734070D01*
X177291401Y-94380828D01*
X177293511Y-94346340D01*
X177313168Y-94024928D01*
X177313278Y-94023131D01*
X177313359Y-94000000D01*
X177293979Y-93642159D01*
X177236066Y-93288505D01*
X177140297Y-92943173D01*
X177137243Y-92935497D01*
X177009052Y-92613369D01*
X177007793Y-92610205D01*
X176977768Y-92553498D01*
X176841702Y-92296513D01*
X176841698Y-92296506D01*
X176840103Y-92293494D01*
X176639190Y-91996746D01*
X176407403Y-91723432D01*
X176147454Y-91476750D01*
X175862384Y-91259585D01*
X175859472Y-91257828D01*
X175859467Y-91257825D01*
X175558443Y-91076236D01*
X175558437Y-91076233D01*
X175555528Y-91074478D01*
X175230475Y-90923593D01*
X175060752Y-90866145D01*
X174894255Y-90809789D01*
X174894250Y-90809788D01*
X174891028Y-90808697D01*
X174692681Y-90764724D01*
X174544493Y-90731871D01*
X174544487Y-90731870D01*
X174541158Y-90731132D01*
X174537769Y-90730758D01*
X174537764Y-90730757D01*
X174188338Y-90692180D01*
X174188333Y-90692180D01*
X174184957Y-90691807D01*
X174181558Y-90691801D01*
X174181557Y-90691801D01*
X174012080Y-90691505D01*
X173826592Y-90691182D01*
X173713413Y-90703277D01*
X173473639Y-90728901D01*
X173473631Y-90728902D01*
X173470256Y-90729263D01*
X173120117Y-90805606D01*
X172780271Y-90919317D01*
X172777178Y-90920739D01*
X172777177Y-90920740D01*
X172770974Y-90923593D01*
X172454694Y-91069066D01*
X172147193Y-91253101D01*
X172144467Y-91255163D01*
X172144465Y-91255164D01*
X172138620Y-91259585D01*
X171861367Y-91469270D01*
X171600559Y-91715043D01*
X171367819Y-91987546D01*
X171365900Y-91990358D01*
X171365897Y-91990363D01*
X171272624Y-92127097D01*
X171165871Y-92283591D01*
X170997077Y-92599714D01*
X170863411Y-92932218D01*
X170862491Y-92935492D01*
X170862489Y-92935497D01*
X170860332Y-92943173D01*
X170766437Y-93277213D01*
X170707290Y-93630663D01*
X170686661Y-93988434D01*
X137312733Y-93988434D01*
X137293979Y-93642159D01*
X137236066Y-93288505D01*
X137140297Y-92943173D01*
X137137243Y-92935497D01*
X137009052Y-92613369D01*
X137007793Y-92610205D01*
X136977768Y-92553498D01*
X136841702Y-92296513D01*
X136841698Y-92296506D01*
X136840103Y-92293494D01*
X136639190Y-91996746D01*
X136407403Y-91723432D01*
X136147454Y-91476750D01*
X135862384Y-91259585D01*
X135859472Y-91257828D01*
X135859467Y-91257825D01*
X135558443Y-91076236D01*
X135558437Y-91076233D01*
X135555528Y-91074478D01*
X135230475Y-90923593D01*
X135060752Y-90866145D01*
X134894255Y-90809789D01*
X134894250Y-90809788D01*
X134891028Y-90808697D01*
X134692681Y-90764724D01*
X134544493Y-90731871D01*
X134544487Y-90731870D01*
X134541158Y-90731132D01*
X134537769Y-90730758D01*
X134537764Y-90730757D01*
X134188338Y-90692180D01*
X134188333Y-90692180D01*
X134184957Y-90691807D01*
X134181558Y-90691801D01*
X134181557Y-90691801D01*
X134012080Y-90691505D01*
X133826592Y-90691182D01*
X133713413Y-90703277D01*
X133473639Y-90728901D01*
X133473631Y-90728902D01*
X133470256Y-90729263D01*
X133120117Y-90805606D01*
X132780271Y-90919317D01*
X132777178Y-90920739D01*
X132777177Y-90920740D01*
X132770974Y-90923593D01*
X132454694Y-91069066D01*
X132147193Y-91253101D01*
X132144467Y-91255163D01*
X132144465Y-91255164D01*
X132138620Y-91259585D01*
X131861367Y-91469270D01*
X131600559Y-91715043D01*
X131367819Y-91987546D01*
X131365900Y-91990358D01*
X131365897Y-91990363D01*
X131272624Y-92127097D01*
X131165871Y-92283591D01*
X130997077Y-92599714D01*
X130863411Y-92932218D01*
X130862491Y-92935492D01*
X130862489Y-92935497D01*
X130860332Y-92943173D01*
X130766437Y-93277213D01*
X130707290Y-93630663D01*
X130686661Y-93988434D01*
X129311357Y-93988434D01*
X129309563Y-93974715D01*
X129308499Y-93958380D01*
X129308499Y-88100000D01*
X154636496Y-88100000D01*
X154656458Y-88289928D01*
X154715473Y-88471556D01*
X154810960Y-88636944D01*
X154938747Y-88778866D01*
X155093248Y-88891118D01*
X155099276Y-88893802D01*
X155099278Y-88893803D01*
X155261681Y-88966109D01*
X155267712Y-88968794D01*
X155361112Y-88988647D01*
X155448056Y-89007128D01*
X155448061Y-89007128D01*
X155454513Y-89008500D01*
X155645487Y-89008500D01*
X155651939Y-89007128D01*
X155651944Y-89007128D01*
X155685478Y-89000000D01*
X158086496Y-89000000D01*
X158106458Y-89189928D01*
X158165473Y-89371556D01*
X158260960Y-89536944D01*
X158388747Y-89678866D01*
X158543248Y-89791118D01*
X158549276Y-89793802D01*
X158549278Y-89793803D01*
X158711681Y-89866109D01*
X158717712Y-89868794D01*
X158811113Y-89888647D01*
X158898056Y-89907128D01*
X158898061Y-89907128D01*
X158904513Y-89908500D01*
X159095487Y-89908500D01*
X159101939Y-89907128D01*
X159101944Y-89907128D01*
X159188888Y-89888647D01*
X159282288Y-89868794D01*
X159288319Y-89866109D01*
X159450722Y-89793803D01*
X159450724Y-89793802D01*
X159456752Y-89791118D01*
X159611253Y-89678866D01*
X159739040Y-89536944D01*
X159834527Y-89371556D01*
X159893542Y-89189928D01*
X159913504Y-89000000D01*
X159893542Y-88810072D01*
X159834527Y-88628444D01*
X159739040Y-88463056D01*
X159611253Y-88321134D01*
X159456752Y-88208882D01*
X159450724Y-88206198D01*
X159450722Y-88206197D01*
X159288319Y-88133891D01*
X159288318Y-88133891D01*
X159282288Y-88131206D01*
X159166362Y-88106565D01*
X159101944Y-88092872D01*
X159101939Y-88092872D01*
X159095487Y-88091500D01*
X158904513Y-88091500D01*
X158898061Y-88092872D01*
X158898056Y-88092872D01*
X158833638Y-88106565D01*
X158717712Y-88131206D01*
X158711682Y-88133891D01*
X158711681Y-88133891D01*
X158549278Y-88206197D01*
X158549276Y-88206198D01*
X158543248Y-88208882D01*
X158388747Y-88321134D01*
X158260960Y-88463056D01*
X158165473Y-88628444D01*
X158106458Y-88810072D01*
X158086496Y-89000000D01*
X155685478Y-89000000D01*
X155738888Y-88988647D01*
X155832288Y-88968794D01*
X155838319Y-88966109D01*
X156000722Y-88893803D01*
X156000724Y-88893802D01*
X156006752Y-88891118D01*
X156161253Y-88778866D01*
X156289040Y-88636944D01*
X156384527Y-88471556D01*
X156443542Y-88289928D01*
X156463504Y-88100000D01*
X156443542Y-87910072D01*
X156384527Y-87728444D01*
X156289040Y-87563056D01*
X156161253Y-87421134D01*
X156006752Y-87308882D01*
X156000724Y-87306198D01*
X156000722Y-87306197D01*
X155838319Y-87233891D01*
X155838318Y-87233891D01*
X155832288Y-87231206D01*
X155738888Y-87211353D01*
X155651944Y-87192872D01*
X155651939Y-87192872D01*
X155645487Y-87191500D01*
X155454513Y-87191500D01*
X155448061Y-87192872D01*
X155448056Y-87192872D01*
X155361113Y-87211353D01*
X155267712Y-87231206D01*
X155261682Y-87233891D01*
X155261681Y-87233891D01*
X155099278Y-87306197D01*
X155099276Y-87306198D01*
X155093248Y-87308882D01*
X154938747Y-87421134D01*
X154810960Y-87563056D01*
X154715473Y-87728444D01*
X154656458Y-87910072D01*
X154636496Y-88100000D01*
X129308499Y-88100000D01*
X129308499Y-86000000D01*
X150386496Y-86000000D01*
X150406458Y-86189928D01*
X150465473Y-86371556D01*
X150560960Y-86536944D01*
X150688747Y-86678866D01*
X150843248Y-86791118D01*
X150849276Y-86793802D01*
X150849278Y-86793803D01*
X151011681Y-86866109D01*
X151017712Y-86868794D01*
X151111112Y-86888647D01*
X151198056Y-86907128D01*
X151198061Y-86907128D01*
X151204513Y-86908500D01*
X151395487Y-86908500D01*
X151401939Y-86907128D01*
X151401944Y-86907128D01*
X151488887Y-86888647D01*
X151582288Y-86868794D01*
X151588319Y-86866109D01*
X151750722Y-86793803D01*
X151750724Y-86793802D01*
X151756752Y-86791118D01*
X151911253Y-86678866D01*
X152039040Y-86536944D01*
X152134527Y-86371556D01*
X152193542Y-86189928D01*
X152213504Y-86000000D01*
X156186496Y-86000000D01*
X156206458Y-86189928D01*
X156265473Y-86371556D01*
X156360960Y-86536944D01*
X156488747Y-86678866D01*
X156643248Y-86791118D01*
X156649276Y-86793802D01*
X156649278Y-86793803D01*
X156811681Y-86866109D01*
X156817712Y-86868794D01*
X156911112Y-86888647D01*
X156998056Y-86907128D01*
X156998061Y-86907128D01*
X157004513Y-86908500D01*
X157195487Y-86908500D01*
X157201939Y-86907128D01*
X157201944Y-86907128D01*
X157288887Y-86888647D01*
X157382288Y-86868794D01*
X157388319Y-86866109D01*
X157550722Y-86793803D01*
X157550724Y-86793802D01*
X157556752Y-86791118D01*
X157711253Y-86678866D01*
X157839040Y-86536944D01*
X157934527Y-86371556D01*
X157993542Y-86189928D01*
X158013504Y-86000000D01*
X157993542Y-85810072D01*
X157934527Y-85628444D01*
X157839040Y-85463056D01*
X157711253Y-85321134D01*
X157556752Y-85208882D01*
X157550724Y-85206198D01*
X157550722Y-85206197D01*
X157388319Y-85133891D01*
X157388318Y-85133891D01*
X157382288Y-85131206D01*
X157288888Y-85111353D01*
X157201944Y-85092872D01*
X157201939Y-85092872D01*
X157195487Y-85091500D01*
X157004513Y-85091500D01*
X156998061Y-85092872D01*
X156998056Y-85092872D01*
X156911112Y-85111353D01*
X156817712Y-85131206D01*
X156811682Y-85133891D01*
X156811681Y-85133891D01*
X156649278Y-85206197D01*
X156649276Y-85206198D01*
X156643248Y-85208882D01*
X156488747Y-85321134D01*
X156360960Y-85463056D01*
X156265473Y-85628444D01*
X156206458Y-85810072D01*
X156186496Y-86000000D01*
X152213504Y-86000000D01*
X152193542Y-85810072D01*
X152134527Y-85628444D01*
X152039040Y-85463056D01*
X151911253Y-85321134D01*
X151756752Y-85208882D01*
X151750724Y-85206198D01*
X151750722Y-85206197D01*
X151588319Y-85133891D01*
X151588318Y-85133891D01*
X151582288Y-85131206D01*
X151488888Y-85111353D01*
X151401944Y-85092872D01*
X151401939Y-85092872D01*
X151395487Y-85091500D01*
X151204513Y-85091500D01*
X151198061Y-85092872D01*
X151198056Y-85092872D01*
X151111112Y-85111353D01*
X151017712Y-85131206D01*
X151011682Y-85133891D01*
X151011681Y-85133891D01*
X150849278Y-85206197D01*
X150849276Y-85206198D01*
X150843248Y-85208882D01*
X150688747Y-85321134D01*
X150560960Y-85463056D01*
X150465473Y-85628444D01*
X150406458Y-85810072D01*
X150386496Y-86000000D01*
X129308499Y-86000000D01*
X129308499Y-82750000D01*
X140886496Y-82750000D01*
X140906458Y-82939928D01*
X140965473Y-83121556D01*
X141060960Y-83286944D01*
X141188747Y-83428866D01*
X141343248Y-83541118D01*
X141349276Y-83543802D01*
X141349278Y-83543803D01*
X141511681Y-83616109D01*
X141517712Y-83618794D01*
X141611113Y-83638647D01*
X141698056Y-83657128D01*
X141698061Y-83657128D01*
X141704513Y-83658500D01*
X141895487Y-83658500D01*
X141901939Y-83657128D01*
X141901944Y-83657128D01*
X141988887Y-83638647D01*
X142082288Y-83618794D01*
X142088319Y-83616109D01*
X142250722Y-83543803D01*
X142250724Y-83543802D01*
X142256752Y-83541118D01*
X142411253Y-83428866D01*
X142539040Y-83286944D01*
X142634527Y-83121556D01*
X142693542Y-82939928D01*
X142713504Y-82750000D01*
X142693542Y-82560072D01*
X142634527Y-82378444D01*
X142539040Y-82213056D01*
X142411253Y-82071134D01*
X142256752Y-81958882D01*
X142250724Y-81956198D01*
X142250722Y-81956197D01*
X142088319Y-81883891D01*
X142088318Y-81883891D01*
X142082288Y-81881206D01*
X141988887Y-81861353D01*
X141901944Y-81842872D01*
X141901939Y-81842872D01*
X141895487Y-81841500D01*
X141704513Y-81841500D01*
X141698061Y-81842872D01*
X141698056Y-81842872D01*
X141611113Y-81861353D01*
X141517712Y-81881206D01*
X141511682Y-81883891D01*
X141511681Y-81883891D01*
X141349278Y-81956197D01*
X141349276Y-81956198D01*
X141343248Y-81958882D01*
X141188747Y-82071134D01*
X141060960Y-82213056D01*
X140965473Y-82378444D01*
X140906458Y-82560072D01*
X140886496Y-82750000D01*
X129308499Y-82750000D01*
X129308499Y-78800000D01*
X133636496Y-78800000D01*
X133656458Y-78989928D01*
X133715473Y-79171556D01*
X133810960Y-79336944D01*
X133938747Y-79478866D01*
X134093248Y-79591118D01*
X134099276Y-79593802D01*
X134099278Y-79593803D01*
X134222726Y-79648765D01*
X134276822Y-79694745D01*
X134297471Y-79762672D01*
X134291310Y-79802808D01*
X134256458Y-79910072D01*
X134236496Y-80100000D01*
X134256458Y-80289928D01*
X134315473Y-80471556D01*
X134410960Y-80636944D01*
X134538747Y-80778866D01*
X134693248Y-80891118D01*
X134699276Y-80893802D01*
X134699278Y-80893803D01*
X134861681Y-80966109D01*
X134867712Y-80968794D01*
X134961113Y-80988647D01*
X135048056Y-81007128D01*
X135048061Y-81007128D01*
X135054513Y-81008500D01*
X135245487Y-81008500D01*
X135251939Y-81007128D01*
X135251944Y-81007128D01*
X135338887Y-80988647D01*
X135432288Y-80968794D01*
X135438319Y-80966109D01*
X135600722Y-80893803D01*
X135600724Y-80893802D01*
X135606752Y-80891118D01*
X135761253Y-80778866D01*
X135889040Y-80636944D01*
X135984527Y-80471556D01*
X136043542Y-80289928D01*
X136063504Y-80100000D01*
X136043542Y-79910072D01*
X135984527Y-79728444D01*
X135889040Y-79563056D01*
X135761253Y-79421134D01*
X135606752Y-79308882D01*
X135600724Y-79306198D01*
X135600722Y-79306197D01*
X135477274Y-79251235D01*
X135423178Y-79205255D01*
X135402529Y-79137328D01*
X135408690Y-79097192D01*
X135441502Y-78996206D01*
X135443542Y-78989928D01*
X135463504Y-78800000D01*
X135451181Y-78682749D01*
X135444232Y-78616635D01*
X135444232Y-78616633D01*
X135443542Y-78610072D01*
X135384527Y-78428444D01*
X135289040Y-78263056D01*
X135161253Y-78121134D01*
X135006752Y-78008882D01*
X135000724Y-78006198D01*
X135000722Y-78006197D01*
X134986803Y-78000000D01*
X139386496Y-78000000D01*
X139387186Y-78006565D01*
X139399228Y-78121134D01*
X139406458Y-78189928D01*
X139465473Y-78371556D01*
X139560960Y-78536944D01*
X139688747Y-78678866D01*
X139843248Y-78791118D01*
X139849276Y-78793802D01*
X139849278Y-78793803D01*
X140011681Y-78866109D01*
X140017712Y-78868794D01*
X140111112Y-78888647D01*
X140198056Y-78907128D01*
X140198061Y-78907128D01*
X140204513Y-78908500D01*
X140395487Y-78908500D01*
X140401939Y-78907128D01*
X140401944Y-78907128D01*
X140488888Y-78888647D01*
X140582288Y-78868794D01*
X140588319Y-78866109D01*
X140750722Y-78793803D01*
X140750724Y-78793802D01*
X140756752Y-78791118D01*
X140911253Y-78678866D01*
X141039040Y-78536944D01*
X141134527Y-78371556D01*
X141193542Y-78189928D01*
X141200773Y-78121134D01*
X141212814Y-78006565D01*
X141213504Y-78000000D01*
X141193542Y-77810072D01*
X141134527Y-77628444D01*
X141039040Y-77463056D01*
X140911253Y-77321134D01*
X140812157Y-77249136D01*
X140762094Y-77212763D01*
X140762093Y-77212762D01*
X140756752Y-77208882D01*
X140750724Y-77206198D01*
X140750722Y-77206197D01*
X140588319Y-77133891D01*
X140588318Y-77133891D01*
X140582288Y-77131206D01*
X140488888Y-77111353D01*
X140401944Y-77092872D01*
X140401939Y-77092872D01*
X140395487Y-77091500D01*
X140204513Y-77091500D01*
X140198061Y-77092872D01*
X140198056Y-77092872D01*
X140111112Y-77111353D01*
X140017712Y-77131206D01*
X140011682Y-77133891D01*
X140011681Y-77133891D01*
X139849278Y-77206197D01*
X139849276Y-77206198D01*
X139843248Y-77208882D01*
X139837907Y-77212762D01*
X139837906Y-77212763D01*
X139787843Y-77249136D01*
X139688747Y-77321134D01*
X139560960Y-77463056D01*
X139465473Y-77628444D01*
X139406458Y-77810072D01*
X139386496Y-78000000D01*
X134986803Y-78000000D01*
X134838319Y-77933891D01*
X134838318Y-77933891D01*
X134832288Y-77931206D01*
X134738887Y-77911353D01*
X134651944Y-77892872D01*
X134651939Y-77892872D01*
X134645487Y-77891500D01*
X134454513Y-77891500D01*
X134448061Y-77892872D01*
X134448056Y-77892872D01*
X134361113Y-77911353D01*
X134267712Y-77931206D01*
X134261682Y-77933891D01*
X134261681Y-77933891D01*
X134099278Y-78006197D01*
X134099276Y-78006198D01*
X134093248Y-78008882D01*
X133938747Y-78121134D01*
X133810960Y-78263056D01*
X133715473Y-78428444D01*
X133656458Y-78610072D01*
X133655768Y-78616633D01*
X133655768Y-78616635D01*
X133648819Y-78682749D01*
X133636496Y-78800000D01*
X129308499Y-78800000D01*
X129308499Y-76364500D01*
X148657225Y-76364500D01*
X148657915Y-76371065D01*
X148668185Y-76468774D01*
X148677187Y-76554428D01*
X148736202Y-76736056D01*
X148831689Y-76901444D01*
X148959476Y-77043366D01*
X149025727Y-77091500D01*
X149078489Y-77129834D01*
X149113977Y-77155618D01*
X149120005Y-77158302D01*
X149120007Y-77158303D01*
X149233610Y-77208882D01*
X149288441Y-77233294D01*
X149381841Y-77253147D01*
X149468785Y-77271628D01*
X149468790Y-77271628D01*
X149475242Y-77273000D01*
X149666216Y-77273000D01*
X149672668Y-77271628D01*
X149672673Y-77271628D01*
X149759617Y-77253147D01*
X149853017Y-77233294D01*
X149907848Y-77208882D01*
X150021451Y-77158303D01*
X150021453Y-77158302D01*
X150027481Y-77155618D01*
X150062970Y-77129834D01*
X150115731Y-77091500D01*
X150181982Y-77043366D01*
X150221029Y-77000000D01*
X167136496Y-77000000D01*
X167156458Y-77189928D01*
X167215473Y-77371556D01*
X167310960Y-77536944D01*
X167438747Y-77678866D01*
X167593248Y-77791118D01*
X167599276Y-77793802D01*
X167599278Y-77793803D01*
X167650560Y-77816635D01*
X167767712Y-77868794D01*
X167861113Y-77888647D01*
X167948056Y-77907128D01*
X167948061Y-77907128D01*
X167954513Y-77908500D01*
X168145487Y-77908500D01*
X168151939Y-77907128D01*
X168151944Y-77907128D01*
X168238887Y-77888647D01*
X168332288Y-77868794D01*
X168449440Y-77816635D01*
X168500722Y-77793803D01*
X168500724Y-77793802D01*
X168506752Y-77791118D01*
X168661253Y-77678866D01*
X168789040Y-77536944D01*
X168884527Y-77371556D01*
X168943542Y-77189928D01*
X168963504Y-77000000D01*
X168953661Y-76906352D01*
X168944232Y-76816635D01*
X168944232Y-76816633D01*
X168943542Y-76810072D01*
X168884527Y-76628444D01*
X168789040Y-76463056D01*
X168661253Y-76321134D01*
X168506752Y-76208882D01*
X168500724Y-76206198D01*
X168500722Y-76206197D01*
X168338319Y-76133891D01*
X168338318Y-76133891D01*
X168332288Y-76131206D01*
X168238888Y-76111353D01*
X168151944Y-76092872D01*
X168151939Y-76092872D01*
X168145487Y-76091500D01*
X167954513Y-76091500D01*
X167948061Y-76092872D01*
X167948056Y-76092872D01*
X167861112Y-76111353D01*
X167767712Y-76131206D01*
X167761682Y-76133891D01*
X167761681Y-76133891D01*
X167599278Y-76206197D01*
X167599276Y-76206198D01*
X167593248Y-76208882D01*
X167438747Y-76321134D01*
X167310960Y-76463056D01*
X167215473Y-76628444D01*
X167156458Y-76810072D01*
X167155768Y-76816633D01*
X167155768Y-76816635D01*
X167146339Y-76906352D01*
X167136496Y-77000000D01*
X150221029Y-77000000D01*
X150309769Y-76901444D01*
X150405256Y-76736056D01*
X150464271Y-76554428D01*
X150473274Y-76468774D01*
X150483543Y-76371065D01*
X150484233Y-76364500D01*
X150464271Y-76174572D01*
X150405256Y-75992944D01*
X150309769Y-75827556D01*
X150181982Y-75685634D01*
X150027481Y-75573382D01*
X150021453Y-75570698D01*
X150021451Y-75570697D01*
X149859048Y-75498391D01*
X149859047Y-75498391D01*
X149853017Y-75495706D01*
X149759616Y-75475853D01*
X149672673Y-75457372D01*
X149672668Y-75457372D01*
X149666216Y-75456000D01*
X149475242Y-75456000D01*
X149468790Y-75457372D01*
X149468785Y-75457372D01*
X149381842Y-75475853D01*
X149288441Y-75495706D01*
X149282411Y-75498391D01*
X149282410Y-75498391D01*
X149120007Y-75570697D01*
X149120005Y-75570698D01*
X149113977Y-75573382D01*
X148959476Y-75685634D01*
X148831689Y-75827556D01*
X148736202Y-75992944D01*
X148677187Y-76174572D01*
X148657225Y-76364500D01*
X129308499Y-76364500D01*
X129308499Y-75205000D01*
X134391496Y-75205000D01*
X134411458Y-75394928D01*
X134470473Y-75576556D01*
X134565960Y-75741944D01*
X134693747Y-75883866D01*
X134848248Y-75996118D01*
X134854276Y-75998802D01*
X134854278Y-75998803D01*
X134855235Y-75999229D01*
X135022712Y-76073794D01*
X135116113Y-76093647D01*
X135203056Y-76112128D01*
X135203061Y-76112128D01*
X135209513Y-76113500D01*
X135400487Y-76113500D01*
X135406939Y-76112128D01*
X135406944Y-76112128D01*
X135493887Y-76093647D01*
X135587288Y-76073794D01*
X135754765Y-75999229D01*
X135755722Y-75998803D01*
X135755724Y-75998802D01*
X135761752Y-75996118D01*
X135916253Y-75883866D01*
X136044040Y-75741944D01*
X136139527Y-75576556D01*
X136198542Y-75394928D01*
X136218504Y-75205000D01*
X136198542Y-75015072D01*
X136139527Y-74833444D01*
X136044040Y-74668056D01*
X135916253Y-74526134D01*
X135761752Y-74413882D01*
X135755724Y-74411198D01*
X135755722Y-74411197D01*
X135593319Y-74338891D01*
X135593318Y-74338891D01*
X135587288Y-74336206D01*
X135493887Y-74316353D01*
X135406944Y-74297872D01*
X135406939Y-74297872D01*
X135400487Y-74296500D01*
X135209513Y-74296500D01*
X135203061Y-74297872D01*
X135203056Y-74297872D01*
X135116113Y-74316353D01*
X135022712Y-74336206D01*
X135016682Y-74338891D01*
X135016681Y-74338891D01*
X134854278Y-74411197D01*
X134854276Y-74411198D01*
X134848248Y-74413882D01*
X134693747Y-74526134D01*
X134565960Y-74668056D01*
X134470473Y-74833444D01*
X134411458Y-75015072D01*
X134391496Y-75205000D01*
X129308499Y-75205000D01*
X129308499Y-74200000D01*
X148836496Y-74200000D01*
X148856458Y-74389928D01*
X148915473Y-74571556D01*
X149010960Y-74736944D01*
X149138747Y-74878866D01*
X149293248Y-74991118D01*
X149299276Y-74993802D01*
X149299278Y-74993803D01*
X149461681Y-75066109D01*
X149467712Y-75068794D01*
X149561113Y-75088647D01*
X149648056Y-75107128D01*
X149648061Y-75107128D01*
X149654513Y-75108500D01*
X149845487Y-75108500D01*
X149851939Y-75107128D01*
X149851944Y-75107128D01*
X149938887Y-75088647D01*
X150032288Y-75068794D01*
X150038319Y-75066109D01*
X150200722Y-74993803D01*
X150200724Y-74993802D01*
X150206752Y-74991118D01*
X150361253Y-74878866D01*
X150489040Y-74736944D01*
X150584527Y-74571556D01*
X150643542Y-74389928D01*
X150663504Y-74200000D01*
X150643542Y-74010072D01*
X150584527Y-73828444D01*
X150489040Y-73663056D01*
X150361253Y-73521134D01*
X150206752Y-73408882D01*
X150200724Y-73406198D01*
X150200722Y-73406197D01*
X150038319Y-73333891D01*
X150038318Y-73333891D01*
X150032288Y-73331206D01*
X149938887Y-73311353D01*
X149851944Y-73292872D01*
X149851939Y-73292872D01*
X149845487Y-73291500D01*
X149654513Y-73291500D01*
X149648061Y-73292872D01*
X149648056Y-73292872D01*
X149561113Y-73311353D01*
X149467712Y-73331206D01*
X149461682Y-73333891D01*
X149461681Y-73333891D01*
X149299278Y-73406197D01*
X149299276Y-73406198D01*
X149293248Y-73408882D01*
X149138747Y-73521134D01*
X149010960Y-73663056D01*
X148915473Y-73828444D01*
X148856458Y-74010072D01*
X148836496Y-74200000D01*
X129308499Y-74200000D01*
X129308499Y-72200000D01*
X134886496Y-72200000D01*
X134906458Y-72389928D01*
X134965473Y-72571556D01*
X135060960Y-72736944D01*
X135065378Y-72741851D01*
X135065379Y-72741852D01*
X135110399Y-72791852D01*
X135188747Y-72878866D01*
X135343248Y-72991118D01*
X135349276Y-72993802D01*
X135349278Y-72993803D01*
X135436753Y-73032749D01*
X135517712Y-73068794D01*
X135611113Y-73088647D01*
X135698056Y-73107128D01*
X135698061Y-73107128D01*
X135704513Y-73108500D01*
X135895487Y-73108500D01*
X135901939Y-73107128D01*
X135901944Y-73107128D01*
X135988887Y-73088647D01*
X136082288Y-73068794D01*
X136163247Y-73032749D01*
X136250722Y-72993803D01*
X136250724Y-72993802D01*
X136256752Y-72991118D01*
X136411253Y-72878866D01*
X136458855Y-72825998D01*
X136519300Y-72788760D01*
X136590284Y-72790112D01*
X136646126Y-72826000D01*
X136693727Y-72878866D01*
X136738747Y-72928866D01*
X136824429Y-72991118D01*
X136876385Y-73028866D01*
X136893248Y-73041118D01*
X136899276Y-73043802D01*
X136899278Y-73043803D01*
X137044591Y-73108500D01*
X137067712Y-73118794D01*
X137154479Y-73137237D01*
X137248056Y-73157128D01*
X137248061Y-73157128D01*
X137254513Y-73158500D01*
X137445487Y-73158500D01*
X137451939Y-73157128D01*
X137451944Y-73157128D01*
X137545521Y-73137237D01*
X137632288Y-73118794D01*
X137655409Y-73108500D01*
X137800722Y-73043803D01*
X137800724Y-73043802D01*
X137806752Y-73041118D01*
X137823616Y-73028866D01*
X137875571Y-72991118D01*
X137961253Y-72928866D01*
X138006273Y-72878866D01*
X138084621Y-72791852D01*
X138084622Y-72791851D01*
X138089040Y-72786944D01*
X138184527Y-72621556D01*
X138243542Y-72439928D01*
X138246046Y-72416109D01*
X138262814Y-72256565D01*
X138263504Y-72250000D01*
X138254052Y-72160072D01*
X138244232Y-72066635D01*
X138244232Y-72066633D01*
X138243542Y-72060072D01*
X138184527Y-71878444D01*
X138089040Y-71713056D01*
X138065793Y-71687237D01*
X137965675Y-71576045D01*
X137965674Y-71576044D01*
X137961253Y-71571134D01*
X137932165Y-71550000D01*
X139686496Y-71550000D01*
X139687186Y-71556565D01*
X139704235Y-71718774D01*
X139706458Y-71739928D01*
X139765473Y-71921556D01*
X139860960Y-72086944D01*
X139988747Y-72228866D01*
X140143248Y-72341118D01*
X140149276Y-72343802D01*
X140149278Y-72343803D01*
X140266978Y-72396206D01*
X140317712Y-72418794D01*
X140386263Y-72433365D01*
X140498056Y-72457128D01*
X140498061Y-72457128D01*
X140504513Y-72458500D01*
X140695487Y-72458500D01*
X140701939Y-72457128D01*
X140701944Y-72457128D01*
X140813737Y-72433365D01*
X140882288Y-72418794D01*
X140933022Y-72396206D01*
X141036803Y-72350000D01*
X171986496Y-72350000D01*
X171987186Y-72356565D01*
X171996608Y-72446206D01*
X172006458Y-72539928D01*
X172065473Y-72721556D01*
X172160960Y-72886944D01*
X172165378Y-72891851D01*
X172165379Y-72891852D01*
X172257176Y-72993803D01*
X172288747Y-73028866D01*
X172443248Y-73141118D01*
X172449276Y-73143802D01*
X172449278Y-73143803D01*
X172611681Y-73216109D01*
X172617712Y-73218794D01*
X172711112Y-73238647D01*
X172798056Y-73257128D01*
X172798061Y-73257128D01*
X172804513Y-73258500D01*
X172995487Y-73258500D01*
X173001939Y-73257128D01*
X173001944Y-73257128D01*
X173088888Y-73238647D01*
X173182288Y-73218794D01*
X173188319Y-73216109D01*
X173350722Y-73143803D01*
X173350724Y-73143802D01*
X173356752Y-73141118D01*
X173511253Y-73028866D01*
X173542824Y-72993803D01*
X173634621Y-72891852D01*
X173634622Y-72891851D01*
X173639040Y-72886944D01*
X173734527Y-72721556D01*
X173793542Y-72539928D01*
X173803393Y-72446206D01*
X173812814Y-72356565D01*
X173813504Y-72350000D01*
X173801181Y-72232749D01*
X173794232Y-72166635D01*
X173794232Y-72166633D01*
X173793542Y-72160072D01*
X173734527Y-71978444D01*
X173639040Y-71813056D01*
X173633703Y-71807128D01*
X173515675Y-71676045D01*
X173515674Y-71676044D01*
X173511253Y-71671134D01*
X173374196Y-71571556D01*
X173362094Y-71562763D01*
X173362093Y-71562762D01*
X173356752Y-71558882D01*
X173350724Y-71556198D01*
X173350722Y-71556197D01*
X173188319Y-71483891D01*
X173188318Y-71483891D01*
X173182288Y-71481206D01*
X173088888Y-71461353D01*
X173001944Y-71442872D01*
X173001939Y-71442872D01*
X172995487Y-71441500D01*
X172804513Y-71441500D01*
X172798061Y-71442872D01*
X172798056Y-71442872D01*
X172711112Y-71461353D01*
X172617712Y-71481206D01*
X172611682Y-71483891D01*
X172611681Y-71483891D01*
X172449278Y-71556197D01*
X172449276Y-71556198D01*
X172443248Y-71558882D01*
X172437907Y-71562762D01*
X172437906Y-71562763D01*
X172425804Y-71571556D01*
X172288747Y-71671134D01*
X172284326Y-71676044D01*
X172284325Y-71676045D01*
X172166298Y-71807128D01*
X172160960Y-71813056D01*
X172065473Y-71978444D01*
X172006458Y-72160072D01*
X172005768Y-72166633D01*
X172005768Y-72166635D01*
X171998819Y-72232749D01*
X171986496Y-72350000D01*
X141036803Y-72350000D01*
X141050722Y-72343803D01*
X141050724Y-72343802D01*
X141056752Y-72341118D01*
X141211253Y-72228866D01*
X141339040Y-72086944D01*
X141434527Y-71921556D01*
X141436110Y-71916684D01*
X141481733Y-71863009D01*
X141549660Y-71842359D01*
X141617968Y-71861711D01*
X141634671Y-71874339D01*
X141638747Y-71878866D01*
X141644089Y-71882747D01*
X141644091Y-71882749D01*
X141775804Y-71978444D01*
X141793248Y-71991118D01*
X141799276Y-71993802D01*
X141799278Y-71993803D01*
X141850560Y-72016635D01*
X141967712Y-72068794D01*
X142053101Y-72086944D01*
X142148056Y-72107128D01*
X142148061Y-72107128D01*
X142154513Y-72108500D01*
X142345487Y-72108500D01*
X142351939Y-72107128D01*
X142351944Y-72107128D01*
X142446899Y-72086944D01*
X142532288Y-72068794D01*
X142649440Y-72016635D01*
X142700722Y-71993803D01*
X142700724Y-71993802D01*
X142706752Y-71991118D01*
X142861253Y-71878866D01*
X142875531Y-71863009D01*
X142984621Y-71741852D01*
X142984622Y-71741851D01*
X142989040Y-71736944D01*
X143084527Y-71571556D01*
X143143542Y-71389928D01*
X143145807Y-71368384D01*
X143162814Y-71206565D01*
X143163504Y-71200000D01*
X143143542Y-71010072D01*
X143107777Y-70900000D01*
X168386496Y-70900000D01*
X168387186Y-70906565D01*
X168398980Y-71018774D01*
X168406458Y-71089928D01*
X168465473Y-71271556D01*
X168560960Y-71436944D01*
X168565378Y-71441851D01*
X168565379Y-71441852D01*
X168603231Y-71483891D01*
X168688747Y-71578866D01*
X168843248Y-71691118D01*
X168849276Y-71693802D01*
X168849278Y-71693803D01*
X168957199Y-71741852D01*
X169017712Y-71768794D01*
X169111113Y-71788647D01*
X169198056Y-71807128D01*
X169198061Y-71807128D01*
X169204513Y-71808500D01*
X169395487Y-71808500D01*
X169401939Y-71807128D01*
X169401944Y-71807128D01*
X169488887Y-71788647D01*
X169582288Y-71768794D01*
X169642801Y-71741852D01*
X169750722Y-71693803D01*
X169750724Y-71693802D01*
X169756752Y-71691118D01*
X169911253Y-71578866D01*
X169996769Y-71483891D01*
X170034621Y-71441852D01*
X170034622Y-71441851D01*
X170039040Y-71436944D01*
X170134527Y-71271556D01*
X170193542Y-71089928D01*
X170201021Y-71018774D01*
X170212814Y-70906565D01*
X170213504Y-70900000D01*
X170193542Y-70710072D01*
X170134527Y-70528444D01*
X170039040Y-70363056D01*
X169911253Y-70221134D01*
X169756752Y-70108882D01*
X169750724Y-70106198D01*
X169750722Y-70106197D01*
X169588319Y-70033891D01*
X169588318Y-70033891D01*
X169582288Y-70031206D01*
X169488888Y-70011353D01*
X169401944Y-69992872D01*
X169401939Y-69992872D01*
X169395487Y-69991500D01*
X169204513Y-69991500D01*
X169198061Y-69992872D01*
X169198056Y-69992872D01*
X169111112Y-70011353D01*
X169017712Y-70031206D01*
X169011682Y-70033891D01*
X169011681Y-70033891D01*
X168849278Y-70106197D01*
X168849276Y-70106198D01*
X168843248Y-70108882D01*
X168688747Y-70221134D01*
X168560960Y-70363056D01*
X168465473Y-70528444D01*
X168406458Y-70710072D01*
X168386496Y-70900000D01*
X143107777Y-70900000D01*
X143084527Y-70828444D01*
X142989040Y-70663056D01*
X142861253Y-70521134D01*
X142706752Y-70408882D01*
X142700724Y-70406198D01*
X142700722Y-70406197D01*
X142538319Y-70333891D01*
X142538318Y-70333891D01*
X142532288Y-70331206D01*
X142438887Y-70311353D01*
X142351944Y-70292872D01*
X142351939Y-70292872D01*
X142345487Y-70291500D01*
X142154513Y-70291500D01*
X142148061Y-70292872D01*
X142148056Y-70292872D01*
X142061113Y-70311353D01*
X141967712Y-70331206D01*
X141961682Y-70333891D01*
X141961681Y-70333891D01*
X141799278Y-70406197D01*
X141799276Y-70406198D01*
X141793248Y-70408882D01*
X141638747Y-70521134D01*
X141510960Y-70663056D01*
X141415473Y-70828444D01*
X141413890Y-70833316D01*
X141368267Y-70886991D01*
X141300340Y-70907641D01*
X141232032Y-70888289D01*
X141215329Y-70875661D01*
X141211253Y-70871134D01*
X141158624Y-70832896D01*
X141062094Y-70762763D01*
X141062093Y-70762762D01*
X141056752Y-70758882D01*
X141050724Y-70756198D01*
X141050722Y-70756197D01*
X140888319Y-70683891D01*
X140888318Y-70683891D01*
X140882288Y-70681206D01*
X140788888Y-70661353D01*
X140701944Y-70642872D01*
X140701939Y-70642872D01*
X140695487Y-70641500D01*
X140504513Y-70641500D01*
X140498061Y-70642872D01*
X140498056Y-70642872D01*
X140411112Y-70661353D01*
X140317712Y-70681206D01*
X140311682Y-70683891D01*
X140311681Y-70683891D01*
X140149278Y-70756197D01*
X140149276Y-70756198D01*
X140143248Y-70758882D01*
X139988747Y-70871134D01*
X139984326Y-70876044D01*
X139984325Y-70876045D01*
X139869300Y-71003794D01*
X139860960Y-71013056D01*
X139765473Y-71178444D01*
X139706458Y-71360072D01*
X139705768Y-71366633D01*
X139705768Y-71366635D01*
X139697900Y-71441500D01*
X139686496Y-71550000D01*
X137932165Y-71550000D01*
X137806752Y-71458882D01*
X137800726Y-71456199D01*
X137800719Y-71456195D01*
X137706763Y-71414364D01*
X137652667Y-71368384D01*
X137632017Y-71300457D01*
X137638178Y-71260321D01*
X137691502Y-71096206D01*
X137691503Y-71096202D01*
X137693542Y-71089928D01*
X137701021Y-71018774D01*
X137712814Y-70906565D01*
X137713504Y-70900000D01*
X137693542Y-70710072D01*
X137634527Y-70528444D01*
X137539040Y-70363056D01*
X137411253Y-70221134D01*
X137256752Y-70108882D01*
X137250724Y-70106198D01*
X137250722Y-70106197D01*
X137088319Y-70033891D01*
X137088318Y-70033891D01*
X137082288Y-70031206D01*
X136988888Y-70011353D01*
X136901944Y-69992872D01*
X136901939Y-69992872D01*
X136895487Y-69991500D01*
X136704513Y-69991500D01*
X136698061Y-69992872D01*
X136698056Y-69992872D01*
X136611112Y-70011353D01*
X136517712Y-70031206D01*
X136511682Y-70033891D01*
X136511681Y-70033891D01*
X136349278Y-70106197D01*
X136349276Y-70106198D01*
X136343248Y-70108882D01*
X136188747Y-70221134D01*
X136060960Y-70363056D01*
X135965473Y-70528444D01*
X135906458Y-70710072D01*
X135886496Y-70900000D01*
X135887186Y-70906565D01*
X135898980Y-71018774D01*
X135906458Y-71089928D01*
X135908497Y-71096202D01*
X135918362Y-71126563D01*
X135920390Y-71197531D01*
X135883728Y-71258329D01*
X135820016Y-71289654D01*
X135798529Y-71291500D01*
X135704513Y-71291500D01*
X135698061Y-71292872D01*
X135698056Y-71292872D01*
X135611611Y-71311247D01*
X135517712Y-71331206D01*
X135511682Y-71333891D01*
X135511681Y-71333891D01*
X135349278Y-71406197D01*
X135349276Y-71406198D01*
X135343248Y-71408882D01*
X135337907Y-71412762D01*
X135337906Y-71412763D01*
X135312494Y-71431226D01*
X135188747Y-71521134D01*
X135184326Y-71526044D01*
X135184325Y-71526045D01*
X135154759Y-71558882D01*
X135060960Y-71663056D01*
X134965473Y-71828444D01*
X134906458Y-72010072D01*
X134905768Y-72016633D01*
X134905768Y-72016635D01*
X134897863Y-72091852D01*
X134886496Y-72200000D01*
X129308499Y-72200000D01*
X129308499Y-68800000D01*
X133336496Y-68800000D01*
X133337186Y-68806565D01*
X133343500Y-68866635D01*
X133356458Y-68989928D01*
X133415473Y-69171556D01*
X133510960Y-69336944D01*
X133638747Y-69478866D01*
X133793248Y-69591118D01*
X133799276Y-69593802D01*
X133799278Y-69593803D01*
X133961681Y-69666109D01*
X133967712Y-69668794D01*
X134061113Y-69688647D01*
X134148056Y-69707128D01*
X134148061Y-69707128D01*
X134154513Y-69708500D01*
X134345487Y-69708500D01*
X134351939Y-69707128D01*
X134351944Y-69707128D01*
X134438887Y-69688647D01*
X134532288Y-69668794D01*
X134538319Y-69666109D01*
X134700722Y-69593803D01*
X134700724Y-69593802D01*
X134706752Y-69591118D01*
X134861253Y-69478866D01*
X134989040Y-69336944D01*
X135084527Y-69171556D01*
X135124023Y-69050000D01*
X174186496Y-69050000D01*
X174206458Y-69239928D01*
X174265473Y-69421556D01*
X174360960Y-69586944D01*
X174488747Y-69728866D01*
X174643248Y-69841118D01*
X174649276Y-69843802D01*
X174649278Y-69843803D01*
X174811681Y-69916109D01*
X174817712Y-69918794D01*
X174911112Y-69938647D01*
X174998056Y-69957128D01*
X174998061Y-69957128D01*
X175004513Y-69958500D01*
X175195487Y-69958500D01*
X175201939Y-69957128D01*
X175201944Y-69957128D01*
X175288888Y-69938647D01*
X175382288Y-69918794D01*
X175388319Y-69916109D01*
X175550722Y-69843803D01*
X175550724Y-69843802D01*
X175556752Y-69841118D01*
X175711253Y-69728866D01*
X175839040Y-69586944D01*
X175934527Y-69421556D01*
X175993542Y-69239928D01*
X176013504Y-69050000D01*
X176007190Y-68989928D01*
X175994232Y-68866635D01*
X175994232Y-68866633D01*
X175993542Y-68860072D01*
X175934527Y-68678444D01*
X175839040Y-68513056D01*
X175711253Y-68371134D01*
X175556752Y-68258882D01*
X175550724Y-68256198D01*
X175550722Y-68256197D01*
X175388319Y-68183891D01*
X175388318Y-68183891D01*
X175382288Y-68181206D01*
X175288888Y-68161353D01*
X175201944Y-68142872D01*
X175201939Y-68142872D01*
X175195487Y-68141500D01*
X175004513Y-68141500D01*
X174998061Y-68142872D01*
X174998056Y-68142872D01*
X174911112Y-68161353D01*
X174817712Y-68181206D01*
X174811682Y-68183891D01*
X174811681Y-68183891D01*
X174649278Y-68256197D01*
X174649276Y-68256198D01*
X174643248Y-68258882D01*
X174488747Y-68371134D01*
X174360960Y-68513056D01*
X174265473Y-68678444D01*
X174206458Y-68860072D01*
X174205768Y-68866633D01*
X174205768Y-68866635D01*
X174192810Y-68989928D01*
X174186496Y-69050000D01*
X135124023Y-69050000D01*
X135143542Y-68989928D01*
X135156501Y-68866635D01*
X135162814Y-68806565D01*
X135163504Y-68800000D01*
X135143542Y-68610072D01*
X135084527Y-68428444D01*
X134989040Y-68263056D01*
X134861253Y-68121134D01*
X134706752Y-68008882D01*
X134700724Y-68006198D01*
X134700722Y-68006197D01*
X134538319Y-67933891D01*
X134538318Y-67933891D01*
X134532288Y-67931206D01*
X134438888Y-67911353D01*
X134351944Y-67892872D01*
X134351939Y-67892872D01*
X134345487Y-67891500D01*
X134154513Y-67891500D01*
X134148061Y-67892872D01*
X134148056Y-67892872D01*
X134061112Y-67911353D01*
X133967712Y-67931206D01*
X133961682Y-67933891D01*
X133961681Y-67933891D01*
X133799278Y-68006197D01*
X133799276Y-68006198D01*
X133793248Y-68008882D01*
X133638747Y-68121134D01*
X133510960Y-68263056D01*
X133415473Y-68428444D01*
X133356458Y-68610072D01*
X133336496Y-68800000D01*
X129308499Y-68800000D01*
X129308499Y-66700000D01*
X138936496Y-66700000D01*
X138956458Y-66889928D01*
X139015473Y-67071556D01*
X139018776Y-67077278D01*
X139018777Y-67077279D01*
X139036803Y-67108500D01*
X139110960Y-67236944D01*
X139238747Y-67378866D01*
X139393248Y-67491118D01*
X139399276Y-67493802D01*
X139399278Y-67493803D01*
X139561681Y-67566109D01*
X139567712Y-67568794D01*
X139661112Y-67588647D01*
X139748056Y-67607128D01*
X139748061Y-67607128D01*
X139754513Y-67608500D01*
X139945487Y-67608500D01*
X139951939Y-67607128D01*
X139951944Y-67607128D01*
X140038888Y-67588647D01*
X140132288Y-67568794D01*
X140138319Y-67566109D01*
X140300722Y-67493803D01*
X140300724Y-67493802D01*
X140306752Y-67491118D01*
X140461253Y-67378866D01*
X140589040Y-67236944D01*
X140663197Y-67108500D01*
X140681223Y-67077279D01*
X140681224Y-67077278D01*
X140684527Y-67071556D01*
X140743542Y-66889928D01*
X140763504Y-66700000D01*
X140743542Y-66510072D01*
X140684527Y-66328444D01*
X140610370Y-66200000D01*
X169486496Y-66200000D01*
X169506458Y-66389928D01*
X169565473Y-66571556D01*
X169660960Y-66736944D01*
X169788747Y-66878866D01*
X169943248Y-66991118D01*
X169949276Y-66993802D01*
X169949278Y-66993803D01*
X170109799Y-67065271D01*
X170117712Y-67068794D01*
X170211113Y-67088647D01*
X170298056Y-67107128D01*
X170298061Y-67107128D01*
X170304513Y-67108500D01*
X170495487Y-67108500D01*
X170501939Y-67107128D01*
X170501944Y-67107128D01*
X170588887Y-67088647D01*
X170682288Y-67068794D01*
X170690201Y-67065271D01*
X170850722Y-66993803D01*
X170850724Y-66993802D01*
X170856752Y-66991118D01*
X171011253Y-66878866D01*
X171139040Y-66736944D01*
X171234527Y-66571556D01*
X171293542Y-66389928D01*
X171313504Y-66200000D01*
X171293542Y-66010072D01*
X171234527Y-65828444D01*
X171213990Y-65792872D01*
X171142341Y-65668774D01*
X171139040Y-65663056D01*
X171011253Y-65521134D01*
X170856752Y-65408882D01*
X170850724Y-65406198D01*
X170850722Y-65406197D01*
X170688319Y-65333891D01*
X170688318Y-65333891D01*
X170682288Y-65331206D01*
X170588887Y-65311353D01*
X170501944Y-65292872D01*
X170501939Y-65292872D01*
X170495487Y-65291500D01*
X170304513Y-65291500D01*
X170298061Y-65292872D01*
X170298056Y-65292872D01*
X170211113Y-65311353D01*
X170117712Y-65331206D01*
X170111682Y-65333891D01*
X170111681Y-65333891D01*
X169949278Y-65406197D01*
X169949276Y-65406198D01*
X169943248Y-65408882D01*
X169788747Y-65521134D01*
X169660960Y-65663056D01*
X169657659Y-65668774D01*
X169586011Y-65792872D01*
X169565473Y-65828444D01*
X169506458Y-66010072D01*
X169486496Y-66200000D01*
X140610370Y-66200000D01*
X140589040Y-66163056D01*
X140461253Y-66021134D01*
X140306752Y-65908882D01*
X140300724Y-65906198D01*
X140300722Y-65906197D01*
X140138319Y-65833891D01*
X140138318Y-65833891D01*
X140132288Y-65831206D01*
X140038887Y-65811353D01*
X139951944Y-65792872D01*
X139951939Y-65792872D01*
X139945487Y-65791500D01*
X139754513Y-65791500D01*
X139748061Y-65792872D01*
X139748056Y-65792872D01*
X139661113Y-65811353D01*
X139567712Y-65831206D01*
X139561682Y-65833891D01*
X139561681Y-65833891D01*
X139399278Y-65906197D01*
X139399276Y-65906198D01*
X139393248Y-65908882D01*
X139238747Y-66021134D01*
X139110960Y-66163056D01*
X139015473Y-66328444D01*
X138956458Y-66510072D01*
X138936496Y-66700000D01*
X129308499Y-66700000D01*
X129308499Y-61464400D01*
X165872096Y-61464400D01*
X165872786Y-61470965D01*
X165885492Y-61591852D01*
X165892058Y-61654328D01*
X165951073Y-61835956D01*
X166046560Y-62001344D01*
X166174347Y-62143266D01*
X166328848Y-62255518D01*
X166334876Y-62258202D01*
X166334878Y-62258203D01*
X166497281Y-62330509D01*
X166503312Y-62333194D01*
X166596712Y-62353047D01*
X166683656Y-62371528D01*
X166683661Y-62371528D01*
X166690113Y-62372900D01*
X166881087Y-62372900D01*
X166887539Y-62371528D01*
X166887544Y-62371528D01*
X166974488Y-62353047D01*
X167067888Y-62333194D01*
X167073919Y-62330509D01*
X167236322Y-62258203D01*
X167236324Y-62258202D01*
X167242352Y-62255518D01*
X167396853Y-62143266D01*
X167524640Y-62001344D01*
X167620127Y-61835956D01*
X167679142Y-61654328D01*
X167685709Y-61591852D01*
X167698414Y-61470965D01*
X167699104Y-61464400D01*
X167698414Y-61457835D01*
X167679832Y-61281035D01*
X167679832Y-61281033D01*
X167679142Y-61274472D01*
X167620127Y-61092844D01*
X167595391Y-61050000D01*
X167936496Y-61050000D01*
X167937186Y-61056565D01*
X167940398Y-61087121D01*
X167956458Y-61239928D01*
X168015473Y-61421556D01*
X168110960Y-61586944D01*
X168238747Y-61728866D01*
X168337843Y-61800864D01*
X168377493Y-61829671D01*
X168393248Y-61841118D01*
X168399276Y-61843802D01*
X168399278Y-61843803D01*
X168561681Y-61916109D01*
X168567712Y-61918794D01*
X168661112Y-61938647D01*
X168748056Y-61957128D01*
X168748061Y-61957128D01*
X168754513Y-61958500D01*
X168945487Y-61958500D01*
X168951939Y-61957128D01*
X168951944Y-61957128D01*
X169038888Y-61938647D01*
X169132288Y-61918794D01*
X169138319Y-61916109D01*
X169300722Y-61843803D01*
X169300724Y-61843802D01*
X169306752Y-61841118D01*
X169322508Y-61829671D01*
X169362157Y-61800864D01*
X169461253Y-61728866D01*
X169589040Y-61586944D01*
X169684527Y-61421556D01*
X169743542Y-61239928D01*
X169759603Y-61087121D01*
X169762814Y-61056565D01*
X169763504Y-61050000D01*
X169750624Y-60927456D01*
X169744232Y-60866635D01*
X169744232Y-60866633D01*
X169743542Y-60860072D01*
X169684527Y-60678444D01*
X169666203Y-60646705D01*
X169592341Y-60518774D01*
X169589040Y-60513056D01*
X169579500Y-60502460D01*
X169465675Y-60376045D01*
X169465674Y-60376044D01*
X169461253Y-60371134D01*
X169306752Y-60258882D01*
X169300724Y-60256198D01*
X169300722Y-60256197D01*
X169138319Y-60183891D01*
X169138318Y-60183891D01*
X169132288Y-60181206D01*
X169038888Y-60161353D01*
X168951944Y-60142872D01*
X168951939Y-60142872D01*
X168945487Y-60141500D01*
X168754513Y-60141500D01*
X168748061Y-60142872D01*
X168748056Y-60142872D01*
X168661112Y-60161353D01*
X168567712Y-60181206D01*
X168561682Y-60183891D01*
X168561681Y-60183891D01*
X168399278Y-60256197D01*
X168399276Y-60256198D01*
X168393248Y-60258882D01*
X168238747Y-60371134D01*
X168234326Y-60376044D01*
X168234325Y-60376045D01*
X168120501Y-60502460D01*
X168110960Y-60513056D01*
X168107659Y-60518774D01*
X168033798Y-60646705D01*
X168015473Y-60678444D01*
X167956458Y-60860072D01*
X167955768Y-60866633D01*
X167955768Y-60866635D01*
X167949376Y-60927456D01*
X167936496Y-61050000D01*
X167595391Y-61050000D01*
X167524640Y-60927456D01*
X167510018Y-60911216D01*
X167401275Y-60790445D01*
X167401274Y-60790444D01*
X167396853Y-60785534D01*
X167294257Y-60710993D01*
X167247694Y-60677163D01*
X167247693Y-60677162D01*
X167242352Y-60673282D01*
X167236324Y-60670598D01*
X167236322Y-60670597D01*
X167073919Y-60598291D01*
X167073918Y-60598291D01*
X167067888Y-60595606D01*
X166974488Y-60575753D01*
X166887544Y-60557272D01*
X166887539Y-60557272D01*
X166881087Y-60555900D01*
X166690113Y-60555900D01*
X166683661Y-60557272D01*
X166683656Y-60557272D01*
X166596712Y-60575753D01*
X166503312Y-60595606D01*
X166497282Y-60598291D01*
X166497281Y-60598291D01*
X166334878Y-60670597D01*
X166334876Y-60670598D01*
X166328848Y-60673282D01*
X166323507Y-60677162D01*
X166323506Y-60677163D01*
X166276943Y-60710993D01*
X166174347Y-60785534D01*
X166169926Y-60790444D01*
X166169925Y-60790445D01*
X166061183Y-60911216D01*
X166046560Y-60927456D01*
X165951073Y-61092844D01*
X165892058Y-61274472D01*
X165891368Y-61281033D01*
X165891368Y-61281035D01*
X165872786Y-61457835D01*
X165872096Y-61464400D01*
X129308499Y-61464400D01*
X129308499Y-59465469D01*
X136822095Y-59465469D01*
X136835427Y-59696697D01*
X136836564Y-59701743D01*
X136836565Y-59701749D01*
X136868741Y-59844523D01*
X136886346Y-59922642D01*
X136973484Y-60137237D01*
X137094501Y-60334719D01*
X137246147Y-60509784D01*
X137424349Y-60657730D01*
X137624322Y-60774584D01*
X137629147Y-60776426D01*
X137629148Y-60776427D01*
X137703665Y-60804883D01*
X137840694Y-60857209D01*
X137845760Y-60858240D01*
X137845761Y-60858240D01*
X137854766Y-60860072D01*
X138067656Y-60903385D01*
X138197089Y-60908131D01*
X138293949Y-60911683D01*
X138293953Y-60911683D01*
X138299113Y-60911872D01*
X138304233Y-60911216D01*
X138304235Y-60911216D01*
X138378166Y-60901745D01*
X138528847Y-60882442D01*
X138533795Y-60880957D01*
X138533802Y-60880956D01*
X138745747Y-60817369D01*
X138750690Y-60815886D01*
X138802622Y-60790445D01*
X138954049Y-60716262D01*
X138954052Y-60716260D01*
X138958684Y-60713991D01*
X139147243Y-60579494D01*
X139192309Y-60534585D01*
X139254681Y-60500669D01*
X139325487Y-60505857D01*
X139382249Y-60548503D01*
X139399231Y-60579607D01*
X139424385Y-60646705D01*
X139511739Y-60763261D01*
X139628295Y-60850615D01*
X139764684Y-60901745D01*
X139826866Y-60908500D01*
X141723134Y-60908500D01*
X141785316Y-60901745D01*
X141921705Y-60850615D01*
X142038261Y-60763261D01*
X142125615Y-60646705D01*
X142176745Y-60510316D01*
X142183500Y-60448134D01*
X142183500Y-58551866D01*
X142176745Y-58489684D01*
X142125615Y-58353295D01*
X142038261Y-58236739D01*
X141921705Y-58149385D01*
X141785316Y-58098255D01*
X141723134Y-58091500D01*
X139826866Y-58091500D01*
X139764684Y-58098255D01*
X139628295Y-58149385D01*
X139511739Y-58236739D01*
X139424385Y-58353295D01*
X139421233Y-58361703D01*
X139421232Y-58361705D01*
X139400538Y-58416906D01*
X139357897Y-58473671D01*
X139291335Y-58498371D01*
X139221986Y-58483164D01*
X139199167Y-58466666D01*
X139198887Y-58466358D01*
X139066373Y-58361705D01*
X139021177Y-58326011D01*
X139021172Y-58326008D01*
X139017123Y-58322810D01*
X139012607Y-58320317D01*
X139012604Y-58320315D01*
X138818879Y-58213373D01*
X138818875Y-58213371D01*
X138814355Y-58210876D01*
X138809486Y-58209152D01*
X138809482Y-58209150D01*
X138600903Y-58135288D01*
X138600899Y-58135287D01*
X138596028Y-58133562D01*
X138590935Y-58132655D01*
X138590932Y-58132654D01*
X138373095Y-58093851D01*
X138373089Y-58093850D01*
X138368006Y-58092945D01*
X138295096Y-58092054D01*
X138141581Y-58090179D01*
X138141579Y-58090179D01*
X138136411Y-58090116D01*
X137907464Y-58125150D01*
X137687314Y-58197106D01*
X137682726Y-58199494D01*
X137682722Y-58199496D01*
X137486461Y-58301663D01*
X137481872Y-58304052D01*
X137477739Y-58307155D01*
X137477736Y-58307157D01*
X137300790Y-58440012D01*
X137296655Y-58443117D01*
X137136639Y-58610564D01*
X137006119Y-58801899D01*
X136908602Y-59011981D01*
X136846707Y-59235169D01*
X136822095Y-59465469D01*
X129308499Y-59465469D01*
X129308499Y-54049366D01*
X129309999Y-54029981D01*
X129312309Y-54015148D01*
X129312309Y-54015144D01*
X129313690Y-54006275D01*
X129311357Y-53988434D01*
X130686661Y-53988434D01*
X130704792Y-54346340D01*
X130705329Y-54349695D01*
X130705330Y-54349701D01*
X130710316Y-54380828D01*
X130761470Y-54700195D01*
X130856033Y-55045859D01*
X130987374Y-55379288D01*
X131153957Y-55696582D01*
X131155858Y-55699411D01*
X131155864Y-55699421D01*
X131339569Y-55972800D01*
X131353834Y-55994029D01*
X131584665Y-56268150D01*
X131843751Y-56515738D01*
X132128061Y-56733897D01*
X132160056Y-56753350D01*
X132431355Y-56918303D01*
X132431360Y-56918306D01*
X132434270Y-56920075D01*
X132437358Y-56921521D01*
X132437357Y-56921521D01*
X132755710Y-57070649D01*
X132755720Y-57070653D01*
X132758794Y-57072093D01*
X132762012Y-57073195D01*
X132762015Y-57073196D01*
X133094615Y-57187071D01*
X133094623Y-57187073D01*
X133097838Y-57188174D01*
X133447435Y-57266959D01*
X133499728Y-57272917D01*
X133800114Y-57307142D01*
X133800122Y-57307142D01*
X133803497Y-57307527D01*
X133806901Y-57307545D01*
X133806904Y-57307545D01*
X134001227Y-57308562D01*
X134161857Y-57309403D01*
X134165243Y-57309053D01*
X134165245Y-57309053D01*
X134514932Y-57272917D01*
X134514941Y-57272916D01*
X134518324Y-57272566D01*
X134521657Y-57271852D01*
X134521660Y-57271851D01*
X134694186Y-57234864D01*
X134868727Y-57197446D01*
X135208968Y-57084922D01*
X135535066Y-56936311D01*
X135629052Y-56880506D01*
X135840262Y-56755099D01*
X135840267Y-56755096D01*
X135843207Y-56753350D01*
X136129786Y-56538180D01*
X136391451Y-56293319D01*
X136625140Y-56021630D01*
X136731750Y-55866512D01*
X136826190Y-55729101D01*
X136826195Y-55729094D01*
X136828120Y-55726292D01*
X136829732Y-55723298D01*
X136829737Y-55723290D01*
X136996395Y-55413772D01*
X136998017Y-55410760D01*
X137132842Y-55078724D01*
X137143142Y-55042568D01*
X137163527Y-54971006D01*
X137231020Y-54734070D01*
X137291401Y-54380828D01*
X137293511Y-54346340D01*
X137313168Y-54024928D01*
X137313278Y-54023131D01*
X137313359Y-54000000D01*
X137312733Y-53988434D01*
X170686661Y-53988434D01*
X170704792Y-54346340D01*
X170705329Y-54349695D01*
X170705330Y-54349701D01*
X170710316Y-54380828D01*
X170761470Y-54700195D01*
X170856033Y-55045859D01*
X170987374Y-55379288D01*
X171153957Y-55696582D01*
X171155858Y-55699411D01*
X171155864Y-55699421D01*
X171339569Y-55972800D01*
X171353834Y-55994029D01*
X171584665Y-56268150D01*
X171843751Y-56515738D01*
X172128061Y-56733897D01*
X172160056Y-56753350D01*
X172431355Y-56918303D01*
X172431360Y-56918306D01*
X172434270Y-56920075D01*
X172437358Y-56921521D01*
X172437357Y-56921521D01*
X172755710Y-57070649D01*
X172755720Y-57070653D01*
X172758794Y-57072093D01*
X172762012Y-57073195D01*
X172762015Y-57073196D01*
X173094615Y-57187071D01*
X173094623Y-57187073D01*
X173097838Y-57188174D01*
X173447435Y-57266959D01*
X173499728Y-57272917D01*
X173800114Y-57307142D01*
X173800122Y-57307142D01*
X173803497Y-57307527D01*
X173806901Y-57307545D01*
X173806904Y-57307545D01*
X174001227Y-57308562D01*
X174161857Y-57309403D01*
X174165243Y-57309053D01*
X174165245Y-57309053D01*
X174514932Y-57272917D01*
X174514941Y-57272916D01*
X174518324Y-57272566D01*
X174521657Y-57271852D01*
X174521660Y-57271851D01*
X174694186Y-57234864D01*
X174868727Y-57197446D01*
X175208968Y-57084922D01*
X175535066Y-56936311D01*
X175629052Y-56880506D01*
X175840262Y-56755099D01*
X175840267Y-56755096D01*
X175843207Y-56753350D01*
X176129786Y-56538180D01*
X176391451Y-56293319D01*
X176625140Y-56021630D01*
X176731750Y-55866512D01*
X176826190Y-55729101D01*
X176826195Y-55729094D01*
X176828120Y-55726292D01*
X176829732Y-55723298D01*
X176829737Y-55723290D01*
X176996395Y-55413772D01*
X176998017Y-55410760D01*
X177132842Y-55078724D01*
X177143142Y-55042568D01*
X177163527Y-54971006D01*
X177231020Y-54734070D01*
X177291401Y-54380828D01*
X177293511Y-54346340D01*
X177313168Y-54024928D01*
X177313278Y-54023131D01*
X177313359Y-54000000D01*
X177293979Y-53642159D01*
X177236066Y-53288505D01*
X177140297Y-52943173D01*
X177137243Y-52935497D01*
X177009052Y-52613369D01*
X177007793Y-52610205D01*
X176894066Y-52395412D01*
X176841702Y-52296513D01*
X176841698Y-52296506D01*
X176840103Y-52293494D01*
X176639190Y-51996746D01*
X176407403Y-51723432D01*
X176147454Y-51476750D01*
X175862384Y-51259585D01*
X175859472Y-51257828D01*
X175859467Y-51257825D01*
X175558443Y-51076236D01*
X175558437Y-51076233D01*
X175555528Y-51074478D01*
X175230475Y-50923593D01*
X175060751Y-50866145D01*
X174894255Y-50809789D01*
X174894250Y-50809788D01*
X174891028Y-50808697D01*
X174692681Y-50764724D01*
X174544493Y-50731871D01*
X174544487Y-50731870D01*
X174541158Y-50731132D01*
X174537769Y-50730758D01*
X174537764Y-50730757D01*
X174188338Y-50692180D01*
X174188333Y-50692180D01*
X174184957Y-50691807D01*
X174181558Y-50691801D01*
X174181557Y-50691801D01*
X174012080Y-50691505D01*
X173826592Y-50691182D01*
X173713413Y-50703277D01*
X173473639Y-50728901D01*
X173473631Y-50728902D01*
X173470256Y-50729263D01*
X173120117Y-50805606D01*
X172780271Y-50919317D01*
X172777178Y-50920739D01*
X172777177Y-50920740D01*
X172638855Y-50984361D01*
X172454694Y-51069066D01*
X172147193Y-51253101D01*
X172144467Y-51255163D01*
X172144465Y-51255164D01*
X172078970Y-51304698D01*
X171861367Y-51469270D01*
X171600559Y-51715043D01*
X171367819Y-51987546D01*
X171365900Y-51990358D01*
X171365897Y-51990363D01*
X171344069Y-52022362D01*
X171165871Y-52283591D01*
X170997077Y-52599714D01*
X170863411Y-52932218D01*
X170862491Y-52935492D01*
X170862489Y-52935497D01*
X170792265Y-53185329D01*
X170766437Y-53277213D01*
X170707290Y-53630663D01*
X170686661Y-53988434D01*
X137312733Y-53988434D01*
X137293979Y-53642159D01*
X137236066Y-53288505D01*
X137140297Y-52943173D01*
X137137243Y-52935497D01*
X137009052Y-52613369D01*
X137007793Y-52610205D01*
X136894066Y-52395412D01*
X136841702Y-52296513D01*
X136841698Y-52296506D01*
X136840103Y-52293494D01*
X136639190Y-51996746D01*
X136407403Y-51723432D01*
X136147454Y-51476750D01*
X135862384Y-51259585D01*
X135859472Y-51257828D01*
X135859467Y-51257825D01*
X135558443Y-51076236D01*
X135558437Y-51076233D01*
X135555528Y-51074478D01*
X135230475Y-50923593D01*
X135060751Y-50866145D01*
X134894255Y-50809789D01*
X134894250Y-50809788D01*
X134891028Y-50808697D01*
X134692681Y-50764724D01*
X134544493Y-50731871D01*
X134544487Y-50731870D01*
X134541158Y-50731132D01*
X134537769Y-50730758D01*
X134537764Y-50730757D01*
X134188338Y-50692180D01*
X134188333Y-50692180D01*
X134184957Y-50691807D01*
X134181558Y-50691801D01*
X134181557Y-50691801D01*
X134012080Y-50691505D01*
X133826592Y-50691182D01*
X133713413Y-50703277D01*
X133473639Y-50728901D01*
X133473631Y-50728902D01*
X133470256Y-50729263D01*
X133120117Y-50805606D01*
X132780271Y-50919317D01*
X132777178Y-50920739D01*
X132777177Y-50920740D01*
X132638855Y-50984361D01*
X132454694Y-51069066D01*
X132147193Y-51253101D01*
X132144467Y-51255163D01*
X132144465Y-51255164D01*
X132078970Y-51304698D01*
X131861367Y-51469270D01*
X131600559Y-51715043D01*
X131367819Y-51987546D01*
X131365900Y-51990358D01*
X131365897Y-51990363D01*
X131344069Y-52022362D01*
X131165871Y-52283591D01*
X130997077Y-52599714D01*
X130863411Y-52932218D01*
X130862491Y-52935492D01*
X130862489Y-52935497D01*
X130792265Y-53185329D01*
X130766437Y-53277213D01*
X130707290Y-53630663D01*
X130686661Y-53988434D01*
X129311357Y-53988434D01*
X129311015Y-53985816D01*
X129310071Y-53963988D01*
X129326112Y-53596604D01*
X129327070Y-53585654D01*
X129331531Y-53551770D01*
X129379057Y-53190772D01*
X129380965Y-53179955D01*
X129467167Y-52791122D01*
X129470012Y-52780504D01*
X129589775Y-52400663D01*
X129593534Y-52390334D01*
X129632396Y-52296513D01*
X129745957Y-52022353D01*
X129750599Y-52012400D01*
X129763538Y-51987546D01*
X129934500Y-51659131D01*
X129939995Y-51649612D01*
X130153993Y-51313702D01*
X130160298Y-51304698D01*
X130402752Y-50988727D01*
X130409817Y-50980307D01*
X130566068Y-50809789D01*
X130678895Y-50686660D01*
X130686664Y-50678891D01*
X130980307Y-50409817D01*
X130988727Y-50402752D01*
X131304698Y-50160298D01*
X131313702Y-50153993D01*
X131617636Y-49960366D01*
X131649613Y-49939994D01*
X131659132Y-49934499D01*
X132012409Y-49750595D01*
X132022353Y-49745957D01*
X132390342Y-49593531D01*
X132400655Y-49589778D01*
X132780505Y-49470012D01*
X132791122Y-49467167D01*
X133179963Y-49380964D01*
X133190772Y-49379057D01*
X133585655Y-49327070D01*
X133596603Y-49326112D01*
X133956553Y-49310396D01*
X133981428Y-49311776D01*
X133993723Y-49313690D01*
X134002625Y-49312526D01*
X134002627Y-49312526D01*
X134018913Y-49310396D01*
X134025285Y-49309563D01*
X134041620Y-49308499D01*
X152269989Y-49308499D01*
X173950633Y-49308500D01*
G37*
%TD.AperFunction*%
%TD*%
M02*
