%TF.GenerationSoftware,KiCad,Pcbnew,(6.0.9)*%
%TF.CreationDate,2022-11-18T22:17:03-07:00*%
%TF.ProjectId,AQM,41514d2e-6b69-4636-9164-5f7063625858,rev?*%
%TF.SameCoordinates,Original*%
%TF.FileFunction,Legend,Top*%
%TF.FilePolarity,Positive*%
%FSLAX46Y46*%
G04 Gerber Fmt 4.6, Leading zero omitted, Abs format (unit mm)*
G04 Created by KiCad (PCBNEW (6.0.9)) date 2022-11-18 22:17:03*
%MOMM*%
%LPD*%
G01*
G04 APERTURE LIST*
%ADD10C,0.150000*%
%ADD11C,0.120000*%
G04 APERTURE END LIST*
D10*
%TO.C,U1*%
X154138095Y-74886780D02*
X154138095Y-75696304D01*
X154185714Y-75791542D01*
X154233333Y-75839161D01*
X154328571Y-75886780D01*
X154519047Y-75886780D01*
X154614285Y-75839161D01*
X154661904Y-75791542D01*
X154709523Y-75696304D01*
X154709523Y-74886780D01*
X155709523Y-75886780D02*
X155138095Y-75886780D01*
X155423809Y-75886780D02*
X155423809Y-74886780D01*
X155328571Y-75029638D01*
X155233333Y-75124876D01*
X155138095Y-75172495D01*
%TO.C,C1*%
X166477142Y-60266666D02*
X166524761Y-60314285D01*
X166572380Y-60457142D01*
X166572380Y-60552380D01*
X166524761Y-60695238D01*
X166429523Y-60790476D01*
X166334285Y-60838095D01*
X166143809Y-60885714D01*
X166000952Y-60885714D01*
X165810476Y-60838095D01*
X165715238Y-60790476D01*
X165620000Y-60695238D01*
X165572380Y-60552380D01*
X165572380Y-60457142D01*
X165620000Y-60314285D01*
X165667619Y-60266666D01*
X166572380Y-59314285D02*
X166572380Y-59885714D01*
X166572380Y-59600000D02*
X165572380Y-59600000D01*
X165715238Y-59695238D01*
X165810476Y-59790476D01*
X165858095Y-59885714D01*
%TO.C,H4*%
X133238095Y-50652380D02*
X133238095Y-49652380D01*
X133238095Y-50128571D02*
X133809523Y-50128571D01*
X133809523Y-50652380D02*
X133809523Y-49652380D01*
X134714285Y-49985714D02*
X134714285Y-50652380D01*
X134476190Y-49604761D02*
X134238095Y-50319047D01*
X134857142Y-50319047D01*
%TO.C,H3*%
X173238095Y-50652380D02*
X173238095Y-49652380D01*
X173238095Y-50128571D02*
X173809523Y-50128571D01*
X173809523Y-50652380D02*
X173809523Y-49652380D01*
X174190476Y-49652380D02*
X174809523Y-49652380D01*
X174476190Y-50033333D01*
X174619047Y-50033333D01*
X174714285Y-50080952D01*
X174761904Y-50128571D01*
X174809523Y-50223809D01*
X174809523Y-50461904D01*
X174761904Y-50557142D01*
X174714285Y-50604761D01*
X174619047Y-50652380D01*
X174333333Y-50652380D01*
X174238095Y-50604761D01*
X174190476Y-50557142D01*
%TO.C,H2*%
X133238095Y-90652380D02*
X133238095Y-89652380D01*
X133238095Y-90128571D02*
X133809523Y-90128571D01*
X133809523Y-90652380D02*
X133809523Y-89652380D01*
X134238095Y-89747619D02*
X134285714Y-89700000D01*
X134380952Y-89652380D01*
X134619047Y-89652380D01*
X134714285Y-89700000D01*
X134761904Y-89747619D01*
X134809523Y-89842857D01*
X134809523Y-89938095D01*
X134761904Y-90080952D01*
X134190476Y-90652380D01*
X134809523Y-90652380D01*
%TO.C,H1*%
X173238095Y-90652380D02*
X173238095Y-89652380D01*
X173238095Y-90128571D02*
X173809523Y-90128571D01*
X173809523Y-90652380D02*
X173809523Y-89652380D01*
X174809523Y-90652380D02*
X174238095Y-90652380D01*
X174523809Y-90652380D02*
X174523809Y-89652380D01*
X174428571Y-89795238D01*
X174333333Y-89890476D01*
X174238095Y-89938095D01*
%TO.C,J1*%
X177052380Y-70133333D02*
X177766666Y-70133333D01*
X177909523Y-70180952D01*
X178004761Y-70276190D01*
X178052380Y-70419047D01*
X178052380Y-70514285D01*
X178052380Y-69133333D02*
X178052380Y-69704761D01*
X178052380Y-69419047D02*
X177052380Y-69419047D01*
X177195238Y-69514285D01*
X177290476Y-69609523D01*
X177338095Y-69704761D01*
%TO.C,C11*%
X141537142Y-80892857D02*
X141584761Y-80940476D01*
X141632380Y-81083333D01*
X141632380Y-81178571D01*
X141584761Y-81321428D01*
X141489523Y-81416666D01*
X141394285Y-81464285D01*
X141203809Y-81511904D01*
X141060952Y-81511904D01*
X140870476Y-81464285D01*
X140775238Y-81416666D01*
X140680000Y-81321428D01*
X140632380Y-81178571D01*
X140632380Y-81083333D01*
X140680000Y-80940476D01*
X140727619Y-80892857D01*
X141632380Y-79940476D02*
X141632380Y-80511904D01*
X141632380Y-80226190D02*
X140632380Y-80226190D01*
X140775238Y-80321428D01*
X140870476Y-80416666D01*
X140918095Y-80511904D01*
X141632380Y-78988095D02*
X141632380Y-79559523D01*
X141632380Y-79273809D02*
X140632380Y-79273809D01*
X140775238Y-79369047D01*
X140870476Y-79464285D01*
X140918095Y-79559523D01*
%TO.C,C3*%
X168057142Y-52366666D02*
X168104761Y-52414285D01*
X168152380Y-52557142D01*
X168152380Y-52652380D01*
X168104761Y-52795238D01*
X168009523Y-52890476D01*
X167914285Y-52938095D01*
X167723809Y-52985714D01*
X167580952Y-52985714D01*
X167390476Y-52938095D01*
X167295238Y-52890476D01*
X167200000Y-52795238D01*
X167152380Y-52652380D01*
X167152380Y-52557142D01*
X167200000Y-52414285D01*
X167247619Y-52366666D01*
X167152380Y-52033333D02*
X167152380Y-51414285D01*
X167533333Y-51747619D01*
X167533333Y-51604761D01*
X167580952Y-51509523D01*
X167628571Y-51461904D01*
X167723809Y-51414285D01*
X167961904Y-51414285D01*
X168057142Y-51461904D01*
X168104761Y-51509523D01*
X168152380Y-51604761D01*
X168152380Y-51890476D01*
X168104761Y-51985714D01*
X168057142Y-52033333D01*
%TO.C,C14*%
X143537142Y-80892857D02*
X143584761Y-80940476D01*
X143632380Y-81083333D01*
X143632380Y-81178571D01*
X143584761Y-81321428D01*
X143489523Y-81416666D01*
X143394285Y-81464285D01*
X143203809Y-81511904D01*
X143060952Y-81511904D01*
X142870476Y-81464285D01*
X142775238Y-81416666D01*
X142680000Y-81321428D01*
X142632380Y-81178571D01*
X142632380Y-81083333D01*
X142680000Y-80940476D01*
X142727619Y-80892857D01*
X143632380Y-79940476D02*
X143632380Y-80511904D01*
X143632380Y-80226190D02*
X142632380Y-80226190D01*
X142775238Y-80321428D01*
X142870476Y-80416666D01*
X142918095Y-80511904D01*
X142965714Y-79083333D02*
X143632380Y-79083333D01*
X142584761Y-79321428D02*
X143299047Y-79559523D01*
X143299047Y-78940476D01*
%TO.C,J5*%
X131352380Y-68483333D02*
X132066666Y-68483333D01*
X132209523Y-68530952D01*
X132304761Y-68626190D01*
X132352380Y-68769047D01*
X132352380Y-68864285D01*
X131352380Y-67530952D02*
X131352380Y-68007142D01*
X131828571Y-68054761D01*
X131780952Y-68007142D01*
X131733333Y-67911904D01*
X131733333Y-67673809D01*
X131780952Y-67578571D01*
X131828571Y-67530952D01*
X131923809Y-67483333D01*
X132161904Y-67483333D01*
X132257142Y-67530952D01*
X132304761Y-67578571D01*
X132352380Y-67673809D01*
X132352380Y-67911904D01*
X132304761Y-68007142D01*
X132257142Y-68054761D01*
%TO.C,C13*%
X140837142Y-69867857D02*
X140884761Y-69915476D01*
X140932380Y-70058333D01*
X140932380Y-70153571D01*
X140884761Y-70296428D01*
X140789523Y-70391666D01*
X140694285Y-70439285D01*
X140503809Y-70486904D01*
X140360952Y-70486904D01*
X140170476Y-70439285D01*
X140075238Y-70391666D01*
X139980000Y-70296428D01*
X139932380Y-70153571D01*
X139932380Y-70058333D01*
X139980000Y-69915476D01*
X140027619Y-69867857D01*
X140932380Y-68915476D02*
X140932380Y-69486904D01*
X140932380Y-69201190D02*
X139932380Y-69201190D01*
X140075238Y-69296428D01*
X140170476Y-69391666D01*
X140218095Y-69486904D01*
X139932380Y-68582142D02*
X139932380Y-67963095D01*
X140313333Y-68296428D01*
X140313333Y-68153571D01*
X140360952Y-68058333D01*
X140408571Y-68010714D01*
X140503809Y-67963095D01*
X140741904Y-67963095D01*
X140837142Y-68010714D01*
X140884761Y-68058333D01*
X140932380Y-68153571D01*
X140932380Y-68439285D01*
X140884761Y-68534523D01*
X140837142Y-68582142D01*
%TO.C,J4*%
X177252380Y-80333333D02*
X177966666Y-80333333D01*
X178109523Y-80380952D01*
X178204761Y-80476190D01*
X178252380Y-80619047D01*
X178252380Y-80714285D01*
X177585714Y-79428571D02*
X178252380Y-79428571D01*
X177204761Y-79666666D02*
X177919047Y-79904761D01*
X177919047Y-79285714D01*
%TO.C,C12*%
X167172142Y-80177857D02*
X167219761Y-80225476D01*
X167267380Y-80368333D01*
X167267380Y-80463571D01*
X167219761Y-80606428D01*
X167124523Y-80701666D01*
X167029285Y-80749285D01*
X166838809Y-80796904D01*
X166695952Y-80796904D01*
X166505476Y-80749285D01*
X166410238Y-80701666D01*
X166315000Y-80606428D01*
X166267380Y-80463571D01*
X166267380Y-80368333D01*
X166315000Y-80225476D01*
X166362619Y-80177857D01*
X167267380Y-79225476D02*
X167267380Y-79796904D01*
X167267380Y-79511190D02*
X166267380Y-79511190D01*
X166410238Y-79606428D01*
X166505476Y-79701666D01*
X166553095Y-79796904D01*
X166362619Y-78844523D02*
X166315000Y-78796904D01*
X166267380Y-78701666D01*
X166267380Y-78463571D01*
X166315000Y-78368333D01*
X166362619Y-78320714D01*
X166457857Y-78273095D01*
X166553095Y-78273095D01*
X166695952Y-78320714D01*
X167267380Y-78892142D01*
X167267380Y-78273095D01*
%TO.C,J3*%
X131452380Y-79883333D02*
X132166666Y-79883333D01*
X132309523Y-79930952D01*
X132404761Y-80026190D01*
X132452380Y-80169047D01*
X132452380Y-80264285D01*
X131452380Y-79502380D02*
X131452380Y-78883333D01*
X131833333Y-79216666D01*
X131833333Y-79073809D01*
X131880952Y-78978571D01*
X131928571Y-78930952D01*
X132023809Y-78883333D01*
X132261904Y-78883333D01*
X132357142Y-78930952D01*
X132404761Y-78978571D01*
X132452380Y-79073809D01*
X132452380Y-79359523D01*
X132404761Y-79454761D01*
X132357142Y-79502380D01*
%TO.C,C7*%
X167377142Y-68966666D02*
X167424761Y-69014285D01*
X167472380Y-69157142D01*
X167472380Y-69252380D01*
X167424761Y-69395238D01*
X167329523Y-69490476D01*
X167234285Y-69538095D01*
X167043809Y-69585714D01*
X166900952Y-69585714D01*
X166710476Y-69538095D01*
X166615238Y-69490476D01*
X166520000Y-69395238D01*
X166472380Y-69252380D01*
X166472380Y-69157142D01*
X166520000Y-69014285D01*
X166567619Y-68966666D01*
X166472380Y-68633333D02*
X166472380Y-67966666D01*
X167472380Y-68395238D01*
%TO.C,J2*%
X159066666Y-95052380D02*
X159066666Y-95766666D01*
X159019047Y-95909523D01*
X158923809Y-96004761D01*
X158780952Y-96052380D01*
X158685714Y-96052380D01*
X159495238Y-95147619D02*
X159542857Y-95100000D01*
X159638095Y-95052380D01*
X159876190Y-95052380D01*
X159971428Y-95100000D01*
X160019047Y-95147619D01*
X160066666Y-95242857D01*
X160066666Y-95338095D01*
X160019047Y-95480952D01*
X159447619Y-96052380D01*
X160066666Y-96052380D01*
%TO.C,C5*%
X153483333Y-92207142D02*
X153435714Y-92254761D01*
X153292857Y-92302380D01*
X153197619Y-92302380D01*
X153054761Y-92254761D01*
X152959523Y-92159523D01*
X152911904Y-92064285D01*
X152864285Y-91873809D01*
X152864285Y-91730952D01*
X152911904Y-91540476D01*
X152959523Y-91445238D01*
X153054761Y-91350000D01*
X153197619Y-91302380D01*
X153292857Y-91302380D01*
X153435714Y-91350000D01*
X153483333Y-91397619D01*
X154388095Y-91302380D02*
X153911904Y-91302380D01*
X153864285Y-91778571D01*
X153911904Y-91730952D01*
X154007142Y-91683333D01*
X154245238Y-91683333D01*
X154340476Y-91730952D01*
X154388095Y-91778571D01*
X154435714Y-91873809D01*
X154435714Y-92111904D01*
X154388095Y-92207142D01*
X154340476Y-92254761D01*
X154245238Y-92302380D01*
X154007142Y-92302380D01*
X153911904Y-92254761D01*
X153864285Y-92207142D01*
%TO.C,R2*%
X140375833Y-75382380D02*
X140042500Y-74906190D01*
X139804404Y-75382380D02*
X139804404Y-74382380D01*
X140185357Y-74382380D01*
X140280595Y-74430000D01*
X140328214Y-74477619D01*
X140375833Y-74572857D01*
X140375833Y-74715714D01*
X140328214Y-74810952D01*
X140280595Y-74858571D01*
X140185357Y-74906190D01*
X139804404Y-74906190D01*
X140756785Y-74477619D02*
X140804404Y-74430000D01*
X140899642Y-74382380D01*
X141137738Y-74382380D01*
X141232976Y-74430000D01*
X141280595Y-74477619D01*
X141328214Y-74572857D01*
X141328214Y-74668095D01*
X141280595Y-74810952D01*
X140709166Y-75382380D01*
X141328214Y-75382380D01*
%TO.C,R1*%
X141133333Y-66252380D02*
X140800000Y-65776190D01*
X140561904Y-66252380D02*
X140561904Y-65252380D01*
X140942857Y-65252380D01*
X141038095Y-65300000D01*
X141085714Y-65347619D01*
X141133333Y-65442857D01*
X141133333Y-65585714D01*
X141085714Y-65680952D01*
X141038095Y-65728571D01*
X140942857Y-65776190D01*
X140561904Y-65776190D01*
X142085714Y-66252380D02*
X141514285Y-66252380D01*
X141800000Y-66252380D02*
X141800000Y-65252380D01*
X141704761Y-65395238D01*
X141609523Y-65490476D01*
X141514285Y-65538095D01*
%TO.C,R3*%
X140380833Y-77307380D02*
X140047500Y-76831190D01*
X139809404Y-77307380D02*
X139809404Y-76307380D01*
X140190357Y-76307380D01*
X140285595Y-76355000D01*
X140333214Y-76402619D01*
X140380833Y-76497857D01*
X140380833Y-76640714D01*
X140333214Y-76735952D01*
X140285595Y-76783571D01*
X140190357Y-76831190D01*
X139809404Y-76831190D01*
X140714166Y-76307380D02*
X141333214Y-76307380D01*
X140999880Y-76688333D01*
X141142738Y-76688333D01*
X141237976Y-76735952D01*
X141285595Y-76783571D01*
X141333214Y-76878809D01*
X141333214Y-77116904D01*
X141285595Y-77212142D01*
X141237976Y-77259761D01*
X141142738Y-77307380D01*
X140857023Y-77307380D01*
X140761785Y-77259761D01*
X140714166Y-77212142D01*
%TO.C,C8*%
X169372142Y-68951666D02*
X169419761Y-68999285D01*
X169467380Y-69142142D01*
X169467380Y-69237380D01*
X169419761Y-69380238D01*
X169324523Y-69475476D01*
X169229285Y-69523095D01*
X169038809Y-69570714D01*
X168895952Y-69570714D01*
X168705476Y-69523095D01*
X168610238Y-69475476D01*
X168515000Y-69380238D01*
X168467380Y-69237380D01*
X168467380Y-69142142D01*
X168515000Y-68999285D01*
X168562619Y-68951666D01*
X168895952Y-68380238D02*
X168848333Y-68475476D01*
X168800714Y-68523095D01*
X168705476Y-68570714D01*
X168657857Y-68570714D01*
X168562619Y-68523095D01*
X168515000Y-68475476D01*
X168467380Y-68380238D01*
X168467380Y-68189761D01*
X168515000Y-68094523D01*
X168562619Y-68046904D01*
X168657857Y-67999285D01*
X168705476Y-67999285D01*
X168800714Y-68046904D01*
X168848333Y-68094523D01*
X168895952Y-68189761D01*
X168895952Y-68380238D01*
X168943571Y-68475476D01*
X168991190Y-68523095D01*
X169086428Y-68570714D01*
X169276904Y-68570714D01*
X169372142Y-68523095D01*
X169419761Y-68475476D01*
X169467380Y-68380238D01*
X169467380Y-68189761D01*
X169419761Y-68094523D01*
X169372142Y-68046904D01*
X169276904Y-67999285D01*
X169086428Y-67999285D01*
X168991190Y-68046904D01*
X168943571Y-68094523D01*
X168895952Y-68189761D01*
%TO.C,C10*%
X142832142Y-69852857D02*
X142879761Y-69900476D01*
X142927380Y-70043333D01*
X142927380Y-70138571D01*
X142879761Y-70281428D01*
X142784523Y-70376666D01*
X142689285Y-70424285D01*
X142498809Y-70471904D01*
X142355952Y-70471904D01*
X142165476Y-70424285D01*
X142070238Y-70376666D01*
X141975000Y-70281428D01*
X141927380Y-70138571D01*
X141927380Y-70043333D01*
X141975000Y-69900476D01*
X142022619Y-69852857D01*
X142927380Y-68900476D02*
X142927380Y-69471904D01*
X142927380Y-69186190D02*
X141927380Y-69186190D01*
X142070238Y-69281428D01*
X142165476Y-69376666D01*
X142213095Y-69471904D01*
X141927380Y-68281428D02*
X141927380Y-68186190D01*
X141975000Y-68090952D01*
X142022619Y-68043333D01*
X142117857Y-67995714D01*
X142308333Y-67948095D01*
X142546428Y-67948095D01*
X142736904Y-67995714D01*
X142832142Y-68043333D01*
X142879761Y-68090952D01*
X142927380Y-68186190D01*
X142927380Y-68281428D01*
X142879761Y-68376666D01*
X142832142Y-68424285D01*
X142736904Y-68471904D01*
X142546428Y-68519523D01*
X142308333Y-68519523D01*
X142117857Y-68471904D01*
X142022619Y-68424285D01*
X141975000Y-68376666D01*
X141927380Y-68281428D01*
%TO.C,C9*%
X169177142Y-79716666D02*
X169224761Y-79764285D01*
X169272380Y-79907142D01*
X169272380Y-80002380D01*
X169224761Y-80145238D01*
X169129523Y-80240476D01*
X169034285Y-80288095D01*
X168843809Y-80335714D01*
X168700952Y-80335714D01*
X168510476Y-80288095D01*
X168415238Y-80240476D01*
X168320000Y-80145238D01*
X168272380Y-80002380D01*
X168272380Y-79907142D01*
X168320000Y-79764285D01*
X168367619Y-79716666D01*
X169272380Y-79240476D02*
X169272380Y-79050000D01*
X169224761Y-78954761D01*
X169177142Y-78907142D01*
X169034285Y-78811904D01*
X168843809Y-78764285D01*
X168462857Y-78764285D01*
X168367619Y-78811904D01*
X168320000Y-78859523D01*
X168272380Y-78954761D01*
X168272380Y-79145238D01*
X168320000Y-79240476D01*
X168367619Y-79288095D01*
X168462857Y-79335714D01*
X168700952Y-79335714D01*
X168796190Y-79288095D01*
X168843809Y-79240476D01*
X168891428Y-79145238D01*
X168891428Y-78954761D01*
X168843809Y-78859523D01*
X168796190Y-78811904D01*
X168700952Y-78764285D01*
%TO.C,C6*%
X153283333Y-89557142D02*
X153235714Y-89604761D01*
X153092857Y-89652380D01*
X152997619Y-89652380D01*
X152854761Y-89604761D01*
X152759523Y-89509523D01*
X152711904Y-89414285D01*
X152664285Y-89223809D01*
X152664285Y-89080952D01*
X152711904Y-88890476D01*
X152759523Y-88795238D01*
X152854761Y-88700000D01*
X152997619Y-88652380D01*
X153092857Y-88652380D01*
X153235714Y-88700000D01*
X153283333Y-88747619D01*
X154140476Y-88652380D02*
X153950000Y-88652380D01*
X153854761Y-88700000D01*
X153807142Y-88747619D01*
X153711904Y-88890476D01*
X153664285Y-89080952D01*
X153664285Y-89461904D01*
X153711904Y-89557142D01*
X153759523Y-89604761D01*
X153854761Y-89652380D01*
X154045238Y-89652380D01*
X154140476Y-89604761D01*
X154188095Y-89557142D01*
X154235714Y-89461904D01*
X154235714Y-89223809D01*
X154188095Y-89128571D01*
X154140476Y-89080952D01*
X154045238Y-89033333D01*
X153854761Y-89033333D01*
X153759523Y-89080952D01*
X153711904Y-89128571D01*
X153664285Y-89223809D01*
%TO.C,D1*%
X136961904Y-63952380D02*
X136961904Y-62952380D01*
X137200000Y-62952380D01*
X137342857Y-63000000D01*
X137438095Y-63095238D01*
X137485714Y-63190476D01*
X137533333Y-63380952D01*
X137533333Y-63523809D01*
X137485714Y-63714285D01*
X137438095Y-63809523D01*
X137342857Y-63904761D01*
X137200000Y-63952380D01*
X136961904Y-63952380D01*
X138485714Y-63952380D02*
X137914285Y-63952380D01*
X138200000Y-63952380D02*
X138200000Y-62952380D01*
X138104761Y-63095238D01*
X138009523Y-63190476D01*
X137914285Y-63238095D01*
%TO.C,C2*%
X169933333Y-63057142D02*
X169885714Y-63104761D01*
X169742857Y-63152380D01*
X169647619Y-63152380D01*
X169504761Y-63104761D01*
X169409523Y-63009523D01*
X169361904Y-62914285D01*
X169314285Y-62723809D01*
X169314285Y-62580952D01*
X169361904Y-62390476D01*
X169409523Y-62295238D01*
X169504761Y-62200000D01*
X169647619Y-62152380D01*
X169742857Y-62152380D01*
X169885714Y-62200000D01*
X169933333Y-62247619D01*
X170314285Y-62247619D02*
X170361904Y-62200000D01*
X170457142Y-62152380D01*
X170695238Y-62152380D01*
X170790476Y-62200000D01*
X170838095Y-62247619D01*
X170885714Y-62342857D01*
X170885714Y-62438095D01*
X170838095Y-62580952D01*
X170266666Y-63152380D01*
X170885714Y-63152380D01*
%TO.C,C4*%
X169957142Y-52366666D02*
X170004761Y-52414285D01*
X170052380Y-52557142D01*
X170052380Y-52652380D01*
X170004761Y-52795238D01*
X169909523Y-52890476D01*
X169814285Y-52938095D01*
X169623809Y-52985714D01*
X169480952Y-52985714D01*
X169290476Y-52938095D01*
X169195238Y-52890476D01*
X169100000Y-52795238D01*
X169052380Y-52652380D01*
X169052380Y-52557142D01*
X169100000Y-52414285D01*
X169147619Y-52366666D01*
X169385714Y-51509523D02*
X170052380Y-51509523D01*
X169004761Y-51747619D02*
X169719047Y-51985714D01*
X169719047Y-51366666D01*
D11*
%TO.C,U1*%
X144400000Y-70134400D02*
X144400000Y-70534400D01*
X144400000Y-57434400D02*
X144400000Y-57834400D01*
X165400000Y-57434400D02*
X165400000Y-57834400D01*
X144400000Y-60034400D02*
X144400000Y-60434400D01*
X165400000Y-80334400D02*
X165400000Y-80734400D01*
X147407000Y-52601400D02*
X147407000Y-49934400D01*
X165400000Y-54934400D02*
X165400000Y-55334400D01*
X165400000Y-67634400D02*
X165400000Y-68034400D01*
X165400000Y-60034400D02*
X165400000Y-60434400D01*
X144400000Y-49934400D02*
X165400000Y-49934400D01*
X165400000Y-52334400D02*
X165400000Y-52734400D01*
X144400000Y-49934400D02*
X144400000Y-50234400D01*
X144400000Y-65034400D02*
X144400000Y-65434400D01*
X144400000Y-75234400D02*
X144400000Y-75634400D01*
X165400000Y-62534400D02*
X165400000Y-62934400D01*
X144400000Y-62534400D02*
X144400000Y-62934400D01*
X165400000Y-72734400D02*
X165400000Y-73134400D01*
X144400000Y-80334400D02*
X144400000Y-80734400D01*
X144400000Y-54934400D02*
X144400000Y-55334400D01*
X144400000Y-52601400D02*
X147407000Y-52601400D01*
X144400000Y-77734400D02*
X144400000Y-78134400D01*
X144400000Y-67634400D02*
X144400000Y-68034400D01*
X165400000Y-75234400D02*
X165400000Y-75634400D01*
X144400000Y-72734400D02*
X144400000Y-73134400D01*
X144400000Y-52334400D02*
X144400000Y-52734400D01*
X165400000Y-49934400D02*
X165400000Y-50234400D01*
X165400000Y-77734400D02*
X165400000Y-78134400D01*
X165400000Y-65034400D02*
X165400000Y-65434400D01*
X165400000Y-82834400D02*
X165400000Y-83234400D01*
X165400000Y-70134400D02*
X165400000Y-70534400D01*
X144400000Y-82834400D02*
X144400000Y-83234400D01*
%TO.C,C1*%
X168535000Y-60361252D02*
X168535000Y-59838748D01*
X167065000Y-60361252D02*
X167065000Y-59838748D01*
%TO.C,J1*%
X174340000Y-66690000D02*
X173190000Y-66690000D01*
X174340000Y-72910000D02*
X173190000Y-72910000D01*
X173190000Y-66690000D02*
X173190000Y-67740000D01*
X173190000Y-67740000D02*
X172200000Y-67740000D01*
X173190000Y-72910000D02*
X173190000Y-71860000D01*
X176310000Y-67860000D02*
X176310000Y-71740000D01*
%TO.C,C11*%
X138765000Y-79988748D02*
X138765000Y-80511252D01*
X140235000Y-79988748D02*
X140235000Y-80511252D01*
%TO.C,C3*%
X168535000Y-54638748D02*
X168535000Y-55161252D01*
X167065000Y-54638748D02*
X167065000Y-55161252D01*
%TO.C,C14*%
X142235000Y-79988748D02*
X142235000Y-80511252D01*
X140765000Y-79988748D02*
X140765000Y-80511252D01*
%TO.C,J5*%
X133190000Y-70090000D02*
X133190000Y-66210000D01*
X135160000Y-65040000D02*
X136310000Y-65040000D01*
X136310000Y-70210000D02*
X137300000Y-70210000D01*
X136310000Y-71260000D02*
X136310000Y-70210000D01*
X135160000Y-71260000D02*
X136310000Y-71260000D01*
X136310000Y-65040000D02*
X136310000Y-66090000D01*
%TO.C,C13*%
X138065000Y-68963748D02*
X138065000Y-69486252D01*
X139535000Y-68963748D02*
X139535000Y-69486252D01*
%TO.C,J4*%
X173390000Y-77940000D02*
X172400000Y-77940000D01*
X173390000Y-83110000D02*
X173390000Y-82060000D01*
X174540000Y-76890000D02*
X173390000Y-76890000D01*
X174540000Y-83110000D02*
X173390000Y-83110000D01*
X173390000Y-76890000D02*
X173390000Y-77940000D01*
X176510000Y-78060000D02*
X176510000Y-81940000D01*
%TO.C,C12*%
X169230000Y-79796252D02*
X169230000Y-79273748D01*
X167760000Y-79796252D02*
X167760000Y-79273748D01*
%TO.C,J3*%
X133290000Y-81490000D02*
X133290000Y-77610000D01*
X136410000Y-76440000D02*
X136410000Y-77490000D01*
X136410000Y-82660000D02*
X136410000Y-81610000D01*
X135260000Y-82660000D02*
X136410000Y-82660000D01*
X136410000Y-81610000D02*
X137400000Y-81610000D01*
X135260000Y-76440000D02*
X136410000Y-76440000D01*
%TO.C,C7*%
X167965000Y-69061252D02*
X167965000Y-68538748D01*
X169435000Y-69061252D02*
X169435000Y-68538748D01*
%TO.C,J2*%
X151290000Y-95565000D02*
X151290000Y-94415000D01*
X156460000Y-94415000D02*
X156460000Y-93425000D01*
X151290000Y-94415000D02*
X152340000Y-94415000D01*
X156340000Y-97535000D02*
X152460000Y-97535000D01*
X157510000Y-95565000D02*
X157510000Y-94415000D01*
X157510000Y-94415000D02*
X156460000Y-94415000D01*
%TO.C,C5*%
X156138748Y-92235000D02*
X156661252Y-92235000D01*
X156138748Y-90765000D02*
X156661252Y-90765000D01*
%TO.C,R2*%
X140769564Y-74015000D02*
X140315436Y-74015000D01*
X140769564Y-72545000D02*
X140315436Y-72545000D01*
%TO.C,R1*%
X141527064Y-63415000D02*
X141072936Y-63415000D01*
X141527064Y-64885000D02*
X141072936Y-64885000D01*
%TO.C,R3*%
X140774564Y-75940000D02*
X140320436Y-75940000D01*
X140774564Y-74470000D02*
X140320436Y-74470000D01*
%TO.C,C8*%
X171430000Y-69046252D02*
X171430000Y-68523748D01*
X169960000Y-69046252D02*
X169960000Y-68523748D01*
%TO.C,C10*%
X141530000Y-68948748D02*
X141530000Y-69471252D01*
X140060000Y-68948748D02*
X140060000Y-69471252D01*
%TO.C,C9*%
X171235000Y-79811252D02*
X171235000Y-79288748D01*
X169765000Y-79811252D02*
X169765000Y-79288748D01*
%TO.C,C6*%
X156138748Y-90235000D02*
X156661252Y-90235000D01*
X156138748Y-88765000D02*
X156661252Y-88765000D01*
%TO.C,D1*%
X142065000Y-61045000D02*
X142065000Y-57955000D01*
X142065000Y-57955170D02*
G75*
G03*
X136515000Y-59500462I-2560000J-1544830D01*
G01*
X136515000Y-59499538D02*
G75*
G03*
X142065000Y-61044830I2990000J-462D01*
G01*
X142005000Y-59500000D02*
G75*
G03*
X142005000Y-59500000I-2500000J0D01*
G01*
%TO.C,C2*%
X169065000Y-60361252D02*
X169065000Y-59838748D01*
X170535000Y-60361252D02*
X170535000Y-59838748D01*
%TO.C,C4*%
X170535000Y-54638748D02*
X170535000Y-55161252D01*
X169065000Y-54638748D02*
X169065000Y-55161252D01*
%TD*%
M02*
