<?xml version="1.0" encoding="UTF-8" standalone="no"?>
<svg
   width="1959.0807"
   height="1990.7401"
   viewBox="0 0 150.984 153.42395"
   version="1.1"
   id="svg10"
   sodipodi:docname="neon-genesis-evangelion.svg"
   inkscape:version="1.2.1 (9c6d41e410, 2022-07-14, custom)"
   xmlns:inkscape="http://www.inkscape.org/namespaces/inkscape"
   xmlns:sodipodi="http://sodipodi.sourceforge.net/DTD/sodipodi-0.dtd"
   xmlns="http://www.w3.org/2000/svg"
   xmlns:svg="http://www.w3.org/2000/svg">
  <g
     id="g3204"
     transform="translate(-22.68,-2.8160513)">
    <path
       d="M 36.576,98.712 H 22.68 v -1.08 c 0,0.576 3.816,-0.864 4.248,-1.152 1.512,-1.152 1.44,-3.24 1.44,-4.968 v -19.224 -8.28 c 0,-3.384 -2.88,-4.392 -5.688,-4.392 v -1.08 h 14.184 c 0,0 18.144,23.04 18.432,23.4 -0.216,-0.216 0,-1.656 0,-2.016 0,-1.584 0.072,-3.168 0,-4.752 0,-3.024 0,-6.048 0.072,-9 0,-3.24 0,-5.976 -3.816,-6.48 -0.072,0 -2.016,-0.144 -2.016,-0.072 v -1.08 h 14.4 v 1.08 c 0,-0.216 -2.952,0.216 -3.312,0.288 -2.448,0.864 -2.592,3.744 -2.592,5.904 0.072,3.744 0.144,7.416 0.144,11.16 v 22.32 H 57.312 L 31.248,66.672 v 24.84 c 0,3.6 1.512,6.12 5.328,6.12 z m 42.696,37.944 v -0.576 -8.496 -13.968 c 0,-2.088 0.576,-5.256 -0.576,-7.128 -0.576,-0.792 -1.512,-1.152 -2.376,-1.296 -0.216,-0.072 -2.448,-0.288 -2.448,-0.216 v -1.008 h 9.72 c 4.032,0 8.064,-0.072 12.096,0.072 3.816,0.144 7.632,0.792 10.224,4.032 2.808,3.456 3.312,8.568 0.504,12.168 -1.656,2.088 -4.032,3.888 -6.552,4.68 0.36,-0.072 4.104,5.832 4.464,6.408 1.584,2.376 3.096,4.824 4.608,7.272 1.08,1.8 2.592,4.176 5.04,4.176 v 1.08 H 101.88 c -3.024,-4.608 -5.904,-9.216 -8.928,-13.824 -1.152,-1.8 -2.448,-4.392 -4.896,-4.392 0,4.32 -0.36,8.856 0.072,13.176 0.288,2.304 1.224,3.6 3.6,3.888 l 0.864,0.072 h 0.864 v 1.08 H 73.872 c 0,-1.296 0.36,-1.008 1.584,-1.152 1.008,-0.072 2.088,-0.216 2.88,-1.008 1.152,-1.224 0.936,-3.384 0.936,-5.04 z m 8.784,-30.528 v 17.28 c 3.744,0 7.488,-0.144 9.576,-3.672 1.944,-3.24 2.16,-7.992 -0.504,-10.944 -1.44,-1.728 -3.816,-2.664 -6.12,-2.664 z"
       id="path4"
       style="fill:#000000;fill-opacity:1" />
    <path
       d="m 171.936,43.776 c -0.144,-0.432 -0.216,-1.008 -0.504,-1.296 -0.864,-0.792 -1.152,-1.8 -2.232,-2.52 -0.72,-0.432 -1.584,-0.576 -2.016,-1.44 -0.864,-1.656 -0.072,-3.024 -2.088,-4.176 -0.648,-0.36 -1.512,-0.432 -1.944,-1.08 -0.432,-0.648 -0.216,-1.584 -0.648,-2.232 -0.864,-1.224 -2.52,-2.016 -3.528,-3.024 -0.864,-0.792 -0.864,-2.16 -1.656,-2.952 -1.008,-1.008 -3.096,-0.432 -4.392,-0.504 -0.216,-1.584 -2.448,-2.088 -3.672,-2.376 -1.368,-0.288 -1.944,-1.584 -3.168,-2.304 -1.296,-0.72 -2.664,-0.432 -4.032,-0.432 -2.52,-0.072 -5.976,-0.648 -6.336,-3.744 0.864,-0.36 1.08,-1.008 1.728,-1.656 0.576,-0.576 1.008,-0.648 1.224,-1.512 0.216,-0.72 0,-1.512 0.144,-2.232 0.288,-1.584 1.44,-2.664 2.88,-3.384 C 140.472,4.32 137.088,5.76 135,4.464 c -0.864,-0.576 -1.584,-1.08 -2.736,-1.008 -1.152,0.144 -2.016,0.576 -3.24,0.432 -1.224,-0.072 -1.656,-0.72 -2.736,-1.008 -1.008,-0.216 -2.448,0.144 -3.24,0.648 -0.072,0 0,0.072 0,0.072 -1.584,1.44 -2.664,0.936 -4.32,0.072 -1.368,-0.792 -2.88,-0.792 -4.248,0 -1.224,0.792 -2.376,1.44 -3.888,1.008 -1.512,-0.432 -2.808,-1.008 -4.248,-0.144 -0.648,0.36 -1.008,0.936 -1.656,1.152 -1.368,0.36 -3.168,0.072 -4.608,0.216 -1.656,0.216 -3.312,0.504 -4.824,1.08 -3.456,1.296 -6.12,3.384 -8.136,6.48 -4.176,6.624 -1.44,15.264 -3.24,22.464 -1.224,5.04 -4.824,10.224 -10.44,10.44 C 69.552,46.512 66.456,43.92 64.152,41.04 61.416,37.728 58.968,34.2 56.736,30.528 55.08,27.648 53.28,24.408 52.632,21.096 L 52.416,20.088 45.936,26.64 75.24,58.536 H 64.728 v 1.08 c 0,-0.072 2.376,0.144 2.592,0.144 0.936,0.216 1.944,0.504 2.52,1.368 1.872,2.736 1.368,5.976 1.368,9.072 -0.072,4.248 -0.216,19.656 -0.792,24.336 -0.36,2.664 -3.312,3.168 -5.616,3.096 0,0.144 -0.072,1.08 -0.072,1.08 h 32.688 l 1.872,-13.104 h -1.08 c -0.144,0 -1.512,3.456 -1.656,3.744 -0.792,1.944 -2.088,3.456 -3.888,4.608 -3.6,2.376 -12.888,3.744 -12.888,-2.736 V 79.128 c 1.224,0.072 2.376,0.216 3.528,0.576 3.744,1.296 4.968,4.968 5.256,8.568 h 1.08 v -14.04 l 27.288,29.736 h -6.768 c 0,0.36 0,0.72 0.072,1.08 3.96,-0.072 4.536,5.04 5.76,7.776 2.736,6.192 4.896,12.6 7.488,18.792 1.8,4.392 3.528,8.784 5.256,13.176 h 1.296 l 7.632,-18.288 27.288,29.736 v -0.504 c 0.072,-1.368 -0.072,-2.664 -0.216,-4.032 -0.144,-2.232 0.432,-4.464 0.36,-6.696 -0.072,-2.232 -1.152,-3.888 -1.728,-5.976 -0.216,-1.152 0.072,-2.232 0.432,-3.312 0.72,-2.016 0.288,-3.816 0.072,-5.904 -0.288,-2.088 1.8,-3.24 1.44,-5.472 -0.144,-1.08 -0.72,-1.728 -0.648,-2.808 0.072,-1.008 0.216,-1.872 -0.072,-2.952 -0.288,-1.008 -0.864,-2.016 -0.864,-3.024 -0.072,-1.296 0.432,-2.376 0,-3.672 -0.504,-1.512 -0.72,-2.376 -0.432,-3.888 0.36,-1.872 0.864,-4.464 -0.648,-5.976 -0.792,-0.936 -1.368,-1.008 -1.584,-2.376 -0.144,-1.008 -0.144,-2.016 -0.216,-3.024 -0.072,-1.008 -0.216,-2.016 -0.648,-2.952 -0.432,-0.792 -1.224,-1.512 -1.656,-2.304 -0.72,-1.656 0.216,-3.528 -0.288,-5.256 -0.288,-0.864 -0.864,-1.584 -1.152,-2.448 -0.288,-0.864 -0.432,-1.8 -0.864,-2.664 -0.72,-1.368 -2.016,-1.656 -1.8,-3.456 0.216,-1.296 0.792,-2.16 -0.144,-3.384 -0.864,-1.08 -1.944,-1.44 -2.448,-2.736 -0.504,-1.368 -0.648,-2.232 -1.944,-3.024 -0.936,-0.72 -2.016,-1.512 -3.168,-1.656 -1.368,-0.144 -2.664,0.36 -3.528,-0.936 -0.648,-1.008 -0.576,-2.16 -1.944,-2.592 -1.152,-0.288 -2.592,0.288 -3.528,-0.576 -0.792,-0.72 -1.152,-1.728 -1.872,-2.52 -0.36,-0.432 -1.368,-1.008 -0.432,-1.584 1.008,-0.576 2.808,1.296 3.888,1.584 1.368,0.36 3.168,0.576 4.608,0.72 3.096,0.216 5.472,-2.232 8.496,-2.16 1.44,0.072 2.952,0.576 4.32,0.072 1.296,-0.576 1.8,-2.376 3.24,-2.664 1.584,-0.216 2.736,0.936 4.032,-0.648 0.936,-1.152 1.08,-2.592 2.304,-3.528 1.44,-1.08 3.096,-0.864 4.608,-1.584 1.224,-0.648 1.872,-2.304 2.736,-3.384 -0.72,-1.008 -1.224,-2.088 -1.728,-3.168 z M 79.776,76.752 V 74.88 67.392 c 0,-1.08 -0.144,-2.592 0.144,-3.816 l 7.776,8.496 c -1.368,3.312 -4.536,4.392 -7.92,4.68 z m 56.016,47.736 c -0.9147,2.26478 -1.85074,4.52088 -2.808,6.768 0.144,-0.36 -0.864,-2.16 -1.008,-2.52 -1.44,-3.816 -2.952,-7.56 -4.464,-11.304 -0.432,-1.152 -0.936,-2.304 -1.368,-3.456 z"
       id="path6"
       style="fill:#000000;fill-opacity:1"
       sodipodi:nodetypes="cccccsccscccccscccccccccccscccccccccccccccccccccccsccsccccccccccccccccscccccccscccscccscccccccccccccccccccccccsccccccccc" />
  </g>
  <defs
     id="defs14" />
  <sodipodi:namedview
     id="namedview12"
     pagecolor="#ffffff"
     bordercolor="#000000"
     borderopacity="0.25"
     inkscape:showpageshadow="2"
     inkscape:pageopacity="0.0"
     inkscape:pagecheckerboard="0"
     inkscape:deskcolor="#d1d1d1"
     showgrid="false"
     inkscape:zoom="0.24766169"
     inkscape:cx="488.56971"
     inkscape:cy="781.30776"
     inkscape:window-width="1920"
     inkscape:window-height="1016"
     inkscape:window-x="0"
     inkscape:window-y="0"
     inkscape:window-maximized="1"
     inkscape:current-layer="svg10" />
</svg>
